solid MouseLensCover
facet normal -0.707106781186554 0.7071067811865411 3.4442864325980214e-14
  outer loop
    vertex 74.32335700231245 33.63833397069387 6.500000000000164
    vertex 73.70707283514996 33.02204980353169 1.9175772081325702e-13
    vertex 73.70707283515027 33.02204980353169 6.500000000000191
  endloop
endfacet
facet normal -0.707106781186554 0.7071067811865411 3.4442864325980214e-14
  outer loop
    vertex 73.70707283514996 33.02204980353169 1.9175772081325702e-13
    vertex 74.32335700231245 33.63833397069387 6.500000000000164
    vertex 74.32335700231214 33.63833397069387 1.64968039229052e-13
  endloop
endfacet
facet normal -0.5735764363510466 0.8191520442889915 2.793865920033689e-14
  outer loop
    vertex 75.03729505074516 34.13823877402118 6.500000000000126
    vertex 74.32335700231214 33.63833397069387 1.64968039229052e-13
    vertex 74.32335700231245 33.63833397069387 6.500000000000164
  endloop
endfacet
facet normal -0.5735764363510466 0.8191520442889915 2.793865920033689e-14
  outer loop
    vertex 74.32335700231214 33.63833397069387 1.64968039229052e-13
    vertex 75.03729505074516 34.13823877402118 6.500000000000126
    vertex 75.03729505074483 34.13823877402118 1.268984917146554e-13
  endloop
endfacet
facet normal -0.9659258262890666 -0.2588190451025271 4.7049827648389244e-14
  outer loop
    vertex 72.61325628568412 28.939870866764338 6.500000000000248
    vertex 72.8388319468153 28.09801103847064 2.340572180514755e-13
    vertex 72.83883194681562 28.09801103847064 6.500000000000234
  endloop
endfacet
facet normal -0.9659258262890666 -0.2588190451025271 4.7049827648389244e-14
  outer loop
    vertex 72.8388319468153 28.09801103847064 2.340572180514755e-13
    vertex 72.61325628568412 28.939870866764338 6.500000000000248
    vertex 72.6132562856838 28.939870866764338 2.4815705046421497e-13
  endloop
endfacet
facet normal -0.5735764363510466 -0.8191520442889915 2.793865920033689e-14
  outer loop
    vertex 74.32335700231214 25.977889539504105 1.64968039229052e-13
    vertex 75.03729505074516 25.4779847361768 6.500000000000126
    vertex 74.32335700231245 25.977889539504105 6.500000000000164
  endloop
endfacet
facet normal -0.5735764363510466 -0.8191520442889915 2.793865920033689e-14
  outer loop
    vertex 75.03729505074516 25.4779847361768 6.500000000000126
    vertex 74.32335700231214 25.977889539504105 1.64968039229052e-13
    vertex 75.03729505074483 25.4779847361768 1.268984917146554e-13
  endloop
endfacet
facet normal -0.707106781186554 -0.7071067811865411 3.4442864325980214e-14
  outer loop
    vertex 73.70707283515027 26.594173706666293 6.500000000000191
    vertex 74.32335700231214 25.977889539504105 1.64968039229052e-13
    vertex 74.32335700231245 25.977889539504105 6.500000000000164
  endloop
endfacet
facet normal -0.707106781186554 -0.7071067811865411 3.4442864325980214e-14
  outer loop
    vertex 74.32335700231214 25.977889539504105 1.64968039229052e-13
    vertex 73.70707283515027 26.594173706666293 6.500000000000191
    vertex 73.70707283514996 26.594173706666293 1.9175772081325702e-13
  endloop
endfacet
facet normal -0.9063077870366563 0.4226182617406859 4.414585883917203e-14
  outer loop
    vertex 73.20716803182296 32.308111755098984 6.500000000000212
    vertex 72.8388319468153 31.518212471727324 2.340572180514755e-13
    vertex 72.83883194681562 31.518212471727324 6.500000000000234
  endloop
endfacet
facet normal -0.9063077870366563 0.4226182617406859 4.414585883917203e-14
  outer loop
    vertex 72.8388319468153 31.518212471727324 2.340572180514755e-13
    vertex 73.20716803182296 32.308111755098984 6.500000000000212
    vertex 73.20716803182265 32.308111755098984 2.1290746943236625e-13
  endloop
endfacet
facet normal -0.9659258262890659 0.2588190451025304 4.7049827648389206e-14
  outer loop
    vertex 72.83883194681562 31.518212471727324 6.500000000000234
    vertex 72.6132562856838 30.676352643433642 2.4815705046421497e-13
    vertex 72.61325628568412 30.676352643433642 6.500000000000248
  endloop
endfacet
facet normal -0.9659258262890659 0.2588190451025304 4.7049827648389206e-14
  outer loop
    vertex 72.6132562856838 30.676352643433642 2.4815705046421497e-13
    vertex 72.83883194681562 31.518212471727324 6.500000000000234
    vertex 72.8388319468153 31.518212471727324 2.340572180514755e-13
  endloop
endfacet
facet normal -0.9961946980917455 0.08715574274765822 4.852421125287218e-14
  outer loop
    vertex 72.61325628568412 30.676352643433642 6.500000000000248
    vertex 72.53729505074485 29.808111755098988 2.4533708398166706e-13
    vertex 72.53729505074516 29.808111755098988 6.500000000000245
  endloop
endfacet
facet normal -0.9961946980917455 0.08715574274765822 4.852421125287218e-14
  outer loop
    vertex 72.53729505074485 29.808111755098988 2.4533708398166706e-13
    vertex 72.61325628568412 30.676352643433642 6.500000000000248
    vertex 72.6132562856838 30.676352643433642 2.4815705046421497e-13
  endloop
endfacet
facet normal -0.8191520442889854 -0.5735764363510553 3.990054044800802e-14
  outer loop
    vertex 73.20716803182296 27.308111755098995 6.500000000000212
    vertex 73.70707283514996 26.594173706666293 1.9175772081325702e-13
    vertex 73.70707283515027 26.594173706666293 6.500000000000191
  endloop
endfacet
facet normal -0.8191520442889854 -0.5735764363510553 3.990054044800802e-14
  outer loop
    vertex 73.70707283514996 26.594173706666293 1.9175772081325702e-13
    vertex 73.20716803182296 27.308111755098995 6.500000000000212
    vertex 73.20716803182265 27.308111755098995 2.1290746943236625e-13
  endloop
endfacet
facet normal -0.8191520442889854 0.5735764363510553 3.990054044800802e-14
  outer loop
    vertex 73.70707283515027 33.02204980353169 6.500000000000191
    vertex 73.20716803182265 32.308111755098984 2.1290746943236625e-13
    vertex 73.20716803182296 32.308111755098984 6.500000000000212
  endloop
endfacet
facet normal -0.8191520442889854 0.5735764363510553 3.990054044800802e-14
  outer loop
    vertex 73.20716803182265 32.308111755098984 2.1290746943236625e-13
    vertex 73.70707283515027 33.02204980353169 6.500000000000191
    vertex 73.70707283514996 33.02204980353169 1.9175772081325702e-13
  endloop
endfacet
facet normal -0.9063077870366539 -0.4226182617406909 4.414585883917192e-14
  outer loop
    vertex 72.83883194681562 28.09801103847064 6.500000000000234
    vertex 73.20716803182265 27.308111755098995 2.1290746943236625e-13
    vertex 73.20716803182296 27.308111755098995 6.500000000000212
  endloop
endfacet
facet normal -0.9063077870366539 -0.4226182617406909 4.414585883917192e-14
  outer loop
    vertex 73.20716803182265 27.308111755098995 2.1290746943236625e-13
    vertex 72.83883194681562 28.09801103847064 6.500000000000234
    vertex 72.8388319468153 28.09801103847064 2.340572180514755e-13
  endloop
endfacet
facet normal -0.9961946980917455 -0.08715574274765822 4.852421125287218e-14
  outer loop
    vertex 72.53729505074516 29.808111755098988 6.500000000000245
    vertex 72.6132562856838 28.939870866764338 2.4815705046421497e-13
    vertex 72.61325628568412 28.939870866764338 6.500000000000248
  endloop
endfacet
facet normal -0.9961946980917455 -0.08715574274765822 4.852421125287218e-14
  outer loop
    vertex 72.6132562856838 28.939870866764338 2.4815705046421497e-13
    vertex 72.53729505074516 29.808111755098988 6.500000000000245
    vertex 72.53729505074485 29.808111755098988 2.4533708398166706e-13
  endloop
endfacet
facet normal -0.2588190451025183 0.965925826289069 1.260696332240931e-14
  outer loop
    vertex 76.66905416241018 34.73215052016002 5.0759396685862156e-14
    vertex 75.82719433411681 34.506574859028525 6.500000000000091
    vertex 76.66905416241049 34.73215052016002 6.50000000000005
  endloop
endfacet
facet normal -0.2588190451025183 0.965925826289069 1.260696332240931e-14
  outer loop
    vertex 75.82719433411681 34.506574859028525 6.500000000000091
    vertex 76.66905416241018 34.73215052016002 5.0759396685862156e-14
    vertex 75.8271943341165 34.506574859028525 9.164891068280667e-14
  endloop
endfacet
facet normal -0.42261826174069655 0.9063077870366513 2.058555205253517e-14
  outer loop
    vertex 75.8271943341165 34.506574859028525 9.164891068280667e-14
    vertex 75.03729505074516 34.13823877402118 6.500000000000126
    vertex 75.82719433411681 34.506574859028525 6.500000000000091
  endloop
endfacet
facet normal -0.42261826174069655 0.9063077870366513 2.058555205253517e-14
  outer loop
    vertex 75.03729505074516 34.13823877402118 6.500000000000126
    vertex 75.8271943341165 34.506574859028525 9.164891068280667e-14
    vertex 75.03729505074483 34.13823877402118 1.268984917146554e-13
  endloop
endfacet
facet normal 0.5735764363510466 0.8191520442889915 -2.793865920033689e-14
  outer loop
    vertex 80.75123309917753 33.63833397069387 -1.4804824033376462e-13
    vertex 80.03729505074514 34.13823877402118 6.499999999999879
    vertex 80.75123309917784 33.63833397069387 6.499999999999852
  endloop
endfacet
facet normal 0.5735764363510466 0.8191520442889915 -2.793865920033689e-14
  outer loop
    vertex 80.03729505074514 34.13823877402118 6.499999999999879
    vertex 80.75123309917753 33.63833397069387 -1.4804824033376462e-13
    vertex 80.03729505074483 34.13823877402118 -1.1984857550828565e-13
  endloop
endfacet
facet normal 0.707106781186554 0.7071067811865411 -3.4442864325980214e-14
  outer loop
    vertex 80.75123309917753 33.63833397069387 -1.4804824033376462e-13
    vertex 81.36751726634002 33.02204980353169 6.499999999999814
    vertex 81.3675172663397 33.02204980353169 -1.8470780460688727e-13
  endloop
endfacet
facet normal 0.707106781186554 0.7071067811865411 -3.4442864325980214e-14
  outer loop
    vertex 81.36751726634002 33.02204980353169 6.499999999999814
    vertex 80.75123309917753 33.63833397069387 -1.4804824033376462e-13
    vertex 80.75123309917784 33.63833397069387 6.499999999999852
  endloop
endfacet
facet normal 0.2588190451025183 0.965925826289069 -1.260696332240931e-14
  outer loop
    vertex 79.24739576737316 34.506574859028525 -7.472911178751928e-14
    vertex 78.4055359390798 34.73215052016002 6.499999999999965
    vertex 79.24739576737349 34.506574859028525 6.4999999999999245
  endloop
endfacet
facet normal 0.2588190451025183 0.965925826289069 -1.260696332240931e-14
  outer loop
    vertex 78.4055359390798 34.73215052016002 6.499999999999965
    vertex 79.24739576737316 34.506574859028525 -7.472911178751928e-14
    vertex 78.40553593907948 34.73215052016002 -3.3839597790574766e-14
  endloop
endfacet
facet normal -0.08715574274765822 0.9961946980917455 4.245318391163392e-15
  outer loop
    vertex 77.53729505074483 34.80811175509898 8.459899447643692e-15
    vertex 76.66905416241049 34.73215052016002 6.50000000000005
    vertex 77.53729505074514 34.80811175509898 6.500000000000008
  endloop
endfacet
facet normal -0.08715574274765822 0.9961946980917455 4.245318391163392e-15
  outer loop
    vertex 76.66905416241049 34.73215052016002 6.50000000000005
    vertex 77.53729505074483 34.80811175509898 8.459899447643692e-15
    vertex 76.66905416241018 34.73215052016002 5.0759396685862156e-14
  endloop
endfacet
facet normal 0.42261826174069655 0.9063077870366513 -2.058555205253517e-14
  outer loop
    vertex 80.03729505074514 34.13823877402118 6.499999999999879
    vertex 79.24739576737316 34.506574859028525 -7.472911178751928e-14
    vertex 79.24739576737349 34.506574859028525 6.4999999999999245
  endloop
endfacet
facet normal 0.42261826174069655 0.9063077870366513 -2.058555205253517e-14
  outer loop
    vertex 79.24739576737316 34.506574859028525 -7.472911178751928e-14
    vertex 80.03729505074514 34.13823877402118 6.499999999999879
    vertex 80.03729505074483 34.13823877402118 -1.1984857550828565e-13
  endloop
endfacet
facet normal 0.08715574274765822 0.9961946980917455 -4.245318391163392e-15
  outer loop
    vertex 78.40553593907948 34.73215052016002 -3.3839597790574766e-14
    vertex 77.53729505074514 34.80811175509898 6.500000000000008
    vertex 78.4055359390798 34.73215052016002 6.499999999999965
  endloop
endfacet
facet normal 0.08715574274765822 0.9961946980917455 -4.245318391163392e-15
  outer loop
    vertex 77.53729505074514 34.80811175509898 6.500000000000008
    vertex 78.40553593907948 34.73215052016002 -3.3839597790574766e-14
    vertex 77.53729505074483 34.80811175509898 8.459899447643692e-15
  endloop
endfacet
facet normal 0.8191520442889854 0.5735764363510553 -3.990054044800802e-14
  outer loop
    vertex 81.3675172663397 33.02204980353169 -1.8470780460688727e-13
    vertex 81.86742206966734 32.308111755098984 6.499999999999794
    vertex 81.86742206966703 32.308111755098984 -2.058575532259965e-13
  endloop
endfacet
facet normal 0.8191520442889854 0.5735764363510553 -3.990054044800802e-14
  outer loop
    vertex 81.86742206966734 32.308111755098984 6.499999999999794
    vertex 81.3675172663397 33.02204980353169 -1.8470780460688727e-13
    vertex 81.36751726634002 33.02204980353169 6.499999999999814
  endloop
endfacet
facet normal 0.9063077870366539 0.4226182617406909 -4.414585883917192e-14
  outer loop
    vertex 81.86742206966703 32.308111755098984 -2.058575532259965e-13
    vertex 82.23575815467467 31.518212471727335 6.499999999999773
    vertex 82.23575815467436 31.518212471727335 -2.2700730184510574e-13
  endloop
endfacet
facet normal 0.9063077870366539 0.4226182617406909 -4.414585883917192e-14
  outer loop
    vertex 82.23575815467467 31.518212471727335 6.499999999999773
    vertex 81.86742206966703 32.308111755098984 -2.058575532259965e-13
    vertex 81.86742206966734 32.308111755098984 6.499999999999794
  endloop
endfacet
facet normal 0.9659258262890666 0.2588190451025271 -4.7049827648389244e-14
  outer loop
    vertex 82.23575815467436 31.518212471727335 -2.2700730184510574e-13
    vertex 82.46133381580619 30.676352643433642 6.499999999999768
    vertex 82.46133381580586 30.676352643433642 -2.3123725156892757e-13
  endloop
endfacet
facet normal 0.9659258262890666 0.2588190451025271 -4.7049827648389244e-14
  outer loop
    vertex 82.46133381580619 30.676352643433642 6.499999999999768
    vertex 82.23575815467436 31.518212471727335 -2.2700730184510574e-13
    vertex 82.23575815467467 31.518212471727335 6.499999999999773
  endloop
endfacet
facet normal 0.9961946980917455 0.08715574274765822 -4.852421125287218e-14
  outer loop
    vertex 82.46133381580586 30.676352643433642 -2.3123725156892757e-13
    vertex 82.53729505074514 29.808111755098988 6.499999999999761
    vertex 82.53729505074483 29.808111755098988 -2.382871677752973e-13
  endloop
endfacet
facet normal 0.9961946980917455 0.08715574274765822 -4.852421125287218e-14
  outer loop
    vertex 82.53729505074514 29.808111755098988 6.499999999999761
    vertex 82.46133381580586 30.676352643433642 -2.3123725156892757e-13
    vertex 82.46133381580619 30.676352643433642 6.499999999999768
  endloop
endfacet
facet normal 0.9961946980917455 -0.08715574274765822 -4.852421125287218e-14
  outer loop
    vertex 82.53729505074483 29.808111755098988 -2.382871677752973e-13
    vertex 82.46133381580619 28.939870866764338 6.499999999999768
    vertex 82.46133381580586 28.939870866764338 -2.3123725156892757e-13
  endloop
endfacet
facet normal 0.9961946980917455 -0.08715574274765822 -4.852421125287218e-14
  outer loop
    vertex 82.46133381580619 28.939870866764338 6.499999999999768
    vertex 82.53729505074483 29.808111755098988 -2.382871677752973e-13
    vertex 82.53729505074514 29.808111755098988 6.499999999999761
  endloop
endfacet
facet normal 0.9659258262890659 -0.2588190451025304 -4.7049827648389206e-14
  outer loop
    vertex 82.46133381580586 28.939870866764338 -2.3123725156892757e-13
    vertex 82.23575815467467 28.098011038470652 6.499999999999773
    vertex 82.23575815467436 28.098011038470652 -2.2700730184510574e-13
  endloop
endfacet
facet normal 0.9659258262890659 -0.2588190451025304 -4.7049827648389206e-14
  outer loop
    vertex 82.23575815467467 28.098011038470652 6.499999999999773
    vertex 82.46133381580586 28.939870866764338 -2.3123725156892757e-13
    vertex 82.46133381580619 28.939870866764338 6.499999999999768
  endloop
endfacet
facet normal 0.9063077870366563 -0.4226182617406859 -4.414585883917203e-14
  outer loop
    vertex 82.23575815467436 28.098011038470652 -2.2700730184510574e-13
    vertex 81.86742206966734 27.308111755098995 6.499999999999794
    vertex 81.86742206966703 27.308111755098995 -2.058575532259965e-13
  endloop
endfacet
facet normal 0.9063077870366563 -0.4226182617406859 -4.414585883917203e-14
  outer loop
    vertex 81.86742206966734 27.308111755098995 6.499999999999794
    vertex 82.23575815467436 28.098011038470652 -2.2700730184510574e-13
    vertex 82.23575815467467 28.098011038470652 6.499999999999773
  endloop
endfacet
facet normal 0.8191520442889854 -0.5735764363510553 -3.990054044800802e-14
  outer loop
    vertex 81.86742206966703 27.308111755098995 -2.058575532259965e-13
    vertex 81.36751726634002 26.594173706666293 6.499999999999814
    vertex 81.3675172663397 26.594173706666293 -1.8470780460688727e-13
  endloop
endfacet
facet normal 0.8191520442889854 -0.5735764363510553 -3.990054044800802e-14
  outer loop
    vertex 81.36751726634002 26.594173706666293 6.499999999999814
    vertex 81.86742206966703 27.308111755098995 -2.058575532259965e-13
    vertex 81.86742206966734 27.308111755098995 6.499999999999794
  endloop
endfacet
facet normal 0.08715574274765822 -0.9961946980917455 -4.245318391163392e-15
  outer loop
    vertex 77.53729505074483 24.808111755099 8.459899447643692e-15
    vertex 77.97141549491248 24.846092372568478 6.499999999999987
    vertex 77.53729505074514 24.808111755099 6.500000000000008
  endloop
endfacet
facet normal 0.08715574274765822 -0.9961946980917455 -4.245318391163392e-15
  outer loop
    vertex 77.97141549491248 24.846092372568478 6.499999999999987
    vertex 77.53729505074483 24.808111755099 8.459899447643692e-15
    vertex 78.4055359390798 24.884072990037957 6.499999999999965
  endloop
endfacet
facet normal 0.08715574274765822 -0.9961946980917455 -4.245318391163392e-15
  outer loop
    vertex 78.4055359390798 24.884072990037957 6.499999999999965
    vertex 77.53729505074483 24.808111755099 8.459899447643692e-15
    vertex 78.40553593907948 24.884072990037957 -3.3839597790574766e-14
  endloop
endfacet
facet normal 0.707106781186554 -0.7071067811865411 -3.4442864325980214e-14
  outer loop
    vertex 81.3675172663397 26.594173706666293 -1.8470780460688727e-13
    vertex 80.75123309917784 25.977889539504105 6.499999999999852
    vertex 80.75123309917753 25.977889539504105 -1.4804824033376462e-13
  endloop
endfacet
facet normal 0.707106781186554 -0.7071067811865411 -3.4442864325980214e-14
  outer loop
    vertex 80.75123309917784 25.977889539504105 6.499999999999852
    vertex 81.3675172663397 26.594173706666293 -1.8470780460688727e-13
    vertex 81.36751726634002 26.594173706666293 6.499999999999814
  endloop
endfacet
facet normal 0.5735764363510379 -0.8191520442889977 -2.793865920033647e-14
  outer loop
    vertex 80.03729505074514 25.47798473617681 6.499999999999879
    vertex 80.75123309917753 25.977889539504105 -1.4804824033376462e-13
    vertex 80.75123309917784 25.977889539504105 6.499999999999852
  endloop
endfacet
facet normal 0.5735764363510379 -0.8191520442889977 -2.793865920033647e-14
  outer loop
    vertex 80.75123309917753 25.977889539504105 -1.4804824033376462e-13
    vertex 80.03729505074514 25.47798473617681 6.499999999999879
    vertex 80.03729505074483 25.47798473617681 -1.1984857550828565e-13
  endloop
endfacet
facet normal 0.42261826174070716 -0.9063077870366463 -2.0585552052535703e-14
  outer loop
    vertex 79.24739576737316 25.10964865116945 -7.472911178751928e-14
    vertex 80.03729505074514 25.47798473617681 6.499999999999879
    vertex 79.24739576737349 25.10964865116945 6.4999999999999245
  endloop
endfacet
facet normal 0.42261826174070716 -0.9063077870366463 -2.0585552052535703e-14
  outer loop
    vertex 80.03729505074514 25.47798473617681 6.499999999999879
    vertex 79.24739576737316 25.10964865116945 -7.472911178751928e-14
    vertex 80.03729505074483 25.47798473617681 -1.1984857550828565e-13
  endloop
endfacet
facet normal 0.2588190451025183 -0.965925826289069 -1.260696332240931e-14
  outer loop
    vertex 78.40553593907948 24.884072990037957 -3.3839597790574766e-14
    vertex 79.24739576737349 25.10964865116945 6.4999999999999245
    vertex 78.4055359390798 24.884072990037957 6.499999999999965
  endloop
endfacet
facet normal 0.2588190451025183 -0.965925826289069 -1.260696332240931e-14
  outer loop
    vertex 79.24739576737349 25.10964865116945 6.4999999999999245
    vertex 78.40553593907948 24.884072990037957 -3.3839597790574766e-14
    vertex 79.24739576737316 25.10964865116945 -7.472911178751928e-14
  endloop
endfacet
facet normal -0.08715574274765822 -0.9961946980917455 4.245318391163392e-15
  outer loop
    vertex 76.66905416241018 24.884072990037957 5.0759396685862156e-14
    vertex 77.53729505074514 24.808111755099 6.500000000000008
    vertex 76.66905416241049 24.884072990037957 6.50000000000005
  endloop
endfacet
facet normal -0.08715574274765822 -0.9961946980917455 4.245318391163392e-15
  outer loop
    vertex 77.53729505074514 24.808111755099 6.500000000000008
    vertex 76.66905416241018 24.884072990037957 5.0759396685862156e-14
    vertex 77.53729505074483 24.808111755099 8.459899447643692e-15
  endloop
endfacet
facet normal -0.2588190451025183 -0.965925826289069 1.260696332240931e-14
  outer loop
    vertex 75.8271943341165 25.10964865116945 9.164891068280667e-14
    vertex 76.66905416241049 24.884072990037957 6.50000000000005
    vertex 75.82719433411681 25.10964865116945 6.500000000000091
  endloop
endfacet
facet normal -0.2588190451025183 -0.965925826289069 1.260696332240931e-14
  outer loop
    vertex 76.66905416241049 24.884072990037957 6.50000000000005
    vertex 75.8271943341165 25.10964865116945 9.164891068280667e-14
    vertex 76.66905416241018 24.884072990037957 5.0759396685862156e-14
  endloop
endfacet
facet normal -0.42261826174069655 -0.9063077870366513 2.058555205253517e-14
  outer loop
    vertex 75.03729505074516 25.4779847361768 6.500000000000126
    vertex 75.8271943341165 25.10964865116945 9.164891068280667e-14
    vertex 75.82719433411681 25.10964865116945 6.500000000000091
  endloop
endfacet
facet normal -0.42261826174069655 -0.9063077870366513 2.058555205253517e-14
  outer loop
    vertex 75.8271943341165 25.10964865116945 9.164891068280667e-14
    vertex 75.03729505074516 25.4779847361768 6.500000000000126
    vertex 75.03729505074483 25.4779847361768 1.268984917146554e-13
  endloop
endfacet
facet normal 4.871160873101547e-14 3.5596645692092756e-18 1.0
  outer loop
    vertex 82.46133381580619 30.676352643433642 6.499999999999768
    vertex 82.46133381580619 28.939870866764338 6.499999999999768
    vertex 82.53729505074514 29.808111755098988 6.499999999999761
  endloop
endfacet
facet normal 4.871160873101547e-14 3.5596645692092756e-18 1.0
  outer loop
    vertex 82.46133381580619 28.939870866764338 6.499999999999768
    vertex 82.46133381580619 30.676352643433642 6.499999999999768
    vertex 82.23575815467467 31.518212471727335 6.499999999999773
  endloop
endfacet
facet normal 4.871160873101547e-14 3.5596645692092756e-18 1.0
  outer loop
    vertex 82.46133381580619 28.939870866764338 6.499999999999768
    vertex 82.23575815467467 31.518212471727335 6.499999999999773
    vertex 82.23575815467467 28.098011038470652 6.499999999999773
  endloop
endfacet
facet normal 4.871160873101547e-14 3.5596645692092756e-18 1.0
  outer loop
    vertex 82.23575815467467 28.098011038470652 6.499999999999773
    vertex 82.23575815467467 31.518212471727335 6.499999999999773
    vertex 81.86742206966734 32.308111755098984 6.499999999999794
  endloop
endfacet
facet normal 4.871160873101547e-14 3.5596645692092756e-18 1.0
  outer loop
    vertex 82.23575815467467 28.098011038470652 6.499999999999773
    vertex 81.86742206966734 32.308111755098984 6.499999999999794
    vertex 81.86742206966734 27.308111755098995 6.499999999999794
  endloop
endfacet
facet normal 4.871160873101547e-14 3.5596645692092756e-18 1.0
  outer loop
    vertex 81.86742206966734 27.308111755098995 6.499999999999794
    vertex 81.86742206966734 32.308111755098984 6.499999999999794
    vertex 81.36751726634002 33.02204980353169 6.499999999999814
  endloop
endfacet
facet normal 4.871160873101547e-14 3.5596645692092756e-18 1.0
  outer loop
    vertex 81.86742206966734 27.308111755098995 6.499999999999794
    vertex 81.36751726634002 33.02204980353169 6.499999999999814
    vertex 81.36751726634002 26.594173706666293 6.499999999999814
  endloop
endfacet
facet normal 4.871160873101547e-14 3.5596645692092756e-18 1.0
  outer loop
    vertex 81.36751726634002 26.594173706666293 6.499999999999814
    vertex 81.36751726634002 33.02204980353169 6.499999999999814
    vertex 80.75123309917784 33.63833397069387 6.499999999999852
  endloop
endfacet
facet normal 4.871160873101547e-14 3.5596645692092756e-18 1.0
  outer loop
    vertex 81.36751726634002 26.594173706666293 6.499999999999814
    vertex 80.75123309917784 33.63833397069387 6.499999999999852
    vertex 80.75123309917784 25.977889539504105 6.499999999999852
  endloop
endfacet
facet normal 4.871160873101547e-14 3.5596645692092756e-18 1.0
  outer loop
    vertex 80.75123309917784 25.977889539504105 6.499999999999852
    vertex 80.75123309917784 33.63833397069387 6.499999999999852
    vertex 80.03729505074514 34.13823877402118 6.499999999999879
  endloop
endfacet
facet normal 4.871160873101547e-14 3.5596645692092756e-18 1.0
  outer loop
    vertex 80.75123309917784 25.977889539504105 6.499999999999852
    vertex 80.03729505074514 34.13823877402118 6.499999999999879
    vertex 80.03729505074514 25.47798473617681 6.499999999999879
  endloop
endfacet
facet normal 4.871160873101547e-14 3.5596645692092756e-18 1.0
  outer loop
    vertex 80.03729505074514 25.47798473617681 6.499999999999879
    vertex 80.03729505074514 34.13823877402118 6.499999999999879
    vertex 80.03729505074512 29.808111755098988 6.499999999999881
  endloop
endfacet
facet normal 4.871160873101547e-14 3.5596645692092756e-18 1.0
  outer loop
    vertex 80.03729505074512 29.808111755098988 6.499999999999881
    vertex 80.03729505074514 34.13823877402118 6.499999999999879
    vertex 79.9521096164678 30.45515936785529 6.499999999999885
  endloop
endfacet
facet normal 4.871160873101547e-14 3.5596645692092756e-18 1.0
  outer loop
    vertex 79.9521096164678 30.45515936785529 6.499999999999885
    vertex 80.03729505074514 34.13823877402118 6.499999999999879
    vertex 79.24739576737349 34.506574859028525 6.4999999999999245
  endloop
endfacet
facet normal 4.871160873101547e-14 3.5596645692092756e-18 1.0
  outer loop
    vertex 79.9521096164678 30.45515936785529 6.499999999999885
    vertex 79.24739576737349 34.506574859028525 6.4999999999999245
    vertex 79.7023585602062 31.058111755098988 6.4999999999999
  endloop
endfacet
facet normal 4.871160873101547e-14 3.5596645692092756e-18 1.0
  outer loop
    vertex 79.7023585602062 31.058111755098988 6.4999999999999
    vertex 79.24739576737349 34.506574859028525 6.4999999999999245
    vertex 79.3050620037115 31.57587870806535 6.49999999999992
  endloop
endfacet
facet normal 4.871160873101547e-14 3.5596645692092756e-18 1.0
  outer loop
    vertex 79.3050620037115 31.57587870806535 6.49999999999992
    vertex 79.24739576737349 34.506574859028525 6.4999999999999245
    vertex 78.78729505074512 31.973175264560084 6.499999999999946
  endloop
endfacet
facet normal 4.871160873101547e-14 3.5596645692092756e-18 1.0
  outer loop
    vertex 78.78729505074512 31.973175264560084 6.499999999999946
    vertex 79.24739576737349 34.506574859028525 6.4999999999999245
    vertex 78.4055359390798 34.73215052016002 6.499999999999965
  endloop
endfacet
facet normal 4.871160873101547e-14 3.5596645692092756e-18 1.0
  outer loop
    vertex 78.78729505074512 31.973175264560084 6.499999999999946
    vertex 78.4055359390798 34.73215052016002 6.499999999999965
    vertex 78.18434266350141 32.22292632082165 6.499999999999972
  endloop
endfacet
facet normal 4.871160873101547e-14 3.5596645692092756e-18 1.0
  outer loop
    vertex 78.18434266350141 32.22292632082165 6.499999999999972
    vertex 78.4055359390798 34.73215052016002 6.499999999999965
    vertex 77.53729505074514 34.80811175509898 6.500000000000008
  endloop
endfacet
facet normal 4.871160873101547e-14 3.5596645692092756e-18 1.0
  outer loop
    vertex 78.18434266350141 32.22292632082165 6.499999999999972
    vertex 77.53729505074514 34.80811175509898 6.500000000000008
    vertex 77.53729505074513 32.308111755098984 6.500000000000006
  endloop
endfacet
facet normal 4.871160873101547e-14 3.5596645692092756e-18 1.0
  outer loop
    vertex 77.53729505074513 32.308111755098984 6.500000000000006
    vertex 77.53729505074514 34.80811175509898 6.500000000000008
    vertex 76.66905416241049 34.73215052016002 6.50000000000005
  endloop
endfacet
facet normal 4.871160873101547e-14 3.5596645692092756e-18 1.0
  outer loop
    vertex 77.53729505074513 32.308111755098984 6.500000000000006
    vertex 76.66905416241049 34.73215052016002 6.50000000000005
    vertex 76.89024743798882 32.22292632082165 6.500000000000035
  endloop
endfacet
facet normal 4.871160873101547e-14 3.5596645692092756e-18 1.0
  outer loop
    vertex 76.89024743798882 32.22292632082165 6.500000000000035
    vertex 76.66905416241049 34.73215052016002 6.50000000000005
    vertex 76.28729505074512 31.973175264560084 6.500000000000064
  endloop
endfacet
facet normal 4.871160873101547e-14 3.5596645692092756e-18 1.0
  outer loop
    vertex 76.28729505074512 31.973175264560084 6.500000000000064
    vertex 76.66905416241049 34.73215052016002 6.50000000000005
    vertex 75.82719433411681 34.506574859028525 6.500000000000091
  endloop
endfacet
facet normal 4.871160873101547e-14 3.5596645692092756e-18 1.0
  outer loop
    vertex 76.28729505074512 31.973175264560084 6.500000000000064
    vertex 75.82719433411681 34.506574859028525 6.500000000000091
    vertex 75.76952809777875 31.57587870806535 6.500000000000092
  endloop
endfacet
facet normal 4.871160873101547e-14 3.5596645692092756e-18 1.0
  outer loop
    vertex 75.76952809777875 31.57587870806535 6.500000000000092
    vertex 75.82719433411681 34.506574859028525 6.500000000000091
    vertex 75.03729505074516 34.13823877402118 6.500000000000126
  endloop
endfacet
facet normal 4.871160873101547e-14 3.5596645692092756e-18 1.0
  outer loop
    vertex 75.76952809777875 31.57587870806535 6.500000000000092
    vertex 75.03729505074516 34.13823877402118 6.500000000000126
    vertex 75.37223154128404 31.058111755098988 6.500000000000111
  endloop
endfacet
facet normal 4.871160873101547e-14 3.5596645692092756e-18 1.0
  outer loop
    vertex 75.37223154128404 31.058111755098988 6.500000000000111
    vertex 75.03729505074516 34.13823877402118 6.500000000000126
    vertex 75.12248048502246 30.45515936785529 6.500000000000121
  endloop
endfacet
facet normal 4.871160873101547e-14 3.5596645692092756e-18 1.0
  outer loop
    vertex 75.12248048502246 30.45515936785529 6.500000000000121
    vertex 75.03729505074516 34.13823877402118 6.500000000000126
    vertex 75.03729505074513 29.808111755098988 6.500000000000125
  endloop
endfacet
facet normal 4.871160873101547e-14 3.5596645692092756e-18 1.0
  outer loop
    vertex 75.03729505074513 29.808111755098988 6.500000000000125
    vertex 75.03729505074516 34.13823877402118 6.500000000000126
    vertex 74.32335700231245 33.63833397069387 6.500000000000164
  endloop
endfacet
facet normal 4.871160873101547e-14 3.5596645692092756e-18 1.0
  outer loop
    vertex 80.03729505074514 25.47798473617681 6.499999999999879
    vertex 79.9521096164678 29.16106414234269 6.499999999999885
    vertex 79.24739576737349 25.10964865116945 6.4999999999999245
  endloop
endfacet
facet normal 4.871160873101547e-14 3.5596645692092756e-18 1.0
  outer loop
    vertex 79.9521096164678 29.16106414234269 6.499999999999885
    vertex 80.03729505074514 25.47798473617681 6.499999999999879
    vertex 80.03729505074512 29.808111755098988 6.499999999999881
  endloop
endfacet
facet normal 4.871160873101547e-14 3.5596645692092756e-18 1.0
  outer loop
    vertex 79.24739576737349 25.10964865116945 6.4999999999999245
    vertex 79.9521096164678 29.16106414234269 6.499999999999885
    vertex 79.7023585602062 28.55811175509899 6.4999999999999
  endloop
endfacet
facet normal 4.871160873101547e-14 3.5596645692092756e-18 1.0
  outer loop
    vertex 79.24739576737349 25.10964865116945 6.4999999999999245
    vertex 79.7023585602062 28.55811175509899 6.4999999999999
    vertex 79.3050620037115 28.040344802132626 6.49999999999992
  endloop
endfacet
facet normal 4.871160873101547e-14 3.5596645692092756e-18 1.0
  outer loop
    vertex 79.24739576737349 25.10964865116945 6.4999999999999245
    vertex 79.3050620037115 28.040344802132626 6.49999999999992
    vertex 78.78729505074513 27.643048245637893 6.499999999999946
  endloop
endfacet
facet normal 4.871160873101547e-14 3.5596645692092756e-18 1.0
  outer loop
    vertex 79.24739576737349 25.10964865116945 6.4999999999999245
    vertex 78.78729505074513 27.643048245637893 6.499999999999946
    vertex 78.4055359390798 24.884072990037957 6.499999999999965
  endloop
endfacet
facet normal 4.871160873101547e-14 3.5596645692092756e-18 1.0
  outer loop
    vertex 78.4055359390798 24.884072990037957 6.499999999999965
    vertex 78.78729505074513 27.643048245637893 6.499999999999946
    vertex 78.18434266350141 27.393297189376327 6.499999999999972
  endloop
endfacet
facet normal 4.871160873101547e-14 3.5596645692092756e-18 1.0
  outer loop
    vertex 78.4055359390798 24.884072990037957 6.499999999999965
    vertex 78.18434266350141 27.393297189376327 6.499999999999972
    vertex 77.97141549491248 24.846092372568478 6.499999999999987
  endloop
endfacet
facet normal 4.871160873101547e-14 3.5596645692092756e-18 1.0
  outer loop
    vertex 77.97141549491248 24.846092372568478 6.499999999999987
    vertex 78.18434266350141 27.393297189376327 6.499999999999972
    vertex 77.53729505074513 27.308111755098995 6.500000000000006
  endloop
endfacet
facet normal 4.871160873101547e-14 3.5596645692092756e-18 1.0
  outer loop
    vertex 77.97141549491248 24.846092372568478 6.499999999999987
    vertex 77.53729505074513 27.308111755098995 6.500000000000006
    vertex 77.53729505074514 24.808111755099 6.500000000000008
  endloop
endfacet
facet normal 4.871160873101547e-14 3.5596645692092756e-18 1.0
  outer loop
    vertex 77.53729505074514 24.808111755099 6.500000000000008
    vertex 77.53729505074513 27.308111755098995 6.500000000000006
    vertex 76.66905416241049 24.884072990037957 6.50000000000005
  endloop
endfacet
facet normal 4.871160873101547e-14 3.5596645692092756e-18 1.0
  outer loop
    vertex 76.66905416241049 24.884072990037957 6.50000000000005
    vertex 77.53729505074513 27.308111755098995 6.500000000000006
    vertex 76.89024743798883 27.393297189376327 6.500000000000035
  endloop
endfacet
facet normal 4.871160873101547e-14 3.5596645692092756e-18 1.0
  outer loop
    vertex 76.66905416241049 24.884072990037957 6.50000000000005
    vertex 76.89024743798883 27.393297189376327 6.500000000000035
    vertex 76.28729505074514 27.643048245637893 6.500000000000064
  endloop
endfacet
facet normal 4.871160873101547e-14 3.5596645692092756e-18 1.0
  outer loop
    vertex 76.66905416241049 24.884072990037957 6.50000000000005
    vertex 76.28729505074514 27.643048245637893 6.500000000000064
    vertex 75.82719433411681 25.10964865116945 6.500000000000091
  endloop
endfacet
facet normal 4.871160873101547e-14 3.5596645692092756e-18 1.0
  outer loop
    vertex 75.82719433411681 25.10964865116945 6.500000000000091
    vertex 76.28729505074514 27.643048245637893 6.500000000000064
    vertex 75.76952809777875 28.040344802132626 6.500000000000092
  endloop
endfacet
facet normal 4.871160873101547e-14 3.5596645692092756e-18 1.0
  outer loop
    vertex 75.82719433411681 25.10964865116945 6.500000000000091
    vertex 75.76952809777875 28.040344802132626 6.500000000000092
    vertex 75.03729505074516 25.4779847361768 6.500000000000126
  endloop
endfacet
facet normal 4.871160873101547e-14 3.5596645692092756e-18 1.0
  outer loop
    vertex 75.03729505074516 25.4779847361768 6.500000000000126
    vertex 75.76952809777875 28.040344802132626 6.500000000000092
    vertex 75.37223154128404 28.55811175509899 6.500000000000111
  endloop
endfacet
facet normal 4.871160873101547e-14 3.5596645692092756e-18 1.0
  outer loop
    vertex 75.03729505074516 25.4779847361768 6.500000000000126
    vertex 75.37223154128404 28.55811175509899 6.500000000000111
    vertex 75.12248048502246 29.16106414234269 6.500000000000121
  endloop
endfacet
facet normal 4.871160873101547e-14 3.5596645692092756e-18 1.0
  outer loop
    vertex 75.03729505074516 25.4779847361768 6.500000000000126
    vertex 75.12248048502246 29.16106414234269 6.500000000000121
    vertex 75.03729505074513 29.808111755098988 6.500000000000125
  endloop
endfacet
facet normal 4.871160873101547e-14 3.5596645692092756e-18 1.0
  outer loop
    vertex 75.03729505074516 25.4779847361768 6.500000000000126
    vertex 75.03729505074513 29.808111755098988 6.500000000000125
    vertex 74.32335700231245 25.977889539504105 6.500000000000164
  endloop
endfacet
facet normal 4.871160873101547e-14 3.5596645692092756e-18 1.0
  outer loop
    vertex 74.32335700231245 25.977889539504105 6.500000000000164
    vertex 75.03729505074513 29.808111755098988 6.500000000000125
    vertex 74.32335700231245 33.63833397069387 6.500000000000164
  endloop
endfacet
facet normal 4.871160873101547e-14 3.5596645692092756e-18 1.0
  outer loop
    vertex 74.32335700231245 25.977889539504105 6.500000000000164
    vertex 74.32335700231245 33.63833397069387 6.500000000000164
    vertex 73.70707283515027 33.02204980353169 6.500000000000191
  endloop
endfacet
facet normal 4.871160873101547e-14 3.5596645692092756e-18 1.0
  outer loop
    vertex 74.32335700231245 25.977889539504105 6.500000000000164
    vertex 73.70707283515027 33.02204980353169 6.500000000000191
    vertex 73.70707283515027 26.594173706666293 6.500000000000191
  endloop
endfacet
facet normal 4.871160873101547e-14 3.5596645692092756e-18 1.0
  outer loop
    vertex 73.70707283515027 26.594173706666293 6.500000000000191
    vertex 73.70707283515027 33.02204980353169 6.500000000000191
    vertex 73.20716803182296 32.308111755098984 6.500000000000212
  endloop
endfacet
facet normal 4.871160873101547e-14 3.5596645692092756e-18 1.0
  outer loop
    vertex 73.70707283515027 26.594173706666293 6.500000000000191
    vertex 73.20716803182296 32.308111755098984 6.500000000000212
    vertex 73.20716803182296 27.308111755098995 6.500000000000212
  endloop
endfacet
facet normal 4.871160873101547e-14 3.5596645692092756e-18 1.0
  outer loop
    vertex 73.20716803182296 27.308111755098995 6.500000000000212
    vertex 73.20716803182296 32.308111755098984 6.500000000000212
    vertex 72.83883194681562 31.518212471727324 6.500000000000234
  endloop
endfacet
facet normal 4.871160873101547e-14 3.5596645692092756e-18 1.0
  outer loop
    vertex 73.20716803182296 27.308111755098995 6.500000000000212
    vertex 72.83883194681562 31.518212471727324 6.500000000000234
    vertex 72.83883194681562 28.09801103847064 6.500000000000234
  endloop
endfacet
facet normal 4.871160873101547e-14 3.5596645692092756e-18 1.0
  outer loop
    vertex 72.83883194681562 28.09801103847064 6.500000000000234
    vertex 72.83883194681562 31.518212471727324 6.500000000000234
    vertex 72.61325628568412 30.676352643433642 6.500000000000248
  endloop
endfacet
facet normal 4.871160873101547e-14 3.5596645692092756e-18 1.0
  outer loop
    vertex 72.83883194681562 28.09801103847064 6.500000000000234
    vertex 72.61325628568412 30.676352643433642 6.500000000000248
    vertex 72.61325628568412 28.939870866764338 6.500000000000248
  endloop
endfacet
facet normal 4.871160873101547e-14 3.5596645692092756e-18 1.0
  outer loop
    vertex 72.61325628568412 28.939870866764338 6.500000000000248
    vertex 72.61325628568412 30.676352643433642 6.500000000000248
    vertex 72.53729505074516 29.808111755098988 6.500000000000245
  endloop
endfacet
facet normal -0.9914448613738099 -0.13052619222005613 4.801116611481107e-14
  outer loop
    vertex 79.9521096164678 30.45515936785529 6.499999999999885
    vertex 80.03729505074489 29.808111755098988 1.499999999999883
    vertex 80.03729505074512 29.808111755098988 6.499999999999881
  endloop
endfacet
facet normal -0.9914448613738099 -0.13052619222005613 4.801116611481107e-14
  outer loop
    vertex 80.03729505074489 29.808111755098988 1.499999999999883
    vertex 79.9521096164678 30.45515936785529 6.499999999999885
    vertex 79.95210961646755 30.45515936785529 1.4999999999998879
  endloop
endfacet
facet normal -0.9238795325112836 -0.3826834323650976 4.473928448629002e-14
  outer loop
    vertex 79.7023585602062 31.058111755098988 6.4999999999999
    vertex 79.95210961646755 30.45515936785529 1.4999999999998879
    vertex 79.9521096164678 30.45515936785529 6.499999999999885
  endloop
endfacet
facet normal -0.9238795325112836 -0.3826834323650976 4.473928448629002e-14
  outer loop
    vertex 79.95210961646755 30.45515936785529 1.4999999999998879
    vertex 79.7023585602062 31.058111755098988 6.4999999999999
    vertex 79.70235856020598 31.058111755098988 1.4999999999999007
  endloop
endfacet
facet normal -0.7933533402912453 -0.6087614290087074 3.8418494555192456e-14
  outer loop
    vertex 79.3050620037115 31.57587870806535 6.49999999999992
    vertex 79.70235856020598 31.058111755098988 1.4999999999999007
    vertex 79.7023585602062 31.058111755098988 6.4999999999999
  endloop
endfacet
facet normal -0.7933533402912453 -0.6087614290087074 3.8418494555192456e-14
  outer loop
    vertex 79.70235856020598 31.058111755098988 1.4999999999999007
    vertex 79.3050620037115 31.57587870806535 6.49999999999992
    vertex 79.30506200371126 31.57587870806535 1.4999999999999176
  endloop
endfacet
facet normal -0.6087614290087124 -0.7933533402912414 2.947954770972118e-14
  outer loop
    vertex 78.78729505074487 31.973175264560084 1.499999999999943
    vertex 79.3050620037115 31.57587870806535 6.49999999999992
    vertex 78.78729505074512 31.973175264560084 6.499999999999946
  endloop
endfacet
facet normal -0.6087614290087124 -0.7933533402912414 2.947954770972118e-14
  outer loop
    vertex 79.3050620037115 31.57587870806535 6.49999999999992
    vertex 78.78729505074487 31.973175264560084 1.499999999999943
    vertex 79.30506200371126 31.57587870806535 1.4999999999999176
  endloop
endfacet
facet normal -0.38268343236508284 -0.9238795325112896 1.8531618405089336e-14
  outer loop
    vertex 78.18434266350141 32.22292632082165 6.499999999999972
    vertex 78.78729505074487 31.973175264560084 1.499999999999943
    vertex 78.78729505074512 31.973175264560084 6.499999999999946
  endloop
endfacet
facet normal -0.38268343236508284 -0.9238795325112896 1.8531618405089336e-14
  outer loop
    vertex 78.78729505074487 31.973175264560084 1.499999999999943
    vertex 78.18434266350141 32.22292632082165 6.499999999999972
    vertex 78.18434266350118 32.22292632082165 1.4999999999999734
  endloop
endfacet
facet normal -0.13052619222005837 -0.9914448613738096 6.3207899310986504e-15
  outer loop
    vertex 77.53729505074489 32.308111755098984 1.5000000000000029
    vertex 78.18434266350141 32.22292632082165 6.499999999999972
    vertex 77.53729505074513 32.308111755098984 6.500000000000006
  endloop
endfacet
facet normal -0.13052619222005837 -0.9914448613738096 6.3207899310986504e-15
  outer loop
    vertex 78.18434266350141 32.22292632082165 6.499999999999972
    vertex 77.53729505074489 32.308111755098984 1.5000000000000029
    vertex 78.18434266350118 32.22292632082165 1.4999999999999734
  endloop
endfacet
facet normal 0.13052619222005388 -0.9914448613738102 -6.320789931098241e-15
  outer loop
    vertex 76.89024743798882 32.22292632082165 6.500000000000035
    vertex 77.53729505074489 32.308111755098984 1.5000000000000029
    vertex 77.53729505074513 32.308111755098984 6.500000000000006
  endloop
endfacet
facet normal 0.13052619222005388 -0.9914448613738102 -6.320789931098241e-15
  outer loop
    vertex 77.53729505074489 32.308111755098984 1.5000000000000029
    vertex 76.89024743798882 32.22292632082165 6.500000000000035
    vertex 76.89024743798858 32.22292632082165 1.5000000000000353
  endloop
endfacet
facet normal 0.38268343236508284 -0.9238795325112896 -1.853161840508916e-14
  outer loop
    vertex 76.28729505074487 31.973175264560084 1.5000000000000657
    vertex 76.89024743798882 32.22292632082165 6.500000000000035
    vertex 76.28729505074512 31.973175264560084 6.500000000000064
  endloop
endfacet
facet normal 0.38268343236508284 -0.9238795325112896 -1.853161840508916e-14
  outer loop
    vertex 76.89024743798882 32.22292632082165 6.500000000000035
    vertex 76.28729505074487 31.973175264560084 1.5000000000000657
    vertex 76.89024743798858 32.22292632082165 1.5000000000000353
  endloop
endfacet
facet normal 0.6087614290087292 -0.7933533402912287 -2.9479547709721834e-14
  outer loop
    vertex 75.76952809777852 31.57587870806535 1.500000000000091
    vertex 76.28729505074512 31.973175264560084 6.500000000000064
    vertex 75.76952809777875 31.57587870806535 6.500000000000092
  endloop
endfacet
facet normal 0.6087614290087292 -0.7933533402912287 -2.9479547709721834e-14
  outer loop
    vertex 76.28729505074512 31.973175264560084 6.500000000000064
    vertex 75.76952809777852 31.57587870806535 1.500000000000091
    vertex 76.28729505074487 31.973175264560084 1.5000000000000657
  endloop
endfacet
facet normal 0.7933533402912453 -0.6087614290087074 -3.8418494555192336e-14
  outer loop
    vertex 75.76952809777852 31.57587870806535 1.500000000000091
    vertex 75.37223154128404 31.058111755098988 6.500000000000111
    vertex 75.37223154128381 31.058111755098988 1.5000000000001086
  endloop
endfacet
facet normal 0.7933533402912453 -0.6087614290087074 -3.8418494555192336e-14
  outer loop
    vertex 75.37223154128404 31.058111755098988 6.500000000000111
    vertex 75.76952809777852 31.57587870806535 1.500000000000091
    vertex 75.76952809777875 31.57587870806535 6.500000000000092
  endloop
endfacet
facet normal 0.9238795325112836 -0.3826834323650976 -4.4739284486289944e-14
  outer loop
    vertex 75.37223154128381 31.058111755098988 1.5000000000001086
    vertex 75.12248048502246 30.45515936785529 6.500000000000121
    vertex 75.12248048502222 30.45515936785529 1.50000000000012
  endloop
endfacet
facet normal 0.9238795325112836 -0.3826834323650976 -4.4739284486289944e-14
  outer loop
    vertex 75.12248048502246 30.45515936785529 6.500000000000121
    vertex 75.37223154128381 31.058111755098988 1.5000000000001086
    vertex 75.37223154128404 31.058111755098988 6.500000000000111
  endloop
endfacet
facet normal 0.9914448613738099 -0.13052619222005613 -4.801116611481104e-14
  outer loop
    vertex 75.12248048502222 30.45515936785529 1.50000000000012
    vertex 75.03729505074513 29.808111755098988 6.500000000000125
    vertex 75.03729505074489 29.808111755098988 1.5000000000001255
  endloop
endfacet
facet normal 0.9914448613738099 -0.13052619222005613 -4.801116611481104e-14
  outer loop
    vertex 75.03729505074513 29.808111755098988 6.500000000000125
    vertex 75.12248048502222 30.45515936785529 1.50000000000012
    vertex 75.12248048502246 30.45515936785529 6.500000000000121
  endloop
endfacet
facet normal 0.9914448613738099 0.13052619222005613 -4.801116611481107e-14
  outer loop
    vertex 75.03729505074489 29.808111755098988 1.5000000000001255
    vertex 75.12248048502246 29.16106414234269 6.500000000000121
    vertex 75.12248048502222 29.16106414234269 1.50000000000012
  endloop
endfacet
facet normal 0.9914448613738099 0.13052619222005613 -4.801116611481107e-14
  outer loop
    vertex 75.12248048502246 29.16106414234269 6.500000000000121
    vertex 75.03729505074489 29.808111755098988 1.5000000000001255
    vertex 75.03729505074513 29.808111755098988 6.500000000000125
  endloop
endfacet
facet normal 0.9238795325112836 0.3826834323650976 -4.473928448629002e-14
  outer loop
    vertex 75.12248048502222 29.16106414234269 1.50000000000012
    vertex 75.37223154128404 28.55811175509899 6.500000000000111
    vertex 75.37223154128381 28.55811175509899 1.5000000000001086
  endloop
endfacet
facet normal 0.9238795325112836 0.3826834323650976 -4.473928448629002e-14
  outer loop
    vertex 75.37223154128404 28.55811175509899 6.500000000000111
    vertex 75.12248048502222 29.16106414234269 1.50000000000012
    vertex 75.12248048502246 29.16106414234269 6.500000000000121
  endloop
endfacet
facet normal 0.7933533402912453 0.6087614290087074 -3.8418494555192456e-14
  outer loop
    vertex 75.37223154128381 28.55811175509899 1.5000000000001086
    vertex 75.76952809777875 28.040344802132626 6.500000000000092
    vertex 75.76952809777852 28.040344802132626 1.500000000000091
  endloop
endfacet
facet normal 0.7933533402912453 0.6087614290087074 -3.8418494555192456e-14
  outer loop
    vertex 75.76952809777875 28.040344802132626 6.500000000000092
    vertex 75.37223154128381 28.55811175509899 1.5000000000001086
    vertex 75.37223154128404 28.55811175509899 6.500000000000111
  endloop
endfacet
facet normal 0.6087614290087124 0.7933533402912414 -2.947954770972118e-14
  outer loop
    vertex 76.28729505074514 27.643048245637893 6.500000000000064
    vertex 75.76952809777852 28.040344802132626 1.500000000000091
    vertex 75.76952809777875 28.040344802132626 6.500000000000092
  endloop
endfacet
facet normal 0.6087614290087124 0.7933533402912414 -2.947954770972118e-14
  outer loop
    vertex 75.76952809777852 28.040344802132626 1.500000000000091
    vertex 76.28729505074514 27.643048245637893 6.500000000000064
    vertex 76.2872950507449 27.643048245637893 1.5000000000000657
  endloop
endfacet
facet normal 0.38268343236508284 0.9238795325112896 -1.8531618405089336e-14
  outer loop
    vertex 76.8902474379886 27.393297189376327 1.5000000000000353
    vertex 76.28729505074514 27.643048245637893 6.500000000000064
    vertex 76.89024743798883 27.393297189376327 6.500000000000035
  endloop
endfacet
facet normal 0.38268343236508284 0.9238795325112896 -1.8531618405089336e-14
  outer loop
    vertex 76.28729505074514 27.643048245637893 6.500000000000064
    vertex 76.8902474379886 27.393297189376327 1.5000000000000353
    vertex 76.2872950507449 27.643048245637893 1.5000000000000657
  endloop
endfacet
facet normal 0.13052619222005837 0.9914448613738096 -6.3207899310986504e-15
  outer loop
    vertex 77.53729505074489 27.308111755098995 1.5000000000000029
    vertex 76.89024743798883 27.393297189376327 6.500000000000035
    vertex 77.53729505074513 27.308111755098995 6.500000000000006
  endloop
endfacet
facet normal 0.13052619222005837 0.9914448613738096 -6.3207899310986504e-15
  outer loop
    vertex 76.89024743798883 27.393297189376327 6.500000000000035
    vertex 77.53729505074489 27.308111755098995 1.5000000000000029
    vertex 76.8902474379886 27.393297189376327 1.5000000000000353
  endloop
endfacet
facet normal -0.13052619222005837 0.9914448613738096 6.320789931098458e-15
  outer loop
    vertex 78.18434266350141 27.393297189376327 6.499999999999972
    vertex 77.53729505074489 27.308111755098995 1.5000000000000029
    vertex 77.53729505074513 27.308111755098995 6.500000000000006
  endloop
endfacet
facet normal -0.13052619222005837 0.9914448613738096 6.320789931098458e-15
  outer loop
    vertex 77.53729505074489 27.308111755098995 1.5000000000000029
    vertex 78.18434266350141 27.393297189376327 6.499999999999972
    vertex 78.18434266350118 27.393297189376327 1.4999999999999734
  endloop
endfacet
facet normal -0.38268343236507063 0.9238795325112947 1.853161840508857e-14
  outer loop
    vertex 78.7872950507449 27.643048245637893 1.499999999999943
    vertex 78.18434266350141 27.393297189376327 6.499999999999972
    vertex 78.78729505074513 27.643048245637893 6.499999999999946
  endloop
endfacet
facet normal -0.38268343236507063 0.9238795325112947 1.853161840508857e-14
  outer loop
    vertex 78.18434266350141 27.393297189376327 6.499999999999972
    vertex 78.7872950507449 27.643048245637893 1.499999999999943
    vertex 78.18434266350118 27.393297189376327 1.4999999999999734
  endloop
endfacet
facet normal -0.6087614290087292 0.7933533402912287 2.9479547709721834e-14
  outer loop
    vertex 79.30506200371126 28.040344802132626 1.4999999999999176
    vertex 78.78729505074513 27.643048245637893 6.499999999999946
    vertex 79.3050620037115 28.040344802132626 6.49999999999992
  endloop
endfacet
facet normal -0.6087614290087292 0.7933533402912287 2.9479547709721834e-14
  outer loop
    vertex 78.78729505074513 27.643048245637893 6.499999999999946
    vertex 79.30506200371126 28.040344802132626 1.4999999999999176
    vertex 78.7872950507449 27.643048245637893 1.499999999999943
  endloop
endfacet
facet normal -0.7933533402912453 0.6087614290087074 3.8418494555192336e-14
  outer loop
    vertex 79.7023585602062 28.55811175509899 6.4999999999999
    vertex 79.30506200371126 28.040344802132626 1.4999999999999176
    vertex 79.3050620037115 28.040344802132626 6.49999999999992
  endloop
endfacet
facet normal -0.7933533402912453 0.6087614290087074 3.8418494555192336e-14
  outer loop
    vertex 79.30506200371126 28.040344802132626 1.4999999999999176
    vertex 79.7023585602062 28.55811175509899 6.4999999999999
    vertex 79.70235856020598 28.55811175509899 1.4999999999999007
  endloop
endfacet
facet normal -0.9238795325112836 0.3826834323650976 4.4739284486289944e-14
  outer loop
    vertex 79.9521096164678 29.16106414234269 6.499999999999885
    vertex 79.70235856020598 28.55811175509899 1.4999999999999007
    vertex 79.7023585602062 28.55811175509899 6.4999999999999
  endloop
endfacet
facet normal -0.9238795325112836 0.3826834323650976 4.4739284486289944e-14
  outer loop
    vertex 79.70235856020598 28.55811175509899 1.4999999999999007
    vertex 79.9521096164678 29.16106414234269 6.499999999999885
    vertex 79.95210961646755 29.16106414234269 1.4999999999998879
  endloop
endfacet
facet normal -0.9914448613738099 0.13052619222005613 4.801116611481104e-14
  outer loop
    vertex 80.03729505074512 29.808111755098988 6.499999999999881
    vertex 79.95210961646755 29.16106414234269 1.4999999999998879
    vertex 79.9521096164678 29.16106414234269 6.499999999999885
  endloop
endfacet
facet normal -0.9914448613738099 0.13052619222005613 4.801116611481104e-14
  outer loop
    vertex 79.95210961646755 29.16106414234269 1.4999999999998879
    vertex 80.03729505074512 29.808111755098988 6.499999999999881
    vertex 80.03729505074489 29.808111755098988 1.499999999999883
  endloop
endfacet
facet normal -0.9914448613738113 0.13052619222004555 4.829284876845128e-14
  outer loop
    vertex 79.03729505074493 29.808111755098988 1.4999999999999332
    vertex 78.98618379017843 29.419883187445212 -6.203926261605374e-14
    vertex 78.98618379017854 29.419883187445212 1.4999999999999332
  endloop
endfacet
facet normal -0.9914448613738113 0.13052619222004555 4.829284876845128e-14
  outer loop
    vertex 78.98618379017843 29.419883187445212 -6.203926261605374e-14
    vertex 79.03729505074493 29.808111755098988 1.4999999999999332
    vertex 79.03729505074483 29.808111755098988 -6.626921233987559e-14
  endloop
endfacet
facet normal -0.9238795325112803 0.3826834323651054 4.500177093258701e-14
  outer loop
    vertex 78.98618379017854 29.419883187445212 1.4999999999999332
    vertex 78.83633315642149 29.05811175509899 -5.639932965095795e-14
    vertex 78.83633315642159 29.05811175509899 1.499999999999943
  endloop
endfacet
facet normal -0.9238795325112803 0.3826834323651054 4.500177093258701e-14
  outer loop
    vertex 78.83633315642149 29.05811175509899 -5.639932965095795e-14
    vertex 78.98618379017854 29.419883187445212 1.4999999999999332
    vertex 78.98618379017843 29.419883187445212 -6.203926261605374e-14
  endloop
endfacet
facet normal -0.7933533402912465 0.6087614290087061 3.864389677661088e-14
  outer loop
    vertex 78.83633315642159 29.05811175509899 1.499999999999943
    vertex 78.59795522252466 28.747451583319172 -4.511946372076636e-14
    vertex 78.59795522252476 28.747451583319172 1.4999999999999536
  endloop
endfacet
facet normal -0.7933533402912465 0.6087614290087061 3.864389677661088e-14
  outer loop
    vertex 78.59795522252466 28.747451583319172 -4.511946372076636e-14
    vertex 78.83633315642159 29.05811175509899 1.499999999999943
    vertex 78.83633315642149 29.05811175509899 -5.639932965095795e-14
  endloop
endfacet
facet normal -0.6087614290087172 0.7933533402912378 2.9652504917366096e-14
  outer loop
    vertex 78.59795522252476 28.747451583319172 1.4999999999999536
    vertex 78.28729505074483 28.509073649422334 -2.8199664825478976e-14
    vertex 78.28729505074493 28.509073649422334 1.4999999999999698
  endloop
endfacet
facet normal -0.6087614290087172 0.7933533402912378 2.9652504917366096e-14
  outer loop
    vertex 78.28729505074483 28.509073649422334 -2.8199664825478976e-14
    vertex 78.59795522252476 28.747451583319172 1.4999999999999536
    vertex 78.59795522252466 28.747451583319172 -4.511946372076636e-14
  endloop
endfacet
facet normal -0.38268343236509306 0.9238795325112853 1.8640343851085166e-14
  outer loop
    vertex 78.28729505074483 28.509073649422334 -2.8199664825478976e-14
    vertex 77.92552361839871 28.359223015665386 1.4999999999999867
    vertex 78.28729505074493 28.509073649422334 1.4999999999999698
  endloop
endfacet
facet normal -0.38268343236509306 0.9238795325112853 1.8640343851085166e-14
  outer loop
    vertex 77.92552361839871 28.359223015665386 1.4999999999999867
    vertex 78.28729505074483 28.509073649422334 -2.8199664825478976e-14
    vertex 77.92552361839861 28.359223015665386 -1.2689849171465539e-14
  endloop
endfacet
facet normal -0.13052619222004555 0.9914448613738113 6.357874155976719e-15
  outer loop
    vertex 77.92552361839861 28.359223015665386 -1.2689849171465539e-14
    vertex 77.53729505074493 28.30811175509899 1.5000000000000042
    vertex 77.92552361839871 28.359223015665386 1.4999999999999867
  endloop
endfacet
facet normal -0.13052619222004555 0.9914448613738113 6.357874155976719e-15
  outer loop
    vertex 77.53729505074493 28.30811175509899 1.5000000000000042
    vertex 77.92552361839861 28.359223015665386 -1.2689849171465539e-14
    vertex 77.53729505074483 28.30811175509899 8.459899447643692e-15
  endloop
endfacet
facet normal 0.13052619222004555 0.9914448613738113 -6.357874155976692e-15
  outer loop
    vertex 77.53729505074493 28.30811175509899 1.5000000000000042
    vertex 77.14906648309105 28.359223015665386 2.5379698342931078e-14
    vertex 77.14906648309116 28.359223015665386 1.500000000000024
  endloop
endfacet
facet normal 0.13052619222004555 0.9914448613738113 -6.357874155976692e-15
  outer loop
    vertex 77.14906648309105 28.359223015665386 2.5379698342931078e-14
    vertex 77.53729505074493 28.30811175509899 1.5000000000000042
    vertex 77.53729505074483 28.30811175509899 8.459899447643692e-15
  endloop
endfacet
facet normal 0.38268343236509306 0.9238795325112853 -1.864034385108514e-14
  outer loop
    vertex 77.14906648309105 28.359223015665386 2.5379698342931078e-14
    vertex 76.78729505074493 28.509073649422334 1.5000000000000402
    vertex 77.14906648309116 28.359223015665386 1.500000000000024
  endloop
endfacet
facet normal 0.38268343236509306 0.9238795325112853 -1.864034385108514e-14
  outer loop
    vertex 76.78729505074493 28.509073649422334 1.5000000000000402
    vertex 77.14906648309105 28.359223015665386 2.5379698342931078e-14
    vertex 76.78729505074483 28.509073649422334 4.511946372076636e-14
  endloop
endfacet
facet normal 0.6087614290087172 0.7933533402912378 -2.965250491736607e-14
  outer loop
    vertex 76.78729505074493 28.509073649422334 1.5000000000000402
    vertex 76.47663487896502 28.747451583319172 5.780931289223189e-14
    vertex 76.47663487896511 28.747451583319172 1.500000000000057
  endloop
endfacet
facet normal 0.6087614290087172 0.7933533402912378 -2.965250491736607e-14
  outer loop
    vertex 76.47663487896502 28.747451583319172 5.780931289223189e-14
    vertex 76.78729505074493 28.509073649422334 1.5000000000000402
    vertex 76.78729505074483 28.509073649422334 4.511946372076636e-14
  endloop
endfacet
facet normal 0.7933533402912465 0.6087614290087061 -3.8643896776610866e-14
  outer loop
    vertex 76.23825694506819 29.05811175509899 7.190914530497138e-14
    vertex 76.47663487896511 28.747451583319172 1.500000000000057
    vertex 76.47663487896502 28.747451583319172 5.780931289223189e-14
  endloop
endfacet
facet normal 0.7933533402912465 0.6087614290087061 -3.8643896776610866e-14
  outer loop
    vertex 76.47663487896511 28.747451583319172 1.500000000000057
    vertex 76.23825694506819 29.05811175509899 7.190914530497138e-14
    vertex 76.23825694506829 29.05811175509899 1.500000000000067
  endloop
endfacet
facet normal 0.9238795325112803 0.3826834323651054 -4.5001770932586996e-14
  outer loop
    vertex 76.08840631131123 29.419883187445212 7.895906151134113e-14
    vertex 76.23825694506829 29.05811175509899 1.500000000000067
    vertex 76.23825694506819 29.05811175509899 7.190914530497138e-14
  endloop
endfacet
facet normal 0.9238795325112803 0.3826834323651054 -4.5001770932586996e-14
  outer loop
    vertex 76.23825694506829 29.05811175509899 1.500000000000067
    vertex 76.08840631131123 29.419883187445212 7.895906151134113e-14
    vertex 76.08840631131133 29.419883187445212 1.5000000000000768
  endloop
endfacet
facet normal 0.9914448613738113 0.13052619222004555 -4.829284876845128e-14
  outer loop
    vertex 76.03729505074483 29.808111755098988 8.177902799388902e-14
    vertex 76.08840631131133 29.419883187445212 1.5000000000000768
    vertex 76.08840631131123 29.419883187445212 7.895906151134113e-14
  endloop
endfacet
facet normal 0.9914448613738113 0.13052619222004555 -4.829284876845128e-14
  outer loop
    vertex 76.08840631131133 29.419883187445212 1.5000000000000768
    vertex 76.03729505074483 29.808111755098988 8.177902799388902e-14
    vertex 76.03729505074493 29.808111755098988 1.5000000000000768
  endloop
endfacet
facet normal 0.9914448613738113 -0.13052619222004555 -4.829284876845128e-14
  outer loop
    vertex 76.08840631131123 30.196340322752768 7.895906151134113e-14
    vertex 76.03729505074493 29.808111755098988 1.5000000000000768
    vertex 76.03729505074483 29.808111755098988 8.177902799388902e-14
  endloop
endfacet
facet normal 0.9914448613738113 -0.13052619222004555 -4.829284876845128e-14
  outer loop
    vertex 76.03729505074493 29.808111755098988 1.5000000000000768
    vertex 76.08840631131123 30.196340322752768 7.895906151134113e-14
    vertex 76.08840631131133 30.196340322752768 1.5000000000000768
  endloop
endfacet
facet normal 0.9238795325112803 -0.3826834323651054 -4.500177093258701e-14
  outer loop
    vertex 76.23825694506819 30.558111755098988 7.190914530497138e-14
    vertex 76.08840631131133 30.196340322752768 1.5000000000000768
    vertex 76.08840631131123 30.196340322752768 7.895906151134113e-14
  endloop
endfacet
facet normal 0.9238795325112803 -0.3826834323651054 -4.500177093258701e-14
  outer loop
    vertex 76.08840631131133 30.196340322752768 1.5000000000000768
    vertex 76.23825694506819 30.558111755098988 7.190914530497138e-14
    vertex 76.23825694506829 30.558111755098988 1.500000000000067
  endloop
endfacet
facet normal 0.7933533402912465 -0.6087614290087061 -3.864389677661088e-14
  outer loop
    vertex 76.47663487896502 30.868771926878807 5.780931289223189e-14
    vertex 76.23825694506829 30.558111755098988 1.500000000000067
    vertex 76.23825694506819 30.558111755098988 7.190914530497138e-14
  endloop
endfacet
facet normal 0.7933533402912465 -0.6087614290087061 -3.864389677661088e-14
  outer loop
    vertex 76.23825694506829 30.558111755098988 1.500000000000067
    vertex 76.47663487896502 30.868771926878807 5.780931289223189e-14
    vertex 76.47663487896511 30.868771926878807 1.500000000000057
  endloop
endfacet
facet normal 0.6087614290087172 -0.7933533402912378 -2.9652504917366096e-14
  outer loop
    vertex 76.47663487896502 30.868771926878807 5.780931289223189e-14
    vertex 76.78729505074493 31.107149860775646 1.5000000000000402
    vertex 76.47663487896511 30.868771926878807 1.500000000000057
  endloop
endfacet
facet normal 0.6087614290087172 -0.7933533402912378 -2.9652504917366096e-14
  outer loop
    vertex 76.78729505074493 31.107149860775646 1.5000000000000402
    vertex 76.47663487896502 30.868771926878807 5.780931289223189e-14
    vertex 76.78729505074483 31.107149860775646 4.511946372076636e-14
  endloop
endfacet
facet normal 0.38268343236508084 -0.9238795325112906 -1.8640343851084563e-14
  outer loop
    vertex 76.78729505074493 31.107149860775646 1.5000000000000402
    vertex 77.14906648309105 31.257000494532587 2.5379698342931078e-14
    vertex 77.14906648309116 31.257000494532587 1.500000000000024
  endloop
endfacet
facet normal 0.38268343236508084 -0.9238795325112906 -1.8640343851084563e-14
  outer loop
    vertex 77.14906648309105 31.257000494532587 2.5379698342931078e-14
    vertex 76.78729505074493 31.107149860775646 1.5000000000000402
    vertex 76.78729505074483 31.107149860775646 4.511946372076636e-14
  endloop
endfacet
facet normal 0.13052619222005968 -0.9914448613738094 -6.357874155977408e-15
  outer loop
    vertex 77.14906648309105 31.257000494532587 2.5379698342931078e-14
    vertex 77.53729505074493 31.308111755098988 1.5000000000000042
    vertex 77.14906648309116 31.257000494532587 1.500000000000024
  endloop
endfacet
facet normal 0.13052619222005968 -0.9914448613738094 -6.357874155977408e-15
  outer loop
    vertex 77.53729505074493 31.308111755098988 1.5000000000000042
    vertex 77.14906648309105 31.257000494532587 2.5379698342931078e-14
    vertex 77.53729505074483 31.308111755098988 8.459899447643692e-15
  endloop
endfacet
facet normal -0.13052619222004555 -0.9914448613738113 6.357874155976692e-15
  outer loop
    vertex 77.53729505074493 31.308111755098988 1.5000000000000042
    vertex 77.92552361839861 31.25700049453259 -1.2689849171465539e-14
    vertex 77.92552361839871 31.25700049453259 1.4999999999999867
  endloop
endfacet
facet normal -0.13052619222004555 -0.9914448613738113 6.357874155976692e-15
  outer loop
    vertex 77.92552361839861 31.25700049453259 -1.2689849171465539e-14
    vertex 77.53729505074493 31.308111755098988 1.5000000000000042
    vertex 77.53729505074483 31.308111755098988 8.459899447643692e-15
  endloop
endfacet
facet normal -0.38268343236509306 -0.9238795325112853 1.864034385108514e-14
  outer loop
    vertex 77.92552361839871 31.25700049453259 1.4999999999999867
    vertex 78.28729505074483 31.107149860775646 -2.8199664825478976e-14
    vertex 78.28729505074493 31.107149860775646 1.4999999999999698
  endloop
endfacet
facet normal -0.38268343236509306 -0.9238795325112853 1.864034385108514e-14
  outer loop
    vertex 78.28729505074483 31.107149860775646 -2.8199664825478976e-14
    vertex 77.92552361839871 31.25700049453259 1.4999999999999867
    vertex 77.92552361839861 31.25700049453259 -1.2689849171465539e-14
  endloop
endfacet
facet normal -0.6087614290087172 -0.7933533402912378 2.965250491736607e-14
  outer loop
    vertex 78.28729505074483 31.107149860775646 -2.8199664825478976e-14
    vertex 78.59795522252476 30.868771926878807 1.4999999999999536
    vertex 78.28729505074493 31.107149860775646 1.4999999999999698
  endloop
endfacet
facet normal -0.6087614290087172 -0.7933533402912378 2.965250491736607e-14
  outer loop
    vertex 78.59795522252476 30.868771926878807 1.4999999999999536
    vertex 78.28729505074483 31.107149860775646 -2.8199664825478976e-14
    vertex 78.59795522252466 30.868771926878807 -4.511946372076636e-14
  endloop
endfacet
facet normal -0.7933533402912465 -0.6087614290087061 3.8643896776610866e-14
  outer loop
    vertex 78.59795522252476 30.868771926878807 1.4999999999999536
    vertex 78.83633315642149 30.558111755098988 -5.639932965095795e-14
    vertex 78.83633315642159 30.558111755098988 1.499999999999943
  endloop
endfacet
facet normal -0.7933533402912465 -0.6087614290087061 3.8643896776610866e-14
  outer loop
    vertex 78.83633315642149 30.558111755098988 -5.639932965095795e-14
    vertex 78.59795522252476 30.868771926878807 1.4999999999999536
    vertex 78.59795522252466 30.868771926878807 -4.511946372076636e-14
  endloop
endfacet
facet normal -0.9238795325112782 -0.3826834323651105 4.500177093258689e-14
  outer loop
    vertex 78.83633315642159 30.558111755098988 1.499999999999943
    vertex 78.98618379017843 30.196340322752775 -6.203926261605374e-14
    vertex 78.98618379017854 30.196340322752775 1.4999999999999332
  endloop
endfacet
facet normal -0.9238795325112782 -0.3826834323651105 4.500177093258689e-14
  outer loop
    vertex 78.98618379017843 30.196340322752775 -6.203926261605374e-14
    vertex 78.83633315642159 30.558111755098988 1.499999999999943
    vertex 78.83633315642149 30.558111755098988 -5.639932965095795e-14
  endloop
endfacet
facet normal -0.9914448613738114 -0.13052619222004366 4.8292848768451275e-14
  outer loop
    vertex 78.98618379017854 30.196340322752775 1.4999999999999332
    vertex 79.03729505074483 29.808111755098988 -6.626921233987559e-14
    vertex 79.03729505074493 29.808111755098988 1.4999999999999332
  endloop
endfacet
facet normal -0.9914448613738114 -0.13052619222004366 4.8292848768451275e-14
  outer loop
    vertex 79.03729505074483 29.808111755098988 -6.626921233987559e-14
    vertex 78.98618379017854 30.196340322752775 1.4999999999999332
    vertex 78.98618379017843 30.196340322752775 -6.203926261605374e-14
  endloop
endfacet
facet normal -4.870956585677722e-14 0.0 -1.0
  outer loop
    vertex 82.46133381580586 28.939870866764338 -2.3123725156892757e-13
    vertex 82.46133381580586 30.676352643433642 -2.3123725156892757e-13
    vertex 82.53729505074483 29.808111755098988 -2.382871677752973e-13
  endloop
endfacet
facet normal -4.870956585677722e-14 0.0 -1.0
  outer loop
    vertex 82.46133381580586 30.676352643433642 -2.3123725156892757e-13
    vertex 82.46133381580586 28.939870866764338 -2.3123725156892757e-13
    vertex 82.23575815467436 28.098011038470652 -2.2700730184510574e-13
  endloop
endfacet
facet normal -4.870956585677722e-14 0.0 -1.0
  outer loop
    vertex 82.46133381580586 30.676352643433642 -2.3123725156892757e-13
    vertex 82.23575815467436 28.098011038470652 -2.2700730184510574e-13
    vertex 82.23575815467436 31.518212471727335 -2.2700730184510574e-13
  endloop
endfacet
facet normal -4.870956585677722e-14 0.0 -1.0
  outer loop
    vertex 82.23575815467436 31.518212471727335 -2.2700730184510574e-13
    vertex 82.23575815467436 28.098011038470652 -2.2700730184510574e-13
    vertex 81.86742206966703 27.308111755098995 -2.058575532259965e-13
  endloop
endfacet
facet normal -4.870956585677722e-14 0.0 -1.0
  outer loop
    vertex 82.23575815467436 31.518212471727335 -2.2700730184510574e-13
    vertex 81.86742206966703 27.308111755098995 -2.058575532259965e-13
    vertex 81.86742206966703 32.308111755098984 -2.058575532259965e-13
  endloop
endfacet
facet normal -4.870956585677722e-14 0.0 -1.0
  outer loop
    vertex 81.86742206966703 32.308111755098984 -2.058575532259965e-13
    vertex 81.86742206966703 27.308111755098995 -2.058575532259965e-13
    vertex 81.3675172663397 26.594173706666293 -1.8470780460688727e-13
  endloop
endfacet
facet normal -4.870956585677722e-14 0.0 -1.0
  outer loop
    vertex 81.86742206966703 32.308111755098984 -2.058575532259965e-13
    vertex 81.3675172663397 26.594173706666293 -1.8470780460688727e-13
    vertex 81.3675172663397 33.02204980353169 -1.8470780460688727e-13
  endloop
endfacet
facet normal -4.870956585677722e-14 0.0 -1.0
  outer loop
    vertex 81.3675172663397 33.02204980353169 -1.8470780460688727e-13
    vertex 81.3675172663397 26.594173706666293 -1.8470780460688727e-13
    vertex 80.75123309917753 25.977889539504105 -1.4804824033376462e-13
  endloop
endfacet
facet normal -4.870956585677722e-14 0.0 -1.0
  outer loop
    vertex 81.3675172663397 33.02204980353169 -1.8470780460688727e-13
    vertex 80.75123309917753 25.977889539504105 -1.4804824033376462e-13
    vertex 80.75123309917753 33.63833397069387 -1.4804824033376462e-13
  endloop
endfacet
facet normal -4.870956585677722e-14 0.0 -1.0
  outer loop
    vertex 80.75123309917753 33.63833397069387 -1.4804824033376462e-13
    vertex 80.75123309917753 25.977889539504105 -1.4804824033376462e-13
    vertex 80.03729505074483 25.47798473617681 -1.1984857550828565e-13
  endloop
endfacet
facet normal -4.870956585677722e-14 0.0 -1.0
  outer loop
    vertex 80.75123309917753 33.63833397069387 -1.4804824033376462e-13
    vertex 80.03729505074483 25.47798473617681 -1.1984857550828565e-13
    vertex 80.03729505074483 34.13823877402118 -1.1984857550828565e-13
  endloop
endfacet
facet normal -4.870956585677722e-14 0.0 -1.0
  outer loop
    vertex 80.03729505074483 34.13823877402118 -1.1984857550828565e-13
    vertex 80.03729505074483 25.47798473617681 -1.1984857550828565e-13
    vertex 79.24739576737316 25.10964865116945 -7.472911178751928e-14
  endloop
endfacet
facet normal -4.870956585677722e-14 0.0 -1.0
  outer loop
    vertex 80.03729505074483 34.13823877402118 -1.1984857550828565e-13
    vertex 79.24739576737316 25.10964865116945 -7.472911178751928e-14
    vertex 79.24739576737316 34.506574859028525 -7.472911178751928e-14
  endloop
endfacet
facet normal -4.870956585677722e-14 0.0 -1.0
  outer loop
    vertex 79.24739576737316 34.506574859028525 -7.472911178751928e-14
    vertex 79.24739576737316 25.10964865116945 -7.472911178751928e-14
    vertex 79.03729505074483 29.808111755098988 -6.626921233987559e-14
  endloop
endfacet
facet normal -4.870956585677722e-14 0.0 -1.0
  outer loop
    vertex 79.03729505074483 29.808111755098988 -6.626921233987559e-14
    vertex 79.24739576737316 25.10964865116945 -7.472911178751928e-14
    vertex 78.40553593907948 24.884072990037957 -3.3839597790574766e-14
  endloop
endfacet
facet normal -4.870956585677722e-14 0.0 -1.0
  outer loop
    vertex 79.03729505074483 29.808111755098988 -6.626921233987559e-14
    vertex 78.40553593907948 24.884072990037957 -3.3839597790574766e-14
    vertex 78.98618379017843 29.419883187445212 -6.203926261605374e-14
  endloop
endfacet
facet normal -4.870956585677722e-14 0.0 -1.0
  outer loop
    vertex 78.98618379017843 29.419883187445212 -6.203926261605374e-14
    vertex 78.40553593907948 24.884072990037957 -3.3839597790574766e-14
    vertex 78.83633315642149 29.05811175509899 -5.639932965095795e-14
  endloop
endfacet
facet normal -4.870956585677722e-14 0.0 -1.0
  outer loop
    vertex 78.83633315642149 29.05811175509899 -5.639932965095795e-14
    vertex 78.40553593907948 24.884072990037957 -3.3839597790574766e-14
    vertex 78.59795522252466 28.747451583319172 -4.511946372076636e-14
  endloop
endfacet
facet normal -4.870956585677722e-14 0.0 -1.0
  outer loop
    vertex 78.59795522252466 28.747451583319172 -4.511946372076636e-14
    vertex 78.40553593907948 24.884072990037957 -3.3839597790574766e-14
    vertex 78.28729505074483 28.509073649422334 -2.8199664825478976e-14
  endloop
endfacet
facet normal -4.870956585677722e-14 0.0 -1.0
  outer loop
    vertex 78.28729505074483 28.509073649422334 -2.8199664825478976e-14
    vertex 78.40553593907948 24.884072990037957 -3.3839597790574766e-14
    vertex 77.53729505074483 24.808111755099 8.459899447643692e-15
  endloop
endfacet
facet normal -4.870956585677722e-14 0.0 -1.0
  outer loop
    vertex 78.28729505074483 28.509073649422334 -2.8199664825478976e-14
    vertex 77.53729505074483 24.808111755099 8.459899447643692e-15
    vertex 77.92552361839861 28.359223015665386 -1.2689849171465539e-14
  endloop
endfacet
facet normal -4.870956585677722e-14 0.0 -1.0
  outer loop
    vertex 77.92552361839861 28.359223015665386 -1.2689849171465539e-14
    vertex 77.53729505074483 24.808111755099 8.459899447643692e-15
    vertex 77.53729505074483 28.30811175509899 8.459899447643692e-15
  endloop
endfacet
facet normal -4.870956585677722e-14 0.0 -1.0
  outer loop
    vertex 77.53729505074483 28.30811175509899 8.459899447643692e-15
    vertex 77.53729505074483 24.808111755099 8.459899447643692e-15
    vertex 76.66905416241018 24.884072990037957 5.0759396685862156e-14
  endloop
endfacet
facet normal -4.870956585677722e-14 0.0 -1.0
  outer loop
    vertex 77.53729505074483 28.30811175509899 8.459899447643692e-15
    vertex 76.66905416241018 24.884072990037957 5.0759396685862156e-14
    vertex 77.14906648309105 28.359223015665386 2.5379698342931078e-14
  endloop
endfacet
facet normal -4.870956585677722e-14 0.0 -1.0
  outer loop
    vertex 77.14906648309105 28.359223015665386 2.5379698342931078e-14
    vertex 76.66905416241018 24.884072990037957 5.0759396685862156e-14
    vertex 76.78729505074483 28.509073649422334 4.511946372076636e-14
  endloop
endfacet
facet normal -4.870956585677722e-14 0.0 -1.0
  outer loop
    vertex 76.78729505074483 28.509073649422334 4.511946372076636e-14
    vertex 76.66905416241018 24.884072990037957 5.0759396685862156e-14
    vertex 76.47663487896502 28.747451583319172 5.780931289223189e-14
  endloop
endfacet
facet normal -4.870956585677722e-14 0.0 -1.0
  outer loop
    vertex 76.47663487896502 28.747451583319172 5.780931289223189e-14
    vertex 76.66905416241018 24.884072990037957 5.0759396685862156e-14
    vertex 75.8271943341165 25.10964865116945 9.164891068280667e-14
  endloop
endfacet
facet normal -4.870956585677722e-14 0.0 -1.0
  outer loop
    vertex 76.47663487896502 28.747451583319172 5.780931289223189e-14
    vertex 75.8271943341165 25.10964865116945 9.164891068280667e-14
    vertex 76.23825694506819 29.05811175509899 7.190914530497138e-14
  endloop
endfacet
facet normal -4.870956585677722e-14 0.0 -1.0
  outer loop
    vertex 76.23825694506819 29.05811175509899 7.190914530497138e-14
    vertex 75.8271943341165 25.10964865116945 9.164891068280667e-14
    vertex 76.08840631131123 29.419883187445212 7.895906151134113e-14
  endloop
endfacet
facet normal -4.870956585677722e-14 0.0 -1.0
  outer loop
    vertex 76.08840631131123 29.419883187445212 7.895906151134113e-14
    vertex 75.8271943341165 25.10964865116945 9.164891068280667e-14
    vertex 76.03729505074483 29.808111755098988 8.177902799388902e-14
  endloop
endfacet
facet normal -4.870956585677722e-14 0.0 -1.0
  outer loop
    vertex 79.03729505074483 29.808111755098988 -6.626921233987559e-14
    vertex 78.40553593907948 34.73215052016002 -3.3839597790574766e-14
    vertex 79.24739576737316 34.506574859028525 -7.472911178751928e-14
  endloop
endfacet
facet normal -4.870956585677722e-14 0.0 -1.0
  outer loop
    vertex 78.40553593907948 34.73215052016002 -3.3839597790574766e-14
    vertex 79.03729505074483 29.808111755098988 -6.626921233987559e-14
    vertex 78.98618379017843 30.196340322752775 -6.203926261605374e-14
  endloop
endfacet
facet normal -4.870956585677722e-14 0.0 -1.0
  outer loop
    vertex 78.40553593907948 34.73215052016002 -3.3839597790574766e-14
    vertex 78.98618379017843 30.196340322752775 -6.203926261605374e-14
    vertex 78.83633315642149 30.558111755098988 -5.639932965095795e-14
  endloop
endfacet
facet normal -4.870956585677722e-14 0.0 -1.0
  outer loop
    vertex 78.40553593907948 34.73215052016002 -3.3839597790574766e-14
    vertex 78.83633315642149 30.558111755098988 -5.639932965095795e-14
    vertex 78.59795522252466 30.868771926878807 -4.511946372076636e-14
  endloop
endfacet
facet normal -4.870956585677722e-14 0.0 -1.0
  outer loop
    vertex 78.40553593907948 34.73215052016002 -3.3839597790574766e-14
    vertex 78.59795522252466 30.868771926878807 -4.511946372076636e-14
    vertex 78.28729505074483 31.107149860775646 -2.8199664825478976e-14
  endloop
endfacet
facet normal -4.870956585677722e-14 0.0 -1.0
  outer loop
    vertex 78.40553593907948 34.73215052016002 -3.3839597790574766e-14
    vertex 78.28729505074483 31.107149860775646 -2.8199664825478976e-14
    vertex 77.53729505074483 34.80811175509898 8.459899447643692e-15
  endloop
endfacet
facet normal -4.870956585677722e-14 0.0 -1.0
  outer loop
    vertex 77.53729505074483 34.80811175509898 8.459899447643692e-15
    vertex 78.28729505074483 31.107149860775646 -2.8199664825478976e-14
    vertex 77.92552361839861 31.25700049453259 -1.2689849171465539e-14
  endloop
endfacet
facet normal -4.870956585677722e-14 0.0 -1.0
  outer loop
    vertex 77.53729505074483 34.80811175509898 8.459899447643692e-15
    vertex 77.92552361839861 31.25700049453259 -1.2689849171465539e-14
    vertex 77.53729505074483 31.308111755098988 8.459899447643692e-15
  endloop
endfacet
facet normal -4.870956585677722e-14 0.0 -1.0
  outer loop
    vertex 77.53729505074483 34.80811175509898 8.459899447643692e-15
    vertex 77.53729505074483 31.308111755098988 8.459899447643692e-15
    vertex 77.14906648309105 31.257000494532587 2.5379698342931078e-14
  endloop
endfacet
facet normal -4.870956585677722e-14 0.0 -1.0
  outer loop
    vertex 77.53729505074483 34.80811175509898 8.459899447643692e-15
    vertex 77.14906648309105 31.257000494532587 2.5379698342931078e-14
    vertex 76.66905416241018 34.73215052016002 5.0759396685862156e-14
  endloop
endfacet
facet normal -4.870956585677722e-14 0.0 -1.0
  outer loop
    vertex 76.66905416241018 34.73215052016002 5.0759396685862156e-14
    vertex 77.14906648309105 31.257000494532587 2.5379698342931078e-14
    vertex 76.78729505074483 31.107149860775646 4.511946372076636e-14
  endloop
endfacet
facet normal -4.870956585677722e-14 0.0 -1.0
  outer loop
    vertex 76.66905416241018 34.73215052016002 5.0759396685862156e-14
    vertex 76.78729505074483 31.107149860775646 4.511946372076636e-14
    vertex 76.47663487896502 30.868771926878807 5.780931289223189e-14
  endloop
endfacet
facet normal -4.870956585677722e-14 0.0 -1.0
  outer loop
    vertex 76.66905416241018 34.73215052016002 5.0759396685862156e-14
    vertex 76.47663487896502 30.868771926878807 5.780931289223189e-14
    vertex 75.8271943341165 34.506574859028525 9.164891068280667e-14
  endloop
endfacet
facet normal -4.870956585677722e-14 0.0 -1.0
  outer loop
    vertex 75.8271943341165 34.506574859028525 9.164891068280667e-14
    vertex 76.47663487896502 30.868771926878807 5.780931289223189e-14
    vertex 76.23825694506819 30.558111755098988 7.190914530497138e-14
  endloop
endfacet
facet normal -4.870956585677722e-14 0.0 -1.0
  outer loop
    vertex 75.8271943341165 34.506574859028525 9.164891068280667e-14
    vertex 76.23825694506819 30.558111755098988 7.190914530497138e-14
    vertex 76.08840631131123 30.196340322752768 7.895906151134113e-14
  endloop
endfacet
facet normal -4.870956585677722e-14 0.0 -1.0
  outer loop
    vertex 75.8271943341165 34.506574859028525 9.164891068280667e-14
    vertex 76.08840631131123 30.196340322752768 7.895906151134113e-14
    vertex 76.03729505074483 29.808111755098988 8.177902799388902e-14
  endloop
endfacet
facet normal -4.870956585677722e-14 0.0 -1.0
  outer loop
    vertex 75.8271943341165 34.506574859028525 9.164891068280667e-14
    vertex 76.03729505074483 29.808111755098988 8.177902799388902e-14
    vertex 75.8271943341165 25.10964865116945 9.164891068280667e-14
  endloop
endfacet
facet normal -4.870956585677722e-14 0.0 -1.0
  outer loop
    vertex 75.8271943341165 34.506574859028525 9.164891068280667e-14
    vertex 75.8271943341165 25.10964865116945 9.164891068280667e-14
    vertex 75.03729505074483 25.4779847361768 1.268984917146554e-13
  endloop
endfacet
facet normal -4.870956585677722e-14 0.0 -1.0
  outer loop
    vertex 75.8271943341165 34.506574859028525 9.164891068280667e-14
    vertex 75.03729505074483 25.4779847361768 1.268984917146554e-13
    vertex 75.03729505074483 34.13823877402118 1.268984917146554e-13
  endloop
endfacet
facet normal -4.870956585677722e-14 0.0 -1.0
  outer loop
    vertex 75.03729505074483 34.13823877402118 1.268984917146554e-13
    vertex 75.03729505074483 25.4779847361768 1.268984917146554e-13
    vertex 74.32335700231214 25.977889539504105 1.64968039229052e-13
  endloop
endfacet
facet normal -4.870956585677722e-14 0.0 -1.0
  outer loop
    vertex 75.03729505074483 34.13823877402118 1.268984917146554e-13
    vertex 74.32335700231214 25.977889539504105 1.64968039229052e-13
    vertex 74.32335700231214 33.63833397069387 1.64968039229052e-13
  endloop
endfacet
facet normal -4.870956585677722e-14 0.0 -1.0
  outer loop
    vertex 74.32335700231214 33.63833397069387 1.64968039229052e-13
    vertex 74.32335700231214 25.977889539504105 1.64968039229052e-13
    vertex 73.70707283514996 26.594173706666293 1.9175772081325702e-13
  endloop
endfacet
facet normal -4.870956585677722e-14 0.0 -1.0
  outer loop
    vertex 74.32335700231214 33.63833397069387 1.64968039229052e-13
    vertex 73.70707283514996 26.594173706666293 1.9175772081325702e-13
    vertex 73.70707283514996 33.02204980353169 1.9175772081325702e-13
  endloop
endfacet
facet normal -4.870956585677722e-14 0.0 -1.0
  outer loop
    vertex 73.70707283514996 33.02204980353169 1.9175772081325702e-13
    vertex 73.70707283514996 26.594173706666293 1.9175772081325702e-13
    vertex 73.20716803182265 27.308111755098995 2.1290746943236625e-13
  endloop
endfacet
facet normal -4.870956585677722e-14 0.0 -1.0
  outer loop
    vertex 73.70707283514996 33.02204980353169 1.9175772081325702e-13
    vertex 73.20716803182265 27.308111755098995 2.1290746943236625e-13
    vertex 73.20716803182265 32.308111755098984 2.1290746943236625e-13
  endloop
endfacet
facet normal -4.870956585677722e-14 0.0 -1.0
  outer loop
    vertex 73.20716803182265 32.308111755098984 2.1290746943236625e-13
    vertex 73.20716803182265 27.308111755098995 2.1290746943236625e-13
    vertex 72.8388319468153 28.09801103847064 2.340572180514755e-13
  endloop
endfacet
facet normal -4.870956585677722e-14 0.0 -1.0
  outer loop
    vertex 73.20716803182265 32.308111755098984 2.1290746943236625e-13
    vertex 72.8388319468153 28.09801103847064 2.340572180514755e-13
    vertex 72.8388319468153 31.518212471727324 2.340572180514755e-13
  endloop
endfacet
facet normal -4.870956585677722e-14 0.0 -1.0
  outer loop
    vertex 72.8388319468153 31.518212471727324 2.340572180514755e-13
    vertex 72.8388319468153 28.09801103847064 2.340572180514755e-13
    vertex 72.6132562856838 28.939870866764338 2.4815705046421497e-13
  endloop
endfacet
facet normal -4.870956585677722e-14 0.0 -1.0
  outer loop
    vertex 72.8388319468153 31.518212471727324 2.340572180514755e-13
    vertex 72.6132562856838 28.939870866764338 2.4815705046421497e-13
    vertex 72.6132562856838 30.676352643433642 2.4815705046421497e-13
  endloop
endfacet
facet normal -4.870956585677722e-14 0.0 -1.0
  outer loop
    vertex 72.6132562856838 30.676352643433642 2.4815705046421497e-13
    vertex 72.6132562856838 28.939870866764338 2.4815705046421497e-13
    vertex 72.53729505074485 29.808111755098988 2.4533708398166706e-13
  endloop
endfacet
endsolid MouseLensCover
