M48
; DRILL file {KiCad (5.1.0-0)} date Thursday, 05 November 2020 at 15:46:19
; FORMAT={-:-/ absolute / inch / decimal}
; #@! TF.CreationDate,2020-11-05T15:46:19+00:00
; #@! TF.GenerationSoftware,Kicad,Pcbnew,(5.1.0-0)
; #@! TF.FileFunction,Plated,1,2,PTH
FMAT,2
INCH
T1C0.0157
T2C0.0315
T3C0.0394
T4C0.0433
T5C0.0591
%
G90
G05
T1
X1.89Y-4.02
X2.04Y-4.2
X2.347Y-3.9277
X2.38Y-4.33
X2.38Y-4.45
X2.414Y-4.19
X2.49Y-4.24
X2.63Y-4.11
X2.68Y-3.43
X2.77Y-4.24
X2.86Y-4.19
X2.87Y-3.43
X2.911Y-4.17
X3.112Y-4.44
X3.1125Y-4.3455
T2
X1.665Y-3.2425
X1.665Y-3.3425
X1.665Y-3.4425
X1.665Y-3.5425
X1.665Y-4.5425
X2.43Y-3.6134
X1.665Y-4.4425
X2.43Y-3.6835
X1.665Y-4.3425
X2.43Y-3.7535
X1.665Y-4.2425
X2.43Y-3.8236
X1.665Y-4.1425
X2.43Y-3.8937
X1.665Y-4.0425
X2.43Y-3.9638
X1.665Y-3.9425
X2.43Y-4.0339
X1.665Y-3.8425
X2.9261Y-4.0339
X1.665Y-3.7425
X2.9261Y-3.9638
X1.665Y-3.6425
X2.9261Y-3.8937
X2.9261Y-3.8236
X2.9261Y-3.7535
X2.9261Y-3.6835
X2.9261Y-3.6134
X2.9261Y-3.5433
X2.43Y-3.5433
X1.665Y-4.6425
X2.265Y-3.2425
X2.265Y-3.3425
X2.265Y-3.4425
X2.265Y-3.5425
X2.265Y-3.6425
X2.265Y-3.7425
X2.265Y-3.8425
X2.265Y-3.9425
X2.265Y-4.0425
X2.265Y-4.1425
X2.265Y-4.2425
X2.265Y-4.3425
X2.265Y-4.4425
X2.265Y-4.5425
X2.265Y-4.6425
T3
X3.6425Y-2.13
X3.6425Y-2.23
X3.6425Y-2.33
X3.6425Y-2.43
X3.6425Y-2.53
X3.6425Y-2.63
X3.6425Y-2.73
X3.6425Y-2.83
T4
X3.0512Y-1.7717
X3.0512Y-1.9488
X3.3071Y-1.7717
X3.3071Y-1.9488
X2.0472Y-1.7717
X2.0472Y-1.9488
X2.3031Y-1.7717
X2.3031Y-1.9488
T5
X2.6772Y-1.835
T0
M30
