M48
; DRILL file {KiCad (5.1.0-0)} date Thursday, 15 October 2020 at 12:17:20
; FORMAT={-:-/ absolute / inch / decimal}
; #@! TF.CreationDate,2020-10-15T12:17:20+01:00
; #@! TF.GenerationSoftware,Kicad,Pcbnew,(5.1.0-0)
; #@! TF.FileFunction,Plated,1,2,PTH
FMAT,2
INCH
T1C0.0157
T2C0.0315
T3C0.0394
T4C0.0433
T5C0.0591
%
G90
G05
T1
X1.85Y-4.0475
X1.93Y-4.4875
X1.93Y-4.6225
X1.97Y-4.17
X2.0025Y-3.55
X2.163Y-4.341
X2.347Y-3.9277
X2.383Y-4.331
X2.383Y-4.44
X2.3925Y-3.4
X2.414Y-4.19
X2.578Y-4.24
X2.6825Y-3.405
X2.803Y-3.207
X2.806Y-4.252
X2.835Y-3.345
X2.86Y-4.19
X2.911Y-4.17
X2.9975Y-3.405
X3.02Y-2.81
X3.035Y-3.97
X3.035Y-4.115
X3.0425Y-3.645
X3.0425Y-3.7225
X3.112Y-4.44
X3.1125Y-4.3455
X3.1375Y-3.31
X3.275Y-3.0075
X3.2875Y-2.365
X3.2875Y-2.5575
T2
X1.665Y-3.2425
X1.665Y-3.3425
X1.665Y-3.4425
X1.665Y-3.5425
X1.665Y-3.6425
X1.665Y-3.7425
X1.665Y-3.8425
X1.665Y-4.0425
X1.665Y-4.1425
X1.665Y-4.2425
X1.665Y-4.3425
X1.665Y-4.4425
X1.665Y-4.5425
X1.665Y-4.6425
X2.265Y-3.2425
X2.265Y-3.3425
X2.265Y-3.4425
X2.265Y-3.5425
X2.265Y-3.6425
X2.265Y-3.7425
X2.265Y-3.8425
X2.265Y-3.9425
X2.265Y-4.0425
X2.265Y-4.1425
X2.265Y-4.2425
X2.265Y-4.3425
X2.265Y-4.4425
X2.265Y-4.5425
X2.265Y-4.6425
X2.43Y-3.5433
X2.43Y-3.6134
X2.43Y-3.6835
X2.43Y-3.7535
X2.43Y-3.8236
X2.43Y-3.8937
X2.43Y-3.9638
X2.43Y-4.0339
X2.9261Y-3.5433
X2.9261Y-3.6134
X2.9261Y-3.6835
X2.9261Y-3.7535
X2.9261Y-3.8236
X2.9261Y-3.8937
X2.9261Y-3.9638
X2.9261Y-4.0339
X1.665Y-3.9425
T3
X3.6425Y-2.13
X3.6425Y-2.23
X3.6425Y-2.33
X3.6425Y-2.43
X3.6425Y-2.53
X3.6425Y-2.63
X3.6425Y-2.73
X3.6425Y-2.83
T4
X2.0472Y-1.7717
X2.0472Y-1.9488
X2.3031Y-1.7717
X2.3031Y-1.9488
X3.0512Y-1.7717
X3.0512Y-1.9488
X3.3071Y-1.7717
X3.3071Y-1.9488
T5
X2.6772Y-1.835
T0
M30
