G04 #@! TF.GenerationSoftware,KiCad,Pcbnew,(5.1.0-0)*
G04 #@! TF.CreationDate,2020-10-15T12:17:16+01:00*
G04 #@! TF.ProjectId,OpenLaserMouse,4f70656e-4c61-4736-9572-4d6f7573652e,rev?*
G04 #@! TF.SameCoordinates,Original*
G04 #@! TF.FileFunction,Legend,Top*
G04 #@! TF.FilePolarity,Positive*
%FSLAX46Y46*%
G04 Gerber Fmt 4.6, Leading zero omitted, Abs format (unit mm)*
G04 Created by KiCad (PCBNEW (5.1.0-0)) date 2020-10-15 12:17:16*
%MOMM*%
%LPD*%
G04 APERTURE LIST*
%ADD10C,0.150000*%
%ADD11C,0.120000*%
G04 APERTURE END LIST*
D10*
X65603738Y-43584761D02*
X65746595Y-43632380D01*
X65984690Y-43632380D01*
X66079928Y-43584761D01*
X66127547Y-43537142D01*
X66175166Y-43441904D01*
X66175166Y-43346666D01*
X66127547Y-43251428D01*
X66079928Y-43203809D01*
X65984690Y-43156190D01*
X65794214Y-43108571D01*
X65698976Y-43060952D01*
X65651357Y-43013333D01*
X65603738Y-42918095D01*
X65603738Y-42822857D01*
X65651357Y-42727619D01*
X65698976Y-42680000D01*
X65794214Y-42632380D01*
X66032309Y-42632380D01*
X66175166Y-42680000D01*
X66603738Y-43632380D02*
X66603738Y-42632380D01*
X66603738Y-43108571D02*
X67175166Y-43108571D01*
X67175166Y-43632380D02*
X67175166Y-42632380D01*
X67651357Y-43632380D02*
X67651357Y-42632380D01*
X68127547Y-43108571D02*
X68460880Y-43108571D01*
X68603738Y-43632380D02*
X68127547Y-43632380D01*
X68127547Y-42632380D01*
X68603738Y-42632380D01*
X69508500Y-43632380D02*
X69032309Y-43632380D01*
X69032309Y-42632380D01*
X69841833Y-43632380D02*
X69841833Y-42632380D01*
X70079928Y-42632380D01*
X70222785Y-42680000D01*
X70318023Y-42775238D01*
X70365642Y-42870476D01*
X70413261Y-43060952D01*
X70413261Y-43203809D01*
X70365642Y-43394285D01*
X70318023Y-43489523D01*
X70222785Y-43584761D01*
X70079928Y-43632380D01*
X69841833Y-43632380D01*
X86632095Y-72143928D02*
X87394000Y-72143928D01*
X87013047Y-72524880D02*
X87013047Y-71762976D01*
X88346380Y-71524880D02*
X87870190Y-71524880D01*
X87822571Y-72001071D01*
X87870190Y-71953452D01*
X87965428Y-71905833D01*
X88203523Y-71905833D01*
X88298761Y-71953452D01*
X88346380Y-72001071D01*
X88394000Y-72096309D01*
X88394000Y-72334404D01*
X88346380Y-72429642D01*
X88298761Y-72477261D01*
X88203523Y-72524880D01*
X87965428Y-72524880D01*
X87870190Y-72477261D01*
X87822571Y-72429642D01*
X88727333Y-71858214D02*
X88965428Y-72524880D01*
X89203523Y-71858214D01*
X86473357Y-68730880D02*
X87140023Y-69730880D01*
X87140023Y-68730880D02*
X86473357Y-69730880D01*
X87473357Y-69445166D02*
X87949547Y-69445166D01*
X87378119Y-69730880D02*
X87711452Y-68730880D01*
X88044785Y-69730880D01*
X86473357Y-66254380D02*
X87140023Y-67254380D01*
X87140023Y-66254380D02*
X86473357Y-67254380D01*
X87854309Y-66730571D02*
X87997166Y-66778190D01*
X88044785Y-66825809D01*
X88092404Y-66921047D01*
X88092404Y-67063904D01*
X88044785Y-67159142D01*
X87997166Y-67206761D01*
X87901928Y-67254380D01*
X87520976Y-67254380D01*
X87520976Y-66254380D01*
X87854309Y-66254380D01*
X87949547Y-66302000D01*
X87997166Y-66349619D01*
X88044785Y-66444857D01*
X88044785Y-66540095D01*
X87997166Y-66635333D01*
X87949547Y-66682952D01*
X87854309Y-66730571D01*
X87520976Y-66730571D01*
X86965404Y-63952500D02*
X86870166Y-63904880D01*
X86727309Y-63904880D01*
X86584452Y-63952500D01*
X86489214Y-64047738D01*
X86441595Y-64142976D01*
X86393976Y-64333452D01*
X86393976Y-64476309D01*
X86441595Y-64666785D01*
X86489214Y-64762023D01*
X86584452Y-64857261D01*
X86727309Y-64904880D01*
X86822547Y-64904880D01*
X86965404Y-64857261D01*
X87013023Y-64809642D01*
X87013023Y-64476309D01*
X86822547Y-64476309D01*
X87441595Y-64904880D02*
X87441595Y-63904880D01*
X88013023Y-64904880D01*
X88013023Y-63904880D01*
X88489214Y-64904880D02*
X88489214Y-63904880D01*
X88727309Y-63904880D01*
X88870166Y-63952500D01*
X88965404Y-64047738D01*
X89013023Y-64142976D01*
X89060642Y-64333452D01*
X89060642Y-64476309D01*
X89013023Y-64666785D01*
X88965404Y-64762023D01*
X88870166Y-64857261D01*
X88727309Y-64904880D01*
X88489214Y-64904880D01*
X86632071Y-61698190D02*
X86632071Y-62174380D01*
X86298738Y-61174380D02*
X86632071Y-61698190D01*
X86965404Y-61174380D01*
X87632071Y-61650571D02*
X87774928Y-61698190D01*
X87822547Y-61745809D01*
X87870166Y-61841047D01*
X87870166Y-61983904D01*
X87822547Y-62079142D01*
X87774928Y-62126761D01*
X87679690Y-62174380D01*
X87298738Y-62174380D01*
X87298738Y-61174380D01*
X87632071Y-61174380D01*
X87727309Y-61222000D01*
X87774928Y-61269619D01*
X87822547Y-61364857D01*
X87822547Y-61460095D01*
X87774928Y-61555333D01*
X87727309Y-61602952D01*
X87632071Y-61650571D01*
X87298738Y-61650571D01*
X86632071Y-59094690D02*
X86632071Y-59570880D01*
X86298738Y-58570880D02*
X86632071Y-59094690D01*
X86965404Y-58570880D01*
X87251119Y-59285166D02*
X87727309Y-59285166D01*
X87155880Y-59570880D02*
X87489214Y-58570880D01*
X87822547Y-59570880D01*
X86917785Y-57030880D02*
X86441595Y-57030880D01*
X86441595Y-56030880D01*
X87251119Y-56507071D02*
X87584452Y-56507071D01*
X87727309Y-57030880D02*
X87251119Y-57030880D01*
X87251119Y-56030880D01*
X87727309Y-56030880D01*
X88489214Y-56507071D02*
X88155880Y-56507071D01*
X88155880Y-57030880D02*
X88155880Y-56030880D01*
X88632071Y-56030880D01*
X88870166Y-56030880D02*
X89441595Y-56030880D01*
X89155880Y-57030880D02*
X89155880Y-56030880D01*
X87013023Y-54617880D02*
X86679690Y-54141690D01*
X86441595Y-54617880D02*
X86441595Y-53617880D01*
X86822547Y-53617880D01*
X86917785Y-53665500D01*
X86965404Y-53713119D01*
X87013023Y-53808357D01*
X87013023Y-53951214D01*
X86965404Y-54046452D01*
X86917785Y-54094071D01*
X86822547Y-54141690D01*
X86441595Y-54141690D01*
X87441595Y-54617880D02*
X87441595Y-53617880D01*
X88441595Y-53665500D02*
X88346357Y-53617880D01*
X88203500Y-53617880D01*
X88060642Y-53665500D01*
X87965404Y-53760738D01*
X87917785Y-53855976D01*
X87870166Y-54046452D01*
X87870166Y-54189309D01*
X87917785Y-54379785D01*
X87965404Y-54475023D01*
X88060642Y-54570261D01*
X88203500Y-54617880D01*
X88298738Y-54617880D01*
X88441595Y-54570261D01*
X88489214Y-54522642D01*
X88489214Y-54189309D01*
X88298738Y-54189309D01*
X88917785Y-54617880D02*
X88917785Y-53617880D01*
X88917785Y-54094071D02*
X89489214Y-54094071D01*
X89489214Y-54617880D02*
X89489214Y-53617880D01*
X89822547Y-53617880D02*
X90393976Y-53617880D01*
X90108261Y-54617880D02*
X90108261Y-53617880D01*
X62477952Y-121626380D02*
X62668428Y-121626380D01*
X62763666Y-121674000D01*
X62858904Y-121769238D01*
X62906523Y-121959714D01*
X62906523Y-122293047D01*
X62858904Y-122483523D01*
X62763666Y-122578761D01*
X62668428Y-122626380D01*
X62477952Y-122626380D01*
X62382714Y-122578761D01*
X62287476Y-122483523D01*
X62239857Y-122293047D01*
X62239857Y-121959714D01*
X62287476Y-121769238D01*
X62382714Y-121674000D01*
X62477952Y-121626380D01*
X63335095Y-121959714D02*
X63335095Y-122959714D01*
X63335095Y-122007333D02*
X63430333Y-121959714D01*
X63620809Y-121959714D01*
X63716047Y-122007333D01*
X63763666Y-122054952D01*
X63811285Y-122150190D01*
X63811285Y-122435904D01*
X63763666Y-122531142D01*
X63716047Y-122578761D01*
X63620809Y-122626380D01*
X63430333Y-122626380D01*
X63335095Y-122578761D01*
X64620809Y-122578761D02*
X64525571Y-122626380D01*
X64335095Y-122626380D01*
X64239857Y-122578761D01*
X64192238Y-122483523D01*
X64192238Y-122102571D01*
X64239857Y-122007333D01*
X64335095Y-121959714D01*
X64525571Y-121959714D01*
X64620809Y-122007333D01*
X64668428Y-122102571D01*
X64668428Y-122197809D01*
X64192238Y-122293047D01*
X65096999Y-121959714D02*
X65096999Y-122626380D01*
X65096999Y-122054952D02*
X65144619Y-122007333D01*
X65239857Y-121959714D01*
X65382714Y-121959714D01*
X65477952Y-122007333D01*
X65525571Y-122102571D01*
X65525571Y-122626380D01*
X67239857Y-122626380D02*
X66763666Y-122626380D01*
X66763666Y-121626380D01*
X68001761Y-122626380D02*
X68001761Y-122102571D01*
X67954142Y-122007333D01*
X67858904Y-121959714D01*
X67668428Y-121959714D01*
X67573190Y-122007333D01*
X68001761Y-122578761D02*
X67906523Y-122626380D01*
X67668428Y-122626380D01*
X67573190Y-122578761D01*
X67525571Y-122483523D01*
X67525571Y-122388285D01*
X67573190Y-122293047D01*
X67668428Y-122245428D01*
X67906523Y-122245428D01*
X68001761Y-122197809D01*
X68430333Y-122578761D02*
X68525571Y-122626380D01*
X68716047Y-122626380D01*
X68811285Y-122578761D01*
X68858904Y-122483523D01*
X68858904Y-122435904D01*
X68811285Y-122340666D01*
X68716047Y-122293047D01*
X68573190Y-122293047D01*
X68477952Y-122245428D01*
X68430333Y-122150190D01*
X68430333Y-122102571D01*
X68477952Y-122007333D01*
X68573190Y-121959714D01*
X68716047Y-121959714D01*
X68811285Y-122007333D01*
X69668428Y-122578761D02*
X69573190Y-122626380D01*
X69382714Y-122626380D01*
X69287476Y-122578761D01*
X69239857Y-122483523D01*
X69239857Y-122102571D01*
X69287476Y-122007333D01*
X69382714Y-121959714D01*
X69573190Y-121959714D01*
X69668428Y-122007333D01*
X69716047Y-122102571D01*
X69716047Y-122197809D01*
X69239857Y-122293047D01*
X70144619Y-122626380D02*
X70144619Y-121959714D01*
X70144619Y-122150190D02*
X70192238Y-122054952D01*
X70239857Y-122007333D01*
X70335095Y-121959714D01*
X70430333Y-121959714D01*
X71525571Y-122626380D02*
X71525571Y-121626380D01*
X71858904Y-122340666D01*
X72192238Y-121626380D01*
X72192238Y-122626380D01*
X72811285Y-122626380D02*
X72716047Y-122578761D01*
X72668428Y-122531142D01*
X72620809Y-122435904D01*
X72620809Y-122150190D01*
X72668428Y-122054952D01*
X72716047Y-122007333D01*
X72811285Y-121959714D01*
X72954142Y-121959714D01*
X73049380Y-122007333D01*
X73097000Y-122054952D01*
X73144619Y-122150190D01*
X73144619Y-122435904D01*
X73097000Y-122531142D01*
X73049380Y-122578761D01*
X72954142Y-122626380D01*
X72811285Y-122626380D01*
X74001761Y-121959714D02*
X74001761Y-122626380D01*
X73573190Y-121959714D02*
X73573190Y-122483523D01*
X73620809Y-122578761D01*
X73716047Y-122626380D01*
X73858904Y-122626380D01*
X73954142Y-122578761D01*
X74001761Y-122531142D01*
X74430333Y-122578761D02*
X74525571Y-122626380D01*
X74716047Y-122626380D01*
X74811285Y-122578761D01*
X74858904Y-122483523D01*
X74858904Y-122435904D01*
X74811285Y-122340666D01*
X74716047Y-122293047D01*
X74573190Y-122293047D01*
X74477952Y-122245428D01*
X74430333Y-122150190D01*
X74430333Y-122102571D01*
X74477952Y-122007333D01*
X74573190Y-121959714D01*
X74716047Y-121959714D01*
X74811285Y-122007333D01*
X75668428Y-122578761D02*
X75573190Y-122626380D01*
X75382714Y-122626380D01*
X75287476Y-122578761D01*
X75239857Y-122483523D01*
X75239857Y-122102571D01*
X75287476Y-122007333D01*
X75382714Y-121959714D01*
X75573190Y-121959714D01*
X75668428Y-122007333D01*
X75716047Y-122102571D01*
X75716047Y-122197809D01*
X75239857Y-122293047D01*
X76763666Y-121626380D02*
X77097000Y-122626380D01*
X77430333Y-121626380D01*
X78287476Y-122626380D02*
X77716047Y-122626380D01*
X78001761Y-122626380D02*
X78001761Y-121626380D01*
X77906523Y-121769238D01*
X77811285Y-121864476D01*
X77716047Y-121912095D01*
X78716047Y-122531142D02*
X78763666Y-122578761D01*
X78716047Y-122626380D01*
X78668428Y-122578761D01*
X78716047Y-122531142D01*
X78716047Y-122626380D01*
X79097000Y-121626380D02*
X79716047Y-121626380D01*
X79382714Y-122007333D01*
X79525571Y-122007333D01*
X79620809Y-122054952D01*
X79668428Y-122102571D01*
X79716047Y-122197809D01*
X79716047Y-122435904D01*
X79668428Y-122531142D01*
X79620809Y-122578761D01*
X79525571Y-122626380D01*
X79239857Y-122626380D01*
X79144619Y-122578761D01*
X79097000Y-122531142D01*
X80858904Y-121721619D02*
X80906523Y-121674000D01*
X81001761Y-121626380D01*
X81239857Y-121626380D01*
X81335095Y-121674000D01*
X81382714Y-121721619D01*
X81430333Y-121816857D01*
X81430333Y-121912095D01*
X81382714Y-122054952D01*
X80811285Y-122626380D01*
X81430333Y-122626380D01*
X82049380Y-121626380D02*
X82144619Y-121626380D01*
X82239857Y-121674000D01*
X82287476Y-121721619D01*
X82335095Y-121816857D01*
X82382714Y-122007333D01*
X82382714Y-122245428D01*
X82335095Y-122435904D01*
X82287476Y-122531142D01*
X82239857Y-122578761D01*
X82144619Y-122626380D01*
X82049380Y-122626380D01*
X81954142Y-122578761D01*
X81906523Y-122531142D01*
X81858904Y-122435904D01*
X81811285Y-122245428D01*
X81811285Y-122007333D01*
X81858904Y-121816857D01*
X81906523Y-121721619D01*
X81954142Y-121674000D01*
X82049380Y-121626380D01*
X82763666Y-121721619D02*
X82811285Y-121674000D01*
X82906523Y-121626380D01*
X83144619Y-121626380D01*
X83239857Y-121674000D01*
X83287476Y-121721619D01*
X83335095Y-121816857D01*
X83335095Y-121912095D01*
X83287476Y-122054952D01*
X82716047Y-122626380D01*
X83335095Y-122626380D01*
X83954142Y-121626380D02*
X84049380Y-121626380D01*
X84144619Y-121674000D01*
X84192238Y-121721619D01*
X84239857Y-121816857D01*
X84287476Y-122007333D01*
X84287476Y-122245428D01*
X84239857Y-122435904D01*
X84192238Y-122531142D01*
X84144619Y-122578761D01*
X84049380Y-122626380D01*
X83954142Y-122626380D01*
X83858904Y-122578761D01*
X83811285Y-122531142D01*
X83763666Y-122435904D01*
X83716047Y-122245428D01*
X83716047Y-122007333D01*
X83763666Y-121816857D01*
X83811285Y-121721619D01*
X83858904Y-121674000D01*
X83954142Y-121626380D01*
X85811285Y-122102571D02*
X85954142Y-122150190D01*
X86001761Y-122197809D01*
X86049380Y-122293047D01*
X86049380Y-122435904D01*
X86001761Y-122531142D01*
X85954142Y-122578761D01*
X85858904Y-122626380D01*
X85477952Y-122626380D01*
X85477952Y-121626380D01*
X85811285Y-121626380D01*
X85906523Y-121674000D01*
X85954142Y-121721619D01*
X86001761Y-121816857D01*
X86001761Y-121912095D01*
X85954142Y-122007333D01*
X85906523Y-122054952D01*
X85811285Y-122102571D01*
X85477952Y-122102571D01*
X86382714Y-121959714D02*
X86620809Y-122626380D01*
X86858904Y-121959714D02*
X86620809Y-122626380D01*
X86525571Y-122864476D01*
X86477952Y-122912095D01*
X86382714Y-122959714D01*
X88573190Y-122531142D02*
X88525571Y-122578761D01*
X88382714Y-122626380D01*
X88287476Y-122626380D01*
X88144619Y-122578761D01*
X88049380Y-122483523D01*
X88001761Y-122388285D01*
X87954142Y-122197809D01*
X87954142Y-122054952D01*
X88001761Y-121864476D01*
X88049380Y-121769238D01*
X88144619Y-121674000D01*
X88287476Y-121626380D01*
X88382714Y-121626380D01*
X88525571Y-121674000D01*
X88573190Y-121721619D01*
X89001761Y-122626380D02*
X89001761Y-121626380D01*
X89430333Y-122626380D02*
X89430333Y-122102571D01*
X89382714Y-122007333D01*
X89287476Y-121959714D01*
X89144619Y-121959714D01*
X89049380Y-122007333D01*
X89001761Y-122054952D01*
X89906523Y-122626380D02*
X89906523Y-121959714D01*
X89906523Y-122150190D02*
X89954142Y-122054952D01*
X90001761Y-122007333D01*
X90096999Y-121959714D01*
X90192238Y-121959714D01*
X90525571Y-122626380D02*
X90525571Y-121959714D01*
X90525571Y-121626380D02*
X90477952Y-121674000D01*
X90525571Y-121721619D01*
X90573190Y-121674000D01*
X90525571Y-121626380D01*
X90525571Y-121721619D01*
X90954142Y-122578761D02*
X91049380Y-122626380D01*
X91239857Y-122626380D01*
X91335095Y-122578761D01*
X91382714Y-122483523D01*
X91382714Y-122435904D01*
X91335095Y-122340666D01*
X91239857Y-122293047D01*
X91096999Y-122293047D01*
X91001761Y-122245428D01*
X90954142Y-122150190D01*
X90954142Y-122102571D01*
X91001761Y-122007333D01*
X91096999Y-121959714D01*
X91239857Y-121959714D01*
X91335095Y-122007333D01*
X91763666Y-122578761D02*
X91858904Y-122626380D01*
X92049380Y-122626380D01*
X92144619Y-122578761D01*
X92192238Y-122483523D01*
X92192238Y-122435904D01*
X92144619Y-122340666D01*
X92049380Y-122293047D01*
X91906523Y-122293047D01*
X91811285Y-122245428D01*
X91763666Y-122150190D01*
X91763666Y-122102571D01*
X91811285Y-122007333D01*
X91906523Y-121959714D01*
X92049380Y-121959714D01*
X92144619Y-122007333D01*
X92525571Y-121959714D02*
X92763666Y-122626380D01*
X93001761Y-121959714D02*
X92763666Y-122626380D01*
X92668428Y-122864476D01*
X92620809Y-122912095D01*
X92525571Y-122959714D01*
D11*
X81500478Y-112066000D02*
X80983322Y-112066000D01*
X81500478Y-113486000D02*
X80983322Y-113486000D01*
X77042778Y-112066000D02*
X76525622Y-112066000D01*
X77042778Y-113486000D02*
X76525622Y-113486000D01*
X81500478Y-109665200D02*
X80983322Y-109665200D01*
X81500478Y-111085200D02*
X80983322Y-111085200D01*
X77042778Y-109665200D02*
X76525622Y-109665200D01*
X77042778Y-111085200D02*
X76525622Y-111085200D01*
X81500478Y-107252200D02*
X80983322Y-107252200D01*
X81500478Y-108672200D02*
X80983322Y-108672200D01*
X77042778Y-107252200D02*
X76525622Y-107252200D01*
X77042778Y-108672200D02*
X76525622Y-108672200D01*
X69898000Y-82981500D02*
X69898000Y-84441500D01*
X66738000Y-82981500D02*
X66738000Y-85141500D01*
X66738000Y-82981500D02*
X67668000Y-82981500D01*
X69898000Y-82981500D02*
X68968000Y-82981500D01*
X63495422Y-85101500D02*
X64012578Y-85101500D01*
X63495422Y-83681500D02*
X64012578Y-83681500D01*
X63472322Y-82853600D02*
X63989478Y-82853600D01*
X63472322Y-81433600D02*
X63989478Y-81433600D01*
X73521500Y-83624922D02*
X73521500Y-84142078D01*
X74941500Y-83624922D02*
X74941500Y-84142078D01*
X83056800Y-91063578D02*
X83056800Y-90546422D01*
X81636800Y-91063578D02*
X81636800Y-90546422D01*
X80529500Y-91063578D02*
X80529500Y-90546422D01*
X79109500Y-91063578D02*
X79109500Y-90546422D01*
X81763800Y-101493822D02*
X81763800Y-102010978D01*
X83183800Y-101493822D02*
X83183800Y-102010978D01*
X79236500Y-101531422D02*
X79236500Y-102048578D01*
X80656500Y-101531422D02*
X80656500Y-102048578D01*
X83107600Y-95318078D02*
X83107600Y-94800922D01*
X81687600Y-95318078D02*
X81687600Y-94800922D01*
X80529500Y-95318078D02*
X80529500Y-94800922D01*
X79109500Y-95318078D02*
X79109500Y-94800922D01*
X69800694Y-46609000D02*
G75*
G03X69800694Y-46609000I-1800694J0D01*
G01*
X58931000Y-78419500D02*
X40891000Y-78419500D01*
X58931000Y-121859500D02*
X58931000Y-78419500D01*
X40891000Y-121859500D02*
X58931000Y-121859500D01*
X43561000Y-119189500D02*
X40891000Y-119189500D01*
X43561000Y-83629500D02*
X43561000Y-119189500D01*
X43561000Y-83629500D02*
X40891000Y-83629500D01*
X56261000Y-119189500D02*
X58931000Y-119189500D01*
X56261000Y-81089500D02*
X56261000Y-119189500D01*
X56261000Y-81089500D02*
X58931000Y-81089500D01*
X40891000Y-78419500D02*
X40891000Y-81089500D01*
X40891000Y-83629500D02*
X40891000Y-121859500D01*
X43561000Y-81089500D02*
X40891000Y-81089500D01*
X43561000Y-83629500D02*
X43561000Y-81089500D01*
X84250000Y-48000000D02*
X84250000Y-46500000D01*
X83000000Y-44000000D02*
X78500000Y-44000000D01*
X77250000Y-46500000D02*
X77250000Y-48000000D01*
X78500000Y-50500000D02*
X83000000Y-50500000D01*
X58750000Y-48000000D02*
X58750000Y-46500000D01*
X57500000Y-44000000D02*
X53000000Y-44000000D01*
X51750000Y-46500000D02*
X51750000Y-48000000D01*
X53000000Y-50500000D02*
X57500000Y-50500000D01*
X91189500Y-52772000D02*
X92519500Y-52772000D01*
X91189500Y-54102000D02*
X91189500Y-52772000D01*
X91189500Y-55372000D02*
X93849500Y-55372000D01*
X93849500Y-55372000D02*
X93849500Y-73212000D01*
X91189500Y-55372000D02*
X91189500Y-73212000D01*
X91189500Y-73212000D02*
X93849500Y-73212000D01*
X62272000Y-88300000D02*
X75372000Y-88300000D01*
X75372000Y-88300000D02*
X75372000Y-104150000D01*
X75372000Y-104150000D02*
X60672000Y-104150000D01*
X60672000Y-104150000D02*
X60672000Y-90000000D01*
D10*
X83704133Y-113253780D02*
X83370800Y-112777590D01*
X83132704Y-113253780D02*
X83132704Y-112253780D01*
X83513657Y-112253780D01*
X83608895Y-112301400D01*
X83656514Y-112349019D01*
X83704133Y-112444257D01*
X83704133Y-112587114D01*
X83656514Y-112682352D01*
X83608895Y-112729971D01*
X83513657Y-112777590D01*
X83132704Y-112777590D01*
X84561276Y-112253780D02*
X84370800Y-112253780D01*
X84275561Y-112301400D01*
X84227942Y-112349019D01*
X84132704Y-112491876D01*
X84085085Y-112682352D01*
X84085085Y-113063304D01*
X84132704Y-113158542D01*
X84180323Y-113206161D01*
X84275561Y-113253780D01*
X84466038Y-113253780D01*
X84561276Y-113206161D01*
X84608895Y-113158542D01*
X84656514Y-113063304D01*
X84656514Y-112825209D01*
X84608895Y-112729971D01*
X84561276Y-112682352D01*
X84466038Y-112634733D01*
X84275561Y-112634733D01*
X84180323Y-112682352D01*
X84132704Y-112729971D01*
X84085085Y-112825209D01*
X74052133Y-113228380D02*
X73718800Y-112752190D01*
X73480704Y-113228380D02*
X73480704Y-112228380D01*
X73861657Y-112228380D01*
X73956895Y-112276000D01*
X74004514Y-112323619D01*
X74052133Y-112418857D01*
X74052133Y-112561714D01*
X74004514Y-112656952D01*
X73956895Y-112704571D01*
X73861657Y-112752190D01*
X73480704Y-112752190D01*
X74956895Y-112228380D02*
X74480704Y-112228380D01*
X74433085Y-112704571D01*
X74480704Y-112656952D01*
X74575942Y-112609333D01*
X74814038Y-112609333D01*
X74909276Y-112656952D01*
X74956895Y-112704571D01*
X75004514Y-112799809D01*
X75004514Y-113037904D01*
X74956895Y-113133142D01*
X74909276Y-113180761D01*
X74814038Y-113228380D01*
X74575942Y-113228380D01*
X74480704Y-113180761D01*
X74433085Y-113133142D01*
X83627933Y-110866180D02*
X83294600Y-110389990D01*
X83056504Y-110866180D02*
X83056504Y-109866180D01*
X83437457Y-109866180D01*
X83532695Y-109913800D01*
X83580314Y-109961419D01*
X83627933Y-110056657D01*
X83627933Y-110199514D01*
X83580314Y-110294752D01*
X83532695Y-110342371D01*
X83437457Y-110389990D01*
X83056504Y-110389990D01*
X84485076Y-110199514D02*
X84485076Y-110866180D01*
X84246980Y-109818561D02*
X84008885Y-110532847D01*
X84627933Y-110532847D01*
X73975933Y-110815380D02*
X73642600Y-110339190D01*
X73404504Y-110815380D02*
X73404504Y-109815380D01*
X73785457Y-109815380D01*
X73880695Y-109863000D01*
X73928314Y-109910619D01*
X73975933Y-110005857D01*
X73975933Y-110148714D01*
X73928314Y-110243952D01*
X73880695Y-110291571D01*
X73785457Y-110339190D01*
X73404504Y-110339190D01*
X74309266Y-109815380D02*
X74928314Y-109815380D01*
X74594980Y-110196333D01*
X74737838Y-110196333D01*
X74833076Y-110243952D01*
X74880695Y-110291571D01*
X74928314Y-110386809D01*
X74928314Y-110624904D01*
X74880695Y-110720142D01*
X74833076Y-110767761D01*
X74737838Y-110815380D01*
X74452123Y-110815380D01*
X74356885Y-110767761D01*
X74309266Y-110720142D01*
X83627933Y-108376980D02*
X83294600Y-107900790D01*
X83056504Y-108376980D02*
X83056504Y-107376980D01*
X83437457Y-107376980D01*
X83532695Y-107424600D01*
X83580314Y-107472219D01*
X83627933Y-107567457D01*
X83627933Y-107710314D01*
X83580314Y-107805552D01*
X83532695Y-107853171D01*
X83437457Y-107900790D01*
X83056504Y-107900790D01*
X84008885Y-107472219D02*
X84056504Y-107424600D01*
X84151742Y-107376980D01*
X84389838Y-107376980D01*
X84485076Y-107424600D01*
X84532695Y-107472219D01*
X84580314Y-107567457D01*
X84580314Y-107662695D01*
X84532695Y-107805552D01*
X83961266Y-108376980D01*
X84580314Y-108376980D01*
X74001333Y-108402380D02*
X73668000Y-107926190D01*
X73429904Y-108402380D02*
X73429904Y-107402380D01*
X73810857Y-107402380D01*
X73906095Y-107450000D01*
X73953714Y-107497619D01*
X74001333Y-107592857D01*
X74001333Y-107735714D01*
X73953714Y-107830952D01*
X73906095Y-107878571D01*
X73810857Y-107926190D01*
X73429904Y-107926190D01*
X74953714Y-108402380D02*
X74382285Y-108402380D01*
X74668000Y-108402380D02*
X74668000Y-107402380D01*
X74572761Y-107545238D01*
X74477523Y-107640476D01*
X74382285Y-107688095D01*
X68179961Y-81141819D02*
X68084723Y-81094200D01*
X67989485Y-80998961D01*
X67846628Y-80856104D01*
X67751390Y-80808485D01*
X67656152Y-80808485D01*
X67703771Y-81046580D02*
X67608533Y-80998961D01*
X67513295Y-80903723D01*
X67465676Y-80713247D01*
X67465676Y-80379914D01*
X67513295Y-80189438D01*
X67608533Y-80094200D01*
X67703771Y-80046580D01*
X67894247Y-80046580D01*
X67989485Y-80094200D01*
X68084723Y-80189438D01*
X68132342Y-80379914D01*
X68132342Y-80713247D01*
X68084723Y-80903723D01*
X67989485Y-80998961D01*
X67894247Y-81046580D01*
X67703771Y-81046580D01*
X69084723Y-81046580D02*
X68513295Y-81046580D01*
X68799009Y-81046580D02*
X68799009Y-80046580D01*
X68703771Y-80189438D01*
X68608533Y-80284676D01*
X68513295Y-80332295D01*
X63536533Y-86590142D02*
X63488914Y-86637761D01*
X63346057Y-86685380D01*
X63250819Y-86685380D01*
X63107961Y-86637761D01*
X63012723Y-86542523D01*
X62965104Y-86447285D01*
X62917485Y-86256809D01*
X62917485Y-86113952D01*
X62965104Y-85923476D01*
X63012723Y-85828238D01*
X63107961Y-85733000D01*
X63250819Y-85685380D01*
X63346057Y-85685380D01*
X63488914Y-85733000D01*
X63536533Y-85780619D01*
X64012723Y-86685380D02*
X64203200Y-86685380D01*
X64298438Y-86637761D01*
X64346057Y-86590142D01*
X64441295Y-86447285D01*
X64488914Y-86256809D01*
X64488914Y-85875857D01*
X64441295Y-85780619D01*
X64393676Y-85733000D01*
X64298438Y-85685380D01*
X64107961Y-85685380D01*
X64012723Y-85733000D01*
X63965104Y-85780619D01*
X63917485Y-85875857D01*
X63917485Y-86113952D01*
X63965104Y-86209190D01*
X64012723Y-86256809D01*
X64107961Y-86304428D01*
X64298438Y-86304428D01*
X64393676Y-86256809D01*
X64441295Y-86209190D01*
X64488914Y-86113952D01*
X63564233Y-80850742D02*
X63516614Y-80898361D01*
X63373757Y-80945980D01*
X63278519Y-80945980D01*
X63135661Y-80898361D01*
X63040423Y-80803123D01*
X62992804Y-80707885D01*
X62945185Y-80517409D01*
X62945185Y-80374552D01*
X62992804Y-80184076D01*
X63040423Y-80088838D01*
X63135661Y-79993600D01*
X63278519Y-79945980D01*
X63373757Y-79945980D01*
X63516614Y-79993600D01*
X63564233Y-80041219D01*
X64135661Y-80374552D02*
X64040423Y-80326933D01*
X63992804Y-80279314D01*
X63945185Y-80184076D01*
X63945185Y-80136457D01*
X63992804Y-80041219D01*
X64040423Y-79993600D01*
X64135661Y-79945980D01*
X64326138Y-79945980D01*
X64421376Y-79993600D01*
X64468995Y-80041219D01*
X64516614Y-80136457D01*
X64516614Y-80184076D01*
X64468995Y-80279314D01*
X64421376Y-80326933D01*
X64326138Y-80374552D01*
X64135661Y-80374552D01*
X64040423Y-80422171D01*
X63992804Y-80469790D01*
X63945185Y-80565028D01*
X63945185Y-80755504D01*
X63992804Y-80850742D01*
X64040423Y-80898361D01*
X64135661Y-80945980D01*
X64326138Y-80945980D01*
X64421376Y-80898361D01*
X64468995Y-80850742D01*
X64516614Y-80755504D01*
X64516614Y-80565028D01*
X64468995Y-80469790D01*
X64421376Y-80422171D01*
X64326138Y-80374552D01*
X76238642Y-84050166D02*
X76286261Y-84097785D01*
X76333880Y-84240642D01*
X76333880Y-84335880D01*
X76286261Y-84478738D01*
X76191023Y-84573976D01*
X76095785Y-84621595D01*
X75905309Y-84669214D01*
X75762452Y-84669214D01*
X75571976Y-84621595D01*
X75476738Y-84573976D01*
X75381500Y-84478738D01*
X75333880Y-84335880D01*
X75333880Y-84240642D01*
X75381500Y-84097785D01*
X75429119Y-84050166D01*
X75333880Y-83716833D02*
X75333880Y-83050166D01*
X76333880Y-83478738D01*
X84608942Y-90971666D02*
X84656561Y-91019285D01*
X84704180Y-91162142D01*
X84704180Y-91257380D01*
X84656561Y-91400238D01*
X84561323Y-91495476D01*
X84466085Y-91543095D01*
X84275609Y-91590714D01*
X84132752Y-91590714D01*
X83942276Y-91543095D01*
X83847038Y-91495476D01*
X83751800Y-91400238D01*
X83704180Y-91257380D01*
X83704180Y-91162142D01*
X83751800Y-91019285D01*
X83799419Y-90971666D01*
X83704180Y-90114523D02*
X83704180Y-90305000D01*
X83751800Y-90400238D01*
X83799419Y-90447857D01*
X83942276Y-90543095D01*
X84132752Y-90590714D01*
X84513704Y-90590714D01*
X84608942Y-90543095D01*
X84656561Y-90495476D01*
X84704180Y-90400238D01*
X84704180Y-90209761D01*
X84656561Y-90114523D01*
X84608942Y-90066904D01*
X84513704Y-90019285D01*
X84275609Y-90019285D01*
X84180371Y-90066904D01*
X84132752Y-90114523D01*
X84085133Y-90209761D01*
X84085133Y-90400238D01*
X84132752Y-90495476D01*
X84180371Y-90543095D01*
X84275609Y-90590714D01*
X78526642Y-90971666D02*
X78574261Y-91019285D01*
X78621880Y-91162142D01*
X78621880Y-91257380D01*
X78574261Y-91400238D01*
X78479023Y-91495476D01*
X78383785Y-91543095D01*
X78193309Y-91590714D01*
X78050452Y-91590714D01*
X77859976Y-91543095D01*
X77764738Y-91495476D01*
X77669500Y-91400238D01*
X77621880Y-91257380D01*
X77621880Y-91162142D01*
X77669500Y-91019285D01*
X77717119Y-90971666D01*
X77621880Y-90066904D02*
X77621880Y-90543095D01*
X78098071Y-90590714D01*
X78050452Y-90543095D01*
X78002833Y-90447857D01*
X78002833Y-90209761D01*
X78050452Y-90114523D01*
X78098071Y-90066904D01*
X78193309Y-90019285D01*
X78431404Y-90019285D01*
X78526642Y-90066904D01*
X78574261Y-90114523D01*
X78621880Y-90209761D01*
X78621880Y-90447857D01*
X78574261Y-90543095D01*
X78526642Y-90590714D01*
X84480942Y-101919066D02*
X84528561Y-101966685D01*
X84576180Y-102109542D01*
X84576180Y-102204780D01*
X84528561Y-102347638D01*
X84433323Y-102442876D01*
X84338085Y-102490495D01*
X84147609Y-102538114D01*
X84004752Y-102538114D01*
X83814276Y-102490495D01*
X83719038Y-102442876D01*
X83623800Y-102347638D01*
X83576180Y-102204780D01*
X83576180Y-102109542D01*
X83623800Y-101966685D01*
X83671419Y-101919066D01*
X83909514Y-101061923D02*
X84576180Y-101061923D01*
X83528561Y-101300019D02*
X84242847Y-101538114D01*
X84242847Y-100919066D01*
X78512942Y-101944466D02*
X78560561Y-101992085D01*
X78608180Y-102134942D01*
X78608180Y-102230180D01*
X78560561Y-102373038D01*
X78465323Y-102468276D01*
X78370085Y-102515895D01*
X78179609Y-102563514D01*
X78036752Y-102563514D01*
X77846276Y-102515895D01*
X77751038Y-102468276D01*
X77655800Y-102373038D01*
X77608180Y-102230180D01*
X77608180Y-102134942D01*
X77655800Y-101992085D01*
X77703419Y-101944466D01*
X77608180Y-101611133D02*
X77608180Y-100992085D01*
X77989133Y-101325419D01*
X77989133Y-101182561D01*
X78036752Y-101087323D01*
X78084371Y-101039704D01*
X78179609Y-100992085D01*
X78417704Y-100992085D01*
X78512942Y-101039704D01*
X78560561Y-101087323D01*
X78608180Y-101182561D01*
X78608180Y-101468276D01*
X78560561Y-101563514D01*
X78512942Y-101611133D01*
X84507342Y-95226166D02*
X84554961Y-95273785D01*
X84602580Y-95416642D01*
X84602580Y-95511880D01*
X84554961Y-95654738D01*
X84459723Y-95749976D01*
X84364485Y-95797595D01*
X84174009Y-95845214D01*
X84031152Y-95845214D01*
X83840676Y-95797595D01*
X83745438Y-95749976D01*
X83650200Y-95654738D01*
X83602580Y-95511880D01*
X83602580Y-95416642D01*
X83650200Y-95273785D01*
X83697819Y-95226166D01*
X83697819Y-94845214D02*
X83650200Y-94797595D01*
X83602580Y-94702357D01*
X83602580Y-94464261D01*
X83650200Y-94369023D01*
X83697819Y-94321404D01*
X83793057Y-94273785D01*
X83888295Y-94273785D01*
X84031152Y-94321404D01*
X84602580Y-94892833D01*
X84602580Y-94273785D01*
X78526642Y-95226166D02*
X78574261Y-95273785D01*
X78621880Y-95416642D01*
X78621880Y-95511880D01*
X78574261Y-95654738D01*
X78479023Y-95749976D01*
X78383785Y-95797595D01*
X78193309Y-95845214D01*
X78050452Y-95845214D01*
X77859976Y-95797595D01*
X77764738Y-95749976D01*
X77669500Y-95654738D01*
X77621880Y-95511880D01*
X77621880Y-95416642D01*
X77669500Y-95273785D01*
X77717119Y-95226166D01*
X78621880Y-94273785D02*
X78621880Y-94845214D01*
X78621880Y-94559500D02*
X77621880Y-94559500D01*
X77764738Y-94654738D01*
X77859976Y-94749976D01*
X77907595Y-94845214D01*
X49196714Y-77446166D02*
X49672904Y-77446166D01*
X49101476Y-77731880D02*
X49434809Y-76731880D01*
X49768142Y-77731880D01*
X50625285Y-77731880D02*
X50053857Y-77731880D01*
X50339571Y-77731880D02*
X50339571Y-76731880D01*
X50244333Y-76874738D01*
X50149095Y-76969976D01*
X50053857Y-77017595D01*
X79416666Y-43404761D02*
X79559523Y-43452380D01*
X79797619Y-43452380D01*
X79892857Y-43404761D01*
X79940476Y-43357142D01*
X79988095Y-43261904D01*
X79988095Y-43166666D01*
X79940476Y-43071428D01*
X79892857Y-43023809D01*
X79797619Y-42976190D01*
X79607142Y-42928571D01*
X79511904Y-42880952D01*
X79464285Y-42833333D01*
X79416666Y-42738095D01*
X79416666Y-42642857D01*
X79464285Y-42547619D01*
X79511904Y-42500000D01*
X79607142Y-42452380D01*
X79845238Y-42452380D01*
X79988095Y-42500000D01*
X80321428Y-42452380D02*
X80559523Y-43452380D01*
X80750000Y-42738095D01*
X80940476Y-43452380D01*
X81178571Y-42452380D01*
X81464285Y-42452380D02*
X82083333Y-42452380D01*
X81750000Y-42833333D01*
X81892857Y-42833333D01*
X81988095Y-42880952D01*
X82035714Y-42928571D01*
X82083333Y-43023809D01*
X82083333Y-43261904D01*
X82035714Y-43357142D01*
X81988095Y-43404761D01*
X81892857Y-43452380D01*
X81607142Y-43452380D01*
X81511904Y-43404761D01*
X81464285Y-43357142D01*
X53916666Y-43404761D02*
X54059523Y-43452380D01*
X54297619Y-43452380D01*
X54392857Y-43404761D01*
X54440476Y-43357142D01*
X54488095Y-43261904D01*
X54488095Y-43166666D01*
X54440476Y-43071428D01*
X54392857Y-43023809D01*
X54297619Y-42976190D01*
X54107142Y-42928571D01*
X54011904Y-42880952D01*
X53964285Y-42833333D01*
X53916666Y-42738095D01*
X53916666Y-42642857D01*
X53964285Y-42547619D01*
X54011904Y-42500000D01*
X54107142Y-42452380D01*
X54345238Y-42452380D01*
X54488095Y-42500000D01*
X54821428Y-42452380D02*
X55059523Y-43452380D01*
X55250000Y-42738095D01*
X55440476Y-43452380D01*
X55678571Y-42452380D01*
X56011904Y-42547619D02*
X56059523Y-42500000D01*
X56154761Y-42452380D01*
X56392857Y-42452380D01*
X56488095Y-42500000D01*
X56535714Y-42547619D01*
X56583333Y-42642857D01*
X56583333Y-42738095D01*
X56535714Y-42880952D01*
X55964285Y-43452380D01*
X56583333Y-43452380D01*
X92186166Y-51224380D02*
X92186166Y-51938666D01*
X92138547Y-52081523D01*
X92043309Y-52176761D01*
X91900452Y-52224380D01*
X91805214Y-52224380D01*
X93186166Y-52224380D02*
X92614738Y-52224380D01*
X92900452Y-52224380D02*
X92900452Y-51224380D01*
X92805214Y-51367238D01*
X92709976Y-51462476D01*
X92614738Y-51510095D01*
X67313276Y-88082380D02*
X67313276Y-87082380D01*
X67646609Y-87796666D01*
X67979942Y-87082380D01*
X67979942Y-88082380D01*
X68979942Y-88082380D02*
X68408514Y-88082380D01*
X68694228Y-88082380D02*
X68694228Y-87082380D01*
X68598990Y-87225238D01*
X68503752Y-87320476D01*
X68408514Y-87368095D01*
M02*
