M48
; DRILL file {KiCad (5.1.4-0-10_14)} date Thursday, 05 November 2020 at 16:31:33
; FORMAT={-:-/ absolute / inch / decimal}
; #@! TF.CreationDate,2020-11-05T16:31:33+00:00
; #@! TF.GenerationSoftware,Kicad,Pcbnew,(5.1.4-0-10_14)
; #@! TF.FileFunction,Plated,1,2,PTH
FMAT,2
INCH
T1C0.0157
T2C0.0315
T3C0.0394
T4C0.0433
T5C0.0591
%
G90
G05
T1
X2.14Y-3.92
X2.34Y-3.39
X2.34Y-3.62
X2.35Y-3.15
X2.54Y-3.4
X2.67Y-4.11
X2.67Y-4.21
X2.68Y-3.4
X2.86Y-3.4
X2.911Y-4.17
X3.112Y-4.44
X3.1125Y-4.3455
T2
X1.66Y-3.24
X1.66Y-3.34
X1.66Y-3.44
X1.66Y-3.54
X1.66Y-3.64
X1.66Y-3.74
X1.66Y-3.84
X1.66Y-3.94
X1.66Y-4.04
X1.66Y-4.14
X1.66Y-4.24
X1.66Y-4.34
X1.66Y-4.44
X1.66Y-4.54
X1.66Y-4.64
X2.26Y-3.24
X2.26Y-3.34
X2.26Y-3.44
X2.26Y-3.54
X2.26Y-3.64
X2.26Y-3.74
X2.26Y-3.84
X2.26Y-3.94
X2.26Y-4.04
X2.26Y-4.14
X2.26Y-4.24
X2.26Y-4.34
X2.26Y-4.44
X2.26Y-4.54
X2.26Y-4.64
X2.43Y-3.5433
X2.43Y-3.6134
X2.43Y-3.6835
X2.43Y-3.7535
X2.43Y-3.8236
X2.43Y-3.8937
X2.43Y-3.9638
X2.43Y-4.0339
X2.9261Y-3.5433
X2.9261Y-3.6134
X2.9261Y-3.6835
X2.9261Y-3.7535
X2.9261Y-3.8236
X2.9261Y-3.8937
X2.9261Y-3.9638
X2.9261Y-4.0339
T3
X3.64Y-2.28
X3.64Y-2.38
X3.64Y-2.48
X3.64Y-2.58
X3.64Y-2.68
X3.64Y-2.78
X3.64Y-2.88
X3.64Y-2.98
T4
X1.9Y-1.9317
X1.9Y-2.1088
X2.1559Y-1.9317
X2.1559Y-2.1088
X3.19Y-1.9317
X3.19Y-2.1088
X3.4459Y-1.9317
X3.4459Y-2.1088
T5
X2.6772Y-1.995
T0
M30
