G04 #@! TF.GenerationSoftware,KiCad,Pcbnew,(5.1.4-0-10_14)*
G04 #@! TF.CreationDate,2020-11-05T16:31:29+00:00*
G04 #@! TF.ProjectId,OpenLaserMouse,4f70656e-4c61-4736-9572-4d6f7573652e,rev?*
G04 #@! TF.SameCoordinates,Original*
G04 #@! TF.FileFunction,Soldermask,Top*
G04 #@! TF.FilePolarity,Negative*
%FSLAX46Y46*%
G04 Gerber Fmt 4.6, Leading zero omitted, Abs format (unit mm)*
G04 Created by KiCad (PCBNEW (5.1.4-0-10_14)) date 2020-11-05 16:31:29*
%MOMM*%
%LPD*%
G04 APERTURE LIST*
%ADD10C,0.100000*%
G04 APERTURE END LIST*
D10*
G36*
X68834943Y-113566248D02*
G01*
X69390189Y-113796238D01*
X69638347Y-113962052D01*
X69889899Y-114130134D01*
X70314866Y-114555101D01*
X70314867Y-114555103D01*
X70648762Y-115054811D01*
X70878752Y-115610057D01*
X70996000Y-116199501D01*
X70996000Y-116800499D01*
X70878752Y-117389943D01*
X70648762Y-117945189D01*
X70648761Y-117945190D01*
X70314866Y-118444899D01*
X69889899Y-118869866D01*
X69638347Y-119037948D01*
X69390189Y-119203762D01*
X68834943Y-119433752D01*
X68245499Y-119551000D01*
X67644501Y-119551000D01*
X67055057Y-119433752D01*
X66499811Y-119203762D01*
X66251653Y-119037948D01*
X66000101Y-118869866D01*
X65575134Y-118444899D01*
X65241239Y-117945190D01*
X65241238Y-117945189D01*
X65011248Y-117389943D01*
X64894000Y-116800499D01*
X64894000Y-116199501D01*
X65011248Y-115610057D01*
X65241238Y-115054811D01*
X65575133Y-114555103D01*
X65575134Y-114555101D01*
X66000101Y-114130134D01*
X66251653Y-113962052D01*
X66499811Y-113796238D01*
X67055057Y-113566248D01*
X67644501Y-113449000D01*
X68245499Y-113449000D01*
X68834943Y-113566248D01*
X68834943Y-113566248D01*
G37*
G36*
X58255000Y-118707000D02*
G01*
X56553000Y-118707000D01*
X56553000Y-117005000D01*
X58255000Y-117005000D01*
X58255000Y-118707000D01*
X58255000Y-118707000D01*
G37*
G36*
X42330823Y-117017313D02*
G01*
X42491242Y-117065976D01*
X42623906Y-117136886D01*
X42639078Y-117144996D01*
X42768659Y-117251341D01*
X42875004Y-117380922D01*
X42875005Y-117380924D01*
X42954024Y-117528758D01*
X43002687Y-117689177D01*
X43019117Y-117856000D01*
X43002687Y-118022823D01*
X42954024Y-118183242D01*
X42883114Y-118315906D01*
X42875004Y-118331078D01*
X42768659Y-118460659D01*
X42639078Y-118567004D01*
X42639076Y-118567005D01*
X42491242Y-118646024D01*
X42330823Y-118694687D01*
X42205804Y-118707000D01*
X42122196Y-118707000D01*
X41997177Y-118694687D01*
X41836758Y-118646024D01*
X41688924Y-118567005D01*
X41688922Y-118567004D01*
X41559341Y-118460659D01*
X41452996Y-118331078D01*
X41444886Y-118315906D01*
X41373976Y-118183242D01*
X41325313Y-118022823D01*
X41308883Y-117856000D01*
X41325313Y-117689177D01*
X41373976Y-117528758D01*
X41452995Y-117380924D01*
X41452996Y-117380922D01*
X41559341Y-117251341D01*
X41688922Y-117144996D01*
X41704094Y-117136886D01*
X41836758Y-117065976D01*
X41997177Y-117017313D01*
X42122196Y-117005000D01*
X42205804Y-117005000D01*
X42330823Y-117017313D01*
X42330823Y-117017313D01*
G37*
G36*
X57570823Y-114477313D02*
G01*
X57731242Y-114525976D01*
X57863906Y-114596886D01*
X57879078Y-114604996D01*
X58008659Y-114711341D01*
X58115004Y-114840922D01*
X58115005Y-114840924D01*
X58194024Y-114988758D01*
X58242687Y-115149177D01*
X58259117Y-115316000D01*
X58242687Y-115482823D01*
X58194024Y-115643242D01*
X58123114Y-115775906D01*
X58115004Y-115791078D01*
X58008659Y-115920659D01*
X57879078Y-116027004D01*
X57879076Y-116027005D01*
X57731242Y-116106024D01*
X57570823Y-116154687D01*
X57445804Y-116167000D01*
X57362196Y-116167000D01*
X57237177Y-116154687D01*
X57076758Y-116106024D01*
X56928924Y-116027005D01*
X56928922Y-116027004D01*
X56799341Y-115920659D01*
X56692996Y-115791078D01*
X56684886Y-115775906D01*
X56613976Y-115643242D01*
X56565313Y-115482823D01*
X56548883Y-115316000D01*
X56565313Y-115149177D01*
X56613976Y-114988758D01*
X56692995Y-114840924D01*
X56692996Y-114840922D01*
X56799341Y-114711341D01*
X56928922Y-114604996D01*
X56944094Y-114596886D01*
X57076758Y-114525976D01*
X57237177Y-114477313D01*
X57362196Y-114465000D01*
X57445804Y-114465000D01*
X57570823Y-114477313D01*
X57570823Y-114477313D01*
G37*
G36*
X42330823Y-114477313D02*
G01*
X42491242Y-114525976D01*
X42623906Y-114596886D01*
X42639078Y-114604996D01*
X42768659Y-114711341D01*
X42875004Y-114840922D01*
X42875005Y-114840924D01*
X42954024Y-114988758D01*
X43002687Y-115149177D01*
X43019117Y-115316000D01*
X43002687Y-115482823D01*
X42954024Y-115643242D01*
X42883114Y-115775906D01*
X42875004Y-115791078D01*
X42768659Y-115920659D01*
X42639078Y-116027004D01*
X42639076Y-116027005D01*
X42491242Y-116106024D01*
X42330823Y-116154687D01*
X42205804Y-116167000D01*
X42122196Y-116167000D01*
X41997177Y-116154687D01*
X41836758Y-116106024D01*
X41688924Y-116027005D01*
X41688922Y-116027004D01*
X41559341Y-115920659D01*
X41452996Y-115791078D01*
X41444886Y-115775906D01*
X41373976Y-115643242D01*
X41325313Y-115482823D01*
X41308883Y-115316000D01*
X41325313Y-115149177D01*
X41373976Y-114988758D01*
X41452995Y-114840924D01*
X41452996Y-114840922D01*
X41559341Y-114711341D01*
X41688922Y-114604996D01*
X41704094Y-114596886D01*
X41836758Y-114525976D01*
X41997177Y-114477313D01*
X42122196Y-114465000D01*
X42205804Y-114465000D01*
X42330823Y-114477313D01*
X42330823Y-114477313D01*
G37*
G36*
X52781652Y-108934197D02*
G01*
X53273202Y-109137804D01*
X53273203Y-109137805D01*
X53715587Y-109433396D01*
X54091804Y-109809613D01*
X54147822Y-109893450D01*
X54387396Y-110251998D01*
X54591003Y-110743548D01*
X54694800Y-111265373D01*
X54694800Y-111797427D01*
X54591003Y-112319252D01*
X54387396Y-112810802D01*
X54387395Y-112810803D01*
X54091804Y-113253187D01*
X53715587Y-113629404D01*
X53465902Y-113796238D01*
X53273202Y-113924996D01*
X52781652Y-114128603D01*
X52259827Y-114232400D01*
X51727773Y-114232400D01*
X51205948Y-114128603D01*
X50714398Y-113924996D01*
X50521698Y-113796238D01*
X50272013Y-113629404D01*
X49895796Y-113253187D01*
X49600205Y-112810803D01*
X49600204Y-112810802D01*
X49396597Y-112319252D01*
X49292800Y-111797427D01*
X49292800Y-111265373D01*
X49396597Y-110743548D01*
X49600204Y-110251998D01*
X49839778Y-109893450D01*
X49895796Y-109809613D01*
X50272013Y-109433396D01*
X50714397Y-109137805D01*
X50714398Y-109137804D01*
X51205948Y-108934197D01*
X51727773Y-108830400D01*
X52259827Y-108830400D01*
X52781652Y-108934197D01*
X52781652Y-108934197D01*
G37*
G36*
X42330823Y-111937313D02*
G01*
X42491242Y-111985976D01*
X42594738Y-112041296D01*
X42639078Y-112064996D01*
X42768659Y-112171341D01*
X42875004Y-112300922D01*
X42875005Y-112300924D01*
X42954024Y-112448758D01*
X43002687Y-112609177D01*
X43019117Y-112776000D01*
X43002687Y-112942823D01*
X42954024Y-113103242D01*
X42883114Y-113235906D01*
X42875004Y-113251078D01*
X42768659Y-113380659D01*
X42639078Y-113487004D01*
X42639076Y-113487005D01*
X42491242Y-113566024D01*
X42491239Y-113566025D01*
X42461380Y-113575083D01*
X42330823Y-113614687D01*
X42205804Y-113627000D01*
X42122196Y-113627000D01*
X41997177Y-113614687D01*
X41866620Y-113575083D01*
X41836761Y-113566025D01*
X41836758Y-113566024D01*
X41688924Y-113487005D01*
X41688922Y-113487004D01*
X41559341Y-113380659D01*
X41452996Y-113251078D01*
X41444886Y-113235906D01*
X41373976Y-113103242D01*
X41325313Y-112942823D01*
X41308883Y-112776000D01*
X41325313Y-112609177D01*
X41373976Y-112448758D01*
X41452995Y-112300924D01*
X41452996Y-112300922D01*
X41559341Y-112171341D01*
X41688922Y-112064996D01*
X41733262Y-112041296D01*
X41836758Y-111985976D01*
X41997177Y-111937313D01*
X42122196Y-111925000D01*
X42205804Y-111925000D01*
X42330823Y-111937313D01*
X42330823Y-111937313D01*
G37*
G36*
X57570823Y-111937313D02*
G01*
X57731242Y-111985976D01*
X57834738Y-112041296D01*
X57879078Y-112064996D01*
X58008659Y-112171341D01*
X58115004Y-112300922D01*
X58115005Y-112300924D01*
X58194024Y-112448758D01*
X58242687Y-112609177D01*
X58259117Y-112776000D01*
X58242687Y-112942823D01*
X58194024Y-113103242D01*
X58123114Y-113235906D01*
X58115004Y-113251078D01*
X58008659Y-113380659D01*
X57879078Y-113487004D01*
X57879076Y-113487005D01*
X57731242Y-113566024D01*
X57731239Y-113566025D01*
X57701380Y-113575083D01*
X57570823Y-113614687D01*
X57445804Y-113627000D01*
X57362196Y-113627000D01*
X57237177Y-113614687D01*
X57106620Y-113575083D01*
X57076761Y-113566025D01*
X57076758Y-113566024D01*
X56928924Y-113487005D01*
X56928922Y-113487004D01*
X56799341Y-113380659D01*
X56692996Y-113251078D01*
X56684886Y-113235906D01*
X56613976Y-113103242D01*
X56565313Y-112942823D01*
X56548883Y-112776000D01*
X56565313Y-112609177D01*
X56613976Y-112448758D01*
X56692995Y-112300924D01*
X56692996Y-112300922D01*
X56799341Y-112171341D01*
X56928922Y-112064996D01*
X56973262Y-112041296D01*
X57076758Y-111985976D01*
X57237177Y-111937313D01*
X57362196Y-111925000D01*
X57445804Y-111925000D01*
X57570823Y-111937313D01*
X57570823Y-111937313D01*
G37*
G36*
X76218668Y-112029565D02*
G01*
X76257338Y-112041296D01*
X76292977Y-112060346D01*
X76324217Y-112085983D01*
X76349854Y-112117223D01*
X76368904Y-112152862D01*
X76380635Y-112191532D01*
X76385200Y-112237888D01*
X76385200Y-113314112D01*
X76380635Y-113360468D01*
X76368904Y-113399138D01*
X76349854Y-113434777D01*
X76324217Y-113466017D01*
X76292977Y-113491654D01*
X76257338Y-113510704D01*
X76218668Y-113522435D01*
X76172312Y-113527000D01*
X75521088Y-113527000D01*
X75474732Y-113522435D01*
X75436062Y-113510704D01*
X75400423Y-113491654D01*
X75369183Y-113466017D01*
X75343546Y-113434777D01*
X75324496Y-113399138D01*
X75312765Y-113360468D01*
X75308200Y-113314112D01*
X75308200Y-112237888D01*
X75312765Y-112191532D01*
X75324496Y-112152862D01*
X75343546Y-112117223D01*
X75369183Y-112085983D01*
X75400423Y-112060346D01*
X75436062Y-112041296D01*
X75474732Y-112029565D01*
X75521088Y-112025000D01*
X76172312Y-112025000D01*
X76218668Y-112029565D01*
X76218668Y-112029565D01*
G37*
G36*
X78093668Y-112029565D02*
G01*
X78132338Y-112041296D01*
X78167977Y-112060346D01*
X78199217Y-112085983D01*
X78224854Y-112117223D01*
X78243904Y-112152862D01*
X78255635Y-112191532D01*
X78260200Y-112237888D01*
X78260200Y-113314112D01*
X78255635Y-113360468D01*
X78243904Y-113399138D01*
X78224854Y-113434777D01*
X78199217Y-113466017D01*
X78167977Y-113491654D01*
X78132338Y-113510704D01*
X78093668Y-113522435D01*
X78047312Y-113527000D01*
X77396088Y-113527000D01*
X77349732Y-113522435D01*
X77311062Y-113510704D01*
X77275423Y-113491654D01*
X77244183Y-113466017D01*
X77218546Y-113434777D01*
X77199496Y-113399138D01*
X77187765Y-113360468D01*
X77183200Y-113314112D01*
X77183200Y-112237888D01*
X77187765Y-112191532D01*
X77199496Y-112152862D01*
X77218546Y-112117223D01*
X77244183Y-112085983D01*
X77275423Y-112060346D01*
X77311062Y-112041296D01*
X77349732Y-112029565D01*
X77396088Y-112025000D01*
X78047312Y-112025000D01*
X78093668Y-112029565D01*
X78093668Y-112029565D01*
G37*
G36*
X80676368Y-112029565D02*
G01*
X80715038Y-112041296D01*
X80750677Y-112060346D01*
X80781917Y-112085983D01*
X80807554Y-112117223D01*
X80826604Y-112152862D01*
X80838335Y-112191532D01*
X80842900Y-112237888D01*
X80842900Y-113314112D01*
X80838335Y-113360468D01*
X80826604Y-113399138D01*
X80807554Y-113434777D01*
X80781917Y-113466017D01*
X80750677Y-113491654D01*
X80715038Y-113510704D01*
X80676368Y-113522435D01*
X80630012Y-113527000D01*
X79978788Y-113527000D01*
X79932432Y-113522435D01*
X79893762Y-113510704D01*
X79858123Y-113491654D01*
X79826883Y-113466017D01*
X79801246Y-113434777D01*
X79782196Y-113399138D01*
X79770465Y-113360468D01*
X79765900Y-113314112D01*
X79765900Y-112237888D01*
X79770465Y-112191532D01*
X79782196Y-112152862D01*
X79801246Y-112117223D01*
X79826883Y-112085983D01*
X79858123Y-112060346D01*
X79893762Y-112041296D01*
X79932432Y-112029565D01*
X79978788Y-112025000D01*
X80630012Y-112025000D01*
X80676368Y-112029565D01*
X80676368Y-112029565D01*
G37*
G36*
X82551368Y-112029565D02*
G01*
X82590038Y-112041296D01*
X82625677Y-112060346D01*
X82656917Y-112085983D01*
X82682554Y-112117223D01*
X82701604Y-112152862D01*
X82713335Y-112191532D01*
X82717900Y-112237888D01*
X82717900Y-113314112D01*
X82713335Y-113360468D01*
X82701604Y-113399138D01*
X82682554Y-113434777D01*
X82656917Y-113466017D01*
X82625677Y-113491654D01*
X82590038Y-113510704D01*
X82551368Y-113522435D01*
X82505012Y-113527000D01*
X81853788Y-113527000D01*
X81807432Y-113522435D01*
X81768762Y-113510704D01*
X81733123Y-113491654D01*
X81701883Y-113466017D01*
X81676246Y-113434777D01*
X81657196Y-113399138D01*
X81645465Y-113360468D01*
X81640900Y-113314112D01*
X81640900Y-112237888D01*
X81645465Y-112191532D01*
X81657196Y-112152862D01*
X81676246Y-112117223D01*
X81701883Y-112085983D01*
X81733123Y-112060346D01*
X81768762Y-112041296D01*
X81807432Y-112029565D01*
X81853788Y-112025000D01*
X82505012Y-112025000D01*
X82551368Y-112029565D01*
X82551368Y-112029565D01*
G37*
G36*
X80676368Y-109628765D02*
G01*
X80715038Y-109640496D01*
X80750677Y-109659546D01*
X80781917Y-109685183D01*
X80807554Y-109716423D01*
X80826604Y-109752062D01*
X80838335Y-109790732D01*
X80842900Y-109837088D01*
X80842900Y-110913312D01*
X80838335Y-110959668D01*
X80826604Y-110998338D01*
X80807554Y-111033977D01*
X80781917Y-111065217D01*
X80750677Y-111090854D01*
X80715038Y-111109904D01*
X80676368Y-111121635D01*
X80630012Y-111126200D01*
X79978788Y-111126200D01*
X79932432Y-111121635D01*
X79893762Y-111109904D01*
X79858123Y-111090854D01*
X79826883Y-111065217D01*
X79801246Y-111033977D01*
X79782196Y-110998338D01*
X79770465Y-110959668D01*
X79765900Y-110913312D01*
X79765900Y-109837088D01*
X79770465Y-109790732D01*
X79782196Y-109752062D01*
X79801246Y-109716423D01*
X79826883Y-109685183D01*
X79858123Y-109659546D01*
X79893762Y-109640496D01*
X79932432Y-109628765D01*
X79978788Y-109624200D01*
X80630012Y-109624200D01*
X80676368Y-109628765D01*
X80676368Y-109628765D01*
G37*
G36*
X78093668Y-109628765D02*
G01*
X78132338Y-109640496D01*
X78167977Y-109659546D01*
X78199217Y-109685183D01*
X78224854Y-109716423D01*
X78243904Y-109752062D01*
X78255635Y-109790732D01*
X78260200Y-109837088D01*
X78260200Y-110913312D01*
X78255635Y-110959668D01*
X78243904Y-110998338D01*
X78224854Y-111033977D01*
X78199217Y-111065217D01*
X78167977Y-111090854D01*
X78132338Y-111109904D01*
X78093668Y-111121635D01*
X78047312Y-111126200D01*
X77396088Y-111126200D01*
X77349732Y-111121635D01*
X77311062Y-111109904D01*
X77275423Y-111090854D01*
X77244183Y-111065217D01*
X77218546Y-111033977D01*
X77199496Y-110998338D01*
X77187765Y-110959668D01*
X77183200Y-110913312D01*
X77183200Y-109837088D01*
X77187765Y-109790732D01*
X77199496Y-109752062D01*
X77218546Y-109716423D01*
X77244183Y-109685183D01*
X77275423Y-109659546D01*
X77311062Y-109640496D01*
X77349732Y-109628765D01*
X77396088Y-109624200D01*
X78047312Y-109624200D01*
X78093668Y-109628765D01*
X78093668Y-109628765D01*
G37*
G36*
X76218668Y-109628765D02*
G01*
X76257338Y-109640496D01*
X76292977Y-109659546D01*
X76324217Y-109685183D01*
X76349854Y-109716423D01*
X76368904Y-109752062D01*
X76380635Y-109790732D01*
X76385200Y-109837088D01*
X76385200Y-110913312D01*
X76380635Y-110959668D01*
X76368904Y-110998338D01*
X76349854Y-111033977D01*
X76324217Y-111065217D01*
X76292977Y-111090854D01*
X76257338Y-111109904D01*
X76218668Y-111121635D01*
X76172312Y-111126200D01*
X75521088Y-111126200D01*
X75474732Y-111121635D01*
X75436062Y-111109904D01*
X75400423Y-111090854D01*
X75369183Y-111065217D01*
X75343546Y-111033977D01*
X75324496Y-110998338D01*
X75312765Y-110959668D01*
X75308200Y-110913312D01*
X75308200Y-109837088D01*
X75312765Y-109790732D01*
X75324496Y-109752062D01*
X75343546Y-109716423D01*
X75369183Y-109685183D01*
X75400423Y-109659546D01*
X75436062Y-109640496D01*
X75474732Y-109628765D01*
X75521088Y-109624200D01*
X76172312Y-109624200D01*
X76218668Y-109628765D01*
X76218668Y-109628765D01*
G37*
G36*
X82551368Y-109628765D02*
G01*
X82590038Y-109640496D01*
X82625677Y-109659546D01*
X82656917Y-109685183D01*
X82682554Y-109716423D01*
X82701604Y-109752062D01*
X82713335Y-109790732D01*
X82717900Y-109837088D01*
X82717900Y-110913312D01*
X82713335Y-110959668D01*
X82701604Y-110998338D01*
X82682554Y-111033977D01*
X82656917Y-111065217D01*
X82625677Y-111090854D01*
X82590038Y-111109904D01*
X82551368Y-111121635D01*
X82505012Y-111126200D01*
X81853788Y-111126200D01*
X81807432Y-111121635D01*
X81768762Y-111109904D01*
X81733123Y-111090854D01*
X81701883Y-111065217D01*
X81676246Y-111033977D01*
X81657196Y-110998338D01*
X81645465Y-110959668D01*
X81640900Y-110913312D01*
X81640900Y-109837088D01*
X81645465Y-109790732D01*
X81657196Y-109752062D01*
X81676246Y-109716423D01*
X81701883Y-109685183D01*
X81733123Y-109659546D01*
X81768762Y-109640496D01*
X81807432Y-109628765D01*
X81853788Y-109624200D01*
X82505012Y-109624200D01*
X82551368Y-109628765D01*
X82551368Y-109628765D01*
G37*
G36*
X42330823Y-109397313D02*
G01*
X42491242Y-109445976D01*
X42623906Y-109516886D01*
X42639078Y-109524996D01*
X42768659Y-109631341D01*
X42875004Y-109760922D01*
X42875005Y-109760924D01*
X42954024Y-109908758D01*
X43002687Y-110069177D01*
X43019117Y-110236000D01*
X43002687Y-110402823D01*
X42954024Y-110563242D01*
X42883114Y-110695906D01*
X42875004Y-110711078D01*
X42768659Y-110840659D01*
X42639078Y-110947004D01*
X42639076Y-110947005D01*
X42491242Y-111026024D01*
X42330823Y-111074687D01*
X42205804Y-111087000D01*
X42122196Y-111087000D01*
X41997177Y-111074687D01*
X41836758Y-111026024D01*
X41688924Y-110947005D01*
X41688922Y-110947004D01*
X41559341Y-110840659D01*
X41452996Y-110711078D01*
X41444886Y-110695906D01*
X41373976Y-110563242D01*
X41325313Y-110402823D01*
X41308883Y-110236000D01*
X41325313Y-110069177D01*
X41373976Y-109908758D01*
X41452995Y-109760924D01*
X41452996Y-109760922D01*
X41559341Y-109631341D01*
X41688922Y-109524996D01*
X41704094Y-109516886D01*
X41836758Y-109445976D01*
X41997177Y-109397313D01*
X42122196Y-109385000D01*
X42205804Y-109385000D01*
X42330823Y-109397313D01*
X42330823Y-109397313D01*
G37*
G36*
X57570823Y-109397313D02*
G01*
X57731242Y-109445976D01*
X57863906Y-109516886D01*
X57879078Y-109524996D01*
X58008659Y-109631341D01*
X58115004Y-109760922D01*
X58115005Y-109760924D01*
X58194024Y-109908758D01*
X58242687Y-110069177D01*
X58259117Y-110236000D01*
X58242687Y-110402823D01*
X58194024Y-110563242D01*
X58123114Y-110695906D01*
X58115004Y-110711078D01*
X58008659Y-110840659D01*
X57879078Y-110947004D01*
X57879076Y-110947005D01*
X57731242Y-111026024D01*
X57570823Y-111074687D01*
X57445804Y-111087000D01*
X57362196Y-111087000D01*
X57237177Y-111074687D01*
X57076758Y-111026024D01*
X56928924Y-110947005D01*
X56928922Y-110947004D01*
X56799341Y-110840659D01*
X56692996Y-110711078D01*
X56684886Y-110695906D01*
X56613976Y-110563242D01*
X56565313Y-110402823D01*
X56548883Y-110236000D01*
X56565313Y-110069177D01*
X56613976Y-109908758D01*
X56692995Y-109760924D01*
X56692996Y-109760922D01*
X56799341Y-109631341D01*
X56928922Y-109524996D01*
X56944094Y-109516886D01*
X57076758Y-109445976D01*
X57237177Y-109397313D01*
X57362196Y-109385000D01*
X57445804Y-109385000D01*
X57570823Y-109397313D01*
X57570823Y-109397313D01*
G37*
G36*
X76218668Y-107215765D02*
G01*
X76257338Y-107227496D01*
X76292977Y-107246546D01*
X76324217Y-107272183D01*
X76349854Y-107303423D01*
X76368904Y-107339062D01*
X76380635Y-107377732D01*
X76385200Y-107424088D01*
X76385200Y-108500312D01*
X76380635Y-108546668D01*
X76368904Y-108585338D01*
X76349854Y-108620977D01*
X76324217Y-108652217D01*
X76292977Y-108677854D01*
X76257338Y-108696904D01*
X76218668Y-108708635D01*
X76172312Y-108713200D01*
X75521088Y-108713200D01*
X75474732Y-108708635D01*
X75436062Y-108696904D01*
X75400423Y-108677854D01*
X75369183Y-108652217D01*
X75343546Y-108620977D01*
X75324496Y-108585338D01*
X75312765Y-108546668D01*
X75308200Y-108500312D01*
X75308200Y-107424088D01*
X75312765Y-107377732D01*
X75324496Y-107339062D01*
X75343546Y-107303423D01*
X75369183Y-107272183D01*
X75400423Y-107246546D01*
X75436062Y-107227496D01*
X75474732Y-107215765D01*
X75521088Y-107211200D01*
X76172312Y-107211200D01*
X76218668Y-107215765D01*
X76218668Y-107215765D01*
G37*
G36*
X78093668Y-107215765D02*
G01*
X78132338Y-107227496D01*
X78167977Y-107246546D01*
X78199217Y-107272183D01*
X78224854Y-107303423D01*
X78243904Y-107339062D01*
X78255635Y-107377732D01*
X78260200Y-107424088D01*
X78260200Y-108500312D01*
X78255635Y-108546668D01*
X78243904Y-108585338D01*
X78224854Y-108620977D01*
X78199217Y-108652217D01*
X78167977Y-108677854D01*
X78132338Y-108696904D01*
X78093668Y-108708635D01*
X78047312Y-108713200D01*
X77396088Y-108713200D01*
X77349732Y-108708635D01*
X77311062Y-108696904D01*
X77275423Y-108677854D01*
X77244183Y-108652217D01*
X77218546Y-108620977D01*
X77199496Y-108585338D01*
X77187765Y-108546668D01*
X77183200Y-108500312D01*
X77183200Y-107424088D01*
X77187765Y-107377732D01*
X77199496Y-107339062D01*
X77218546Y-107303423D01*
X77244183Y-107272183D01*
X77275423Y-107246546D01*
X77311062Y-107227496D01*
X77349732Y-107215765D01*
X77396088Y-107211200D01*
X78047312Y-107211200D01*
X78093668Y-107215765D01*
X78093668Y-107215765D01*
G37*
G36*
X82551368Y-107215765D02*
G01*
X82590038Y-107227496D01*
X82625677Y-107246546D01*
X82656917Y-107272183D01*
X82682554Y-107303423D01*
X82701604Y-107339062D01*
X82713335Y-107377732D01*
X82717900Y-107424088D01*
X82717900Y-108500312D01*
X82713335Y-108546668D01*
X82701604Y-108585338D01*
X82682554Y-108620977D01*
X82656917Y-108652217D01*
X82625677Y-108677854D01*
X82590038Y-108696904D01*
X82551368Y-108708635D01*
X82505012Y-108713200D01*
X81853788Y-108713200D01*
X81807432Y-108708635D01*
X81768762Y-108696904D01*
X81733123Y-108677854D01*
X81701883Y-108652217D01*
X81676246Y-108620977D01*
X81657196Y-108585338D01*
X81645465Y-108546668D01*
X81640900Y-108500312D01*
X81640900Y-107424088D01*
X81645465Y-107377732D01*
X81657196Y-107339062D01*
X81676246Y-107303423D01*
X81701883Y-107272183D01*
X81733123Y-107246546D01*
X81768762Y-107227496D01*
X81807432Y-107215765D01*
X81853788Y-107211200D01*
X82505012Y-107211200D01*
X82551368Y-107215765D01*
X82551368Y-107215765D01*
G37*
G36*
X80676368Y-107215765D02*
G01*
X80715038Y-107227496D01*
X80750677Y-107246546D01*
X80781917Y-107272183D01*
X80807554Y-107303423D01*
X80826604Y-107339062D01*
X80838335Y-107377732D01*
X80842900Y-107424088D01*
X80842900Y-108500312D01*
X80838335Y-108546668D01*
X80826604Y-108585338D01*
X80807554Y-108620977D01*
X80781917Y-108652217D01*
X80750677Y-108677854D01*
X80715038Y-108696904D01*
X80676368Y-108708635D01*
X80630012Y-108713200D01*
X79978788Y-108713200D01*
X79932432Y-108708635D01*
X79893762Y-108696904D01*
X79858123Y-108677854D01*
X79826883Y-108652217D01*
X79801246Y-108620977D01*
X79782196Y-108585338D01*
X79770465Y-108546668D01*
X79765900Y-108500312D01*
X79765900Y-107424088D01*
X79770465Y-107377732D01*
X79782196Y-107339062D01*
X79801246Y-107303423D01*
X79826883Y-107272183D01*
X79858123Y-107246546D01*
X79893762Y-107227496D01*
X79932432Y-107215765D01*
X79978788Y-107211200D01*
X80630012Y-107211200D01*
X80676368Y-107215765D01*
X80676368Y-107215765D01*
G37*
G36*
X42330823Y-106857313D02*
G01*
X42491242Y-106905976D01*
X42623906Y-106976886D01*
X42639078Y-106984996D01*
X42768659Y-107091341D01*
X42875004Y-107220922D01*
X42875005Y-107220924D01*
X42954024Y-107368758D01*
X43002687Y-107529177D01*
X43019117Y-107696000D01*
X43002687Y-107862823D01*
X42954024Y-108023242D01*
X42883114Y-108155906D01*
X42875004Y-108171078D01*
X42768659Y-108300659D01*
X42639078Y-108407004D01*
X42639076Y-108407005D01*
X42491242Y-108486024D01*
X42330823Y-108534687D01*
X42205804Y-108547000D01*
X42122196Y-108547000D01*
X41997177Y-108534687D01*
X41836758Y-108486024D01*
X41688924Y-108407005D01*
X41688922Y-108407004D01*
X41559341Y-108300659D01*
X41452996Y-108171078D01*
X41444886Y-108155906D01*
X41373976Y-108023242D01*
X41325313Y-107862823D01*
X41308883Y-107696000D01*
X41325313Y-107529177D01*
X41373976Y-107368758D01*
X41452995Y-107220924D01*
X41452996Y-107220922D01*
X41559341Y-107091341D01*
X41688922Y-106984996D01*
X41704094Y-106976886D01*
X41836758Y-106905976D01*
X41997177Y-106857313D01*
X42122196Y-106845000D01*
X42205804Y-106845000D01*
X42330823Y-106857313D01*
X42330823Y-106857313D01*
G37*
G36*
X57570823Y-106857313D02*
G01*
X57731242Y-106905976D01*
X57863906Y-106976886D01*
X57879078Y-106984996D01*
X58008659Y-107091341D01*
X58115004Y-107220922D01*
X58115005Y-107220924D01*
X58194024Y-107368758D01*
X58242687Y-107529177D01*
X58259117Y-107696000D01*
X58242687Y-107862823D01*
X58194024Y-108023242D01*
X58123114Y-108155906D01*
X58115004Y-108171078D01*
X58008659Y-108300659D01*
X57879078Y-108407004D01*
X57879076Y-108407005D01*
X57731242Y-108486024D01*
X57570823Y-108534687D01*
X57445804Y-108547000D01*
X57362196Y-108547000D01*
X57237177Y-108534687D01*
X57076758Y-108486024D01*
X56928924Y-108407005D01*
X56928922Y-108407004D01*
X56799341Y-108300659D01*
X56692996Y-108171078D01*
X56684886Y-108155906D01*
X56613976Y-108023242D01*
X56565313Y-107862823D01*
X56548883Y-107696000D01*
X56565313Y-107529177D01*
X56613976Y-107368758D01*
X56692995Y-107220924D01*
X56692996Y-107220922D01*
X56799341Y-107091341D01*
X56928922Y-106984996D01*
X56944094Y-106976886D01*
X57076758Y-106905976D01*
X57237177Y-106857313D01*
X57362196Y-106845000D01*
X57445804Y-106845000D01*
X57570823Y-106857313D01*
X57570823Y-106857313D01*
G37*
G36*
X42330823Y-104317313D02*
G01*
X42491242Y-104365976D01*
X42623906Y-104436886D01*
X42639078Y-104444996D01*
X42768659Y-104551341D01*
X42875004Y-104680922D01*
X42875005Y-104680924D01*
X42954024Y-104828758D01*
X43002687Y-104989177D01*
X43019117Y-105156000D01*
X43002687Y-105322823D01*
X42954024Y-105483242D01*
X42883114Y-105615906D01*
X42875004Y-105631078D01*
X42768659Y-105760659D01*
X42639078Y-105867004D01*
X42639076Y-105867005D01*
X42491242Y-105946024D01*
X42330823Y-105994687D01*
X42205804Y-106007000D01*
X42122196Y-106007000D01*
X41997177Y-105994687D01*
X41836758Y-105946024D01*
X41688924Y-105867005D01*
X41688922Y-105867004D01*
X41559341Y-105760659D01*
X41452996Y-105631078D01*
X41444886Y-105615906D01*
X41373976Y-105483242D01*
X41325313Y-105322823D01*
X41308883Y-105156000D01*
X41325313Y-104989177D01*
X41373976Y-104828758D01*
X41452995Y-104680924D01*
X41452996Y-104680922D01*
X41559341Y-104551341D01*
X41688922Y-104444996D01*
X41704094Y-104436886D01*
X41836758Y-104365976D01*
X41997177Y-104317313D01*
X42122196Y-104305000D01*
X42205804Y-104305000D01*
X42330823Y-104317313D01*
X42330823Y-104317313D01*
G37*
G36*
X57570823Y-104317313D02*
G01*
X57731242Y-104365976D01*
X57863906Y-104436886D01*
X57879078Y-104444996D01*
X58008659Y-104551341D01*
X58115004Y-104680922D01*
X58115005Y-104680924D01*
X58194024Y-104828758D01*
X58242687Y-104989177D01*
X58259117Y-105156000D01*
X58242687Y-105322823D01*
X58194024Y-105483242D01*
X58123114Y-105615906D01*
X58115004Y-105631078D01*
X58008659Y-105760659D01*
X57879078Y-105867004D01*
X57879076Y-105867005D01*
X57731242Y-105946024D01*
X57570823Y-105994687D01*
X57445804Y-106007000D01*
X57362196Y-106007000D01*
X57237177Y-105994687D01*
X57076758Y-105946024D01*
X56928924Y-105867005D01*
X56928922Y-105867004D01*
X56799341Y-105760659D01*
X56692996Y-105631078D01*
X56684886Y-105615906D01*
X56613976Y-105483242D01*
X56565313Y-105322823D01*
X56548883Y-105156000D01*
X56565313Y-104989177D01*
X56613976Y-104828758D01*
X56692995Y-104680924D01*
X56692996Y-104680922D01*
X56799341Y-104551341D01*
X56928922Y-104444996D01*
X56944094Y-104436886D01*
X57076758Y-104365976D01*
X57237177Y-104317313D01*
X57362196Y-104305000D01*
X57445804Y-104305000D01*
X57570823Y-104317313D01*
X57570823Y-104317313D01*
G37*
G36*
X42330823Y-101777313D02*
G01*
X42491242Y-101825976D01*
X42586063Y-101876659D01*
X42639078Y-101904996D01*
X42768659Y-102011341D01*
X42875004Y-102140922D01*
X42875005Y-102140924D01*
X42954024Y-102288758D01*
X43002687Y-102449177D01*
X43019117Y-102616000D01*
X43002687Y-102782823D01*
X42954024Y-102943242D01*
X42895297Y-103053112D01*
X42875004Y-103091078D01*
X42768659Y-103220659D01*
X42639078Y-103327004D01*
X42639076Y-103327005D01*
X42491242Y-103406024D01*
X42330823Y-103454687D01*
X42205804Y-103467000D01*
X42122196Y-103467000D01*
X41997177Y-103454687D01*
X41836758Y-103406024D01*
X41688924Y-103327005D01*
X41688922Y-103327004D01*
X41559341Y-103220659D01*
X41452996Y-103091078D01*
X41432703Y-103053112D01*
X41373976Y-102943242D01*
X41325313Y-102782823D01*
X41308883Y-102616000D01*
X41325313Y-102449177D01*
X41373976Y-102288758D01*
X41452995Y-102140924D01*
X41452996Y-102140922D01*
X41559341Y-102011341D01*
X41688922Y-101904996D01*
X41741937Y-101876659D01*
X41836758Y-101825976D01*
X41997177Y-101777313D01*
X42122196Y-101765000D01*
X42205804Y-101765000D01*
X42330823Y-101777313D01*
X42330823Y-101777313D01*
G37*
G36*
X57570823Y-101777313D02*
G01*
X57731242Y-101825976D01*
X57826063Y-101876659D01*
X57879078Y-101904996D01*
X58008659Y-102011341D01*
X58115004Y-102140922D01*
X58115005Y-102140924D01*
X58194024Y-102288758D01*
X58242687Y-102449177D01*
X58259117Y-102616000D01*
X58242687Y-102782823D01*
X58194024Y-102943242D01*
X58135297Y-103053112D01*
X58115004Y-103091078D01*
X58008659Y-103220659D01*
X57879078Y-103327004D01*
X57879076Y-103327005D01*
X57731242Y-103406024D01*
X57570823Y-103454687D01*
X57445804Y-103467000D01*
X57362196Y-103467000D01*
X57237177Y-103454687D01*
X57076758Y-103406024D01*
X56928924Y-103327005D01*
X56928922Y-103327004D01*
X56799341Y-103220659D01*
X56692996Y-103091078D01*
X56672703Y-103053112D01*
X56613976Y-102943242D01*
X56565313Y-102782823D01*
X56548883Y-102616000D01*
X56565313Y-102449177D01*
X56613976Y-102288758D01*
X56692995Y-102140924D01*
X56692996Y-102140922D01*
X56799341Y-102011341D01*
X56928922Y-101904996D01*
X56981937Y-101876659D01*
X57076758Y-101825976D01*
X57237177Y-101777313D01*
X57362196Y-101765000D01*
X57445804Y-101765000D01*
X57570823Y-101777313D01*
X57570823Y-101777313D01*
G37*
G36*
X80530968Y-102193565D02*
G01*
X80569638Y-102205296D01*
X80605277Y-102224346D01*
X80636517Y-102249983D01*
X80662154Y-102281223D01*
X80681204Y-102316862D01*
X80692935Y-102355532D01*
X80697500Y-102401888D01*
X80697500Y-103053112D01*
X80692935Y-103099468D01*
X80681204Y-103138138D01*
X80662154Y-103173777D01*
X80636517Y-103205017D01*
X80605277Y-103230654D01*
X80569638Y-103249704D01*
X80530968Y-103261435D01*
X80484612Y-103266000D01*
X79408388Y-103266000D01*
X79362032Y-103261435D01*
X79323362Y-103249704D01*
X79287723Y-103230654D01*
X79256483Y-103205017D01*
X79230846Y-103173777D01*
X79211796Y-103138138D01*
X79200065Y-103099468D01*
X79195500Y-103053112D01*
X79195500Y-102401888D01*
X79200065Y-102355532D01*
X79211796Y-102316862D01*
X79230846Y-102281223D01*
X79256483Y-102249983D01*
X79287723Y-102224346D01*
X79323362Y-102205296D01*
X79362032Y-102193565D01*
X79408388Y-102189000D01*
X80484612Y-102189000D01*
X80530968Y-102193565D01*
X80530968Y-102193565D01*
G37*
G36*
X83058268Y-102155965D02*
G01*
X83096938Y-102167696D01*
X83132577Y-102186746D01*
X83163817Y-102212383D01*
X83189454Y-102243623D01*
X83208504Y-102279262D01*
X83220235Y-102317932D01*
X83224800Y-102364288D01*
X83224800Y-103015512D01*
X83220235Y-103061868D01*
X83208504Y-103100538D01*
X83189454Y-103136177D01*
X83163817Y-103167417D01*
X83132577Y-103193054D01*
X83096938Y-103212104D01*
X83058268Y-103223835D01*
X83011912Y-103228400D01*
X81935688Y-103228400D01*
X81889332Y-103223835D01*
X81850662Y-103212104D01*
X81815023Y-103193054D01*
X81783783Y-103167417D01*
X81758146Y-103136177D01*
X81739096Y-103100538D01*
X81727365Y-103061868D01*
X81722800Y-103015512D01*
X81722800Y-102364288D01*
X81727365Y-102317932D01*
X81739096Y-102279262D01*
X81758146Y-102243623D01*
X81783783Y-102212383D01*
X81815023Y-102186746D01*
X81850662Y-102167696D01*
X81889332Y-102155965D01*
X81935688Y-102151400D01*
X83011912Y-102151400D01*
X83058268Y-102155965D01*
X83058268Y-102155965D01*
G37*
G36*
X61941059Y-101737860D02*
G01*
X62077732Y-101794472D01*
X62200735Y-101876660D01*
X62305340Y-101981265D01*
X62305341Y-101981267D01*
X62387529Y-102104270D01*
X62444140Y-102240941D01*
X62473000Y-102386032D01*
X62473000Y-102533968D01*
X62444140Y-102679059D01*
X62401160Y-102782823D01*
X62387528Y-102815732D01*
X62305340Y-102938735D01*
X62200735Y-103043340D01*
X62077732Y-103125528D01*
X62077731Y-103125529D01*
X62077730Y-103125529D01*
X61941059Y-103182140D01*
X61795968Y-103211000D01*
X61648032Y-103211000D01*
X61502941Y-103182140D01*
X61366270Y-103125529D01*
X61366269Y-103125529D01*
X61366268Y-103125528D01*
X61243265Y-103043340D01*
X61138660Y-102938735D01*
X61056472Y-102815732D01*
X61042841Y-102782823D01*
X60999860Y-102679059D01*
X60971000Y-102533968D01*
X60971000Y-102386032D01*
X60999860Y-102240941D01*
X61056471Y-102104270D01*
X61138659Y-101981267D01*
X61138660Y-101981265D01*
X61243265Y-101876660D01*
X61366268Y-101794472D01*
X61502941Y-101737860D01*
X61648032Y-101709000D01*
X61795968Y-101709000D01*
X61941059Y-101737860D01*
X61941059Y-101737860D01*
G37*
G36*
X74541059Y-101737860D02*
G01*
X74677732Y-101794472D01*
X74800735Y-101876660D01*
X74905340Y-101981265D01*
X74905341Y-101981267D01*
X74987529Y-102104270D01*
X75044140Y-102240941D01*
X75073000Y-102386032D01*
X75073000Y-102533968D01*
X75044140Y-102679059D01*
X75001160Y-102782823D01*
X74987528Y-102815732D01*
X74905340Y-102938735D01*
X74800735Y-103043340D01*
X74677732Y-103125528D01*
X74677731Y-103125529D01*
X74677730Y-103125529D01*
X74541059Y-103182140D01*
X74395968Y-103211000D01*
X74248032Y-103211000D01*
X74102941Y-103182140D01*
X73966270Y-103125529D01*
X73966269Y-103125529D01*
X73966268Y-103125528D01*
X73843265Y-103043340D01*
X73738660Y-102938735D01*
X73656472Y-102815732D01*
X73642841Y-102782823D01*
X73599860Y-102679059D01*
X73571000Y-102533968D01*
X73571000Y-102386032D01*
X73599860Y-102240941D01*
X73656471Y-102104270D01*
X73738659Y-101981267D01*
X73738660Y-101981265D01*
X73843265Y-101876660D01*
X73966268Y-101794472D01*
X74102941Y-101737860D01*
X74248032Y-101709000D01*
X74395968Y-101709000D01*
X74541059Y-101737860D01*
X74541059Y-101737860D01*
G37*
G36*
X61941059Y-99957860D02*
G01*
X62077732Y-100014472D01*
X62200735Y-100096660D01*
X62305340Y-100201265D01*
X62387528Y-100324268D01*
X62387529Y-100324270D01*
X62444140Y-100460941D01*
X62473000Y-100606032D01*
X62473000Y-100753968D01*
X62450711Y-100866024D01*
X62444140Y-100899059D01*
X62387528Y-101035732D01*
X62305340Y-101158735D01*
X62200735Y-101263340D01*
X62077732Y-101345528D01*
X62077731Y-101345529D01*
X62077730Y-101345529D01*
X61941059Y-101402140D01*
X61795968Y-101431000D01*
X61648032Y-101431000D01*
X61502941Y-101402140D01*
X61366270Y-101345529D01*
X61366269Y-101345529D01*
X61366268Y-101345528D01*
X61243265Y-101263340D01*
X61138660Y-101158735D01*
X61056472Y-101035732D01*
X60999860Y-100899059D01*
X60993289Y-100866024D01*
X60971000Y-100753968D01*
X60971000Y-100606032D01*
X60999860Y-100460941D01*
X61056471Y-100324270D01*
X61056472Y-100324268D01*
X61138660Y-100201265D01*
X61243265Y-100096660D01*
X61366268Y-100014472D01*
X61502941Y-99957860D01*
X61648032Y-99929000D01*
X61795968Y-99929000D01*
X61941059Y-99957860D01*
X61941059Y-99957860D01*
G37*
G36*
X74541059Y-99957860D02*
G01*
X74677732Y-100014472D01*
X74800735Y-100096660D01*
X74905340Y-100201265D01*
X74987528Y-100324268D01*
X74987529Y-100324270D01*
X75044140Y-100460941D01*
X75073000Y-100606032D01*
X75073000Y-100753968D01*
X75050711Y-100866024D01*
X75044140Y-100899059D01*
X74987528Y-101035732D01*
X74905340Y-101158735D01*
X74800735Y-101263340D01*
X74677732Y-101345528D01*
X74677731Y-101345529D01*
X74677730Y-101345529D01*
X74541059Y-101402140D01*
X74395968Y-101431000D01*
X74248032Y-101431000D01*
X74102941Y-101402140D01*
X73966270Y-101345529D01*
X73966269Y-101345529D01*
X73966268Y-101345528D01*
X73843265Y-101263340D01*
X73738660Y-101158735D01*
X73656472Y-101035732D01*
X73599860Y-100899059D01*
X73593289Y-100866024D01*
X73571000Y-100753968D01*
X73571000Y-100606032D01*
X73599860Y-100460941D01*
X73656471Y-100324270D01*
X73656472Y-100324268D01*
X73738660Y-100201265D01*
X73843265Y-100096660D01*
X73966268Y-100014472D01*
X74102941Y-99957860D01*
X74248032Y-99929000D01*
X74395968Y-99929000D01*
X74541059Y-99957860D01*
X74541059Y-99957860D01*
G37*
G36*
X80530968Y-100318565D02*
G01*
X80569638Y-100330296D01*
X80605277Y-100349346D01*
X80636517Y-100374983D01*
X80662154Y-100406223D01*
X80681204Y-100441862D01*
X80692935Y-100480532D01*
X80697500Y-100526888D01*
X80697500Y-101178112D01*
X80692935Y-101224468D01*
X80681204Y-101263138D01*
X80662154Y-101298777D01*
X80636517Y-101330017D01*
X80605277Y-101355654D01*
X80569638Y-101374704D01*
X80530968Y-101386435D01*
X80484612Y-101391000D01*
X79408388Y-101391000D01*
X79362032Y-101386435D01*
X79323362Y-101374704D01*
X79287723Y-101355654D01*
X79256483Y-101330017D01*
X79230846Y-101298777D01*
X79211796Y-101263138D01*
X79200065Y-101224468D01*
X79195500Y-101178112D01*
X79195500Y-100526888D01*
X79200065Y-100480532D01*
X79211796Y-100441862D01*
X79230846Y-100406223D01*
X79256483Y-100374983D01*
X79287723Y-100349346D01*
X79323362Y-100330296D01*
X79362032Y-100318565D01*
X79408388Y-100314000D01*
X80484612Y-100314000D01*
X80530968Y-100318565D01*
X80530968Y-100318565D01*
G37*
G36*
X83058268Y-100280965D02*
G01*
X83096938Y-100292696D01*
X83132577Y-100311746D01*
X83163817Y-100337383D01*
X83189454Y-100368623D01*
X83208504Y-100404262D01*
X83220235Y-100442932D01*
X83224800Y-100489288D01*
X83224800Y-101140512D01*
X83220235Y-101186868D01*
X83208504Y-101225538D01*
X83189454Y-101261177D01*
X83163817Y-101292417D01*
X83132577Y-101318054D01*
X83096938Y-101337104D01*
X83058268Y-101348835D01*
X83011912Y-101353400D01*
X81935688Y-101353400D01*
X81889332Y-101348835D01*
X81850662Y-101337104D01*
X81815023Y-101318054D01*
X81783783Y-101292417D01*
X81758146Y-101261177D01*
X81739096Y-101225538D01*
X81727365Y-101186868D01*
X81722800Y-101140512D01*
X81722800Y-100489288D01*
X81727365Y-100442932D01*
X81739096Y-100404262D01*
X81758146Y-100368623D01*
X81783783Y-100337383D01*
X81815023Y-100311746D01*
X81850662Y-100292696D01*
X81889332Y-100280965D01*
X81935688Y-100276400D01*
X83011912Y-100276400D01*
X83058268Y-100280965D01*
X83058268Y-100280965D01*
G37*
G36*
X57570823Y-99237313D02*
G01*
X57731242Y-99285976D01*
X57863906Y-99356886D01*
X57879078Y-99364996D01*
X58008659Y-99471341D01*
X58115004Y-99600922D01*
X58115005Y-99600924D01*
X58194024Y-99748758D01*
X58242687Y-99909177D01*
X58259117Y-100076000D01*
X58242687Y-100242823D01*
X58194024Y-100403242D01*
X58148031Y-100489288D01*
X58115004Y-100551078D01*
X58008659Y-100680659D01*
X57879078Y-100787004D01*
X57879076Y-100787005D01*
X57731242Y-100866024D01*
X57570823Y-100914687D01*
X57445804Y-100927000D01*
X57362196Y-100927000D01*
X57237177Y-100914687D01*
X57076758Y-100866024D01*
X56928924Y-100787005D01*
X56928922Y-100787004D01*
X56799341Y-100680659D01*
X56692996Y-100551078D01*
X56659969Y-100489288D01*
X56613976Y-100403242D01*
X56565313Y-100242823D01*
X56548883Y-100076000D01*
X56565313Y-99909177D01*
X56613976Y-99748758D01*
X56692995Y-99600924D01*
X56692996Y-99600922D01*
X56799341Y-99471341D01*
X56928922Y-99364996D01*
X56944094Y-99356886D01*
X57076758Y-99285976D01*
X57237177Y-99237313D01*
X57362196Y-99225000D01*
X57445804Y-99225000D01*
X57570823Y-99237313D01*
X57570823Y-99237313D01*
G37*
G36*
X42330823Y-99237313D02*
G01*
X42491242Y-99285976D01*
X42623906Y-99356886D01*
X42639078Y-99364996D01*
X42768659Y-99471341D01*
X42875004Y-99600922D01*
X42875005Y-99600924D01*
X42954024Y-99748758D01*
X43002687Y-99909177D01*
X43019117Y-100076000D01*
X43002687Y-100242823D01*
X42954024Y-100403242D01*
X42908031Y-100489288D01*
X42875004Y-100551078D01*
X42768659Y-100680659D01*
X42639078Y-100787004D01*
X42639076Y-100787005D01*
X42491242Y-100866024D01*
X42330823Y-100914687D01*
X42205804Y-100927000D01*
X42122196Y-100927000D01*
X41997177Y-100914687D01*
X41836758Y-100866024D01*
X41688924Y-100787005D01*
X41688922Y-100787004D01*
X41559341Y-100680659D01*
X41452996Y-100551078D01*
X41419969Y-100489288D01*
X41373976Y-100403242D01*
X41325313Y-100242823D01*
X41308883Y-100076000D01*
X41325313Y-99909177D01*
X41373976Y-99748758D01*
X41452995Y-99600924D01*
X41452996Y-99600922D01*
X41559341Y-99471341D01*
X41688922Y-99364996D01*
X41704094Y-99356886D01*
X41836758Y-99285976D01*
X41997177Y-99237313D01*
X42122196Y-99225000D01*
X42205804Y-99225000D01*
X42330823Y-99237313D01*
X42330823Y-99237313D01*
G37*
G36*
X61941059Y-98177860D02*
G01*
X62077732Y-98234472D01*
X62200735Y-98316660D01*
X62305340Y-98421265D01*
X62305341Y-98421267D01*
X62387529Y-98544270D01*
X62444140Y-98680941D01*
X62473000Y-98826032D01*
X62473000Y-98973968D01*
X62444140Y-99119059D01*
X62395158Y-99237313D01*
X62387528Y-99255732D01*
X62305340Y-99378735D01*
X62200735Y-99483340D01*
X62077732Y-99565528D01*
X62077731Y-99565529D01*
X62077730Y-99565529D01*
X61941059Y-99622140D01*
X61795968Y-99651000D01*
X61648032Y-99651000D01*
X61502941Y-99622140D01*
X61366270Y-99565529D01*
X61366269Y-99565529D01*
X61366268Y-99565528D01*
X61243265Y-99483340D01*
X61138660Y-99378735D01*
X61056472Y-99255732D01*
X61048843Y-99237313D01*
X60999860Y-99119059D01*
X60971000Y-98973968D01*
X60971000Y-98826032D01*
X60999860Y-98680941D01*
X61056471Y-98544270D01*
X61138659Y-98421267D01*
X61138660Y-98421265D01*
X61243265Y-98316660D01*
X61366268Y-98234472D01*
X61502941Y-98177860D01*
X61648032Y-98149000D01*
X61795968Y-98149000D01*
X61941059Y-98177860D01*
X61941059Y-98177860D01*
G37*
G36*
X74541059Y-98177860D02*
G01*
X74677732Y-98234472D01*
X74800735Y-98316660D01*
X74905340Y-98421265D01*
X74905341Y-98421267D01*
X74987529Y-98544270D01*
X75044140Y-98680941D01*
X75073000Y-98826032D01*
X75073000Y-98973968D01*
X75044140Y-99119059D01*
X74995158Y-99237313D01*
X74987528Y-99255732D01*
X74905340Y-99378735D01*
X74800735Y-99483340D01*
X74677732Y-99565528D01*
X74677731Y-99565529D01*
X74677730Y-99565529D01*
X74541059Y-99622140D01*
X74395968Y-99651000D01*
X74248032Y-99651000D01*
X74102941Y-99622140D01*
X73966270Y-99565529D01*
X73966269Y-99565529D01*
X73966268Y-99565528D01*
X73843265Y-99483340D01*
X73738660Y-99378735D01*
X73656472Y-99255732D01*
X73648843Y-99237313D01*
X73599860Y-99119059D01*
X73571000Y-98973968D01*
X73571000Y-98826032D01*
X73599860Y-98680941D01*
X73656471Y-98544270D01*
X73738659Y-98421267D01*
X73738660Y-98421265D01*
X73843265Y-98316660D01*
X73966268Y-98234472D01*
X74102941Y-98177860D01*
X74248032Y-98149000D01*
X74395968Y-98149000D01*
X74541059Y-98177860D01*
X74541059Y-98177860D01*
G37*
G36*
X42330823Y-96697313D02*
G01*
X42491242Y-96745976D01*
X42623906Y-96816886D01*
X42639078Y-96824996D01*
X42768659Y-96931341D01*
X42875004Y-97060922D01*
X42875005Y-97060924D01*
X42954024Y-97208758D01*
X43002687Y-97369177D01*
X43019117Y-97536000D01*
X43002687Y-97702823D01*
X42954024Y-97863242D01*
X42949877Y-97871000D01*
X42875004Y-98011078D01*
X42768659Y-98140659D01*
X42639078Y-98247004D01*
X42639076Y-98247005D01*
X42491242Y-98326024D01*
X42330823Y-98374687D01*
X42205804Y-98387000D01*
X42122196Y-98387000D01*
X41997177Y-98374687D01*
X41836758Y-98326024D01*
X41688924Y-98247005D01*
X41688922Y-98247004D01*
X41559341Y-98140659D01*
X41452996Y-98011078D01*
X41378123Y-97871000D01*
X41373976Y-97863242D01*
X41325313Y-97702823D01*
X41308883Y-97536000D01*
X41325313Y-97369177D01*
X41373976Y-97208758D01*
X41452995Y-97060924D01*
X41452996Y-97060922D01*
X41559341Y-96931341D01*
X41688922Y-96824996D01*
X41704094Y-96816886D01*
X41836758Y-96745976D01*
X41997177Y-96697313D01*
X42122196Y-96685000D01*
X42205804Y-96685000D01*
X42330823Y-96697313D01*
X42330823Y-96697313D01*
G37*
G36*
X57570823Y-96697313D02*
G01*
X57731242Y-96745976D01*
X57863906Y-96816886D01*
X57879078Y-96824996D01*
X58008659Y-96931341D01*
X58115004Y-97060922D01*
X58115005Y-97060924D01*
X58194024Y-97208758D01*
X58242687Y-97369177D01*
X58259117Y-97536000D01*
X58242687Y-97702823D01*
X58194024Y-97863242D01*
X58189877Y-97871000D01*
X58115004Y-98011078D01*
X58008659Y-98140659D01*
X57879078Y-98247004D01*
X57879076Y-98247005D01*
X57731242Y-98326024D01*
X57570823Y-98374687D01*
X57445804Y-98387000D01*
X57362196Y-98387000D01*
X57237177Y-98374687D01*
X57076758Y-98326024D01*
X56928924Y-98247005D01*
X56928922Y-98247004D01*
X56799341Y-98140659D01*
X56692996Y-98011078D01*
X56618123Y-97871000D01*
X56613976Y-97863242D01*
X56565313Y-97702823D01*
X56548883Y-97536000D01*
X56565313Y-97369177D01*
X56613976Y-97208758D01*
X56692995Y-97060924D01*
X56692996Y-97060922D01*
X56799341Y-96931341D01*
X56928922Y-96824996D01*
X56944094Y-96816886D01*
X57076758Y-96745976D01*
X57237177Y-96697313D01*
X57362196Y-96685000D01*
X57445804Y-96685000D01*
X57570823Y-96697313D01*
X57570823Y-96697313D01*
G37*
G36*
X61941059Y-96397860D02*
G01*
X62077732Y-96454472D01*
X62200735Y-96536660D01*
X62305340Y-96641265D01*
X62387528Y-96764268D01*
X62387529Y-96764270D01*
X62444140Y-96900941D01*
X62473000Y-97046032D01*
X62473000Y-97193968D01*
X62444140Y-97339059D01*
X62387528Y-97475732D01*
X62305340Y-97598735D01*
X62200735Y-97703340D01*
X62077732Y-97785528D01*
X62077731Y-97785529D01*
X62077730Y-97785529D01*
X61941059Y-97842140D01*
X61795968Y-97871000D01*
X61648032Y-97871000D01*
X61502941Y-97842140D01*
X61366270Y-97785529D01*
X61366269Y-97785529D01*
X61366268Y-97785528D01*
X61243265Y-97703340D01*
X61138660Y-97598735D01*
X61056472Y-97475732D01*
X60999860Y-97339059D01*
X60971000Y-97193968D01*
X60971000Y-97046032D01*
X60999860Y-96900941D01*
X61056471Y-96764270D01*
X61056472Y-96764268D01*
X61138660Y-96641265D01*
X61243265Y-96536660D01*
X61366268Y-96454472D01*
X61502941Y-96397860D01*
X61648032Y-96369000D01*
X61795968Y-96369000D01*
X61941059Y-96397860D01*
X61941059Y-96397860D01*
G37*
G36*
X74541059Y-96397860D02*
G01*
X74677732Y-96454472D01*
X74800735Y-96536660D01*
X74905340Y-96641265D01*
X74987528Y-96764268D01*
X74987529Y-96764270D01*
X75044140Y-96900941D01*
X75073000Y-97046032D01*
X75073000Y-97193968D01*
X75044140Y-97339059D01*
X74987528Y-97475732D01*
X74905340Y-97598735D01*
X74800735Y-97703340D01*
X74677732Y-97785528D01*
X74677731Y-97785529D01*
X74677730Y-97785529D01*
X74541059Y-97842140D01*
X74395968Y-97871000D01*
X74248032Y-97871000D01*
X74102941Y-97842140D01*
X73966270Y-97785529D01*
X73966269Y-97785529D01*
X73966268Y-97785528D01*
X73843265Y-97703340D01*
X73738660Y-97598735D01*
X73656472Y-97475732D01*
X73599860Y-97339059D01*
X73571000Y-97193968D01*
X73571000Y-97046032D01*
X73599860Y-96900941D01*
X73656471Y-96764270D01*
X73656472Y-96764268D01*
X73738660Y-96641265D01*
X73843265Y-96536660D01*
X73966268Y-96454472D01*
X74102941Y-96397860D01*
X74248032Y-96369000D01*
X74395968Y-96369000D01*
X74541059Y-96397860D01*
X74541059Y-96397860D01*
G37*
G36*
X82982068Y-95463065D02*
G01*
X83020738Y-95474796D01*
X83056377Y-95493846D01*
X83087617Y-95519483D01*
X83113254Y-95550723D01*
X83132304Y-95586362D01*
X83144035Y-95625032D01*
X83148600Y-95671388D01*
X83148600Y-96322612D01*
X83144035Y-96368968D01*
X83132304Y-96407638D01*
X83113254Y-96443277D01*
X83087617Y-96474517D01*
X83056377Y-96500154D01*
X83020738Y-96519204D01*
X82982068Y-96530935D01*
X82935712Y-96535500D01*
X81859488Y-96535500D01*
X81813132Y-96530935D01*
X81774462Y-96519204D01*
X81738823Y-96500154D01*
X81707583Y-96474517D01*
X81681946Y-96443277D01*
X81662896Y-96407638D01*
X81651165Y-96368968D01*
X81646600Y-96322612D01*
X81646600Y-95671388D01*
X81651165Y-95625032D01*
X81662896Y-95586362D01*
X81681946Y-95550723D01*
X81707583Y-95519483D01*
X81738823Y-95493846D01*
X81774462Y-95474796D01*
X81813132Y-95463065D01*
X81859488Y-95458500D01*
X82935712Y-95458500D01*
X82982068Y-95463065D01*
X82982068Y-95463065D01*
G37*
G36*
X80403968Y-95463065D02*
G01*
X80442638Y-95474796D01*
X80478277Y-95493846D01*
X80509517Y-95519483D01*
X80535154Y-95550723D01*
X80554204Y-95586362D01*
X80565935Y-95625032D01*
X80570500Y-95671388D01*
X80570500Y-96322612D01*
X80565935Y-96368968D01*
X80554204Y-96407638D01*
X80535154Y-96443277D01*
X80509517Y-96474517D01*
X80478277Y-96500154D01*
X80442638Y-96519204D01*
X80403968Y-96530935D01*
X80357612Y-96535500D01*
X79281388Y-96535500D01*
X79235032Y-96530935D01*
X79196362Y-96519204D01*
X79160723Y-96500154D01*
X79129483Y-96474517D01*
X79103846Y-96443277D01*
X79084796Y-96407638D01*
X79073065Y-96368968D01*
X79068500Y-96322612D01*
X79068500Y-95671388D01*
X79073065Y-95625032D01*
X79084796Y-95586362D01*
X79103846Y-95550723D01*
X79129483Y-95519483D01*
X79160723Y-95493846D01*
X79196362Y-95474796D01*
X79235032Y-95463065D01*
X79281388Y-95458500D01*
X80357612Y-95458500D01*
X80403968Y-95463065D01*
X80403968Y-95463065D01*
G37*
G36*
X74541059Y-94617860D02*
G01*
X74663945Y-94668761D01*
X74677732Y-94674472D01*
X74800735Y-94756660D01*
X74905340Y-94861265D01*
X74905341Y-94861267D01*
X74987529Y-94984270D01*
X75044140Y-95120941D01*
X75073000Y-95266032D01*
X75073000Y-95413968D01*
X75057111Y-95493846D01*
X75044140Y-95559059D01*
X74987528Y-95695732D01*
X74905340Y-95818735D01*
X74800735Y-95923340D01*
X74677732Y-96005528D01*
X74677731Y-96005529D01*
X74677730Y-96005529D01*
X74541059Y-96062140D01*
X74395968Y-96091000D01*
X74248032Y-96091000D01*
X74102941Y-96062140D01*
X73966270Y-96005529D01*
X73966269Y-96005529D01*
X73966268Y-96005528D01*
X73843265Y-95923340D01*
X73738660Y-95818735D01*
X73656472Y-95695732D01*
X73599860Y-95559059D01*
X73586889Y-95493846D01*
X73571000Y-95413968D01*
X73571000Y-95266032D01*
X73599860Y-95120941D01*
X73656471Y-94984270D01*
X73738659Y-94861267D01*
X73738660Y-94861265D01*
X73843265Y-94756660D01*
X73966268Y-94674472D01*
X73980056Y-94668761D01*
X74102941Y-94617860D01*
X74248032Y-94589000D01*
X74395968Y-94589000D01*
X74541059Y-94617860D01*
X74541059Y-94617860D01*
G37*
G36*
X61941059Y-94617860D02*
G01*
X62063945Y-94668761D01*
X62077732Y-94674472D01*
X62200735Y-94756660D01*
X62305340Y-94861265D01*
X62305341Y-94861267D01*
X62387529Y-94984270D01*
X62444140Y-95120941D01*
X62473000Y-95266032D01*
X62473000Y-95413968D01*
X62457111Y-95493846D01*
X62444140Y-95559059D01*
X62387528Y-95695732D01*
X62305340Y-95818735D01*
X62200735Y-95923340D01*
X62077732Y-96005528D01*
X62077731Y-96005529D01*
X62077730Y-96005529D01*
X61941059Y-96062140D01*
X61795968Y-96091000D01*
X61648032Y-96091000D01*
X61502941Y-96062140D01*
X61366270Y-96005529D01*
X61366269Y-96005529D01*
X61366268Y-96005528D01*
X61243265Y-95923340D01*
X61138660Y-95818735D01*
X61056472Y-95695732D01*
X60999860Y-95559059D01*
X60986889Y-95493846D01*
X60971000Y-95413968D01*
X60971000Y-95266032D01*
X60999860Y-95120941D01*
X61056471Y-94984270D01*
X61138659Y-94861267D01*
X61138660Y-94861265D01*
X61243265Y-94756660D01*
X61366268Y-94674472D01*
X61380056Y-94668761D01*
X61502941Y-94617860D01*
X61648032Y-94589000D01*
X61795968Y-94589000D01*
X61941059Y-94617860D01*
X61941059Y-94617860D01*
G37*
G36*
X57570823Y-94157313D02*
G01*
X57731242Y-94205976D01*
X57863906Y-94276886D01*
X57879078Y-94284996D01*
X58008659Y-94391341D01*
X58115004Y-94520922D01*
X58115005Y-94520924D01*
X58194024Y-94668758D01*
X58242687Y-94829177D01*
X58259117Y-94996000D01*
X58242687Y-95162823D01*
X58194024Y-95323242D01*
X58145530Y-95413967D01*
X58115004Y-95471078D01*
X58008659Y-95600659D01*
X57879078Y-95707004D01*
X57879076Y-95707005D01*
X57731242Y-95786024D01*
X57570823Y-95834687D01*
X57445804Y-95847000D01*
X57362196Y-95847000D01*
X57237177Y-95834687D01*
X57076758Y-95786024D01*
X56928924Y-95707005D01*
X56928922Y-95707004D01*
X56799341Y-95600659D01*
X56692996Y-95471078D01*
X56662470Y-95413967D01*
X56613976Y-95323242D01*
X56565313Y-95162823D01*
X56548883Y-94996000D01*
X56565313Y-94829177D01*
X56613976Y-94668758D01*
X56692995Y-94520924D01*
X56692996Y-94520922D01*
X56799341Y-94391341D01*
X56928922Y-94284996D01*
X56944094Y-94276886D01*
X57076758Y-94205976D01*
X57237177Y-94157313D01*
X57362196Y-94145000D01*
X57445804Y-94145000D01*
X57570823Y-94157313D01*
X57570823Y-94157313D01*
G37*
G36*
X42330823Y-94157313D02*
G01*
X42491242Y-94205976D01*
X42623906Y-94276886D01*
X42639078Y-94284996D01*
X42768659Y-94391341D01*
X42875004Y-94520922D01*
X42875005Y-94520924D01*
X42954024Y-94668758D01*
X43002687Y-94829177D01*
X43019117Y-94996000D01*
X43002687Y-95162823D01*
X42954024Y-95323242D01*
X42905530Y-95413967D01*
X42875004Y-95471078D01*
X42768659Y-95600659D01*
X42639078Y-95707004D01*
X42639076Y-95707005D01*
X42491242Y-95786024D01*
X42330823Y-95834687D01*
X42205804Y-95847000D01*
X42122196Y-95847000D01*
X41997177Y-95834687D01*
X41836758Y-95786024D01*
X41688924Y-95707005D01*
X41688922Y-95707004D01*
X41559341Y-95600659D01*
X41452996Y-95471078D01*
X41422470Y-95413967D01*
X41373976Y-95323242D01*
X41325313Y-95162823D01*
X41308883Y-94996000D01*
X41325313Y-94829177D01*
X41373976Y-94668758D01*
X41452995Y-94520924D01*
X41452996Y-94520922D01*
X41559341Y-94391341D01*
X41688922Y-94284996D01*
X41704094Y-94276886D01*
X41836758Y-94205976D01*
X41997177Y-94157313D01*
X42122196Y-94145000D01*
X42205804Y-94145000D01*
X42330823Y-94157313D01*
X42330823Y-94157313D01*
G37*
G36*
X82982068Y-93588065D02*
G01*
X83020738Y-93599796D01*
X83056377Y-93618846D01*
X83087617Y-93644483D01*
X83113254Y-93675723D01*
X83132304Y-93711362D01*
X83144035Y-93750032D01*
X83148600Y-93796388D01*
X83148600Y-94447612D01*
X83144035Y-94493968D01*
X83132304Y-94532638D01*
X83113254Y-94568277D01*
X83087617Y-94599517D01*
X83056377Y-94625154D01*
X83020738Y-94644204D01*
X82982068Y-94655935D01*
X82935712Y-94660500D01*
X81859488Y-94660500D01*
X81813132Y-94655935D01*
X81774462Y-94644204D01*
X81738823Y-94625154D01*
X81707583Y-94599517D01*
X81681946Y-94568277D01*
X81662896Y-94532638D01*
X81651165Y-94493968D01*
X81646600Y-94447612D01*
X81646600Y-93796388D01*
X81651165Y-93750032D01*
X81662896Y-93711362D01*
X81681946Y-93675723D01*
X81707583Y-93644483D01*
X81738823Y-93618846D01*
X81774462Y-93599796D01*
X81813132Y-93588065D01*
X81859488Y-93583500D01*
X82935712Y-93583500D01*
X82982068Y-93588065D01*
X82982068Y-93588065D01*
G37*
G36*
X80403968Y-93588065D02*
G01*
X80442638Y-93599796D01*
X80478277Y-93618846D01*
X80509517Y-93644483D01*
X80535154Y-93675723D01*
X80554204Y-93711362D01*
X80565935Y-93750032D01*
X80570500Y-93796388D01*
X80570500Y-94447612D01*
X80565935Y-94493968D01*
X80554204Y-94532638D01*
X80535154Y-94568277D01*
X80509517Y-94599517D01*
X80478277Y-94625154D01*
X80442638Y-94644204D01*
X80403968Y-94655935D01*
X80357612Y-94660500D01*
X79281388Y-94660500D01*
X79235032Y-94655935D01*
X79196362Y-94644204D01*
X79160723Y-94625154D01*
X79129483Y-94599517D01*
X79103846Y-94568277D01*
X79084796Y-94532638D01*
X79073065Y-94493968D01*
X79068500Y-94447612D01*
X79068500Y-93796388D01*
X79073065Y-93750032D01*
X79084796Y-93711362D01*
X79103846Y-93675723D01*
X79129483Y-93644483D01*
X79160723Y-93618846D01*
X79196362Y-93599796D01*
X79235032Y-93588065D01*
X79281388Y-93583500D01*
X80357612Y-93583500D01*
X80403968Y-93588065D01*
X80403968Y-93588065D01*
G37*
G36*
X74541059Y-92837860D02*
G01*
X74677732Y-92894472D01*
X74800735Y-92976660D01*
X74905340Y-93081265D01*
X74987528Y-93204268D01*
X74987529Y-93204270D01*
X75044140Y-93340941D01*
X75073000Y-93486032D01*
X75073000Y-93633968D01*
X75049977Y-93749712D01*
X75044140Y-93779059D01*
X74987528Y-93915732D01*
X74905340Y-94038735D01*
X74800735Y-94143340D01*
X74677732Y-94225528D01*
X74677731Y-94225529D01*
X74677730Y-94225529D01*
X74541059Y-94282140D01*
X74395968Y-94311000D01*
X74248032Y-94311000D01*
X74102941Y-94282140D01*
X73966270Y-94225529D01*
X73966269Y-94225529D01*
X73966268Y-94225528D01*
X73843265Y-94143340D01*
X73738660Y-94038735D01*
X73656472Y-93915732D01*
X73599860Y-93779059D01*
X73594023Y-93749712D01*
X73571000Y-93633968D01*
X73571000Y-93486032D01*
X73599860Y-93340941D01*
X73656471Y-93204270D01*
X73656472Y-93204268D01*
X73738660Y-93081265D01*
X73843265Y-92976660D01*
X73966268Y-92894472D01*
X74102941Y-92837860D01*
X74248032Y-92809000D01*
X74395968Y-92809000D01*
X74541059Y-92837860D01*
X74541059Y-92837860D01*
G37*
G36*
X61941059Y-92837860D02*
G01*
X62077732Y-92894472D01*
X62200735Y-92976660D01*
X62305340Y-93081265D01*
X62387528Y-93204268D01*
X62387529Y-93204270D01*
X62444140Y-93340941D01*
X62473000Y-93486032D01*
X62473000Y-93633968D01*
X62449977Y-93749712D01*
X62444140Y-93779059D01*
X62387528Y-93915732D01*
X62305340Y-94038735D01*
X62200735Y-94143340D01*
X62077732Y-94225528D01*
X62077731Y-94225529D01*
X62077730Y-94225529D01*
X61941059Y-94282140D01*
X61795968Y-94311000D01*
X61648032Y-94311000D01*
X61502941Y-94282140D01*
X61366270Y-94225529D01*
X61366269Y-94225529D01*
X61366268Y-94225528D01*
X61243265Y-94143340D01*
X61138660Y-94038735D01*
X61056472Y-93915732D01*
X60999860Y-93779059D01*
X60994023Y-93749712D01*
X60971000Y-93633968D01*
X60971000Y-93486032D01*
X60999860Y-93340941D01*
X61056471Y-93204270D01*
X61056472Y-93204268D01*
X61138660Y-93081265D01*
X61243265Y-92976660D01*
X61366268Y-92894472D01*
X61502941Y-92837860D01*
X61648032Y-92809000D01*
X61795968Y-92809000D01*
X61941059Y-92837860D01*
X61941059Y-92837860D01*
G37*
G36*
X57570823Y-91617313D02*
G01*
X57731242Y-91665976D01*
X57806181Y-91706032D01*
X57879078Y-91744996D01*
X58008659Y-91851341D01*
X58115004Y-91980922D01*
X58115005Y-91980924D01*
X58194024Y-92128758D01*
X58242687Y-92289177D01*
X58259117Y-92456000D01*
X58242687Y-92622823D01*
X58194024Y-92783242D01*
X58180256Y-92809000D01*
X58115004Y-92931078D01*
X58008659Y-93060659D01*
X57879078Y-93167004D01*
X57879076Y-93167005D01*
X57731242Y-93246024D01*
X57570823Y-93294687D01*
X57445804Y-93307000D01*
X57362196Y-93307000D01*
X57237177Y-93294687D01*
X57076758Y-93246024D01*
X56928924Y-93167005D01*
X56928922Y-93167004D01*
X56799341Y-93060659D01*
X56692996Y-92931078D01*
X56627744Y-92809000D01*
X56613976Y-92783242D01*
X56565313Y-92622823D01*
X56548883Y-92456000D01*
X56565313Y-92289177D01*
X56613976Y-92128758D01*
X56692995Y-91980924D01*
X56692996Y-91980922D01*
X56799341Y-91851341D01*
X56928922Y-91744996D01*
X57001819Y-91706032D01*
X57076758Y-91665976D01*
X57237177Y-91617313D01*
X57362196Y-91605000D01*
X57445804Y-91605000D01*
X57570823Y-91617313D01*
X57570823Y-91617313D01*
G37*
G36*
X42330823Y-91617313D02*
G01*
X42491242Y-91665976D01*
X42566181Y-91706032D01*
X42639078Y-91744996D01*
X42768659Y-91851341D01*
X42875004Y-91980922D01*
X42875005Y-91980924D01*
X42954024Y-92128758D01*
X43002687Y-92289177D01*
X43019117Y-92456000D01*
X43002687Y-92622823D01*
X42954024Y-92783242D01*
X42940256Y-92809000D01*
X42875004Y-92931078D01*
X42768659Y-93060659D01*
X42639078Y-93167004D01*
X42639076Y-93167005D01*
X42491242Y-93246024D01*
X42330823Y-93294687D01*
X42205804Y-93307000D01*
X42122196Y-93307000D01*
X41997177Y-93294687D01*
X41836758Y-93246024D01*
X41688924Y-93167005D01*
X41688922Y-93167004D01*
X41559341Y-93060659D01*
X41452996Y-92931078D01*
X41387744Y-92809000D01*
X41373976Y-92783242D01*
X41325313Y-92622823D01*
X41308883Y-92456000D01*
X41325313Y-92289177D01*
X41373976Y-92128758D01*
X41452995Y-91980924D01*
X41452996Y-91980922D01*
X41559341Y-91851341D01*
X41688922Y-91744996D01*
X41761819Y-91706032D01*
X41836758Y-91665976D01*
X41997177Y-91617313D01*
X42122196Y-91605000D01*
X42205804Y-91605000D01*
X42330823Y-91617313D01*
X42330823Y-91617313D01*
G37*
G36*
X61941059Y-91057860D02*
G01*
X62077732Y-91114472D01*
X62200735Y-91196660D01*
X62305340Y-91301265D01*
X62387528Y-91424268D01*
X62387529Y-91424270D01*
X62444140Y-91560941D01*
X62473000Y-91706032D01*
X62473000Y-91853968D01*
X62444140Y-91999059D01*
X62390416Y-92128761D01*
X62387528Y-92135732D01*
X62305340Y-92258735D01*
X62200735Y-92363340D01*
X62077732Y-92445528D01*
X62077731Y-92445529D01*
X62077730Y-92445529D01*
X61941059Y-92502140D01*
X61795968Y-92531000D01*
X61648032Y-92531000D01*
X61502941Y-92502140D01*
X61366270Y-92445529D01*
X61366269Y-92445529D01*
X61366268Y-92445528D01*
X61243265Y-92363340D01*
X61138660Y-92258735D01*
X61056472Y-92135732D01*
X61053585Y-92128761D01*
X60999860Y-91999059D01*
X60971000Y-91853968D01*
X60971000Y-91706032D01*
X60999860Y-91560941D01*
X61056471Y-91424270D01*
X61056472Y-91424268D01*
X61138660Y-91301265D01*
X61243265Y-91196660D01*
X61366268Y-91114472D01*
X61502941Y-91057860D01*
X61648032Y-91029000D01*
X61795968Y-91029000D01*
X61941059Y-91057860D01*
X61941059Y-91057860D01*
G37*
G36*
X74541059Y-91057860D02*
G01*
X74677732Y-91114472D01*
X74800735Y-91196660D01*
X74905340Y-91301265D01*
X74987528Y-91424268D01*
X74987529Y-91424270D01*
X75044140Y-91560941D01*
X75073000Y-91706032D01*
X75073000Y-91853968D01*
X75044140Y-91999059D01*
X74990416Y-92128761D01*
X74987528Y-92135732D01*
X74905340Y-92258735D01*
X74800735Y-92363340D01*
X74677732Y-92445528D01*
X74677731Y-92445529D01*
X74677730Y-92445529D01*
X74541059Y-92502140D01*
X74395968Y-92531000D01*
X74248032Y-92531000D01*
X74102941Y-92502140D01*
X73966270Y-92445529D01*
X73966269Y-92445529D01*
X73966268Y-92445528D01*
X73843265Y-92363340D01*
X73738660Y-92258735D01*
X73656472Y-92135732D01*
X73653585Y-92128761D01*
X73599860Y-91999059D01*
X73571000Y-91853968D01*
X73571000Y-91706032D01*
X73599860Y-91560941D01*
X73656471Y-91424270D01*
X73656472Y-91424268D01*
X73738660Y-91301265D01*
X73843265Y-91196660D01*
X73966268Y-91114472D01*
X74102941Y-91057860D01*
X74248032Y-91029000D01*
X74395968Y-91029000D01*
X74541059Y-91057860D01*
X74541059Y-91057860D01*
G37*
G36*
X82931268Y-91208565D02*
G01*
X82969938Y-91220296D01*
X83005577Y-91239346D01*
X83036817Y-91264983D01*
X83062454Y-91296223D01*
X83081504Y-91331862D01*
X83093235Y-91370532D01*
X83097800Y-91416888D01*
X83097800Y-92068112D01*
X83093235Y-92114468D01*
X83081504Y-92153138D01*
X83062454Y-92188777D01*
X83036817Y-92220017D01*
X83005577Y-92245654D01*
X82969938Y-92264704D01*
X82931268Y-92276435D01*
X82884912Y-92281000D01*
X81808688Y-92281000D01*
X81762332Y-92276435D01*
X81723662Y-92264704D01*
X81688023Y-92245654D01*
X81656783Y-92220017D01*
X81631146Y-92188777D01*
X81612096Y-92153138D01*
X81600365Y-92114468D01*
X81595800Y-92068112D01*
X81595800Y-91416888D01*
X81600365Y-91370532D01*
X81612096Y-91331862D01*
X81631146Y-91296223D01*
X81656783Y-91264983D01*
X81688023Y-91239346D01*
X81723662Y-91220296D01*
X81762332Y-91208565D01*
X81808688Y-91204000D01*
X82884912Y-91204000D01*
X82931268Y-91208565D01*
X82931268Y-91208565D01*
G37*
G36*
X80403968Y-91208565D02*
G01*
X80442638Y-91220296D01*
X80478277Y-91239346D01*
X80509517Y-91264983D01*
X80535154Y-91296223D01*
X80554204Y-91331862D01*
X80565935Y-91370532D01*
X80570500Y-91416888D01*
X80570500Y-92068112D01*
X80565935Y-92114468D01*
X80554204Y-92153138D01*
X80535154Y-92188777D01*
X80509517Y-92220017D01*
X80478277Y-92245654D01*
X80442638Y-92264704D01*
X80403968Y-92276435D01*
X80357612Y-92281000D01*
X79281388Y-92281000D01*
X79235032Y-92276435D01*
X79196362Y-92264704D01*
X79160723Y-92245654D01*
X79129483Y-92220017D01*
X79103846Y-92188777D01*
X79084796Y-92153138D01*
X79073065Y-92114468D01*
X79068500Y-92068112D01*
X79068500Y-91416888D01*
X79073065Y-91370532D01*
X79084796Y-91331862D01*
X79103846Y-91296223D01*
X79129483Y-91264983D01*
X79160723Y-91239346D01*
X79196362Y-91220296D01*
X79235032Y-91208565D01*
X79281388Y-91204000D01*
X80357612Y-91204000D01*
X80403968Y-91208565D01*
X80403968Y-91208565D01*
G37*
G36*
X42330823Y-89077313D02*
G01*
X42491242Y-89125976D01*
X42623906Y-89196886D01*
X42639078Y-89204996D01*
X42768659Y-89311341D01*
X42875004Y-89440922D01*
X42875005Y-89440924D01*
X42954024Y-89588758D01*
X43002687Y-89749177D01*
X43019117Y-89916000D01*
X43002687Y-90082823D01*
X42954024Y-90243242D01*
X42930989Y-90286337D01*
X42875004Y-90391078D01*
X42768659Y-90520659D01*
X42639078Y-90627004D01*
X42639076Y-90627005D01*
X42491242Y-90706024D01*
X42330823Y-90754687D01*
X42205804Y-90767000D01*
X42122196Y-90767000D01*
X41997177Y-90754687D01*
X41836758Y-90706024D01*
X41688924Y-90627005D01*
X41688922Y-90627004D01*
X41559341Y-90520659D01*
X41452996Y-90391078D01*
X41397011Y-90286337D01*
X41373976Y-90243242D01*
X41325313Y-90082823D01*
X41308883Y-89916000D01*
X41325313Y-89749177D01*
X41373976Y-89588758D01*
X41452995Y-89440924D01*
X41452996Y-89440922D01*
X41559341Y-89311341D01*
X41688922Y-89204996D01*
X41704094Y-89196886D01*
X41836758Y-89125976D01*
X41997177Y-89077313D01*
X42122196Y-89065000D01*
X42205804Y-89065000D01*
X42330823Y-89077313D01*
X42330823Y-89077313D01*
G37*
G36*
X57570823Y-89077313D02*
G01*
X57731242Y-89125976D01*
X57863906Y-89196886D01*
X57879078Y-89204996D01*
X58008659Y-89311341D01*
X58115004Y-89440922D01*
X58115005Y-89440924D01*
X58194024Y-89588758D01*
X58242687Y-89749177D01*
X58259117Y-89916000D01*
X58242687Y-90082823D01*
X58194024Y-90243242D01*
X58170989Y-90286337D01*
X58115004Y-90391078D01*
X58008659Y-90520659D01*
X57879078Y-90627004D01*
X57879076Y-90627005D01*
X57731242Y-90706024D01*
X57570823Y-90754687D01*
X57445804Y-90767000D01*
X57362196Y-90767000D01*
X57237177Y-90754687D01*
X57076758Y-90706024D01*
X56928924Y-90627005D01*
X56928922Y-90627004D01*
X56799341Y-90520659D01*
X56692996Y-90391078D01*
X56637011Y-90286337D01*
X56613976Y-90243242D01*
X56565313Y-90082823D01*
X56548883Y-89916000D01*
X56565313Y-89749177D01*
X56613976Y-89588758D01*
X56692995Y-89440924D01*
X56692996Y-89440922D01*
X56799341Y-89311341D01*
X56928922Y-89204996D01*
X56944094Y-89196886D01*
X57076758Y-89125976D01*
X57237177Y-89077313D01*
X57362196Y-89065000D01*
X57445804Y-89065000D01*
X57570823Y-89077313D01*
X57570823Y-89077313D01*
G37*
G36*
X62473000Y-90751000D02*
G01*
X60971000Y-90751000D01*
X60971000Y-89249000D01*
X62473000Y-89249000D01*
X62473000Y-90751000D01*
X62473000Y-90751000D01*
G37*
G36*
X74541059Y-89277860D02*
G01*
X74675543Y-89333565D01*
X74677732Y-89334472D01*
X74800735Y-89416660D01*
X74905340Y-89521265D01*
X74987528Y-89644268D01*
X74987529Y-89644270D01*
X75044140Y-89780941D01*
X75073000Y-89926032D01*
X75073000Y-90073968D01*
X75044140Y-90219059D01*
X75004907Y-90313777D01*
X74987528Y-90355732D01*
X74905340Y-90478735D01*
X74800735Y-90583340D01*
X74677732Y-90665528D01*
X74677731Y-90665529D01*
X74677730Y-90665529D01*
X74541059Y-90722140D01*
X74395968Y-90751000D01*
X74248032Y-90751000D01*
X74102941Y-90722140D01*
X73966270Y-90665529D01*
X73966269Y-90665529D01*
X73966268Y-90665528D01*
X73843265Y-90583340D01*
X73738660Y-90478735D01*
X73656472Y-90355732D01*
X73639094Y-90313777D01*
X73599860Y-90219059D01*
X73571000Y-90073968D01*
X73571000Y-89926032D01*
X73599860Y-89780941D01*
X73656471Y-89644270D01*
X73656472Y-89644268D01*
X73738660Y-89521265D01*
X73843265Y-89416660D01*
X73966268Y-89334472D01*
X73968458Y-89333565D01*
X74102941Y-89277860D01*
X74248032Y-89249000D01*
X74395968Y-89249000D01*
X74541059Y-89277860D01*
X74541059Y-89277860D01*
G37*
G36*
X82931268Y-89333565D02*
G01*
X82969938Y-89345296D01*
X83005577Y-89364346D01*
X83036817Y-89389983D01*
X83062454Y-89421223D01*
X83081504Y-89456862D01*
X83093235Y-89495532D01*
X83097800Y-89541888D01*
X83097800Y-90193112D01*
X83093235Y-90239468D01*
X83081504Y-90278138D01*
X83062454Y-90313777D01*
X83036817Y-90345017D01*
X83005577Y-90370654D01*
X82969938Y-90389704D01*
X82931268Y-90401435D01*
X82884912Y-90406000D01*
X81808688Y-90406000D01*
X81762332Y-90401435D01*
X81723662Y-90389704D01*
X81688023Y-90370654D01*
X81656783Y-90345017D01*
X81631146Y-90313777D01*
X81612096Y-90278138D01*
X81600365Y-90239468D01*
X81595800Y-90193112D01*
X81595800Y-89541888D01*
X81600365Y-89495532D01*
X81612096Y-89456862D01*
X81631146Y-89421223D01*
X81656783Y-89389983D01*
X81688023Y-89364346D01*
X81723662Y-89345296D01*
X81762332Y-89333565D01*
X81808688Y-89329000D01*
X82884912Y-89329000D01*
X82931268Y-89333565D01*
X82931268Y-89333565D01*
G37*
G36*
X80403968Y-89333565D02*
G01*
X80442638Y-89345296D01*
X80478277Y-89364346D01*
X80509517Y-89389983D01*
X80535154Y-89421223D01*
X80554204Y-89456862D01*
X80565935Y-89495532D01*
X80570500Y-89541888D01*
X80570500Y-90193112D01*
X80565935Y-90239468D01*
X80554204Y-90278138D01*
X80535154Y-90313777D01*
X80509517Y-90345017D01*
X80478277Y-90370654D01*
X80442638Y-90389704D01*
X80403968Y-90401435D01*
X80357612Y-90406000D01*
X79281388Y-90406000D01*
X79235032Y-90401435D01*
X79196362Y-90389704D01*
X79160723Y-90370654D01*
X79129483Y-90345017D01*
X79103846Y-90313777D01*
X79084796Y-90278138D01*
X79073065Y-90239468D01*
X79068500Y-90193112D01*
X79068500Y-89541888D01*
X79073065Y-89495532D01*
X79084796Y-89456862D01*
X79103846Y-89421223D01*
X79129483Y-89389983D01*
X79160723Y-89364346D01*
X79196362Y-89345296D01*
X79235032Y-89333565D01*
X79281388Y-89329000D01*
X80357612Y-89329000D01*
X80403968Y-89333565D01*
X80403968Y-89333565D01*
G37*
G36*
X57570823Y-86537313D02*
G01*
X57731242Y-86585976D01*
X57863906Y-86656886D01*
X57879078Y-86664996D01*
X58008659Y-86771341D01*
X58115004Y-86900922D01*
X58115005Y-86900924D01*
X58194024Y-87048758D01*
X58242687Y-87209177D01*
X58259117Y-87376000D01*
X58242687Y-87542823D01*
X58194024Y-87703242D01*
X58123114Y-87835906D01*
X58115004Y-87851078D01*
X58008659Y-87980659D01*
X57879078Y-88087004D01*
X57879076Y-88087005D01*
X57731242Y-88166024D01*
X57570823Y-88214687D01*
X57445804Y-88227000D01*
X57362196Y-88227000D01*
X57237177Y-88214687D01*
X57076758Y-88166024D01*
X56928924Y-88087005D01*
X56928922Y-88087004D01*
X56799341Y-87980659D01*
X56692996Y-87851078D01*
X56684886Y-87835906D01*
X56613976Y-87703242D01*
X56565313Y-87542823D01*
X56548883Y-87376000D01*
X56565313Y-87209177D01*
X56613976Y-87048758D01*
X56692995Y-86900924D01*
X56692996Y-86900922D01*
X56799341Y-86771341D01*
X56928922Y-86664996D01*
X56944094Y-86656886D01*
X57076758Y-86585976D01*
X57237177Y-86537313D01*
X57362196Y-86525000D01*
X57445804Y-86525000D01*
X57570823Y-86537313D01*
X57570823Y-86537313D01*
G37*
G36*
X42330823Y-86537313D02*
G01*
X42491242Y-86585976D01*
X42623906Y-86656886D01*
X42639078Y-86664996D01*
X42768659Y-86771341D01*
X42875004Y-86900922D01*
X42875005Y-86900924D01*
X42954024Y-87048758D01*
X43002687Y-87209177D01*
X43019117Y-87376000D01*
X43002687Y-87542823D01*
X42954024Y-87703242D01*
X42883114Y-87835906D01*
X42875004Y-87851078D01*
X42768659Y-87980659D01*
X42639078Y-88087004D01*
X42639076Y-88087005D01*
X42491242Y-88166024D01*
X42330823Y-88214687D01*
X42205804Y-88227000D01*
X42122196Y-88227000D01*
X41997177Y-88214687D01*
X41836758Y-88166024D01*
X41688924Y-88087005D01*
X41688922Y-88087004D01*
X41559341Y-87980659D01*
X41452996Y-87851078D01*
X41444886Y-87835906D01*
X41373976Y-87703242D01*
X41325313Y-87542823D01*
X41308883Y-87376000D01*
X41325313Y-87209177D01*
X41373976Y-87048758D01*
X41452995Y-86900924D01*
X41452996Y-86900922D01*
X41559341Y-86771341D01*
X41688922Y-86664996D01*
X41704094Y-86656886D01*
X41836758Y-86585976D01*
X41997177Y-86537313D01*
X42122196Y-86525000D01*
X42205804Y-86525000D01*
X42330823Y-86537313D01*
X42330823Y-86537313D01*
G37*
G36*
X57570823Y-83997313D02*
G01*
X57731242Y-84045976D01*
X57863906Y-84116886D01*
X57879078Y-84124996D01*
X58008659Y-84231341D01*
X58115004Y-84360922D01*
X58115005Y-84360924D01*
X58194024Y-84508758D01*
X58242687Y-84669177D01*
X58259117Y-84836000D01*
X58242687Y-85002823D01*
X58194024Y-85163242D01*
X58138416Y-85267277D01*
X58115004Y-85311078D01*
X58008659Y-85440659D01*
X57879078Y-85547004D01*
X57879076Y-85547005D01*
X57731242Y-85626024D01*
X57570823Y-85674687D01*
X57445804Y-85687000D01*
X57362196Y-85687000D01*
X57237177Y-85674687D01*
X57076758Y-85626024D01*
X56928924Y-85547005D01*
X56928922Y-85547004D01*
X56799341Y-85440659D01*
X56692996Y-85311078D01*
X56669584Y-85267277D01*
X56613976Y-85163242D01*
X56565313Y-85002823D01*
X56548883Y-84836000D01*
X56565313Y-84669177D01*
X56613976Y-84508758D01*
X56692995Y-84360924D01*
X56692996Y-84360922D01*
X56799341Y-84231341D01*
X56928922Y-84124996D01*
X56944094Y-84116886D01*
X57076758Y-84045976D01*
X57237177Y-83997313D01*
X57362196Y-83985000D01*
X57445804Y-83985000D01*
X57570823Y-83997313D01*
X57570823Y-83997313D01*
G37*
G36*
X42330823Y-83997313D02*
G01*
X42491242Y-84045976D01*
X42623906Y-84116886D01*
X42639078Y-84124996D01*
X42768659Y-84231341D01*
X42875004Y-84360922D01*
X42875005Y-84360924D01*
X42954024Y-84508758D01*
X43002687Y-84669177D01*
X43019117Y-84836000D01*
X43002687Y-85002823D01*
X42954024Y-85163242D01*
X42898416Y-85267277D01*
X42875004Y-85311078D01*
X42768659Y-85440659D01*
X42639078Y-85547004D01*
X42639076Y-85547005D01*
X42491242Y-85626024D01*
X42330823Y-85674687D01*
X42205804Y-85687000D01*
X42122196Y-85687000D01*
X41997177Y-85674687D01*
X41836758Y-85626024D01*
X41688924Y-85547005D01*
X41688922Y-85547004D01*
X41559341Y-85440659D01*
X41452996Y-85311078D01*
X41429584Y-85267277D01*
X41373976Y-85163242D01*
X41325313Y-85002823D01*
X41308883Y-84836000D01*
X41325313Y-84669177D01*
X41373976Y-84508758D01*
X41452995Y-84360924D01*
X41452996Y-84360922D01*
X41559341Y-84231341D01*
X41688922Y-84124996D01*
X41704094Y-84116886D01*
X41836758Y-84045976D01*
X41997177Y-83997313D01*
X42122196Y-83985000D01*
X42205804Y-83985000D01*
X42330823Y-83997313D01*
X42330823Y-83997313D01*
G37*
G36*
X74815968Y-84287065D02*
G01*
X74854638Y-84298796D01*
X74890277Y-84317846D01*
X74921517Y-84343483D01*
X74947154Y-84374723D01*
X74966204Y-84410362D01*
X74977935Y-84449032D01*
X74982500Y-84495388D01*
X74982500Y-85146612D01*
X74977935Y-85192968D01*
X74966204Y-85231638D01*
X74947154Y-85267277D01*
X74921517Y-85298517D01*
X74890277Y-85324154D01*
X74854638Y-85343204D01*
X74815968Y-85354935D01*
X74769612Y-85359500D01*
X73693388Y-85359500D01*
X73647032Y-85354935D01*
X73608362Y-85343204D01*
X73572723Y-85324154D01*
X73541483Y-85298517D01*
X73515846Y-85267277D01*
X73496796Y-85231638D01*
X73485065Y-85192968D01*
X73480500Y-85146612D01*
X73480500Y-84495388D01*
X73485065Y-84449032D01*
X73496796Y-84410362D01*
X73515846Y-84374723D01*
X73541483Y-84343483D01*
X73572723Y-84317846D01*
X73608362Y-84298796D01*
X73647032Y-84287065D01*
X73693388Y-84282500D01*
X74769612Y-84282500D01*
X74815968Y-84287065D01*
X74815968Y-84287065D01*
G37*
G36*
X69719000Y-85242500D02*
G01*
X68817000Y-85242500D01*
X68817000Y-84240500D01*
X69719000Y-84240500D01*
X69719000Y-85242500D01*
X69719000Y-85242500D01*
G37*
G36*
X67819000Y-85242500D02*
G01*
X66917000Y-85242500D01*
X66917000Y-84240500D01*
X67819000Y-84240500D01*
X67819000Y-85242500D01*
X67819000Y-85242500D01*
G37*
G36*
X65063468Y-83645065D02*
G01*
X65102138Y-83656796D01*
X65137777Y-83675846D01*
X65169017Y-83701483D01*
X65194654Y-83732723D01*
X65213704Y-83768362D01*
X65225435Y-83807032D01*
X65230000Y-83853388D01*
X65230000Y-84929612D01*
X65225435Y-84975968D01*
X65213704Y-85014638D01*
X65194654Y-85050277D01*
X65169017Y-85081517D01*
X65137777Y-85107154D01*
X65102138Y-85126204D01*
X65063468Y-85137935D01*
X65017112Y-85142500D01*
X64365888Y-85142500D01*
X64319532Y-85137935D01*
X64280862Y-85126204D01*
X64245223Y-85107154D01*
X64213983Y-85081517D01*
X64188346Y-85050277D01*
X64169296Y-85014638D01*
X64157565Y-84975968D01*
X64153000Y-84929612D01*
X64153000Y-83853388D01*
X64157565Y-83807032D01*
X64169296Y-83768362D01*
X64188346Y-83732723D01*
X64213983Y-83701483D01*
X64245223Y-83675846D01*
X64280862Y-83656796D01*
X64319532Y-83645065D01*
X64365888Y-83640500D01*
X65017112Y-83640500D01*
X65063468Y-83645065D01*
X65063468Y-83645065D01*
G37*
G36*
X63188468Y-83645065D02*
G01*
X63227138Y-83656796D01*
X63262777Y-83675846D01*
X63294017Y-83701483D01*
X63319654Y-83732723D01*
X63338704Y-83768362D01*
X63350435Y-83807032D01*
X63355000Y-83853388D01*
X63355000Y-84929612D01*
X63350435Y-84975968D01*
X63338704Y-85014638D01*
X63319654Y-85050277D01*
X63294017Y-85081517D01*
X63262777Y-85107154D01*
X63227138Y-85126204D01*
X63188468Y-85137935D01*
X63142112Y-85142500D01*
X62490888Y-85142500D01*
X62444532Y-85137935D01*
X62405862Y-85126204D01*
X62370223Y-85107154D01*
X62338983Y-85081517D01*
X62313346Y-85050277D01*
X62294296Y-85014638D01*
X62282565Y-84975968D01*
X62278000Y-84929612D01*
X62278000Y-83853388D01*
X62282565Y-83807032D01*
X62294296Y-83768362D01*
X62313346Y-83732723D01*
X62338983Y-83701483D01*
X62370223Y-83675846D01*
X62405862Y-83656796D01*
X62444532Y-83645065D01*
X62490888Y-83640500D01*
X63142112Y-83640500D01*
X63188468Y-83645065D01*
X63188468Y-83645065D01*
G37*
G36*
X74815968Y-82412065D02*
G01*
X74854638Y-82423796D01*
X74890277Y-82442846D01*
X74921517Y-82468483D01*
X74947154Y-82499723D01*
X74966204Y-82535362D01*
X74977935Y-82574032D01*
X74982500Y-82620388D01*
X74982500Y-83271612D01*
X74977935Y-83317968D01*
X74966204Y-83356638D01*
X74947154Y-83392277D01*
X74921517Y-83423517D01*
X74890277Y-83449154D01*
X74854638Y-83468204D01*
X74815968Y-83479935D01*
X74769612Y-83484500D01*
X73693388Y-83484500D01*
X73647032Y-83479935D01*
X73608362Y-83468204D01*
X73572723Y-83449154D01*
X73541483Y-83423517D01*
X73515846Y-83392277D01*
X73496796Y-83356638D01*
X73485065Y-83317968D01*
X73480500Y-83271612D01*
X73480500Y-82620388D01*
X73485065Y-82574032D01*
X73496796Y-82535362D01*
X73515846Y-82499723D01*
X73541483Y-82468483D01*
X73572723Y-82442846D01*
X73608362Y-82423796D01*
X73647032Y-82412065D01*
X73693388Y-82407500D01*
X74769612Y-82407500D01*
X74815968Y-82412065D01*
X74815968Y-82412065D01*
G37*
G36*
X68769000Y-83242500D02*
G01*
X67867000Y-83242500D01*
X67867000Y-82240500D01*
X68769000Y-82240500D01*
X68769000Y-83242500D01*
X68769000Y-83242500D01*
G37*
G36*
X57570823Y-81457313D02*
G01*
X57731242Y-81505976D01*
X57863906Y-81576886D01*
X57879078Y-81584996D01*
X58008659Y-81691341D01*
X58115004Y-81820922D01*
X58115005Y-81820924D01*
X58194024Y-81968758D01*
X58242687Y-82129177D01*
X58259117Y-82296000D01*
X58242687Y-82462823D01*
X58194024Y-82623242D01*
X58193500Y-82624222D01*
X58115004Y-82771078D01*
X58008659Y-82900659D01*
X57879078Y-83007004D01*
X57879076Y-83007005D01*
X57731242Y-83086024D01*
X57570823Y-83134687D01*
X57445804Y-83147000D01*
X57362196Y-83147000D01*
X57237177Y-83134687D01*
X57076758Y-83086024D01*
X56928924Y-83007005D01*
X56928922Y-83007004D01*
X56799341Y-82900659D01*
X56692996Y-82771078D01*
X56614500Y-82624222D01*
X56613976Y-82623242D01*
X56565313Y-82462823D01*
X56548883Y-82296000D01*
X56565313Y-82129177D01*
X56613976Y-81968758D01*
X56692995Y-81820924D01*
X56692996Y-81820922D01*
X56799341Y-81691341D01*
X56928922Y-81584996D01*
X56944094Y-81576886D01*
X57076758Y-81505976D01*
X57237177Y-81457313D01*
X57362196Y-81445000D01*
X57445804Y-81445000D01*
X57570823Y-81457313D01*
X57570823Y-81457313D01*
G37*
G36*
X42330823Y-81457313D02*
G01*
X42491242Y-81505976D01*
X42623906Y-81576886D01*
X42639078Y-81584996D01*
X42768659Y-81691341D01*
X42875004Y-81820922D01*
X42875005Y-81820924D01*
X42954024Y-81968758D01*
X43002687Y-82129177D01*
X43019117Y-82296000D01*
X43002687Y-82462823D01*
X42954024Y-82623242D01*
X42953500Y-82624222D01*
X42875004Y-82771078D01*
X42768659Y-82900659D01*
X42639078Y-83007004D01*
X42639076Y-83007005D01*
X42491242Y-83086024D01*
X42330823Y-83134687D01*
X42205804Y-83147000D01*
X42122196Y-83147000D01*
X41997177Y-83134687D01*
X41836758Y-83086024D01*
X41688924Y-83007005D01*
X41688922Y-83007004D01*
X41559341Y-82900659D01*
X41452996Y-82771078D01*
X41374500Y-82624222D01*
X41373976Y-82623242D01*
X41325313Y-82462823D01*
X41308883Y-82296000D01*
X41325313Y-82129177D01*
X41373976Y-81968758D01*
X41452995Y-81820924D01*
X41452996Y-81820922D01*
X41559341Y-81691341D01*
X41688922Y-81584996D01*
X41704094Y-81576886D01*
X41836758Y-81505976D01*
X41997177Y-81457313D01*
X42122196Y-81445000D01*
X42205804Y-81445000D01*
X42330823Y-81457313D01*
X42330823Y-81457313D01*
G37*
G36*
X65040368Y-81397165D02*
G01*
X65079038Y-81408896D01*
X65114677Y-81427946D01*
X65145917Y-81453583D01*
X65171554Y-81484823D01*
X65190604Y-81520462D01*
X65202335Y-81559132D01*
X65206900Y-81605488D01*
X65206900Y-82681712D01*
X65202335Y-82728068D01*
X65190604Y-82766738D01*
X65171554Y-82802377D01*
X65145917Y-82833617D01*
X65114677Y-82859254D01*
X65079038Y-82878304D01*
X65040368Y-82890035D01*
X64994012Y-82894600D01*
X64342788Y-82894600D01*
X64296432Y-82890035D01*
X64257762Y-82878304D01*
X64222123Y-82859254D01*
X64190883Y-82833617D01*
X64165246Y-82802377D01*
X64146196Y-82766738D01*
X64134465Y-82728068D01*
X64129900Y-82681712D01*
X64129900Y-81605488D01*
X64134465Y-81559132D01*
X64146196Y-81520462D01*
X64165246Y-81484823D01*
X64190883Y-81453583D01*
X64222123Y-81427946D01*
X64257762Y-81408896D01*
X64296432Y-81397165D01*
X64342788Y-81392600D01*
X64994012Y-81392600D01*
X65040368Y-81397165D01*
X65040368Y-81397165D01*
G37*
G36*
X63165368Y-81397165D02*
G01*
X63204038Y-81408896D01*
X63239677Y-81427946D01*
X63270917Y-81453583D01*
X63296554Y-81484823D01*
X63315604Y-81520462D01*
X63327335Y-81559132D01*
X63331900Y-81605488D01*
X63331900Y-82681712D01*
X63327335Y-82728068D01*
X63315604Y-82766738D01*
X63296554Y-82802377D01*
X63270917Y-82833617D01*
X63239677Y-82859254D01*
X63204038Y-82878304D01*
X63165368Y-82890035D01*
X63119012Y-82894600D01*
X62467788Y-82894600D01*
X62421432Y-82890035D01*
X62382762Y-82878304D01*
X62347123Y-82859254D01*
X62315883Y-82833617D01*
X62290246Y-82802377D01*
X62271196Y-82766738D01*
X62259465Y-82728068D01*
X62254900Y-82681712D01*
X62254900Y-81605488D01*
X62259465Y-81559132D01*
X62271196Y-81520462D01*
X62290246Y-81484823D01*
X62315883Y-81453583D01*
X62347123Y-81427946D01*
X62382762Y-81408896D01*
X62421432Y-81397165D01*
X62467788Y-81392600D01*
X63119012Y-81392600D01*
X63165368Y-81397165D01*
X63165368Y-81397165D01*
G37*
G36*
X68898443Y-71043748D02*
G01*
X69453689Y-71273738D01*
X69589941Y-71364779D01*
X69953399Y-71607634D01*
X70378366Y-72032601D01*
X70378367Y-72032603D01*
X70712262Y-72532311D01*
X70942252Y-73087557D01*
X71059500Y-73677001D01*
X71059500Y-74277999D01*
X70942252Y-74867443D01*
X70712262Y-75422689D01*
X70712261Y-75422690D01*
X70378366Y-75922399D01*
X69953399Y-76347366D01*
X69807610Y-76444779D01*
X69453689Y-76681262D01*
X68898443Y-76911252D01*
X68308999Y-77028500D01*
X67708001Y-77028500D01*
X67118557Y-76911252D01*
X66563311Y-76681262D01*
X66209390Y-76444779D01*
X66063601Y-76347366D01*
X65638634Y-75922399D01*
X65304739Y-75422690D01*
X65304738Y-75422689D01*
X65074748Y-74867443D01*
X64957500Y-74277999D01*
X64957500Y-73677001D01*
X65074748Y-73087557D01*
X65304738Y-72532311D01*
X65638633Y-72032603D01*
X65638634Y-72032601D01*
X66063601Y-71607634D01*
X66427059Y-71364779D01*
X66563311Y-71273738D01*
X67118557Y-71043748D01*
X67708001Y-70926500D01*
X68308999Y-70926500D01*
X68898443Y-71043748D01*
X68898443Y-71043748D01*
G37*
G36*
X92566442Y-74797518D02*
G01*
X92632627Y-74804037D01*
X92802466Y-74855557D01*
X92958991Y-74939222D01*
X92994729Y-74968552D01*
X93096186Y-75051814D01*
X93179448Y-75153271D01*
X93208778Y-75189009D01*
X93292443Y-75345534D01*
X93343963Y-75515373D01*
X93361359Y-75692000D01*
X93343963Y-75868627D01*
X93292443Y-76038466D01*
X93208778Y-76194991D01*
X93179448Y-76230729D01*
X93096186Y-76332186D01*
X92994729Y-76415448D01*
X92958991Y-76444778D01*
X92802466Y-76528443D01*
X92632627Y-76579963D01*
X92566443Y-76586481D01*
X92500260Y-76593000D01*
X92411740Y-76593000D01*
X92345557Y-76586481D01*
X92279373Y-76579963D01*
X92109534Y-76528443D01*
X91953009Y-76444778D01*
X91917271Y-76415448D01*
X91815814Y-76332186D01*
X91732552Y-76230729D01*
X91703222Y-76194991D01*
X91619557Y-76038466D01*
X91568037Y-75868627D01*
X91550641Y-75692000D01*
X91568037Y-75515373D01*
X91619557Y-75345534D01*
X91703222Y-75189009D01*
X91732552Y-75153271D01*
X91815814Y-75051814D01*
X91917271Y-74968552D01*
X91953009Y-74939222D01*
X92109534Y-74855557D01*
X92279373Y-74804037D01*
X92345558Y-74797518D01*
X92411740Y-74791000D01*
X92500260Y-74791000D01*
X92566442Y-74797518D01*
X92566442Y-74797518D01*
G37*
G36*
X92566443Y-72257519D02*
G01*
X92632627Y-72264037D01*
X92802466Y-72315557D01*
X92958991Y-72399222D01*
X92994729Y-72428552D01*
X93096186Y-72511814D01*
X93179448Y-72613271D01*
X93208778Y-72649009D01*
X93292443Y-72805534D01*
X93343963Y-72975373D01*
X93361359Y-73152000D01*
X93343963Y-73328627D01*
X93292443Y-73498466D01*
X93208778Y-73654991D01*
X93190713Y-73677003D01*
X93096186Y-73792186D01*
X92994729Y-73875448D01*
X92958991Y-73904778D01*
X92802466Y-73988443D01*
X92632627Y-74039963D01*
X92566442Y-74046482D01*
X92500260Y-74053000D01*
X92411740Y-74053000D01*
X92345558Y-74046482D01*
X92279373Y-74039963D01*
X92109534Y-73988443D01*
X91953009Y-73904778D01*
X91917271Y-73875448D01*
X91815814Y-73792186D01*
X91721287Y-73677003D01*
X91703222Y-73654991D01*
X91619557Y-73498466D01*
X91568037Y-73328627D01*
X91550641Y-73152000D01*
X91568037Y-72975373D01*
X91619557Y-72805534D01*
X91703222Y-72649009D01*
X91732552Y-72613271D01*
X91815814Y-72511814D01*
X91917271Y-72428552D01*
X91953009Y-72399222D01*
X92109534Y-72315557D01*
X92279373Y-72264037D01*
X92345557Y-72257519D01*
X92411740Y-72251000D01*
X92500260Y-72251000D01*
X92566443Y-72257519D01*
X92566443Y-72257519D01*
G37*
G36*
X92566442Y-69717518D02*
G01*
X92632627Y-69724037D01*
X92802466Y-69775557D01*
X92958991Y-69859222D01*
X92994729Y-69888552D01*
X93096186Y-69971814D01*
X93179448Y-70073271D01*
X93208778Y-70109009D01*
X93292443Y-70265534D01*
X93343963Y-70435373D01*
X93361359Y-70612000D01*
X93343963Y-70788627D01*
X93292443Y-70958466D01*
X93208778Y-71114991D01*
X93179448Y-71150729D01*
X93096186Y-71252186D01*
X92994729Y-71335448D01*
X92958991Y-71364778D01*
X92802466Y-71448443D01*
X92632627Y-71499963D01*
X92566443Y-71506481D01*
X92500260Y-71513000D01*
X92411740Y-71513000D01*
X92345557Y-71506481D01*
X92279373Y-71499963D01*
X92109534Y-71448443D01*
X91953009Y-71364778D01*
X91917271Y-71335448D01*
X91815814Y-71252186D01*
X91732552Y-71150729D01*
X91703222Y-71114991D01*
X91619557Y-70958466D01*
X91568037Y-70788627D01*
X91550641Y-70612000D01*
X91568037Y-70435373D01*
X91619557Y-70265534D01*
X91703222Y-70109009D01*
X91732552Y-70073271D01*
X91815814Y-69971814D01*
X91917271Y-69888552D01*
X91953009Y-69859222D01*
X92109534Y-69775557D01*
X92279373Y-69724037D01*
X92345558Y-69717518D01*
X92411740Y-69711000D01*
X92500260Y-69711000D01*
X92566442Y-69717518D01*
X92566442Y-69717518D01*
G37*
G36*
X92566442Y-67177518D02*
G01*
X92632627Y-67184037D01*
X92802466Y-67235557D01*
X92958991Y-67319222D01*
X92994729Y-67348552D01*
X93096186Y-67431814D01*
X93179448Y-67533271D01*
X93208778Y-67569009D01*
X93292443Y-67725534D01*
X93343963Y-67895373D01*
X93361359Y-68072000D01*
X93343963Y-68248627D01*
X93292443Y-68418466D01*
X93208778Y-68574991D01*
X93179448Y-68610729D01*
X93096186Y-68712186D01*
X92994729Y-68795448D01*
X92958991Y-68824778D01*
X92802466Y-68908443D01*
X92632627Y-68959963D01*
X92566442Y-68966482D01*
X92500260Y-68973000D01*
X92411740Y-68973000D01*
X92345558Y-68966482D01*
X92279373Y-68959963D01*
X92109534Y-68908443D01*
X91953009Y-68824778D01*
X91917271Y-68795448D01*
X91815814Y-68712186D01*
X91732552Y-68610729D01*
X91703222Y-68574991D01*
X91619557Y-68418466D01*
X91568037Y-68248627D01*
X91550641Y-68072000D01*
X91568037Y-67895373D01*
X91619557Y-67725534D01*
X91703222Y-67569009D01*
X91732552Y-67533271D01*
X91815814Y-67431814D01*
X91917271Y-67348552D01*
X91953009Y-67319222D01*
X92109534Y-67235557D01*
X92279373Y-67184037D01*
X92345558Y-67177518D01*
X92411740Y-67171000D01*
X92500260Y-67171000D01*
X92566442Y-67177518D01*
X92566442Y-67177518D01*
G37*
G36*
X92566443Y-64637519D02*
G01*
X92632627Y-64644037D01*
X92802466Y-64695557D01*
X92958991Y-64779222D01*
X92994729Y-64808552D01*
X93096186Y-64891814D01*
X93179448Y-64993271D01*
X93208778Y-65029009D01*
X93292443Y-65185534D01*
X93343963Y-65355373D01*
X93361359Y-65532000D01*
X93343963Y-65708627D01*
X93292443Y-65878466D01*
X93208778Y-66034991D01*
X93179448Y-66070729D01*
X93096186Y-66172186D01*
X92994729Y-66255448D01*
X92958991Y-66284778D01*
X92802466Y-66368443D01*
X92632627Y-66419963D01*
X92566443Y-66426481D01*
X92500260Y-66433000D01*
X92411740Y-66433000D01*
X92345557Y-66426481D01*
X92279373Y-66419963D01*
X92109534Y-66368443D01*
X91953009Y-66284778D01*
X91917271Y-66255448D01*
X91815814Y-66172186D01*
X91732552Y-66070729D01*
X91703222Y-66034991D01*
X91619557Y-65878466D01*
X91568037Y-65708627D01*
X91550641Y-65532000D01*
X91568037Y-65355373D01*
X91619557Y-65185534D01*
X91703222Y-65029009D01*
X91732552Y-64993271D01*
X91815814Y-64891814D01*
X91917271Y-64808552D01*
X91953009Y-64779222D01*
X92109534Y-64695557D01*
X92279373Y-64644037D01*
X92345557Y-64637519D01*
X92411740Y-64631000D01*
X92500260Y-64631000D01*
X92566443Y-64637519D01*
X92566443Y-64637519D01*
G37*
G36*
X92566443Y-62097519D02*
G01*
X92632627Y-62104037D01*
X92802466Y-62155557D01*
X92958991Y-62239222D01*
X92994729Y-62268552D01*
X93096186Y-62351814D01*
X93179448Y-62453271D01*
X93208778Y-62489009D01*
X93292443Y-62645534D01*
X93343963Y-62815373D01*
X93361359Y-62992000D01*
X93343963Y-63168627D01*
X93292443Y-63338466D01*
X93208778Y-63494991D01*
X93179448Y-63530729D01*
X93096186Y-63632186D01*
X92994729Y-63715448D01*
X92958991Y-63744778D01*
X92802466Y-63828443D01*
X92632627Y-63879963D01*
X92566442Y-63886482D01*
X92500260Y-63893000D01*
X92411740Y-63893000D01*
X92345558Y-63886482D01*
X92279373Y-63879963D01*
X92109534Y-63828443D01*
X91953009Y-63744778D01*
X91917271Y-63715448D01*
X91815814Y-63632186D01*
X91732552Y-63530729D01*
X91703222Y-63494991D01*
X91619557Y-63338466D01*
X91568037Y-63168627D01*
X91550641Y-62992000D01*
X91568037Y-62815373D01*
X91619557Y-62645534D01*
X91703222Y-62489009D01*
X91732552Y-62453271D01*
X91815814Y-62351814D01*
X91917271Y-62268552D01*
X91953009Y-62239222D01*
X92109534Y-62155557D01*
X92279373Y-62104037D01*
X92345557Y-62097519D01*
X92411740Y-62091000D01*
X92500260Y-62091000D01*
X92566443Y-62097519D01*
X92566443Y-62097519D01*
G37*
G36*
X92566443Y-59557519D02*
G01*
X92632627Y-59564037D01*
X92802466Y-59615557D01*
X92958991Y-59699222D01*
X92994729Y-59728552D01*
X93096186Y-59811814D01*
X93179448Y-59913271D01*
X93208778Y-59949009D01*
X93292443Y-60105534D01*
X93343963Y-60275373D01*
X93361359Y-60452000D01*
X93343963Y-60628627D01*
X93292443Y-60798466D01*
X93208778Y-60954991D01*
X93179448Y-60990729D01*
X93096186Y-61092186D01*
X92994729Y-61175448D01*
X92958991Y-61204778D01*
X92802466Y-61288443D01*
X92632627Y-61339963D01*
X92566443Y-61346481D01*
X92500260Y-61353000D01*
X92411740Y-61353000D01*
X92345557Y-61346481D01*
X92279373Y-61339963D01*
X92109534Y-61288443D01*
X91953009Y-61204778D01*
X91917271Y-61175448D01*
X91815814Y-61092186D01*
X91732552Y-60990729D01*
X91703222Y-60954991D01*
X91619557Y-60798466D01*
X91568037Y-60628627D01*
X91550641Y-60452000D01*
X91568037Y-60275373D01*
X91619557Y-60105534D01*
X91703222Y-59949009D01*
X91732552Y-59913271D01*
X91815814Y-59811814D01*
X91917271Y-59728552D01*
X91953009Y-59699222D01*
X92109534Y-59615557D01*
X92279373Y-59564037D01*
X92345557Y-59557519D01*
X92411740Y-59551000D01*
X92500260Y-59551000D01*
X92566443Y-59557519D01*
X92566443Y-59557519D01*
G37*
G36*
X93357000Y-58813000D02*
G01*
X91555000Y-58813000D01*
X91555000Y-57011000D01*
X93357000Y-57011000D01*
X93357000Y-58813000D01*
X93357000Y-58813000D01*
G37*
G36*
X81332564Y-52553389D02*
G01*
X81523833Y-52632615D01*
X81523835Y-52632616D01*
X81695973Y-52747635D01*
X81842365Y-52894027D01*
X81957385Y-53066167D01*
X82036611Y-53257436D01*
X82077000Y-53460484D01*
X82077000Y-53667516D01*
X82036611Y-53870564D01*
X81957385Y-54061833D01*
X81957384Y-54061835D01*
X81842365Y-54233973D01*
X81695973Y-54380365D01*
X81523835Y-54495384D01*
X81523834Y-54495385D01*
X81523833Y-54495385D01*
X81332564Y-54574611D01*
X81129516Y-54615000D01*
X80922484Y-54615000D01*
X80719436Y-54574611D01*
X80528167Y-54495385D01*
X80528166Y-54495385D01*
X80528165Y-54495384D01*
X80356027Y-54380365D01*
X80209635Y-54233973D01*
X80094616Y-54061835D01*
X80094615Y-54061833D01*
X80015389Y-53870564D01*
X79975000Y-53667516D01*
X79975000Y-53460484D01*
X80015389Y-53257436D01*
X80094615Y-53066167D01*
X80209635Y-52894027D01*
X80356027Y-52747635D01*
X80528165Y-52632616D01*
X80528167Y-52632615D01*
X80719436Y-52553389D01*
X80922484Y-52513000D01*
X81129516Y-52513000D01*
X81332564Y-52553389D01*
X81332564Y-52553389D01*
G37*
G36*
X87832564Y-52553389D02*
G01*
X88023833Y-52632615D01*
X88023835Y-52632616D01*
X88195973Y-52747635D01*
X88342365Y-52894027D01*
X88457385Y-53066167D01*
X88536611Y-53257436D01*
X88577000Y-53460484D01*
X88577000Y-53667516D01*
X88536611Y-53870564D01*
X88457385Y-54061833D01*
X88457384Y-54061835D01*
X88342365Y-54233973D01*
X88195973Y-54380365D01*
X88023835Y-54495384D01*
X88023834Y-54495385D01*
X88023833Y-54495385D01*
X87832564Y-54574611D01*
X87629516Y-54615000D01*
X87422484Y-54615000D01*
X87219436Y-54574611D01*
X87028167Y-54495385D01*
X87028166Y-54495385D01*
X87028165Y-54495384D01*
X86856027Y-54380365D01*
X86709635Y-54233973D01*
X86594616Y-54061835D01*
X86594615Y-54061833D01*
X86515389Y-53870564D01*
X86475000Y-53667516D01*
X86475000Y-53460484D01*
X86515389Y-53257436D01*
X86594615Y-53066167D01*
X86709635Y-52894027D01*
X86856027Y-52747635D01*
X87028165Y-52632616D01*
X87028167Y-52632615D01*
X87219436Y-52553389D01*
X87422484Y-52513000D01*
X87629516Y-52513000D01*
X87832564Y-52553389D01*
X87832564Y-52553389D01*
G37*
G36*
X55066564Y-52553389D02*
G01*
X55257833Y-52632615D01*
X55257835Y-52632616D01*
X55429973Y-52747635D01*
X55576365Y-52894027D01*
X55691385Y-53066167D01*
X55770611Y-53257436D01*
X55811000Y-53460484D01*
X55811000Y-53667516D01*
X55770611Y-53870564D01*
X55691385Y-54061833D01*
X55691384Y-54061835D01*
X55576365Y-54233973D01*
X55429973Y-54380365D01*
X55257835Y-54495384D01*
X55257834Y-54495385D01*
X55257833Y-54495385D01*
X55066564Y-54574611D01*
X54863516Y-54615000D01*
X54656484Y-54615000D01*
X54453436Y-54574611D01*
X54262167Y-54495385D01*
X54262166Y-54495385D01*
X54262165Y-54495384D01*
X54090027Y-54380365D01*
X53943635Y-54233973D01*
X53828616Y-54061835D01*
X53828615Y-54061833D01*
X53749389Y-53870564D01*
X53709000Y-53667516D01*
X53709000Y-53460484D01*
X53749389Y-53257436D01*
X53828615Y-53066167D01*
X53943635Y-52894027D01*
X54090027Y-52747635D01*
X54262165Y-52632616D01*
X54262167Y-52632615D01*
X54453436Y-52553389D01*
X54656484Y-52513000D01*
X54863516Y-52513000D01*
X55066564Y-52553389D01*
X55066564Y-52553389D01*
G37*
G36*
X48566564Y-52553389D02*
G01*
X48757833Y-52632615D01*
X48757835Y-52632616D01*
X48929973Y-52747635D01*
X49076365Y-52894027D01*
X49191385Y-53066167D01*
X49270611Y-53257436D01*
X49311000Y-53460484D01*
X49311000Y-53667516D01*
X49270611Y-53870564D01*
X49191385Y-54061833D01*
X49191384Y-54061835D01*
X49076365Y-54233973D01*
X48929973Y-54380365D01*
X48757835Y-54495384D01*
X48757834Y-54495385D01*
X48757833Y-54495385D01*
X48566564Y-54574611D01*
X48363516Y-54615000D01*
X48156484Y-54615000D01*
X47953436Y-54574611D01*
X47762167Y-54495385D01*
X47762166Y-54495385D01*
X47762165Y-54495384D01*
X47590027Y-54380365D01*
X47443635Y-54233973D01*
X47328616Y-54061835D01*
X47328615Y-54061833D01*
X47249389Y-53870564D01*
X47209000Y-53667516D01*
X47209000Y-53460484D01*
X47249389Y-53257436D01*
X47328615Y-53066167D01*
X47443635Y-52894027D01*
X47590027Y-52747635D01*
X47762165Y-52632616D01*
X47762167Y-52632615D01*
X47953436Y-52553389D01*
X48156484Y-52513000D01*
X48363516Y-52513000D01*
X48566564Y-52553389D01*
X48566564Y-52553389D01*
G37*
G36*
X68302585Y-49151802D02*
G01*
X68452410Y-49181604D01*
X68734674Y-49298521D01*
X68988705Y-49468259D01*
X69204741Y-49684295D01*
X69374479Y-49938326D01*
X69491396Y-50220590D01*
X69551000Y-50520240D01*
X69551000Y-50825760D01*
X69491396Y-51125410D01*
X69374479Y-51407674D01*
X69204741Y-51661705D01*
X68988705Y-51877741D01*
X68734674Y-52047479D01*
X68452410Y-52164396D01*
X68302585Y-52194198D01*
X68152761Y-52224000D01*
X67847239Y-52224000D01*
X67697415Y-52194198D01*
X67547590Y-52164396D01*
X67265326Y-52047479D01*
X67011295Y-51877741D01*
X66795259Y-51661705D01*
X66625521Y-51407674D01*
X66508604Y-51125410D01*
X66449000Y-50825760D01*
X66449000Y-50520240D01*
X66508604Y-50220590D01*
X66625521Y-49938326D01*
X66795259Y-49684295D01*
X67011295Y-49468259D01*
X67265326Y-49298521D01*
X67547590Y-49181604D01*
X67697415Y-49151802D01*
X67847239Y-49122000D01*
X68152761Y-49122000D01*
X68302585Y-49151802D01*
X68302585Y-49151802D01*
G37*
G36*
X81332564Y-48053389D02*
G01*
X81523833Y-48132615D01*
X81523835Y-48132616D01*
X81695973Y-48247635D01*
X81842365Y-48394027D01*
X81957385Y-48566167D01*
X82036611Y-48757436D01*
X82077000Y-48960484D01*
X82077000Y-49167516D01*
X82036611Y-49370564D01*
X81996144Y-49468260D01*
X81957384Y-49561835D01*
X81842365Y-49733973D01*
X81695973Y-49880365D01*
X81523835Y-49995384D01*
X81523834Y-49995385D01*
X81523833Y-49995385D01*
X81332564Y-50074611D01*
X81129516Y-50115000D01*
X80922484Y-50115000D01*
X80719436Y-50074611D01*
X80528167Y-49995385D01*
X80528166Y-49995385D01*
X80528165Y-49995384D01*
X80356027Y-49880365D01*
X80209635Y-49733973D01*
X80094616Y-49561835D01*
X80055856Y-49468260D01*
X80015389Y-49370564D01*
X79975000Y-49167516D01*
X79975000Y-48960484D01*
X80015389Y-48757436D01*
X80094615Y-48566167D01*
X80209635Y-48394027D01*
X80356027Y-48247635D01*
X80528165Y-48132616D01*
X80528167Y-48132615D01*
X80719436Y-48053389D01*
X80922484Y-48013000D01*
X81129516Y-48013000D01*
X81332564Y-48053389D01*
X81332564Y-48053389D01*
G37*
G36*
X87832564Y-48053389D02*
G01*
X88023833Y-48132615D01*
X88023835Y-48132616D01*
X88195973Y-48247635D01*
X88342365Y-48394027D01*
X88457385Y-48566167D01*
X88536611Y-48757436D01*
X88577000Y-48960484D01*
X88577000Y-49167516D01*
X88536611Y-49370564D01*
X88496144Y-49468260D01*
X88457384Y-49561835D01*
X88342365Y-49733973D01*
X88195973Y-49880365D01*
X88023835Y-49995384D01*
X88023834Y-49995385D01*
X88023833Y-49995385D01*
X87832564Y-50074611D01*
X87629516Y-50115000D01*
X87422484Y-50115000D01*
X87219436Y-50074611D01*
X87028167Y-49995385D01*
X87028166Y-49995385D01*
X87028165Y-49995384D01*
X86856027Y-49880365D01*
X86709635Y-49733973D01*
X86594616Y-49561835D01*
X86555856Y-49468260D01*
X86515389Y-49370564D01*
X86475000Y-49167516D01*
X86475000Y-48960484D01*
X86515389Y-48757436D01*
X86594615Y-48566167D01*
X86709635Y-48394027D01*
X86856027Y-48247635D01*
X87028165Y-48132616D01*
X87028167Y-48132615D01*
X87219436Y-48053389D01*
X87422484Y-48013000D01*
X87629516Y-48013000D01*
X87832564Y-48053389D01*
X87832564Y-48053389D01*
G37*
G36*
X55066564Y-48053389D02*
G01*
X55257833Y-48132615D01*
X55257835Y-48132616D01*
X55429973Y-48247635D01*
X55576365Y-48394027D01*
X55691385Y-48566167D01*
X55770611Y-48757436D01*
X55811000Y-48960484D01*
X55811000Y-49167516D01*
X55770611Y-49370564D01*
X55730144Y-49468260D01*
X55691384Y-49561835D01*
X55576365Y-49733973D01*
X55429973Y-49880365D01*
X55257835Y-49995384D01*
X55257834Y-49995385D01*
X55257833Y-49995385D01*
X55066564Y-50074611D01*
X54863516Y-50115000D01*
X54656484Y-50115000D01*
X54453436Y-50074611D01*
X54262167Y-49995385D01*
X54262166Y-49995385D01*
X54262165Y-49995384D01*
X54090027Y-49880365D01*
X53943635Y-49733973D01*
X53828616Y-49561835D01*
X53789856Y-49468260D01*
X53749389Y-49370564D01*
X53709000Y-49167516D01*
X53709000Y-48960484D01*
X53749389Y-48757436D01*
X53828615Y-48566167D01*
X53943635Y-48394027D01*
X54090027Y-48247635D01*
X54262165Y-48132616D01*
X54262167Y-48132615D01*
X54453436Y-48053389D01*
X54656484Y-48013000D01*
X54863516Y-48013000D01*
X55066564Y-48053389D01*
X55066564Y-48053389D01*
G37*
G36*
X48566564Y-48053389D02*
G01*
X48757833Y-48132615D01*
X48757835Y-48132616D01*
X48929973Y-48247635D01*
X49076365Y-48394027D01*
X49191385Y-48566167D01*
X49270611Y-48757436D01*
X49311000Y-48960484D01*
X49311000Y-49167516D01*
X49270611Y-49370564D01*
X49230144Y-49468260D01*
X49191384Y-49561835D01*
X49076365Y-49733973D01*
X48929973Y-49880365D01*
X48757835Y-49995384D01*
X48757834Y-49995385D01*
X48757833Y-49995385D01*
X48566564Y-50074611D01*
X48363516Y-50115000D01*
X48156484Y-50115000D01*
X47953436Y-50074611D01*
X47762167Y-49995385D01*
X47762166Y-49995385D01*
X47762165Y-49995384D01*
X47590027Y-49880365D01*
X47443635Y-49733973D01*
X47328616Y-49561835D01*
X47289856Y-49468260D01*
X47249389Y-49370564D01*
X47209000Y-49167516D01*
X47209000Y-48960484D01*
X47249389Y-48757436D01*
X47328615Y-48566167D01*
X47443635Y-48394027D01*
X47590027Y-48247635D01*
X47762165Y-48132616D01*
X47762167Y-48132615D01*
X47953436Y-48053389D01*
X48156484Y-48013000D01*
X48363516Y-48013000D01*
X48566564Y-48053389D01*
X48566564Y-48053389D01*
G37*
M02*
