G04 #@! TF.GenerationSoftware,KiCad,Pcbnew,(5.1.4-0-10_14)*
G04 #@! TF.CreationDate,2020-11-05T16:31:29+00:00*
G04 #@! TF.ProjectId,OpenLaserMouse,4f70656e-4c61-4736-9572-4d6f7573652e,rev?*
G04 #@! TF.SameCoordinates,Original*
G04 #@! TF.FileFunction,Copper,L1,Top*
G04 #@! TF.FilePolarity,Positive*
%FSLAX46Y46*%
G04 Gerber Fmt 4.6, Leading zero omitted, Abs format (unit mm)*
G04 Created by KiCad (PCBNEW (5.1.4-0-10_14)) date 2020-11-05 16:31:29*
%MOMM*%
%LPD*%
G04 APERTURE LIST*
%ADD10C,2.000000*%
%ADD11O,1.700000X1.700000*%
%ADD12R,1.700000X1.700000*%
%ADD13O,1.600000X1.600000*%
%ADD14R,1.600000X1.600000*%
%ADD15C,0.100000*%
%ADD16C,0.975000*%
%ADD17R,0.800000X0.900000*%
%ADD18C,3.000000*%
%ADD19C,1.400000*%
%ADD20R,1.400000X1.400000*%
%ADD21C,0.800000*%
%ADD22C,0.250000*%
%ADD23C,0.254000*%
G04 APERTURE END LIST*
D10*
X87526000Y-49064000D03*
X87526000Y-53564000D03*
X81026000Y-49064000D03*
X81026000Y-53564000D03*
D11*
X92456000Y-75692000D03*
X92456000Y-73152000D03*
X92456000Y-70612000D03*
X92456000Y-68072000D03*
X92456000Y-65532000D03*
X92456000Y-62992000D03*
X92456000Y-60452000D03*
D12*
X92456000Y-57912000D03*
D10*
X54760000Y-49064000D03*
X54760000Y-53564000D03*
X48260000Y-49064000D03*
X48260000Y-53564000D03*
D13*
X42164000Y-82296000D03*
X57404000Y-82296000D03*
X42164000Y-117856000D03*
X57404000Y-84836000D03*
X42164000Y-115316000D03*
X57404000Y-87376000D03*
X42164000Y-112776000D03*
X57404000Y-89916000D03*
X42164000Y-110236000D03*
X57404000Y-92456000D03*
X42164000Y-107696000D03*
X57404000Y-94996000D03*
X42164000Y-105156000D03*
X57404000Y-97536000D03*
X42164000Y-102616000D03*
X57404000Y-100076000D03*
X42164000Y-100076000D03*
X57404000Y-102616000D03*
X42164000Y-97536000D03*
X57404000Y-105156000D03*
X42164000Y-94996000D03*
X57404000Y-107696000D03*
X42164000Y-92456000D03*
X57404000Y-110236000D03*
X42164000Y-89916000D03*
X57404000Y-112776000D03*
X42164000Y-87376000D03*
X57404000Y-115316000D03*
X42164000Y-84836000D03*
D14*
X57404000Y-117856000D03*
D15*
G36*
X80572042Y-112077174D02*
G01*
X80595703Y-112080684D01*
X80618907Y-112086496D01*
X80641429Y-112094554D01*
X80663053Y-112104782D01*
X80683570Y-112117079D01*
X80702783Y-112131329D01*
X80720507Y-112147393D01*
X80736571Y-112165117D01*
X80750821Y-112184330D01*
X80763118Y-112204847D01*
X80773346Y-112226471D01*
X80781404Y-112248993D01*
X80787216Y-112272197D01*
X80790726Y-112295858D01*
X80791900Y-112319750D01*
X80791900Y-113232250D01*
X80790726Y-113256142D01*
X80787216Y-113279803D01*
X80781404Y-113303007D01*
X80773346Y-113325529D01*
X80763118Y-113347153D01*
X80750821Y-113367670D01*
X80736571Y-113386883D01*
X80720507Y-113404607D01*
X80702783Y-113420671D01*
X80683570Y-113434921D01*
X80663053Y-113447218D01*
X80641429Y-113457446D01*
X80618907Y-113465504D01*
X80595703Y-113471316D01*
X80572042Y-113474826D01*
X80548150Y-113476000D01*
X80060650Y-113476000D01*
X80036758Y-113474826D01*
X80013097Y-113471316D01*
X79989893Y-113465504D01*
X79967371Y-113457446D01*
X79945747Y-113447218D01*
X79925230Y-113434921D01*
X79906017Y-113420671D01*
X79888293Y-113404607D01*
X79872229Y-113386883D01*
X79857979Y-113367670D01*
X79845682Y-113347153D01*
X79835454Y-113325529D01*
X79827396Y-113303007D01*
X79821584Y-113279803D01*
X79818074Y-113256142D01*
X79816900Y-113232250D01*
X79816900Y-112319750D01*
X79818074Y-112295858D01*
X79821584Y-112272197D01*
X79827396Y-112248993D01*
X79835454Y-112226471D01*
X79845682Y-112204847D01*
X79857979Y-112184330D01*
X79872229Y-112165117D01*
X79888293Y-112147393D01*
X79906017Y-112131329D01*
X79925230Y-112117079D01*
X79945747Y-112104782D01*
X79967371Y-112094554D01*
X79989893Y-112086496D01*
X80013097Y-112080684D01*
X80036758Y-112077174D01*
X80060650Y-112076000D01*
X80548150Y-112076000D01*
X80572042Y-112077174D01*
X80572042Y-112077174D01*
G37*
D16*
X80304400Y-112776000D03*
D15*
G36*
X82447042Y-112077174D02*
G01*
X82470703Y-112080684D01*
X82493907Y-112086496D01*
X82516429Y-112094554D01*
X82538053Y-112104782D01*
X82558570Y-112117079D01*
X82577783Y-112131329D01*
X82595507Y-112147393D01*
X82611571Y-112165117D01*
X82625821Y-112184330D01*
X82638118Y-112204847D01*
X82648346Y-112226471D01*
X82656404Y-112248993D01*
X82662216Y-112272197D01*
X82665726Y-112295858D01*
X82666900Y-112319750D01*
X82666900Y-113232250D01*
X82665726Y-113256142D01*
X82662216Y-113279803D01*
X82656404Y-113303007D01*
X82648346Y-113325529D01*
X82638118Y-113347153D01*
X82625821Y-113367670D01*
X82611571Y-113386883D01*
X82595507Y-113404607D01*
X82577783Y-113420671D01*
X82558570Y-113434921D01*
X82538053Y-113447218D01*
X82516429Y-113457446D01*
X82493907Y-113465504D01*
X82470703Y-113471316D01*
X82447042Y-113474826D01*
X82423150Y-113476000D01*
X81935650Y-113476000D01*
X81911758Y-113474826D01*
X81888097Y-113471316D01*
X81864893Y-113465504D01*
X81842371Y-113457446D01*
X81820747Y-113447218D01*
X81800230Y-113434921D01*
X81781017Y-113420671D01*
X81763293Y-113404607D01*
X81747229Y-113386883D01*
X81732979Y-113367670D01*
X81720682Y-113347153D01*
X81710454Y-113325529D01*
X81702396Y-113303007D01*
X81696584Y-113279803D01*
X81693074Y-113256142D01*
X81691900Y-113232250D01*
X81691900Y-112319750D01*
X81693074Y-112295858D01*
X81696584Y-112272197D01*
X81702396Y-112248993D01*
X81710454Y-112226471D01*
X81720682Y-112204847D01*
X81732979Y-112184330D01*
X81747229Y-112165117D01*
X81763293Y-112147393D01*
X81781017Y-112131329D01*
X81800230Y-112117079D01*
X81820747Y-112104782D01*
X81842371Y-112094554D01*
X81864893Y-112086496D01*
X81888097Y-112080684D01*
X81911758Y-112077174D01*
X81935650Y-112076000D01*
X82423150Y-112076000D01*
X82447042Y-112077174D01*
X82447042Y-112077174D01*
G37*
D16*
X82179400Y-112776000D03*
D15*
G36*
X76114342Y-112077174D02*
G01*
X76138003Y-112080684D01*
X76161207Y-112086496D01*
X76183729Y-112094554D01*
X76205353Y-112104782D01*
X76225870Y-112117079D01*
X76245083Y-112131329D01*
X76262807Y-112147393D01*
X76278871Y-112165117D01*
X76293121Y-112184330D01*
X76305418Y-112204847D01*
X76315646Y-112226471D01*
X76323704Y-112248993D01*
X76329516Y-112272197D01*
X76333026Y-112295858D01*
X76334200Y-112319750D01*
X76334200Y-113232250D01*
X76333026Y-113256142D01*
X76329516Y-113279803D01*
X76323704Y-113303007D01*
X76315646Y-113325529D01*
X76305418Y-113347153D01*
X76293121Y-113367670D01*
X76278871Y-113386883D01*
X76262807Y-113404607D01*
X76245083Y-113420671D01*
X76225870Y-113434921D01*
X76205353Y-113447218D01*
X76183729Y-113457446D01*
X76161207Y-113465504D01*
X76138003Y-113471316D01*
X76114342Y-113474826D01*
X76090450Y-113476000D01*
X75602950Y-113476000D01*
X75579058Y-113474826D01*
X75555397Y-113471316D01*
X75532193Y-113465504D01*
X75509671Y-113457446D01*
X75488047Y-113447218D01*
X75467530Y-113434921D01*
X75448317Y-113420671D01*
X75430593Y-113404607D01*
X75414529Y-113386883D01*
X75400279Y-113367670D01*
X75387982Y-113347153D01*
X75377754Y-113325529D01*
X75369696Y-113303007D01*
X75363884Y-113279803D01*
X75360374Y-113256142D01*
X75359200Y-113232250D01*
X75359200Y-112319750D01*
X75360374Y-112295858D01*
X75363884Y-112272197D01*
X75369696Y-112248993D01*
X75377754Y-112226471D01*
X75387982Y-112204847D01*
X75400279Y-112184330D01*
X75414529Y-112165117D01*
X75430593Y-112147393D01*
X75448317Y-112131329D01*
X75467530Y-112117079D01*
X75488047Y-112104782D01*
X75509671Y-112094554D01*
X75532193Y-112086496D01*
X75555397Y-112080684D01*
X75579058Y-112077174D01*
X75602950Y-112076000D01*
X76090450Y-112076000D01*
X76114342Y-112077174D01*
X76114342Y-112077174D01*
G37*
D16*
X75846700Y-112776000D03*
D15*
G36*
X77989342Y-112077174D02*
G01*
X78013003Y-112080684D01*
X78036207Y-112086496D01*
X78058729Y-112094554D01*
X78080353Y-112104782D01*
X78100870Y-112117079D01*
X78120083Y-112131329D01*
X78137807Y-112147393D01*
X78153871Y-112165117D01*
X78168121Y-112184330D01*
X78180418Y-112204847D01*
X78190646Y-112226471D01*
X78198704Y-112248993D01*
X78204516Y-112272197D01*
X78208026Y-112295858D01*
X78209200Y-112319750D01*
X78209200Y-113232250D01*
X78208026Y-113256142D01*
X78204516Y-113279803D01*
X78198704Y-113303007D01*
X78190646Y-113325529D01*
X78180418Y-113347153D01*
X78168121Y-113367670D01*
X78153871Y-113386883D01*
X78137807Y-113404607D01*
X78120083Y-113420671D01*
X78100870Y-113434921D01*
X78080353Y-113447218D01*
X78058729Y-113457446D01*
X78036207Y-113465504D01*
X78013003Y-113471316D01*
X77989342Y-113474826D01*
X77965450Y-113476000D01*
X77477950Y-113476000D01*
X77454058Y-113474826D01*
X77430397Y-113471316D01*
X77407193Y-113465504D01*
X77384671Y-113457446D01*
X77363047Y-113447218D01*
X77342530Y-113434921D01*
X77323317Y-113420671D01*
X77305593Y-113404607D01*
X77289529Y-113386883D01*
X77275279Y-113367670D01*
X77262982Y-113347153D01*
X77252754Y-113325529D01*
X77244696Y-113303007D01*
X77238884Y-113279803D01*
X77235374Y-113256142D01*
X77234200Y-113232250D01*
X77234200Y-112319750D01*
X77235374Y-112295858D01*
X77238884Y-112272197D01*
X77244696Y-112248993D01*
X77252754Y-112226471D01*
X77262982Y-112204847D01*
X77275279Y-112184330D01*
X77289529Y-112165117D01*
X77305593Y-112147393D01*
X77323317Y-112131329D01*
X77342530Y-112117079D01*
X77363047Y-112104782D01*
X77384671Y-112094554D01*
X77407193Y-112086496D01*
X77430397Y-112080684D01*
X77454058Y-112077174D01*
X77477950Y-112076000D01*
X77965450Y-112076000D01*
X77989342Y-112077174D01*
X77989342Y-112077174D01*
G37*
D16*
X77721700Y-112776000D03*
D15*
G36*
X80572042Y-109676374D02*
G01*
X80595703Y-109679884D01*
X80618907Y-109685696D01*
X80641429Y-109693754D01*
X80663053Y-109703982D01*
X80683570Y-109716279D01*
X80702783Y-109730529D01*
X80720507Y-109746593D01*
X80736571Y-109764317D01*
X80750821Y-109783530D01*
X80763118Y-109804047D01*
X80773346Y-109825671D01*
X80781404Y-109848193D01*
X80787216Y-109871397D01*
X80790726Y-109895058D01*
X80791900Y-109918950D01*
X80791900Y-110831450D01*
X80790726Y-110855342D01*
X80787216Y-110879003D01*
X80781404Y-110902207D01*
X80773346Y-110924729D01*
X80763118Y-110946353D01*
X80750821Y-110966870D01*
X80736571Y-110986083D01*
X80720507Y-111003807D01*
X80702783Y-111019871D01*
X80683570Y-111034121D01*
X80663053Y-111046418D01*
X80641429Y-111056646D01*
X80618907Y-111064704D01*
X80595703Y-111070516D01*
X80572042Y-111074026D01*
X80548150Y-111075200D01*
X80060650Y-111075200D01*
X80036758Y-111074026D01*
X80013097Y-111070516D01*
X79989893Y-111064704D01*
X79967371Y-111056646D01*
X79945747Y-111046418D01*
X79925230Y-111034121D01*
X79906017Y-111019871D01*
X79888293Y-111003807D01*
X79872229Y-110986083D01*
X79857979Y-110966870D01*
X79845682Y-110946353D01*
X79835454Y-110924729D01*
X79827396Y-110902207D01*
X79821584Y-110879003D01*
X79818074Y-110855342D01*
X79816900Y-110831450D01*
X79816900Y-109918950D01*
X79818074Y-109895058D01*
X79821584Y-109871397D01*
X79827396Y-109848193D01*
X79835454Y-109825671D01*
X79845682Y-109804047D01*
X79857979Y-109783530D01*
X79872229Y-109764317D01*
X79888293Y-109746593D01*
X79906017Y-109730529D01*
X79925230Y-109716279D01*
X79945747Y-109703982D01*
X79967371Y-109693754D01*
X79989893Y-109685696D01*
X80013097Y-109679884D01*
X80036758Y-109676374D01*
X80060650Y-109675200D01*
X80548150Y-109675200D01*
X80572042Y-109676374D01*
X80572042Y-109676374D01*
G37*
D16*
X80304400Y-110375200D03*
D15*
G36*
X82447042Y-109676374D02*
G01*
X82470703Y-109679884D01*
X82493907Y-109685696D01*
X82516429Y-109693754D01*
X82538053Y-109703982D01*
X82558570Y-109716279D01*
X82577783Y-109730529D01*
X82595507Y-109746593D01*
X82611571Y-109764317D01*
X82625821Y-109783530D01*
X82638118Y-109804047D01*
X82648346Y-109825671D01*
X82656404Y-109848193D01*
X82662216Y-109871397D01*
X82665726Y-109895058D01*
X82666900Y-109918950D01*
X82666900Y-110831450D01*
X82665726Y-110855342D01*
X82662216Y-110879003D01*
X82656404Y-110902207D01*
X82648346Y-110924729D01*
X82638118Y-110946353D01*
X82625821Y-110966870D01*
X82611571Y-110986083D01*
X82595507Y-111003807D01*
X82577783Y-111019871D01*
X82558570Y-111034121D01*
X82538053Y-111046418D01*
X82516429Y-111056646D01*
X82493907Y-111064704D01*
X82470703Y-111070516D01*
X82447042Y-111074026D01*
X82423150Y-111075200D01*
X81935650Y-111075200D01*
X81911758Y-111074026D01*
X81888097Y-111070516D01*
X81864893Y-111064704D01*
X81842371Y-111056646D01*
X81820747Y-111046418D01*
X81800230Y-111034121D01*
X81781017Y-111019871D01*
X81763293Y-111003807D01*
X81747229Y-110986083D01*
X81732979Y-110966870D01*
X81720682Y-110946353D01*
X81710454Y-110924729D01*
X81702396Y-110902207D01*
X81696584Y-110879003D01*
X81693074Y-110855342D01*
X81691900Y-110831450D01*
X81691900Y-109918950D01*
X81693074Y-109895058D01*
X81696584Y-109871397D01*
X81702396Y-109848193D01*
X81710454Y-109825671D01*
X81720682Y-109804047D01*
X81732979Y-109783530D01*
X81747229Y-109764317D01*
X81763293Y-109746593D01*
X81781017Y-109730529D01*
X81800230Y-109716279D01*
X81820747Y-109703982D01*
X81842371Y-109693754D01*
X81864893Y-109685696D01*
X81888097Y-109679884D01*
X81911758Y-109676374D01*
X81935650Y-109675200D01*
X82423150Y-109675200D01*
X82447042Y-109676374D01*
X82447042Y-109676374D01*
G37*
D16*
X82179400Y-110375200D03*
D15*
G36*
X76114342Y-109676374D02*
G01*
X76138003Y-109679884D01*
X76161207Y-109685696D01*
X76183729Y-109693754D01*
X76205353Y-109703982D01*
X76225870Y-109716279D01*
X76245083Y-109730529D01*
X76262807Y-109746593D01*
X76278871Y-109764317D01*
X76293121Y-109783530D01*
X76305418Y-109804047D01*
X76315646Y-109825671D01*
X76323704Y-109848193D01*
X76329516Y-109871397D01*
X76333026Y-109895058D01*
X76334200Y-109918950D01*
X76334200Y-110831450D01*
X76333026Y-110855342D01*
X76329516Y-110879003D01*
X76323704Y-110902207D01*
X76315646Y-110924729D01*
X76305418Y-110946353D01*
X76293121Y-110966870D01*
X76278871Y-110986083D01*
X76262807Y-111003807D01*
X76245083Y-111019871D01*
X76225870Y-111034121D01*
X76205353Y-111046418D01*
X76183729Y-111056646D01*
X76161207Y-111064704D01*
X76138003Y-111070516D01*
X76114342Y-111074026D01*
X76090450Y-111075200D01*
X75602950Y-111075200D01*
X75579058Y-111074026D01*
X75555397Y-111070516D01*
X75532193Y-111064704D01*
X75509671Y-111056646D01*
X75488047Y-111046418D01*
X75467530Y-111034121D01*
X75448317Y-111019871D01*
X75430593Y-111003807D01*
X75414529Y-110986083D01*
X75400279Y-110966870D01*
X75387982Y-110946353D01*
X75377754Y-110924729D01*
X75369696Y-110902207D01*
X75363884Y-110879003D01*
X75360374Y-110855342D01*
X75359200Y-110831450D01*
X75359200Y-109918950D01*
X75360374Y-109895058D01*
X75363884Y-109871397D01*
X75369696Y-109848193D01*
X75377754Y-109825671D01*
X75387982Y-109804047D01*
X75400279Y-109783530D01*
X75414529Y-109764317D01*
X75430593Y-109746593D01*
X75448317Y-109730529D01*
X75467530Y-109716279D01*
X75488047Y-109703982D01*
X75509671Y-109693754D01*
X75532193Y-109685696D01*
X75555397Y-109679884D01*
X75579058Y-109676374D01*
X75602950Y-109675200D01*
X76090450Y-109675200D01*
X76114342Y-109676374D01*
X76114342Y-109676374D01*
G37*
D16*
X75846700Y-110375200D03*
D15*
G36*
X77989342Y-109676374D02*
G01*
X78013003Y-109679884D01*
X78036207Y-109685696D01*
X78058729Y-109693754D01*
X78080353Y-109703982D01*
X78100870Y-109716279D01*
X78120083Y-109730529D01*
X78137807Y-109746593D01*
X78153871Y-109764317D01*
X78168121Y-109783530D01*
X78180418Y-109804047D01*
X78190646Y-109825671D01*
X78198704Y-109848193D01*
X78204516Y-109871397D01*
X78208026Y-109895058D01*
X78209200Y-109918950D01*
X78209200Y-110831450D01*
X78208026Y-110855342D01*
X78204516Y-110879003D01*
X78198704Y-110902207D01*
X78190646Y-110924729D01*
X78180418Y-110946353D01*
X78168121Y-110966870D01*
X78153871Y-110986083D01*
X78137807Y-111003807D01*
X78120083Y-111019871D01*
X78100870Y-111034121D01*
X78080353Y-111046418D01*
X78058729Y-111056646D01*
X78036207Y-111064704D01*
X78013003Y-111070516D01*
X77989342Y-111074026D01*
X77965450Y-111075200D01*
X77477950Y-111075200D01*
X77454058Y-111074026D01*
X77430397Y-111070516D01*
X77407193Y-111064704D01*
X77384671Y-111056646D01*
X77363047Y-111046418D01*
X77342530Y-111034121D01*
X77323317Y-111019871D01*
X77305593Y-111003807D01*
X77289529Y-110986083D01*
X77275279Y-110966870D01*
X77262982Y-110946353D01*
X77252754Y-110924729D01*
X77244696Y-110902207D01*
X77238884Y-110879003D01*
X77235374Y-110855342D01*
X77234200Y-110831450D01*
X77234200Y-109918950D01*
X77235374Y-109895058D01*
X77238884Y-109871397D01*
X77244696Y-109848193D01*
X77252754Y-109825671D01*
X77262982Y-109804047D01*
X77275279Y-109783530D01*
X77289529Y-109764317D01*
X77305593Y-109746593D01*
X77323317Y-109730529D01*
X77342530Y-109716279D01*
X77363047Y-109703982D01*
X77384671Y-109693754D01*
X77407193Y-109685696D01*
X77430397Y-109679884D01*
X77454058Y-109676374D01*
X77477950Y-109675200D01*
X77965450Y-109675200D01*
X77989342Y-109676374D01*
X77989342Y-109676374D01*
G37*
D16*
X77721700Y-110375200D03*
D15*
G36*
X80572042Y-107263374D02*
G01*
X80595703Y-107266884D01*
X80618907Y-107272696D01*
X80641429Y-107280754D01*
X80663053Y-107290982D01*
X80683570Y-107303279D01*
X80702783Y-107317529D01*
X80720507Y-107333593D01*
X80736571Y-107351317D01*
X80750821Y-107370530D01*
X80763118Y-107391047D01*
X80773346Y-107412671D01*
X80781404Y-107435193D01*
X80787216Y-107458397D01*
X80790726Y-107482058D01*
X80791900Y-107505950D01*
X80791900Y-108418450D01*
X80790726Y-108442342D01*
X80787216Y-108466003D01*
X80781404Y-108489207D01*
X80773346Y-108511729D01*
X80763118Y-108533353D01*
X80750821Y-108553870D01*
X80736571Y-108573083D01*
X80720507Y-108590807D01*
X80702783Y-108606871D01*
X80683570Y-108621121D01*
X80663053Y-108633418D01*
X80641429Y-108643646D01*
X80618907Y-108651704D01*
X80595703Y-108657516D01*
X80572042Y-108661026D01*
X80548150Y-108662200D01*
X80060650Y-108662200D01*
X80036758Y-108661026D01*
X80013097Y-108657516D01*
X79989893Y-108651704D01*
X79967371Y-108643646D01*
X79945747Y-108633418D01*
X79925230Y-108621121D01*
X79906017Y-108606871D01*
X79888293Y-108590807D01*
X79872229Y-108573083D01*
X79857979Y-108553870D01*
X79845682Y-108533353D01*
X79835454Y-108511729D01*
X79827396Y-108489207D01*
X79821584Y-108466003D01*
X79818074Y-108442342D01*
X79816900Y-108418450D01*
X79816900Y-107505950D01*
X79818074Y-107482058D01*
X79821584Y-107458397D01*
X79827396Y-107435193D01*
X79835454Y-107412671D01*
X79845682Y-107391047D01*
X79857979Y-107370530D01*
X79872229Y-107351317D01*
X79888293Y-107333593D01*
X79906017Y-107317529D01*
X79925230Y-107303279D01*
X79945747Y-107290982D01*
X79967371Y-107280754D01*
X79989893Y-107272696D01*
X80013097Y-107266884D01*
X80036758Y-107263374D01*
X80060650Y-107262200D01*
X80548150Y-107262200D01*
X80572042Y-107263374D01*
X80572042Y-107263374D01*
G37*
D16*
X80304400Y-107962200D03*
D15*
G36*
X82447042Y-107263374D02*
G01*
X82470703Y-107266884D01*
X82493907Y-107272696D01*
X82516429Y-107280754D01*
X82538053Y-107290982D01*
X82558570Y-107303279D01*
X82577783Y-107317529D01*
X82595507Y-107333593D01*
X82611571Y-107351317D01*
X82625821Y-107370530D01*
X82638118Y-107391047D01*
X82648346Y-107412671D01*
X82656404Y-107435193D01*
X82662216Y-107458397D01*
X82665726Y-107482058D01*
X82666900Y-107505950D01*
X82666900Y-108418450D01*
X82665726Y-108442342D01*
X82662216Y-108466003D01*
X82656404Y-108489207D01*
X82648346Y-108511729D01*
X82638118Y-108533353D01*
X82625821Y-108553870D01*
X82611571Y-108573083D01*
X82595507Y-108590807D01*
X82577783Y-108606871D01*
X82558570Y-108621121D01*
X82538053Y-108633418D01*
X82516429Y-108643646D01*
X82493907Y-108651704D01*
X82470703Y-108657516D01*
X82447042Y-108661026D01*
X82423150Y-108662200D01*
X81935650Y-108662200D01*
X81911758Y-108661026D01*
X81888097Y-108657516D01*
X81864893Y-108651704D01*
X81842371Y-108643646D01*
X81820747Y-108633418D01*
X81800230Y-108621121D01*
X81781017Y-108606871D01*
X81763293Y-108590807D01*
X81747229Y-108573083D01*
X81732979Y-108553870D01*
X81720682Y-108533353D01*
X81710454Y-108511729D01*
X81702396Y-108489207D01*
X81696584Y-108466003D01*
X81693074Y-108442342D01*
X81691900Y-108418450D01*
X81691900Y-107505950D01*
X81693074Y-107482058D01*
X81696584Y-107458397D01*
X81702396Y-107435193D01*
X81710454Y-107412671D01*
X81720682Y-107391047D01*
X81732979Y-107370530D01*
X81747229Y-107351317D01*
X81763293Y-107333593D01*
X81781017Y-107317529D01*
X81800230Y-107303279D01*
X81820747Y-107290982D01*
X81842371Y-107280754D01*
X81864893Y-107272696D01*
X81888097Y-107266884D01*
X81911758Y-107263374D01*
X81935650Y-107262200D01*
X82423150Y-107262200D01*
X82447042Y-107263374D01*
X82447042Y-107263374D01*
G37*
D16*
X82179400Y-107962200D03*
D15*
G36*
X76114342Y-107263374D02*
G01*
X76138003Y-107266884D01*
X76161207Y-107272696D01*
X76183729Y-107280754D01*
X76205353Y-107290982D01*
X76225870Y-107303279D01*
X76245083Y-107317529D01*
X76262807Y-107333593D01*
X76278871Y-107351317D01*
X76293121Y-107370530D01*
X76305418Y-107391047D01*
X76315646Y-107412671D01*
X76323704Y-107435193D01*
X76329516Y-107458397D01*
X76333026Y-107482058D01*
X76334200Y-107505950D01*
X76334200Y-108418450D01*
X76333026Y-108442342D01*
X76329516Y-108466003D01*
X76323704Y-108489207D01*
X76315646Y-108511729D01*
X76305418Y-108533353D01*
X76293121Y-108553870D01*
X76278871Y-108573083D01*
X76262807Y-108590807D01*
X76245083Y-108606871D01*
X76225870Y-108621121D01*
X76205353Y-108633418D01*
X76183729Y-108643646D01*
X76161207Y-108651704D01*
X76138003Y-108657516D01*
X76114342Y-108661026D01*
X76090450Y-108662200D01*
X75602950Y-108662200D01*
X75579058Y-108661026D01*
X75555397Y-108657516D01*
X75532193Y-108651704D01*
X75509671Y-108643646D01*
X75488047Y-108633418D01*
X75467530Y-108621121D01*
X75448317Y-108606871D01*
X75430593Y-108590807D01*
X75414529Y-108573083D01*
X75400279Y-108553870D01*
X75387982Y-108533353D01*
X75377754Y-108511729D01*
X75369696Y-108489207D01*
X75363884Y-108466003D01*
X75360374Y-108442342D01*
X75359200Y-108418450D01*
X75359200Y-107505950D01*
X75360374Y-107482058D01*
X75363884Y-107458397D01*
X75369696Y-107435193D01*
X75377754Y-107412671D01*
X75387982Y-107391047D01*
X75400279Y-107370530D01*
X75414529Y-107351317D01*
X75430593Y-107333593D01*
X75448317Y-107317529D01*
X75467530Y-107303279D01*
X75488047Y-107290982D01*
X75509671Y-107280754D01*
X75532193Y-107272696D01*
X75555397Y-107266884D01*
X75579058Y-107263374D01*
X75602950Y-107262200D01*
X76090450Y-107262200D01*
X76114342Y-107263374D01*
X76114342Y-107263374D01*
G37*
D16*
X75846700Y-107962200D03*
D15*
G36*
X77989342Y-107263374D02*
G01*
X78013003Y-107266884D01*
X78036207Y-107272696D01*
X78058729Y-107280754D01*
X78080353Y-107290982D01*
X78100870Y-107303279D01*
X78120083Y-107317529D01*
X78137807Y-107333593D01*
X78153871Y-107351317D01*
X78168121Y-107370530D01*
X78180418Y-107391047D01*
X78190646Y-107412671D01*
X78198704Y-107435193D01*
X78204516Y-107458397D01*
X78208026Y-107482058D01*
X78209200Y-107505950D01*
X78209200Y-108418450D01*
X78208026Y-108442342D01*
X78204516Y-108466003D01*
X78198704Y-108489207D01*
X78190646Y-108511729D01*
X78180418Y-108533353D01*
X78168121Y-108553870D01*
X78153871Y-108573083D01*
X78137807Y-108590807D01*
X78120083Y-108606871D01*
X78100870Y-108621121D01*
X78080353Y-108633418D01*
X78058729Y-108643646D01*
X78036207Y-108651704D01*
X78013003Y-108657516D01*
X77989342Y-108661026D01*
X77965450Y-108662200D01*
X77477950Y-108662200D01*
X77454058Y-108661026D01*
X77430397Y-108657516D01*
X77407193Y-108651704D01*
X77384671Y-108643646D01*
X77363047Y-108633418D01*
X77342530Y-108621121D01*
X77323317Y-108606871D01*
X77305593Y-108590807D01*
X77289529Y-108573083D01*
X77275279Y-108553870D01*
X77262982Y-108533353D01*
X77252754Y-108511729D01*
X77244696Y-108489207D01*
X77238884Y-108466003D01*
X77235374Y-108442342D01*
X77234200Y-108418450D01*
X77234200Y-107505950D01*
X77235374Y-107482058D01*
X77238884Y-107458397D01*
X77244696Y-107435193D01*
X77252754Y-107412671D01*
X77262982Y-107391047D01*
X77275279Y-107370530D01*
X77289529Y-107351317D01*
X77305593Y-107333593D01*
X77323317Y-107317529D01*
X77342530Y-107303279D01*
X77363047Y-107290982D01*
X77384671Y-107280754D01*
X77407193Y-107272696D01*
X77430397Y-107266884D01*
X77454058Y-107263374D01*
X77477950Y-107262200D01*
X77965450Y-107262200D01*
X77989342Y-107263374D01*
X77989342Y-107263374D01*
G37*
D16*
X77721700Y-107962200D03*
D17*
X68318000Y-82741500D03*
X69268000Y-84741500D03*
X67368000Y-84741500D03*
D15*
G36*
X64959142Y-83692674D02*
G01*
X64982803Y-83696184D01*
X65006007Y-83701996D01*
X65028529Y-83710054D01*
X65050153Y-83720282D01*
X65070670Y-83732579D01*
X65089883Y-83746829D01*
X65107607Y-83762893D01*
X65123671Y-83780617D01*
X65137921Y-83799830D01*
X65150218Y-83820347D01*
X65160446Y-83841971D01*
X65168504Y-83864493D01*
X65174316Y-83887697D01*
X65177826Y-83911358D01*
X65179000Y-83935250D01*
X65179000Y-84847750D01*
X65177826Y-84871642D01*
X65174316Y-84895303D01*
X65168504Y-84918507D01*
X65160446Y-84941029D01*
X65150218Y-84962653D01*
X65137921Y-84983170D01*
X65123671Y-85002383D01*
X65107607Y-85020107D01*
X65089883Y-85036171D01*
X65070670Y-85050421D01*
X65050153Y-85062718D01*
X65028529Y-85072946D01*
X65006007Y-85081004D01*
X64982803Y-85086816D01*
X64959142Y-85090326D01*
X64935250Y-85091500D01*
X64447750Y-85091500D01*
X64423858Y-85090326D01*
X64400197Y-85086816D01*
X64376993Y-85081004D01*
X64354471Y-85072946D01*
X64332847Y-85062718D01*
X64312330Y-85050421D01*
X64293117Y-85036171D01*
X64275393Y-85020107D01*
X64259329Y-85002383D01*
X64245079Y-84983170D01*
X64232782Y-84962653D01*
X64222554Y-84941029D01*
X64214496Y-84918507D01*
X64208684Y-84895303D01*
X64205174Y-84871642D01*
X64204000Y-84847750D01*
X64204000Y-83935250D01*
X64205174Y-83911358D01*
X64208684Y-83887697D01*
X64214496Y-83864493D01*
X64222554Y-83841971D01*
X64232782Y-83820347D01*
X64245079Y-83799830D01*
X64259329Y-83780617D01*
X64275393Y-83762893D01*
X64293117Y-83746829D01*
X64312330Y-83732579D01*
X64332847Y-83720282D01*
X64354471Y-83710054D01*
X64376993Y-83701996D01*
X64400197Y-83696184D01*
X64423858Y-83692674D01*
X64447750Y-83691500D01*
X64935250Y-83691500D01*
X64959142Y-83692674D01*
X64959142Y-83692674D01*
G37*
D16*
X64691500Y-84391500D03*
D15*
G36*
X63084142Y-83692674D02*
G01*
X63107803Y-83696184D01*
X63131007Y-83701996D01*
X63153529Y-83710054D01*
X63175153Y-83720282D01*
X63195670Y-83732579D01*
X63214883Y-83746829D01*
X63232607Y-83762893D01*
X63248671Y-83780617D01*
X63262921Y-83799830D01*
X63275218Y-83820347D01*
X63285446Y-83841971D01*
X63293504Y-83864493D01*
X63299316Y-83887697D01*
X63302826Y-83911358D01*
X63304000Y-83935250D01*
X63304000Y-84847750D01*
X63302826Y-84871642D01*
X63299316Y-84895303D01*
X63293504Y-84918507D01*
X63285446Y-84941029D01*
X63275218Y-84962653D01*
X63262921Y-84983170D01*
X63248671Y-85002383D01*
X63232607Y-85020107D01*
X63214883Y-85036171D01*
X63195670Y-85050421D01*
X63175153Y-85062718D01*
X63153529Y-85072946D01*
X63131007Y-85081004D01*
X63107803Y-85086816D01*
X63084142Y-85090326D01*
X63060250Y-85091500D01*
X62572750Y-85091500D01*
X62548858Y-85090326D01*
X62525197Y-85086816D01*
X62501993Y-85081004D01*
X62479471Y-85072946D01*
X62457847Y-85062718D01*
X62437330Y-85050421D01*
X62418117Y-85036171D01*
X62400393Y-85020107D01*
X62384329Y-85002383D01*
X62370079Y-84983170D01*
X62357782Y-84962653D01*
X62347554Y-84941029D01*
X62339496Y-84918507D01*
X62333684Y-84895303D01*
X62330174Y-84871642D01*
X62329000Y-84847750D01*
X62329000Y-83935250D01*
X62330174Y-83911358D01*
X62333684Y-83887697D01*
X62339496Y-83864493D01*
X62347554Y-83841971D01*
X62357782Y-83820347D01*
X62370079Y-83799830D01*
X62384329Y-83780617D01*
X62400393Y-83762893D01*
X62418117Y-83746829D01*
X62437330Y-83732579D01*
X62457847Y-83720282D01*
X62479471Y-83710054D01*
X62501993Y-83701996D01*
X62525197Y-83696184D01*
X62548858Y-83692674D01*
X62572750Y-83691500D01*
X63060250Y-83691500D01*
X63084142Y-83692674D01*
X63084142Y-83692674D01*
G37*
D16*
X62816500Y-84391500D03*
D15*
G36*
X64936042Y-81444774D02*
G01*
X64959703Y-81448284D01*
X64982907Y-81454096D01*
X65005429Y-81462154D01*
X65027053Y-81472382D01*
X65047570Y-81484679D01*
X65066783Y-81498929D01*
X65084507Y-81514993D01*
X65100571Y-81532717D01*
X65114821Y-81551930D01*
X65127118Y-81572447D01*
X65137346Y-81594071D01*
X65145404Y-81616593D01*
X65151216Y-81639797D01*
X65154726Y-81663458D01*
X65155900Y-81687350D01*
X65155900Y-82599850D01*
X65154726Y-82623742D01*
X65151216Y-82647403D01*
X65145404Y-82670607D01*
X65137346Y-82693129D01*
X65127118Y-82714753D01*
X65114821Y-82735270D01*
X65100571Y-82754483D01*
X65084507Y-82772207D01*
X65066783Y-82788271D01*
X65047570Y-82802521D01*
X65027053Y-82814818D01*
X65005429Y-82825046D01*
X64982907Y-82833104D01*
X64959703Y-82838916D01*
X64936042Y-82842426D01*
X64912150Y-82843600D01*
X64424650Y-82843600D01*
X64400758Y-82842426D01*
X64377097Y-82838916D01*
X64353893Y-82833104D01*
X64331371Y-82825046D01*
X64309747Y-82814818D01*
X64289230Y-82802521D01*
X64270017Y-82788271D01*
X64252293Y-82772207D01*
X64236229Y-82754483D01*
X64221979Y-82735270D01*
X64209682Y-82714753D01*
X64199454Y-82693129D01*
X64191396Y-82670607D01*
X64185584Y-82647403D01*
X64182074Y-82623742D01*
X64180900Y-82599850D01*
X64180900Y-81687350D01*
X64182074Y-81663458D01*
X64185584Y-81639797D01*
X64191396Y-81616593D01*
X64199454Y-81594071D01*
X64209682Y-81572447D01*
X64221979Y-81551930D01*
X64236229Y-81532717D01*
X64252293Y-81514993D01*
X64270017Y-81498929D01*
X64289230Y-81484679D01*
X64309747Y-81472382D01*
X64331371Y-81462154D01*
X64353893Y-81454096D01*
X64377097Y-81448284D01*
X64400758Y-81444774D01*
X64424650Y-81443600D01*
X64912150Y-81443600D01*
X64936042Y-81444774D01*
X64936042Y-81444774D01*
G37*
D16*
X64668400Y-82143600D03*
D15*
G36*
X63061042Y-81444774D02*
G01*
X63084703Y-81448284D01*
X63107907Y-81454096D01*
X63130429Y-81462154D01*
X63152053Y-81472382D01*
X63172570Y-81484679D01*
X63191783Y-81498929D01*
X63209507Y-81514993D01*
X63225571Y-81532717D01*
X63239821Y-81551930D01*
X63252118Y-81572447D01*
X63262346Y-81594071D01*
X63270404Y-81616593D01*
X63276216Y-81639797D01*
X63279726Y-81663458D01*
X63280900Y-81687350D01*
X63280900Y-82599850D01*
X63279726Y-82623742D01*
X63276216Y-82647403D01*
X63270404Y-82670607D01*
X63262346Y-82693129D01*
X63252118Y-82714753D01*
X63239821Y-82735270D01*
X63225571Y-82754483D01*
X63209507Y-82772207D01*
X63191783Y-82788271D01*
X63172570Y-82802521D01*
X63152053Y-82814818D01*
X63130429Y-82825046D01*
X63107907Y-82833104D01*
X63084703Y-82838916D01*
X63061042Y-82842426D01*
X63037150Y-82843600D01*
X62549650Y-82843600D01*
X62525758Y-82842426D01*
X62502097Y-82838916D01*
X62478893Y-82833104D01*
X62456371Y-82825046D01*
X62434747Y-82814818D01*
X62414230Y-82802521D01*
X62395017Y-82788271D01*
X62377293Y-82772207D01*
X62361229Y-82754483D01*
X62346979Y-82735270D01*
X62334682Y-82714753D01*
X62324454Y-82693129D01*
X62316396Y-82670607D01*
X62310584Y-82647403D01*
X62307074Y-82623742D01*
X62305900Y-82599850D01*
X62305900Y-81687350D01*
X62307074Y-81663458D01*
X62310584Y-81639797D01*
X62316396Y-81616593D01*
X62324454Y-81594071D01*
X62334682Y-81572447D01*
X62346979Y-81551930D01*
X62361229Y-81532717D01*
X62377293Y-81514993D01*
X62395017Y-81498929D01*
X62414230Y-81484679D01*
X62434747Y-81472382D01*
X62456371Y-81462154D01*
X62478893Y-81454096D01*
X62502097Y-81448284D01*
X62525758Y-81444774D01*
X62549650Y-81443600D01*
X63037150Y-81443600D01*
X63061042Y-81444774D01*
X63061042Y-81444774D01*
G37*
D16*
X62793400Y-82143600D03*
D15*
G36*
X74711642Y-84334674D02*
G01*
X74735303Y-84338184D01*
X74758507Y-84343996D01*
X74781029Y-84352054D01*
X74802653Y-84362282D01*
X74823170Y-84374579D01*
X74842383Y-84388829D01*
X74860107Y-84404893D01*
X74876171Y-84422617D01*
X74890421Y-84441830D01*
X74902718Y-84462347D01*
X74912946Y-84483971D01*
X74921004Y-84506493D01*
X74926816Y-84529697D01*
X74930326Y-84553358D01*
X74931500Y-84577250D01*
X74931500Y-85064750D01*
X74930326Y-85088642D01*
X74926816Y-85112303D01*
X74921004Y-85135507D01*
X74912946Y-85158029D01*
X74902718Y-85179653D01*
X74890421Y-85200170D01*
X74876171Y-85219383D01*
X74860107Y-85237107D01*
X74842383Y-85253171D01*
X74823170Y-85267421D01*
X74802653Y-85279718D01*
X74781029Y-85289946D01*
X74758507Y-85298004D01*
X74735303Y-85303816D01*
X74711642Y-85307326D01*
X74687750Y-85308500D01*
X73775250Y-85308500D01*
X73751358Y-85307326D01*
X73727697Y-85303816D01*
X73704493Y-85298004D01*
X73681971Y-85289946D01*
X73660347Y-85279718D01*
X73639830Y-85267421D01*
X73620617Y-85253171D01*
X73602893Y-85237107D01*
X73586829Y-85219383D01*
X73572579Y-85200170D01*
X73560282Y-85179653D01*
X73550054Y-85158029D01*
X73541996Y-85135507D01*
X73536184Y-85112303D01*
X73532674Y-85088642D01*
X73531500Y-85064750D01*
X73531500Y-84577250D01*
X73532674Y-84553358D01*
X73536184Y-84529697D01*
X73541996Y-84506493D01*
X73550054Y-84483971D01*
X73560282Y-84462347D01*
X73572579Y-84441830D01*
X73586829Y-84422617D01*
X73602893Y-84404893D01*
X73620617Y-84388829D01*
X73639830Y-84374579D01*
X73660347Y-84362282D01*
X73681971Y-84352054D01*
X73704493Y-84343996D01*
X73727697Y-84338184D01*
X73751358Y-84334674D01*
X73775250Y-84333500D01*
X74687750Y-84333500D01*
X74711642Y-84334674D01*
X74711642Y-84334674D01*
G37*
D16*
X74231500Y-84821000D03*
D15*
G36*
X74711642Y-82459674D02*
G01*
X74735303Y-82463184D01*
X74758507Y-82468996D01*
X74781029Y-82477054D01*
X74802653Y-82487282D01*
X74823170Y-82499579D01*
X74842383Y-82513829D01*
X74860107Y-82529893D01*
X74876171Y-82547617D01*
X74890421Y-82566830D01*
X74902718Y-82587347D01*
X74912946Y-82608971D01*
X74921004Y-82631493D01*
X74926816Y-82654697D01*
X74930326Y-82678358D01*
X74931500Y-82702250D01*
X74931500Y-83189750D01*
X74930326Y-83213642D01*
X74926816Y-83237303D01*
X74921004Y-83260507D01*
X74912946Y-83283029D01*
X74902718Y-83304653D01*
X74890421Y-83325170D01*
X74876171Y-83344383D01*
X74860107Y-83362107D01*
X74842383Y-83378171D01*
X74823170Y-83392421D01*
X74802653Y-83404718D01*
X74781029Y-83414946D01*
X74758507Y-83423004D01*
X74735303Y-83428816D01*
X74711642Y-83432326D01*
X74687750Y-83433500D01*
X73775250Y-83433500D01*
X73751358Y-83432326D01*
X73727697Y-83428816D01*
X73704493Y-83423004D01*
X73681971Y-83414946D01*
X73660347Y-83404718D01*
X73639830Y-83392421D01*
X73620617Y-83378171D01*
X73602893Y-83362107D01*
X73586829Y-83344383D01*
X73572579Y-83325170D01*
X73560282Y-83304653D01*
X73550054Y-83283029D01*
X73541996Y-83260507D01*
X73536184Y-83237303D01*
X73532674Y-83213642D01*
X73531500Y-83189750D01*
X73531500Y-82702250D01*
X73532674Y-82678358D01*
X73536184Y-82654697D01*
X73541996Y-82631493D01*
X73550054Y-82608971D01*
X73560282Y-82587347D01*
X73572579Y-82566830D01*
X73586829Y-82547617D01*
X73602893Y-82529893D01*
X73620617Y-82513829D01*
X73639830Y-82499579D01*
X73660347Y-82487282D01*
X73681971Y-82477054D01*
X73704493Y-82468996D01*
X73727697Y-82463184D01*
X73751358Y-82459674D01*
X73775250Y-82458500D01*
X74687750Y-82458500D01*
X74711642Y-82459674D01*
X74711642Y-82459674D01*
G37*
D16*
X74231500Y-82946000D03*
D15*
G36*
X82826942Y-89381174D02*
G01*
X82850603Y-89384684D01*
X82873807Y-89390496D01*
X82896329Y-89398554D01*
X82917953Y-89408782D01*
X82938470Y-89421079D01*
X82957683Y-89435329D01*
X82975407Y-89451393D01*
X82991471Y-89469117D01*
X83005721Y-89488330D01*
X83018018Y-89508847D01*
X83028246Y-89530471D01*
X83036304Y-89552993D01*
X83042116Y-89576197D01*
X83045626Y-89599858D01*
X83046800Y-89623750D01*
X83046800Y-90111250D01*
X83045626Y-90135142D01*
X83042116Y-90158803D01*
X83036304Y-90182007D01*
X83028246Y-90204529D01*
X83018018Y-90226153D01*
X83005721Y-90246670D01*
X82991471Y-90265883D01*
X82975407Y-90283607D01*
X82957683Y-90299671D01*
X82938470Y-90313921D01*
X82917953Y-90326218D01*
X82896329Y-90336446D01*
X82873807Y-90344504D01*
X82850603Y-90350316D01*
X82826942Y-90353826D01*
X82803050Y-90355000D01*
X81890550Y-90355000D01*
X81866658Y-90353826D01*
X81842997Y-90350316D01*
X81819793Y-90344504D01*
X81797271Y-90336446D01*
X81775647Y-90326218D01*
X81755130Y-90313921D01*
X81735917Y-90299671D01*
X81718193Y-90283607D01*
X81702129Y-90265883D01*
X81687879Y-90246670D01*
X81675582Y-90226153D01*
X81665354Y-90204529D01*
X81657296Y-90182007D01*
X81651484Y-90158803D01*
X81647974Y-90135142D01*
X81646800Y-90111250D01*
X81646800Y-89623750D01*
X81647974Y-89599858D01*
X81651484Y-89576197D01*
X81657296Y-89552993D01*
X81665354Y-89530471D01*
X81675582Y-89508847D01*
X81687879Y-89488330D01*
X81702129Y-89469117D01*
X81718193Y-89451393D01*
X81735917Y-89435329D01*
X81755130Y-89421079D01*
X81775647Y-89408782D01*
X81797271Y-89398554D01*
X81819793Y-89390496D01*
X81842997Y-89384684D01*
X81866658Y-89381174D01*
X81890550Y-89380000D01*
X82803050Y-89380000D01*
X82826942Y-89381174D01*
X82826942Y-89381174D01*
G37*
D16*
X82346800Y-89867500D03*
D15*
G36*
X82826942Y-91256174D02*
G01*
X82850603Y-91259684D01*
X82873807Y-91265496D01*
X82896329Y-91273554D01*
X82917953Y-91283782D01*
X82938470Y-91296079D01*
X82957683Y-91310329D01*
X82975407Y-91326393D01*
X82991471Y-91344117D01*
X83005721Y-91363330D01*
X83018018Y-91383847D01*
X83028246Y-91405471D01*
X83036304Y-91427993D01*
X83042116Y-91451197D01*
X83045626Y-91474858D01*
X83046800Y-91498750D01*
X83046800Y-91986250D01*
X83045626Y-92010142D01*
X83042116Y-92033803D01*
X83036304Y-92057007D01*
X83028246Y-92079529D01*
X83018018Y-92101153D01*
X83005721Y-92121670D01*
X82991471Y-92140883D01*
X82975407Y-92158607D01*
X82957683Y-92174671D01*
X82938470Y-92188921D01*
X82917953Y-92201218D01*
X82896329Y-92211446D01*
X82873807Y-92219504D01*
X82850603Y-92225316D01*
X82826942Y-92228826D01*
X82803050Y-92230000D01*
X81890550Y-92230000D01*
X81866658Y-92228826D01*
X81842997Y-92225316D01*
X81819793Y-92219504D01*
X81797271Y-92211446D01*
X81775647Y-92201218D01*
X81755130Y-92188921D01*
X81735917Y-92174671D01*
X81718193Y-92158607D01*
X81702129Y-92140883D01*
X81687879Y-92121670D01*
X81675582Y-92101153D01*
X81665354Y-92079529D01*
X81657296Y-92057007D01*
X81651484Y-92033803D01*
X81647974Y-92010142D01*
X81646800Y-91986250D01*
X81646800Y-91498750D01*
X81647974Y-91474858D01*
X81651484Y-91451197D01*
X81657296Y-91427993D01*
X81665354Y-91405471D01*
X81675582Y-91383847D01*
X81687879Y-91363330D01*
X81702129Y-91344117D01*
X81718193Y-91326393D01*
X81735917Y-91310329D01*
X81755130Y-91296079D01*
X81775647Y-91283782D01*
X81797271Y-91273554D01*
X81819793Y-91265496D01*
X81842997Y-91259684D01*
X81866658Y-91256174D01*
X81890550Y-91255000D01*
X82803050Y-91255000D01*
X82826942Y-91256174D01*
X82826942Y-91256174D01*
G37*
D16*
X82346800Y-91742500D03*
D15*
G36*
X80299642Y-89381174D02*
G01*
X80323303Y-89384684D01*
X80346507Y-89390496D01*
X80369029Y-89398554D01*
X80390653Y-89408782D01*
X80411170Y-89421079D01*
X80430383Y-89435329D01*
X80448107Y-89451393D01*
X80464171Y-89469117D01*
X80478421Y-89488330D01*
X80490718Y-89508847D01*
X80500946Y-89530471D01*
X80509004Y-89552993D01*
X80514816Y-89576197D01*
X80518326Y-89599858D01*
X80519500Y-89623750D01*
X80519500Y-90111250D01*
X80518326Y-90135142D01*
X80514816Y-90158803D01*
X80509004Y-90182007D01*
X80500946Y-90204529D01*
X80490718Y-90226153D01*
X80478421Y-90246670D01*
X80464171Y-90265883D01*
X80448107Y-90283607D01*
X80430383Y-90299671D01*
X80411170Y-90313921D01*
X80390653Y-90326218D01*
X80369029Y-90336446D01*
X80346507Y-90344504D01*
X80323303Y-90350316D01*
X80299642Y-90353826D01*
X80275750Y-90355000D01*
X79363250Y-90355000D01*
X79339358Y-90353826D01*
X79315697Y-90350316D01*
X79292493Y-90344504D01*
X79269971Y-90336446D01*
X79248347Y-90326218D01*
X79227830Y-90313921D01*
X79208617Y-90299671D01*
X79190893Y-90283607D01*
X79174829Y-90265883D01*
X79160579Y-90246670D01*
X79148282Y-90226153D01*
X79138054Y-90204529D01*
X79129996Y-90182007D01*
X79124184Y-90158803D01*
X79120674Y-90135142D01*
X79119500Y-90111250D01*
X79119500Y-89623750D01*
X79120674Y-89599858D01*
X79124184Y-89576197D01*
X79129996Y-89552993D01*
X79138054Y-89530471D01*
X79148282Y-89508847D01*
X79160579Y-89488330D01*
X79174829Y-89469117D01*
X79190893Y-89451393D01*
X79208617Y-89435329D01*
X79227830Y-89421079D01*
X79248347Y-89408782D01*
X79269971Y-89398554D01*
X79292493Y-89390496D01*
X79315697Y-89384684D01*
X79339358Y-89381174D01*
X79363250Y-89380000D01*
X80275750Y-89380000D01*
X80299642Y-89381174D01*
X80299642Y-89381174D01*
G37*
D16*
X79819500Y-89867500D03*
D15*
G36*
X80299642Y-91256174D02*
G01*
X80323303Y-91259684D01*
X80346507Y-91265496D01*
X80369029Y-91273554D01*
X80390653Y-91283782D01*
X80411170Y-91296079D01*
X80430383Y-91310329D01*
X80448107Y-91326393D01*
X80464171Y-91344117D01*
X80478421Y-91363330D01*
X80490718Y-91383847D01*
X80500946Y-91405471D01*
X80509004Y-91427993D01*
X80514816Y-91451197D01*
X80518326Y-91474858D01*
X80519500Y-91498750D01*
X80519500Y-91986250D01*
X80518326Y-92010142D01*
X80514816Y-92033803D01*
X80509004Y-92057007D01*
X80500946Y-92079529D01*
X80490718Y-92101153D01*
X80478421Y-92121670D01*
X80464171Y-92140883D01*
X80448107Y-92158607D01*
X80430383Y-92174671D01*
X80411170Y-92188921D01*
X80390653Y-92201218D01*
X80369029Y-92211446D01*
X80346507Y-92219504D01*
X80323303Y-92225316D01*
X80299642Y-92228826D01*
X80275750Y-92230000D01*
X79363250Y-92230000D01*
X79339358Y-92228826D01*
X79315697Y-92225316D01*
X79292493Y-92219504D01*
X79269971Y-92211446D01*
X79248347Y-92201218D01*
X79227830Y-92188921D01*
X79208617Y-92174671D01*
X79190893Y-92158607D01*
X79174829Y-92140883D01*
X79160579Y-92121670D01*
X79148282Y-92101153D01*
X79138054Y-92079529D01*
X79129996Y-92057007D01*
X79124184Y-92033803D01*
X79120674Y-92010142D01*
X79119500Y-91986250D01*
X79119500Y-91498750D01*
X79120674Y-91474858D01*
X79124184Y-91451197D01*
X79129996Y-91427993D01*
X79138054Y-91405471D01*
X79148282Y-91383847D01*
X79160579Y-91363330D01*
X79174829Y-91344117D01*
X79190893Y-91326393D01*
X79208617Y-91310329D01*
X79227830Y-91296079D01*
X79248347Y-91283782D01*
X79269971Y-91273554D01*
X79292493Y-91265496D01*
X79315697Y-91259684D01*
X79339358Y-91256174D01*
X79363250Y-91255000D01*
X80275750Y-91255000D01*
X80299642Y-91256174D01*
X80299642Y-91256174D01*
G37*
D16*
X79819500Y-91742500D03*
D15*
G36*
X82953942Y-102203574D02*
G01*
X82977603Y-102207084D01*
X83000807Y-102212896D01*
X83023329Y-102220954D01*
X83044953Y-102231182D01*
X83065470Y-102243479D01*
X83084683Y-102257729D01*
X83102407Y-102273793D01*
X83118471Y-102291517D01*
X83132721Y-102310730D01*
X83145018Y-102331247D01*
X83155246Y-102352871D01*
X83163304Y-102375393D01*
X83169116Y-102398597D01*
X83172626Y-102422258D01*
X83173800Y-102446150D01*
X83173800Y-102933650D01*
X83172626Y-102957542D01*
X83169116Y-102981203D01*
X83163304Y-103004407D01*
X83155246Y-103026929D01*
X83145018Y-103048553D01*
X83132721Y-103069070D01*
X83118471Y-103088283D01*
X83102407Y-103106007D01*
X83084683Y-103122071D01*
X83065470Y-103136321D01*
X83044953Y-103148618D01*
X83023329Y-103158846D01*
X83000807Y-103166904D01*
X82977603Y-103172716D01*
X82953942Y-103176226D01*
X82930050Y-103177400D01*
X82017550Y-103177400D01*
X81993658Y-103176226D01*
X81969997Y-103172716D01*
X81946793Y-103166904D01*
X81924271Y-103158846D01*
X81902647Y-103148618D01*
X81882130Y-103136321D01*
X81862917Y-103122071D01*
X81845193Y-103106007D01*
X81829129Y-103088283D01*
X81814879Y-103069070D01*
X81802582Y-103048553D01*
X81792354Y-103026929D01*
X81784296Y-103004407D01*
X81778484Y-102981203D01*
X81774974Y-102957542D01*
X81773800Y-102933650D01*
X81773800Y-102446150D01*
X81774974Y-102422258D01*
X81778484Y-102398597D01*
X81784296Y-102375393D01*
X81792354Y-102352871D01*
X81802582Y-102331247D01*
X81814879Y-102310730D01*
X81829129Y-102291517D01*
X81845193Y-102273793D01*
X81862917Y-102257729D01*
X81882130Y-102243479D01*
X81902647Y-102231182D01*
X81924271Y-102220954D01*
X81946793Y-102212896D01*
X81969997Y-102207084D01*
X81993658Y-102203574D01*
X82017550Y-102202400D01*
X82930050Y-102202400D01*
X82953942Y-102203574D01*
X82953942Y-102203574D01*
G37*
D16*
X82473800Y-102689900D03*
D15*
G36*
X82953942Y-100328574D02*
G01*
X82977603Y-100332084D01*
X83000807Y-100337896D01*
X83023329Y-100345954D01*
X83044953Y-100356182D01*
X83065470Y-100368479D01*
X83084683Y-100382729D01*
X83102407Y-100398793D01*
X83118471Y-100416517D01*
X83132721Y-100435730D01*
X83145018Y-100456247D01*
X83155246Y-100477871D01*
X83163304Y-100500393D01*
X83169116Y-100523597D01*
X83172626Y-100547258D01*
X83173800Y-100571150D01*
X83173800Y-101058650D01*
X83172626Y-101082542D01*
X83169116Y-101106203D01*
X83163304Y-101129407D01*
X83155246Y-101151929D01*
X83145018Y-101173553D01*
X83132721Y-101194070D01*
X83118471Y-101213283D01*
X83102407Y-101231007D01*
X83084683Y-101247071D01*
X83065470Y-101261321D01*
X83044953Y-101273618D01*
X83023329Y-101283846D01*
X83000807Y-101291904D01*
X82977603Y-101297716D01*
X82953942Y-101301226D01*
X82930050Y-101302400D01*
X82017550Y-101302400D01*
X81993658Y-101301226D01*
X81969997Y-101297716D01*
X81946793Y-101291904D01*
X81924271Y-101283846D01*
X81902647Y-101273618D01*
X81882130Y-101261321D01*
X81862917Y-101247071D01*
X81845193Y-101231007D01*
X81829129Y-101213283D01*
X81814879Y-101194070D01*
X81802582Y-101173553D01*
X81792354Y-101151929D01*
X81784296Y-101129407D01*
X81778484Y-101106203D01*
X81774974Y-101082542D01*
X81773800Y-101058650D01*
X81773800Y-100571150D01*
X81774974Y-100547258D01*
X81778484Y-100523597D01*
X81784296Y-100500393D01*
X81792354Y-100477871D01*
X81802582Y-100456247D01*
X81814879Y-100435730D01*
X81829129Y-100416517D01*
X81845193Y-100398793D01*
X81862917Y-100382729D01*
X81882130Y-100368479D01*
X81902647Y-100356182D01*
X81924271Y-100345954D01*
X81946793Y-100337896D01*
X81969997Y-100332084D01*
X81993658Y-100328574D01*
X82017550Y-100327400D01*
X82930050Y-100327400D01*
X82953942Y-100328574D01*
X82953942Y-100328574D01*
G37*
D16*
X82473800Y-100814900D03*
D15*
G36*
X80426642Y-102241174D02*
G01*
X80450303Y-102244684D01*
X80473507Y-102250496D01*
X80496029Y-102258554D01*
X80517653Y-102268782D01*
X80538170Y-102281079D01*
X80557383Y-102295329D01*
X80575107Y-102311393D01*
X80591171Y-102329117D01*
X80605421Y-102348330D01*
X80617718Y-102368847D01*
X80627946Y-102390471D01*
X80636004Y-102412993D01*
X80641816Y-102436197D01*
X80645326Y-102459858D01*
X80646500Y-102483750D01*
X80646500Y-102971250D01*
X80645326Y-102995142D01*
X80641816Y-103018803D01*
X80636004Y-103042007D01*
X80627946Y-103064529D01*
X80617718Y-103086153D01*
X80605421Y-103106670D01*
X80591171Y-103125883D01*
X80575107Y-103143607D01*
X80557383Y-103159671D01*
X80538170Y-103173921D01*
X80517653Y-103186218D01*
X80496029Y-103196446D01*
X80473507Y-103204504D01*
X80450303Y-103210316D01*
X80426642Y-103213826D01*
X80402750Y-103215000D01*
X79490250Y-103215000D01*
X79466358Y-103213826D01*
X79442697Y-103210316D01*
X79419493Y-103204504D01*
X79396971Y-103196446D01*
X79375347Y-103186218D01*
X79354830Y-103173921D01*
X79335617Y-103159671D01*
X79317893Y-103143607D01*
X79301829Y-103125883D01*
X79287579Y-103106670D01*
X79275282Y-103086153D01*
X79265054Y-103064529D01*
X79256996Y-103042007D01*
X79251184Y-103018803D01*
X79247674Y-102995142D01*
X79246500Y-102971250D01*
X79246500Y-102483750D01*
X79247674Y-102459858D01*
X79251184Y-102436197D01*
X79256996Y-102412993D01*
X79265054Y-102390471D01*
X79275282Y-102368847D01*
X79287579Y-102348330D01*
X79301829Y-102329117D01*
X79317893Y-102311393D01*
X79335617Y-102295329D01*
X79354830Y-102281079D01*
X79375347Y-102268782D01*
X79396971Y-102258554D01*
X79419493Y-102250496D01*
X79442697Y-102244684D01*
X79466358Y-102241174D01*
X79490250Y-102240000D01*
X80402750Y-102240000D01*
X80426642Y-102241174D01*
X80426642Y-102241174D01*
G37*
D16*
X79946500Y-102727500D03*
D15*
G36*
X80426642Y-100366174D02*
G01*
X80450303Y-100369684D01*
X80473507Y-100375496D01*
X80496029Y-100383554D01*
X80517653Y-100393782D01*
X80538170Y-100406079D01*
X80557383Y-100420329D01*
X80575107Y-100436393D01*
X80591171Y-100454117D01*
X80605421Y-100473330D01*
X80617718Y-100493847D01*
X80627946Y-100515471D01*
X80636004Y-100537993D01*
X80641816Y-100561197D01*
X80645326Y-100584858D01*
X80646500Y-100608750D01*
X80646500Y-101096250D01*
X80645326Y-101120142D01*
X80641816Y-101143803D01*
X80636004Y-101167007D01*
X80627946Y-101189529D01*
X80617718Y-101211153D01*
X80605421Y-101231670D01*
X80591171Y-101250883D01*
X80575107Y-101268607D01*
X80557383Y-101284671D01*
X80538170Y-101298921D01*
X80517653Y-101311218D01*
X80496029Y-101321446D01*
X80473507Y-101329504D01*
X80450303Y-101335316D01*
X80426642Y-101338826D01*
X80402750Y-101340000D01*
X79490250Y-101340000D01*
X79466358Y-101338826D01*
X79442697Y-101335316D01*
X79419493Y-101329504D01*
X79396971Y-101321446D01*
X79375347Y-101311218D01*
X79354830Y-101298921D01*
X79335617Y-101284671D01*
X79317893Y-101268607D01*
X79301829Y-101250883D01*
X79287579Y-101231670D01*
X79275282Y-101211153D01*
X79265054Y-101189529D01*
X79256996Y-101167007D01*
X79251184Y-101143803D01*
X79247674Y-101120142D01*
X79246500Y-101096250D01*
X79246500Y-100608750D01*
X79247674Y-100584858D01*
X79251184Y-100561197D01*
X79256996Y-100537993D01*
X79265054Y-100515471D01*
X79275282Y-100493847D01*
X79287579Y-100473330D01*
X79301829Y-100454117D01*
X79317893Y-100436393D01*
X79335617Y-100420329D01*
X79354830Y-100406079D01*
X79375347Y-100393782D01*
X79396971Y-100383554D01*
X79419493Y-100375496D01*
X79442697Y-100369684D01*
X79466358Y-100366174D01*
X79490250Y-100365000D01*
X80402750Y-100365000D01*
X80426642Y-100366174D01*
X80426642Y-100366174D01*
G37*
D16*
X79946500Y-100852500D03*
D15*
G36*
X82877742Y-93635674D02*
G01*
X82901403Y-93639184D01*
X82924607Y-93644996D01*
X82947129Y-93653054D01*
X82968753Y-93663282D01*
X82989270Y-93675579D01*
X83008483Y-93689829D01*
X83026207Y-93705893D01*
X83042271Y-93723617D01*
X83056521Y-93742830D01*
X83068818Y-93763347D01*
X83079046Y-93784971D01*
X83087104Y-93807493D01*
X83092916Y-93830697D01*
X83096426Y-93854358D01*
X83097600Y-93878250D01*
X83097600Y-94365750D01*
X83096426Y-94389642D01*
X83092916Y-94413303D01*
X83087104Y-94436507D01*
X83079046Y-94459029D01*
X83068818Y-94480653D01*
X83056521Y-94501170D01*
X83042271Y-94520383D01*
X83026207Y-94538107D01*
X83008483Y-94554171D01*
X82989270Y-94568421D01*
X82968753Y-94580718D01*
X82947129Y-94590946D01*
X82924607Y-94599004D01*
X82901403Y-94604816D01*
X82877742Y-94608326D01*
X82853850Y-94609500D01*
X81941350Y-94609500D01*
X81917458Y-94608326D01*
X81893797Y-94604816D01*
X81870593Y-94599004D01*
X81848071Y-94590946D01*
X81826447Y-94580718D01*
X81805930Y-94568421D01*
X81786717Y-94554171D01*
X81768993Y-94538107D01*
X81752929Y-94520383D01*
X81738679Y-94501170D01*
X81726382Y-94480653D01*
X81716154Y-94459029D01*
X81708096Y-94436507D01*
X81702284Y-94413303D01*
X81698774Y-94389642D01*
X81697600Y-94365750D01*
X81697600Y-93878250D01*
X81698774Y-93854358D01*
X81702284Y-93830697D01*
X81708096Y-93807493D01*
X81716154Y-93784971D01*
X81726382Y-93763347D01*
X81738679Y-93742830D01*
X81752929Y-93723617D01*
X81768993Y-93705893D01*
X81786717Y-93689829D01*
X81805930Y-93675579D01*
X81826447Y-93663282D01*
X81848071Y-93653054D01*
X81870593Y-93644996D01*
X81893797Y-93639184D01*
X81917458Y-93635674D01*
X81941350Y-93634500D01*
X82853850Y-93634500D01*
X82877742Y-93635674D01*
X82877742Y-93635674D01*
G37*
D16*
X82397600Y-94122000D03*
D15*
G36*
X82877742Y-95510674D02*
G01*
X82901403Y-95514184D01*
X82924607Y-95519996D01*
X82947129Y-95528054D01*
X82968753Y-95538282D01*
X82989270Y-95550579D01*
X83008483Y-95564829D01*
X83026207Y-95580893D01*
X83042271Y-95598617D01*
X83056521Y-95617830D01*
X83068818Y-95638347D01*
X83079046Y-95659971D01*
X83087104Y-95682493D01*
X83092916Y-95705697D01*
X83096426Y-95729358D01*
X83097600Y-95753250D01*
X83097600Y-96240750D01*
X83096426Y-96264642D01*
X83092916Y-96288303D01*
X83087104Y-96311507D01*
X83079046Y-96334029D01*
X83068818Y-96355653D01*
X83056521Y-96376170D01*
X83042271Y-96395383D01*
X83026207Y-96413107D01*
X83008483Y-96429171D01*
X82989270Y-96443421D01*
X82968753Y-96455718D01*
X82947129Y-96465946D01*
X82924607Y-96474004D01*
X82901403Y-96479816D01*
X82877742Y-96483326D01*
X82853850Y-96484500D01*
X81941350Y-96484500D01*
X81917458Y-96483326D01*
X81893797Y-96479816D01*
X81870593Y-96474004D01*
X81848071Y-96465946D01*
X81826447Y-96455718D01*
X81805930Y-96443421D01*
X81786717Y-96429171D01*
X81768993Y-96413107D01*
X81752929Y-96395383D01*
X81738679Y-96376170D01*
X81726382Y-96355653D01*
X81716154Y-96334029D01*
X81708096Y-96311507D01*
X81702284Y-96288303D01*
X81698774Y-96264642D01*
X81697600Y-96240750D01*
X81697600Y-95753250D01*
X81698774Y-95729358D01*
X81702284Y-95705697D01*
X81708096Y-95682493D01*
X81716154Y-95659971D01*
X81726382Y-95638347D01*
X81738679Y-95617830D01*
X81752929Y-95598617D01*
X81768993Y-95580893D01*
X81786717Y-95564829D01*
X81805930Y-95550579D01*
X81826447Y-95538282D01*
X81848071Y-95528054D01*
X81870593Y-95519996D01*
X81893797Y-95514184D01*
X81917458Y-95510674D01*
X81941350Y-95509500D01*
X82853850Y-95509500D01*
X82877742Y-95510674D01*
X82877742Y-95510674D01*
G37*
D16*
X82397600Y-95997000D03*
D15*
G36*
X80299642Y-93635674D02*
G01*
X80323303Y-93639184D01*
X80346507Y-93644996D01*
X80369029Y-93653054D01*
X80390653Y-93663282D01*
X80411170Y-93675579D01*
X80430383Y-93689829D01*
X80448107Y-93705893D01*
X80464171Y-93723617D01*
X80478421Y-93742830D01*
X80490718Y-93763347D01*
X80500946Y-93784971D01*
X80509004Y-93807493D01*
X80514816Y-93830697D01*
X80518326Y-93854358D01*
X80519500Y-93878250D01*
X80519500Y-94365750D01*
X80518326Y-94389642D01*
X80514816Y-94413303D01*
X80509004Y-94436507D01*
X80500946Y-94459029D01*
X80490718Y-94480653D01*
X80478421Y-94501170D01*
X80464171Y-94520383D01*
X80448107Y-94538107D01*
X80430383Y-94554171D01*
X80411170Y-94568421D01*
X80390653Y-94580718D01*
X80369029Y-94590946D01*
X80346507Y-94599004D01*
X80323303Y-94604816D01*
X80299642Y-94608326D01*
X80275750Y-94609500D01*
X79363250Y-94609500D01*
X79339358Y-94608326D01*
X79315697Y-94604816D01*
X79292493Y-94599004D01*
X79269971Y-94590946D01*
X79248347Y-94580718D01*
X79227830Y-94568421D01*
X79208617Y-94554171D01*
X79190893Y-94538107D01*
X79174829Y-94520383D01*
X79160579Y-94501170D01*
X79148282Y-94480653D01*
X79138054Y-94459029D01*
X79129996Y-94436507D01*
X79124184Y-94413303D01*
X79120674Y-94389642D01*
X79119500Y-94365750D01*
X79119500Y-93878250D01*
X79120674Y-93854358D01*
X79124184Y-93830697D01*
X79129996Y-93807493D01*
X79138054Y-93784971D01*
X79148282Y-93763347D01*
X79160579Y-93742830D01*
X79174829Y-93723617D01*
X79190893Y-93705893D01*
X79208617Y-93689829D01*
X79227830Y-93675579D01*
X79248347Y-93663282D01*
X79269971Y-93653054D01*
X79292493Y-93644996D01*
X79315697Y-93639184D01*
X79339358Y-93635674D01*
X79363250Y-93634500D01*
X80275750Y-93634500D01*
X80299642Y-93635674D01*
X80299642Y-93635674D01*
G37*
D16*
X79819500Y-94122000D03*
D15*
G36*
X80299642Y-95510674D02*
G01*
X80323303Y-95514184D01*
X80346507Y-95519996D01*
X80369029Y-95528054D01*
X80390653Y-95538282D01*
X80411170Y-95550579D01*
X80430383Y-95564829D01*
X80448107Y-95580893D01*
X80464171Y-95598617D01*
X80478421Y-95617830D01*
X80490718Y-95638347D01*
X80500946Y-95659971D01*
X80509004Y-95682493D01*
X80514816Y-95705697D01*
X80518326Y-95729358D01*
X80519500Y-95753250D01*
X80519500Y-96240750D01*
X80518326Y-96264642D01*
X80514816Y-96288303D01*
X80509004Y-96311507D01*
X80500946Y-96334029D01*
X80490718Y-96355653D01*
X80478421Y-96376170D01*
X80464171Y-96395383D01*
X80448107Y-96413107D01*
X80430383Y-96429171D01*
X80411170Y-96443421D01*
X80390653Y-96455718D01*
X80369029Y-96465946D01*
X80346507Y-96474004D01*
X80323303Y-96479816D01*
X80299642Y-96483326D01*
X80275750Y-96484500D01*
X79363250Y-96484500D01*
X79339358Y-96483326D01*
X79315697Y-96479816D01*
X79292493Y-96474004D01*
X79269971Y-96465946D01*
X79248347Y-96455718D01*
X79227830Y-96443421D01*
X79208617Y-96429171D01*
X79190893Y-96413107D01*
X79174829Y-96395383D01*
X79160579Y-96376170D01*
X79148282Y-96355653D01*
X79138054Y-96334029D01*
X79129996Y-96311507D01*
X79124184Y-96288303D01*
X79120674Y-96264642D01*
X79119500Y-96240750D01*
X79119500Y-95753250D01*
X79120674Y-95729358D01*
X79124184Y-95705697D01*
X79129996Y-95682493D01*
X79138054Y-95659971D01*
X79148282Y-95638347D01*
X79160579Y-95617830D01*
X79174829Y-95598617D01*
X79190893Y-95580893D01*
X79208617Y-95564829D01*
X79227830Y-95550579D01*
X79248347Y-95538282D01*
X79269971Y-95528054D01*
X79292493Y-95519996D01*
X79315697Y-95514184D01*
X79339358Y-95510674D01*
X79363250Y-95509500D01*
X80275750Y-95509500D01*
X80299642Y-95510674D01*
X80299642Y-95510674D01*
G37*
D16*
X79819500Y-95997000D03*
D18*
X68000000Y-50673000D03*
D19*
X74322000Y-90000000D03*
X74322000Y-91780000D03*
X74322000Y-93560000D03*
X74322000Y-95340000D03*
X74322000Y-97120000D03*
X74322000Y-98900000D03*
X74322000Y-100680000D03*
X74322000Y-102460000D03*
X61722000Y-102460000D03*
X61722000Y-100680000D03*
X61722000Y-98900000D03*
X61722000Y-97120000D03*
X61722000Y-95340000D03*
X61722000Y-93560000D03*
X61722000Y-91780000D03*
D20*
X61722000Y-90000000D03*
D21*
X79058000Y-110375200D03*
X73939400Y-105918000D03*
X79044800Y-112776000D03*
X54356000Y-99568000D03*
X59436000Y-86106000D03*
X59436000Y-91948000D03*
X67818000Y-106934000D03*
X67818000Y-104394000D03*
X68072000Y-86360000D03*
X72644000Y-86360000D03*
X64516000Y-86360000D03*
X59690000Y-80010000D03*
D22*
X78309200Y-110375200D02*
X79058000Y-110375200D01*
X77721700Y-110375200D02*
X78309200Y-110375200D01*
X60696999Y-99925001D02*
X60696999Y-104359599D01*
X61722000Y-98900000D02*
X60696999Y-99925001D01*
X60696999Y-104359599D02*
X60696999Y-104588199D01*
X60696999Y-104588199D02*
X61417200Y-105308400D01*
X61417200Y-105308400D02*
X73329800Y-105308400D01*
X73329800Y-105308400D02*
X73939400Y-105918000D01*
X79058000Y-110375200D02*
X80304400Y-110375200D01*
X73939400Y-105918000D02*
X73939400Y-105918000D01*
X77721700Y-112776000D02*
X79044800Y-112776000D01*
X79044800Y-112776000D02*
X80304400Y-112776000D01*
X77721700Y-107962200D02*
X80304400Y-107962200D01*
X77165463Y-107405963D02*
X77721700Y-107962200D01*
X73174499Y-103414999D02*
X77165463Y-107405963D01*
X63021990Y-94859990D02*
X63021990Y-103125689D01*
X63311300Y-103414999D02*
X73174499Y-103414999D01*
X63021990Y-103125689D02*
X63311300Y-103414999D01*
X61722000Y-93560000D02*
X63021990Y-94859990D01*
X61722000Y-91780000D02*
X61850200Y-91780000D01*
X62711949Y-91780000D02*
X61722000Y-91780000D01*
X62747001Y-91744948D02*
X62711949Y-91780000D01*
X62747001Y-89609300D02*
X62747001Y-91744948D01*
X67368000Y-84988301D02*
X62747001Y-89609300D01*
X67368000Y-84741500D02*
X67368000Y-84988301D01*
X81914500Y-101002000D02*
X81915000Y-101002500D01*
X74322000Y-98900000D02*
X77844000Y-98900000D01*
X77844000Y-98900000D02*
X79105500Y-100161200D01*
X79105500Y-100161200D02*
X79946500Y-101002200D01*
X79946500Y-101002200D02*
X79946500Y-101002500D01*
X79105500Y-100161200D02*
X79946500Y-101002000D01*
X81914500Y-101002000D02*
X81915000Y-101002000D01*
X62966500Y-82263000D02*
X62966500Y-82677000D01*
X74322000Y-93560000D02*
X79107500Y-93560000D01*
X79107500Y-93560000D02*
X79819500Y-94272000D01*
X62793400Y-84368400D02*
X62816500Y-84391500D01*
X62793400Y-82143600D02*
X62793400Y-84368400D01*
X79819500Y-89867500D02*
X82346800Y-89867500D01*
X79819500Y-94122000D02*
X82397600Y-94122000D01*
X83667600Y-91188300D02*
X82346800Y-89867500D01*
X83667600Y-92852000D02*
X83667600Y-91188300D01*
X82397600Y-94122000D02*
X83667600Y-92852000D01*
X79819500Y-90017500D02*
X79819500Y-86906100D01*
X79819500Y-86906100D02*
X74024600Y-81111200D01*
X82436200Y-100852500D02*
X82473800Y-100814900D01*
X79946500Y-100852500D02*
X82436200Y-100852500D01*
X83498810Y-106642790D02*
X82179400Y-107962200D01*
X83498810Y-101839910D02*
X83498810Y-106642790D01*
X82473800Y-100814900D02*
X83498810Y-101839910D01*
X82179400Y-107962200D02*
X82179400Y-110375200D01*
X82179400Y-110375200D02*
X82179400Y-112776000D01*
X63468420Y-80668580D02*
X73581980Y-80668580D01*
X62793400Y-81343600D02*
X63468420Y-80668580D01*
X73581980Y-80668580D02*
X74024600Y-81111200D01*
X62793400Y-82143600D02*
X62793400Y-81343600D01*
X55989001Y-96121001D02*
X42164000Y-82296000D01*
X59234583Y-97701581D02*
X57654003Y-96121001D01*
X59234583Y-109070901D02*
X59234583Y-97701581D01*
X72855221Y-109784521D02*
X59948202Y-109784520D01*
X57654003Y-96121001D02*
X55989001Y-96121001D01*
X59948202Y-109784520D02*
X59234583Y-109070901D01*
X75846700Y-112776000D02*
X72855221Y-109784521D01*
X75259200Y-110375200D02*
X75846700Y-110375200D01*
X74218511Y-109334511D02*
X75259200Y-110375200D01*
X60134603Y-109334511D02*
X74218511Y-109334511D01*
X59684593Y-108884501D02*
X60134603Y-109334511D01*
X59684593Y-95611591D02*
X59684593Y-108884501D01*
X57944001Y-93870999D02*
X59684593Y-95611591D01*
X57153997Y-93870999D02*
X57944001Y-93870999D01*
X56278999Y-92996001D02*
X57153997Y-93870999D01*
X56278999Y-85961001D02*
X56278999Y-92996001D01*
X57404000Y-84836000D02*
X56278999Y-85961001D01*
X75846700Y-107962200D02*
X74924399Y-108884501D01*
X58535370Y-87376000D02*
X60246989Y-89087619D01*
X57404000Y-87376000D02*
X58535370Y-87376000D01*
X60246989Y-108597991D02*
X60533499Y-108884501D01*
X60246989Y-89087619D02*
X60246989Y-108597991D01*
X74924399Y-108884501D02*
X60533499Y-108884501D01*
X79946000Y-102578000D02*
X74439500Y-102578000D01*
X74439500Y-102578000D02*
X74322000Y-102460000D01*
X81914500Y-102578000D02*
X81915000Y-102577500D01*
X81915000Y-102578000D02*
X81914500Y-102578000D01*
X79946000Y-102578000D02*
X79946500Y-102577500D01*
X74322000Y-102460000D02*
X74322000Y-100680000D01*
X74322000Y-91780000D02*
X74322000Y-91617900D01*
X74322000Y-100680000D02*
X73265000Y-99623000D01*
X73265000Y-99623000D02*
X73265000Y-98177000D01*
X73265000Y-98177000D02*
X74322000Y-97120000D01*
X74322000Y-97120000D02*
X73285800Y-96083800D01*
X73285800Y-96083800D02*
X73285800Y-92816200D01*
X73285800Y-92816200D02*
X74322000Y-91780000D01*
X74322000Y-91617900D02*
X79794100Y-91617900D01*
X79794100Y-91617900D02*
X79819500Y-91592500D01*
X69268000Y-85441500D02*
X69268000Y-84741500D01*
X73022010Y-89195510D02*
X69268000Y-85441500D01*
X73022010Y-90480010D02*
X73022010Y-89195510D01*
X74322000Y-91780000D02*
X73022010Y-90480010D01*
X68542999Y-83966499D02*
X65980999Y-83966499D01*
X69268000Y-84691500D02*
X68542999Y-83966499D01*
X69268000Y-84741500D02*
X69268000Y-84691500D01*
X65555998Y-84391500D02*
X64691500Y-84391500D01*
X65980999Y-83966499D02*
X65555998Y-84391500D01*
X64668400Y-84368400D02*
X64691500Y-84391500D01*
X64668400Y-82143600D02*
X64668400Y-84368400D01*
X79819500Y-91742500D02*
X82346800Y-91742500D01*
X82436200Y-102727500D02*
X82473800Y-102689900D01*
X79946500Y-102727500D02*
X82436200Y-102727500D01*
X64691500Y-86184500D02*
X64516000Y-86360000D01*
X64691500Y-84391500D02*
X64691500Y-86184500D01*
X41038999Y-81755999D02*
X42784998Y-80010000D01*
X41038999Y-83710999D02*
X41038999Y-81755999D01*
X42784998Y-80010000D02*
X59690000Y-80010000D01*
X42164000Y-84836000D02*
X41038999Y-83710999D01*
X74322000Y-95340000D02*
X79312500Y-95340000D01*
X79312500Y-95340000D02*
X79819500Y-95847000D01*
X79819500Y-95997000D02*
X82397600Y-95997000D01*
X74322000Y-90000000D02*
X74322000Y-84761500D01*
X74322000Y-84761500D02*
X74231500Y-84671000D01*
X74231500Y-83096000D02*
X74227000Y-83091500D01*
X68522500Y-82946000D02*
X68318000Y-82741500D01*
X74231500Y-82946000D02*
X68522500Y-82946000D01*
X61722000Y-89050000D02*
X61722000Y-90000000D01*
X63629010Y-87142990D02*
X61722000Y-89050000D01*
X63629010Y-81428660D02*
X63629010Y-87142990D01*
X66045090Y-81118590D02*
X63939080Y-81118590D01*
X63939080Y-81118590D02*
X63629010Y-81428660D01*
X67668000Y-82741500D02*
X66045090Y-81118590D01*
X68318000Y-82741500D02*
X67668000Y-82741500D01*
D23*
G36*
X95340000Y-46837381D02*
G01*
X95340001Y-121226618D01*
X93226620Y-123340000D01*
X42773381Y-123340000D01*
X40660000Y-121226620D01*
X40660000Y-117856000D01*
X40722057Y-117856000D01*
X40749764Y-118137309D01*
X40831818Y-118407808D01*
X40965068Y-118657101D01*
X41144392Y-118875608D01*
X41362899Y-119054932D01*
X41612192Y-119188182D01*
X41882691Y-119270236D01*
X42093508Y-119291000D01*
X42234492Y-119291000D01*
X42445309Y-119270236D01*
X42715808Y-119188182D01*
X42965101Y-119054932D01*
X43183608Y-118875608D01*
X43362932Y-118657101D01*
X43496182Y-118407808D01*
X43578236Y-118137309D01*
X43605943Y-117856000D01*
X43578236Y-117574691D01*
X43496182Y-117304192D01*
X43362932Y-117054899D01*
X43183608Y-116836392D01*
X42965101Y-116657068D01*
X42827318Y-116583421D01*
X43019131Y-116468385D01*
X43227519Y-116279414D01*
X43395037Y-116053420D01*
X43515246Y-115799087D01*
X43555904Y-115665039D01*
X43433915Y-115443000D01*
X42291000Y-115443000D01*
X42291000Y-115463000D01*
X42037000Y-115463000D01*
X42037000Y-115443000D01*
X40894085Y-115443000D01*
X40772096Y-115665039D01*
X40812754Y-115799087D01*
X40932963Y-116053420D01*
X41100481Y-116279414D01*
X41308869Y-116468385D01*
X41500682Y-116583421D01*
X41362899Y-116657068D01*
X41144392Y-116836392D01*
X40965068Y-117054899D01*
X40831818Y-117304192D01*
X40749764Y-117574691D01*
X40722057Y-117856000D01*
X40660000Y-117856000D01*
X40660000Y-84406801D01*
X40763292Y-84510094D01*
X40749764Y-84554691D01*
X40722057Y-84836000D01*
X40749764Y-85117309D01*
X40831818Y-85387808D01*
X40965068Y-85637101D01*
X41144392Y-85855608D01*
X41362899Y-86034932D01*
X41495858Y-86106000D01*
X41362899Y-86177068D01*
X41144392Y-86356392D01*
X40965068Y-86574899D01*
X40831818Y-86824192D01*
X40749764Y-87094691D01*
X40722057Y-87376000D01*
X40749764Y-87657309D01*
X40831818Y-87927808D01*
X40965068Y-88177101D01*
X41144392Y-88395608D01*
X41362899Y-88574932D01*
X41495858Y-88646000D01*
X41362899Y-88717068D01*
X41144392Y-88896392D01*
X40965068Y-89114899D01*
X40831818Y-89364192D01*
X40749764Y-89634691D01*
X40722057Y-89916000D01*
X40749764Y-90197309D01*
X40831818Y-90467808D01*
X40965068Y-90717101D01*
X41144392Y-90935608D01*
X41362899Y-91114932D01*
X41495858Y-91186000D01*
X41362899Y-91257068D01*
X41144392Y-91436392D01*
X40965068Y-91654899D01*
X40831818Y-91904192D01*
X40749764Y-92174691D01*
X40722057Y-92456000D01*
X40749764Y-92737309D01*
X40831818Y-93007808D01*
X40965068Y-93257101D01*
X41144392Y-93475608D01*
X41362899Y-93654932D01*
X41495858Y-93726000D01*
X41362899Y-93797068D01*
X41144392Y-93976392D01*
X40965068Y-94194899D01*
X40831818Y-94444192D01*
X40749764Y-94714691D01*
X40722057Y-94996000D01*
X40749764Y-95277309D01*
X40831818Y-95547808D01*
X40965068Y-95797101D01*
X41144392Y-96015608D01*
X41362899Y-96194932D01*
X41495858Y-96266000D01*
X41362899Y-96337068D01*
X41144392Y-96516392D01*
X40965068Y-96734899D01*
X40831818Y-96984192D01*
X40749764Y-97254691D01*
X40722057Y-97536000D01*
X40749764Y-97817309D01*
X40831818Y-98087808D01*
X40965068Y-98337101D01*
X41144392Y-98555608D01*
X41362899Y-98734932D01*
X41495858Y-98806000D01*
X41362899Y-98877068D01*
X41144392Y-99056392D01*
X40965068Y-99274899D01*
X40831818Y-99524192D01*
X40749764Y-99794691D01*
X40722057Y-100076000D01*
X40749764Y-100357309D01*
X40831818Y-100627808D01*
X40965068Y-100877101D01*
X41144392Y-101095608D01*
X41362899Y-101274932D01*
X41495858Y-101346000D01*
X41362899Y-101417068D01*
X41144392Y-101596392D01*
X40965068Y-101814899D01*
X40831818Y-102064192D01*
X40749764Y-102334691D01*
X40722057Y-102616000D01*
X40749764Y-102897309D01*
X40831818Y-103167808D01*
X40965068Y-103417101D01*
X41144392Y-103635608D01*
X41362899Y-103814932D01*
X41495858Y-103886000D01*
X41362899Y-103957068D01*
X41144392Y-104136392D01*
X40965068Y-104354899D01*
X40831818Y-104604192D01*
X40749764Y-104874691D01*
X40722057Y-105156000D01*
X40749764Y-105437309D01*
X40831818Y-105707808D01*
X40965068Y-105957101D01*
X41144392Y-106175608D01*
X41362899Y-106354932D01*
X41495858Y-106426000D01*
X41362899Y-106497068D01*
X41144392Y-106676392D01*
X40965068Y-106894899D01*
X40831818Y-107144192D01*
X40749764Y-107414691D01*
X40722057Y-107696000D01*
X40749764Y-107977309D01*
X40831818Y-108247808D01*
X40965068Y-108497101D01*
X41144392Y-108715608D01*
X41362899Y-108894932D01*
X41495858Y-108966000D01*
X41362899Y-109037068D01*
X41144392Y-109216392D01*
X40965068Y-109434899D01*
X40831818Y-109684192D01*
X40749764Y-109954691D01*
X40722057Y-110236000D01*
X40749764Y-110517309D01*
X40831818Y-110787808D01*
X40965068Y-111037101D01*
X41144392Y-111255608D01*
X41362899Y-111434932D01*
X41495858Y-111506000D01*
X41362899Y-111577068D01*
X41144392Y-111756392D01*
X40965068Y-111974899D01*
X40831818Y-112224192D01*
X40749764Y-112494691D01*
X40722057Y-112776000D01*
X40749764Y-113057309D01*
X40831818Y-113327808D01*
X40965068Y-113577101D01*
X41144392Y-113795608D01*
X41362899Y-113974932D01*
X41500682Y-114048579D01*
X41308869Y-114163615D01*
X41100481Y-114352586D01*
X40932963Y-114578580D01*
X40812754Y-114832913D01*
X40772096Y-114966961D01*
X40894085Y-115189000D01*
X42037000Y-115189000D01*
X42037000Y-115169000D01*
X42291000Y-115169000D01*
X42291000Y-115189000D01*
X43433915Y-115189000D01*
X43555904Y-114966961D01*
X43515246Y-114832913D01*
X43395037Y-114578580D01*
X43227519Y-114352586D01*
X43019131Y-114163615D01*
X42827318Y-114048579D01*
X42965101Y-113974932D01*
X43183608Y-113795608D01*
X43362932Y-113577101D01*
X43496182Y-113327808D01*
X43578236Y-113057309D01*
X43605943Y-112776000D01*
X43578236Y-112494691D01*
X43496182Y-112224192D01*
X43362932Y-111974899D01*
X43183608Y-111756392D01*
X42965101Y-111577068D01*
X42832142Y-111506000D01*
X42965101Y-111434932D01*
X43183608Y-111255608D01*
X43222797Y-111207856D01*
X48708800Y-111207856D01*
X48708800Y-111854944D01*
X48835040Y-112489599D01*
X49082671Y-113087431D01*
X49442174Y-113625466D01*
X49899734Y-114083026D01*
X50437769Y-114442529D01*
X51035601Y-114690160D01*
X51670256Y-114816400D01*
X52317344Y-114816400D01*
X52951999Y-114690160D01*
X53549831Y-114442529D01*
X54087866Y-114083026D01*
X54545426Y-113625466D01*
X54904929Y-113087431D01*
X55033928Y-112776000D01*
X55962057Y-112776000D01*
X55989764Y-113057309D01*
X56071818Y-113327808D01*
X56205068Y-113577101D01*
X56384392Y-113795608D01*
X56602899Y-113974932D01*
X56735858Y-114046000D01*
X56602899Y-114117068D01*
X56384392Y-114296392D01*
X56205068Y-114514899D01*
X56071818Y-114764192D01*
X55989764Y-115034691D01*
X55962057Y-115316000D01*
X55989764Y-115597309D01*
X56071818Y-115867808D01*
X56205068Y-116117101D01*
X56384392Y-116335608D01*
X56497482Y-116428419D01*
X56479518Y-116430188D01*
X56359820Y-116466498D01*
X56249506Y-116525463D01*
X56152815Y-116604815D01*
X56073463Y-116701506D01*
X56014498Y-116811820D01*
X55978188Y-116931518D01*
X55965928Y-117056000D01*
X55965928Y-118656000D01*
X55978188Y-118780482D01*
X56014498Y-118900180D01*
X56073463Y-119010494D01*
X56152815Y-119107185D01*
X56249506Y-119186537D01*
X56359820Y-119245502D01*
X56479518Y-119281812D01*
X56604000Y-119294072D01*
X58204000Y-119294072D01*
X58328482Y-119281812D01*
X58448180Y-119245502D01*
X58558494Y-119186537D01*
X58655185Y-119107185D01*
X58734537Y-119010494D01*
X58793502Y-118900180D01*
X58829812Y-118780482D01*
X58842072Y-118656000D01*
X58842072Y-117056000D01*
X58829812Y-116931518D01*
X58793502Y-116811820D01*
X58734537Y-116701506D01*
X58655185Y-116604815D01*
X58558494Y-116525463D01*
X58448180Y-116466498D01*
X58328482Y-116430188D01*
X58310518Y-116428419D01*
X58423608Y-116335608D01*
X58582511Y-116141984D01*
X64310000Y-116141984D01*
X64310000Y-116858016D01*
X64449691Y-117560290D01*
X64723705Y-118221818D01*
X65121511Y-118817177D01*
X65627823Y-119323489D01*
X66223182Y-119721295D01*
X66884710Y-119995309D01*
X67586984Y-120135000D01*
X68303016Y-120135000D01*
X69005290Y-119995309D01*
X69666818Y-119721295D01*
X70262177Y-119323489D01*
X70768489Y-118817177D01*
X71166295Y-118221818D01*
X71440309Y-117560290D01*
X71580000Y-116858016D01*
X71580000Y-116141984D01*
X71440309Y-115439710D01*
X71166295Y-114778182D01*
X70768489Y-114182823D01*
X70262177Y-113676511D01*
X69666818Y-113278705D01*
X69005290Y-113004691D01*
X68303016Y-112865000D01*
X67586984Y-112865000D01*
X66884710Y-113004691D01*
X66223182Y-113278705D01*
X65627823Y-113676511D01*
X65121511Y-114182823D01*
X64723705Y-114778182D01*
X64449691Y-115439710D01*
X64310000Y-116141984D01*
X58582511Y-116141984D01*
X58602932Y-116117101D01*
X58736182Y-115867808D01*
X58818236Y-115597309D01*
X58845943Y-115316000D01*
X58818236Y-115034691D01*
X58736182Y-114764192D01*
X58602932Y-114514899D01*
X58423608Y-114296392D01*
X58205101Y-114117068D01*
X58072142Y-114046000D01*
X58205101Y-113974932D01*
X58423608Y-113795608D01*
X58602932Y-113577101D01*
X58736182Y-113327808D01*
X58818236Y-113057309D01*
X58845943Y-112776000D01*
X58818236Y-112494691D01*
X58736182Y-112224192D01*
X58602932Y-111974899D01*
X58423608Y-111756392D01*
X58205101Y-111577068D01*
X58067318Y-111503421D01*
X58259131Y-111388385D01*
X58467519Y-111199414D01*
X58635037Y-110973420D01*
X58755246Y-110719087D01*
X58795904Y-110585039D01*
X58673915Y-110363000D01*
X57531000Y-110363000D01*
X57531000Y-110383000D01*
X57277000Y-110383000D01*
X57277000Y-110363000D01*
X56134085Y-110363000D01*
X56012096Y-110585039D01*
X56052754Y-110719087D01*
X56172963Y-110973420D01*
X56340481Y-111199414D01*
X56548869Y-111388385D01*
X56740682Y-111503421D01*
X56602899Y-111577068D01*
X56384392Y-111756392D01*
X56205068Y-111974899D01*
X56071818Y-112224192D01*
X55989764Y-112494691D01*
X55962057Y-112776000D01*
X55033928Y-112776000D01*
X55152560Y-112489599D01*
X55278800Y-111854944D01*
X55278800Y-111207856D01*
X55152560Y-110573201D01*
X54904929Y-109975369D01*
X54545426Y-109437334D01*
X54087866Y-108979774D01*
X53549831Y-108620271D01*
X52951999Y-108372640D01*
X52317344Y-108246400D01*
X51670256Y-108246400D01*
X51035601Y-108372640D01*
X50437769Y-108620271D01*
X49899734Y-108979774D01*
X49442174Y-109437334D01*
X49082671Y-109975369D01*
X48835040Y-110573201D01*
X48708800Y-111207856D01*
X43222797Y-111207856D01*
X43362932Y-111037101D01*
X43496182Y-110787808D01*
X43578236Y-110517309D01*
X43605943Y-110236000D01*
X43578236Y-109954691D01*
X43496182Y-109684192D01*
X43362932Y-109434899D01*
X43183608Y-109216392D01*
X42965101Y-109037068D01*
X42832142Y-108966000D01*
X42965101Y-108894932D01*
X43183608Y-108715608D01*
X43362932Y-108497101D01*
X43496182Y-108247808D01*
X43578236Y-107977309D01*
X43605943Y-107696000D01*
X43578236Y-107414691D01*
X43496182Y-107144192D01*
X43362932Y-106894899D01*
X43183608Y-106676392D01*
X42965101Y-106497068D01*
X42832142Y-106426000D01*
X42965101Y-106354932D01*
X43183608Y-106175608D01*
X43362932Y-105957101D01*
X43496182Y-105707808D01*
X43578236Y-105437309D01*
X43605943Y-105156000D01*
X43578236Y-104874691D01*
X43496182Y-104604192D01*
X43362932Y-104354899D01*
X43183608Y-104136392D01*
X42965101Y-103957068D01*
X42832142Y-103886000D01*
X42965101Y-103814932D01*
X43183608Y-103635608D01*
X43362932Y-103417101D01*
X43496182Y-103167808D01*
X43578236Y-102897309D01*
X43605943Y-102616000D01*
X43578236Y-102334691D01*
X43496182Y-102064192D01*
X43362932Y-101814899D01*
X43183608Y-101596392D01*
X42965101Y-101417068D01*
X42832142Y-101346000D01*
X42965101Y-101274932D01*
X43183608Y-101095608D01*
X43362932Y-100877101D01*
X43496182Y-100627808D01*
X43578236Y-100357309D01*
X43605943Y-100076000D01*
X43578236Y-99794691D01*
X43496182Y-99524192D01*
X43362932Y-99274899D01*
X43183608Y-99056392D01*
X42965101Y-98877068D01*
X42832142Y-98806000D01*
X42965101Y-98734932D01*
X43183608Y-98555608D01*
X43362932Y-98337101D01*
X43496182Y-98087808D01*
X43578236Y-97817309D01*
X43605943Y-97536000D01*
X43578236Y-97254691D01*
X43496182Y-96984192D01*
X43362932Y-96734899D01*
X43183608Y-96516392D01*
X42965101Y-96337068D01*
X42832142Y-96266000D01*
X42965101Y-96194932D01*
X43183608Y-96015608D01*
X43362932Y-95797101D01*
X43496182Y-95547808D01*
X43578236Y-95277309D01*
X43605943Y-94996000D01*
X43578236Y-94714691D01*
X43496182Y-94444192D01*
X43362932Y-94194899D01*
X43183608Y-93976392D01*
X42965101Y-93797068D01*
X42832142Y-93726000D01*
X42965101Y-93654932D01*
X43183608Y-93475608D01*
X43362932Y-93257101D01*
X43496182Y-93007808D01*
X43578236Y-92737309D01*
X43605943Y-92456000D01*
X43578236Y-92174691D01*
X43496182Y-91904192D01*
X43362932Y-91654899D01*
X43183608Y-91436392D01*
X42965101Y-91257068D01*
X42832142Y-91186000D01*
X42965101Y-91114932D01*
X43183608Y-90935608D01*
X43362932Y-90717101D01*
X43496182Y-90467808D01*
X43578236Y-90197309D01*
X43605943Y-89916000D01*
X43578236Y-89634691D01*
X43496182Y-89364192D01*
X43362932Y-89114899D01*
X43183608Y-88896392D01*
X42965101Y-88717068D01*
X42832142Y-88646000D01*
X42965101Y-88574932D01*
X43183608Y-88395608D01*
X43362932Y-88177101D01*
X43496182Y-87927808D01*
X43578236Y-87657309D01*
X43605943Y-87376000D01*
X43578236Y-87094691D01*
X43496182Y-86824192D01*
X43362932Y-86574899D01*
X43183608Y-86356392D01*
X42965101Y-86177068D01*
X42832142Y-86106000D01*
X42965101Y-86034932D01*
X43183608Y-85855608D01*
X43362932Y-85637101D01*
X43496182Y-85387808D01*
X43578236Y-85117309D01*
X43605943Y-84836000D01*
X43603402Y-84810203D01*
X55425201Y-96632003D01*
X55449000Y-96661002D01*
X55477998Y-96684800D01*
X55564724Y-96755975D01*
X55696754Y-96826547D01*
X55840015Y-96870004D01*
X55951668Y-96881001D01*
X55951678Y-96881001D01*
X55989001Y-96884677D01*
X56026324Y-96881001D01*
X56126975Y-96881001D01*
X56071818Y-96984192D01*
X55989764Y-97254691D01*
X55962057Y-97536000D01*
X55989764Y-97817309D01*
X56071818Y-98087808D01*
X56205068Y-98337101D01*
X56384392Y-98555608D01*
X56602899Y-98734932D01*
X56735858Y-98806000D01*
X56602899Y-98877068D01*
X56384392Y-99056392D01*
X56205068Y-99274899D01*
X56071818Y-99524192D01*
X55989764Y-99794691D01*
X55962057Y-100076000D01*
X55989764Y-100357309D01*
X56071818Y-100627808D01*
X56205068Y-100877101D01*
X56384392Y-101095608D01*
X56602899Y-101274932D01*
X56735858Y-101346000D01*
X56602899Y-101417068D01*
X56384392Y-101596392D01*
X56205068Y-101814899D01*
X56071818Y-102064192D01*
X55989764Y-102334691D01*
X55962057Y-102616000D01*
X55989764Y-102897309D01*
X56071818Y-103167808D01*
X56205068Y-103417101D01*
X56384392Y-103635608D01*
X56602899Y-103814932D01*
X56735858Y-103886000D01*
X56602899Y-103957068D01*
X56384392Y-104136392D01*
X56205068Y-104354899D01*
X56071818Y-104604192D01*
X55989764Y-104874691D01*
X55962057Y-105156000D01*
X55989764Y-105437309D01*
X56071818Y-105707808D01*
X56205068Y-105957101D01*
X56384392Y-106175608D01*
X56602899Y-106354932D01*
X56735858Y-106426000D01*
X56602899Y-106497068D01*
X56384392Y-106676392D01*
X56205068Y-106894899D01*
X56071818Y-107144192D01*
X55989764Y-107414691D01*
X55962057Y-107696000D01*
X55989764Y-107977309D01*
X56071818Y-108247808D01*
X56205068Y-108497101D01*
X56384392Y-108715608D01*
X56602899Y-108894932D01*
X56740682Y-108968579D01*
X56548869Y-109083615D01*
X56340481Y-109272586D01*
X56172963Y-109498580D01*
X56052754Y-109752913D01*
X56012096Y-109886961D01*
X56134085Y-110109000D01*
X57277000Y-110109000D01*
X57277000Y-110089000D01*
X57531000Y-110089000D01*
X57531000Y-110109000D01*
X58673915Y-110109000D01*
X58795904Y-109886961D01*
X58755246Y-109752913D01*
X58679357Y-109592350D01*
X58694582Y-109610902D01*
X58723585Y-109634704D01*
X59384407Y-110295527D01*
X59408201Y-110324520D01*
X59437194Y-110348314D01*
X59437199Y-110348319D01*
X59523926Y-110419494D01*
X59655955Y-110490066D01*
X59799216Y-110533523D01*
X59948202Y-110548196D01*
X59985537Y-110544519D01*
X72540420Y-110544521D01*
X74721128Y-112725230D01*
X74721128Y-113232250D01*
X74738072Y-113404285D01*
X74788253Y-113569709D01*
X74869742Y-113722164D01*
X74979408Y-113855792D01*
X75113036Y-113965458D01*
X75265491Y-114046947D01*
X75430915Y-114097128D01*
X75602950Y-114114072D01*
X76090450Y-114114072D01*
X76262485Y-114097128D01*
X76427909Y-114046947D01*
X76580364Y-113965458D01*
X76713992Y-113855792D01*
X76784200Y-113770244D01*
X76854408Y-113855792D01*
X76988036Y-113965458D01*
X77140491Y-114046947D01*
X77305915Y-114097128D01*
X77477950Y-114114072D01*
X77965450Y-114114072D01*
X78137485Y-114097128D01*
X78302909Y-114046947D01*
X78455364Y-113965458D01*
X78588992Y-113855792D01*
X78679833Y-113745102D01*
X78742902Y-113771226D01*
X78942861Y-113811000D01*
X79146739Y-113811000D01*
X79346698Y-113771226D01*
X79362377Y-113764732D01*
X79437108Y-113855792D01*
X79570736Y-113965458D01*
X79723191Y-114046947D01*
X79888615Y-114097128D01*
X80060650Y-114114072D01*
X80548150Y-114114072D01*
X80720185Y-114097128D01*
X80885609Y-114046947D01*
X81038064Y-113965458D01*
X81171692Y-113855792D01*
X81176908Y-113849436D01*
X81240715Y-113927185D01*
X81337406Y-114006537D01*
X81447720Y-114065502D01*
X81567418Y-114101812D01*
X81691900Y-114114072D01*
X81893650Y-114111000D01*
X82052400Y-113952250D01*
X82052400Y-112903000D01*
X82306400Y-112903000D01*
X82306400Y-113952250D01*
X82465150Y-114111000D01*
X82666900Y-114114072D01*
X82791382Y-114101812D01*
X82911080Y-114065502D01*
X83021394Y-114006537D01*
X83118085Y-113927185D01*
X83197437Y-113830494D01*
X83256402Y-113720180D01*
X83292712Y-113600482D01*
X83304972Y-113476000D01*
X83301900Y-113061750D01*
X83143150Y-112903000D01*
X82306400Y-112903000D01*
X82052400Y-112903000D01*
X82032400Y-112903000D01*
X82032400Y-112649000D01*
X82052400Y-112649000D01*
X82052400Y-111599750D01*
X82028250Y-111575600D01*
X82052400Y-111551450D01*
X82052400Y-110502200D01*
X82306400Y-110502200D01*
X82306400Y-111551450D01*
X82330550Y-111575600D01*
X82306400Y-111599750D01*
X82306400Y-112649000D01*
X83143150Y-112649000D01*
X83301900Y-112490250D01*
X83304972Y-112076000D01*
X83292712Y-111951518D01*
X83256402Y-111831820D01*
X83197437Y-111721506D01*
X83118085Y-111624815D01*
X83058116Y-111575600D01*
X83118085Y-111526385D01*
X83197437Y-111429694D01*
X83256402Y-111319380D01*
X83292712Y-111199682D01*
X83304972Y-111075200D01*
X83301900Y-110660950D01*
X83143150Y-110502200D01*
X82306400Y-110502200D01*
X82052400Y-110502200D01*
X82032400Y-110502200D01*
X82032400Y-110248200D01*
X82052400Y-110248200D01*
X82052400Y-109198950D01*
X82022150Y-109168700D01*
X82052400Y-109138450D01*
X82052400Y-108089200D01*
X82306400Y-108089200D01*
X82306400Y-109138450D01*
X82336650Y-109168700D01*
X82306400Y-109198950D01*
X82306400Y-110248200D01*
X83143150Y-110248200D01*
X83301900Y-110089450D01*
X83304972Y-109675200D01*
X83292712Y-109550718D01*
X83256402Y-109431020D01*
X83197437Y-109320706D01*
X83118085Y-109224015D01*
X83050683Y-109168700D01*
X83118085Y-109113385D01*
X83197437Y-109016694D01*
X83256402Y-108906380D01*
X83292712Y-108786682D01*
X83304972Y-108662200D01*
X83301900Y-108247950D01*
X83143150Y-108089200D01*
X82306400Y-108089200D01*
X82052400Y-108089200D01*
X82032400Y-108089200D01*
X82032400Y-107835200D01*
X82052400Y-107835200D01*
X82052400Y-106785950D01*
X82306400Y-106785950D01*
X82306400Y-107835200D01*
X83143150Y-107835200D01*
X83301900Y-107676450D01*
X83304972Y-107262200D01*
X83292712Y-107137718D01*
X83256402Y-107018020D01*
X83197437Y-106907706D01*
X83118085Y-106811015D01*
X83021394Y-106731663D01*
X82911080Y-106672698D01*
X82791382Y-106636388D01*
X82666900Y-106624128D01*
X82465150Y-106627200D01*
X82306400Y-106785950D01*
X82052400Y-106785950D01*
X81893650Y-106627200D01*
X81691900Y-106624128D01*
X81567418Y-106636388D01*
X81447720Y-106672698D01*
X81337406Y-106731663D01*
X81240715Y-106811015D01*
X81176908Y-106888764D01*
X81171692Y-106882408D01*
X81038064Y-106772742D01*
X80885609Y-106691253D01*
X80720185Y-106641072D01*
X80548150Y-106624128D01*
X80060650Y-106624128D01*
X79888615Y-106641072D01*
X79723191Y-106691253D01*
X79570736Y-106772742D01*
X79437108Y-106882408D01*
X79327442Y-107016036D01*
X79245953Y-107168491D01*
X79235727Y-107202200D01*
X78790373Y-107202200D01*
X78780147Y-107168491D01*
X78698658Y-107016036D01*
X78588992Y-106882408D01*
X78455364Y-106772742D01*
X78302909Y-106691253D01*
X78137485Y-106641072D01*
X77965450Y-106624128D01*
X77477950Y-106624128D01*
X77460181Y-106625878D01*
X74600131Y-103765830D01*
X74711405Y-103743696D01*
X74954359Y-103643061D01*
X75173013Y-103496962D01*
X75331975Y-103338000D01*
X78691209Y-103338000D01*
X78757042Y-103461164D01*
X78866708Y-103594792D01*
X79000336Y-103704458D01*
X79152791Y-103785947D01*
X79318215Y-103836128D01*
X79490250Y-103853072D01*
X80402750Y-103853072D01*
X80574785Y-103836128D01*
X80740209Y-103785947D01*
X80892664Y-103704458D01*
X81026292Y-103594792D01*
X81114345Y-103487500D01*
X81336813Y-103487500D01*
X81394008Y-103557192D01*
X81527636Y-103666858D01*
X81680091Y-103748347D01*
X81845515Y-103798528D01*
X82017550Y-103815472D01*
X82930050Y-103815472D01*
X83102085Y-103798528D01*
X83267509Y-103748347D01*
X83419964Y-103666858D01*
X83553592Y-103557192D01*
X83663258Y-103423564D01*
X83744747Y-103271109D01*
X83794928Y-103105685D01*
X83811872Y-102933650D01*
X83811872Y-102446150D01*
X83794928Y-102274115D01*
X83744747Y-102108691D01*
X83663258Y-101956236D01*
X83553592Y-101822608D01*
X83547236Y-101817392D01*
X83624985Y-101753585D01*
X83704337Y-101656894D01*
X83763302Y-101546580D01*
X83799612Y-101426882D01*
X83811872Y-101302400D01*
X83808800Y-101100650D01*
X83650050Y-100941900D01*
X82600800Y-100941900D01*
X82600800Y-100961900D01*
X82346800Y-100961900D01*
X82346800Y-100941900D01*
X81297550Y-100941900D01*
X81191350Y-101048100D01*
X81122750Y-100979500D01*
X80073500Y-100979500D01*
X80073500Y-100999500D01*
X79819500Y-100999500D01*
X79819500Y-100979500D01*
X78770250Y-100979500D01*
X78611500Y-101138250D01*
X78608428Y-101340000D01*
X78620688Y-101464482D01*
X78656998Y-101584180D01*
X78715963Y-101694494D01*
X78795315Y-101791185D01*
X78827989Y-101818000D01*
X75498619Y-101818000D01*
X75358962Y-101608987D01*
X75319975Y-101570000D01*
X75358962Y-101531013D01*
X75505061Y-101312359D01*
X75605696Y-101069405D01*
X75657000Y-100811486D01*
X75657000Y-100548514D01*
X75620497Y-100365000D01*
X78608428Y-100365000D01*
X78611500Y-100566750D01*
X78770250Y-100725500D01*
X79819500Y-100725500D01*
X79819500Y-99888750D01*
X80073500Y-99888750D01*
X80073500Y-100725500D01*
X81122750Y-100725500D01*
X81228950Y-100619300D01*
X81297550Y-100687900D01*
X82346800Y-100687900D01*
X82346800Y-99851150D01*
X82600800Y-99851150D01*
X82600800Y-100687900D01*
X83650050Y-100687900D01*
X83808800Y-100529150D01*
X83811872Y-100327400D01*
X83799612Y-100202918D01*
X83763302Y-100083220D01*
X83704337Y-99972906D01*
X83624985Y-99876215D01*
X83528294Y-99796863D01*
X83417980Y-99737898D01*
X83298282Y-99701588D01*
X83173800Y-99689328D01*
X82759550Y-99692400D01*
X82600800Y-99851150D01*
X82346800Y-99851150D01*
X82188050Y-99692400D01*
X81773800Y-99689328D01*
X81649318Y-99701588D01*
X81529620Y-99737898D01*
X81419306Y-99796863D01*
X81322615Y-99876215D01*
X81243263Y-99972906D01*
X81200101Y-100053655D01*
X81177037Y-100010506D01*
X81097685Y-99913815D01*
X81000994Y-99834463D01*
X80890680Y-99775498D01*
X80770982Y-99739188D01*
X80646500Y-99726928D01*
X80232250Y-99730000D01*
X80073500Y-99888750D01*
X79819500Y-99888750D01*
X79660750Y-99730000D01*
X79246500Y-99726928D01*
X79122018Y-99739188D01*
X79002320Y-99775498D01*
X78892006Y-99834463D01*
X78795315Y-99913815D01*
X78715963Y-100010506D01*
X78656998Y-100120820D01*
X78620688Y-100240518D01*
X78608428Y-100365000D01*
X75620497Y-100365000D01*
X75605696Y-100290595D01*
X75505061Y-100047641D01*
X75358962Y-99828987D01*
X75324109Y-99794134D01*
X75359925Y-99758317D01*
X75243271Y-99641663D01*
X75477037Y-99582203D01*
X75587934Y-99343758D01*
X75650183Y-99088260D01*
X75661390Y-98825527D01*
X75621125Y-98565656D01*
X75530935Y-98318634D01*
X75477037Y-98217797D01*
X75243271Y-98158337D01*
X75359925Y-98041683D01*
X75324109Y-98005867D01*
X75358962Y-97971013D01*
X75505061Y-97752359D01*
X75605696Y-97509405D01*
X75657000Y-97251486D01*
X75657000Y-96988514D01*
X75605696Y-96730595D01*
X75505061Y-96487641D01*
X75358962Y-96268987D01*
X75319975Y-96230000D01*
X75358962Y-96191013D01*
X75419775Y-96100000D01*
X78481428Y-96100000D01*
X78481428Y-96240750D01*
X78498372Y-96412785D01*
X78548553Y-96578209D01*
X78630042Y-96730664D01*
X78739708Y-96864292D01*
X78873336Y-96973958D01*
X79025791Y-97055447D01*
X79191215Y-97105628D01*
X79363250Y-97122572D01*
X80275750Y-97122572D01*
X80447785Y-97105628D01*
X80613209Y-97055447D01*
X80765664Y-96973958D01*
X80899292Y-96864292D01*
X80987345Y-96757000D01*
X81229755Y-96757000D01*
X81317808Y-96864292D01*
X81451436Y-96973958D01*
X81603891Y-97055447D01*
X81769315Y-97105628D01*
X81941350Y-97122572D01*
X82853850Y-97122572D01*
X83025885Y-97105628D01*
X83191309Y-97055447D01*
X83343764Y-96973958D01*
X83477392Y-96864292D01*
X83587058Y-96730664D01*
X83668547Y-96578209D01*
X83718728Y-96412785D01*
X83735672Y-96240750D01*
X83735672Y-95753250D01*
X83718728Y-95581215D01*
X83668547Y-95415791D01*
X83587058Y-95263336D01*
X83477392Y-95129708D01*
X83471036Y-95124492D01*
X83548785Y-95060685D01*
X83628137Y-94963994D01*
X83687102Y-94853680D01*
X83723412Y-94733982D01*
X83735672Y-94609500D01*
X83732600Y-94407750D01*
X83573850Y-94249000D01*
X82524600Y-94249000D01*
X82524600Y-94269000D01*
X82270600Y-94269000D01*
X82270600Y-94249000D01*
X81221350Y-94249000D01*
X81108550Y-94361800D01*
X80995750Y-94249000D01*
X79946500Y-94249000D01*
X79946500Y-94269000D01*
X79692500Y-94269000D01*
X79692500Y-94249000D01*
X78643250Y-94249000D01*
X78484500Y-94407750D01*
X78481877Y-94580000D01*
X75419775Y-94580000D01*
X75358962Y-94488987D01*
X75324109Y-94454134D01*
X75359925Y-94418317D01*
X75243271Y-94301663D01*
X75477037Y-94242203D01*
X75587934Y-94003758D01*
X75650183Y-93748260D01*
X75655035Y-93634500D01*
X78481428Y-93634500D01*
X78484500Y-93836250D01*
X78643250Y-93995000D01*
X79692500Y-93995000D01*
X79692500Y-93158250D01*
X79946500Y-93158250D01*
X79946500Y-93995000D01*
X80995750Y-93995000D01*
X81108550Y-93882200D01*
X81221350Y-93995000D01*
X82270600Y-93995000D01*
X82270600Y-93158250D01*
X82524600Y-93158250D01*
X82524600Y-93995000D01*
X83573850Y-93995000D01*
X83732600Y-93836250D01*
X83735672Y-93634500D01*
X83723412Y-93510018D01*
X83687102Y-93390320D01*
X83628137Y-93280006D01*
X83548785Y-93183315D01*
X83452094Y-93103963D01*
X83341780Y-93044998D01*
X83222082Y-93008688D01*
X83097600Y-92996428D01*
X82683350Y-92999500D01*
X82524600Y-93158250D01*
X82270600Y-93158250D01*
X82111850Y-92999500D01*
X81697600Y-92996428D01*
X81573118Y-93008688D01*
X81453420Y-93044998D01*
X81343106Y-93103963D01*
X81246415Y-93183315D01*
X81167063Y-93280006D01*
X81108550Y-93389474D01*
X81050037Y-93280006D01*
X80970685Y-93183315D01*
X80873994Y-93103963D01*
X80763680Y-93044998D01*
X80643982Y-93008688D01*
X80519500Y-92996428D01*
X80105250Y-92999500D01*
X79946500Y-93158250D01*
X79692500Y-93158250D01*
X79533750Y-92999500D01*
X79119500Y-92996428D01*
X78995018Y-93008688D01*
X78875320Y-93044998D01*
X78765006Y-93103963D01*
X78668315Y-93183315D01*
X78588963Y-93280006D01*
X78529998Y-93390320D01*
X78493688Y-93510018D01*
X78481428Y-93634500D01*
X75655035Y-93634500D01*
X75661390Y-93485527D01*
X75621125Y-93225656D01*
X75530935Y-92978634D01*
X75477037Y-92877797D01*
X75243271Y-92818337D01*
X75359925Y-92701683D01*
X75324109Y-92665867D01*
X75358962Y-92631013D01*
X75505061Y-92412359D01*
X75519334Y-92377900D01*
X78577519Y-92377900D01*
X78630042Y-92476164D01*
X78739708Y-92609792D01*
X78873336Y-92719458D01*
X79025791Y-92800947D01*
X79191215Y-92851128D01*
X79363250Y-92868072D01*
X80275750Y-92868072D01*
X80447785Y-92851128D01*
X80613209Y-92800947D01*
X80765664Y-92719458D01*
X80899292Y-92609792D01*
X80987345Y-92502500D01*
X81178955Y-92502500D01*
X81267008Y-92609792D01*
X81400636Y-92719458D01*
X81553091Y-92800947D01*
X81718515Y-92851128D01*
X81890550Y-92868072D01*
X82803050Y-92868072D01*
X82975085Y-92851128D01*
X83140509Y-92800947D01*
X83292964Y-92719458D01*
X83426592Y-92609792D01*
X83536258Y-92476164D01*
X83617747Y-92323709D01*
X83667928Y-92158285D01*
X83684872Y-91986250D01*
X83684872Y-91498750D01*
X83667928Y-91326715D01*
X83617747Y-91161291D01*
X83536258Y-91008836D01*
X83426592Y-90875208D01*
X83420236Y-90869992D01*
X83497985Y-90806185D01*
X83577337Y-90709494D01*
X83636302Y-90599180D01*
X83672612Y-90479482D01*
X83684872Y-90355000D01*
X83681800Y-90153250D01*
X83523050Y-89994500D01*
X82473800Y-89994500D01*
X82473800Y-90014500D01*
X82219800Y-90014500D01*
X82219800Y-89994500D01*
X81170550Y-89994500D01*
X81083150Y-90081900D01*
X80995750Y-89994500D01*
X79946500Y-89994500D01*
X79946500Y-90014500D01*
X79692500Y-90014500D01*
X79692500Y-89994500D01*
X78643250Y-89994500D01*
X78484500Y-90153250D01*
X78481428Y-90355000D01*
X78493688Y-90479482D01*
X78529998Y-90599180D01*
X78588963Y-90709494D01*
X78668315Y-90806185D01*
X78731330Y-90857900D01*
X75352075Y-90857900D01*
X75358962Y-90851013D01*
X75505061Y-90632359D01*
X75605696Y-90389405D01*
X75657000Y-90131486D01*
X75657000Y-89868514D01*
X75605696Y-89610595D01*
X75510181Y-89380000D01*
X78481428Y-89380000D01*
X78484500Y-89581750D01*
X78643250Y-89740500D01*
X79692500Y-89740500D01*
X79692500Y-88903750D01*
X79946500Y-88903750D01*
X79946500Y-89740500D01*
X80995750Y-89740500D01*
X81083150Y-89653100D01*
X81170550Y-89740500D01*
X82219800Y-89740500D01*
X82219800Y-88903750D01*
X82473800Y-88903750D01*
X82473800Y-89740500D01*
X83523050Y-89740500D01*
X83681800Y-89581750D01*
X83684872Y-89380000D01*
X83672612Y-89255518D01*
X83636302Y-89135820D01*
X83577337Y-89025506D01*
X83497985Y-88928815D01*
X83401294Y-88849463D01*
X83290980Y-88790498D01*
X83171282Y-88754188D01*
X83046800Y-88741928D01*
X82632550Y-88745000D01*
X82473800Y-88903750D01*
X82219800Y-88903750D01*
X82061050Y-88745000D01*
X81646800Y-88741928D01*
X81522318Y-88754188D01*
X81402620Y-88790498D01*
X81292306Y-88849463D01*
X81195615Y-88928815D01*
X81116263Y-89025506D01*
X81083150Y-89087455D01*
X81050037Y-89025506D01*
X80970685Y-88928815D01*
X80873994Y-88849463D01*
X80763680Y-88790498D01*
X80643982Y-88754188D01*
X80519500Y-88741928D01*
X80105250Y-88745000D01*
X79946500Y-88903750D01*
X79692500Y-88903750D01*
X79533750Y-88745000D01*
X79119500Y-88741928D01*
X78995018Y-88754188D01*
X78875320Y-88790498D01*
X78765006Y-88849463D01*
X78668315Y-88928815D01*
X78588963Y-89025506D01*
X78529998Y-89135820D01*
X78493688Y-89255518D01*
X78481428Y-89380000D01*
X75510181Y-89380000D01*
X75505061Y-89367641D01*
X75358962Y-89148987D01*
X75173013Y-88963038D01*
X75082000Y-88902225D01*
X75082000Y-85849092D01*
X75177664Y-85797958D01*
X75311292Y-85688292D01*
X75420958Y-85554664D01*
X75502447Y-85402209D01*
X75552628Y-85236785D01*
X75569572Y-85064750D01*
X75569572Y-84577250D01*
X75552628Y-84405215D01*
X75502447Y-84239791D01*
X75420958Y-84087336D01*
X75311292Y-83953708D01*
X75225744Y-83883500D01*
X75311292Y-83813292D01*
X75420958Y-83679664D01*
X75502447Y-83527209D01*
X75552628Y-83361785D01*
X75569572Y-83189750D01*
X75569572Y-82702250D01*
X75552628Y-82530215D01*
X75502447Y-82364791D01*
X75420958Y-82212336D01*
X75311292Y-82078708D01*
X75177664Y-81969042D01*
X75025209Y-81887553D01*
X74859785Y-81837372D01*
X74687750Y-81820428D01*
X73775250Y-81820428D01*
X73603215Y-81837372D01*
X73437791Y-81887553D01*
X73285336Y-81969042D01*
X73151708Y-82078708D01*
X73063655Y-82186000D01*
X69345682Y-82186000D01*
X69343812Y-82167018D01*
X69307502Y-82047320D01*
X69248537Y-81937006D01*
X69169185Y-81840315D01*
X69072494Y-81760963D01*
X68962180Y-81701998D01*
X68842482Y-81665688D01*
X68718000Y-81653428D01*
X67918000Y-81653428D01*
X67793518Y-81665688D01*
X67696438Y-81695137D01*
X66608894Y-80607593D01*
X66585091Y-80578589D01*
X66469366Y-80483616D01*
X66337337Y-80413044D01*
X66194076Y-80369587D01*
X66082423Y-80358590D01*
X66082412Y-80358590D01*
X66045090Y-80354914D01*
X66007768Y-80358590D01*
X63976402Y-80358590D01*
X63939079Y-80354914D01*
X63901756Y-80358590D01*
X63901747Y-80358590D01*
X63790094Y-80369587D01*
X63646833Y-80413044D01*
X63514804Y-80483616D01*
X63399079Y-80578589D01*
X63375276Y-80607593D01*
X63175740Y-80807129D01*
X63079150Y-80808600D01*
X62920400Y-80967350D01*
X62920400Y-81146515D01*
X62880007Y-81279675D01*
X62869010Y-81391328D01*
X62869010Y-81391338D01*
X62865334Y-81428660D01*
X62869010Y-81465983D01*
X62869011Y-86828186D01*
X61211002Y-88486197D01*
X61181999Y-88509999D01*
X61140525Y-88560536D01*
X61087026Y-88625724D01*
X61067674Y-88661928D01*
X61022000Y-88661928D01*
X60897518Y-88674188D01*
X60889121Y-88676735D01*
X60881963Y-88663343D01*
X60786990Y-88547618D01*
X60757993Y-88523821D01*
X59099174Y-86865003D01*
X59075371Y-86835999D01*
X58959646Y-86741026D01*
X58827617Y-86670454D01*
X58684356Y-86626997D01*
X58627802Y-86621427D01*
X58602932Y-86574899D01*
X58423608Y-86356392D01*
X58205101Y-86177068D01*
X58072142Y-86106000D01*
X58205101Y-86034932D01*
X58423608Y-85855608D01*
X58602932Y-85637101D01*
X58736182Y-85387808D01*
X58818236Y-85117309D01*
X58820778Y-85091500D01*
X61690928Y-85091500D01*
X61703188Y-85215982D01*
X61739498Y-85335680D01*
X61798463Y-85445994D01*
X61877815Y-85542685D01*
X61974506Y-85622037D01*
X62084820Y-85681002D01*
X62204518Y-85717312D01*
X62329000Y-85729572D01*
X62530750Y-85726500D01*
X62689500Y-85567750D01*
X62689500Y-84518500D01*
X61852750Y-84518500D01*
X61694000Y-84677250D01*
X61690928Y-85091500D01*
X58820778Y-85091500D01*
X58845943Y-84836000D01*
X58818236Y-84554691D01*
X58736182Y-84284192D01*
X58602932Y-84034899D01*
X58423608Y-83816392D01*
X58205101Y-83637068D01*
X58072142Y-83566000D01*
X58205101Y-83494932D01*
X58423608Y-83315608D01*
X58602932Y-83097101D01*
X58736182Y-82847808D01*
X58737458Y-82843600D01*
X61667828Y-82843600D01*
X61680088Y-82968082D01*
X61716398Y-83087780D01*
X61775363Y-83198094D01*
X61843914Y-83281624D01*
X61798463Y-83337006D01*
X61739498Y-83447320D01*
X61703188Y-83567018D01*
X61690928Y-83691500D01*
X61694000Y-84105750D01*
X61852750Y-84264500D01*
X62689500Y-84264500D01*
X62689500Y-83215250D01*
X62666400Y-83192150D01*
X62666400Y-82270600D01*
X61829650Y-82270600D01*
X61670900Y-82429350D01*
X61667828Y-82843600D01*
X58737458Y-82843600D01*
X58818236Y-82577309D01*
X58845943Y-82296000D01*
X58818236Y-82014691D01*
X58736182Y-81744192D01*
X58602932Y-81494899D01*
X58560833Y-81443600D01*
X61667828Y-81443600D01*
X61670900Y-81857850D01*
X61829650Y-82016600D01*
X62666400Y-82016600D01*
X62666400Y-80967350D01*
X62507650Y-80808600D01*
X62305900Y-80805528D01*
X62181418Y-80817788D01*
X62061720Y-80854098D01*
X61951406Y-80913063D01*
X61854715Y-80992415D01*
X61775363Y-81089106D01*
X61716398Y-81199420D01*
X61680088Y-81319118D01*
X61667828Y-81443600D01*
X58560833Y-81443600D01*
X58423608Y-81276392D01*
X58205101Y-81097068D01*
X57955808Y-80963818D01*
X57685309Y-80881764D01*
X57474492Y-80861000D01*
X57333508Y-80861000D01*
X57122691Y-80881764D01*
X56852192Y-80963818D01*
X56602899Y-81097068D01*
X56384392Y-81276392D01*
X56205068Y-81494899D01*
X56071818Y-81744192D01*
X55989764Y-82014691D01*
X55962057Y-82296000D01*
X55989764Y-82577309D01*
X56071818Y-82847808D01*
X56205068Y-83097101D01*
X56384392Y-83315608D01*
X56602899Y-83494932D01*
X56735858Y-83566000D01*
X56602899Y-83637068D01*
X56384392Y-83816392D01*
X56205068Y-84034899D01*
X56071818Y-84284192D01*
X55989764Y-84554691D01*
X55962057Y-84836000D01*
X55989764Y-85117309D01*
X56003292Y-85161906D01*
X55768001Y-85397197D01*
X55738998Y-85421000D01*
X55697986Y-85470974D01*
X55644025Y-85536725D01*
X55597763Y-85623275D01*
X55573453Y-85668755D01*
X55529996Y-85812016D01*
X55518999Y-85923669D01*
X55518999Y-85923679D01*
X55515323Y-85961001D01*
X55518999Y-85998324D01*
X55519000Y-92958669D01*
X55515323Y-92996001D01*
X55519000Y-93033334D01*
X55529997Y-93144987D01*
X55543179Y-93188443D01*
X55573453Y-93288247D01*
X55644025Y-93420277D01*
X55697575Y-93485527D01*
X55738999Y-93536002D01*
X55767997Y-93559800D01*
X56294330Y-94086133D01*
X56205068Y-94194899D01*
X56071818Y-94444192D01*
X55989764Y-94714691D01*
X55962057Y-94996000D01*
X55964598Y-95021796D01*
X43564708Y-82621907D01*
X43578236Y-82577309D01*
X43605943Y-82296000D01*
X43578236Y-82014691D01*
X43496182Y-81744192D01*
X43362932Y-81494899D01*
X43183608Y-81276392D01*
X42965101Y-81097068D01*
X42839740Y-81030061D01*
X43099801Y-80770000D01*
X58986289Y-80770000D01*
X59030226Y-80813937D01*
X59199744Y-80927205D01*
X59388102Y-81005226D01*
X59588061Y-81045000D01*
X59791939Y-81045000D01*
X59991898Y-81005226D01*
X60180256Y-80927205D01*
X60349774Y-80813937D01*
X60493937Y-80669774D01*
X60607205Y-80500256D01*
X60685226Y-80311898D01*
X60725000Y-80111939D01*
X60725000Y-79908061D01*
X60685226Y-79708102D01*
X60607205Y-79519744D01*
X60493937Y-79350226D01*
X60349774Y-79206063D01*
X60180256Y-79092795D01*
X59991898Y-79014774D01*
X59791939Y-78975000D01*
X59588061Y-78975000D01*
X59388102Y-79014774D01*
X59199744Y-79092795D01*
X59030226Y-79206063D01*
X58986289Y-79250000D01*
X42822320Y-79250000D01*
X42784997Y-79246324D01*
X42747674Y-79250000D01*
X42747665Y-79250000D01*
X42636012Y-79260997D01*
X42492751Y-79304454D01*
X42360722Y-79375026D01*
X42360720Y-79375027D01*
X42360721Y-79375027D01*
X42273994Y-79446201D01*
X42273990Y-79446205D01*
X42244997Y-79469999D01*
X42221203Y-79498992D01*
X40660000Y-81060197D01*
X40660000Y-73619484D01*
X64373500Y-73619484D01*
X64373500Y-74335516D01*
X64513191Y-75037790D01*
X64787205Y-75699318D01*
X65185011Y-76294677D01*
X65691323Y-76800989D01*
X66286682Y-77198795D01*
X66948210Y-77472809D01*
X67650484Y-77612500D01*
X68366516Y-77612500D01*
X69068790Y-77472809D01*
X69730318Y-77198795D01*
X70325677Y-76800989D01*
X70831989Y-76294677D01*
X71229795Y-75699318D01*
X71503809Y-75037790D01*
X71643500Y-74335516D01*
X71643500Y-73619484D01*
X71503809Y-72917210D01*
X71229795Y-72255682D01*
X70831989Y-71660323D01*
X70325677Y-71154011D01*
X69730318Y-70756205D01*
X69382177Y-70612000D01*
X90963815Y-70612000D01*
X90992487Y-70903111D01*
X91077401Y-71183034D01*
X91215294Y-71441014D01*
X91400866Y-71667134D01*
X91626986Y-71852706D01*
X91681791Y-71882000D01*
X91626986Y-71911294D01*
X91400866Y-72096866D01*
X91215294Y-72322986D01*
X91077401Y-72580966D01*
X90992487Y-72860889D01*
X90963815Y-73152000D01*
X90992487Y-73443111D01*
X91077401Y-73723034D01*
X91215294Y-73981014D01*
X91400866Y-74207134D01*
X91626986Y-74392706D01*
X91681791Y-74422000D01*
X91626986Y-74451294D01*
X91400866Y-74636866D01*
X91215294Y-74862986D01*
X91077401Y-75120966D01*
X90992487Y-75400889D01*
X90963815Y-75692000D01*
X90992487Y-75983111D01*
X91077401Y-76263034D01*
X91215294Y-76521014D01*
X91400866Y-76747134D01*
X91626986Y-76932706D01*
X91884966Y-77070599D01*
X92164889Y-77155513D01*
X92383050Y-77177000D01*
X92528950Y-77177000D01*
X92747111Y-77155513D01*
X93027034Y-77070599D01*
X93285014Y-76932706D01*
X93511134Y-76747134D01*
X93696706Y-76521014D01*
X93834599Y-76263034D01*
X93919513Y-75983111D01*
X93948185Y-75692000D01*
X93919513Y-75400889D01*
X93834599Y-75120966D01*
X93696706Y-74862986D01*
X93511134Y-74636866D01*
X93285014Y-74451294D01*
X93230209Y-74422000D01*
X93285014Y-74392706D01*
X93511134Y-74207134D01*
X93696706Y-73981014D01*
X93834599Y-73723034D01*
X93919513Y-73443111D01*
X93948185Y-73152000D01*
X93919513Y-72860889D01*
X93834599Y-72580966D01*
X93696706Y-72322986D01*
X93511134Y-72096866D01*
X93285014Y-71911294D01*
X93230209Y-71882000D01*
X93285014Y-71852706D01*
X93511134Y-71667134D01*
X93696706Y-71441014D01*
X93834599Y-71183034D01*
X93919513Y-70903111D01*
X93948185Y-70612000D01*
X93919513Y-70320889D01*
X93834599Y-70040966D01*
X93696706Y-69782986D01*
X93511134Y-69556866D01*
X93285014Y-69371294D01*
X93220477Y-69336799D01*
X93337355Y-69267178D01*
X93553588Y-69072269D01*
X93727641Y-68838920D01*
X93852825Y-68576099D01*
X93897476Y-68428890D01*
X93776155Y-68199000D01*
X92583000Y-68199000D01*
X92583000Y-68219000D01*
X92329000Y-68219000D01*
X92329000Y-68199000D01*
X91135845Y-68199000D01*
X91014524Y-68428890D01*
X91059175Y-68576099D01*
X91184359Y-68838920D01*
X91358412Y-69072269D01*
X91574645Y-69267178D01*
X91691523Y-69336799D01*
X91626986Y-69371294D01*
X91400866Y-69556866D01*
X91215294Y-69782986D01*
X91077401Y-70040966D01*
X90992487Y-70320889D01*
X90963815Y-70612000D01*
X69382177Y-70612000D01*
X69068790Y-70482191D01*
X68366516Y-70342500D01*
X67650484Y-70342500D01*
X66948210Y-70482191D01*
X66286682Y-70756205D01*
X65691323Y-71154011D01*
X65185011Y-71660323D01*
X64787205Y-72255682D01*
X64513191Y-72917210D01*
X64373500Y-73619484D01*
X40660000Y-73619484D01*
X40660000Y-60452000D01*
X90963815Y-60452000D01*
X90992487Y-60743111D01*
X91077401Y-61023034D01*
X91215294Y-61281014D01*
X91400866Y-61507134D01*
X91626986Y-61692706D01*
X91681791Y-61722000D01*
X91626986Y-61751294D01*
X91400866Y-61936866D01*
X91215294Y-62162986D01*
X91077401Y-62420966D01*
X90992487Y-62700889D01*
X90963815Y-62992000D01*
X90992487Y-63283111D01*
X91077401Y-63563034D01*
X91215294Y-63821014D01*
X91400866Y-64047134D01*
X91626986Y-64232706D01*
X91681791Y-64262000D01*
X91626986Y-64291294D01*
X91400866Y-64476866D01*
X91215294Y-64702986D01*
X91077401Y-64960966D01*
X90992487Y-65240889D01*
X90963815Y-65532000D01*
X90992487Y-65823111D01*
X91077401Y-66103034D01*
X91215294Y-66361014D01*
X91400866Y-66587134D01*
X91626986Y-66772706D01*
X91691523Y-66807201D01*
X91574645Y-66876822D01*
X91358412Y-67071731D01*
X91184359Y-67305080D01*
X91059175Y-67567901D01*
X91014524Y-67715110D01*
X91135845Y-67945000D01*
X92329000Y-67945000D01*
X92329000Y-67925000D01*
X92583000Y-67925000D01*
X92583000Y-67945000D01*
X93776155Y-67945000D01*
X93897476Y-67715110D01*
X93852825Y-67567901D01*
X93727641Y-67305080D01*
X93553588Y-67071731D01*
X93337355Y-66876822D01*
X93220477Y-66807201D01*
X93285014Y-66772706D01*
X93511134Y-66587134D01*
X93696706Y-66361014D01*
X93834599Y-66103034D01*
X93919513Y-65823111D01*
X93948185Y-65532000D01*
X93919513Y-65240889D01*
X93834599Y-64960966D01*
X93696706Y-64702986D01*
X93511134Y-64476866D01*
X93285014Y-64291294D01*
X93230209Y-64262000D01*
X93285014Y-64232706D01*
X93511134Y-64047134D01*
X93696706Y-63821014D01*
X93834599Y-63563034D01*
X93919513Y-63283111D01*
X93948185Y-62992000D01*
X93919513Y-62700889D01*
X93834599Y-62420966D01*
X93696706Y-62162986D01*
X93511134Y-61936866D01*
X93285014Y-61751294D01*
X93230209Y-61722000D01*
X93285014Y-61692706D01*
X93511134Y-61507134D01*
X93696706Y-61281014D01*
X93834599Y-61023034D01*
X93919513Y-60743111D01*
X93948185Y-60452000D01*
X93919513Y-60160889D01*
X93834599Y-59880966D01*
X93696706Y-59622986D01*
X93511134Y-59396866D01*
X93481313Y-59372393D01*
X93550180Y-59351502D01*
X93660494Y-59292537D01*
X93757185Y-59213185D01*
X93836537Y-59116494D01*
X93895502Y-59006180D01*
X93931812Y-58886482D01*
X93944072Y-58762000D01*
X93944072Y-57062000D01*
X93931812Y-56937518D01*
X93895502Y-56817820D01*
X93836537Y-56707506D01*
X93757185Y-56610815D01*
X93660494Y-56531463D01*
X93550180Y-56472498D01*
X93430482Y-56436188D01*
X93306000Y-56423928D01*
X91606000Y-56423928D01*
X91481518Y-56436188D01*
X91361820Y-56472498D01*
X91251506Y-56531463D01*
X91154815Y-56610815D01*
X91075463Y-56707506D01*
X91016498Y-56817820D01*
X90980188Y-56937518D01*
X90967928Y-57062000D01*
X90967928Y-58762000D01*
X90980188Y-58886482D01*
X91016498Y-59006180D01*
X91075463Y-59116494D01*
X91154815Y-59213185D01*
X91251506Y-59292537D01*
X91361820Y-59351502D01*
X91430687Y-59372393D01*
X91400866Y-59396866D01*
X91215294Y-59622986D01*
X91077401Y-59880966D01*
X90992487Y-60160889D01*
X90963815Y-60452000D01*
X40660000Y-60452000D01*
X40660000Y-53402967D01*
X46625000Y-53402967D01*
X46625000Y-53725033D01*
X46687832Y-54040912D01*
X46811082Y-54338463D01*
X46990013Y-54606252D01*
X47217748Y-54833987D01*
X47485537Y-55012918D01*
X47783088Y-55136168D01*
X48098967Y-55199000D01*
X48421033Y-55199000D01*
X48736912Y-55136168D01*
X49034463Y-55012918D01*
X49302252Y-54833987D01*
X49529987Y-54606252D01*
X49708918Y-54338463D01*
X49832168Y-54040912D01*
X49895000Y-53725033D01*
X49895000Y-53402967D01*
X53125000Y-53402967D01*
X53125000Y-53725033D01*
X53187832Y-54040912D01*
X53311082Y-54338463D01*
X53490013Y-54606252D01*
X53717748Y-54833987D01*
X53985537Y-55012918D01*
X54283088Y-55136168D01*
X54598967Y-55199000D01*
X54921033Y-55199000D01*
X55236912Y-55136168D01*
X55534463Y-55012918D01*
X55802252Y-54833987D01*
X56029987Y-54606252D01*
X56208918Y-54338463D01*
X56332168Y-54040912D01*
X56395000Y-53725033D01*
X56395000Y-53402967D01*
X79391000Y-53402967D01*
X79391000Y-53725033D01*
X79453832Y-54040912D01*
X79577082Y-54338463D01*
X79756013Y-54606252D01*
X79983748Y-54833987D01*
X80251537Y-55012918D01*
X80549088Y-55136168D01*
X80864967Y-55199000D01*
X81187033Y-55199000D01*
X81502912Y-55136168D01*
X81800463Y-55012918D01*
X82068252Y-54833987D01*
X82295987Y-54606252D01*
X82474918Y-54338463D01*
X82598168Y-54040912D01*
X82661000Y-53725033D01*
X82661000Y-53402967D01*
X85891000Y-53402967D01*
X85891000Y-53725033D01*
X85953832Y-54040912D01*
X86077082Y-54338463D01*
X86256013Y-54606252D01*
X86483748Y-54833987D01*
X86751537Y-55012918D01*
X87049088Y-55136168D01*
X87364967Y-55199000D01*
X87687033Y-55199000D01*
X88002912Y-55136168D01*
X88300463Y-55012918D01*
X88568252Y-54833987D01*
X88795987Y-54606252D01*
X88974918Y-54338463D01*
X89098168Y-54040912D01*
X89161000Y-53725033D01*
X89161000Y-53402967D01*
X89098168Y-53087088D01*
X88974918Y-52789537D01*
X88795987Y-52521748D01*
X88568252Y-52294013D01*
X88300463Y-52115082D01*
X88002912Y-51991832D01*
X87687033Y-51929000D01*
X87364967Y-51929000D01*
X87049088Y-51991832D01*
X86751537Y-52115082D01*
X86483748Y-52294013D01*
X86256013Y-52521748D01*
X86077082Y-52789537D01*
X85953832Y-53087088D01*
X85891000Y-53402967D01*
X82661000Y-53402967D01*
X82598168Y-53087088D01*
X82474918Y-52789537D01*
X82295987Y-52521748D01*
X82068252Y-52294013D01*
X81800463Y-52115082D01*
X81502912Y-51991832D01*
X81187033Y-51929000D01*
X80864967Y-51929000D01*
X80549088Y-51991832D01*
X80251537Y-52115082D01*
X79983748Y-52294013D01*
X79756013Y-52521748D01*
X79577082Y-52789537D01*
X79453832Y-53087088D01*
X79391000Y-53402967D01*
X56395000Y-53402967D01*
X56332168Y-53087088D01*
X56208918Y-52789537D01*
X56029987Y-52521748D01*
X55802252Y-52294013D01*
X55608652Y-52164653D01*
X66687952Y-52164653D01*
X66843962Y-52480214D01*
X67218745Y-52671020D01*
X67623551Y-52785044D01*
X68042824Y-52817902D01*
X68460451Y-52768334D01*
X68860383Y-52638243D01*
X69156038Y-52480214D01*
X69312048Y-52164653D01*
X68000000Y-50852605D01*
X66687952Y-52164653D01*
X55608652Y-52164653D01*
X55534463Y-52115082D01*
X55236912Y-51991832D01*
X54921033Y-51929000D01*
X54598967Y-51929000D01*
X54283088Y-51991832D01*
X53985537Y-52115082D01*
X53717748Y-52294013D01*
X53490013Y-52521748D01*
X53311082Y-52789537D01*
X53187832Y-53087088D01*
X53125000Y-53402967D01*
X49895000Y-53402967D01*
X49832168Y-53087088D01*
X49708918Y-52789537D01*
X49529987Y-52521748D01*
X49302252Y-52294013D01*
X49034463Y-52115082D01*
X48736912Y-51991832D01*
X48421033Y-51929000D01*
X48098967Y-51929000D01*
X47783088Y-51991832D01*
X47485537Y-52115082D01*
X47217748Y-52294013D01*
X46990013Y-52521748D01*
X46811082Y-52789537D01*
X46687832Y-53087088D01*
X46625000Y-53402967D01*
X40660000Y-53402967D01*
X40660000Y-50715824D01*
X65855098Y-50715824D01*
X65904666Y-51133451D01*
X66034757Y-51533383D01*
X66192786Y-51829038D01*
X66508347Y-51985048D01*
X67820395Y-50673000D01*
X68179605Y-50673000D01*
X69491653Y-51985048D01*
X69807214Y-51829038D01*
X69998020Y-51454255D01*
X70112044Y-51049449D01*
X70144902Y-50630176D01*
X70095334Y-50212549D01*
X70091062Y-50199413D01*
X80070192Y-50199413D01*
X80165956Y-50463814D01*
X80455571Y-50604704D01*
X80767108Y-50686384D01*
X81088595Y-50705718D01*
X81407675Y-50661961D01*
X81712088Y-50556795D01*
X81886044Y-50463814D01*
X81981808Y-50199413D01*
X86570192Y-50199413D01*
X86665956Y-50463814D01*
X86955571Y-50604704D01*
X87267108Y-50686384D01*
X87588595Y-50705718D01*
X87907675Y-50661961D01*
X88212088Y-50556795D01*
X88386044Y-50463814D01*
X88481808Y-50199413D01*
X87526000Y-49243605D01*
X86570192Y-50199413D01*
X81981808Y-50199413D01*
X81026000Y-49243605D01*
X80070192Y-50199413D01*
X70091062Y-50199413D01*
X69965243Y-49812617D01*
X69807214Y-49516962D01*
X69491653Y-49360952D01*
X68179605Y-50673000D01*
X67820395Y-50673000D01*
X66508347Y-49360952D01*
X66192786Y-49516962D01*
X66001980Y-49891745D01*
X65887956Y-50296551D01*
X65855098Y-50715824D01*
X40660000Y-50715824D01*
X40660000Y-50199413D01*
X47304192Y-50199413D01*
X47399956Y-50463814D01*
X47689571Y-50604704D01*
X48001108Y-50686384D01*
X48322595Y-50705718D01*
X48641675Y-50661961D01*
X48946088Y-50556795D01*
X49120044Y-50463814D01*
X49215808Y-50199413D01*
X53804192Y-50199413D01*
X53899956Y-50463814D01*
X54189571Y-50604704D01*
X54501108Y-50686384D01*
X54822595Y-50705718D01*
X55141675Y-50661961D01*
X55446088Y-50556795D01*
X55620044Y-50463814D01*
X55715808Y-50199413D01*
X54760000Y-49243605D01*
X53804192Y-50199413D01*
X49215808Y-50199413D01*
X48260000Y-49243605D01*
X47304192Y-50199413D01*
X40660000Y-50199413D01*
X40660000Y-49126595D01*
X46618282Y-49126595D01*
X46662039Y-49445675D01*
X46767205Y-49750088D01*
X46860186Y-49924044D01*
X47124587Y-50019808D01*
X48080395Y-49064000D01*
X48439605Y-49064000D01*
X49395413Y-50019808D01*
X49659814Y-49924044D01*
X49800704Y-49634429D01*
X49882384Y-49322892D01*
X49894189Y-49126595D01*
X53118282Y-49126595D01*
X53162039Y-49445675D01*
X53267205Y-49750088D01*
X53360186Y-49924044D01*
X53624587Y-50019808D01*
X54580395Y-49064000D01*
X54939605Y-49064000D01*
X55895413Y-50019808D01*
X56159814Y-49924044D01*
X56300704Y-49634429D01*
X56382384Y-49322892D01*
X56390896Y-49181347D01*
X66687952Y-49181347D01*
X68000000Y-50493395D01*
X69312048Y-49181347D01*
X69284980Y-49126595D01*
X79384282Y-49126595D01*
X79428039Y-49445675D01*
X79533205Y-49750088D01*
X79626186Y-49924044D01*
X79890587Y-50019808D01*
X80846395Y-49064000D01*
X81205605Y-49064000D01*
X82161413Y-50019808D01*
X82425814Y-49924044D01*
X82566704Y-49634429D01*
X82648384Y-49322892D01*
X82660189Y-49126595D01*
X85884282Y-49126595D01*
X85928039Y-49445675D01*
X86033205Y-49750088D01*
X86126186Y-49924044D01*
X86390587Y-50019808D01*
X87346395Y-49064000D01*
X87705605Y-49064000D01*
X88661413Y-50019808D01*
X88925814Y-49924044D01*
X89066704Y-49634429D01*
X89148384Y-49322892D01*
X89167718Y-49001405D01*
X89123961Y-48682325D01*
X89018795Y-48377912D01*
X88925814Y-48203956D01*
X88661413Y-48108192D01*
X87705605Y-49064000D01*
X87346395Y-49064000D01*
X86390587Y-48108192D01*
X86126186Y-48203956D01*
X85985296Y-48493571D01*
X85903616Y-48805108D01*
X85884282Y-49126595D01*
X82660189Y-49126595D01*
X82667718Y-49001405D01*
X82623961Y-48682325D01*
X82518795Y-48377912D01*
X82425814Y-48203956D01*
X82161413Y-48108192D01*
X81205605Y-49064000D01*
X80846395Y-49064000D01*
X79890587Y-48108192D01*
X79626186Y-48203956D01*
X79485296Y-48493571D01*
X79403616Y-48805108D01*
X79384282Y-49126595D01*
X69284980Y-49126595D01*
X69156038Y-48865786D01*
X68781255Y-48674980D01*
X68376449Y-48560956D01*
X67957176Y-48528098D01*
X67539549Y-48577666D01*
X67139617Y-48707757D01*
X66843962Y-48865786D01*
X66687952Y-49181347D01*
X56390896Y-49181347D01*
X56401718Y-49001405D01*
X56357961Y-48682325D01*
X56252795Y-48377912D01*
X56159814Y-48203956D01*
X55895413Y-48108192D01*
X54939605Y-49064000D01*
X54580395Y-49064000D01*
X53624587Y-48108192D01*
X53360186Y-48203956D01*
X53219296Y-48493571D01*
X53137616Y-48805108D01*
X53118282Y-49126595D01*
X49894189Y-49126595D01*
X49901718Y-49001405D01*
X49857961Y-48682325D01*
X49752795Y-48377912D01*
X49659814Y-48203956D01*
X49395413Y-48108192D01*
X48439605Y-49064000D01*
X48080395Y-49064000D01*
X47124587Y-48108192D01*
X46860186Y-48203956D01*
X46719296Y-48493571D01*
X46637616Y-48805108D01*
X46618282Y-49126595D01*
X40660000Y-49126595D01*
X40660000Y-47928587D01*
X47304192Y-47928587D01*
X48260000Y-48884395D01*
X49215808Y-47928587D01*
X53804192Y-47928587D01*
X54760000Y-48884395D01*
X55715808Y-47928587D01*
X80070192Y-47928587D01*
X81026000Y-48884395D01*
X81981808Y-47928587D01*
X86570192Y-47928587D01*
X87526000Y-48884395D01*
X88481808Y-47928587D01*
X88386044Y-47664186D01*
X88096429Y-47523296D01*
X87784892Y-47441616D01*
X87463405Y-47422282D01*
X87144325Y-47466039D01*
X86839912Y-47571205D01*
X86665956Y-47664186D01*
X86570192Y-47928587D01*
X81981808Y-47928587D01*
X81886044Y-47664186D01*
X81596429Y-47523296D01*
X81284892Y-47441616D01*
X80963405Y-47422282D01*
X80644325Y-47466039D01*
X80339912Y-47571205D01*
X80165956Y-47664186D01*
X80070192Y-47928587D01*
X55715808Y-47928587D01*
X55620044Y-47664186D01*
X55330429Y-47523296D01*
X55018892Y-47441616D01*
X54697405Y-47422282D01*
X54378325Y-47466039D01*
X54073912Y-47571205D01*
X53899956Y-47664186D01*
X53804192Y-47928587D01*
X49215808Y-47928587D01*
X49120044Y-47664186D01*
X48830429Y-47523296D01*
X48518892Y-47441616D01*
X48197405Y-47422282D01*
X47878325Y-47466039D01*
X47573912Y-47571205D01*
X47399956Y-47664186D01*
X47304192Y-47928587D01*
X40660000Y-47928587D01*
X40660000Y-46837380D01*
X42773381Y-44724000D01*
X93226620Y-44724000D01*
X95340000Y-46837381D01*
X95340000Y-46837381D01*
G37*
X95340000Y-46837381D02*
X95340001Y-121226618D01*
X93226620Y-123340000D01*
X42773381Y-123340000D01*
X40660000Y-121226620D01*
X40660000Y-117856000D01*
X40722057Y-117856000D01*
X40749764Y-118137309D01*
X40831818Y-118407808D01*
X40965068Y-118657101D01*
X41144392Y-118875608D01*
X41362899Y-119054932D01*
X41612192Y-119188182D01*
X41882691Y-119270236D01*
X42093508Y-119291000D01*
X42234492Y-119291000D01*
X42445309Y-119270236D01*
X42715808Y-119188182D01*
X42965101Y-119054932D01*
X43183608Y-118875608D01*
X43362932Y-118657101D01*
X43496182Y-118407808D01*
X43578236Y-118137309D01*
X43605943Y-117856000D01*
X43578236Y-117574691D01*
X43496182Y-117304192D01*
X43362932Y-117054899D01*
X43183608Y-116836392D01*
X42965101Y-116657068D01*
X42827318Y-116583421D01*
X43019131Y-116468385D01*
X43227519Y-116279414D01*
X43395037Y-116053420D01*
X43515246Y-115799087D01*
X43555904Y-115665039D01*
X43433915Y-115443000D01*
X42291000Y-115443000D01*
X42291000Y-115463000D01*
X42037000Y-115463000D01*
X42037000Y-115443000D01*
X40894085Y-115443000D01*
X40772096Y-115665039D01*
X40812754Y-115799087D01*
X40932963Y-116053420D01*
X41100481Y-116279414D01*
X41308869Y-116468385D01*
X41500682Y-116583421D01*
X41362899Y-116657068D01*
X41144392Y-116836392D01*
X40965068Y-117054899D01*
X40831818Y-117304192D01*
X40749764Y-117574691D01*
X40722057Y-117856000D01*
X40660000Y-117856000D01*
X40660000Y-84406801D01*
X40763292Y-84510094D01*
X40749764Y-84554691D01*
X40722057Y-84836000D01*
X40749764Y-85117309D01*
X40831818Y-85387808D01*
X40965068Y-85637101D01*
X41144392Y-85855608D01*
X41362899Y-86034932D01*
X41495858Y-86106000D01*
X41362899Y-86177068D01*
X41144392Y-86356392D01*
X40965068Y-86574899D01*
X40831818Y-86824192D01*
X40749764Y-87094691D01*
X40722057Y-87376000D01*
X40749764Y-87657309D01*
X40831818Y-87927808D01*
X40965068Y-88177101D01*
X41144392Y-88395608D01*
X41362899Y-88574932D01*
X41495858Y-88646000D01*
X41362899Y-88717068D01*
X41144392Y-88896392D01*
X40965068Y-89114899D01*
X40831818Y-89364192D01*
X40749764Y-89634691D01*
X40722057Y-89916000D01*
X40749764Y-90197309D01*
X40831818Y-90467808D01*
X40965068Y-90717101D01*
X41144392Y-90935608D01*
X41362899Y-91114932D01*
X41495858Y-91186000D01*
X41362899Y-91257068D01*
X41144392Y-91436392D01*
X40965068Y-91654899D01*
X40831818Y-91904192D01*
X40749764Y-92174691D01*
X40722057Y-92456000D01*
X40749764Y-92737309D01*
X40831818Y-93007808D01*
X40965068Y-93257101D01*
X41144392Y-93475608D01*
X41362899Y-93654932D01*
X41495858Y-93726000D01*
X41362899Y-93797068D01*
X41144392Y-93976392D01*
X40965068Y-94194899D01*
X40831818Y-94444192D01*
X40749764Y-94714691D01*
X40722057Y-94996000D01*
X40749764Y-95277309D01*
X40831818Y-95547808D01*
X40965068Y-95797101D01*
X41144392Y-96015608D01*
X41362899Y-96194932D01*
X41495858Y-96266000D01*
X41362899Y-96337068D01*
X41144392Y-96516392D01*
X40965068Y-96734899D01*
X40831818Y-96984192D01*
X40749764Y-97254691D01*
X40722057Y-97536000D01*
X40749764Y-97817309D01*
X40831818Y-98087808D01*
X40965068Y-98337101D01*
X41144392Y-98555608D01*
X41362899Y-98734932D01*
X41495858Y-98806000D01*
X41362899Y-98877068D01*
X41144392Y-99056392D01*
X40965068Y-99274899D01*
X40831818Y-99524192D01*
X40749764Y-99794691D01*
X40722057Y-100076000D01*
X40749764Y-100357309D01*
X40831818Y-100627808D01*
X40965068Y-100877101D01*
X41144392Y-101095608D01*
X41362899Y-101274932D01*
X41495858Y-101346000D01*
X41362899Y-101417068D01*
X41144392Y-101596392D01*
X40965068Y-101814899D01*
X40831818Y-102064192D01*
X40749764Y-102334691D01*
X40722057Y-102616000D01*
X40749764Y-102897309D01*
X40831818Y-103167808D01*
X40965068Y-103417101D01*
X41144392Y-103635608D01*
X41362899Y-103814932D01*
X41495858Y-103886000D01*
X41362899Y-103957068D01*
X41144392Y-104136392D01*
X40965068Y-104354899D01*
X40831818Y-104604192D01*
X40749764Y-104874691D01*
X40722057Y-105156000D01*
X40749764Y-105437309D01*
X40831818Y-105707808D01*
X40965068Y-105957101D01*
X41144392Y-106175608D01*
X41362899Y-106354932D01*
X41495858Y-106426000D01*
X41362899Y-106497068D01*
X41144392Y-106676392D01*
X40965068Y-106894899D01*
X40831818Y-107144192D01*
X40749764Y-107414691D01*
X40722057Y-107696000D01*
X40749764Y-107977309D01*
X40831818Y-108247808D01*
X40965068Y-108497101D01*
X41144392Y-108715608D01*
X41362899Y-108894932D01*
X41495858Y-108966000D01*
X41362899Y-109037068D01*
X41144392Y-109216392D01*
X40965068Y-109434899D01*
X40831818Y-109684192D01*
X40749764Y-109954691D01*
X40722057Y-110236000D01*
X40749764Y-110517309D01*
X40831818Y-110787808D01*
X40965068Y-111037101D01*
X41144392Y-111255608D01*
X41362899Y-111434932D01*
X41495858Y-111506000D01*
X41362899Y-111577068D01*
X41144392Y-111756392D01*
X40965068Y-111974899D01*
X40831818Y-112224192D01*
X40749764Y-112494691D01*
X40722057Y-112776000D01*
X40749764Y-113057309D01*
X40831818Y-113327808D01*
X40965068Y-113577101D01*
X41144392Y-113795608D01*
X41362899Y-113974932D01*
X41500682Y-114048579D01*
X41308869Y-114163615D01*
X41100481Y-114352586D01*
X40932963Y-114578580D01*
X40812754Y-114832913D01*
X40772096Y-114966961D01*
X40894085Y-115189000D01*
X42037000Y-115189000D01*
X42037000Y-115169000D01*
X42291000Y-115169000D01*
X42291000Y-115189000D01*
X43433915Y-115189000D01*
X43555904Y-114966961D01*
X43515246Y-114832913D01*
X43395037Y-114578580D01*
X43227519Y-114352586D01*
X43019131Y-114163615D01*
X42827318Y-114048579D01*
X42965101Y-113974932D01*
X43183608Y-113795608D01*
X43362932Y-113577101D01*
X43496182Y-113327808D01*
X43578236Y-113057309D01*
X43605943Y-112776000D01*
X43578236Y-112494691D01*
X43496182Y-112224192D01*
X43362932Y-111974899D01*
X43183608Y-111756392D01*
X42965101Y-111577068D01*
X42832142Y-111506000D01*
X42965101Y-111434932D01*
X43183608Y-111255608D01*
X43222797Y-111207856D01*
X48708800Y-111207856D01*
X48708800Y-111854944D01*
X48835040Y-112489599D01*
X49082671Y-113087431D01*
X49442174Y-113625466D01*
X49899734Y-114083026D01*
X50437769Y-114442529D01*
X51035601Y-114690160D01*
X51670256Y-114816400D01*
X52317344Y-114816400D01*
X52951999Y-114690160D01*
X53549831Y-114442529D01*
X54087866Y-114083026D01*
X54545426Y-113625466D01*
X54904929Y-113087431D01*
X55033928Y-112776000D01*
X55962057Y-112776000D01*
X55989764Y-113057309D01*
X56071818Y-113327808D01*
X56205068Y-113577101D01*
X56384392Y-113795608D01*
X56602899Y-113974932D01*
X56735858Y-114046000D01*
X56602899Y-114117068D01*
X56384392Y-114296392D01*
X56205068Y-114514899D01*
X56071818Y-114764192D01*
X55989764Y-115034691D01*
X55962057Y-115316000D01*
X55989764Y-115597309D01*
X56071818Y-115867808D01*
X56205068Y-116117101D01*
X56384392Y-116335608D01*
X56497482Y-116428419D01*
X56479518Y-116430188D01*
X56359820Y-116466498D01*
X56249506Y-116525463D01*
X56152815Y-116604815D01*
X56073463Y-116701506D01*
X56014498Y-116811820D01*
X55978188Y-116931518D01*
X55965928Y-117056000D01*
X55965928Y-118656000D01*
X55978188Y-118780482D01*
X56014498Y-118900180D01*
X56073463Y-119010494D01*
X56152815Y-119107185D01*
X56249506Y-119186537D01*
X56359820Y-119245502D01*
X56479518Y-119281812D01*
X56604000Y-119294072D01*
X58204000Y-119294072D01*
X58328482Y-119281812D01*
X58448180Y-119245502D01*
X58558494Y-119186537D01*
X58655185Y-119107185D01*
X58734537Y-119010494D01*
X58793502Y-118900180D01*
X58829812Y-118780482D01*
X58842072Y-118656000D01*
X58842072Y-117056000D01*
X58829812Y-116931518D01*
X58793502Y-116811820D01*
X58734537Y-116701506D01*
X58655185Y-116604815D01*
X58558494Y-116525463D01*
X58448180Y-116466498D01*
X58328482Y-116430188D01*
X58310518Y-116428419D01*
X58423608Y-116335608D01*
X58582511Y-116141984D01*
X64310000Y-116141984D01*
X64310000Y-116858016D01*
X64449691Y-117560290D01*
X64723705Y-118221818D01*
X65121511Y-118817177D01*
X65627823Y-119323489D01*
X66223182Y-119721295D01*
X66884710Y-119995309D01*
X67586984Y-120135000D01*
X68303016Y-120135000D01*
X69005290Y-119995309D01*
X69666818Y-119721295D01*
X70262177Y-119323489D01*
X70768489Y-118817177D01*
X71166295Y-118221818D01*
X71440309Y-117560290D01*
X71580000Y-116858016D01*
X71580000Y-116141984D01*
X71440309Y-115439710D01*
X71166295Y-114778182D01*
X70768489Y-114182823D01*
X70262177Y-113676511D01*
X69666818Y-113278705D01*
X69005290Y-113004691D01*
X68303016Y-112865000D01*
X67586984Y-112865000D01*
X66884710Y-113004691D01*
X66223182Y-113278705D01*
X65627823Y-113676511D01*
X65121511Y-114182823D01*
X64723705Y-114778182D01*
X64449691Y-115439710D01*
X64310000Y-116141984D01*
X58582511Y-116141984D01*
X58602932Y-116117101D01*
X58736182Y-115867808D01*
X58818236Y-115597309D01*
X58845943Y-115316000D01*
X58818236Y-115034691D01*
X58736182Y-114764192D01*
X58602932Y-114514899D01*
X58423608Y-114296392D01*
X58205101Y-114117068D01*
X58072142Y-114046000D01*
X58205101Y-113974932D01*
X58423608Y-113795608D01*
X58602932Y-113577101D01*
X58736182Y-113327808D01*
X58818236Y-113057309D01*
X58845943Y-112776000D01*
X58818236Y-112494691D01*
X58736182Y-112224192D01*
X58602932Y-111974899D01*
X58423608Y-111756392D01*
X58205101Y-111577068D01*
X58067318Y-111503421D01*
X58259131Y-111388385D01*
X58467519Y-111199414D01*
X58635037Y-110973420D01*
X58755246Y-110719087D01*
X58795904Y-110585039D01*
X58673915Y-110363000D01*
X57531000Y-110363000D01*
X57531000Y-110383000D01*
X57277000Y-110383000D01*
X57277000Y-110363000D01*
X56134085Y-110363000D01*
X56012096Y-110585039D01*
X56052754Y-110719087D01*
X56172963Y-110973420D01*
X56340481Y-111199414D01*
X56548869Y-111388385D01*
X56740682Y-111503421D01*
X56602899Y-111577068D01*
X56384392Y-111756392D01*
X56205068Y-111974899D01*
X56071818Y-112224192D01*
X55989764Y-112494691D01*
X55962057Y-112776000D01*
X55033928Y-112776000D01*
X55152560Y-112489599D01*
X55278800Y-111854944D01*
X55278800Y-111207856D01*
X55152560Y-110573201D01*
X54904929Y-109975369D01*
X54545426Y-109437334D01*
X54087866Y-108979774D01*
X53549831Y-108620271D01*
X52951999Y-108372640D01*
X52317344Y-108246400D01*
X51670256Y-108246400D01*
X51035601Y-108372640D01*
X50437769Y-108620271D01*
X49899734Y-108979774D01*
X49442174Y-109437334D01*
X49082671Y-109975369D01*
X48835040Y-110573201D01*
X48708800Y-111207856D01*
X43222797Y-111207856D01*
X43362932Y-111037101D01*
X43496182Y-110787808D01*
X43578236Y-110517309D01*
X43605943Y-110236000D01*
X43578236Y-109954691D01*
X43496182Y-109684192D01*
X43362932Y-109434899D01*
X43183608Y-109216392D01*
X42965101Y-109037068D01*
X42832142Y-108966000D01*
X42965101Y-108894932D01*
X43183608Y-108715608D01*
X43362932Y-108497101D01*
X43496182Y-108247808D01*
X43578236Y-107977309D01*
X43605943Y-107696000D01*
X43578236Y-107414691D01*
X43496182Y-107144192D01*
X43362932Y-106894899D01*
X43183608Y-106676392D01*
X42965101Y-106497068D01*
X42832142Y-106426000D01*
X42965101Y-106354932D01*
X43183608Y-106175608D01*
X43362932Y-105957101D01*
X43496182Y-105707808D01*
X43578236Y-105437309D01*
X43605943Y-105156000D01*
X43578236Y-104874691D01*
X43496182Y-104604192D01*
X43362932Y-104354899D01*
X43183608Y-104136392D01*
X42965101Y-103957068D01*
X42832142Y-103886000D01*
X42965101Y-103814932D01*
X43183608Y-103635608D01*
X43362932Y-103417101D01*
X43496182Y-103167808D01*
X43578236Y-102897309D01*
X43605943Y-102616000D01*
X43578236Y-102334691D01*
X43496182Y-102064192D01*
X43362932Y-101814899D01*
X43183608Y-101596392D01*
X42965101Y-101417068D01*
X42832142Y-101346000D01*
X42965101Y-101274932D01*
X43183608Y-101095608D01*
X43362932Y-100877101D01*
X43496182Y-100627808D01*
X43578236Y-100357309D01*
X43605943Y-100076000D01*
X43578236Y-99794691D01*
X43496182Y-99524192D01*
X43362932Y-99274899D01*
X43183608Y-99056392D01*
X42965101Y-98877068D01*
X42832142Y-98806000D01*
X42965101Y-98734932D01*
X43183608Y-98555608D01*
X43362932Y-98337101D01*
X43496182Y-98087808D01*
X43578236Y-97817309D01*
X43605943Y-97536000D01*
X43578236Y-97254691D01*
X43496182Y-96984192D01*
X43362932Y-96734899D01*
X43183608Y-96516392D01*
X42965101Y-96337068D01*
X42832142Y-96266000D01*
X42965101Y-96194932D01*
X43183608Y-96015608D01*
X43362932Y-95797101D01*
X43496182Y-95547808D01*
X43578236Y-95277309D01*
X43605943Y-94996000D01*
X43578236Y-94714691D01*
X43496182Y-94444192D01*
X43362932Y-94194899D01*
X43183608Y-93976392D01*
X42965101Y-93797068D01*
X42832142Y-93726000D01*
X42965101Y-93654932D01*
X43183608Y-93475608D01*
X43362932Y-93257101D01*
X43496182Y-93007808D01*
X43578236Y-92737309D01*
X43605943Y-92456000D01*
X43578236Y-92174691D01*
X43496182Y-91904192D01*
X43362932Y-91654899D01*
X43183608Y-91436392D01*
X42965101Y-91257068D01*
X42832142Y-91186000D01*
X42965101Y-91114932D01*
X43183608Y-90935608D01*
X43362932Y-90717101D01*
X43496182Y-90467808D01*
X43578236Y-90197309D01*
X43605943Y-89916000D01*
X43578236Y-89634691D01*
X43496182Y-89364192D01*
X43362932Y-89114899D01*
X43183608Y-88896392D01*
X42965101Y-88717068D01*
X42832142Y-88646000D01*
X42965101Y-88574932D01*
X43183608Y-88395608D01*
X43362932Y-88177101D01*
X43496182Y-87927808D01*
X43578236Y-87657309D01*
X43605943Y-87376000D01*
X43578236Y-87094691D01*
X43496182Y-86824192D01*
X43362932Y-86574899D01*
X43183608Y-86356392D01*
X42965101Y-86177068D01*
X42832142Y-86106000D01*
X42965101Y-86034932D01*
X43183608Y-85855608D01*
X43362932Y-85637101D01*
X43496182Y-85387808D01*
X43578236Y-85117309D01*
X43605943Y-84836000D01*
X43603402Y-84810203D01*
X55425201Y-96632003D01*
X55449000Y-96661002D01*
X55477998Y-96684800D01*
X55564724Y-96755975D01*
X55696754Y-96826547D01*
X55840015Y-96870004D01*
X55951668Y-96881001D01*
X55951678Y-96881001D01*
X55989001Y-96884677D01*
X56026324Y-96881001D01*
X56126975Y-96881001D01*
X56071818Y-96984192D01*
X55989764Y-97254691D01*
X55962057Y-97536000D01*
X55989764Y-97817309D01*
X56071818Y-98087808D01*
X56205068Y-98337101D01*
X56384392Y-98555608D01*
X56602899Y-98734932D01*
X56735858Y-98806000D01*
X56602899Y-98877068D01*
X56384392Y-99056392D01*
X56205068Y-99274899D01*
X56071818Y-99524192D01*
X55989764Y-99794691D01*
X55962057Y-100076000D01*
X55989764Y-100357309D01*
X56071818Y-100627808D01*
X56205068Y-100877101D01*
X56384392Y-101095608D01*
X56602899Y-101274932D01*
X56735858Y-101346000D01*
X56602899Y-101417068D01*
X56384392Y-101596392D01*
X56205068Y-101814899D01*
X56071818Y-102064192D01*
X55989764Y-102334691D01*
X55962057Y-102616000D01*
X55989764Y-102897309D01*
X56071818Y-103167808D01*
X56205068Y-103417101D01*
X56384392Y-103635608D01*
X56602899Y-103814932D01*
X56735858Y-103886000D01*
X56602899Y-103957068D01*
X56384392Y-104136392D01*
X56205068Y-104354899D01*
X56071818Y-104604192D01*
X55989764Y-104874691D01*
X55962057Y-105156000D01*
X55989764Y-105437309D01*
X56071818Y-105707808D01*
X56205068Y-105957101D01*
X56384392Y-106175608D01*
X56602899Y-106354932D01*
X56735858Y-106426000D01*
X56602899Y-106497068D01*
X56384392Y-106676392D01*
X56205068Y-106894899D01*
X56071818Y-107144192D01*
X55989764Y-107414691D01*
X55962057Y-107696000D01*
X55989764Y-107977309D01*
X56071818Y-108247808D01*
X56205068Y-108497101D01*
X56384392Y-108715608D01*
X56602899Y-108894932D01*
X56740682Y-108968579D01*
X56548869Y-109083615D01*
X56340481Y-109272586D01*
X56172963Y-109498580D01*
X56052754Y-109752913D01*
X56012096Y-109886961D01*
X56134085Y-110109000D01*
X57277000Y-110109000D01*
X57277000Y-110089000D01*
X57531000Y-110089000D01*
X57531000Y-110109000D01*
X58673915Y-110109000D01*
X58795904Y-109886961D01*
X58755246Y-109752913D01*
X58679357Y-109592350D01*
X58694582Y-109610902D01*
X58723585Y-109634704D01*
X59384407Y-110295527D01*
X59408201Y-110324520D01*
X59437194Y-110348314D01*
X59437199Y-110348319D01*
X59523926Y-110419494D01*
X59655955Y-110490066D01*
X59799216Y-110533523D01*
X59948202Y-110548196D01*
X59985537Y-110544519D01*
X72540420Y-110544521D01*
X74721128Y-112725230D01*
X74721128Y-113232250D01*
X74738072Y-113404285D01*
X74788253Y-113569709D01*
X74869742Y-113722164D01*
X74979408Y-113855792D01*
X75113036Y-113965458D01*
X75265491Y-114046947D01*
X75430915Y-114097128D01*
X75602950Y-114114072D01*
X76090450Y-114114072D01*
X76262485Y-114097128D01*
X76427909Y-114046947D01*
X76580364Y-113965458D01*
X76713992Y-113855792D01*
X76784200Y-113770244D01*
X76854408Y-113855792D01*
X76988036Y-113965458D01*
X77140491Y-114046947D01*
X77305915Y-114097128D01*
X77477950Y-114114072D01*
X77965450Y-114114072D01*
X78137485Y-114097128D01*
X78302909Y-114046947D01*
X78455364Y-113965458D01*
X78588992Y-113855792D01*
X78679833Y-113745102D01*
X78742902Y-113771226D01*
X78942861Y-113811000D01*
X79146739Y-113811000D01*
X79346698Y-113771226D01*
X79362377Y-113764732D01*
X79437108Y-113855792D01*
X79570736Y-113965458D01*
X79723191Y-114046947D01*
X79888615Y-114097128D01*
X80060650Y-114114072D01*
X80548150Y-114114072D01*
X80720185Y-114097128D01*
X80885609Y-114046947D01*
X81038064Y-113965458D01*
X81171692Y-113855792D01*
X81176908Y-113849436D01*
X81240715Y-113927185D01*
X81337406Y-114006537D01*
X81447720Y-114065502D01*
X81567418Y-114101812D01*
X81691900Y-114114072D01*
X81893650Y-114111000D01*
X82052400Y-113952250D01*
X82052400Y-112903000D01*
X82306400Y-112903000D01*
X82306400Y-113952250D01*
X82465150Y-114111000D01*
X82666900Y-114114072D01*
X82791382Y-114101812D01*
X82911080Y-114065502D01*
X83021394Y-114006537D01*
X83118085Y-113927185D01*
X83197437Y-113830494D01*
X83256402Y-113720180D01*
X83292712Y-113600482D01*
X83304972Y-113476000D01*
X83301900Y-113061750D01*
X83143150Y-112903000D01*
X82306400Y-112903000D01*
X82052400Y-112903000D01*
X82032400Y-112903000D01*
X82032400Y-112649000D01*
X82052400Y-112649000D01*
X82052400Y-111599750D01*
X82028250Y-111575600D01*
X82052400Y-111551450D01*
X82052400Y-110502200D01*
X82306400Y-110502200D01*
X82306400Y-111551450D01*
X82330550Y-111575600D01*
X82306400Y-111599750D01*
X82306400Y-112649000D01*
X83143150Y-112649000D01*
X83301900Y-112490250D01*
X83304972Y-112076000D01*
X83292712Y-111951518D01*
X83256402Y-111831820D01*
X83197437Y-111721506D01*
X83118085Y-111624815D01*
X83058116Y-111575600D01*
X83118085Y-111526385D01*
X83197437Y-111429694D01*
X83256402Y-111319380D01*
X83292712Y-111199682D01*
X83304972Y-111075200D01*
X83301900Y-110660950D01*
X83143150Y-110502200D01*
X82306400Y-110502200D01*
X82052400Y-110502200D01*
X82032400Y-110502200D01*
X82032400Y-110248200D01*
X82052400Y-110248200D01*
X82052400Y-109198950D01*
X82022150Y-109168700D01*
X82052400Y-109138450D01*
X82052400Y-108089200D01*
X82306400Y-108089200D01*
X82306400Y-109138450D01*
X82336650Y-109168700D01*
X82306400Y-109198950D01*
X82306400Y-110248200D01*
X83143150Y-110248200D01*
X83301900Y-110089450D01*
X83304972Y-109675200D01*
X83292712Y-109550718D01*
X83256402Y-109431020D01*
X83197437Y-109320706D01*
X83118085Y-109224015D01*
X83050683Y-109168700D01*
X83118085Y-109113385D01*
X83197437Y-109016694D01*
X83256402Y-108906380D01*
X83292712Y-108786682D01*
X83304972Y-108662200D01*
X83301900Y-108247950D01*
X83143150Y-108089200D01*
X82306400Y-108089200D01*
X82052400Y-108089200D01*
X82032400Y-108089200D01*
X82032400Y-107835200D01*
X82052400Y-107835200D01*
X82052400Y-106785950D01*
X82306400Y-106785950D01*
X82306400Y-107835200D01*
X83143150Y-107835200D01*
X83301900Y-107676450D01*
X83304972Y-107262200D01*
X83292712Y-107137718D01*
X83256402Y-107018020D01*
X83197437Y-106907706D01*
X83118085Y-106811015D01*
X83021394Y-106731663D01*
X82911080Y-106672698D01*
X82791382Y-106636388D01*
X82666900Y-106624128D01*
X82465150Y-106627200D01*
X82306400Y-106785950D01*
X82052400Y-106785950D01*
X81893650Y-106627200D01*
X81691900Y-106624128D01*
X81567418Y-106636388D01*
X81447720Y-106672698D01*
X81337406Y-106731663D01*
X81240715Y-106811015D01*
X81176908Y-106888764D01*
X81171692Y-106882408D01*
X81038064Y-106772742D01*
X80885609Y-106691253D01*
X80720185Y-106641072D01*
X80548150Y-106624128D01*
X80060650Y-106624128D01*
X79888615Y-106641072D01*
X79723191Y-106691253D01*
X79570736Y-106772742D01*
X79437108Y-106882408D01*
X79327442Y-107016036D01*
X79245953Y-107168491D01*
X79235727Y-107202200D01*
X78790373Y-107202200D01*
X78780147Y-107168491D01*
X78698658Y-107016036D01*
X78588992Y-106882408D01*
X78455364Y-106772742D01*
X78302909Y-106691253D01*
X78137485Y-106641072D01*
X77965450Y-106624128D01*
X77477950Y-106624128D01*
X77460181Y-106625878D01*
X74600131Y-103765830D01*
X74711405Y-103743696D01*
X74954359Y-103643061D01*
X75173013Y-103496962D01*
X75331975Y-103338000D01*
X78691209Y-103338000D01*
X78757042Y-103461164D01*
X78866708Y-103594792D01*
X79000336Y-103704458D01*
X79152791Y-103785947D01*
X79318215Y-103836128D01*
X79490250Y-103853072D01*
X80402750Y-103853072D01*
X80574785Y-103836128D01*
X80740209Y-103785947D01*
X80892664Y-103704458D01*
X81026292Y-103594792D01*
X81114345Y-103487500D01*
X81336813Y-103487500D01*
X81394008Y-103557192D01*
X81527636Y-103666858D01*
X81680091Y-103748347D01*
X81845515Y-103798528D01*
X82017550Y-103815472D01*
X82930050Y-103815472D01*
X83102085Y-103798528D01*
X83267509Y-103748347D01*
X83419964Y-103666858D01*
X83553592Y-103557192D01*
X83663258Y-103423564D01*
X83744747Y-103271109D01*
X83794928Y-103105685D01*
X83811872Y-102933650D01*
X83811872Y-102446150D01*
X83794928Y-102274115D01*
X83744747Y-102108691D01*
X83663258Y-101956236D01*
X83553592Y-101822608D01*
X83547236Y-101817392D01*
X83624985Y-101753585D01*
X83704337Y-101656894D01*
X83763302Y-101546580D01*
X83799612Y-101426882D01*
X83811872Y-101302400D01*
X83808800Y-101100650D01*
X83650050Y-100941900D01*
X82600800Y-100941900D01*
X82600800Y-100961900D01*
X82346800Y-100961900D01*
X82346800Y-100941900D01*
X81297550Y-100941900D01*
X81191350Y-101048100D01*
X81122750Y-100979500D01*
X80073500Y-100979500D01*
X80073500Y-100999500D01*
X79819500Y-100999500D01*
X79819500Y-100979500D01*
X78770250Y-100979500D01*
X78611500Y-101138250D01*
X78608428Y-101340000D01*
X78620688Y-101464482D01*
X78656998Y-101584180D01*
X78715963Y-101694494D01*
X78795315Y-101791185D01*
X78827989Y-101818000D01*
X75498619Y-101818000D01*
X75358962Y-101608987D01*
X75319975Y-101570000D01*
X75358962Y-101531013D01*
X75505061Y-101312359D01*
X75605696Y-101069405D01*
X75657000Y-100811486D01*
X75657000Y-100548514D01*
X75620497Y-100365000D01*
X78608428Y-100365000D01*
X78611500Y-100566750D01*
X78770250Y-100725500D01*
X79819500Y-100725500D01*
X79819500Y-99888750D01*
X80073500Y-99888750D01*
X80073500Y-100725500D01*
X81122750Y-100725500D01*
X81228950Y-100619300D01*
X81297550Y-100687900D01*
X82346800Y-100687900D01*
X82346800Y-99851150D01*
X82600800Y-99851150D01*
X82600800Y-100687900D01*
X83650050Y-100687900D01*
X83808800Y-100529150D01*
X83811872Y-100327400D01*
X83799612Y-100202918D01*
X83763302Y-100083220D01*
X83704337Y-99972906D01*
X83624985Y-99876215D01*
X83528294Y-99796863D01*
X83417980Y-99737898D01*
X83298282Y-99701588D01*
X83173800Y-99689328D01*
X82759550Y-99692400D01*
X82600800Y-99851150D01*
X82346800Y-99851150D01*
X82188050Y-99692400D01*
X81773800Y-99689328D01*
X81649318Y-99701588D01*
X81529620Y-99737898D01*
X81419306Y-99796863D01*
X81322615Y-99876215D01*
X81243263Y-99972906D01*
X81200101Y-100053655D01*
X81177037Y-100010506D01*
X81097685Y-99913815D01*
X81000994Y-99834463D01*
X80890680Y-99775498D01*
X80770982Y-99739188D01*
X80646500Y-99726928D01*
X80232250Y-99730000D01*
X80073500Y-99888750D01*
X79819500Y-99888750D01*
X79660750Y-99730000D01*
X79246500Y-99726928D01*
X79122018Y-99739188D01*
X79002320Y-99775498D01*
X78892006Y-99834463D01*
X78795315Y-99913815D01*
X78715963Y-100010506D01*
X78656998Y-100120820D01*
X78620688Y-100240518D01*
X78608428Y-100365000D01*
X75620497Y-100365000D01*
X75605696Y-100290595D01*
X75505061Y-100047641D01*
X75358962Y-99828987D01*
X75324109Y-99794134D01*
X75359925Y-99758317D01*
X75243271Y-99641663D01*
X75477037Y-99582203D01*
X75587934Y-99343758D01*
X75650183Y-99088260D01*
X75661390Y-98825527D01*
X75621125Y-98565656D01*
X75530935Y-98318634D01*
X75477037Y-98217797D01*
X75243271Y-98158337D01*
X75359925Y-98041683D01*
X75324109Y-98005867D01*
X75358962Y-97971013D01*
X75505061Y-97752359D01*
X75605696Y-97509405D01*
X75657000Y-97251486D01*
X75657000Y-96988514D01*
X75605696Y-96730595D01*
X75505061Y-96487641D01*
X75358962Y-96268987D01*
X75319975Y-96230000D01*
X75358962Y-96191013D01*
X75419775Y-96100000D01*
X78481428Y-96100000D01*
X78481428Y-96240750D01*
X78498372Y-96412785D01*
X78548553Y-96578209D01*
X78630042Y-96730664D01*
X78739708Y-96864292D01*
X78873336Y-96973958D01*
X79025791Y-97055447D01*
X79191215Y-97105628D01*
X79363250Y-97122572D01*
X80275750Y-97122572D01*
X80447785Y-97105628D01*
X80613209Y-97055447D01*
X80765664Y-96973958D01*
X80899292Y-96864292D01*
X80987345Y-96757000D01*
X81229755Y-96757000D01*
X81317808Y-96864292D01*
X81451436Y-96973958D01*
X81603891Y-97055447D01*
X81769315Y-97105628D01*
X81941350Y-97122572D01*
X82853850Y-97122572D01*
X83025885Y-97105628D01*
X83191309Y-97055447D01*
X83343764Y-96973958D01*
X83477392Y-96864292D01*
X83587058Y-96730664D01*
X83668547Y-96578209D01*
X83718728Y-96412785D01*
X83735672Y-96240750D01*
X83735672Y-95753250D01*
X83718728Y-95581215D01*
X83668547Y-95415791D01*
X83587058Y-95263336D01*
X83477392Y-95129708D01*
X83471036Y-95124492D01*
X83548785Y-95060685D01*
X83628137Y-94963994D01*
X83687102Y-94853680D01*
X83723412Y-94733982D01*
X83735672Y-94609500D01*
X83732600Y-94407750D01*
X83573850Y-94249000D01*
X82524600Y-94249000D01*
X82524600Y-94269000D01*
X82270600Y-94269000D01*
X82270600Y-94249000D01*
X81221350Y-94249000D01*
X81108550Y-94361800D01*
X80995750Y-94249000D01*
X79946500Y-94249000D01*
X79946500Y-94269000D01*
X79692500Y-94269000D01*
X79692500Y-94249000D01*
X78643250Y-94249000D01*
X78484500Y-94407750D01*
X78481877Y-94580000D01*
X75419775Y-94580000D01*
X75358962Y-94488987D01*
X75324109Y-94454134D01*
X75359925Y-94418317D01*
X75243271Y-94301663D01*
X75477037Y-94242203D01*
X75587934Y-94003758D01*
X75650183Y-93748260D01*
X75655035Y-93634500D01*
X78481428Y-93634500D01*
X78484500Y-93836250D01*
X78643250Y-93995000D01*
X79692500Y-93995000D01*
X79692500Y-93158250D01*
X79946500Y-93158250D01*
X79946500Y-93995000D01*
X80995750Y-93995000D01*
X81108550Y-93882200D01*
X81221350Y-93995000D01*
X82270600Y-93995000D01*
X82270600Y-93158250D01*
X82524600Y-93158250D01*
X82524600Y-93995000D01*
X83573850Y-93995000D01*
X83732600Y-93836250D01*
X83735672Y-93634500D01*
X83723412Y-93510018D01*
X83687102Y-93390320D01*
X83628137Y-93280006D01*
X83548785Y-93183315D01*
X83452094Y-93103963D01*
X83341780Y-93044998D01*
X83222082Y-93008688D01*
X83097600Y-92996428D01*
X82683350Y-92999500D01*
X82524600Y-93158250D01*
X82270600Y-93158250D01*
X82111850Y-92999500D01*
X81697600Y-92996428D01*
X81573118Y-93008688D01*
X81453420Y-93044998D01*
X81343106Y-93103963D01*
X81246415Y-93183315D01*
X81167063Y-93280006D01*
X81108550Y-93389474D01*
X81050037Y-93280006D01*
X80970685Y-93183315D01*
X80873994Y-93103963D01*
X80763680Y-93044998D01*
X80643982Y-93008688D01*
X80519500Y-92996428D01*
X80105250Y-92999500D01*
X79946500Y-93158250D01*
X79692500Y-93158250D01*
X79533750Y-92999500D01*
X79119500Y-92996428D01*
X78995018Y-93008688D01*
X78875320Y-93044998D01*
X78765006Y-93103963D01*
X78668315Y-93183315D01*
X78588963Y-93280006D01*
X78529998Y-93390320D01*
X78493688Y-93510018D01*
X78481428Y-93634500D01*
X75655035Y-93634500D01*
X75661390Y-93485527D01*
X75621125Y-93225656D01*
X75530935Y-92978634D01*
X75477037Y-92877797D01*
X75243271Y-92818337D01*
X75359925Y-92701683D01*
X75324109Y-92665867D01*
X75358962Y-92631013D01*
X75505061Y-92412359D01*
X75519334Y-92377900D01*
X78577519Y-92377900D01*
X78630042Y-92476164D01*
X78739708Y-92609792D01*
X78873336Y-92719458D01*
X79025791Y-92800947D01*
X79191215Y-92851128D01*
X79363250Y-92868072D01*
X80275750Y-92868072D01*
X80447785Y-92851128D01*
X80613209Y-92800947D01*
X80765664Y-92719458D01*
X80899292Y-92609792D01*
X80987345Y-92502500D01*
X81178955Y-92502500D01*
X81267008Y-92609792D01*
X81400636Y-92719458D01*
X81553091Y-92800947D01*
X81718515Y-92851128D01*
X81890550Y-92868072D01*
X82803050Y-92868072D01*
X82975085Y-92851128D01*
X83140509Y-92800947D01*
X83292964Y-92719458D01*
X83426592Y-92609792D01*
X83536258Y-92476164D01*
X83617747Y-92323709D01*
X83667928Y-92158285D01*
X83684872Y-91986250D01*
X83684872Y-91498750D01*
X83667928Y-91326715D01*
X83617747Y-91161291D01*
X83536258Y-91008836D01*
X83426592Y-90875208D01*
X83420236Y-90869992D01*
X83497985Y-90806185D01*
X83577337Y-90709494D01*
X83636302Y-90599180D01*
X83672612Y-90479482D01*
X83684872Y-90355000D01*
X83681800Y-90153250D01*
X83523050Y-89994500D01*
X82473800Y-89994500D01*
X82473800Y-90014500D01*
X82219800Y-90014500D01*
X82219800Y-89994500D01*
X81170550Y-89994500D01*
X81083150Y-90081900D01*
X80995750Y-89994500D01*
X79946500Y-89994500D01*
X79946500Y-90014500D01*
X79692500Y-90014500D01*
X79692500Y-89994500D01*
X78643250Y-89994500D01*
X78484500Y-90153250D01*
X78481428Y-90355000D01*
X78493688Y-90479482D01*
X78529998Y-90599180D01*
X78588963Y-90709494D01*
X78668315Y-90806185D01*
X78731330Y-90857900D01*
X75352075Y-90857900D01*
X75358962Y-90851013D01*
X75505061Y-90632359D01*
X75605696Y-90389405D01*
X75657000Y-90131486D01*
X75657000Y-89868514D01*
X75605696Y-89610595D01*
X75510181Y-89380000D01*
X78481428Y-89380000D01*
X78484500Y-89581750D01*
X78643250Y-89740500D01*
X79692500Y-89740500D01*
X79692500Y-88903750D01*
X79946500Y-88903750D01*
X79946500Y-89740500D01*
X80995750Y-89740500D01*
X81083150Y-89653100D01*
X81170550Y-89740500D01*
X82219800Y-89740500D01*
X82219800Y-88903750D01*
X82473800Y-88903750D01*
X82473800Y-89740500D01*
X83523050Y-89740500D01*
X83681800Y-89581750D01*
X83684872Y-89380000D01*
X83672612Y-89255518D01*
X83636302Y-89135820D01*
X83577337Y-89025506D01*
X83497985Y-88928815D01*
X83401294Y-88849463D01*
X83290980Y-88790498D01*
X83171282Y-88754188D01*
X83046800Y-88741928D01*
X82632550Y-88745000D01*
X82473800Y-88903750D01*
X82219800Y-88903750D01*
X82061050Y-88745000D01*
X81646800Y-88741928D01*
X81522318Y-88754188D01*
X81402620Y-88790498D01*
X81292306Y-88849463D01*
X81195615Y-88928815D01*
X81116263Y-89025506D01*
X81083150Y-89087455D01*
X81050037Y-89025506D01*
X80970685Y-88928815D01*
X80873994Y-88849463D01*
X80763680Y-88790498D01*
X80643982Y-88754188D01*
X80519500Y-88741928D01*
X80105250Y-88745000D01*
X79946500Y-88903750D01*
X79692500Y-88903750D01*
X79533750Y-88745000D01*
X79119500Y-88741928D01*
X78995018Y-88754188D01*
X78875320Y-88790498D01*
X78765006Y-88849463D01*
X78668315Y-88928815D01*
X78588963Y-89025506D01*
X78529998Y-89135820D01*
X78493688Y-89255518D01*
X78481428Y-89380000D01*
X75510181Y-89380000D01*
X75505061Y-89367641D01*
X75358962Y-89148987D01*
X75173013Y-88963038D01*
X75082000Y-88902225D01*
X75082000Y-85849092D01*
X75177664Y-85797958D01*
X75311292Y-85688292D01*
X75420958Y-85554664D01*
X75502447Y-85402209D01*
X75552628Y-85236785D01*
X75569572Y-85064750D01*
X75569572Y-84577250D01*
X75552628Y-84405215D01*
X75502447Y-84239791D01*
X75420958Y-84087336D01*
X75311292Y-83953708D01*
X75225744Y-83883500D01*
X75311292Y-83813292D01*
X75420958Y-83679664D01*
X75502447Y-83527209D01*
X75552628Y-83361785D01*
X75569572Y-83189750D01*
X75569572Y-82702250D01*
X75552628Y-82530215D01*
X75502447Y-82364791D01*
X75420958Y-82212336D01*
X75311292Y-82078708D01*
X75177664Y-81969042D01*
X75025209Y-81887553D01*
X74859785Y-81837372D01*
X74687750Y-81820428D01*
X73775250Y-81820428D01*
X73603215Y-81837372D01*
X73437791Y-81887553D01*
X73285336Y-81969042D01*
X73151708Y-82078708D01*
X73063655Y-82186000D01*
X69345682Y-82186000D01*
X69343812Y-82167018D01*
X69307502Y-82047320D01*
X69248537Y-81937006D01*
X69169185Y-81840315D01*
X69072494Y-81760963D01*
X68962180Y-81701998D01*
X68842482Y-81665688D01*
X68718000Y-81653428D01*
X67918000Y-81653428D01*
X67793518Y-81665688D01*
X67696438Y-81695137D01*
X66608894Y-80607593D01*
X66585091Y-80578589D01*
X66469366Y-80483616D01*
X66337337Y-80413044D01*
X66194076Y-80369587D01*
X66082423Y-80358590D01*
X66082412Y-80358590D01*
X66045090Y-80354914D01*
X66007768Y-80358590D01*
X63976402Y-80358590D01*
X63939079Y-80354914D01*
X63901756Y-80358590D01*
X63901747Y-80358590D01*
X63790094Y-80369587D01*
X63646833Y-80413044D01*
X63514804Y-80483616D01*
X63399079Y-80578589D01*
X63375276Y-80607593D01*
X63175740Y-80807129D01*
X63079150Y-80808600D01*
X62920400Y-80967350D01*
X62920400Y-81146515D01*
X62880007Y-81279675D01*
X62869010Y-81391328D01*
X62869010Y-81391338D01*
X62865334Y-81428660D01*
X62869010Y-81465983D01*
X62869011Y-86828186D01*
X61211002Y-88486197D01*
X61181999Y-88509999D01*
X61140525Y-88560536D01*
X61087026Y-88625724D01*
X61067674Y-88661928D01*
X61022000Y-88661928D01*
X60897518Y-88674188D01*
X60889121Y-88676735D01*
X60881963Y-88663343D01*
X60786990Y-88547618D01*
X60757993Y-88523821D01*
X59099174Y-86865003D01*
X59075371Y-86835999D01*
X58959646Y-86741026D01*
X58827617Y-86670454D01*
X58684356Y-86626997D01*
X58627802Y-86621427D01*
X58602932Y-86574899D01*
X58423608Y-86356392D01*
X58205101Y-86177068D01*
X58072142Y-86106000D01*
X58205101Y-86034932D01*
X58423608Y-85855608D01*
X58602932Y-85637101D01*
X58736182Y-85387808D01*
X58818236Y-85117309D01*
X58820778Y-85091500D01*
X61690928Y-85091500D01*
X61703188Y-85215982D01*
X61739498Y-85335680D01*
X61798463Y-85445994D01*
X61877815Y-85542685D01*
X61974506Y-85622037D01*
X62084820Y-85681002D01*
X62204518Y-85717312D01*
X62329000Y-85729572D01*
X62530750Y-85726500D01*
X62689500Y-85567750D01*
X62689500Y-84518500D01*
X61852750Y-84518500D01*
X61694000Y-84677250D01*
X61690928Y-85091500D01*
X58820778Y-85091500D01*
X58845943Y-84836000D01*
X58818236Y-84554691D01*
X58736182Y-84284192D01*
X58602932Y-84034899D01*
X58423608Y-83816392D01*
X58205101Y-83637068D01*
X58072142Y-83566000D01*
X58205101Y-83494932D01*
X58423608Y-83315608D01*
X58602932Y-83097101D01*
X58736182Y-82847808D01*
X58737458Y-82843600D01*
X61667828Y-82843600D01*
X61680088Y-82968082D01*
X61716398Y-83087780D01*
X61775363Y-83198094D01*
X61843914Y-83281624D01*
X61798463Y-83337006D01*
X61739498Y-83447320D01*
X61703188Y-83567018D01*
X61690928Y-83691500D01*
X61694000Y-84105750D01*
X61852750Y-84264500D01*
X62689500Y-84264500D01*
X62689500Y-83215250D01*
X62666400Y-83192150D01*
X62666400Y-82270600D01*
X61829650Y-82270600D01*
X61670900Y-82429350D01*
X61667828Y-82843600D01*
X58737458Y-82843600D01*
X58818236Y-82577309D01*
X58845943Y-82296000D01*
X58818236Y-82014691D01*
X58736182Y-81744192D01*
X58602932Y-81494899D01*
X58560833Y-81443600D01*
X61667828Y-81443600D01*
X61670900Y-81857850D01*
X61829650Y-82016600D01*
X62666400Y-82016600D01*
X62666400Y-80967350D01*
X62507650Y-80808600D01*
X62305900Y-80805528D01*
X62181418Y-80817788D01*
X62061720Y-80854098D01*
X61951406Y-80913063D01*
X61854715Y-80992415D01*
X61775363Y-81089106D01*
X61716398Y-81199420D01*
X61680088Y-81319118D01*
X61667828Y-81443600D01*
X58560833Y-81443600D01*
X58423608Y-81276392D01*
X58205101Y-81097068D01*
X57955808Y-80963818D01*
X57685309Y-80881764D01*
X57474492Y-80861000D01*
X57333508Y-80861000D01*
X57122691Y-80881764D01*
X56852192Y-80963818D01*
X56602899Y-81097068D01*
X56384392Y-81276392D01*
X56205068Y-81494899D01*
X56071818Y-81744192D01*
X55989764Y-82014691D01*
X55962057Y-82296000D01*
X55989764Y-82577309D01*
X56071818Y-82847808D01*
X56205068Y-83097101D01*
X56384392Y-83315608D01*
X56602899Y-83494932D01*
X56735858Y-83566000D01*
X56602899Y-83637068D01*
X56384392Y-83816392D01*
X56205068Y-84034899D01*
X56071818Y-84284192D01*
X55989764Y-84554691D01*
X55962057Y-84836000D01*
X55989764Y-85117309D01*
X56003292Y-85161906D01*
X55768001Y-85397197D01*
X55738998Y-85421000D01*
X55697986Y-85470974D01*
X55644025Y-85536725D01*
X55597763Y-85623275D01*
X55573453Y-85668755D01*
X55529996Y-85812016D01*
X55518999Y-85923669D01*
X55518999Y-85923679D01*
X55515323Y-85961001D01*
X55518999Y-85998324D01*
X55519000Y-92958669D01*
X55515323Y-92996001D01*
X55519000Y-93033334D01*
X55529997Y-93144987D01*
X55543179Y-93188443D01*
X55573453Y-93288247D01*
X55644025Y-93420277D01*
X55697575Y-93485527D01*
X55738999Y-93536002D01*
X55767997Y-93559800D01*
X56294330Y-94086133D01*
X56205068Y-94194899D01*
X56071818Y-94444192D01*
X55989764Y-94714691D01*
X55962057Y-94996000D01*
X55964598Y-95021796D01*
X43564708Y-82621907D01*
X43578236Y-82577309D01*
X43605943Y-82296000D01*
X43578236Y-82014691D01*
X43496182Y-81744192D01*
X43362932Y-81494899D01*
X43183608Y-81276392D01*
X42965101Y-81097068D01*
X42839740Y-81030061D01*
X43099801Y-80770000D01*
X58986289Y-80770000D01*
X59030226Y-80813937D01*
X59199744Y-80927205D01*
X59388102Y-81005226D01*
X59588061Y-81045000D01*
X59791939Y-81045000D01*
X59991898Y-81005226D01*
X60180256Y-80927205D01*
X60349774Y-80813937D01*
X60493937Y-80669774D01*
X60607205Y-80500256D01*
X60685226Y-80311898D01*
X60725000Y-80111939D01*
X60725000Y-79908061D01*
X60685226Y-79708102D01*
X60607205Y-79519744D01*
X60493937Y-79350226D01*
X60349774Y-79206063D01*
X60180256Y-79092795D01*
X59991898Y-79014774D01*
X59791939Y-78975000D01*
X59588061Y-78975000D01*
X59388102Y-79014774D01*
X59199744Y-79092795D01*
X59030226Y-79206063D01*
X58986289Y-79250000D01*
X42822320Y-79250000D01*
X42784997Y-79246324D01*
X42747674Y-79250000D01*
X42747665Y-79250000D01*
X42636012Y-79260997D01*
X42492751Y-79304454D01*
X42360722Y-79375026D01*
X42360720Y-79375027D01*
X42360721Y-79375027D01*
X42273994Y-79446201D01*
X42273990Y-79446205D01*
X42244997Y-79469999D01*
X42221203Y-79498992D01*
X40660000Y-81060197D01*
X40660000Y-73619484D01*
X64373500Y-73619484D01*
X64373500Y-74335516D01*
X64513191Y-75037790D01*
X64787205Y-75699318D01*
X65185011Y-76294677D01*
X65691323Y-76800989D01*
X66286682Y-77198795D01*
X66948210Y-77472809D01*
X67650484Y-77612500D01*
X68366516Y-77612500D01*
X69068790Y-77472809D01*
X69730318Y-77198795D01*
X70325677Y-76800989D01*
X70831989Y-76294677D01*
X71229795Y-75699318D01*
X71503809Y-75037790D01*
X71643500Y-74335516D01*
X71643500Y-73619484D01*
X71503809Y-72917210D01*
X71229795Y-72255682D01*
X70831989Y-71660323D01*
X70325677Y-71154011D01*
X69730318Y-70756205D01*
X69382177Y-70612000D01*
X90963815Y-70612000D01*
X90992487Y-70903111D01*
X91077401Y-71183034D01*
X91215294Y-71441014D01*
X91400866Y-71667134D01*
X91626986Y-71852706D01*
X91681791Y-71882000D01*
X91626986Y-71911294D01*
X91400866Y-72096866D01*
X91215294Y-72322986D01*
X91077401Y-72580966D01*
X90992487Y-72860889D01*
X90963815Y-73152000D01*
X90992487Y-73443111D01*
X91077401Y-73723034D01*
X91215294Y-73981014D01*
X91400866Y-74207134D01*
X91626986Y-74392706D01*
X91681791Y-74422000D01*
X91626986Y-74451294D01*
X91400866Y-74636866D01*
X91215294Y-74862986D01*
X91077401Y-75120966D01*
X90992487Y-75400889D01*
X90963815Y-75692000D01*
X90992487Y-75983111D01*
X91077401Y-76263034D01*
X91215294Y-76521014D01*
X91400866Y-76747134D01*
X91626986Y-76932706D01*
X91884966Y-77070599D01*
X92164889Y-77155513D01*
X92383050Y-77177000D01*
X92528950Y-77177000D01*
X92747111Y-77155513D01*
X93027034Y-77070599D01*
X93285014Y-76932706D01*
X93511134Y-76747134D01*
X93696706Y-76521014D01*
X93834599Y-76263034D01*
X93919513Y-75983111D01*
X93948185Y-75692000D01*
X93919513Y-75400889D01*
X93834599Y-75120966D01*
X93696706Y-74862986D01*
X93511134Y-74636866D01*
X93285014Y-74451294D01*
X93230209Y-74422000D01*
X93285014Y-74392706D01*
X93511134Y-74207134D01*
X93696706Y-73981014D01*
X93834599Y-73723034D01*
X93919513Y-73443111D01*
X93948185Y-73152000D01*
X93919513Y-72860889D01*
X93834599Y-72580966D01*
X93696706Y-72322986D01*
X93511134Y-72096866D01*
X93285014Y-71911294D01*
X93230209Y-71882000D01*
X93285014Y-71852706D01*
X93511134Y-71667134D01*
X93696706Y-71441014D01*
X93834599Y-71183034D01*
X93919513Y-70903111D01*
X93948185Y-70612000D01*
X93919513Y-70320889D01*
X93834599Y-70040966D01*
X93696706Y-69782986D01*
X93511134Y-69556866D01*
X93285014Y-69371294D01*
X93220477Y-69336799D01*
X93337355Y-69267178D01*
X93553588Y-69072269D01*
X93727641Y-68838920D01*
X93852825Y-68576099D01*
X93897476Y-68428890D01*
X93776155Y-68199000D01*
X92583000Y-68199000D01*
X92583000Y-68219000D01*
X92329000Y-68219000D01*
X92329000Y-68199000D01*
X91135845Y-68199000D01*
X91014524Y-68428890D01*
X91059175Y-68576099D01*
X91184359Y-68838920D01*
X91358412Y-69072269D01*
X91574645Y-69267178D01*
X91691523Y-69336799D01*
X91626986Y-69371294D01*
X91400866Y-69556866D01*
X91215294Y-69782986D01*
X91077401Y-70040966D01*
X90992487Y-70320889D01*
X90963815Y-70612000D01*
X69382177Y-70612000D01*
X69068790Y-70482191D01*
X68366516Y-70342500D01*
X67650484Y-70342500D01*
X66948210Y-70482191D01*
X66286682Y-70756205D01*
X65691323Y-71154011D01*
X65185011Y-71660323D01*
X64787205Y-72255682D01*
X64513191Y-72917210D01*
X64373500Y-73619484D01*
X40660000Y-73619484D01*
X40660000Y-60452000D01*
X90963815Y-60452000D01*
X90992487Y-60743111D01*
X91077401Y-61023034D01*
X91215294Y-61281014D01*
X91400866Y-61507134D01*
X91626986Y-61692706D01*
X91681791Y-61722000D01*
X91626986Y-61751294D01*
X91400866Y-61936866D01*
X91215294Y-62162986D01*
X91077401Y-62420966D01*
X90992487Y-62700889D01*
X90963815Y-62992000D01*
X90992487Y-63283111D01*
X91077401Y-63563034D01*
X91215294Y-63821014D01*
X91400866Y-64047134D01*
X91626986Y-64232706D01*
X91681791Y-64262000D01*
X91626986Y-64291294D01*
X91400866Y-64476866D01*
X91215294Y-64702986D01*
X91077401Y-64960966D01*
X90992487Y-65240889D01*
X90963815Y-65532000D01*
X90992487Y-65823111D01*
X91077401Y-66103034D01*
X91215294Y-66361014D01*
X91400866Y-66587134D01*
X91626986Y-66772706D01*
X91691523Y-66807201D01*
X91574645Y-66876822D01*
X91358412Y-67071731D01*
X91184359Y-67305080D01*
X91059175Y-67567901D01*
X91014524Y-67715110D01*
X91135845Y-67945000D01*
X92329000Y-67945000D01*
X92329000Y-67925000D01*
X92583000Y-67925000D01*
X92583000Y-67945000D01*
X93776155Y-67945000D01*
X93897476Y-67715110D01*
X93852825Y-67567901D01*
X93727641Y-67305080D01*
X93553588Y-67071731D01*
X93337355Y-66876822D01*
X93220477Y-66807201D01*
X93285014Y-66772706D01*
X93511134Y-66587134D01*
X93696706Y-66361014D01*
X93834599Y-66103034D01*
X93919513Y-65823111D01*
X93948185Y-65532000D01*
X93919513Y-65240889D01*
X93834599Y-64960966D01*
X93696706Y-64702986D01*
X93511134Y-64476866D01*
X93285014Y-64291294D01*
X93230209Y-64262000D01*
X93285014Y-64232706D01*
X93511134Y-64047134D01*
X93696706Y-63821014D01*
X93834599Y-63563034D01*
X93919513Y-63283111D01*
X93948185Y-62992000D01*
X93919513Y-62700889D01*
X93834599Y-62420966D01*
X93696706Y-62162986D01*
X93511134Y-61936866D01*
X93285014Y-61751294D01*
X93230209Y-61722000D01*
X93285014Y-61692706D01*
X93511134Y-61507134D01*
X93696706Y-61281014D01*
X93834599Y-61023034D01*
X93919513Y-60743111D01*
X93948185Y-60452000D01*
X93919513Y-60160889D01*
X93834599Y-59880966D01*
X93696706Y-59622986D01*
X93511134Y-59396866D01*
X93481313Y-59372393D01*
X93550180Y-59351502D01*
X93660494Y-59292537D01*
X93757185Y-59213185D01*
X93836537Y-59116494D01*
X93895502Y-59006180D01*
X93931812Y-58886482D01*
X93944072Y-58762000D01*
X93944072Y-57062000D01*
X93931812Y-56937518D01*
X93895502Y-56817820D01*
X93836537Y-56707506D01*
X93757185Y-56610815D01*
X93660494Y-56531463D01*
X93550180Y-56472498D01*
X93430482Y-56436188D01*
X93306000Y-56423928D01*
X91606000Y-56423928D01*
X91481518Y-56436188D01*
X91361820Y-56472498D01*
X91251506Y-56531463D01*
X91154815Y-56610815D01*
X91075463Y-56707506D01*
X91016498Y-56817820D01*
X90980188Y-56937518D01*
X90967928Y-57062000D01*
X90967928Y-58762000D01*
X90980188Y-58886482D01*
X91016498Y-59006180D01*
X91075463Y-59116494D01*
X91154815Y-59213185D01*
X91251506Y-59292537D01*
X91361820Y-59351502D01*
X91430687Y-59372393D01*
X91400866Y-59396866D01*
X91215294Y-59622986D01*
X91077401Y-59880966D01*
X90992487Y-60160889D01*
X90963815Y-60452000D01*
X40660000Y-60452000D01*
X40660000Y-53402967D01*
X46625000Y-53402967D01*
X46625000Y-53725033D01*
X46687832Y-54040912D01*
X46811082Y-54338463D01*
X46990013Y-54606252D01*
X47217748Y-54833987D01*
X47485537Y-55012918D01*
X47783088Y-55136168D01*
X48098967Y-55199000D01*
X48421033Y-55199000D01*
X48736912Y-55136168D01*
X49034463Y-55012918D01*
X49302252Y-54833987D01*
X49529987Y-54606252D01*
X49708918Y-54338463D01*
X49832168Y-54040912D01*
X49895000Y-53725033D01*
X49895000Y-53402967D01*
X53125000Y-53402967D01*
X53125000Y-53725033D01*
X53187832Y-54040912D01*
X53311082Y-54338463D01*
X53490013Y-54606252D01*
X53717748Y-54833987D01*
X53985537Y-55012918D01*
X54283088Y-55136168D01*
X54598967Y-55199000D01*
X54921033Y-55199000D01*
X55236912Y-55136168D01*
X55534463Y-55012918D01*
X55802252Y-54833987D01*
X56029987Y-54606252D01*
X56208918Y-54338463D01*
X56332168Y-54040912D01*
X56395000Y-53725033D01*
X56395000Y-53402967D01*
X79391000Y-53402967D01*
X79391000Y-53725033D01*
X79453832Y-54040912D01*
X79577082Y-54338463D01*
X79756013Y-54606252D01*
X79983748Y-54833987D01*
X80251537Y-55012918D01*
X80549088Y-55136168D01*
X80864967Y-55199000D01*
X81187033Y-55199000D01*
X81502912Y-55136168D01*
X81800463Y-55012918D01*
X82068252Y-54833987D01*
X82295987Y-54606252D01*
X82474918Y-54338463D01*
X82598168Y-54040912D01*
X82661000Y-53725033D01*
X82661000Y-53402967D01*
X85891000Y-53402967D01*
X85891000Y-53725033D01*
X85953832Y-54040912D01*
X86077082Y-54338463D01*
X86256013Y-54606252D01*
X86483748Y-54833987D01*
X86751537Y-55012918D01*
X87049088Y-55136168D01*
X87364967Y-55199000D01*
X87687033Y-55199000D01*
X88002912Y-55136168D01*
X88300463Y-55012918D01*
X88568252Y-54833987D01*
X88795987Y-54606252D01*
X88974918Y-54338463D01*
X89098168Y-54040912D01*
X89161000Y-53725033D01*
X89161000Y-53402967D01*
X89098168Y-53087088D01*
X88974918Y-52789537D01*
X88795987Y-52521748D01*
X88568252Y-52294013D01*
X88300463Y-52115082D01*
X88002912Y-51991832D01*
X87687033Y-51929000D01*
X87364967Y-51929000D01*
X87049088Y-51991832D01*
X86751537Y-52115082D01*
X86483748Y-52294013D01*
X86256013Y-52521748D01*
X86077082Y-52789537D01*
X85953832Y-53087088D01*
X85891000Y-53402967D01*
X82661000Y-53402967D01*
X82598168Y-53087088D01*
X82474918Y-52789537D01*
X82295987Y-52521748D01*
X82068252Y-52294013D01*
X81800463Y-52115082D01*
X81502912Y-51991832D01*
X81187033Y-51929000D01*
X80864967Y-51929000D01*
X80549088Y-51991832D01*
X80251537Y-52115082D01*
X79983748Y-52294013D01*
X79756013Y-52521748D01*
X79577082Y-52789537D01*
X79453832Y-53087088D01*
X79391000Y-53402967D01*
X56395000Y-53402967D01*
X56332168Y-53087088D01*
X56208918Y-52789537D01*
X56029987Y-52521748D01*
X55802252Y-52294013D01*
X55608652Y-52164653D01*
X66687952Y-52164653D01*
X66843962Y-52480214D01*
X67218745Y-52671020D01*
X67623551Y-52785044D01*
X68042824Y-52817902D01*
X68460451Y-52768334D01*
X68860383Y-52638243D01*
X69156038Y-52480214D01*
X69312048Y-52164653D01*
X68000000Y-50852605D01*
X66687952Y-52164653D01*
X55608652Y-52164653D01*
X55534463Y-52115082D01*
X55236912Y-51991832D01*
X54921033Y-51929000D01*
X54598967Y-51929000D01*
X54283088Y-51991832D01*
X53985537Y-52115082D01*
X53717748Y-52294013D01*
X53490013Y-52521748D01*
X53311082Y-52789537D01*
X53187832Y-53087088D01*
X53125000Y-53402967D01*
X49895000Y-53402967D01*
X49832168Y-53087088D01*
X49708918Y-52789537D01*
X49529987Y-52521748D01*
X49302252Y-52294013D01*
X49034463Y-52115082D01*
X48736912Y-51991832D01*
X48421033Y-51929000D01*
X48098967Y-51929000D01*
X47783088Y-51991832D01*
X47485537Y-52115082D01*
X47217748Y-52294013D01*
X46990013Y-52521748D01*
X46811082Y-52789537D01*
X46687832Y-53087088D01*
X46625000Y-53402967D01*
X40660000Y-53402967D01*
X40660000Y-50715824D01*
X65855098Y-50715824D01*
X65904666Y-51133451D01*
X66034757Y-51533383D01*
X66192786Y-51829038D01*
X66508347Y-51985048D01*
X67820395Y-50673000D01*
X68179605Y-50673000D01*
X69491653Y-51985048D01*
X69807214Y-51829038D01*
X69998020Y-51454255D01*
X70112044Y-51049449D01*
X70144902Y-50630176D01*
X70095334Y-50212549D01*
X70091062Y-50199413D01*
X80070192Y-50199413D01*
X80165956Y-50463814D01*
X80455571Y-50604704D01*
X80767108Y-50686384D01*
X81088595Y-50705718D01*
X81407675Y-50661961D01*
X81712088Y-50556795D01*
X81886044Y-50463814D01*
X81981808Y-50199413D01*
X86570192Y-50199413D01*
X86665956Y-50463814D01*
X86955571Y-50604704D01*
X87267108Y-50686384D01*
X87588595Y-50705718D01*
X87907675Y-50661961D01*
X88212088Y-50556795D01*
X88386044Y-50463814D01*
X88481808Y-50199413D01*
X87526000Y-49243605D01*
X86570192Y-50199413D01*
X81981808Y-50199413D01*
X81026000Y-49243605D01*
X80070192Y-50199413D01*
X70091062Y-50199413D01*
X69965243Y-49812617D01*
X69807214Y-49516962D01*
X69491653Y-49360952D01*
X68179605Y-50673000D01*
X67820395Y-50673000D01*
X66508347Y-49360952D01*
X66192786Y-49516962D01*
X66001980Y-49891745D01*
X65887956Y-50296551D01*
X65855098Y-50715824D01*
X40660000Y-50715824D01*
X40660000Y-50199413D01*
X47304192Y-50199413D01*
X47399956Y-50463814D01*
X47689571Y-50604704D01*
X48001108Y-50686384D01*
X48322595Y-50705718D01*
X48641675Y-50661961D01*
X48946088Y-50556795D01*
X49120044Y-50463814D01*
X49215808Y-50199413D01*
X53804192Y-50199413D01*
X53899956Y-50463814D01*
X54189571Y-50604704D01*
X54501108Y-50686384D01*
X54822595Y-50705718D01*
X55141675Y-50661961D01*
X55446088Y-50556795D01*
X55620044Y-50463814D01*
X55715808Y-50199413D01*
X54760000Y-49243605D01*
X53804192Y-50199413D01*
X49215808Y-50199413D01*
X48260000Y-49243605D01*
X47304192Y-50199413D01*
X40660000Y-50199413D01*
X40660000Y-49126595D01*
X46618282Y-49126595D01*
X46662039Y-49445675D01*
X46767205Y-49750088D01*
X46860186Y-49924044D01*
X47124587Y-50019808D01*
X48080395Y-49064000D01*
X48439605Y-49064000D01*
X49395413Y-50019808D01*
X49659814Y-49924044D01*
X49800704Y-49634429D01*
X49882384Y-49322892D01*
X49894189Y-49126595D01*
X53118282Y-49126595D01*
X53162039Y-49445675D01*
X53267205Y-49750088D01*
X53360186Y-49924044D01*
X53624587Y-50019808D01*
X54580395Y-49064000D01*
X54939605Y-49064000D01*
X55895413Y-50019808D01*
X56159814Y-49924044D01*
X56300704Y-49634429D01*
X56382384Y-49322892D01*
X56390896Y-49181347D01*
X66687952Y-49181347D01*
X68000000Y-50493395D01*
X69312048Y-49181347D01*
X69284980Y-49126595D01*
X79384282Y-49126595D01*
X79428039Y-49445675D01*
X79533205Y-49750088D01*
X79626186Y-49924044D01*
X79890587Y-50019808D01*
X80846395Y-49064000D01*
X81205605Y-49064000D01*
X82161413Y-50019808D01*
X82425814Y-49924044D01*
X82566704Y-49634429D01*
X82648384Y-49322892D01*
X82660189Y-49126595D01*
X85884282Y-49126595D01*
X85928039Y-49445675D01*
X86033205Y-49750088D01*
X86126186Y-49924044D01*
X86390587Y-50019808D01*
X87346395Y-49064000D01*
X87705605Y-49064000D01*
X88661413Y-50019808D01*
X88925814Y-49924044D01*
X89066704Y-49634429D01*
X89148384Y-49322892D01*
X89167718Y-49001405D01*
X89123961Y-48682325D01*
X89018795Y-48377912D01*
X88925814Y-48203956D01*
X88661413Y-48108192D01*
X87705605Y-49064000D01*
X87346395Y-49064000D01*
X86390587Y-48108192D01*
X86126186Y-48203956D01*
X85985296Y-48493571D01*
X85903616Y-48805108D01*
X85884282Y-49126595D01*
X82660189Y-49126595D01*
X82667718Y-49001405D01*
X82623961Y-48682325D01*
X82518795Y-48377912D01*
X82425814Y-48203956D01*
X82161413Y-48108192D01*
X81205605Y-49064000D01*
X80846395Y-49064000D01*
X79890587Y-48108192D01*
X79626186Y-48203956D01*
X79485296Y-48493571D01*
X79403616Y-48805108D01*
X79384282Y-49126595D01*
X69284980Y-49126595D01*
X69156038Y-48865786D01*
X68781255Y-48674980D01*
X68376449Y-48560956D01*
X67957176Y-48528098D01*
X67539549Y-48577666D01*
X67139617Y-48707757D01*
X66843962Y-48865786D01*
X66687952Y-49181347D01*
X56390896Y-49181347D01*
X56401718Y-49001405D01*
X56357961Y-48682325D01*
X56252795Y-48377912D01*
X56159814Y-48203956D01*
X55895413Y-48108192D01*
X54939605Y-49064000D01*
X54580395Y-49064000D01*
X53624587Y-48108192D01*
X53360186Y-48203956D01*
X53219296Y-48493571D01*
X53137616Y-48805108D01*
X53118282Y-49126595D01*
X49894189Y-49126595D01*
X49901718Y-49001405D01*
X49857961Y-48682325D01*
X49752795Y-48377912D01*
X49659814Y-48203956D01*
X49395413Y-48108192D01*
X48439605Y-49064000D01*
X48080395Y-49064000D01*
X47124587Y-48108192D01*
X46860186Y-48203956D01*
X46719296Y-48493571D01*
X46637616Y-48805108D01*
X46618282Y-49126595D01*
X40660000Y-49126595D01*
X40660000Y-47928587D01*
X47304192Y-47928587D01*
X48260000Y-48884395D01*
X49215808Y-47928587D01*
X53804192Y-47928587D01*
X54760000Y-48884395D01*
X55715808Y-47928587D01*
X80070192Y-47928587D01*
X81026000Y-48884395D01*
X81981808Y-47928587D01*
X86570192Y-47928587D01*
X87526000Y-48884395D01*
X88481808Y-47928587D01*
X88386044Y-47664186D01*
X88096429Y-47523296D01*
X87784892Y-47441616D01*
X87463405Y-47422282D01*
X87144325Y-47466039D01*
X86839912Y-47571205D01*
X86665956Y-47664186D01*
X86570192Y-47928587D01*
X81981808Y-47928587D01*
X81886044Y-47664186D01*
X81596429Y-47523296D01*
X81284892Y-47441616D01*
X80963405Y-47422282D01*
X80644325Y-47466039D01*
X80339912Y-47571205D01*
X80165956Y-47664186D01*
X80070192Y-47928587D01*
X55715808Y-47928587D01*
X55620044Y-47664186D01*
X55330429Y-47523296D01*
X55018892Y-47441616D01*
X54697405Y-47422282D01*
X54378325Y-47466039D01*
X54073912Y-47571205D01*
X53899956Y-47664186D01*
X53804192Y-47928587D01*
X49215808Y-47928587D01*
X49120044Y-47664186D01*
X48830429Y-47523296D01*
X48518892Y-47441616D01*
X48197405Y-47422282D01*
X47878325Y-47466039D01*
X47573912Y-47571205D01*
X47399956Y-47664186D01*
X47304192Y-47928587D01*
X40660000Y-47928587D01*
X40660000Y-46837380D01*
X42773381Y-44724000D01*
X93226620Y-44724000D01*
X95340000Y-46837381D01*
G36*
X61124953Y-106013946D02*
G01*
X61268214Y-106057403D01*
X61379867Y-106068400D01*
X61379876Y-106068400D01*
X61417199Y-106072076D01*
X61454522Y-106068400D01*
X72914039Y-106068400D01*
X72944174Y-106219898D01*
X73022195Y-106408256D01*
X73135463Y-106577774D01*
X73279626Y-106721937D01*
X73449144Y-106835205D01*
X73637502Y-106913226D01*
X73837461Y-106953000D01*
X74041339Y-106953000D01*
X74241298Y-106913226D01*
X74429656Y-106835205D01*
X74599174Y-106721937D01*
X74743337Y-106577774D01*
X74856605Y-106408256D01*
X74925830Y-106241132D01*
X75350242Y-106665544D01*
X75265491Y-106691253D01*
X75113036Y-106772742D01*
X74979408Y-106882408D01*
X74869742Y-107016036D01*
X74788253Y-107168491D01*
X74738072Y-107333915D01*
X74721128Y-107505950D01*
X74721128Y-108012971D01*
X74609598Y-108124501D01*
X61006989Y-108124501D01*
X61006989Y-105950892D01*
X61124953Y-106013946D01*
X61124953Y-106013946D01*
G37*
X61124953Y-106013946D02*
X61268214Y-106057403D01*
X61379867Y-106068400D01*
X61379876Y-106068400D01*
X61417199Y-106072076D01*
X61454522Y-106068400D01*
X72914039Y-106068400D01*
X72944174Y-106219898D01*
X73022195Y-106408256D01*
X73135463Y-106577774D01*
X73279626Y-106721937D01*
X73449144Y-106835205D01*
X73637502Y-106913226D01*
X73837461Y-106953000D01*
X74041339Y-106953000D01*
X74241298Y-106913226D01*
X74429656Y-106835205D01*
X74599174Y-106721937D01*
X74743337Y-106577774D01*
X74856605Y-106408256D01*
X74925830Y-106241132D01*
X75350242Y-106665544D01*
X75265491Y-106691253D01*
X75113036Y-106772742D01*
X74979408Y-106882408D01*
X74869742Y-107016036D01*
X74788253Y-107168491D01*
X74738072Y-107333915D01*
X74721128Y-107505950D01*
X74721128Y-108012971D01*
X74609598Y-108124501D01*
X61006989Y-108124501D01*
X61006989Y-105950892D01*
X61124953Y-106013946D01*
G36*
X62457302Y-103635608D02*
G01*
X62481990Y-103665690D01*
X62510988Y-103689488D01*
X62747496Y-103925996D01*
X62771299Y-103955000D01*
X62887024Y-104049973D01*
X63019053Y-104120545D01*
X63162314Y-104164002D01*
X63273967Y-104174999D01*
X63273976Y-104174999D01*
X63311299Y-104178675D01*
X63348622Y-104174999D01*
X72859698Y-104174999D01*
X73233099Y-104548400D01*
X61732002Y-104548400D01*
X61456999Y-104273398D01*
X61456999Y-103768442D01*
X61590514Y-103795000D01*
X61853486Y-103795000D01*
X62111405Y-103743696D01*
X62354359Y-103643061D01*
X62424795Y-103595998D01*
X62457302Y-103635608D01*
X62457302Y-103635608D01*
G37*
X62457302Y-103635608D02*
X62481990Y-103665690D01*
X62510988Y-103689488D01*
X62747496Y-103925996D01*
X62771299Y-103955000D01*
X62887024Y-104049973D01*
X63019053Y-104120545D01*
X63162314Y-104164002D01*
X63273967Y-104174999D01*
X63273976Y-104174999D01*
X63311299Y-104178675D01*
X63348622Y-104174999D01*
X72859698Y-104174999D01*
X73233099Y-104548400D01*
X61732002Y-104548400D01*
X61456999Y-104273398D01*
X61456999Y-103768442D01*
X61590514Y-103795000D01*
X61853486Y-103795000D01*
X62111405Y-103743696D01*
X62354359Y-103643061D01*
X62424795Y-103595998D01*
X62457302Y-103635608D01*
G36*
X74515748Y-98885858D02*
G01*
X74501605Y-98900000D01*
X74515748Y-98914143D01*
X74336143Y-99093748D01*
X74322000Y-99079605D01*
X74307858Y-99093748D01*
X74128253Y-98914143D01*
X74142395Y-98900000D01*
X74128253Y-98885858D01*
X74307858Y-98706253D01*
X74322000Y-98720395D01*
X74336143Y-98706253D01*
X74515748Y-98885858D01*
X74515748Y-98885858D01*
G37*
X74515748Y-98885858D02*
X74501605Y-98900000D01*
X74515748Y-98914143D01*
X74336143Y-99093748D01*
X74322000Y-99079605D01*
X74307858Y-99093748D01*
X74128253Y-98914143D01*
X74142395Y-98900000D01*
X74128253Y-98885858D01*
X74307858Y-98706253D01*
X74322000Y-98720395D01*
X74336143Y-98706253D01*
X74515748Y-98885858D01*
G36*
X59486989Y-89402421D02*
G01*
X59486989Y-94339186D01*
X58513670Y-93365867D01*
X58602932Y-93257101D01*
X58736182Y-93007808D01*
X58818236Y-92737309D01*
X58845943Y-92456000D01*
X58818236Y-92174691D01*
X58736182Y-91904192D01*
X58602932Y-91654899D01*
X58423608Y-91436392D01*
X58205101Y-91257068D01*
X58072142Y-91186000D01*
X58205101Y-91114932D01*
X58423608Y-90935608D01*
X58602932Y-90717101D01*
X58736182Y-90467808D01*
X58818236Y-90197309D01*
X58845943Y-89916000D01*
X58818236Y-89634691D01*
X58736182Y-89364192D01*
X58602932Y-89114899D01*
X58423608Y-88896392D01*
X58205101Y-88717068D01*
X58072142Y-88646000D01*
X58205101Y-88574932D01*
X58423608Y-88395608D01*
X58449107Y-88364538D01*
X59486989Y-89402421D01*
X59486989Y-89402421D01*
G37*
X59486989Y-89402421D02*
X59486989Y-94339186D01*
X58513670Y-93365867D01*
X58602932Y-93257101D01*
X58736182Y-93007808D01*
X58818236Y-92737309D01*
X58845943Y-92456000D01*
X58818236Y-92174691D01*
X58736182Y-91904192D01*
X58602932Y-91654899D01*
X58423608Y-91436392D01*
X58205101Y-91257068D01*
X58072142Y-91186000D01*
X58205101Y-91114932D01*
X58423608Y-90935608D01*
X58602932Y-90717101D01*
X58736182Y-90467808D01*
X58818236Y-90197309D01*
X58845943Y-89916000D01*
X58818236Y-89634691D01*
X58736182Y-89364192D01*
X58602932Y-89114899D01*
X58423608Y-88896392D01*
X58205101Y-88717068D01*
X58072142Y-88646000D01*
X58205101Y-88574932D01*
X58423608Y-88395608D01*
X58449107Y-88364538D01*
X59486989Y-89402421D01*
G36*
X74515748Y-93545858D02*
G01*
X74501605Y-93560000D01*
X74515748Y-93574143D01*
X74336143Y-93753748D01*
X74322000Y-93739605D01*
X74307858Y-93753748D01*
X74128253Y-93574143D01*
X74142395Y-93560000D01*
X74128253Y-93545858D01*
X74307858Y-93366253D01*
X74322000Y-93380395D01*
X74336143Y-93366253D01*
X74515748Y-93545858D01*
X74515748Y-93545858D01*
G37*
X74515748Y-93545858D02*
X74501605Y-93560000D01*
X74515748Y-93574143D01*
X74336143Y-93753748D01*
X74322000Y-93739605D01*
X74307858Y-93753748D01*
X74128253Y-93574143D01*
X74142395Y-93560000D01*
X74128253Y-93545858D01*
X74307858Y-93366253D01*
X74322000Y-93380395D01*
X74336143Y-93366253D01*
X74515748Y-93545858D01*
G36*
X68337463Y-85545994D02*
G01*
X68416815Y-85642685D01*
X68513506Y-85722037D01*
X68573271Y-85753982D01*
X68633026Y-85865776D01*
X68672871Y-85914326D01*
X68727999Y-85981501D01*
X68757003Y-86005304D01*
X71541698Y-88790000D01*
X64641103Y-88790000D01*
X67601532Y-85829572D01*
X67768000Y-85829572D01*
X67892482Y-85817312D01*
X68012180Y-85781002D01*
X68122494Y-85722037D01*
X68219185Y-85642685D01*
X68298537Y-85545994D01*
X68318000Y-85509582D01*
X68337463Y-85545994D01*
X68337463Y-85545994D01*
G37*
X68337463Y-85545994D02*
X68416815Y-85642685D01*
X68513506Y-85722037D01*
X68573271Y-85753982D01*
X68633026Y-85865776D01*
X68672871Y-85914326D01*
X68727999Y-85981501D01*
X68757003Y-86005304D01*
X71541698Y-88790000D01*
X64641103Y-88790000D01*
X67601532Y-85829572D01*
X67768000Y-85829572D01*
X67892482Y-85817312D01*
X68012180Y-85781002D01*
X68122494Y-85722037D01*
X68219185Y-85642685D01*
X68298537Y-85545994D01*
X68318000Y-85509582D01*
X68337463Y-85545994D01*
G36*
X73151708Y-83813292D02*
G01*
X73237256Y-83883500D01*
X73151708Y-83953708D01*
X73042042Y-84087336D01*
X72960553Y-84239791D01*
X72910372Y-84405215D01*
X72893428Y-84577250D01*
X72893428Y-85064750D01*
X72910372Y-85236785D01*
X72960553Y-85402209D01*
X73042042Y-85554664D01*
X73151708Y-85688292D01*
X73285336Y-85797958D01*
X73437791Y-85879447D01*
X73562001Y-85917126D01*
X73562000Y-88655500D01*
X73533013Y-88631711D01*
X70276000Y-85374699D01*
X70293812Y-85315982D01*
X70306072Y-85191500D01*
X70306072Y-84291500D01*
X70293812Y-84167018D01*
X70257502Y-84047320D01*
X70198537Y-83937006D01*
X70119185Y-83840315D01*
X70022494Y-83760963D01*
X69919667Y-83706000D01*
X73063655Y-83706000D01*
X73151708Y-83813292D01*
X73151708Y-83813292D01*
G37*
X73151708Y-83813292D02*
X73237256Y-83883500D01*
X73151708Y-83953708D01*
X73042042Y-84087336D01*
X72960553Y-84239791D01*
X72910372Y-84405215D01*
X72893428Y-84577250D01*
X72893428Y-85064750D01*
X72910372Y-85236785D01*
X72960553Y-85402209D01*
X73042042Y-85554664D01*
X73151708Y-85688292D01*
X73285336Y-85797958D01*
X73437791Y-85879447D01*
X73562001Y-85917126D01*
X73562000Y-88655500D01*
X73533013Y-88631711D01*
X70276000Y-85374699D01*
X70293812Y-85315982D01*
X70306072Y-85191500D01*
X70306072Y-84291500D01*
X70293812Y-84167018D01*
X70257502Y-84047320D01*
X70198537Y-83937006D01*
X70119185Y-83840315D01*
X70022494Y-83760963D01*
X69919667Y-83706000D01*
X73063655Y-83706000D01*
X73151708Y-83813292D01*
M02*
