G04 #@! TF.GenerationSoftware,KiCad,Pcbnew,(5.1.0-0)*
G04 #@! TF.CreationDate,2020-11-05T15:54:36+00:00*
G04 #@! TF.ProjectId,OpenLaserMouseTHT,4f70656e-4c61-4736-9572-4d6f75736554,rev?*
G04 #@! TF.SameCoordinates,Original*
G04 #@! TF.FileFunction,Soldermask,Top*
G04 #@! TF.FilePolarity,Negative*
%FSLAX46Y46*%
G04 Gerber Fmt 4.6, Leading zero omitted, Abs format (unit mm)*
G04 Created by KiCad (PCBNEW (5.1.0-0)) date 2020-11-05 15:54:36*
%MOMM*%
%LPD*%
G04 APERTURE LIST*
%ADD10C,0.100000*%
G04 APERTURE END LIST*
D10*
G36*
X68834943Y-113566248D02*
G01*
X69390189Y-113796238D01*
X69390190Y-113796239D01*
X69889899Y-114130134D01*
X70314866Y-114555101D01*
X70390633Y-114668495D01*
X70648762Y-115054811D01*
X70878752Y-115610057D01*
X70996000Y-116199501D01*
X70996000Y-116800499D01*
X70878752Y-117389943D01*
X70648762Y-117945189D01*
X70482948Y-118193347D01*
X70314866Y-118444899D01*
X69889899Y-118869866D01*
X69771935Y-118948687D01*
X69390189Y-119203762D01*
X68834943Y-119433752D01*
X68245499Y-119551000D01*
X67644501Y-119551000D01*
X67055057Y-119433752D01*
X66499811Y-119203762D01*
X66118065Y-118948687D01*
X66000101Y-118869866D01*
X65575134Y-118444899D01*
X65407052Y-118193347D01*
X65241238Y-117945189D01*
X65011248Y-117389943D01*
X64894000Y-116800499D01*
X64894000Y-116199501D01*
X65011248Y-115610057D01*
X65241238Y-115054811D01*
X65499367Y-114668495D01*
X65575134Y-114555101D01*
X66000101Y-114130134D01*
X66499810Y-113796239D01*
X66499811Y-113796238D01*
X67055057Y-113566248D01*
X67644501Y-113449000D01*
X68245499Y-113449000D01*
X68834943Y-113566248D01*
X68834943Y-113566248D01*
G37*
G36*
X86659028Y-117304403D02*
G01*
X86813900Y-117368553D01*
X86953281Y-117461685D01*
X87071815Y-117580219D01*
X87164947Y-117719600D01*
X87229097Y-117874472D01*
X87261800Y-118038884D01*
X87261800Y-118206516D01*
X87229097Y-118370928D01*
X87164947Y-118525800D01*
X87071815Y-118665181D01*
X86953281Y-118783715D01*
X86813900Y-118876847D01*
X86659028Y-118940997D01*
X86494616Y-118973700D01*
X86326984Y-118973700D01*
X86162572Y-118940997D01*
X86007700Y-118876847D01*
X85868319Y-118783715D01*
X85749785Y-118665181D01*
X85656653Y-118525800D01*
X85592503Y-118370928D01*
X85559800Y-118206516D01*
X85559800Y-118038884D01*
X85592503Y-117874472D01*
X85656653Y-117719600D01*
X85749785Y-117580219D01*
X85868319Y-117461685D01*
X86007700Y-117368553D01*
X86162572Y-117304403D01*
X86326984Y-117271700D01*
X86494616Y-117271700D01*
X86659028Y-117304403D01*
X86659028Y-117304403D01*
G37*
G36*
X83458628Y-117304403D02*
G01*
X83613500Y-117368553D01*
X83752881Y-117461685D01*
X83871415Y-117580219D01*
X83964547Y-117719600D01*
X84028697Y-117874472D01*
X84061400Y-118038884D01*
X84061400Y-118206516D01*
X84028697Y-118370928D01*
X83964547Y-118525800D01*
X83871415Y-118665181D01*
X83752881Y-118783715D01*
X83613500Y-118876847D01*
X83458628Y-118940997D01*
X83294216Y-118973700D01*
X83126584Y-118973700D01*
X82962172Y-118940997D01*
X82807300Y-118876847D01*
X82667919Y-118783715D01*
X82549385Y-118665181D01*
X82456253Y-118525800D01*
X82392103Y-118370928D01*
X82359400Y-118206516D01*
X82359400Y-118038884D01*
X82392103Y-117874472D01*
X82456253Y-117719600D01*
X82549385Y-117580219D01*
X82667919Y-117461685D01*
X82807300Y-117368553D01*
X82962172Y-117304403D01*
X83126584Y-117271700D01*
X83294216Y-117271700D01*
X83458628Y-117304403D01*
X83458628Y-117304403D01*
G37*
G36*
X89757828Y-117304403D02*
G01*
X89912700Y-117368553D01*
X90052081Y-117461685D01*
X90170615Y-117580219D01*
X90263747Y-117719600D01*
X90327897Y-117874472D01*
X90360600Y-118038884D01*
X90360600Y-118206516D01*
X90327897Y-118370928D01*
X90263747Y-118525800D01*
X90170615Y-118665181D01*
X90052081Y-118783715D01*
X89912700Y-118876847D01*
X89757828Y-118940997D01*
X89593416Y-118973700D01*
X89425784Y-118973700D01*
X89261372Y-118940997D01*
X89106500Y-118876847D01*
X88967119Y-118783715D01*
X88848585Y-118665181D01*
X88755453Y-118525800D01*
X88691303Y-118370928D01*
X88658600Y-118206516D01*
X88658600Y-118038884D01*
X88691303Y-117874472D01*
X88755453Y-117719600D01*
X88848585Y-117580219D01*
X88967119Y-117461685D01*
X89106500Y-117368553D01*
X89261372Y-117304403D01*
X89425784Y-117271700D01*
X89593416Y-117271700D01*
X89757828Y-117304403D01*
X89757828Y-117304403D01*
G37*
G36*
X80253023Y-117271313D02*
G01*
X80413442Y-117319976D01*
X80504321Y-117368552D01*
X80561278Y-117398996D01*
X80690859Y-117505341D01*
X80797204Y-117634922D01*
X80797205Y-117634924D01*
X80876224Y-117782758D01*
X80924887Y-117943177D01*
X80941317Y-118110000D01*
X80924887Y-118276823D01*
X80876224Y-118437242D01*
X80872132Y-118444897D01*
X80797204Y-118585078D01*
X80690859Y-118714659D01*
X80561278Y-118821004D01*
X80561276Y-118821005D01*
X80413442Y-118900024D01*
X80253023Y-118948687D01*
X80128004Y-118961000D01*
X80044396Y-118961000D01*
X79919377Y-118948687D01*
X79758958Y-118900024D01*
X79611124Y-118821005D01*
X79611122Y-118821004D01*
X79481541Y-118714659D01*
X79375196Y-118585078D01*
X79300268Y-118444897D01*
X79296176Y-118437242D01*
X79247513Y-118276823D01*
X79231083Y-118110000D01*
X79247513Y-117943177D01*
X79296176Y-117782758D01*
X79375195Y-117634924D01*
X79375196Y-117634922D01*
X79481541Y-117505341D01*
X79611122Y-117398996D01*
X79668079Y-117368552D01*
X79758958Y-117319976D01*
X79919377Y-117271313D01*
X80044396Y-117259000D01*
X80128004Y-117259000D01*
X80253023Y-117271313D01*
X80253023Y-117271313D01*
G37*
G36*
X77179623Y-117271313D02*
G01*
X77340042Y-117319976D01*
X77430921Y-117368552D01*
X77487878Y-117398996D01*
X77617459Y-117505341D01*
X77723804Y-117634922D01*
X77723805Y-117634924D01*
X77802824Y-117782758D01*
X77851487Y-117943177D01*
X77867917Y-118110000D01*
X77851487Y-118276823D01*
X77802824Y-118437242D01*
X77798732Y-118444897D01*
X77723804Y-118585078D01*
X77617459Y-118714659D01*
X77487878Y-118821004D01*
X77487876Y-118821005D01*
X77340042Y-118900024D01*
X77179623Y-118948687D01*
X77054604Y-118961000D01*
X76970996Y-118961000D01*
X76845977Y-118948687D01*
X76685558Y-118900024D01*
X76537724Y-118821005D01*
X76537722Y-118821004D01*
X76408141Y-118714659D01*
X76301796Y-118585078D01*
X76226868Y-118444897D01*
X76222776Y-118437242D01*
X76174113Y-118276823D01*
X76157683Y-118110000D01*
X76174113Y-117943177D01*
X76222776Y-117782758D01*
X76301795Y-117634924D01*
X76301796Y-117634922D01*
X76408141Y-117505341D01*
X76537722Y-117398996D01*
X76594679Y-117368552D01*
X76685558Y-117319976D01*
X76845977Y-117271313D01*
X76970996Y-117259000D01*
X77054604Y-117259000D01*
X77179623Y-117271313D01*
X77179623Y-117271313D01*
G37*
G36*
X74106223Y-117271313D02*
G01*
X74266642Y-117319976D01*
X74357521Y-117368552D01*
X74414478Y-117398996D01*
X74544059Y-117505341D01*
X74650404Y-117634922D01*
X74650405Y-117634924D01*
X74729424Y-117782758D01*
X74778087Y-117943177D01*
X74794517Y-118110000D01*
X74778087Y-118276823D01*
X74729424Y-118437242D01*
X74725332Y-118444897D01*
X74650404Y-118585078D01*
X74544059Y-118714659D01*
X74414478Y-118821004D01*
X74414476Y-118821005D01*
X74266642Y-118900024D01*
X74106223Y-118948687D01*
X73981204Y-118961000D01*
X73897596Y-118961000D01*
X73772577Y-118948687D01*
X73612158Y-118900024D01*
X73464324Y-118821005D01*
X73464322Y-118821004D01*
X73334741Y-118714659D01*
X73228396Y-118585078D01*
X73153468Y-118444897D01*
X73149376Y-118437242D01*
X73100713Y-118276823D01*
X73084283Y-118110000D01*
X73100713Y-117943177D01*
X73149376Y-117782758D01*
X73228395Y-117634924D01*
X73228396Y-117634922D01*
X73334741Y-117505341D01*
X73464322Y-117398996D01*
X73521279Y-117368552D01*
X73612158Y-117319976D01*
X73772577Y-117271313D01*
X73897596Y-117259000D01*
X73981204Y-117259000D01*
X74106223Y-117271313D01*
X74106223Y-117271313D01*
G37*
G36*
X42457823Y-117080813D02*
G01*
X42618242Y-117129476D01*
X42750906Y-117200386D01*
X42766078Y-117208496D01*
X42895659Y-117314841D01*
X43002004Y-117444422D01*
X43002005Y-117444424D01*
X43081024Y-117592258D01*
X43129687Y-117752677D01*
X43146117Y-117919500D01*
X43129687Y-118086323D01*
X43081024Y-118246742D01*
X43064945Y-118276823D01*
X43002004Y-118394578D01*
X42895659Y-118524159D01*
X42766078Y-118630504D01*
X42766076Y-118630505D01*
X42618242Y-118709524D01*
X42457823Y-118758187D01*
X42332804Y-118770500D01*
X42249196Y-118770500D01*
X42124177Y-118758187D01*
X41963758Y-118709524D01*
X41815924Y-118630505D01*
X41815922Y-118630504D01*
X41686341Y-118524159D01*
X41579996Y-118394578D01*
X41517055Y-118276823D01*
X41500976Y-118246742D01*
X41452313Y-118086323D01*
X41435883Y-117919500D01*
X41452313Y-117752677D01*
X41500976Y-117592258D01*
X41579995Y-117444424D01*
X41579996Y-117444422D01*
X41686341Y-117314841D01*
X41815922Y-117208496D01*
X41831094Y-117200386D01*
X41963758Y-117129476D01*
X42124177Y-117080813D01*
X42249196Y-117068500D01*
X42332804Y-117068500D01*
X42457823Y-117080813D01*
X42457823Y-117080813D01*
G37*
G36*
X57697823Y-117080813D02*
G01*
X57858242Y-117129476D01*
X57990906Y-117200386D01*
X58006078Y-117208496D01*
X58135659Y-117314841D01*
X58242004Y-117444422D01*
X58242005Y-117444424D01*
X58321024Y-117592258D01*
X58369687Y-117752677D01*
X58386117Y-117919500D01*
X58369687Y-118086323D01*
X58321024Y-118246742D01*
X58304945Y-118276823D01*
X58242004Y-118394578D01*
X58135659Y-118524159D01*
X58006078Y-118630504D01*
X58006076Y-118630505D01*
X57858242Y-118709524D01*
X57697823Y-118758187D01*
X57572804Y-118770500D01*
X57489196Y-118770500D01*
X57364177Y-118758187D01*
X57203758Y-118709524D01*
X57055924Y-118630505D01*
X57055922Y-118630504D01*
X56926341Y-118524159D01*
X56819996Y-118394578D01*
X56757055Y-118276823D01*
X56740976Y-118246742D01*
X56692313Y-118086323D01*
X56675883Y-117919500D01*
X56692313Y-117752677D01*
X56740976Y-117592258D01*
X56819995Y-117444424D01*
X56819996Y-117444422D01*
X56926341Y-117314841D01*
X57055922Y-117208496D01*
X57071094Y-117200386D01*
X57203758Y-117129476D01*
X57364177Y-117080813D01*
X57489196Y-117068500D01*
X57572804Y-117068500D01*
X57697823Y-117080813D01*
X57697823Y-117080813D01*
G37*
G36*
X57697823Y-114540813D02*
G01*
X57858242Y-114589476D01*
X57990906Y-114660386D01*
X58006078Y-114668496D01*
X58135659Y-114774841D01*
X58242004Y-114904422D01*
X58242005Y-114904424D01*
X58321024Y-115052258D01*
X58321025Y-115052261D01*
X58330083Y-115082120D01*
X58369687Y-115212677D01*
X58386117Y-115379500D01*
X58369687Y-115546323D01*
X58321024Y-115706742D01*
X58250114Y-115839406D01*
X58242004Y-115854578D01*
X58135659Y-115984159D01*
X58006078Y-116090504D01*
X58006076Y-116090505D01*
X57858242Y-116169524D01*
X57697823Y-116218187D01*
X57572804Y-116230500D01*
X57489196Y-116230500D01*
X57364177Y-116218187D01*
X57203758Y-116169524D01*
X57055924Y-116090505D01*
X57055922Y-116090504D01*
X56926341Y-115984159D01*
X56819996Y-115854578D01*
X56811886Y-115839406D01*
X56740976Y-115706742D01*
X56692313Y-115546323D01*
X56675883Y-115379500D01*
X56692313Y-115212677D01*
X56731917Y-115082120D01*
X56740975Y-115052261D01*
X56740976Y-115052258D01*
X56819995Y-114904424D01*
X56819996Y-114904422D01*
X56926341Y-114774841D01*
X57055922Y-114668496D01*
X57071094Y-114660386D01*
X57203758Y-114589476D01*
X57364177Y-114540813D01*
X57489196Y-114528500D01*
X57572804Y-114528500D01*
X57697823Y-114540813D01*
X57697823Y-114540813D01*
G37*
G36*
X42457823Y-114540813D02*
G01*
X42618242Y-114589476D01*
X42750906Y-114660386D01*
X42766078Y-114668496D01*
X42895659Y-114774841D01*
X43002004Y-114904422D01*
X43002005Y-114904424D01*
X43081024Y-115052258D01*
X43081025Y-115052261D01*
X43090083Y-115082120D01*
X43129687Y-115212677D01*
X43146117Y-115379500D01*
X43129687Y-115546323D01*
X43081024Y-115706742D01*
X43010114Y-115839406D01*
X43002004Y-115854578D01*
X42895659Y-115984159D01*
X42766078Y-116090504D01*
X42766076Y-116090505D01*
X42618242Y-116169524D01*
X42457823Y-116218187D01*
X42332804Y-116230500D01*
X42249196Y-116230500D01*
X42124177Y-116218187D01*
X41963758Y-116169524D01*
X41815924Y-116090505D01*
X41815922Y-116090504D01*
X41686341Y-115984159D01*
X41579996Y-115854578D01*
X41571886Y-115839406D01*
X41500976Y-115706742D01*
X41452313Y-115546323D01*
X41435883Y-115379500D01*
X41452313Y-115212677D01*
X41491917Y-115082120D01*
X41500975Y-115052261D01*
X41500976Y-115052258D01*
X41579995Y-114904424D01*
X41579996Y-114904422D01*
X41686341Y-114774841D01*
X41815922Y-114668496D01*
X41831094Y-114660386D01*
X41963758Y-114589476D01*
X42124177Y-114540813D01*
X42249196Y-114528500D01*
X42332804Y-114528500D01*
X42457823Y-114540813D01*
X42457823Y-114540813D01*
G37*
G36*
X42457823Y-112000813D02*
G01*
X42618242Y-112049476D01*
X42750906Y-112120386D01*
X42766078Y-112128496D01*
X42895659Y-112234841D01*
X43002004Y-112364422D01*
X43002005Y-112364424D01*
X43081024Y-112512258D01*
X43129687Y-112672677D01*
X43146117Y-112839500D01*
X43129687Y-113006323D01*
X43081024Y-113166742D01*
X43010114Y-113299406D01*
X43002004Y-113314578D01*
X42895659Y-113444159D01*
X42766078Y-113550504D01*
X42766076Y-113550505D01*
X42618242Y-113629524D01*
X42457823Y-113678187D01*
X42332804Y-113690500D01*
X42249196Y-113690500D01*
X42124177Y-113678187D01*
X41963758Y-113629524D01*
X41815924Y-113550505D01*
X41815922Y-113550504D01*
X41686341Y-113444159D01*
X41579996Y-113314578D01*
X41571886Y-113299406D01*
X41500976Y-113166742D01*
X41452313Y-113006323D01*
X41435883Y-112839500D01*
X41452313Y-112672677D01*
X41500976Y-112512258D01*
X41579995Y-112364424D01*
X41579996Y-112364422D01*
X41686341Y-112234841D01*
X41815922Y-112128496D01*
X41831094Y-112120386D01*
X41963758Y-112049476D01*
X42124177Y-112000813D01*
X42249196Y-111988500D01*
X42332804Y-111988500D01*
X42457823Y-112000813D01*
X42457823Y-112000813D01*
G37*
G36*
X57697823Y-112000813D02*
G01*
X57858242Y-112049476D01*
X57990906Y-112120386D01*
X58006078Y-112128496D01*
X58135659Y-112234841D01*
X58242004Y-112364422D01*
X58242005Y-112364424D01*
X58321024Y-112512258D01*
X58369687Y-112672677D01*
X58386117Y-112839500D01*
X58369687Y-113006323D01*
X58321024Y-113166742D01*
X58250114Y-113299406D01*
X58242004Y-113314578D01*
X58135659Y-113444159D01*
X58006078Y-113550504D01*
X58006076Y-113550505D01*
X57858242Y-113629524D01*
X57697823Y-113678187D01*
X57572804Y-113690500D01*
X57489196Y-113690500D01*
X57364177Y-113678187D01*
X57203758Y-113629524D01*
X57055924Y-113550505D01*
X57055922Y-113550504D01*
X56926341Y-113444159D01*
X56819996Y-113314578D01*
X56811886Y-113299406D01*
X56740976Y-113166742D01*
X56692313Y-113006323D01*
X56675883Y-112839500D01*
X56692313Y-112672677D01*
X56740976Y-112512258D01*
X56819995Y-112364424D01*
X56819996Y-112364422D01*
X56926341Y-112234841D01*
X57055922Y-112128496D01*
X57071094Y-112120386D01*
X57203758Y-112049476D01*
X57364177Y-112000813D01*
X57489196Y-111988500D01*
X57572804Y-111988500D01*
X57697823Y-112000813D01*
X57697823Y-112000813D01*
G37*
G36*
X42457823Y-109460813D02*
G01*
X42618242Y-109509476D01*
X42750906Y-109580386D01*
X42766078Y-109588496D01*
X42895659Y-109694841D01*
X43002004Y-109824422D01*
X43002005Y-109824424D01*
X43081024Y-109972258D01*
X43129687Y-110132677D01*
X43146117Y-110299500D01*
X43129687Y-110466323D01*
X43081024Y-110626742D01*
X43010114Y-110759406D01*
X43002004Y-110774578D01*
X42895659Y-110904159D01*
X42766078Y-111010504D01*
X42766076Y-111010505D01*
X42618242Y-111089524D01*
X42457823Y-111138187D01*
X42332804Y-111150500D01*
X42249196Y-111150500D01*
X42124177Y-111138187D01*
X41963758Y-111089524D01*
X41815924Y-111010505D01*
X41815922Y-111010504D01*
X41686341Y-110904159D01*
X41579996Y-110774578D01*
X41571886Y-110759406D01*
X41500976Y-110626742D01*
X41452313Y-110466323D01*
X41435883Y-110299500D01*
X41452313Y-110132677D01*
X41500976Y-109972258D01*
X41579995Y-109824424D01*
X41579996Y-109824422D01*
X41686341Y-109694841D01*
X41815922Y-109588496D01*
X41831094Y-109580386D01*
X41963758Y-109509476D01*
X42124177Y-109460813D01*
X42249196Y-109448500D01*
X42332804Y-109448500D01*
X42457823Y-109460813D01*
X42457823Y-109460813D01*
G37*
G36*
X57697823Y-109460813D02*
G01*
X57858242Y-109509476D01*
X57990906Y-109580386D01*
X58006078Y-109588496D01*
X58135659Y-109694841D01*
X58242004Y-109824422D01*
X58242005Y-109824424D01*
X58321024Y-109972258D01*
X58369687Y-110132677D01*
X58386117Y-110299500D01*
X58369687Y-110466323D01*
X58321024Y-110626742D01*
X58250114Y-110759406D01*
X58242004Y-110774578D01*
X58135659Y-110904159D01*
X58006078Y-111010504D01*
X58006076Y-111010505D01*
X57858242Y-111089524D01*
X57697823Y-111138187D01*
X57572804Y-111150500D01*
X57489196Y-111150500D01*
X57364177Y-111138187D01*
X57203758Y-111089524D01*
X57055924Y-111010505D01*
X57055922Y-111010504D01*
X56926341Y-110904159D01*
X56819996Y-110774578D01*
X56811886Y-110759406D01*
X56740976Y-110626742D01*
X56692313Y-110466323D01*
X56675883Y-110299500D01*
X56692313Y-110132677D01*
X56740976Y-109972258D01*
X56819995Y-109824424D01*
X56819996Y-109824422D01*
X56926341Y-109694841D01*
X57055922Y-109588496D01*
X57071094Y-109580386D01*
X57203758Y-109509476D01*
X57364177Y-109460813D01*
X57489196Y-109448500D01*
X57572804Y-109448500D01*
X57697823Y-109460813D01*
X57697823Y-109460813D01*
G37*
G36*
X89676423Y-107124013D02*
G01*
X89836842Y-107172676D01*
X89969506Y-107243586D01*
X89984678Y-107251696D01*
X90114259Y-107358041D01*
X90220604Y-107487622D01*
X90220605Y-107487624D01*
X90299624Y-107635458D01*
X90348287Y-107795877D01*
X90364717Y-107962700D01*
X90348287Y-108129523D01*
X90299624Y-108289942D01*
X90265867Y-108353097D01*
X90220604Y-108437778D01*
X90114259Y-108567359D01*
X89984678Y-108673704D01*
X89984676Y-108673705D01*
X89836842Y-108752724D01*
X89676423Y-108801387D01*
X89551404Y-108813700D01*
X89467796Y-108813700D01*
X89342777Y-108801387D01*
X89182358Y-108752724D01*
X89034524Y-108673705D01*
X89034522Y-108673704D01*
X88904941Y-108567359D01*
X88798596Y-108437778D01*
X88753333Y-108353097D01*
X88719576Y-108289942D01*
X88670913Y-108129523D01*
X88654483Y-107962700D01*
X88670913Y-107795877D01*
X88719576Y-107635458D01*
X88798595Y-107487624D01*
X88798596Y-107487622D01*
X88904941Y-107358041D01*
X89034522Y-107251696D01*
X89049694Y-107243586D01*
X89182358Y-107172676D01*
X89342777Y-107124013D01*
X89467796Y-107111700D01*
X89551404Y-107111700D01*
X89676423Y-107124013D01*
X89676423Y-107124013D01*
G37*
G36*
X86577623Y-107124013D02*
G01*
X86738042Y-107172676D01*
X86870706Y-107243586D01*
X86885878Y-107251696D01*
X87015459Y-107358041D01*
X87121804Y-107487622D01*
X87121805Y-107487624D01*
X87200824Y-107635458D01*
X87249487Y-107795877D01*
X87265917Y-107962700D01*
X87249487Y-108129523D01*
X87200824Y-108289942D01*
X87167067Y-108353097D01*
X87121804Y-108437778D01*
X87015459Y-108567359D01*
X86885878Y-108673704D01*
X86885876Y-108673705D01*
X86738042Y-108752724D01*
X86577623Y-108801387D01*
X86452604Y-108813700D01*
X86368996Y-108813700D01*
X86243977Y-108801387D01*
X86083558Y-108752724D01*
X85935724Y-108673705D01*
X85935722Y-108673704D01*
X85806141Y-108567359D01*
X85699796Y-108437778D01*
X85654533Y-108353097D01*
X85620776Y-108289942D01*
X85572113Y-108129523D01*
X85555683Y-107962700D01*
X85572113Y-107795877D01*
X85620776Y-107635458D01*
X85699795Y-107487624D01*
X85699796Y-107487622D01*
X85806141Y-107358041D01*
X85935722Y-107251696D01*
X85950894Y-107243586D01*
X86083558Y-107172676D01*
X86243977Y-107124013D01*
X86368996Y-107111700D01*
X86452604Y-107111700D01*
X86577623Y-107124013D01*
X86577623Y-107124013D01*
G37*
G36*
X83377223Y-107124013D02*
G01*
X83537642Y-107172676D01*
X83670306Y-107243586D01*
X83685478Y-107251696D01*
X83815059Y-107358041D01*
X83921404Y-107487622D01*
X83921405Y-107487624D01*
X84000424Y-107635458D01*
X84049087Y-107795877D01*
X84065517Y-107962700D01*
X84049087Y-108129523D01*
X84000424Y-108289942D01*
X83966667Y-108353097D01*
X83921404Y-108437778D01*
X83815059Y-108567359D01*
X83685478Y-108673704D01*
X83685476Y-108673705D01*
X83537642Y-108752724D01*
X83377223Y-108801387D01*
X83252204Y-108813700D01*
X83168596Y-108813700D01*
X83043577Y-108801387D01*
X82883158Y-108752724D01*
X82735324Y-108673705D01*
X82735322Y-108673704D01*
X82605741Y-108567359D01*
X82499396Y-108437778D01*
X82454133Y-108353097D01*
X82420376Y-108289942D01*
X82371713Y-108129523D01*
X82355283Y-107962700D01*
X82371713Y-107795877D01*
X82420376Y-107635458D01*
X82499395Y-107487624D01*
X82499396Y-107487622D01*
X82605741Y-107358041D01*
X82735322Y-107251696D01*
X82750494Y-107243586D01*
X82883158Y-107172676D01*
X83043577Y-107124013D01*
X83168596Y-107111700D01*
X83252204Y-107111700D01*
X83377223Y-107124013D01*
X83377223Y-107124013D01*
G37*
G36*
X77261028Y-107131703D02*
G01*
X77415900Y-107195853D01*
X77555281Y-107288985D01*
X77673815Y-107407519D01*
X77766947Y-107546900D01*
X77831097Y-107701772D01*
X77863800Y-107866184D01*
X77863800Y-108033816D01*
X77831097Y-108198228D01*
X77766947Y-108353100D01*
X77673815Y-108492481D01*
X77555281Y-108611015D01*
X77415900Y-108704147D01*
X77261028Y-108768297D01*
X77096616Y-108801000D01*
X76928984Y-108801000D01*
X76764572Y-108768297D01*
X76609700Y-108704147D01*
X76470319Y-108611015D01*
X76351785Y-108492481D01*
X76258653Y-108353100D01*
X76194503Y-108198228D01*
X76161800Y-108033816D01*
X76161800Y-107866184D01*
X76194503Y-107701772D01*
X76258653Y-107546900D01*
X76351785Y-107407519D01*
X76470319Y-107288985D01*
X76609700Y-107195853D01*
X76764572Y-107131703D01*
X76928984Y-107099000D01*
X77096616Y-107099000D01*
X77261028Y-107131703D01*
X77261028Y-107131703D01*
G37*
G36*
X80334428Y-107131703D02*
G01*
X80489300Y-107195853D01*
X80628681Y-107288985D01*
X80747215Y-107407519D01*
X80840347Y-107546900D01*
X80904497Y-107701772D01*
X80937200Y-107866184D01*
X80937200Y-108033816D01*
X80904497Y-108198228D01*
X80840347Y-108353100D01*
X80747215Y-108492481D01*
X80628681Y-108611015D01*
X80489300Y-108704147D01*
X80334428Y-108768297D01*
X80170016Y-108801000D01*
X80002384Y-108801000D01*
X79837972Y-108768297D01*
X79683100Y-108704147D01*
X79543719Y-108611015D01*
X79425185Y-108492481D01*
X79332053Y-108353100D01*
X79267903Y-108198228D01*
X79235200Y-108033816D01*
X79235200Y-107866184D01*
X79267903Y-107701772D01*
X79332053Y-107546900D01*
X79425185Y-107407519D01*
X79543719Y-107288985D01*
X79683100Y-107195853D01*
X79837972Y-107131703D01*
X80002384Y-107099000D01*
X80170016Y-107099000D01*
X80334428Y-107131703D01*
X80334428Y-107131703D01*
G37*
G36*
X74187628Y-107131703D02*
G01*
X74342500Y-107195853D01*
X74481881Y-107288985D01*
X74600415Y-107407519D01*
X74693547Y-107546900D01*
X74757697Y-107701772D01*
X74790400Y-107866184D01*
X74790400Y-108033816D01*
X74757697Y-108198228D01*
X74693547Y-108353100D01*
X74600415Y-108492481D01*
X74481881Y-108611015D01*
X74342500Y-108704147D01*
X74187628Y-108768297D01*
X74023216Y-108801000D01*
X73855584Y-108801000D01*
X73691172Y-108768297D01*
X73536300Y-108704147D01*
X73396919Y-108611015D01*
X73278385Y-108492481D01*
X73185253Y-108353100D01*
X73121103Y-108198228D01*
X73088400Y-108033816D01*
X73088400Y-107866184D01*
X73121103Y-107701772D01*
X73185253Y-107546900D01*
X73278385Y-107407519D01*
X73396919Y-107288985D01*
X73536300Y-107195853D01*
X73691172Y-107131703D01*
X73855584Y-107099000D01*
X74023216Y-107099000D01*
X74187628Y-107131703D01*
X74187628Y-107131703D01*
G37*
G36*
X42457823Y-106920813D02*
G01*
X42618242Y-106969476D01*
X42750906Y-107040386D01*
X42766078Y-107048496D01*
X42895659Y-107154841D01*
X43002004Y-107284422D01*
X43002005Y-107284424D01*
X43081024Y-107432258D01*
X43129687Y-107592677D01*
X43146117Y-107759500D01*
X43129687Y-107926323D01*
X43081024Y-108086742D01*
X43058157Y-108129523D01*
X43002004Y-108234578D01*
X42895659Y-108364159D01*
X42766078Y-108470504D01*
X42766076Y-108470505D01*
X42618242Y-108549524D01*
X42457823Y-108598187D01*
X42332804Y-108610500D01*
X42249196Y-108610500D01*
X42124177Y-108598187D01*
X41963758Y-108549524D01*
X41815924Y-108470505D01*
X41815922Y-108470504D01*
X41686341Y-108364159D01*
X41579996Y-108234578D01*
X41523843Y-108129523D01*
X41500976Y-108086742D01*
X41452313Y-107926323D01*
X41435883Y-107759500D01*
X41452313Y-107592677D01*
X41500976Y-107432258D01*
X41579995Y-107284424D01*
X41579996Y-107284422D01*
X41686341Y-107154841D01*
X41815922Y-107048496D01*
X41831094Y-107040386D01*
X41963758Y-106969476D01*
X42124177Y-106920813D01*
X42249196Y-106908500D01*
X42332804Y-106908500D01*
X42457823Y-106920813D01*
X42457823Y-106920813D01*
G37*
G36*
X57697823Y-106920813D02*
G01*
X57858242Y-106969476D01*
X57990906Y-107040386D01*
X58006078Y-107048496D01*
X58135659Y-107154841D01*
X58242004Y-107284422D01*
X58242005Y-107284424D01*
X58321024Y-107432258D01*
X58369687Y-107592677D01*
X58386117Y-107759500D01*
X58369687Y-107926323D01*
X58321024Y-108086742D01*
X58298157Y-108129523D01*
X58242004Y-108234578D01*
X58135659Y-108364159D01*
X58006078Y-108470504D01*
X58006076Y-108470505D01*
X57858242Y-108549524D01*
X57697823Y-108598187D01*
X57572804Y-108610500D01*
X57489196Y-108610500D01*
X57364177Y-108598187D01*
X57203758Y-108549524D01*
X57055924Y-108470505D01*
X57055922Y-108470504D01*
X56926341Y-108364159D01*
X56819996Y-108234578D01*
X56763843Y-108129523D01*
X56740976Y-108086742D01*
X56692313Y-107926323D01*
X56675883Y-107759500D01*
X56692313Y-107592677D01*
X56740976Y-107432258D01*
X56819995Y-107284424D01*
X56819996Y-107284422D01*
X56926341Y-107154841D01*
X57055922Y-107048496D01*
X57071094Y-107040386D01*
X57203758Y-106969476D01*
X57364177Y-106920813D01*
X57489196Y-106908500D01*
X57572804Y-106908500D01*
X57697823Y-106920813D01*
X57697823Y-106920813D01*
G37*
G36*
X42457823Y-104380813D02*
G01*
X42618242Y-104429476D01*
X42750906Y-104500386D01*
X42766078Y-104508496D01*
X42895659Y-104614841D01*
X43002004Y-104744422D01*
X43002005Y-104744424D01*
X43081024Y-104892258D01*
X43129687Y-105052677D01*
X43146117Y-105219500D01*
X43129687Y-105386323D01*
X43081024Y-105546742D01*
X43010114Y-105679406D01*
X43002004Y-105694578D01*
X42895659Y-105824159D01*
X42766078Y-105930504D01*
X42766076Y-105930505D01*
X42618242Y-106009524D01*
X42457823Y-106058187D01*
X42332804Y-106070500D01*
X42249196Y-106070500D01*
X42124177Y-106058187D01*
X41963758Y-106009524D01*
X41815924Y-105930505D01*
X41815922Y-105930504D01*
X41686341Y-105824159D01*
X41579996Y-105694578D01*
X41571886Y-105679406D01*
X41500976Y-105546742D01*
X41452313Y-105386323D01*
X41435883Y-105219500D01*
X41452313Y-105052677D01*
X41500976Y-104892258D01*
X41579995Y-104744424D01*
X41579996Y-104744422D01*
X41686341Y-104614841D01*
X41815922Y-104508496D01*
X41831094Y-104500386D01*
X41963758Y-104429476D01*
X42124177Y-104380813D01*
X42249196Y-104368500D01*
X42332804Y-104368500D01*
X42457823Y-104380813D01*
X42457823Y-104380813D01*
G37*
G36*
X57697823Y-104380813D02*
G01*
X57858242Y-104429476D01*
X57990906Y-104500386D01*
X58006078Y-104508496D01*
X58135659Y-104614841D01*
X58242004Y-104744422D01*
X58242005Y-104744424D01*
X58321024Y-104892258D01*
X58369687Y-105052677D01*
X58386117Y-105219500D01*
X58369687Y-105386323D01*
X58321024Y-105546742D01*
X58250114Y-105679406D01*
X58242004Y-105694578D01*
X58135659Y-105824159D01*
X58006078Y-105930504D01*
X58006076Y-105930505D01*
X57858242Y-106009524D01*
X57697823Y-106058187D01*
X57572804Y-106070500D01*
X57489196Y-106070500D01*
X57364177Y-106058187D01*
X57203758Y-106009524D01*
X57055924Y-105930505D01*
X57055922Y-105930504D01*
X56926341Y-105824159D01*
X56819996Y-105694578D01*
X56811886Y-105679406D01*
X56740976Y-105546742D01*
X56692313Y-105386323D01*
X56675883Y-105219500D01*
X56692313Y-105052677D01*
X56740976Y-104892258D01*
X56819995Y-104744424D01*
X56819996Y-104744422D01*
X56926341Y-104614841D01*
X57055922Y-104508496D01*
X57071094Y-104500386D01*
X57203758Y-104429476D01*
X57364177Y-104380813D01*
X57489196Y-104368500D01*
X57572804Y-104368500D01*
X57697823Y-104380813D01*
X57697823Y-104380813D01*
G37*
G36*
X81858428Y-101899303D02*
G01*
X82013300Y-101963453D01*
X82152681Y-102056585D01*
X82271215Y-102175119D01*
X82364347Y-102314500D01*
X82428497Y-102469372D01*
X82461200Y-102633784D01*
X82461200Y-102801416D01*
X82428497Y-102965828D01*
X82364347Y-103120700D01*
X82271215Y-103260081D01*
X82152681Y-103378615D01*
X82013300Y-103471747D01*
X81858428Y-103535897D01*
X81694016Y-103568600D01*
X81526384Y-103568600D01*
X81361972Y-103535897D01*
X81207100Y-103471747D01*
X81067719Y-103378615D01*
X80949185Y-103260081D01*
X80856053Y-103120700D01*
X80791903Y-102965828D01*
X80759200Y-102801416D01*
X80759200Y-102633784D01*
X80791903Y-102469372D01*
X80856053Y-102314500D01*
X80949185Y-102175119D01*
X81067719Y-102056585D01*
X81207100Y-101963453D01*
X81361972Y-101899303D01*
X81526384Y-101866600D01*
X81694016Y-101866600D01*
X81858428Y-101899303D01*
X81858428Y-101899303D01*
G37*
G36*
X86858428Y-101899303D02*
G01*
X87013300Y-101963453D01*
X87152681Y-102056585D01*
X87271215Y-102175119D01*
X87364347Y-102314500D01*
X87428497Y-102469372D01*
X87461200Y-102633784D01*
X87461200Y-102801416D01*
X87428497Y-102965828D01*
X87364347Y-103120700D01*
X87271215Y-103260081D01*
X87152681Y-103378615D01*
X87013300Y-103471747D01*
X86858428Y-103535897D01*
X86694016Y-103568600D01*
X86526384Y-103568600D01*
X86361972Y-103535897D01*
X86207100Y-103471747D01*
X86067719Y-103378615D01*
X85949185Y-103260081D01*
X85856053Y-103120700D01*
X85791903Y-102965828D01*
X85759200Y-102801416D01*
X85759200Y-102633784D01*
X85791903Y-102469372D01*
X85856053Y-102314500D01*
X85949185Y-102175119D01*
X86067719Y-102056585D01*
X86207100Y-101963453D01*
X86361972Y-101899303D01*
X86526384Y-101866600D01*
X86694016Y-101866600D01*
X86858428Y-101899303D01*
X86858428Y-101899303D01*
G37*
G36*
X42457823Y-101840813D02*
G01*
X42618242Y-101889476D01*
X42750906Y-101960386D01*
X42766078Y-101968496D01*
X42895659Y-102074841D01*
X43002004Y-102204422D01*
X43002005Y-102204424D01*
X43081024Y-102352258D01*
X43129687Y-102512677D01*
X43146117Y-102679500D01*
X43129687Y-102846323D01*
X43081024Y-103006742D01*
X43061462Y-103043340D01*
X43002004Y-103154578D01*
X42895659Y-103284159D01*
X42766078Y-103390504D01*
X42766076Y-103390505D01*
X42618242Y-103469524D01*
X42457823Y-103518187D01*
X42332804Y-103530500D01*
X42249196Y-103530500D01*
X42124177Y-103518187D01*
X41963758Y-103469524D01*
X41815924Y-103390505D01*
X41815922Y-103390504D01*
X41686341Y-103284159D01*
X41579996Y-103154578D01*
X41520538Y-103043340D01*
X41500976Y-103006742D01*
X41452313Y-102846323D01*
X41435883Y-102679500D01*
X41452313Y-102512677D01*
X41500976Y-102352258D01*
X41579995Y-102204424D01*
X41579996Y-102204422D01*
X41686341Y-102074841D01*
X41815922Y-101968496D01*
X41831094Y-101960386D01*
X41963758Y-101889476D01*
X42124177Y-101840813D01*
X42249196Y-101828500D01*
X42332804Y-101828500D01*
X42457823Y-101840813D01*
X42457823Y-101840813D01*
G37*
G36*
X57697823Y-101840813D02*
G01*
X57858242Y-101889476D01*
X57990906Y-101960386D01*
X58006078Y-101968496D01*
X58135659Y-102074841D01*
X58242004Y-102204422D01*
X58242005Y-102204424D01*
X58321024Y-102352258D01*
X58369687Y-102512677D01*
X58386117Y-102679500D01*
X58369687Y-102846323D01*
X58321024Y-103006742D01*
X58301462Y-103043340D01*
X58242004Y-103154578D01*
X58135659Y-103284159D01*
X58006078Y-103390504D01*
X58006076Y-103390505D01*
X57858242Y-103469524D01*
X57697823Y-103518187D01*
X57572804Y-103530500D01*
X57489196Y-103530500D01*
X57364177Y-103518187D01*
X57203758Y-103469524D01*
X57055924Y-103390505D01*
X57055922Y-103390504D01*
X56926341Y-103284159D01*
X56819996Y-103154578D01*
X56760538Y-103043340D01*
X56740976Y-103006742D01*
X56692313Y-102846323D01*
X56675883Y-102679500D01*
X56692313Y-102512677D01*
X56740976Y-102352258D01*
X56819995Y-102204424D01*
X56819996Y-102204422D01*
X56926341Y-102074841D01*
X57055922Y-101968496D01*
X57071094Y-101960386D01*
X57203758Y-101889476D01*
X57364177Y-101840813D01*
X57489196Y-101828500D01*
X57572804Y-101828500D01*
X57697823Y-101840813D01*
X57697823Y-101840813D01*
G37*
G36*
X61941059Y-101737860D02*
G01*
X62077732Y-101794472D01*
X62200735Y-101876660D01*
X62305340Y-101981265D01*
X62387528Y-102104268D01*
X62387529Y-102104270D01*
X62444140Y-102240941D01*
X62466283Y-102352261D01*
X62473000Y-102386033D01*
X62473000Y-102533967D01*
X62444140Y-102679059D01*
X62387528Y-102815732D01*
X62305340Y-102938735D01*
X62200735Y-103043340D01*
X62077732Y-103125528D01*
X62077731Y-103125529D01*
X62077730Y-103125529D01*
X61941059Y-103182140D01*
X61795968Y-103211000D01*
X61648032Y-103211000D01*
X61502941Y-103182140D01*
X61366270Y-103125529D01*
X61366269Y-103125529D01*
X61366268Y-103125528D01*
X61243265Y-103043340D01*
X61138660Y-102938735D01*
X61056472Y-102815732D01*
X60999860Y-102679059D01*
X60971000Y-102533967D01*
X60971000Y-102386033D01*
X60977718Y-102352261D01*
X60999860Y-102240941D01*
X61056471Y-102104270D01*
X61056472Y-102104268D01*
X61138660Y-101981265D01*
X61243265Y-101876660D01*
X61366268Y-101794472D01*
X61502941Y-101737860D01*
X61648032Y-101709000D01*
X61795968Y-101709000D01*
X61941059Y-101737860D01*
X61941059Y-101737860D01*
G37*
G36*
X74541059Y-101737860D02*
G01*
X74677732Y-101794472D01*
X74800735Y-101876660D01*
X74905340Y-101981265D01*
X74987528Y-102104268D01*
X74987529Y-102104270D01*
X75044140Y-102240941D01*
X75066283Y-102352261D01*
X75073000Y-102386033D01*
X75073000Y-102533967D01*
X75044140Y-102679059D01*
X74987528Y-102815732D01*
X74905340Y-102938735D01*
X74800735Y-103043340D01*
X74677732Y-103125528D01*
X74677731Y-103125529D01*
X74677730Y-103125529D01*
X74541059Y-103182140D01*
X74395968Y-103211000D01*
X74248032Y-103211000D01*
X74102941Y-103182140D01*
X73966270Y-103125529D01*
X73966269Y-103125529D01*
X73966268Y-103125528D01*
X73843265Y-103043340D01*
X73738660Y-102938735D01*
X73656472Y-102815732D01*
X73599860Y-102679059D01*
X73571000Y-102533967D01*
X73571000Y-102386033D01*
X73577718Y-102352261D01*
X73599860Y-102240941D01*
X73656471Y-102104270D01*
X73656472Y-102104268D01*
X73738660Y-101981265D01*
X73843265Y-101876660D01*
X73966268Y-101794472D01*
X74102941Y-101737860D01*
X74248032Y-101709000D01*
X74395968Y-101709000D01*
X74541059Y-101737860D01*
X74541059Y-101737860D01*
G37*
G36*
X61941059Y-99957860D02*
G01*
X61976826Y-99972675D01*
X62077732Y-100014472D01*
X62200735Y-100096660D01*
X62305340Y-100201265D01*
X62375539Y-100306325D01*
X62387529Y-100324270D01*
X62444140Y-100460941D01*
X62473000Y-100606032D01*
X62473000Y-100753968D01*
X62444140Y-100899059D01*
X62411365Y-100978186D01*
X62387528Y-101035732D01*
X62305340Y-101158735D01*
X62200735Y-101263340D01*
X62077732Y-101345528D01*
X62077731Y-101345529D01*
X62077730Y-101345529D01*
X61941059Y-101402140D01*
X61795968Y-101431000D01*
X61648032Y-101431000D01*
X61502941Y-101402140D01*
X61366270Y-101345529D01*
X61366269Y-101345529D01*
X61366268Y-101345528D01*
X61243265Y-101263340D01*
X61138660Y-101158735D01*
X61056472Y-101035732D01*
X61032636Y-100978186D01*
X60999860Y-100899059D01*
X60971000Y-100753968D01*
X60971000Y-100606032D01*
X60999860Y-100460941D01*
X61056471Y-100324270D01*
X61068461Y-100306325D01*
X61138660Y-100201265D01*
X61243265Y-100096660D01*
X61366268Y-100014472D01*
X61467175Y-99972675D01*
X61502941Y-99957860D01*
X61648032Y-99929000D01*
X61795968Y-99929000D01*
X61941059Y-99957860D01*
X61941059Y-99957860D01*
G37*
G36*
X74541059Y-99957860D02*
G01*
X74576826Y-99972675D01*
X74677732Y-100014472D01*
X74800735Y-100096660D01*
X74905340Y-100201265D01*
X74975539Y-100306325D01*
X74987529Y-100324270D01*
X75044140Y-100460941D01*
X75073000Y-100606032D01*
X75073000Y-100753968D01*
X75044140Y-100899059D01*
X75011365Y-100978186D01*
X74987528Y-101035732D01*
X74905340Y-101158735D01*
X74800735Y-101263340D01*
X74677732Y-101345528D01*
X74677731Y-101345529D01*
X74677730Y-101345529D01*
X74541059Y-101402140D01*
X74395968Y-101431000D01*
X74248032Y-101431000D01*
X74102941Y-101402140D01*
X73966270Y-101345529D01*
X73966269Y-101345529D01*
X73966268Y-101345528D01*
X73843265Y-101263340D01*
X73738660Y-101158735D01*
X73656472Y-101035732D01*
X73632636Y-100978186D01*
X73599860Y-100899059D01*
X73571000Y-100753968D01*
X73571000Y-100606032D01*
X73599860Y-100460941D01*
X73656471Y-100324270D01*
X73668461Y-100306325D01*
X73738660Y-100201265D01*
X73843265Y-100096660D01*
X73966268Y-100014472D01*
X74067175Y-99972675D01*
X74102941Y-99957860D01*
X74248032Y-99929000D01*
X74395968Y-99929000D01*
X74541059Y-99957860D01*
X74541059Y-99957860D01*
G37*
G36*
X42457823Y-99300813D02*
G01*
X42618242Y-99349476D01*
X42750906Y-99420386D01*
X42766078Y-99428496D01*
X42895659Y-99534841D01*
X43002004Y-99664422D01*
X43002005Y-99664424D01*
X43081024Y-99812258D01*
X43129687Y-99972677D01*
X43146117Y-100139500D01*
X43129687Y-100306323D01*
X43081024Y-100466742D01*
X43010114Y-100599406D01*
X43002004Y-100614578D01*
X42895659Y-100744159D01*
X42766078Y-100850504D01*
X42766076Y-100850505D01*
X42618242Y-100929524D01*
X42457823Y-100978187D01*
X42332804Y-100990500D01*
X42249196Y-100990500D01*
X42124177Y-100978187D01*
X41963758Y-100929524D01*
X41815924Y-100850505D01*
X41815922Y-100850504D01*
X41686341Y-100744159D01*
X41579996Y-100614578D01*
X41571886Y-100599406D01*
X41500976Y-100466742D01*
X41452313Y-100306323D01*
X41435883Y-100139500D01*
X41452313Y-99972677D01*
X41500976Y-99812258D01*
X41579995Y-99664424D01*
X41579996Y-99664422D01*
X41686341Y-99534841D01*
X41815922Y-99428496D01*
X41831094Y-99420386D01*
X41963758Y-99349476D01*
X42124177Y-99300813D01*
X42249196Y-99288500D01*
X42332804Y-99288500D01*
X42457823Y-99300813D01*
X42457823Y-99300813D01*
G37*
G36*
X57697823Y-99300813D02*
G01*
X57858242Y-99349476D01*
X57990906Y-99420386D01*
X58006078Y-99428496D01*
X58135659Y-99534841D01*
X58242004Y-99664422D01*
X58242005Y-99664424D01*
X58321024Y-99812258D01*
X58369687Y-99972677D01*
X58386117Y-100139500D01*
X58369687Y-100306323D01*
X58321024Y-100466742D01*
X58250114Y-100599406D01*
X58242004Y-100614578D01*
X58135659Y-100744159D01*
X58006078Y-100850504D01*
X58006076Y-100850505D01*
X57858242Y-100929524D01*
X57697823Y-100978187D01*
X57572804Y-100990500D01*
X57489196Y-100990500D01*
X57364177Y-100978187D01*
X57203758Y-100929524D01*
X57055924Y-100850505D01*
X57055922Y-100850504D01*
X56926341Y-100744159D01*
X56819996Y-100614578D01*
X56811886Y-100599406D01*
X56740976Y-100466742D01*
X56692313Y-100306323D01*
X56675883Y-100139500D01*
X56692313Y-99972677D01*
X56740976Y-99812258D01*
X56819995Y-99664424D01*
X56819996Y-99664422D01*
X56926341Y-99534841D01*
X57055922Y-99428496D01*
X57071094Y-99420386D01*
X57203758Y-99349476D01*
X57364177Y-99300813D01*
X57489196Y-99288500D01*
X57572804Y-99288500D01*
X57697823Y-99300813D01*
X57697823Y-99300813D01*
G37*
G36*
X81858428Y-98825903D02*
G01*
X82013300Y-98890053D01*
X82152681Y-98983185D01*
X82271215Y-99101719D01*
X82364347Y-99241100D01*
X82428497Y-99395972D01*
X82461200Y-99560384D01*
X82461200Y-99728016D01*
X82428497Y-99892428D01*
X82364347Y-100047300D01*
X82271215Y-100186681D01*
X82152681Y-100305215D01*
X82013300Y-100398347D01*
X81858428Y-100462497D01*
X81694016Y-100495200D01*
X81526384Y-100495200D01*
X81361972Y-100462497D01*
X81207100Y-100398347D01*
X81067719Y-100305215D01*
X80949185Y-100186681D01*
X80856053Y-100047300D01*
X80791903Y-99892428D01*
X80759200Y-99728016D01*
X80759200Y-99560384D01*
X80791903Y-99395972D01*
X80856053Y-99241100D01*
X80949185Y-99101719D01*
X81067719Y-98983185D01*
X81207100Y-98890053D01*
X81361972Y-98825903D01*
X81526384Y-98793200D01*
X81694016Y-98793200D01*
X81858428Y-98825903D01*
X81858428Y-98825903D01*
G37*
G36*
X86858428Y-98825903D02*
G01*
X87013300Y-98890053D01*
X87152681Y-98983185D01*
X87271215Y-99101719D01*
X87364347Y-99241100D01*
X87428497Y-99395972D01*
X87461200Y-99560384D01*
X87461200Y-99728016D01*
X87428497Y-99892428D01*
X87364347Y-100047300D01*
X87271215Y-100186681D01*
X87152681Y-100305215D01*
X87013300Y-100398347D01*
X86858428Y-100462497D01*
X86694016Y-100495200D01*
X86526384Y-100495200D01*
X86361972Y-100462497D01*
X86207100Y-100398347D01*
X86067719Y-100305215D01*
X85949185Y-100186681D01*
X85856053Y-100047300D01*
X85791903Y-99892428D01*
X85759200Y-99728016D01*
X85759200Y-99560384D01*
X85791903Y-99395972D01*
X85856053Y-99241100D01*
X85949185Y-99101719D01*
X86067719Y-98983185D01*
X86207100Y-98890053D01*
X86361972Y-98825903D01*
X86526384Y-98793200D01*
X86694016Y-98793200D01*
X86858428Y-98825903D01*
X86858428Y-98825903D01*
G37*
G36*
X61941059Y-98177860D02*
G01*
X62077732Y-98234472D01*
X62200735Y-98316660D01*
X62305340Y-98421265D01*
X62305341Y-98421267D01*
X62387529Y-98544270D01*
X62444140Y-98680941D01*
X62473000Y-98826032D01*
X62473000Y-98973968D01*
X62447589Y-99101719D01*
X62444140Y-99119059D01*
X62387528Y-99255732D01*
X62305340Y-99378735D01*
X62200735Y-99483340D01*
X62077732Y-99565528D01*
X62077731Y-99565529D01*
X62077730Y-99565529D01*
X61941059Y-99622140D01*
X61795968Y-99651000D01*
X61648032Y-99651000D01*
X61502941Y-99622140D01*
X61366270Y-99565529D01*
X61366269Y-99565529D01*
X61366268Y-99565528D01*
X61243265Y-99483340D01*
X61138660Y-99378735D01*
X61056472Y-99255732D01*
X60999860Y-99119059D01*
X60996411Y-99101719D01*
X60971000Y-98973968D01*
X60971000Y-98826032D01*
X60999860Y-98680941D01*
X61056471Y-98544270D01*
X61138659Y-98421267D01*
X61138660Y-98421265D01*
X61243265Y-98316660D01*
X61366268Y-98234472D01*
X61502941Y-98177860D01*
X61648032Y-98149000D01*
X61795968Y-98149000D01*
X61941059Y-98177860D01*
X61941059Y-98177860D01*
G37*
G36*
X74541059Y-98177860D02*
G01*
X74677732Y-98234472D01*
X74800735Y-98316660D01*
X74905340Y-98421265D01*
X74905341Y-98421267D01*
X74987529Y-98544270D01*
X75044140Y-98680941D01*
X75073000Y-98826032D01*
X75073000Y-98973968D01*
X75047589Y-99101719D01*
X75044140Y-99119059D01*
X74987528Y-99255732D01*
X74905340Y-99378735D01*
X74800735Y-99483340D01*
X74677732Y-99565528D01*
X74677731Y-99565529D01*
X74677730Y-99565529D01*
X74541059Y-99622140D01*
X74395968Y-99651000D01*
X74248032Y-99651000D01*
X74102941Y-99622140D01*
X73966270Y-99565529D01*
X73966269Y-99565529D01*
X73966268Y-99565528D01*
X73843265Y-99483340D01*
X73738660Y-99378735D01*
X73656472Y-99255732D01*
X73599860Y-99119059D01*
X73596411Y-99101719D01*
X73571000Y-98973968D01*
X73571000Y-98826032D01*
X73599860Y-98680941D01*
X73656471Y-98544270D01*
X73738659Y-98421267D01*
X73738660Y-98421265D01*
X73843265Y-98316660D01*
X73966268Y-98234472D01*
X74102941Y-98177860D01*
X74248032Y-98149000D01*
X74395968Y-98149000D01*
X74541059Y-98177860D01*
X74541059Y-98177860D01*
G37*
G36*
X42457823Y-96760813D02*
G01*
X42618242Y-96809476D01*
X42731154Y-96869829D01*
X42766078Y-96888496D01*
X42895659Y-96994841D01*
X43002004Y-97124422D01*
X43002005Y-97124424D01*
X43081024Y-97272258D01*
X43129687Y-97432677D01*
X43146117Y-97599500D01*
X43129687Y-97766323D01*
X43081024Y-97926742D01*
X43010114Y-98059406D01*
X43002004Y-98074578D01*
X42895659Y-98204159D01*
X42766078Y-98310504D01*
X42766076Y-98310505D01*
X42618242Y-98389524D01*
X42457823Y-98438187D01*
X42332804Y-98450500D01*
X42249196Y-98450500D01*
X42124177Y-98438187D01*
X41963758Y-98389524D01*
X41815924Y-98310505D01*
X41815922Y-98310504D01*
X41686341Y-98204159D01*
X41579996Y-98074578D01*
X41571886Y-98059406D01*
X41500976Y-97926742D01*
X41452313Y-97766323D01*
X41435883Y-97599500D01*
X41452313Y-97432677D01*
X41500976Y-97272258D01*
X41579995Y-97124424D01*
X41579996Y-97124422D01*
X41686341Y-96994841D01*
X41815922Y-96888496D01*
X41850846Y-96869829D01*
X41963758Y-96809476D01*
X42124177Y-96760813D01*
X42249196Y-96748500D01*
X42332804Y-96748500D01*
X42457823Y-96760813D01*
X42457823Y-96760813D01*
G37*
G36*
X57697823Y-96760813D02*
G01*
X57858242Y-96809476D01*
X57971154Y-96869829D01*
X58006078Y-96888496D01*
X58135659Y-96994841D01*
X58242004Y-97124422D01*
X58242005Y-97124424D01*
X58321024Y-97272258D01*
X58369687Y-97432677D01*
X58386117Y-97599500D01*
X58369687Y-97766323D01*
X58321024Y-97926742D01*
X58250114Y-98059406D01*
X58242004Y-98074578D01*
X58135659Y-98204159D01*
X58006078Y-98310504D01*
X58006076Y-98310505D01*
X57858242Y-98389524D01*
X57697823Y-98438187D01*
X57572804Y-98450500D01*
X57489196Y-98450500D01*
X57364177Y-98438187D01*
X57203758Y-98389524D01*
X57055924Y-98310505D01*
X57055922Y-98310504D01*
X56926341Y-98204159D01*
X56819996Y-98074578D01*
X56811886Y-98059406D01*
X56740976Y-97926742D01*
X56692313Y-97766323D01*
X56675883Y-97599500D01*
X56692313Y-97432677D01*
X56740976Y-97272258D01*
X56819995Y-97124424D01*
X56819996Y-97124422D01*
X56926341Y-96994841D01*
X57055922Y-96888496D01*
X57090846Y-96869829D01*
X57203758Y-96809476D01*
X57364177Y-96760813D01*
X57489196Y-96748500D01*
X57572804Y-96748500D01*
X57697823Y-96760813D01*
X57697823Y-96760813D01*
G37*
G36*
X74541059Y-96397860D02*
G01*
X74677732Y-96454472D01*
X74800735Y-96536660D01*
X74905340Y-96641265D01*
X74948204Y-96705416D01*
X74987529Y-96764270D01*
X75044140Y-96900941D01*
X75073000Y-97046032D01*
X75073000Y-97193968D01*
X75044140Y-97339059D01*
X75002372Y-97439897D01*
X74987528Y-97475732D01*
X74905340Y-97598735D01*
X74800735Y-97703340D01*
X74677732Y-97785528D01*
X74677731Y-97785529D01*
X74677730Y-97785529D01*
X74541059Y-97842140D01*
X74395968Y-97871000D01*
X74248032Y-97871000D01*
X74102941Y-97842140D01*
X73966270Y-97785529D01*
X73966269Y-97785529D01*
X73966268Y-97785528D01*
X73843265Y-97703340D01*
X73738660Y-97598735D01*
X73656472Y-97475732D01*
X73641629Y-97439897D01*
X73599860Y-97339059D01*
X73571000Y-97193968D01*
X73571000Y-97046032D01*
X73599860Y-96900941D01*
X73656471Y-96764270D01*
X73695796Y-96705416D01*
X73738660Y-96641265D01*
X73843265Y-96536660D01*
X73966268Y-96454472D01*
X74102941Y-96397860D01*
X74248032Y-96369000D01*
X74395968Y-96369000D01*
X74541059Y-96397860D01*
X74541059Y-96397860D01*
G37*
G36*
X61941059Y-96397860D02*
G01*
X62077732Y-96454472D01*
X62200735Y-96536660D01*
X62305340Y-96641265D01*
X62348204Y-96705416D01*
X62387529Y-96764270D01*
X62444140Y-96900941D01*
X62473000Y-97046032D01*
X62473000Y-97193968D01*
X62444140Y-97339059D01*
X62402372Y-97439897D01*
X62387528Y-97475732D01*
X62305340Y-97598735D01*
X62200735Y-97703340D01*
X62077732Y-97785528D01*
X62077731Y-97785529D01*
X62077730Y-97785529D01*
X61941059Y-97842140D01*
X61795968Y-97871000D01*
X61648032Y-97871000D01*
X61502941Y-97842140D01*
X61366270Y-97785529D01*
X61366269Y-97785529D01*
X61366268Y-97785528D01*
X61243265Y-97703340D01*
X61138660Y-97598735D01*
X61056472Y-97475732D01*
X61041629Y-97439897D01*
X60999860Y-97339059D01*
X60971000Y-97193968D01*
X60971000Y-97046032D01*
X60999860Y-96900941D01*
X61056471Y-96764270D01*
X61095796Y-96705416D01*
X61138660Y-96641265D01*
X61243265Y-96536660D01*
X61366268Y-96454472D01*
X61502941Y-96397860D01*
X61648032Y-96369000D01*
X61795968Y-96369000D01*
X61941059Y-96397860D01*
X61941059Y-96397860D01*
G37*
G36*
X86862228Y-95803303D02*
G01*
X87017100Y-95867453D01*
X87156481Y-95960585D01*
X87275015Y-96079119D01*
X87368147Y-96218500D01*
X87432297Y-96373372D01*
X87465000Y-96537784D01*
X87465000Y-96705416D01*
X87432297Y-96869828D01*
X87368147Y-97024700D01*
X87275015Y-97164081D01*
X87156481Y-97282615D01*
X87017100Y-97375747D01*
X86862228Y-97439897D01*
X86697816Y-97472600D01*
X86530184Y-97472600D01*
X86365772Y-97439897D01*
X86210900Y-97375747D01*
X86071519Y-97282615D01*
X85952985Y-97164081D01*
X85859853Y-97024700D01*
X85795703Y-96869828D01*
X85763000Y-96705416D01*
X85763000Y-96537784D01*
X85795703Y-96373372D01*
X85859853Y-96218500D01*
X85952985Y-96079119D01*
X86071519Y-95960585D01*
X86210900Y-95867453D01*
X86365772Y-95803303D01*
X86530184Y-95770600D01*
X86697816Y-95770600D01*
X86862228Y-95803303D01*
X86862228Y-95803303D01*
G37*
G36*
X81862228Y-95803303D02*
G01*
X82017100Y-95867453D01*
X82156481Y-95960585D01*
X82275015Y-96079119D01*
X82368147Y-96218500D01*
X82432297Y-96373372D01*
X82465000Y-96537784D01*
X82465000Y-96705416D01*
X82432297Y-96869828D01*
X82368147Y-97024700D01*
X82275015Y-97164081D01*
X82156481Y-97282615D01*
X82017100Y-97375747D01*
X81862228Y-97439897D01*
X81697816Y-97472600D01*
X81530184Y-97472600D01*
X81365772Y-97439897D01*
X81210900Y-97375747D01*
X81071519Y-97282615D01*
X80952985Y-97164081D01*
X80859853Y-97024700D01*
X80795703Y-96869828D01*
X80763000Y-96705416D01*
X80763000Y-96537784D01*
X80795703Y-96373372D01*
X80859853Y-96218500D01*
X80952985Y-96079119D01*
X81071519Y-95960585D01*
X81210900Y-95867453D01*
X81365772Y-95803303D01*
X81530184Y-95770600D01*
X81697816Y-95770600D01*
X81862228Y-95803303D01*
X81862228Y-95803303D01*
G37*
G36*
X74541059Y-94617860D02*
G01*
X74677732Y-94674472D01*
X74800735Y-94756660D01*
X74905340Y-94861265D01*
X74987528Y-94984268D01*
X74987529Y-94984270D01*
X75044140Y-95120941D01*
X75073000Y-95266032D01*
X75073000Y-95413968D01*
X75044140Y-95559059D01*
X74987528Y-95695732D01*
X74905340Y-95818735D01*
X74800735Y-95923340D01*
X74677732Y-96005528D01*
X74677731Y-96005529D01*
X74677730Y-96005529D01*
X74541059Y-96062140D01*
X74395968Y-96091000D01*
X74248032Y-96091000D01*
X74102941Y-96062140D01*
X73966270Y-96005529D01*
X73966269Y-96005529D01*
X73966268Y-96005528D01*
X73843265Y-95923340D01*
X73738660Y-95818735D01*
X73656472Y-95695732D01*
X73599860Y-95559059D01*
X73571000Y-95413968D01*
X73571000Y-95266032D01*
X73599860Y-95120941D01*
X73656471Y-94984270D01*
X73656472Y-94984268D01*
X73738660Y-94861265D01*
X73843265Y-94756660D01*
X73966268Y-94674472D01*
X74102941Y-94617860D01*
X74248032Y-94589000D01*
X74395968Y-94589000D01*
X74541059Y-94617860D01*
X74541059Y-94617860D01*
G37*
G36*
X61941059Y-94617860D02*
G01*
X62077732Y-94674472D01*
X62200735Y-94756660D01*
X62305340Y-94861265D01*
X62387528Y-94984268D01*
X62387529Y-94984270D01*
X62444140Y-95120941D01*
X62473000Y-95266032D01*
X62473000Y-95413968D01*
X62444140Y-95559059D01*
X62387528Y-95695732D01*
X62305340Y-95818735D01*
X62200735Y-95923340D01*
X62077732Y-96005528D01*
X62077731Y-96005529D01*
X62077730Y-96005529D01*
X61941059Y-96062140D01*
X61795968Y-96091000D01*
X61648032Y-96091000D01*
X61502941Y-96062140D01*
X61366270Y-96005529D01*
X61366269Y-96005529D01*
X61366268Y-96005528D01*
X61243265Y-95923340D01*
X61138660Y-95818735D01*
X61056472Y-95695732D01*
X60999860Y-95559059D01*
X60971000Y-95413968D01*
X60971000Y-95266032D01*
X60999860Y-95120941D01*
X61056471Y-94984270D01*
X61056472Y-94984268D01*
X61138660Y-94861265D01*
X61243265Y-94756660D01*
X61366268Y-94674472D01*
X61502941Y-94617860D01*
X61648032Y-94589000D01*
X61795968Y-94589000D01*
X61941059Y-94617860D01*
X61941059Y-94617860D01*
G37*
G36*
X57697823Y-94220813D02*
G01*
X57858242Y-94269476D01*
X57958378Y-94323000D01*
X58006078Y-94348496D01*
X58135659Y-94454841D01*
X58242004Y-94584422D01*
X58242005Y-94584424D01*
X58321024Y-94732258D01*
X58369687Y-94892677D01*
X58386117Y-95059500D01*
X58369687Y-95226323D01*
X58321024Y-95386742D01*
X58306471Y-95413968D01*
X58242004Y-95534578D01*
X58135659Y-95664159D01*
X58006078Y-95770504D01*
X58006076Y-95770505D01*
X57858242Y-95849524D01*
X57697823Y-95898187D01*
X57572804Y-95910500D01*
X57489196Y-95910500D01*
X57364177Y-95898187D01*
X57203758Y-95849524D01*
X57055924Y-95770505D01*
X57055922Y-95770504D01*
X56926341Y-95664159D01*
X56819996Y-95534578D01*
X56755529Y-95413968D01*
X56740976Y-95386742D01*
X56692313Y-95226323D01*
X56675883Y-95059500D01*
X56692313Y-94892677D01*
X56740976Y-94732258D01*
X56819995Y-94584424D01*
X56819996Y-94584422D01*
X56926341Y-94454841D01*
X57055922Y-94348496D01*
X57103622Y-94323000D01*
X57203758Y-94269476D01*
X57364177Y-94220813D01*
X57489196Y-94208500D01*
X57572804Y-94208500D01*
X57697823Y-94220813D01*
X57697823Y-94220813D01*
G37*
G36*
X42457823Y-94220813D02*
G01*
X42618242Y-94269476D01*
X42718378Y-94323000D01*
X42766078Y-94348496D01*
X42895659Y-94454841D01*
X43002004Y-94584422D01*
X43002005Y-94584424D01*
X43081024Y-94732258D01*
X43129687Y-94892677D01*
X43146117Y-95059500D01*
X43129687Y-95226323D01*
X43081024Y-95386742D01*
X43066471Y-95413968D01*
X43002004Y-95534578D01*
X42895659Y-95664159D01*
X42766078Y-95770504D01*
X42766076Y-95770505D01*
X42618242Y-95849524D01*
X42457823Y-95898187D01*
X42332804Y-95910500D01*
X42249196Y-95910500D01*
X42124177Y-95898187D01*
X41963758Y-95849524D01*
X41815924Y-95770505D01*
X41815922Y-95770504D01*
X41686341Y-95664159D01*
X41579996Y-95534578D01*
X41515529Y-95413968D01*
X41500976Y-95386742D01*
X41452313Y-95226323D01*
X41435883Y-95059500D01*
X41452313Y-94892677D01*
X41500976Y-94732258D01*
X41579995Y-94584424D01*
X41579996Y-94584422D01*
X41686341Y-94454841D01*
X41815922Y-94348496D01*
X41863622Y-94323000D01*
X41963758Y-94269476D01*
X42124177Y-94220813D01*
X42249196Y-94208500D01*
X42332804Y-94208500D01*
X42457823Y-94220813D01*
X42457823Y-94220813D01*
G37*
G36*
X81862228Y-92653703D02*
G01*
X82017100Y-92717853D01*
X82156481Y-92810985D01*
X82275015Y-92929519D01*
X82368147Y-93068900D01*
X82432297Y-93223772D01*
X82465000Y-93388184D01*
X82465000Y-93555816D01*
X82432297Y-93720228D01*
X82368147Y-93875100D01*
X82275015Y-94014481D01*
X82156481Y-94133015D01*
X82017100Y-94226147D01*
X81862228Y-94290297D01*
X81697816Y-94323000D01*
X81530184Y-94323000D01*
X81365772Y-94290297D01*
X81210900Y-94226147D01*
X81071519Y-94133015D01*
X80952985Y-94014481D01*
X80859853Y-93875100D01*
X80795703Y-93720228D01*
X80763000Y-93555816D01*
X80763000Y-93388184D01*
X80795703Y-93223772D01*
X80859853Y-93068900D01*
X80952985Y-92929519D01*
X81071519Y-92810985D01*
X81210900Y-92717853D01*
X81365772Y-92653703D01*
X81530184Y-92621000D01*
X81697816Y-92621000D01*
X81862228Y-92653703D01*
X81862228Y-92653703D01*
G37*
G36*
X86862228Y-92653703D02*
G01*
X87017100Y-92717853D01*
X87156481Y-92810985D01*
X87275015Y-92929519D01*
X87368147Y-93068900D01*
X87432297Y-93223772D01*
X87465000Y-93388184D01*
X87465000Y-93555816D01*
X87432297Y-93720228D01*
X87368147Y-93875100D01*
X87275015Y-94014481D01*
X87156481Y-94133015D01*
X87017100Y-94226147D01*
X86862228Y-94290297D01*
X86697816Y-94323000D01*
X86530184Y-94323000D01*
X86365772Y-94290297D01*
X86210900Y-94226147D01*
X86071519Y-94133015D01*
X85952985Y-94014481D01*
X85859853Y-93875100D01*
X85795703Y-93720228D01*
X85763000Y-93555816D01*
X85763000Y-93388184D01*
X85795703Y-93223772D01*
X85859853Y-93068900D01*
X85952985Y-92929519D01*
X86071519Y-92810985D01*
X86210900Y-92717853D01*
X86365772Y-92653703D01*
X86530184Y-92621000D01*
X86697816Y-92621000D01*
X86862228Y-92653703D01*
X86862228Y-92653703D01*
G37*
G36*
X74541059Y-92837860D02*
G01*
X74677732Y-92894472D01*
X74800735Y-92976660D01*
X74905340Y-93081265D01*
X74905341Y-93081267D01*
X74987529Y-93204270D01*
X75044140Y-93340941D01*
X75073000Y-93486032D01*
X75073000Y-93633968D01*
X75044140Y-93779059D01*
X75004359Y-93875100D01*
X74987528Y-93915732D01*
X74905340Y-94038735D01*
X74800735Y-94143340D01*
X74677732Y-94225528D01*
X74677731Y-94225529D01*
X74677730Y-94225529D01*
X74541059Y-94282140D01*
X74395968Y-94311000D01*
X74248032Y-94311000D01*
X74102941Y-94282140D01*
X73966270Y-94225529D01*
X73966269Y-94225529D01*
X73966268Y-94225528D01*
X73843265Y-94143340D01*
X73738660Y-94038735D01*
X73656472Y-93915732D01*
X73639642Y-93875100D01*
X73599860Y-93779059D01*
X73571000Y-93633968D01*
X73571000Y-93486032D01*
X73599860Y-93340941D01*
X73656471Y-93204270D01*
X73738659Y-93081267D01*
X73738660Y-93081265D01*
X73843265Y-92976660D01*
X73966268Y-92894472D01*
X74102941Y-92837860D01*
X74248032Y-92809000D01*
X74395968Y-92809000D01*
X74541059Y-92837860D01*
X74541059Y-92837860D01*
G37*
G36*
X61941059Y-92837860D02*
G01*
X62077732Y-92894472D01*
X62200735Y-92976660D01*
X62305340Y-93081265D01*
X62305341Y-93081267D01*
X62387529Y-93204270D01*
X62444140Y-93340941D01*
X62473000Y-93486032D01*
X62473000Y-93633968D01*
X62444140Y-93779059D01*
X62404359Y-93875100D01*
X62387528Y-93915732D01*
X62305340Y-94038735D01*
X62200735Y-94143340D01*
X62077732Y-94225528D01*
X62077731Y-94225529D01*
X62077730Y-94225529D01*
X61941059Y-94282140D01*
X61795968Y-94311000D01*
X61648032Y-94311000D01*
X61502941Y-94282140D01*
X61366270Y-94225529D01*
X61366269Y-94225529D01*
X61366268Y-94225528D01*
X61243265Y-94143340D01*
X61138660Y-94038735D01*
X61056472Y-93915732D01*
X61039642Y-93875100D01*
X60999860Y-93779059D01*
X60971000Y-93633968D01*
X60971000Y-93486032D01*
X60999860Y-93340941D01*
X61056471Y-93204270D01*
X61138659Y-93081267D01*
X61138660Y-93081265D01*
X61243265Y-92976660D01*
X61366268Y-92894472D01*
X61502941Y-92837860D01*
X61648032Y-92809000D01*
X61795968Y-92809000D01*
X61941059Y-92837860D01*
X61941059Y-92837860D01*
G37*
G36*
X42457823Y-91680813D02*
G01*
X42618242Y-91729476D01*
X42750906Y-91800386D01*
X42766078Y-91808496D01*
X42895659Y-91914841D01*
X43002004Y-92044422D01*
X43002005Y-92044424D01*
X43081024Y-92192258D01*
X43129687Y-92352677D01*
X43146117Y-92519500D01*
X43129687Y-92686323D01*
X43081024Y-92846742D01*
X43036778Y-92929520D01*
X43002004Y-92994578D01*
X42895659Y-93124159D01*
X42766078Y-93230504D01*
X42766076Y-93230505D01*
X42618242Y-93309524D01*
X42457823Y-93358187D01*
X42332804Y-93370500D01*
X42249196Y-93370500D01*
X42124177Y-93358187D01*
X41963758Y-93309524D01*
X41815924Y-93230505D01*
X41815922Y-93230504D01*
X41686341Y-93124159D01*
X41579996Y-92994578D01*
X41545222Y-92929520D01*
X41500976Y-92846742D01*
X41452313Y-92686323D01*
X41435883Y-92519500D01*
X41452313Y-92352677D01*
X41500976Y-92192258D01*
X41579995Y-92044424D01*
X41579996Y-92044422D01*
X41686341Y-91914841D01*
X41815922Y-91808496D01*
X41831094Y-91800386D01*
X41963758Y-91729476D01*
X42124177Y-91680813D01*
X42249196Y-91668500D01*
X42332804Y-91668500D01*
X42457823Y-91680813D01*
X42457823Y-91680813D01*
G37*
G36*
X57697823Y-91680813D02*
G01*
X57858242Y-91729476D01*
X57990906Y-91800386D01*
X58006078Y-91808496D01*
X58135659Y-91914841D01*
X58242004Y-92044422D01*
X58242005Y-92044424D01*
X58321024Y-92192258D01*
X58369687Y-92352677D01*
X58386117Y-92519500D01*
X58369687Y-92686323D01*
X58321024Y-92846742D01*
X58276778Y-92929520D01*
X58242004Y-92994578D01*
X58135659Y-93124159D01*
X58006078Y-93230504D01*
X58006076Y-93230505D01*
X57858242Y-93309524D01*
X57697823Y-93358187D01*
X57572804Y-93370500D01*
X57489196Y-93370500D01*
X57364177Y-93358187D01*
X57203758Y-93309524D01*
X57055924Y-93230505D01*
X57055922Y-93230504D01*
X56926341Y-93124159D01*
X56819996Y-92994578D01*
X56785222Y-92929520D01*
X56740976Y-92846742D01*
X56692313Y-92686323D01*
X56675883Y-92519500D01*
X56692313Y-92352677D01*
X56740976Y-92192258D01*
X56819995Y-92044424D01*
X56819996Y-92044422D01*
X56926341Y-91914841D01*
X57055922Y-91808496D01*
X57071094Y-91800386D01*
X57203758Y-91729476D01*
X57364177Y-91680813D01*
X57489196Y-91668500D01*
X57572804Y-91668500D01*
X57697823Y-91680813D01*
X57697823Y-91680813D01*
G37*
G36*
X74541059Y-91057860D02*
G01*
X74677732Y-91114472D01*
X74800735Y-91196660D01*
X74905340Y-91301265D01*
X74905341Y-91301267D01*
X74987529Y-91424270D01*
X75044140Y-91560941D01*
X75065535Y-91668500D01*
X75073000Y-91706033D01*
X75073000Y-91853967D01*
X75044140Y-91999059D01*
X74987528Y-92135732D01*
X74905340Y-92258735D01*
X74800735Y-92363340D01*
X74677732Y-92445528D01*
X74677731Y-92445529D01*
X74677730Y-92445529D01*
X74541059Y-92502140D01*
X74395968Y-92531000D01*
X74248032Y-92531000D01*
X74102941Y-92502140D01*
X73966270Y-92445529D01*
X73966269Y-92445529D01*
X73966268Y-92445528D01*
X73843265Y-92363340D01*
X73738660Y-92258735D01*
X73656472Y-92135732D01*
X73599860Y-91999059D01*
X73571000Y-91853967D01*
X73571000Y-91706033D01*
X73578466Y-91668500D01*
X73599860Y-91560941D01*
X73656471Y-91424270D01*
X73738659Y-91301267D01*
X73738660Y-91301265D01*
X73843265Y-91196660D01*
X73966268Y-91114472D01*
X74102941Y-91057860D01*
X74248032Y-91029000D01*
X74395968Y-91029000D01*
X74541059Y-91057860D01*
X74541059Y-91057860D01*
G37*
G36*
X61941059Y-91057860D02*
G01*
X62077732Y-91114472D01*
X62200735Y-91196660D01*
X62305340Y-91301265D01*
X62305341Y-91301267D01*
X62387529Y-91424270D01*
X62444140Y-91560941D01*
X62465535Y-91668500D01*
X62473000Y-91706033D01*
X62473000Y-91853967D01*
X62444140Y-91999059D01*
X62387528Y-92135732D01*
X62305340Y-92258735D01*
X62200735Y-92363340D01*
X62077732Y-92445528D01*
X62077731Y-92445529D01*
X62077730Y-92445529D01*
X61941059Y-92502140D01*
X61795968Y-92531000D01*
X61648032Y-92531000D01*
X61502941Y-92502140D01*
X61366270Y-92445529D01*
X61366269Y-92445529D01*
X61366268Y-92445528D01*
X61243265Y-92363340D01*
X61138660Y-92258735D01*
X61056472Y-92135732D01*
X60999860Y-91999059D01*
X60971000Y-91853967D01*
X60971000Y-91706033D01*
X60978466Y-91668500D01*
X60999860Y-91560941D01*
X61056471Y-91424270D01*
X61138659Y-91301267D01*
X61138660Y-91301265D01*
X61243265Y-91196660D01*
X61366268Y-91114472D01*
X61502941Y-91057860D01*
X61648032Y-91029000D01*
X61795968Y-91029000D01*
X61941059Y-91057860D01*
X61941059Y-91057860D01*
G37*
G36*
X86833028Y-89631103D02*
G01*
X86987900Y-89695253D01*
X87127281Y-89788385D01*
X87245815Y-89906919D01*
X87338947Y-90046300D01*
X87403097Y-90201172D01*
X87435800Y-90365584D01*
X87435800Y-90533216D01*
X87403097Y-90697628D01*
X87338947Y-90852500D01*
X87245815Y-90991881D01*
X87127281Y-91110415D01*
X86987900Y-91203547D01*
X86833028Y-91267697D01*
X86668616Y-91300400D01*
X86500984Y-91300400D01*
X86336572Y-91267697D01*
X86181700Y-91203547D01*
X86042319Y-91110415D01*
X85923785Y-90991881D01*
X85830653Y-90852500D01*
X85766503Y-90697628D01*
X85733800Y-90533216D01*
X85733800Y-90365584D01*
X85766503Y-90201172D01*
X85830653Y-90046300D01*
X85923785Y-89906919D01*
X86042319Y-89788385D01*
X86181700Y-89695253D01*
X86336572Y-89631103D01*
X86500984Y-89598400D01*
X86668616Y-89598400D01*
X86833028Y-89631103D01*
X86833028Y-89631103D01*
G37*
G36*
X81833028Y-89631103D02*
G01*
X81987900Y-89695253D01*
X82127281Y-89788385D01*
X82245815Y-89906919D01*
X82338947Y-90046300D01*
X82403097Y-90201172D01*
X82435800Y-90365584D01*
X82435800Y-90533216D01*
X82403097Y-90697628D01*
X82338947Y-90852500D01*
X82245815Y-90991881D01*
X82127281Y-91110415D01*
X81987900Y-91203547D01*
X81833028Y-91267697D01*
X81668616Y-91300400D01*
X81500984Y-91300400D01*
X81336572Y-91267697D01*
X81181700Y-91203547D01*
X81042319Y-91110415D01*
X80923785Y-90991881D01*
X80830653Y-90852500D01*
X80766503Y-90697628D01*
X80733800Y-90533216D01*
X80733800Y-90365584D01*
X80766503Y-90201172D01*
X80830653Y-90046300D01*
X80923785Y-89906919D01*
X81042319Y-89788385D01*
X81181700Y-89695253D01*
X81336572Y-89631103D01*
X81500984Y-89598400D01*
X81668616Y-89598400D01*
X81833028Y-89631103D01*
X81833028Y-89631103D01*
G37*
G36*
X42457823Y-89140813D02*
G01*
X42618242Y-89189476D01*
X42729603Y-89249000D01*
X42766078Y-89268496D01*
X42895659Y-89374841D01*
X43002004Y-89504422D01*
X43002005Y-89504424D01*
X43081024Y-89652258D01*
X43129687Y-89812677D01*
X43146117Y-89979500D01*
X43129687Y-90146323D01*
X43081024Y-90306742D01*
X43010114Y-90439406D01*
X43002004Y-90454578D01*
X42895659Y-90584159D01*
X42766078Y-90690504D01*
X42766076Y-90690505D01*
X42618242Y-90769524D01*
X42457823Y-90818187D01*
X42332804Y-90830500D01*
X42249196Y-90830500D01*
X42124177Y-90818187D01*
X41963758Y-90769524D01*
X41815924Y-90690505D01*
X41815922Y-90690504D01*
X41686341Y-90584159D01*
X41579996Y-90454578D01*
X41571886Y-90439406D01*
X41500976Y-90306742D01*
X41452313Y-90146323D01*
X41435883Y-89979500D01*
X41452313Y-89812677D01*
X41500976Y-89652258D01*
X41579995Y-89504424D01*
X41579996Y-89504422D01*
X41686341Y-89374841D01*
X41815922Y-89268496D01*
X41852397Y-89249000D01*
X41963758Y-89189476D01*
X42124177Y-89140813D01*
X42249196Y-89128500D01*
X42332804Y-89128500D01*
X42457823Y-89140813D01*
X42457823Y-89140813D01*
G37*
G36*
X57697823Y-89140813D02*
G01*
X57858242Y-89189476D01*
X57969603Y-89249000D01*
X58006078Y-89268496D01*
X58135659Y-89374841D01*
X58242004Y-89504422D01*
X58242005Y-89504424D01*
X58321024Y-89652258D01*
X58369687Y-89812677D01*
X58386117Y-89979500D01*
X58369687Y-90146323D01*
X58321024Y-90306742D01*
X58250114Y-90439406D01*
X58242004Y-90454578D01*
X58135659Y-90584159D01*
X58006078Y-90690504D01*
X58006076Y-90690505D01*
X57858242Y-90769524D01*
X57697823Y-90818187D01*
X57572804Y-90830500D01*
X57489196Y-90830500D01*
X57364177Y-90818187D01*
X57203758Y-90769524D01*
X57055924Y-90690505D01*
X57055922Y-90690504D01*
X56926341Y-90584159D01*
X56819996Y-90454578D01*
X56811886Y-90439406D01*
X56740976Y-90306742D01*
X56692313Y-90146323D01*
X56675883Y-89979500D01*
X56692313Y-89812677D01*
X56740976Y-89652258D01*
X56819995Y-89504424D01*
X56819996Y-89504422D01*
X56926341Y-89374841D01*
X57055922Y-89268496D01*
X57092397Y-89249000D01*
X57203758Y-89189476D01*
X57364177Y-89140813D01*
X57489196Y-89128500D01*
X57572804Y-89128500D01*
X57697823Y-89140813D01*
X57697823Y-89140813D01*
G37*
G36*
X62473000Y-90751000D02*
G01*
X60971000Y-90751000D01*
X60971000Y-89249000D01*
X62473000Y-89249000D01*
X62473000Y-90751000D01*
X62473000Y-90751000D01*
G37*
G36*
X74493977Y-89268495D02*
G01*
X74541059Y-89277860D01*
X74677732Y-89334472D01*
X74800735Y-89416660D01*
X74905340Y-89521265D01*
X74987528Y-89644268D01*
X74987529Y-89644270D01*
X75044140Y-89780941D01*
X75073000Y-89926032D01*
X75073000Y-90073968D01*
X75044140Y-90219059D01*
X75007821Y-90306742D01*
X74987528Y-90355732D01*
X74905340Y-90478735D01*
X74800735Y-90583340D01*
X74677732Y-90665528D01*
X74677731Y-90665529D01*
X74677730Y-90665529D01*
X74541059Y-90722140D01*
X74395968Y-90751000D01*
X74248032Y-90751000D01*
X74102941Y-90722140D01*
X73966270Y-90665529D01*
X73966269Y-90665529D01*
X73966268Y-90665528D01*
X73843265Y-90583340D01*
X73738660Y-90478735D01*
X73656472Y-90355732D01*
X73636180Y-90306742D01*
X73599860Y-90219059D01*
X73571000Y-90073968D01*
X73571000Y-89926032D01*
X73599860Y-89780941D01*
X73656471Y-89644270D01*
X73656472Y-89644268D01*
X73738660Y-89521265D01*
X73843265Y-89416660D01*
X73966268Y-89334472D01*
X74102941Y-89277860D01*
X74150023Y-89268495D01*
X74248032Y-89249000D01*
X74395968Y-89249000D01*
X74493977Y-89268495D01*
X74493977Y-89268495D01*
G37*
G36*
X57697823Y-86600813D02*
G01*
X57858242Y-86649476D01*
X57990906Y-86720386D01*
X58006078Y-86728496D01*
X58135659Y-86834841D01*
X58242004Y-86964422D01*
X58242005Y-86964424D01*
X58321024Y-87112258D01*
X58369687Y-87272677D01*
X58386117Y-87439500D01*
X58369687Y-87606323D01*
X58321024Y-87766742D01*
X58267071Y-87867680D01*
X58242004Y-87914578D01*
X58135659Y-88044159D01*
X58006078Y-88150504D01*
X58006076Y-88150505D01*
X57858242Y-88229524D01*
X57697823Y-88278187D01*
X57572804Y-88290500D01*
X57489196Y-88290500D01*
X57364177Y-88278187D01*
X57203758Y-88229524D01*
X57055924Y-88150505D01*
X57055922Y-88150504D01*
X56926341Y-88044159D01*
X56819996Y-87914578D01*
X56794929Y-87867680D01*
X56740976Y-87766742D01*
X56692313Y-87606323D01*
X56675883Y-87439500D01*
X56692313Y-87272677D01*
X56740976Y-87112258D01*
X56819995Y-86964424D01*
X56819996Y-86964422D01*
X56926341Y-86834841D01*
X57055922Y-86728496D01*
X57071094Y-86720386D01*
X57203758Y-86649476D01*
X57364177Y-86600813D01*
X57489196Y-86588500D01*
X57572804Y-86588500D01*
X57697823Y-86600813D01*
X57697823Y-86600813D01*
G37*
G36*
X42457823Y-86600813D02*
G01*
X42618242Y-86649476D01*
X42750906Y-86720386D01*
X42766078Y-86728496D01*
X42895659Y-86834841D01*
X43002004Y-86964422D01*
X43002005Y-86964424D01*
X43081024Y-87112258D01*
X43129687Y-87272677D01*
X43146117Y-87439500D01*
X43129687Y-87606323D01*
X43081024Y-87766742D01*
X43027071Y-87867680D01*
X43002004Y-87914578D01*
X42895659Y-88044159D01*
X42766078Y-88150504D01*
X42766076Y-88150505D01*
X42618242Y-88229524D01*
X42457823Y-88278187D01*
X42332804Y-88290500D01*
X42249196Y-88290500D01*
X42124177Y-88278187D01*
X41963758Y-88229524D01*
X41815924Y-88150505D01*
X41815922Y-88150504D01*
X41686341Y-88044159D01*
X41579996Y-87914578D01*
X41554929Y-87867680D01*
X41500976Y-87766742D01*
X41452313Y-87606323D01*
X41435883Y-87439500D01*
X41452313Y-87272677D01*
X41500976Y-87112258D01*
X41579995Y-86964424D01*
X41579996Y-86964422D01*
X41686341Y-86834841D01*
X41815922Y-86728496D01*
X41831094Y-86720386D01*
X41963758Y-86649476D01*
X42124177Y-86600813D01*
X42249196Y-86588500D01*
X42332804Y-86588500D01*
X42457823Y-86600813D01*
X42457823Y-86600813D01*
G37*
G36*
X86833028Y-86506903D02*
G01*
X86987900Y-86571053D01*
X87127281Y-86664185D01*
X87245815Y-86782719D01*
X87338947Y-86922100D01*
X87403097Y-87076972D01*
X87435800Y-87241384D01*
X87435800Y-87409016D01*
X87403097Y-87573428D01*
X87338947Y-87728300D01*
X87245815Y-87867681D01*
X87127281Y-87986215D01*
X86987900Y-88079347D01*
X86833028Y-88143497D01*
X86668616Y-88176200D01*
X86500984Y-88176200D01*
X86336572Y-88143497D01*
X86181700Y-88079347D01*
X86042319Y-87986215D01*
X85923785Y-87867681D01*
X85830653Y-87728300D01*
X85766503Y-87573428D01*
X85733800Y-87409016D01*
X85733800Y-87241384D01*
X85766503Y-87076972D01*
X85830653Y-86922100D01*
X85923785Y-86782719D01*
X86042319Y-86664185D01*
X86181700Y-86571053D01*
X86336572Y-86506903D01*
X86500984Y-86474200D01*
X86668616Y-86474200D01*
X86833028Y-86506903D01*
X86833028Y-86506903D01*
G37*
G36*
X81833028Y-86506903D02*
G01*
X81987900Y-86571053D01*
X82127281Y-86664185D01*
X82245815Y-86782719D01*
X82338947Y-86922100D01*
X82403097Y-87076972D01*
X82435800Y-87241384D01*
X82435800Y-87409016D01*
X82403097Y-87573428D01*
X82338947Y-87728300D01*
X82245815Y-87867681D01*
X82127281Y-87986215D01*
X81987900Y-88079347D01*
X81833028Y-88143497D01*
X81668616Y-88176200D01*
X81500984Y-88176200D01*
X81336572Y-88143497D01*
X81181700Y-88079347D01*
X81042319Y-87986215D01*
X80923785Y-87867681D01*
X80830653Y-87728300D01*
X80766503Y-87573428D01*
X80733800Y-87409016D01*
X80733800Y-87241384D01*
X80766503Y-87076972D01*
X80830653Y-86922100D01*
X80923785Y-86782719D01*
X81042319Y-86664185D01*
X81181700Y-86571053D01*
X81336572Y-86506903D01*
X81500984Y-86474200D01*
X81668616Y-86474200D01*
X81833028Y-86506903D01*
X81833028Y-86506903D01*
G37*
G36*
X57697823Y-84060813D02*
G01*
X57828380Y-84100417D01*
X57850453Y-84107113D01*
X57858242Y-84109476D01*
X57978299Y-84173648D01*
X58006078Y-84188496D01*
X58135659Y-84294841D01*
X58242004Y-84424422D01*
X58242005Y-84424424D01*
X58321024Y-84572258D01*
X58369687Y-84732677D01*
X58386117Y-84899500D01*
X58369687Y-85066323D01*
X58321024Y-85226742D01*
X58250114Y-85359406D01*
X58242004Y-85374578D01*
X58135659Y-85504159D01*
X58006078Y-85610504D01*
X58006076Y-85610505D01*
X57858242Y-85689524D01*
X57697823Y-85738187D01*
X57572804Y-85750500D01*
X57489196Y-85750500D01*
X57364177Y-85738187D01*
X57203758Y-85689524D01*
X57055924Y-85610505D01*
X57055922Y-85610504D01*
X56926341Y-85504159D01*
X56819996Y-85374578D01*
X56811886Y-85359406D01*
X56740976Y-85226742D01*
X56692313Y-85066323D01*
X56675883Y-84899500D01*
X56692313Y-84732677D01*
X56740976Y-84572258D01*
X56819995Y-84424424D01*
X56819996Y-84424422D01*
X56926341Y-84294841D01*
X57055922Y-84188496D01*
X57083701Y-84173648D01*
X57203758Y-84109476D01*
X57211548Y-84107113D01*
X57233620Y-84100417D01*
X57364177Y-84060813D01*
X57489196Y-84048500D01*
X57572804Y-84048500D01*
X57697823Y-84060813D01*
X57697823Y-84060813D01*
G37*
G36*
X42457823Y-84060813D02*
G01*
X42588380Y-84100417D01*
X42610453Y-84107113D01*
X42618242Y-84109476D01*
X42738299Y-84173648D01*
X42766078Y-84188496D01*
X42895659Y-84294841D01*
X43002004Y-84424422D01*
X43002005Y-84424424D01*
X43081024Y-84572258D01*
X43129687Y-84732677D01*
X43146117Y-84899500D01*
X43129687Y-85066323D01*
X43081024Y-85226742D01*
X43010114Y-85359406D01*
X43002004Y-85374578D01*
X42895659Y-85504159D01*
X42766078Y-85610504D01*
X42766076Y-85610505D01*
X42618242Y-85689524D01*
X42457823Y-85738187D01*
X42332804Y-85750500D01*
X42249196Y-85750500D01*
X42124177Y-85738187D01*
X41963758Y-85689524D01*
X41815924Y-85610505D01*
X41815922Y-85610504D01*
X41686341Y-85504159D01*
X41579996Y-85374578D01*
X41571886Y-85359406D01*
X41500976Y-85226742D01*
X41452313Y-85066323D01*
X41435883Y-84899500D01*
X41452313Y-84732677D01*
X41500976Y-84572258D01*
X41579995Y-84424424D01*
X41579996Y-84424422D01*
X41686341Y-84294841D01*
X41815922Y-84188496D01*
X41843701Y-84173648D01*
X41963758Y-84109476D01*
X41971548Y-84107113D01*
X41993620Y-84100417D01*
X42124177Y-84060813D01*
X42249196Y-84048500D01*
X42332804Y-84048500D01*
X42457823Y-84060813D01*
X42457823Y-84060813D01*
G37*
G36*
X78857428Y-83484303D02*
G01*
X79012300Y-83548453D01*
X79151681Y-83641585D01*
X79270215Y-83760119D01*
X79363347Y-83899500D01*
X79427497Y-84054372D01*
X79460200Y-84218784D01*
X79460200Y-84386416D01*
X79427497Y-84550828D01*
X79363347Y-84705700D01*
X79270215Y-84845081D01*
X79151681Y-84963615D01*
X79012300Y-85056747D01*
X78857428Y-85120897D01*
X78693016Y-85153600D01*
X78525384Y-85153600D01*
X78360972Y-85120897D01*
X78206100Y-85056747D01*
X78066719Y-84963615D01*
X77948185Y-84845081D01*
X77855053Y-84705700D01*
X77790903Y-84550828D01*
X77758200Y-84386416D01*
X77758200Y-84218784D01*
X77790903Y-84054372D01*
X77855053Y-83899500D01*
X77948185Y-83760119D01*
X78066719Y-83641585D01*
X78206100Y-83548453D01*
X78360972Y-83484303D01*
X78525384Y-83451600D01*
X78693016Y-83451600D01*
X78857428Y-83484303D01*
X78857428Y-83484303D01*
G37*
G36*
X73857428Y-83484303D02*
G01*
X74012300Y-83548453D01*
X74151681Y-83641585D01*
X74270215Y-83760119D01*
X74363347Y-83899500D01*
X74427497Y-84054372D01*
X74460200Y-84218784D01*
X74460200Y-84386416D01*
X74427497Y-84550828D01*
X74363347Y-84705700D01*
X74270215Y-84845081D01*
X74151681Y-84963615D01*
X74012300Y-85056747D01*
X73857428Y-85120897D01*
X73693016Y-85153600D01*
X73525384Y-85153600D01*
X73360972Y-85120897D01*
X73206100Y-85056747D01*
X73066719Y-84963615D01*
X72948185Y-84845081D01*
X72855053Y-84705700D01*
X72790903Y-84550828D01*
X72758200Y-84386416D01*
X72758200Y-84218784D01*
X72790903Y-84054372D01*
X72855053Y-83899500D01*
X72948185Y-83760119D01*
X73066719Y-83641585D01*
X73206100Y-83548453D01*
X73360972Y-83484303D01*
X73525384Y-83451600D01*
X73693016Y-83451600D01*
X73857428Y-83484303D01*
X73857428Y-83484303D01*
G37*
G36*
X68057916Y-82976534D02*
G01*
X68166492Y-83009471D01*
X68166495Y-83009472D01*
X68202601Y-83028771D01*
X68266557Y-83062956D01*
X68354264Y-83134936D01*
X68417383Y-83211846D01*
X68434702Y-83229165D01*
X68455077Y-83242779D01*
X68477716Y-83252157D01*
X68501749Y-83256937D01*
X68526253Y-83256937D01*
X68550286Y-83252157D01*
X68572925Y-83242779D01*
X68593299Y-83229166D01*
X68610626Y-83211839D01*
X68624240Y-83191464D01*
X68633618Y-83168825D01*
X68638398Y-83144792D01*
X68639000Y-83132540D01*
X68639000Y-82968200D01*
X69791000Y-82968200D01*
X69791000Y-84570200D01*
X68639000Y-84570200D01*
X68639000Y-84405860D01*
X68636598Y-84381474D01*
X68629485Y-84358025D01*
X68617934Y-84336414D01*
X68602389Y-84317472D01*
X68583447Y-84301927D01*
X68561836Y-84290376D01*
X68538387Y-84283263D01*
X68514001Y-84280861D01*
X68489615Y-84283263D01*
X68466166Y-84290376D01*
X68444555Y-84301927D01*
X68417381Y-84326556D01*
X68354264Y-84403464D01*
X68266556Y-84475444D01*
X68202600Y-84509629D01*
X68166494Y-84528928D01*
X68166491Y-84528929D01*
X68057915Y-84561866D01*
X67945000Y-84572987D01*
X67832084Y-84561866D01*
X67723508Y-84528929D01*
X67723505Y-84528928D01*
X67687399Y-84509629D01*
X67623443Y-84475444D01*
X67535736Y-84403464D01*
X67463756Y-84315756D01*
X67420239Y-84234340D01*
X67406625Y-84213966D01*
X67389298Y-84196639D01*
X67368924Y-84183025D01*
X67346285Y-84173648D01*
X67322251Y-84168868D01*
X67297747Y-84168868D01*
X67273714Y-84173649D01*
X67251075Y-84183026D01*
X67230701Y-84196640D01*
X67213374Y-84213967D01*
X67199762Y-84234340D01*
X67156244Y-84315757D01*
X67084264Y-84403464D01*
X66996556Y-84475444D01*
X66932600Y-84509629D01*
X66896494Y-84528928D01*
X66896491Y-84528929D01*
X66787915Y-84561866D01*
X66675000Y-84572987D01*
X66562084Y-84561866D01*
X66453508Y-84528929D01*
X66453505Y-84528928D01*
X66417399Y-84509629D01*
X66353443Y-84475444D01*
X66265736Y-84403464D01*
X66193756Y-84315756D01*
X66150239Y-84234340D01*
X66140272Y-84215694D01*
X66134492Y-84196640D01*
X66107334Y-84107115D01*
X66099000Y-84022497D01*
X66099000Y-83515902D01*
X66107334Y-83431284D01*
X66140271Y-83322708D01*
X66140272Y-83322705D01*
X66193756Y-83222645D01*
X66193757Y-83222643D01*
X66265737Y-83134936D01*
X66353444Y-83062956D01*
X66417400Y-83028771D01*
X66453506Y-83009472D01*
X66453509Y-83009471D01*
X66562085Y-82976534D01*
X66675000Y-82965413D01*
X66787916Y-82976534D01*
X66896492Y-83009471D01*
X66896495Y-83009472D01*
X66932601Y-83028771D01*
X66996557Y-83062956D01*
X67084264Y-83134936D01*
X67156244Y-83222643D01*
X67172019Y-83252157D01*
X67199761Y-83304059D01*
X67213375Y-83324434D01*
X67230702Y-83341761D01*
X67251076Y-83355374D01*
X67273715Y-83364752D01*
X67297748Y-83369532D01*
X67322252Y-83369532D01*
X67346285Y-83364752D01*
X67368924Y-83355374D01*
X67389299Y-83341760D01*
X67406626Y-83324433D01*
X67420239Y-83304059D01*
X67463756Y-83222645D01*
X67463757Y-83222643D01*
X67535737Y-83134936D01*
X67623444Y-83062956D01*
X67687400Y-83028771D01*
X67723506Y-83009472D01*
X67723509Y-83009471D01*
X67832085Y-82976534D01*
X67945000Y-82965413D01*
X68057916Y-82976534D01*
X68057916Y-82976534D01*
G37*
G36*
X57697823Y-81520813D02*
G01*
X57858242Y-81569476D01*
X57903900Y-81593881D01*
X58006078Y-81648496D01*
X58135659Y-81754841D01*
X58242004Y-81884422D01*
X58242005Y-81884424D01*
X58321024Y-82032258D01*
X58369687Y-82192677D01*
X58386117Y-82359500D01*
X58369687Y-82526323D01*
X58321024Y-82686742D01*
X58250114Y-82819406D01*
X58242004Y-82834578D01*
X58135659Y-82964159D01*
X58006078Y-83070504D01*
X58006076Y-83070505D01*
X57858242Y-83149524D01*
X57697823Y-83198187D01*
X57572804Y-83210500D01*
X57489196Y-83210500D01*
X57364177Y-83198187D01*
X57203758Y-83149524D01*
X57055924Y-83070505D01*
X57055922Y-83070504D01*
X56926341Y-82964159D01*
X56819996Y-82834578D01*
X56811886Y-82819406D01*
X56740976Y-82686742D01*
X56692313Y-82526323D01*
X56675883Y-82359500D01*
X56692313Y-82192677D01*
X56740976Y-82032258D01*
X56819995Y-81884424D01*
X56819996Y-81884422D01*
X56926341Y-81754841D01*
X57055922Y-81648496D01*
X57158100Y-81593881D01*
X57203758Y-81569476D01*
X57364177Y-81520813D01*
X57489196Y-81508500D01*
X57572804Y-81508500D01*
X57697823Y-81520813D01*
X57697823Y-81520813D01*
G37*
G36*
X43142000Y-83210500D02*
G01*
X41440000Y-83210500D01*
X41440000Y-81508500D01*
X43142000Y-81508500D01*
X43142000Y-83210500D01*
X43142000Y-83210500D01*
G37*
G36*
X73861228Y-80233103D02*
G01*
X74016100Y-80297253D01*
X74155481Y-80390385D01*
X74274015Y-80508919D01*
X74367147Y-80648300D01*
X74431297Y-80803172D01*
X74464000Y-80967584D01*
X74464000Y-81135216D01*
X74431297Y-81299628D01*
X74367147Y-81454500D01*
X74274015Y-81593881D01*
X74155481Y-81712415D01*
X74016100Y-81805547D01*
X73861228Y-81869697D01*
X73696816Y-81902400D01*
X73529184Y-81902400D01*
X73364772Y-81869697D01*
X73209900Y-81805547D01*
X73070519Y-81712415D01*
X72951985Y-81593881D01*
X72858853Y-81454500D01*
X72794703Y-81299628D01*
X72762000Y-81135216D01*
X72762000Y-80967584D01*
X72794703Y-80803172D01*
X72858853Y-80648300D01*
X72951985Y-80508919D01*
X73070519Y-80390385D01*
X73209900Y-80297253D01*
X73364772Y-80233103D01*
X73529184Y-80200400D01*
X73696816Y-80200400D01*
X73861228Y-80233103D01*
X73861228Y-80233103D01*
G37*
G36*
X78861228Y-80233103D02*
G01*
X79016100Y-80297253D01*
X79155481Y-80390385D01*
X79274015Y-80508919D01*
X79367147Y-80648300D01*
X79431297Y-80803172D01*
X79464000Y-80967584D01*
X79464000Y-81135216D01*
X79431297Y-81299628D01*
X79367147Y-81454500D01*
X79274015Y-81593881D01*
X79155481Y-81712415D01*
X79016100Y-81805547D01*
X78861228Y-81869697D01*
X78696816Y-81902400D01*
X78529184Y-81902400D01*
X78364772Y-81869697D01*
X78209900Y-81805547D01*
X78070519Y-81712415D01*
X77951985Y-81593881D01*
X77858853Y-81454500D01*
X77794703Y-81299628D01*
X77762000Y-81135216D01*
X77762000Y-80967584D01*
X77794703Y-80803172D01*
X77858853Y-80648300D01*
X77951985Y-80508919D01*
X78070519Y-80390385D01*
X78209900Y-80297253D01*
X78364772Y-80233103D01*
X78529184Y-80200400D01*
X78696816Y-80200400D01*
X78861228Y-80233103D01*
X78861228Y-80233103D01*
G37*
G36*
X73861228Y-76981903D02*
G01*
X74016100Y-77046053D01*
X74155481Y-77139185D01*
X74274015Y-77257719D01*
X74367147Y-77397100D01*
X74431297Y-77551972D01*
X74464000Y-77716384D01*
X74464000Y-77884016D01*
X74431297Y-78048428D01*
X74367147Y-78203300D01*
X74274015Y-78342681D01*
X74155481Y-78461215D01*
X74016100Y-78554347D01*
X73861228Y-78618497D01*
X73696816Y-78651200D01*
X73529184Y-78651200D01*
X73364772Y-78618497D01*
X73209900Y-78554347D01*
X73070519Y-78461215D01*
X72951985Y-78342681D01*
X72858853Y-78203300D01*
X72794703Y-78048428D01*
X72762000Y-77884016D01*
X72762000Y-77716384D01*
X72794703Y-77551972D01*
X72858853Y-77397100D01*
X72951985Y-77257719D01*
X73070519Y-77139185D01*
X73209900Y-77046053D01*
X73364772Y-76981903D01*
X73529184Y-76949200D01*
X73696816Y-76949200D01*
X73861228Y-76981903D01*
X73861228Y-76981903D01*
G37*
G36*
X78861228Y-76981903D02*
G01*
X79016100Y-77046053D01*
X79155481Y-77139185D01*
X79274015Y-77257719D01*
X79367147Y-77397100D01*
X79431297Y-77551972D01*
X79464000Y-77716384D01*
X79464000Y-77884016D01*
X79431297Y-78048428D01*
X79367147Y-78203300D01*
X79274015Y-78342681D01*
X79155481Y-78461215D01*
X79016100Y-78554347D01*
X78861228Y-78618497D01*
X78696816Y-78651200D01*
X78529184Y-78651200D01*
X78364772Y-78618497D01*
X78209900Y-78554347D01*
X78070519Y-78461215D01*
X77951985Y-78342681D01*
X77858853Y-78203300D01*
X77794703Y-78048428D01*
X77762000Y-77884016D01*
X77762000Y-77716384D01*
X77794703Y-77551972D01*
X77858853Y-77397100D01*
X77951985Y-77257719D01*
X78070519Y-77139185D01*
X78209900Y-77046053D01*
X78364772Y-76981903D01*
X78529184Y-76949200D01*
X78696816Y-76949200D01*
X78861228Y-76981903D01*
X78861228Y-76981903D01*
G37*
G36*
X68796352Y-71380297D02*
G01*
X69287902Y-71583904D01*
X69287903Y-71583905D01*
X69730287Y-71879496D01*
X70106504Y-72255713D01*
X70284555Y-72522185D01*
X70402096Y-72698098D01*
X70605703Y-73189648D01*
X70709500Y-73711473D01*
X70709500Y-74243527D01*
X70605703Y-74765352D01*
X70402096Y-75256902D01*
X70402095Y-75256903D01*
X70106504Y-75699287D01*
X69730287Y-76075504D01*
X69434695Y-76273012D01*
X69287902Y-76371096D01*
X68796352Y-76574703D01*
X68274527Y-76678500D01*
X67742473Y-76678500D01*
X67220648Y-76574703D01*
X66729098Y-76371096D01*
X66582305Y-76273012D01*
X66286713Y-76075504D01*
X65910496Y-75699287D01*
X65614905Y-75256903D01*
X65614904Y-75256902D01*
X65411297Y-74765352D01*
X65307500Y-74243527D01*
X65307500Y-73711473D01*
X65411297Y-73189648D01*
X65614904Y-72698098D01*
X65732445Y-72522185D01*
X65910496Y-72255713D01*
X66286713Y-71879496D01*
X66729097Y-71583905D01*
X66729098Y-71583904D01*
X67220648Y-71380297D01*
X67742473Y-71276500D01*
X68274527Y-71276500D01*
X68796352Y-71380297D01*
X68796352Y-71380297D01*
G37*
G36*
X92629943Y-70987519D02*
G01*
X92696127Y-70994037D01*
X92865966Y-71045557D01*
X93022491Y-71129222D01*
X93058229Y-71158552D01*
X93159686Y-71241814D01*
X93242948Y-71343271D01*
X93272278Y-71379009D01*
X93355943Y-71535534D01*
X93407463Y-71705373D01*
X93424859Y-71882000D01*
X93407463Y-72058627D01*
X93355943Y-72228466D01*
X93272278Y-72384991D01*
X93242948Y-72420729D01*
X93159686Y-72522186D01*
X93058229Y-72605448D01*
X93022491Y-72634778D01*
X92865966Y-72718443D01*
X92696127Y-72769963D01*
X92629943Y-72776481D01*
X92563760Y-72783000D01*
X92475240Y-72783000D01*
X92409057Y-72776481D01*
X92342873Y-72769963D01*
X92173034Y-72718443D01*
X92016509Y-72634778D01*
X91980771Y-72605448D01*
X91879314Y-72522186D01*
X91796052Y-72420729D01*
X91766722Y-72384991D01*
X91683057Y-72228466D01*
X91631537Y-72058627D01*
X91614141Y-71882000D01*
X91631537Y-71705373D01*
X91683057Y-71535534D01*
X91766722Y-71379009D01*
X91796052Y-71343271D01*
X91879314Y-71241814D01*
X91980771Y-71158552D01*
X92016509Y-71129222D01*
X92173034Y-71045557D01*
X92342873Y-70994037D01*
X92409057Y-70987519D01*
X92475240Y-70981000D01*
X92563760Y-70981000D01*
X92629943Y-70987519D01*
X92629943Y-70987519D01*
G37*
G36*
X92629942Y-68447518D02*
G01*
X92696127Y-68454037D01*
X92865966Y-68505557D01*
X93022491Y-68589222D01*
X93058229Y-68618552D01*
X93159686Y-68701814D01*
X93242948Y-68803271D01*
X93272278Y-68839009D01*
X93355943Y-68995534D01*
X93407463Y-69165373D01*
X93424859Y-69342000D01*
X93407463Y-69518627D01*
X93355943Y-69688466D01*
X93272278Y-69844991D01*
X93242948Y-69880729D01*
X93159686Y-69982186D01*
X93058229Y-70065448D01*
X93022491Y-70094778D01*
X92865966Y-70178443D01*
X92696127Y-70229963D01*
X92629942Y-70236482D01*
X92563760Y-70243000D01*
X92475240Y-70243000D01*
X92409058Y-70236482D01*
X92342873Y-70229963D01*
X92173034Y-70178443D01*
X92016509Y-70094778D01*
X91980771Y-70065448D01*
X91879314Y-69982186D01*
X91796052Y-69880729D01*
X91766722Y-69844991D01*
X91683057Y-69688466D01*
X91631537Y-69518627D01*
X91614141Y-69342000D01*
X91631537Y-69165373D01*
X91683057Y-68995534D01*
X91766722Y-68839009D01*
X91796052Y-68803271D01*
X91879314Y-68701814D01*
X91980771Y-68618552D01*
X92016509Y-68589222D01*
X92173034Y-68505557D01*
X92342873Y-68454037D01*
X92409058Y-68447518D01*
X92475240Y-68441000D01*
X92563760Y-68441000D01*
X92629942Y-68447518D01*
X92629942Y-68447518D01*
G37*
G36*
X92629943Y-65907519D02*
G01*
X92696127Y-65914037D01*
X92865966Y-65965557D01*
X93022491Y-66049222D01*
X93058229Y-66078552D01*
X93159686Y-66161814D01*
X93242948Y-66263271D01*
X93272278Y-66299009D01*
X93355943Y-66455534D01*
X93407463Y-66625373D01*
X93424859Y-66802000D01*
X93407463Y-66978627D01*
X93355943Y-67148466D01*
X93272278Y-67304991D01*
X93242948Y-67340729D01*
X93159686Y-67442186D01*
X93058229Y-67525448D01*
X93022491Y-67554778D01*
X92865966Y-67638443D01*
X92696127Y-67689963D01*
X92629942Y-67696482D01*
X92563760Y-67703000D01*
X92475240Y-67703000D01*
X92409058Y-67696482D01*
X92342873Y-67689963D01*
X92173034Y-67638443D01*
X92016509Y-67554778D01*
X91980771Y-67525448D01*
X91879314Y-67442186D01*
X91796052Y-67340729D01*
X91766722Y-67304991D01*
X91683057Y-67148466D01*
X91631537Y-66978627D01*
X91614141Y-66802000D01*
X91631537Y-66625373D01*
X91683057Y-66455534D01*
X91766722Y-66299009D01*
X91796052Y-66263271D01*
X91879314Y-66161814D01*
X91980771Y-66078552D01*
X92016509Y-66049222D01*
X92173034Y-65965557D01*
X92342873Y-65914037D01*
X92409057Y-65907519D01*
X92475240Y-65901000D01*
X92563760Y-65901000D01*
X92629943Y-65907519D01*
X92629943Y-65907519D01*
G37*
G36*
X92629942Y-63367518D02*
G01*
X92696127Y-63374037D01*
X92865966Y-63425557D01*
X93022491Y-63509222D01*
X93058229Y-63538552D01*
X93159686Y-63621814D01*
X93242948Y-63723271D01*
X93272278Y-63759009D01*
X93355943Y-63915534D01*
X93407463Y-64085373D01*
X93424859Y-64262000D01*
X93407463Y-64438627D01*
X93355943Y-64608466D01*
X93272278Y-64764991D01*
X93242948Y-64800729D01*
X93159686Y-64902186D01*
X93058229Y-64985448D01*
X93022491Y-65014778D01*
X92865966Y-65098443D01*
X92696127Y-65149963D01*
X92629943Y-65156481D01*
X92563760Y-65163000D01*
X92475240Y-65163000D01*
X92409057Y-65156481D01*
X92342873Y-65149963D01*
X92173034Y-65098443D01*
X92016509Y-65014778D01*
X91980771Y-64985448D01*
X91879314Y-64902186D01*
X91796052Y-64800729D01*
X91766722Y-64764991D01*
X91683057Y-64608466D01*
X91631537Y-64438627D01*
X91614141Y-64262000D01*
X91631537Y-64085373D01*
X91683057Y-63915534D01*
X91766722Y-63759009D01*
X91796052Y-63723271D01*
X91879314Y-63621814D01*
X91980771Y-63538552D01*
X92016509Y-63509222D01*
X92173034Y-63425557D01*
X92342873Y-63374037D01*
X92409058Y-63367518D01*
X92475240Y-63361000D01*
X92563760Y-63361000D01*
X92629942Y-63367518D01*
X92629942Y-63367518D01*
G37*
G36*
X92629943Y-60827519D02*
G01*
X92696127Y-60834037D01*
X92865966Y-60885557D01*
X93022491Y-60969222D01*
X93058229Y-60998552D01*
X93159686Y-61081814D01*
X93242948Y-61183271D01*
X93272278Y-61219009D01*
X93355943Y-61375534D01*
X93407463Y-61545373D01*
X93424859Y-61722000D01*
X93407463Y-61898627D01*
X93355943Y-62068466D01*
X93272278Y-62224991D01*
X93242948Y-62260729D01*
X93159686Y-62362186D01*
X93058229Y-62445448D01*
X93022491Y-62474778D01*
X92865966Y-62558443D01*
X92696127Y-62609963D01*
X92629942Y-62616482D01*
X92563760Y-62623000D01*
X92475240Y-62623000D01*
X92409058Y-62616482D01*
X92342873Y-62609963D01*
X92173034Y-62558443D01*
X92016509Y-62474778D01*
X91980771Y-62445448D01*
X91879314Y-62362186D01*
X91796052Y-62260729D01*
X91766722Y-62224991D01*
X91683057Y-62068466D01*
X91631537Y-61898627D01*
X91614141Y-61722000D01*
X91631537Y-61545373D01*
X91683057Y-61375534D01*
X91766722Y-61219009D01*
X91796052Y-61183271D01*
X91879314Y-61081814D01*
X91980771Y-60998552D01*
X92016509Y-60969222D01*
X92173034Y-60885557D01*
X92342873Y-60834037D01*
X92409057Y-60827519D01*
X92475240Y-60821000D01*
X92563760Y-60821000D01*
X92629943Y-60827519D01*
X92629943Y-60827519D01*
G37*
G36*
X92629942Y-58287518D02*
G01*
X92696127Y-58294037D01*
X92865966Y-58345557D01*
X93022491Y-58429222D01*
X93058229Y-58458552D01*
X93159686Y-58541814D01*
X93242948Y-58643271D01*
X93272278Y-58679009D01*
X93355943Y-58835534D01*
X93407463Y-59005373D01*
X93424859Y-59182000D01*
X93407463Y-59358627D01*
X93355943Y-59528466D01*
X93272278Y-59684991D01*
X93242948Y-59720729D01*
X93159686Y-59822186D01*
X93058229Y-59905448D01*
X93022491Y-59934778D01*
X92865966Y-60018443D01*
X92696127Y-60069963D01*
X92629942Y-60076482D01*
X92563760Y-60083000D01*
X92475240Y-60083000D01*
X92409058Y-60076482D01*
X92342873Y-60069963D01*
X92173034Y-60018443D01*
X92016509Y-59934778D01*
X91980771Y-59905448D01*
X91879314Y-59822186D01*
X91796052Y-59720729D01*
X91766722Y-59684991D01*
X91683057Y-59528466D01*
X91631537Y-59358627D01*
X91614141Y-59182000D01*
X91631537Y-59005373D01*
X91683057Y-58835534D01*
X91766722Y-58679009D01*
X91796052Y-58643271D01*
X91879314Y-58541814D01*
X91980771Y-58458552D01*
X92016509Y-58429222D01*
X92173034Y-58345557D01*
X92342873Y-58294037D01*
X92409058Y-58287518D01*
X92475240Y-58281000D01*
X92563760Y-58281000D01*
X92629942Y-58287518D01*
X92629942Y-58287518D01*
G37*
G36*
X92629942Y-55747518D02*
G01*
X92696127Y-55754037D01*
X92865966Y-55805557D01*
X93022491Y-55889222D01*
X93058229Y-55918552D01*
X93159686Y-56001814D01*
X93242948Y-56103271D01*
X93272278Y-56139009D01*
X93355943Y-56295534D01*
X93407463Y-56465373D01*
X93424859Y-56642000D01*
X93407463Y-56818627D01*
X93355943Y-56988466D01*
X93272278Y-57144991D01*
X93242948Y-57180729D01*
X93159686Y-57282186D01*
X93058229Y-57365448D01*
X93022491Y-57394778D01*
X92865966Y-57478443D01*
X92696127Y-57529963D01*
X92629942Y-57536482D01*
X92563760Y-57543000D01*
X92475240Y-57543000D01*
X92409058Y-57536482D01*
X92342873Y-57529963D01*
X92173034Y-57478443D01*
X92016509Y-57394778D01*
X91980771Y-57365448D01*
X91879314Y-57282186D01*
X91796052Y-57180729D01*
X91766722Y-57144991D01*
X91683057Y-56988466D01*
X91631537Y-56818627D01*
X91614141Y-56642000D01*
X91631537Y-56465373D01*
X91683057Y-56295534D01*
X91766722Y-56139009D01*
X91796052Y-56103271D01*
X91879314Y-56001814D01*
X91980771Y-55918552D01*
X92016509Y-55889222D01*
X92173034Y-55805557D01*
X92342873Y-55754037D01*
X92409058Y-55747518D01*
X92475240Y-55741000D01*
X92563760Y-55741000D01*
X92629942Y-55747518D01*
X92629942Y-55747518D01*
G37*
G36*
X93420500Y-55003000D02*
G01*
X91618500Y-55003000D01*
X91618500Y-53201000D01*
X93420500Y-53201000D01*
X93420500Y-55003000D01*
X93420500Y-55003000D01*
G37*
G36*
X84306564Y-48489389D02*
G01*
X84497833Y-48568615D01*
X84497835Y-48568616D01*
X84669973Y-48683635D01*
X84816365Y-48830027D01*
X84931385Y-49002167D01*
X85010611Y-49193436D01*
X85051000Y-49396484D01*
X85051000Y-49603516D01*
X85010611Y-49806564D01*
X84931385Y-49997833D01*
X84931384Y-49997835D01*
X84816365Y-50169973D01*
X84669973Y-50316365D01*
X84497835Y-50431384D01*
X84497834Y-50431385D01*
X84497833Y-50431385D01*
X84306564Y-50510611D01*
X84103516Y-50551000D01*
X83896484Y-50551000D01*
X83693436Y-50510611D01*
X83502167Y-50431385D01*
X83502166Y-50431385D01*
X83502165Y-50431384D01*
X83330027Y-50316365D01*
X83183635Y-50169973D01*
X83068616Y-49997835D01*
X83068615Y-49997833D01*
X82989389Y-49806564D01*
X82949000Y-49603516D01*
X82949000Y-49396484D01*
X82989389Y-49193436D01*
X83068615Y-49002167D01*
X83183635Y-48830027D01*
X83330027Y-48683635D01*
X83502165Y-48568616D01*
X83502167Y-48568615D01*
X83693436Y-48489389D01*
X83896484Y-48449000D01*
X84103516Y-48449000D01*
X84306564Y-48489389D01*
X84306564Y-48489389D01*
G37*
G36*
X77806564Y-48489389D02*
G01*
X77997833Y-48568615D01*
X77997835Y-48568616D01*
X78169973Y-48683635D01*
X78316365Y-48830027D01*
X78431385Y-49002167D01*
X78510611Y-49193436D01*
X78551000Y-49396484D01*
X78551000Y-49603516D01*
X78510611Y-49806564D01*
X78431385Y-49997833D01*
X78431384Y-49997835D01*
X78316365Y-50169973D01*
X78169973Y-50316365D01*
X77997835Y-50431384D01*
X77997834Y-50431385D01*
X77997833Y-50431385D01*
X77806564Y-50510611D01*
X77603516Y-50551000D01*
X77396484Y-50551000D01*
X77193436Y-50510611D01*
X77002167Y-50431385D01*
X77002166Y-50431385D01*
X77002165Y-50431384D01*
X76830027Y-50316365D01*
X76683635Y-50169973D01*
X76568616Y-49997835D01*
X76568615Y-49997833D01*
X76489389Y-49806564D01*
X76449000Y-49603516D01*
X76449000Y-49396484D01*
X76489389Y-49193436D01*
X76568615Y-49002167D01*
X76683635Y-48830027D01*
X76830027Y-48683635D01*
X77002165Y-48568616D01*
X77002167Y-48568615D01*
X77193436Y-48489389D01*
X77396484Y-48449000D01*
X77603516Y-48449000D01*
X77806564Y-48489389D01*
X77806564Y-48489389D01*
G37*
G36*
X58806564Y-48489389D02*
G01*
X58997833Y-48568615D01*
X58997835Y-48568616D01*
X59169973Y-48683635D01*
X59316365Y-48830027D01*
X59431385Y-49002167D01*
X59510611Y-49193436D01*
X59551000Y-49396484D01*
X59551000Y-49603516D01*
X59510611Y-49806564D01*
X59431385Y-49997833D01*
X59431384Y-49997835D01*
X59316365Y-50169973D01*
X59169973Y-50316365D01*
X58997835Y-50431384D01*
X58997834Y-50431385D01*
X58997833Y-50431385D01*
X58806564Y-50510611D01*
X58603516Y-50551000D01*
X58396484Y-50551000D01*
X58193436Y-50510611D01*
X58002167Y-50431385D01*
X58002166Y-50431385D01*
X58002165Y-50431384D01*
X57830027Y-50316365D01*
X57683635Y-50169973D01*
X57568616Y-49997835D01*
X57568615Y-49997833D01*
X57489389Y-49806564D01*
X57449000Y-49603516D01*
X57449000Y-49396484D01*
X57489389Y-49193436D01*
X57568615Y-49002167D01*
X57683635Y-48830027D01*
X57830027Y-48683635D01*
X58002165Y-48568616D01*
X58002167Y-48568615D01*
X58193436Y-48489389D01*
X58396484Y-48449000D01*
X58603516Y-48449000D01*
X58806564Y-48489389D01*
X58806564Y-48489389D01*
G37*
G36*
X52306564Y-48489389D02*
G01*
X52497833Y-48568615D01*
X52497835Y-48568616D01*
X52669973Y-48683635D01*
X52816365Y-48830027D01*
X52931385Y-49002167D01*
X53010611Y-49193436D01*
X53051000Y-49396484D01*
X53051000Y-49603516D01*
X53010611Y-49806564D01*
X52931385Y-49997833D01*
X52931384Y-49997835D01*
X52816365Y-50169973D01*
X52669973Y-50316365D01*
X52497835Y-50431384D01*
X52497834Y-50431385D01*
X52497833Y-50431385D01*
X52306564Y-50510611D01*
X52103516Y-50551000D01*
X51896484Y-50551000D01*
X51693436Y-50510611D01*
X51502167Y-50431385D01*
X51502166Y-50431385D01*
X51502165Y-50431384D01*
X51330027Y-50316365D01*
X51183635Y-50169973D01*
X51068616Y-49997835D01*
X51068615Y-49997833D01*
X50989389Y-49806564D01*
X50949000Y-49603516D01*
X50949000Y-49396484D01*
X50989389Y-49193436D01*
X51068615Y-49002167D01*
X51183635Y-48830027D01*
X51330027Y-48683635D01*
X51502165Y-48568616D01*
X51502167Y-48568615D01*
X51693436Y-48489389D01*
X51896484Y-48449000D01*
X52103516Y-48449000D01*
X52306564Y-48489389D01*
X52306564Y-48489389D01*
G37*
G36*
X68302585Y-45087802D02*
G01*
X68452410Y-45117604D01*
X68734674Y-45234521D01*
X68988705Y-45404259D01*
X69204741Y-45620295D01*
X69374479Y-45874326D01*
X69491396Y-46156590D01*
X69551000Y-46456240D01*
X69551000Y-46761760D01*
X69491396Y-47061410D01*
X69374479Y-47343674D01*
X69204741Y-47597705D01*
X68988705Y-47813741D01*
X68734674Y-47983479D01*
X68452410Y-48100396D01*
X68302585Y-48130198D01*
X68152761Y-48160000D01*
X67847239Y-48160000D01*
X67697415Y-48130198D01*
X67547590Y-48100396D01*
X67265326Y-47983479D01*
X67011295Y-47813741D01*
X66795259Y-47597705D01*
X66625521Y-47343674D01*
X66508604Y-47061410D01*
X66449000Y-46761760D01*
X66449000Y-46456240D01*
X66508604Y-46156590D01*
X66625521Y-45874326D01*
X66795259Y-45620295D01*
X67011295Y-45404259D01*
X67265326Y-45234521D01*
X67547590Y-45117604D01*
X67697415Y-45087802D01*
X67847239Y-45058000D01*
X68152761Y-45058000D01*
X68302585Y-45087802D01*
X68302585Y-45087802D01*
G37*
G36*
X52306564Y-43989389D02*
G01*
X52497833Y-44068615D01*
X52497835Y-44068616D01*
X52669973Y-44183635D01*
X52816365Y-44330027D01*
X52931385Y-44502167D01*
X53010611Y-44693436D01*
X53051000Y-44896484D01*
X53051000Y-45103516D01*
X53010611Y-45306564D01*
X52970144Y-45404260D01*
X52931384Y-45497835D01*
X52816365Y-45669973D01*
X52669973Y-45816365D01*
X52497835Y-45931384D01*
X52497834Y-45931385D01*
X52497833Y-45931385D01*
X52306564Y-46010611D01*
X52103516Y-46051000D01*
X51896484Y-46051000D01*
X51693436Y-46010611D01*
X51502167Y-45931385D01*
X51502166Y-45931385D01*
X51502165Y-45931384D01*
X51330027Y-45816365D01*
X51183635Y-45669973D01*
X51068616Y-45497835D01*
X51029856Y-45404260D01*
X50989389Y-45306564D01*
X50949000Y-45103516D01*
X50949000Y-44896484D01*
X50989389Y-44693436D01*
X51068615Y-44502167D01*
X51183635Y-44330027D01*
X51330027Y-44183635D01*
X51502165Y-44068616D01*
X51502167Y-44068615D01*
X51693436Y-43989389D01*
X51896484Y-43949000D01*
X52103516Y-43949000D01*
X52306564Y-43989389D01*
X52306564Y-43989389D01*
G37*
G36*
X84306564Y-43989389D02*
G01*
X84497833Y-44068615D01*
X84497835Y-44068616D01*
X84669973Y-44183635D01*
X84816365Y-44330027D01*
X84931385Y-44502167D01*
X85010611Y-44693436D01*
X85051000Y-44896484D01*
X85051000Y-45103516D01*
X85010611Y-45306564D01*
X84970144Y-45404260D01*
X84931384Y-45497835D01*
X84816365Y-45669973D01*
X84669973Y-45816365D01*
X84497835Y-45931384D01*
X84497834Y-45931385D01*
X84497833Y-45931385D01*
X84306564Y-46010611D01*
X84103516Y-46051000D01*
X83896484Y-46051000D01*
X83693436Y-46010611D01*
X83502167Y-45931385D01*
X83502166Y-45931385D01*
X83502165Y-45931384D01*
X83330027Y-45816365D01*
X83183635Y-45669973D01*
X83068616Y-45497835D01*
X83029856Y-45404260D01*
X82989389Y-45306564D01*
X82949000Y-45103516D01*
X82949000Y-44896484D01*
X82989389Y-44693436D01*
X83068615Y-44502167D01*
X83183635Y-44330027D01*
X83330027Y-44183635D01*
X83502165Y-44068616D01*
X83502167Y-44068615D01*
X83693436Y-43989389D01*
X83896484Y-43949000D01*
X84103516Y-43949000D01*
X84306564Y-43989389D01*
X84306564Y-43989389D01*
G37*
G36*
X77806564Y-43989389D02*
G01*
X77997833Y-44068615D01*
X77997835Y-44068616D01*
X78169973Y-44183635D01*
X78316365Y-44330027D01*
X78431385Y-44502167D01*
X78510611Y-44693436D01*
X78551000Y-44896484D01*
X78551000Y-45103516D01*
X78510611Y-45306564D01*
X78470144Y-45404260D01*
X78431384Y-45497835D01*
X78316365Y-45669973D01*
X78169973Y-45816365D01*
X77997835Y-45931384D01*
X77997834Y-45931385D01*
X77997833Y-45931385D01*
X77806564Y-46010611D01*
X77603516Y-46051000D01*
X77396484Y-46051000D01*
X77193436Y-46010611D01*
X77002167Y-45931385D01*
X77002166Y-45931385D01*
X77002165Y-45931384D01*
X76830027Y-45816365D01*
X76683635Y-45669973D01*
X76568616Y-45497835D01*
X76529856Y-45404260D01*
X76489389Y-45306564D01*
X76449000Y-45103516D01*
X76449000Y-44896484D01*
X76489389Y-44693436D01*
X76568615Y-44502167D01*
X76683635Y-44330027D01*
X76830027Y-44183635D01*
X77002165Y-44068616D01*
X77002167Y-44068615D01*
X77193436Y-43989389D01*
X77396484Y-43949000D01*
X77603516Y-43949000D01*
X77806564Y-43989389D01*
X77806564Y-43989389D01*
G37*
G36*
X58806564Y-43989389D02*
G01*
X58997833Y-44068615D01*
X58997835Y-44068616D01*
X59169973Y-44183635D01*
X59316365Y-44330027D01*
X59431385Y-44502167D01*
X59510611Y-44693436D01*
X59551000Y-44896484D01*
X59551000Y-45103516D01*
X59510611Y-45306564D01*
X59470144Y-45404260D01*
X59431384Y-45497835D01*
X59316365Y-45669973D01*
X59169973Y-45816365D01*
X58997835Y-45931384D01*
X58997834Y-45931385D01*
X58997833Y-45931385D01*
X58806564Y-46010611D01*
X58603516Y-46051000D01*
X58396484Y-46051000D01*
X58193436Y-46010611D01*
X58002167Y-45931385D01*
X58002166Y-45931385D01*
X58002165Y-45931384D01*
X57830027Y-45816365D01*
X57683635Y-45669973D01*
X57568616Y-45497835D01*
X57529856Y-45404260D01*
X57489389Y-45306564D01*
X57449000Y-45103516D01*
X57449000Y-44896484D01*
X57489389Y-44693436D01*
X57568615Y-44502167D01*
X57683635Y-44330027D01*
X57830027Y-44183635D01*
X58002165Y-44068616D01*
X58002167Y-44068615D01*
X58193436Y-43989389D01*
X58396484Y-43949000D01*
X58603516Y-43949000D01*
X58806564Y-43989389D01*
X58806564Y-43989389D01*
G37*
M02*
