G04 #@! TF.GenerationSoftware,KiCad,Pcbnew,(5.1.0-0)*
G04 #@! TF.CreationDate,2020-11-05T15:54:36+00:00*
G04 #@! TF.ProjectId,OpenLaserMouseTHT,4f70656e-4c61-4736-9572-4d6f75736554,rev?*
G04 #@! TF.SameCoordinates,Original*
G04 #@! TF.FileFunction,Copper,L1,Top*
G04 #@! TF.FilePolarity,Positive*
%FSLAX46Y46*%
G04 Gerber Fmt 4.6, Leading zero omitted, Abs format (unit mm)*
G04 Created by KiCad (PCBNEW (5.1.0-0)) date 2020-11-05 15:54:36*
%MOMM*%
%LPD*%
G04 APERTURE LIST*
%ADD10C,1.600000*%
%ADD11O,1.600000X1.600000*%
%ADD12R,1.600000X1.600000*%
%ADD13R,1.050000X1.500000*%
%ADD14O,1.050000X1.500000*%
%ADD15C,3.000000*%
%ADD16C,2.000000*%
%ADD17O,1.700000X1.700000*%
%ADD18R,1.700000X1.700000*%
%ADD19C,1.400000*%
%ADD20R,1.400000X1.400000*%
%ADD21C,0.800000*%
%ADD22C,0.250000*%
%ADD23C,0.254000*%
G04 APERTURE END LIST*
D10*
X86610200Y-99644200D03*
X81610200Y-99644200D03*
X78613000Y-77800200D03*
X73613000Y-77800200D03*
D11*
X57531000Y-117919500D03*
X42291000Y-117919500D03*
X57531000Y-82359500D03*
X42291000Y-115379500D03*
X57531000Y-84899500D03*
X42291000Y-112839500D03*
X57531000Y-87439500D03*
X42291000Y-110299500D03*
X57531000Y-89979500D03*
X42291000Y-107759500D03*
X57531000Y-92519500D03*
X42291000Y-105219500D03*
X57531000Y-95059500D03*
X42291000Y-102679500D03*
X57531000Y-97599500D03*
X42291000Y-100139500D03*
X57531000Y-100139500D03*
X42291000Y-97599500D03*
X57531000Y-102679500D03*
X42291000Y-95059500D03*
X57531000Y-105219500D03*
X42291000Y-92519500D03*
X57531000Y-107759500D03*
X42291000Y-89979500D03*
X57531000Y-110299500D03*
X42291000Y-87439500D03*
X57531000Y-112839500D03*
X42291000Y-84899500D03*
X57531000Y-115379500D03*
D12*
X42291000Y-82359500D03*
D13*
X69215000Y-83769200D03*
D14*
X66675000Y-83769200D03*
X67945000Y-83769200D03*
D11*
X83210400Y-107962700D03*
D10*
X83210400Y-118122700D03*
D11*
X80086200Y-118110000D03*
D10*
X80086200Y-107950000D03*
D11*
X86410800Y-107962700D03*
D10*
X86410800Y-118122700D03*
D11*
X77012800Y-118110000D03*
D10*
X77012800Y-107950000D03*
D11*
X89509600Y-107962700D03*
D10*
X89509600Y-118122700D03*
D11*
X73939400Y-118110000D03*
D10*
X73939400Y-107950000D03*
X73613000Y-81051400D03*
X78613000Y-81051400D03*
X78609200Y-84302600D03*
X73609200Y-84302600D03*
X86610200Y-102717600D03*
X81610200Y-102717600D03*
X81614000Y-96621600D03*
X86614000Y-96621600D03*
X81614000Y-93472000D03*
X86614000Y-93472000D03*
X86584800Y-90449400D03*
X81584800Y-90449400D03*
X86584800Y-87325200D03*
X81584800Y-87325200D03*
D15*
X68000000Y-46609000D03*
D16*
X84000000Y-45000000D03*
X84000000Y-49500000D03*
X77500000Y-45000000D03*
X77500000Y-49500000D03*
X58500000Y-45000000D03*
X58500000Y-49500000D03*
X52000000Y-45000000D03*
X52000000Y-49500000D03*
D17*
X92519500Y-71882000D03*
X92519500Y-69342000D03*
X92519500Y-66802000D03*
X92519500Y-64262000D03*
X92519500Y-61722000D03*
X92519500Y-59182000D03*
X92519500Y-56642000D03*
D18*
X92519500Y-54102000D03*
D19*
X74322000Y-90000000D03*
X74322000Y-91780000D03*
X74322000Y-93560000D03*
X74322000Y-95340000D03*
X74322000Y-97120000D03*
X74322000Y-98900000D03*
X74322000Y-100680000D03*
X74322000Y-102460000D03*
X61722000Y-102460000D03*
X61722000Y-100680000D03*
X61722000Y-98900000D03*
X61722000Y-97120000D03*
X61722000Y-95340000D03*
X61722000Y-93560000D03*
X61722000Y-91780000D03*
D20*
X61722000Y-90000000D03*
D21*
X54096701Y-101554499D03*
D22*
X42291000Y-92519500D02*
X48785600Y-99014100D01*
X51325999Y-101554499D02*
X48785600Y-99014100D01*
X54096701Y-101554499D02*
X51325999Y-101554499D01*
X85610801Y-107162701D02*
X86410800Y-107962700D01*
X85273099Y-106824999D02*
X85610801Y-107162701D01*
X78137801Y-106824999D02*
X85273099Y-106824999D01*
X77012800Y-107950000D02*
X78137801Y-106824999D01*
X60696999Y-102952001D02*
X67879398Y-110134400D01*
X60696999Y-99925001D02*
X60696999Y-102952001D01*
X61722000Y-98900000D02*
X60696999Y-99925001D01*
X74828400Y-110134400D02*
X77012800Y-107950000D01*
X67879398Y-110134400D02*
X74828400Y-110134400D01*
X83197700Y-107950000D02*
X83210400Y-107962700D01*
X80086200Y-107950000D02*
X83197700Y-107950000D01*
X60246989Y-103138401D02*
X60246989Y-98595011D01*
X67692997Y-110584409D02*
X60246989Y-103138401D01*
X61022001Y-97819999D02*
X61722000Y-97120000D01*
X60246989Y-98595011D02*
X61022001Y-97819999D01*
X77451791Y-110584409D02*
X67692997Y-110584409D01*
X80086200Y-107950000D02*
X77451791Y-110584409D01*
X88709601Y-107162701D02*
X89509600Y-107962700D01*
X87921889Y-106374989D02*
X88709601Y-107162701D01*
X75514411Y-106374989D02*
X87921889Y-106374989D01*
X73939400Y-107950000D02*
X75514411Y-106374989D01*
X62747001Y-104365593D02*
X68065798Y-109684390D01*
X62747001Y-94585001D02*
X62747001Y-104365593D01*
X61722000Y-93560000D02*
X62747001Y-94585001D01*
X72205010Y-109684390D02*
X73939400Y-107950000D01*
X68065798Y-109684390D02*
X72205010Y-109684390D01*
X61722000Y-91780000D02*
X61850200Y-91780000D01*
X62421999Y-91080001D02*
X61722000Y-91780000D01*
X62627001Y-91080001D02*
X62421999Y-91080001D01*
X62747001Y-90960001D02*
X62627001Y-91080001D01*
X62747001Y-89609300D02*
X62747001Y-90960001D01*
X67945000Y-84411301D02*
X62747001Y-89609300D01*
X67945000Y-83769200D02*
X67945000Y-84411301D01*
X86610200Y-96625400D02*
X86614000Y-96621600D01*
X86614000Y-90478600D02*
X86584800Y-90449400D01*
X78587600Y-81305400D02*
X78613000Y-81330800D01*
X76212801Y-118909999D02*
X77012800Y-118110000D01*
X47843870Y-120932370D02*
X74190430Y-120932370D01*
X74190430Y-120932370D02*
X76212801Y-118909999D01*
X42291000Y-115379500D02*
X47843870Y-120932370D01*
X43090999Y-113639499D02*
X42291000Y-112839500D01*
X43416001Y-113964501D02*
X43090999Y-113639499D01*
X73939400Y-118110000D02*
X71567040Y-120482360D01*
X71567040Y-120482360D02*
X48193960Y-120482360D01*
X43416001Y-115704401D02*
X43416001Y-113964501D01*
X48193960Y-120482360D02*
X43416001Y-115704401D01*
X74439500Y-102578000D02*
X74322000Y-102460000D01*
X74322000Y-102460000D02*
X74322000Y-100680000D01*
X74322000Y-91780000D02*
X74322000Y-91617900D01*
X74322000Y-100680000D02*
X73265000Y-99623000D01*
X73265000Y-99623000D02*
X73265000Y-98177000D01*
X73265000Y-98177000D02*
X74322000Y-97120000D01*
X74322000Y-97120000D02*
X73285800Y-96083800D01*
X73285800Y-96083800D02*
X73285800Y-92816200D01*
X73285800Y-92816200D02*
X74322000Y-91780000D01*
X81352600Y-102460000D02*
X81610200Y-102717600D01*
X74322000Y-102460000D02*
X81352600Y-102460000D01*
X81610200Y-99644200D02*
X81610200Y-102717600D01*
X73022010Y-87801210D02*
X73022010Y-90480010D01*
X73022010Y-90480010D02*
X74322000Y-91780000D01*
X69215000Y-83994200D02*
X73022010Y-87801210D01*
X69215000Y-83769200D02*
X69215000Y-83994200D01*
X70895200Y-83769200D02*
X69215000Y-83769200D01*
X73613000Y-81051400D02*
X70895200Y-83769200D01*
X72813001Y-80251401D02*
X73613000Y-81051400D01*
X72813001Y-78600199D02*
X72813001Y-80251401D01*
X73613000Y-77800200D02*
X72813001Y-78600199D01*
X79212600Y-90449400D02*
X74322000Y-95340000D01*
X81584800Y-90449400D02*
X79212600Y-90449400D01*
X81584800Y-87325200D02*
X81584800Y-90449400D01*
X74322000Y-88589800D02*
X74322000Y-90000000D01*
X78609200Y-84302600D02*
X74322000Y-88589800D01*
X66675000Y-85044891D02*
X66675000Y-83769200D01*
X61722000Y-89997891D02*
X66675000Y-85044891D01*
X61722000Y-90000000D02*
X61722000Y-89997891D01*
D23*
G36*
X95340000Y-42773381D02*
G01*
X95340001Y-121226618D01*
X93226620Y-123340000D01*
X42773381Y-123340000D01*
X40660000Y-121226620D01*
X40660000Y-92519500D01*
X40849057Y-92519500D01*
X40876764Y-92800809D01*
X40958818Y-93071308D01*
X41092068Y-93320601D01*
X41271392Y-93539108D01*
X41489899Y-93718432D01*
X41622858Y-93789500D01*
X41489899Y-93860568D01*
X41271392Y-94039892D01*
X41092068Y-94258399D01*
X40958818Y-94507692D01*
X40876764Y-94778191D01*
X40849057Y-95059500D01*
X40876764Y-95340809D01*
X40958818Y-95611308D01*
X41092068Y-95860601D01*
X41271392Y-96079108D01*
X41489899Y-96258432D01*
X41622858Y-96329500D01*
X41489899Y-96400568D01*
X41271392Y-96579892D01*
X41092068Y-96798399D01*
X40958818Y-97047692D01*
X40876764Y-97318191D01*
X40849057Y-97599500D01*
X40876764Y-97880809D01*
X40958818Y-98151308D01*
X41092068Y-98400601D01*
X41271392Y-98619108D01*
X41489899Y-98798432D01*
X41622858Y-98869500D01*
X41489899Y-98940568D01*
X41271392Y-99119892D01*
X41092068Y-99338399D01*
X40958818Y-99587692D01*
X40876764Y-99858191D01*
X40849057Y-100139500D01*
X40876764Y-100420809D01*
X40958818Y-100691308D01*
X41092068Y-100940601D01*
X41271392Y-101159108D01*
X41489899Y-101338432D01*
X41622858Y-101409500D01*
X41489899Y-101480568D01*
X41271392Y-101659892D01*
X41092068Y-101878399D01*
X40958818Y-102127692D01*
X40876764Y-102398191D01*
X40849057Y-102679500D01*
X40876764Y-102960809D01*
X40958818Y-103231308D01*
X41092068Y-103480601D01*
X41271392Y-103699108D01*
X41489899Y-103878432D01*
X41622858Y-103949500D01*
X41489899Y-104020568D01*
X41271392Y-104199892D01*
X41092068Y-104418399D01*
X40958818Y-104667692D01*
X40876764Y-104938191D01*
X40849057Y-105219500D01*
X40876764Y-105500809D01*
X40958818Y-105771308D01*
X41092068Y-106020601D01*
X41271392Y-106239108D01*
X41489899Y-106418432D01*
X41622858Y-106489500D01*
X41489899Y-106560568D01*
X41271392Y-106739892D01*
X41092068Y-106958399D01*
X40958818Y-107207692D01*
X40876764Y-107478191D01*
X40849057Y-107759500D01*
X40876764Y-108040809D01*
X40958818Y-108311308D01*
X41092068Y-108560601D01*
X41271392Y-108779108D01*
X41489899Y-108958432D01*
X41622858Y-109029500D01*
X41489899Y-109100568D01*
X41271392Y-109279892D01*
X41092068Y-109498399D01*
X40958818Y-109747692D01*
X40876764Y-110018191D01*
X40849057Y-110299500D01*
X40876764Y-110580809D01*
X40958818Y-110851308D01*
X41092068Y-111100601D01*
X41271392Y-111319108D01*
X41489899Y-111498432D01*
X41622858Y-111569500D01*
X41489899Y-111640568D01*
X41271392Y-111819892D01*
X41092068Y-112038399D01*
X40958818Y-112287692D01*
X40876764Y-112558191D01*
X40849057Y-112839500D01*
X40876764Y-113120809D01*
X40958818Y-113391308D01*
X41092068Y-113640601D01*
X41271392Y-113859108D01*
X41489899Y-114038432D01*
X41622858Y-114109500D01*
X41489899Y-114180568D01*
X41271392Y-114359892D01*
X41092068Y-114578399D01*
X40958818Y-114827692D01*
X40876764Y-115098191D01*
X40849057Y-115379500D01*
X40876764Y-115660809D01*
X40958818Y-115931308D01*
X41092068Y-116180601D01*
X41271392Y-116399108D01*
X41489899Y-116578432D01*
X41622858Y-116649500D01*
X41489899Y-116720568D01*
X41271392Y-116899892D01*
X41092068Y-117118399D01*
X40958818Y-117367692D01*
X40876764Y-117638191D01*
X40849057Y-117919500D01*
X40876764Y-118200809D01*
X40958818Y-118471308D01*
X41092068Y-118720601D01*
X41271392Y-118939108D01*
X41489899Y-119118432D01*
X41739192Y-119251682D01*
X42009691Y-119333736D01*
X42220508Y-119354500D01*
X42361492Y-119354500D01*
X42572309Y-119333736D01*
X42842808Y-119251682D01*
X43092101Y-119118432D01*
X43310608Y-118939108D01*
X43489932Y-118720601D01*
X43623182Y-118471308D01*
X43705236Y-118200809D01*
X43732943Y-117919500D01*
X43730402Y-117893704D01*
X47280071Y-121443373D01*
X47303869Y-121472371D01*
X47332867Y-121496169D01*
X47419593Y-121567344D01*
X47535657Y-121629382D01*
X47551623Y-121637916D01*
X47694884Y-121681373D01*
X47806537Y-121692370D01*
X47806546Y-121692370D01*
X47843869Y-121696046D01*
X47881192Y-121692370D01*
X74153108Y-121692370D01*
X74190430Y-121696046D01*
X74227752Y-121692370D01*
X74227763Y-121692370D01*
X74339416Y-121681373D01*
X74482677Y-121637916D01*
X74614706Y-121567344D01*
X74730431Y-121472371D01*
X74754234Y-121443368D01*
X76686895Y-119510708D01*
X76731491Y-119524236D01*
X76942308Y-119545000D01*
X77083292Y-119545000D01*
X77294109Y-119524236D01*
X77564608Y-119442182D01*
X77813901Y-119308932D01*
X78032408Y-119129608D01*
X78211732Y-118911101D01*
X78344982Y-118661808D01*
X78427036Y-118391309D01*
X78454743Y-118110000D01*
X78644257Y-118110000D01*
X78671964Y-118391309D01*
X78754018Y-118661808D01*
X78887268Y-118911101D01*
X79066592Y-119129608D01*
X79285099Y-119308932D01*
X79534392Y-119442182D01*
X79804891Y-119524236D01*
X80015708Y-119545000D01*
X80156692Y-119545000D01*
X80367509Y-119524236D01*
X80638008Y-119442182D01*
X80887301Y-119308932D01*
X81105808Y-119129608D01*
X81117466Y-119115402D01*
X82397303Y-119115402D01*
X82468886Y-119359371D01*
X82724396Y-119480271D01*
X82998584Y-119549000D01*
X83280912Y-119562917D01*
X83560530Y-119521487D01*
X83826692Y-119426303D01*
X83951914Y-119359371D01*
X84023497Y-119115402D01*
X85597703Y-119115402D01*
X85669286Y-119359371D01*
X85924796Y-119480271D01*
X86198984Y-119549000D01*
X86481312Y-119562917D01*
X86760930Y-119521487D01*
X87027092Y-119426303D01*
X87152314Y-119359371D01*
X87223897Y-119115402D01*
X88696503Y-119115402D01*
X88768086Y-119359371D01*
X89023596Y-119480271D01*
X89297784Y-119549000D01*
X89580112Y-119562917D01*
X89859730Y-119521487D01*
X90125892Y-119426303D01*
X90251114Y-119359371D01*
X90322697Y-119115402D01*
X89509600Y-118302305D01*
X88696503Y-119115402D01*
X87223897Y-119115402D01*
X86410800Y-118302305D01*
X85597703Y-119115402D01*
X84023497Y-119115402D01*
X83210400Y-118302305D01*
X82397303Y-119115402D01*
X81117466Y-119115402D01*
X81285132Y-118911101D01*
X81418382Y-118661808D01*
X81500436Y-118391309D01*
X81519947Y-118193212D01*
X81770183Y-118193212D01*
X81811613Y-118472830D01*
X81906797Y-118738992D01*
X81973729Y-118864214D01*
X82217698Y-118935797D01*
X83030795Y-118122700D01*
X83390005Y-118122700D01*
X84203102Y-118935797D01*
X84447071Y-118864214D01*
X84567971Y-118608704D01*
X84636700Y-118334516D01*
X84643665Y-118193212D01*
X84970583Y-118193212D01*
X85012013Y-118472830D01*
X85107197Y-118738992D01*
X85174129Y-118864214D01*
X85418098Y-118935797D01*
X86231195Y-118122700D01*
X86590405Y-118122700D01*
X87403502Y-118935797D01*
X87647471Y-118864214D01*
X87768371Y-118608704D01*
X87837100Y-118334516D01*
X87844065Y-118193212D01*
X88069383Y-118193212D01*
X88110813Y-118472830D01*
X88205997Y-118738992D01*
X88272929Y-118864214D01*
X88516898Y-118935797D01*
X89329995Y-118122700D01*
X89689205Y-118122700D01*
X90502302Y-118935797D01*
X90746271Y-118864214D01*
X90867171Y-118608704D01*
X90935900Y-118334516D01*
X90949817Y-118052188D01*
X90908387Y-117772570D01*
X90813203Y-117506408D01*
X90746271Y-117381186D01*
X90502302Y-117309603D01*
X89689205Y-118122700D01*
X89329995Y-118122700D01*
X88516898Y-117309603D01*
X88272929Y-117381186D01*
X88152029Y-117636696D01*
X88083300Y-117910884D01*
X88069383Y-118193212D01*
X87844065Y-118193212D01*
X87851017Y-118052188D01*
X87809587Y-117772570D01*
X87714403Y-117506408D01*
X87647471Y-117381186D01*
X87403502Y-117309603D01*
X86590405Y-118122700D01*
X86231195Y-118122700D01*
X85418098Y-117309603D01*
X85174129Y-117381186D01*
X85053229Y-117636696D01*
X84984500Y-117910884D01*
X84970583Y-118193212D01*
X84643665Y-118193212D01*
X84650617Y-118052188D01*
X84609187Y-117772570D01*
X84514003Y-117506408D01*
X84447071Y-117381186D01*
X84203102Y-117309603D01*
X83390005Y-118122700D01*
X83030795Y-118122700D01*
X82217698Y-117309603D01*
X81973729Y-117381186D01*
X81852829Y-117636696D01*
X81784100Y-117910884D01*
X81770183Y-118193212D01*
X81519947Y-118193212D01*
X81528143Y-118110000D01*
X81500436Y-117828691D01*
X81418382Y-117558192D01*
X81285132Y-117308899D01*
X81138312Y-117129998D01*
X82397303Y-117129998D01*
X83210400Y-117943095D01*
X84023497Y-117129998D01*
X85597703Y-117129998D01*
X86410800Y-117943095D01*
X87223897Y-117129998D01*
X88696503Y-117129998D01*
X89509600Y-117943095D01*
X90322697Y-117129998D01*
X90251114Y-116886029D01*
X89995604Y-116765129D01*
X89721416Y-116696400D01*
X89439088Y-116682483D01*
X89159470Y-116723913D01*
X88893308Y-116819097D01*
X88768086Y-116886029D01*
X88696503Y-117129998D01*
X87223897Y-117129998D01*
X87152314Y-116886029D01*
X86896804Y-116765129D01*
X86622616Y-116696400D01*
X86340288Y-116682483D01*
X86060670Y-116723913D01*
X85794508Y-116819097D01*
X85669286Y-116886029D01*
X85597703Y-117129998D01*
X84023497Y-117129998D01*
X83951914Y-116886029D01*
X83696404Y-116765129D01*
X83422216Y-116696400D01*
X83139888Y-116682483D01*
X82860270Y-116723913D01*
X82594108Y-116819097D01*
X82468886Y-116886029D01*
X82397303Y-117129998D01*
X81138312Y-117129998D01*
X81105808Y-117090392D01*
X80887301Y-116911068D01*
X80638008Y-116777818D01*
X80367509Y-116695764D01*
X80156692Y-116675000D01*
X80015708Y-116675000D01*
X79804891Y-116695764D01*
X79534392Y-116777818D01*
X79285099Y-116911068D01*
X79066592Y-117090392D01*
X78887268Y-117308899D01*
X78754018Y-117558192D01*
X78671964Y-117828691D01*
X78644257Y-118110000D01*
X78454743Y-118110000D01*
X78427036Y-117828691D01*
X78344982Y-117558192D01*
X78211732Y-117308899D01*
X78032408Y-117090392D01*
X77813901Y-116911068D01*
X77564608Y-116777818D01*
X77294109Y-116695764D01*
X77083292Y-116675000D01*
X76942308Y-116675000D01*
X76731491Y-116695764D01*
X76460992Y-116777818D01*
X76211699Y-116911068D01*
X75993192Y-117090392D01*
X75813868Y-117308899D01*
X75680618Y-117558192D01*
X75598564Y-117828691D01*
X75570857Y-118110000D01*
X75598564Y-118391309D01*
X75612092Y-118435905D01*
X75139980Y-118908017D01*
X75271582Y-118661808D01*
X75353636Y-118391309D01*
X75381343Y-118110000D01*
X75353636Y-117828691D01*
X75271582Y-117558192D01*
X75138332Y-117308899D01*
X74959008Y-117090392D01*
X74740501Y-116911068D01*
X74491208Y-116777818D01*
X74220709Y-116695764D01*
X74009892Y-116675000D01*
X73868908Y-116675000D01*
X73658091Y-116695764D01*
X73387592Y-116777818D01*
X73138299Y-116911068D01*
X72919792Y-117090392D01*
X72740468Y-117308899D01*
X72607218Y-117558192D01*
X72525164Y-117828691D01*
X72497457Y-118110000D01*
X72525164Y-118391309D01*
X72538692Y-118435906D01*
X71252239Y-119722360D01*
X69664247Y-119722360D01*
X69666818Y-119721295D01*
X70262177Y-119323489D01*
X70768489Y-118817177D01*
X71166295Y-118221818D01*
X71440309Y-117560290D01*
X71580000Y-116858016D01*
X71580000Y-116141984D01*
X71440309Y-115439710D01*
X71166295Y-114778182D01*
X70768489Y-114182823D01*
X70262177Y-113676511D01*
X69666818Y-113278705D01*
X69005290Y-113004691D01*
X68303016Y-112865000D01*
X67586984Y-112865000D01*
X66884710Y-113004691D01*
X66223182Y-113278705D01*
X65627823Y-113676511D01*
X65121511Y-114182823D01*
X64723705Y-114778182D01*
X64449691Y-115439710D01*
X64310000Y-116141984D01*
X64310000Y-116858016D01*
X64449691Y-117560290D01*
X64723705Y-118221818D01*
X65121511Y-118817177D01*
X65627823Y-119323489D01*
X66223182Y-119721295D01*
X66225753Y-119722360D01*
X48508763Y-119722360D01*
X44176001Y-115389600D01*
X44176001Y-114001823D01*
X44179677Y-113964500D01*
X44176001Y-113927177D01*
X44176001Y-113927168D01*
X44165004Y-113815515D01*
X44121547Y-113672254D01*
X44050975Y-113540225D01*
X43956002Y-113424500D01*
X43926998Y-113400697D01*
X43691708Y-113165407D01*
X43705236Y-113120809D01*
X43732943Y-112839500D01*
X43705236Y-112558191D01*
X43623182Y-112287692D01*
X43489932Y-112038399D01*
X43310608Y-111819892D01*
X43092101Y-111640568D01*
X42959142Y-111569500D01*
X43092101Y-111498432D01*
X43310608Y-111319108D01*
X43489932Y-111100601D01*
X43623182Y-110851308D01*
X43705236Y-110580809D01*
X43732943Y-110299500D01*
X43705236Y-110018191D01*
X43623182Y-109747692D01*
X43489932Y-109498399D01*
X43310608Y-109279892D01*
X43092101Y-109100568D01*
X42959142Y-109029500D01*
X43092101Y-108958432D01*
X43310608Y-108779108D01*
X43489932Y-108560601D01*
X43623182Y-108311308D01*
X43705236Y-108040809D01*
X43732943Y-107759500D01*
X43705236Y-107478191D01*
X43623182Y-107207692D01*
X43489932Y-106958399D01*
X43310608Y-106739892D01*
X43092101Y-106560568D01*
X42959142Y-106489500D01*
X43092101Y-106418432D01*
X43310608Y-106239108D01*
X43489932Y-106020601D01*
X43623182Y-105771308D01*
X43705236Y-105500809D01*
X43732943Y-105219500D01*
X43705236Y-104938191D01*
X43623182Y-104667692D01*
X43489932Y-104418399D01*
X43310608Y-104199892D01*
X43092101Y-104020568D01*
X42959142Y-103949500D01*
X43092101Y-103878432D01*
X43310608Y-103699108D01*
X43489932Y-103480601D01*
X43623182Y-103231308D01*
X43705236Y-102960809D01*
X43732943Y-102679500D01*
X43705236Y-102398191D01*
X43623182Y-102127692D01*
X43489932Y-101878399D01*
X43310608Y-101659892D01*
X43092101Y-101480568D01*
X42959142Y-101409500D01*
X43092101Y-101338432D01*
X43310608Y-101159108D01*
X43489932Y-100940601D01*
X43623182Y-100691308D01*
X43705236Y-100420809D01*
X43732943Y-100139500D01*
X43705236Y-99858191D01*
X43623182Y-99587692D01*
X43489932Y-99338399D01*
X43310608Y-99119892D01*
X43092101Y-98940568D01*
X42959142Y-98869500D01*
X43092101Y-98798432D01*
X43310608Y-98619108D01*
X43489932Y-98400601D01*
X43623182Y-98151308D01*
X43705236Y-97880809D01*
X43732943Y-97599500D01*
X43705236Y-97318191D01*
X43623182Y-97047692D01*
X43489932Y-96798399D01*
X43310608Y-96579892D01*
X43092101Y-96400568D01*
X42959142Y-96329500D01*
X43092101Y-96258432D01*
X43310608Y-96079108D01*
X43489932Y-95860601D01*
X43623182Y-95611308D01*
X43705236Y-95340809D01*
X43732943Y-95059500D01*
X43730402Y-95033704D01*
X48274596Y-99577899D01*
X48274607Y-99577908D01*
X50762200Y-102065502D01*
X50785998Y-102094500D01*
X50901723Y-102189473D01*
X51033752Y-102260045D01*
X51177013Y-102303502D01*
X51288666Y-102314499D01*
X51288674Y-102314499D01*
X51325999Y-102318175D01*
X51363324Y-102314499D01*
X53392990Y-102314499D01*
X53436927Y-102358436D01*
X53606445Y-102471704D01*
X53794803Y-102549725D01*
X53994762Y-102589499D01*
X54198640Y-102589499D01*
X54398599Y-102549725D01*
X54586957Y-102471704D01*
X54756475Y-102358436D01*
X54900638Y-102214273D01*
X55013906Y-102044755D01*
X55091927Y-101856397D01*
X55131701Y-101656438D01*
X55131701Y-101452560D01*
X55091927Y-101252601D01*
X55013906Y-101064243D01*
X54900638Y-100894725D01*
X54756475Y-100750562D01*
X54586957Y-100637294D01*
X54398599Y-100559273D01*
X54198640Y-100519499D01*
X53994762Y-100519499D01*
X53794803Y-100559273D01*
X53606445Y-100637294D01*
X53436927Y-100750562D01*
X53392990Y-100794499D01*
X51640801Y-100794499D01*
X49349408Y-98503107D01*
X49349399Y-98503096D01*
X43691708Y-92845406D01*
X43705236Y-92800809D01*
X43732943Y-92519500D01*
X43705236Y-92238191D01*
X43623182Y-91967692D01*
X43489932Y-91718399D01*
X43310608Y-91499892D01*
X43092101Y-91320568D01*
X42954318Y-91246921D01*
X43146131Y-91131885D01*
X43354519Y-90942914D01*
X43522037Y-90716920D01*
X43642246Y-90462587D01*
X43682904Y-90328539D01*
X43560915Y-90106500D01*
X42418000Y-90106500D01*
X42418000Y-90126500D01*
X42164000Y-90126500D01*
X42164000Y-90106500D01*
X41021085Y-90106500D01*
X40899096Y-90328539D01*
X40939754Y-90462587D01*
X41059963Y-90716920D01*
X41227481Y-90942914D01*
X41435869Y-91131885D01*
X41627682Y-91246921D01*
X41489899Y-91320568D01*
X41271392Y-91499892D01*
X41092068Y-91718399D01*
X40958818Y-91967692D01*
X40876764Y-92238191D01*
X40849057Y-92519500D01*
X40660000Y-92519500D01*
X40660000Y-84899500D01*
X40849057Y-84899500D01*
X40876764Y-85180809D01*
X40958818Y-85451308D01*
X41092068Y-85700601D01*
X41271392Y-85919108D01*
X41489899Y-86098432D01*
X41622858Y-86169500D01*
X41489899Y-86240568D01*
X41271392Y-86419892D01*
X41092068Y-86638399D01*
X40958818Y-86887692D01*
X40876764Y-87158191D01*
X40849057Y-87439500D01*
X40876764Y-87720809D01*
X40958818Y-87991308D01*
X41092068Y-88240601D01*
X41271392Y-88459108D01*
X41489899Y-88638432D01*
X41627682Y-88712079D01*
X41435869Y-88827115D01*
X41227481Y-89016086D01*
X41059963Y-89242080D01*
X40939754Y-89496413D01*
X40899096Y-89630461D01*
X41021085Y-89852500D01*
X42164000Y-89852500D01*
X42164000Y-89832500D01*
X42418000Y-89832500D01*
X42418000Y-89852500D01*
X43560915Y-89852500D01*
X43682904Y-89630461D01*
X43642246Y-89496413D01*
X43522037Y-89242080D01*
X43354519Y-89016086D01*
X43146131Y-88827115D01*
X42954318Y-88712079D01*
X43092101Y-88638432D01*
X43310608Y-88459108D01*
X43489932Y-88240601D01*
X43623182Y-87991308D01*
X43705236Y-87720809D01*
X43732943Y-87439500D01*
X56089057Y-87439500D01*
X56116764Y-87720809D01*
X56198818Y-87991308D01*
X56332068Y-88240601D01*
X56511392Y-88459108D01*
X56729899Y-88638432D01*
X56862858Y-88709500D01*
X56729899Y-88780568D01*
X56511392Y-88959892D01*
X56332068Y-89178399D01*
X56198818Y-89427692D01*
X56116764Y-89698191D01*
X56089057Y-89979500D01*
X56116764Y-90260809D01*
X56198818Y-90531308D01*
X56332068Y-90780601D01*
X56511392Y-90999108D01*
X56729899Y-91178432D01*
X56862858Y-91249500D01*
X56729899Y-91320568D01*
X56511392Y-91499892D01*
X56332068Y-91718399D01*
X56198818Y-91967692D01*
X56116764Y-92238191D01*
X56089057Y-92519500D01*
X56116764Y-92800809D01*
X56198818Y-93071308D01*
X56332068Y-93320601D01*
X56511392Y-93539108D01*
X56729899Y-93718432D01*
X56862858Y-93789500D01*
X56729899Y-93860568D01*
X56511392Y-94039892D01*
X56332068Y-94258399D01*
X56198818Y-94507692D01*
X56116764Y-94778191D01*
X56089057Y-95059500D01*
X56116764Y-95340809D01*
X56198818Y-95611308D01*
X56332068Y-95860601D01*
X56511392Y-96079108D01*
X56729899Y-96258432D01*
X56862858Y-96329500D01*
X56729899Y-96400568D01*
X56511392Y-96579892D01*
X56332068Y-96798399D01*
X56198818Y-97047692D01*
X56116764Y-97318191D01*
X56089057Y-97599500D01*
X56116764Y-97880809D01*
X56198818Y-98151308D01*
X56332068Y-98400601D01*
X56511392Y-98619108D01*
X56729899Y-98798432D01*
X56862858Y-98869500D01*
X56729899Y-98940568D01*
X56511392Y-99119892D01*
X56332068Y-99338399D01*
X56198818Y-99587692D01*
X56116764Y-99858191D01*
X56089057Y-100139500D01*
X56116764Y-100420809D01*
X56198818Y-100691308D01*
X56332068Y-100940601D01*
X56511392Y-101159108D01*
X56729899Y-101338432D01*
X56862858Y-101409500D01*
X56729899Y-101480568D01*
X56511392Y-101659892D01*
X56332068Y-101878399D01*
X56198818Y-102127692D01*
X56116764Y-102398191D01*
X56089057Y-102679500D01*
X56116764Y-102960809D01*
X56198818Y-103231308D01*
X56332068Y-103480601D01*
X56511392Y-103699108D01*
X56729899Y-103878432D01*
X56862858Y-103949500D01*
X56729899Y-104020568D01*
X56511392Y-104199892D01*
X56332068Y-104418399D01*
X56198818Y-104667692D01*
X56116764Y-104938191D01*
X56089057Y-105219500D01*
X56116764Y-105500809D01*
X56198818Y-105771308D01*
X56332068Y-106020601D01*
X56511392Y-106239108D01*
X56729899Y-106418432D01*
X56862858Y-106489500D01*
X56729899Y-106560568D01*
X56511392Y-106739892D01*
X56332068Y-106958399D01*
X56198818Y-107207692D01*
X56116764Y-107478191D01*
X56089057Y-107759500D01*
X56116764Y-108040809D01*
X56198818Y-108311308D01*
X56332068Y-108560601D01*
X56511392Y-108779108D01*
X56729899Y-108958432D01*
X56862858Y-109029500D01*
X56729899Y-109100568D01*
X56511392Y-109279892D01*
X56332068Y-109498399D01*
X56198818Y-109747692D01*
X56116764Y-110018191D01*
X56089057Y-110299500D01*
X56116764Y-110580809D01*
X56198818Y-110851308D01*
X56332068Y-111100601D01*
X56511392Y-111319108D01*
X56729899Y-111498432D01*
X56862858Y-111569500D01*
X56729899Y-111640568D01*
X56511392Y-111819892D01*
X56332068Y-112038399D01*
X56198818Y-112287692D01*
X56116764Y-112558191D01*
X56089057Y-112839500D01*
X56116764Y-113120809D01*
X56198818Y-113391308D01*
X56332068Y-113640601D01*
X56511392Y-113859108D01*
X56729899Y-114038432D01*
X56862858Y-114109500D01*
X56729899Y-114180568D01*
X56511392Y-114359892D01*
X56332068Y-114578399D01*
X56198818Y-114827692D01*
X56116764Y-115098191D01*
X56089057Y-115379500D01*
X56116764Y-115660809D01*
X56198818Y-115931308D01*
X56332068Y-116180601D01*
X56511392Y-116399108D01*
X56729899Y-116578432D01*
X56862858Y-116649500D01*
X56729899Y-116720568D01*
X56511392Y-116899892D01*
X56332068Y-117118399D01*
X56198818Y-117367692D01*
X56116764Y-117638191D01*
X56089057Y-117919500D01*
X56116764Y-118200809D01*
X56198818Y-118471308D01*
X56332068Y-118720601D01*
X56511392Y-118939108D01*
X56729899Y-119118432D01*
X56979192Y-119251682D01*
X57249691Y-119333736D01*
X57460508Y-119354500D01*
X57601492Y-119354500D01*
X57812309Y-119333736D01*
X58082808Y-119251682D01*
X58332101Y-119118432D01*
X58550608Y-118939108D01*
X58729932Y-118720601D01*
X58863182Y-118471308D01*
X58945236Y-118200809D01*
X58972943Y-117919500D01*
X58945236Y-117638191D01*
X58863182Y-117367692D01*
X58729932Y-117118399D01*
X58550608Y-116899892D01*
X58332101Y-116720568D01*
X58199142Y-116649500D01*
X58332101Y-116578432D01*
X58550608Y-116399108D01*
X58729932Y-116180601D01*
X58863182Y-115931308D01*
X58945236Y-115660809D01*
X58972943Y-115379500D01*
X58945236Y-115098191D01*
X58863182Y-114827692D01*
X58729932Y-114578399D01*
X58550608Y-114359892D01*
X58332101Y-114180568D01*
X58199142Y-114109500D01*
X58332101Y-114038432D01*
X58550608Y-113859108D01*
X58729932Y-113640601D01*
X58863182Y-113391308D01*
X58945236Y-113120809D01*
X58972943Y-112839500D01*
X58945236Y-112558191D01*
X58863182Y-112287692D01*
X58729932Y-112038399D01*
X58550608Y-111819892D01*
X58332101Y-111640568D01*
X58199142Y-111569500D01*
X58332101Y-111498432D01*
X58550608Y-111319108D01*
X58729932Y-111100601D01*
X58863182Y-110851308D01*
X58945236Y-110580809D01*
X58972943Y-110299500D01*
X58945236Y-110018191D01*
X58863182Y-109747692D01*
X58729932Y-109498399D01*
X58550608Y-109279892D01*
X58332101Y-109100568D01*
X58199142Y-109029500D01*
X58332101Y-108958432D01*
X58550608Y-108779108D01*
X58729932Y-108560601D01*
X58863182Y-108311308D01*
X58945236Y-108040809D01*
X58972943Y-107759500D01*
X58945236Y-107478191D01*
X58863182Y-107207692D01*
X58729932Y-106958399D01*
X58550608Y-106739892D01*
X58332101Y-106560568D01*
X58199142Y-106489500D01*
X58332101Y-106418432D01*
X58550608Y-106239108D01*
X58729932Y-106020601D01*
X58863182Y-105771308D01*
X58945236Y-105500809D01*
X58972943Y-105219500D01*
X58945236Y-104938191D01*
X58863182Y-104667692D01*
X58729932Y-104418399D01*
X58550608Y-104199892D01*
X58332101Y-104020568D01*
X58199142Y-103949500D01*
X58332101Y-103878432D01*
X58550608Y-103699108D01*
X58729932Y-103480601D01*
X58863182Y-103231308D01*
X58945236Y-102960809D01*
X58972943Y-102679500D01*
X58945236Y-102398191D01*
X58863182Y-102127692D01*
X58729932Y-101878399D01*
X58550608Y-101659892D01*
X58332101Y-101480568D01*
X58199142Y-101409500D01*
X58332101Y-101338432D01*
X58550608Y-101159108D01*
X58729932Y-100940601D01*
X58863182Y-100691308D01*
X58945236Y-100420809D01*
X58972943Y-100139500D01*
X58945236Y-99858191D01*
X58863182Y-99587692D01*
X58729932Y-99338399D01*
X58550608Y-99119892D01*
X58332101Y-98940568D01*
X58199142Y-98869500D01*
X58332101Y-98798432D01*
X58550608Y-98619108D01*
X58570383Y-98595011D01*
X59483313Y-98595011D01*
X59486990Y-98632343D01*
X59486989Y-103101078D01*
X59483313Y-103138401D01*
X59486989Y-103175723D01*
X59486989Y-103175733D01*
X59497986Y-103287386D01*
X59531336Y-103397327D01*
X59541443Y-103430647D01*
X59612015Y-103562677D01*
X59631956Y-103586975D01*
X59706988Y-103678402D01*
X59735992Y-103702205D01*
X67129202Y-111095417D01*
X67152996Y-111124410D01*
X67181989Y-111148204D01*
X67181993Y-111148208D01*
X67252682Y-111206220D01*
X67268721Y-111219383D01*
X67400750Y-111289955D01*
X67544011Y-111333412D01*
X67655664Y-111344409D01*
X67655673Y-111344409D01*
X67692996Y-111348085D01*
X67730319Y-111344409D01*
X77414469Y-111344409D01*
X77451791Y-111348085D01*
X77489113Y-111344409D01*
X77489124Y-111344409D01*
X77600777Y-111333412D01*
X77744038Y-111289955D01*
X77876067Y-111219383D01*
X77991792Y-111124410D01*
X78015595Y-111095406D01*
X79762314Y-109348688D01*
X79944865Y-109385000D01*
X80227535Y-109385000D01*
X80504774Y-109329853D01*
X80765927Y-109221680D01*
X81000959Y-109064637D01*
X81200837Y-108864759D01*
X81304243Y-108710000D01*
X81982711Y-108710000D01*
X82011468Y-108763801D01*
X82190792Y-108982308D01*
X82409299Y-109161632D01*
X82658592Y-109294882D01*
X82929091Y-109376936D01*
X83139908Y-109397700D01*
X83280892Y-109397700D01*
X83491709Y-109376936D01*
X83762208Y-109294882D01*
X84011501Y-109161632D01*
X84230008Y-108982308D01*
X84409332Y-108763801D01*
X84542582Y-108514508D01*
X84624636Y-108244009D01*
X84652343Y-107962700D01*
X84624636Y-107681391D01*
X84595396Y-107584999D01*
X84958298Y-107584999D01*
X85010092Y-107636793D01*
X84996564Y-107681391D01*
X84968857Y-107962700D01*
X84996564Y-108244009D01*
X85078618Y-108514508D01*
X85211868Y-108763801D01*
X85391192Y-108982308D01*
X85609699Y-109161632D01*
X85858992Y-109294882D01*
X86129491Y-109376936D01*
X86340308Y-109397700D01*
X86481292Y-109397700D01*
X86692109Y-109376936D01*
X86962608Y-109294882D01*
X87211901Y-109161632D01*
X87430408Y-108982308D01*
X87609732Y-108763801D01*
X87742982Y-108514508D01*
X87825036Y-108244009D01*
X87852743Y-107962700D01*
X87825036Y-107681391D01*
X87742982Y-107410892D01*
X87609732Y-107161599D01*
X87587894Y-107134989D01*
X87607088Y-107134989D01*
X88108892Y-107636794D01*
X88095364Y-107681391D01*
X88067657Y-107962700D01*
X88095364Y-108244009D01*
X88177418Y-108514508D01*
X88310668Y-108763801D01*
X88489992Y-108982308D01*
X88708499Y-109161632D01*
X88957792Y-109294882D01*
X89228291Y-109376936D01*
X89439108Y-109397700D01*
X89580092Y-109397700D01*
X89790909Y-109376936D01*
X90061408Y-109294882D01*
X90310701Y-109161632D01*
X90529208Y-108982308D01*
X90708532Y-108763801D01*
X90841782Y-108514508D01*
X90923836Y-108244009D01*
X90951543Y-107962700D01*
X90923836Y-107681391D01*
X90841782Y-107410892D01*
X90708532Y-107161599D01*
X90529208Y-106943092D01*
X90310701Y-106763768D01*
X90061408Y-106630518D01*
X89790909Y-106548464D01*
X89580092Y-106527700D01*
X89439108Y-106527700D01*
X89228291Y-106548464D01*
X89183694Y-106561992D01*
X88485692Y-105863991D01*
X88461890Y-105834988D01*
X88346165Y-105740015D01*
X88214136Y-105669443D01*
X88070875Y-105625986D01*
X87959222Y-105614989D01*
X87959211Y-105614989D01*
X87921889Y-105611313D01*
X87884567Y-105614989D01*
X75551734Y-105614989D01*
X75514411Y-105611313D01*
X75477088Y-105614989D01*
X75477078Y-105614989D01*
X75365425Y-105625986D01*
X75222164Y-105669443D01*
X75090134Y-105740015D01*
X75052004Y-105771308D01*
X74974410Y-105834988D01*
X74950612Y-105863986D01*
X74263286Y-106551312D01*
X74080735Y-106515000D01*
X73798065Y-106515000D01*
X73520826Y-106570147D01*
X73259673Y-106678320D01*
X73024641Y-106835363D01*
X72824763Y-107035241D01*
X72667720Y-107270273D01*
X72559547Y-107531426D01*
X72504400Y-107808665D01*
X72504400Y-108091335D01*
X72540712Y-108273886D01*
X71890209Y-108924390D01*
X68380600Y-108924390D01*
X63507001Y-104050792D01*
X63507001Y-103670000D01*
X72587123Y-103670000D01*
X72622000Y-103673435D01*
X72656877Y-103670000D01*
X72761184Y-103659727D01*
X72895020Y-103619128D01*
X73018363Y-103553200D01*
X73126475Y-103464475D01*
X73215200Y-103356363D01*
X73259705Y-103273099D01*
X73285038Y-103311013D01*
X73470987Y-103496962D01*
X73689641Y-103643061D01*
X73932595Y-103743696D01*
X74190514Y-103795000D01*
X74453486Y-103795000D01*
X74711405Y-103743696D01*
X74954359Y-103643061D01*
X75173013Y-103496962D01*
X75358962Y-103311013D01*
X75419775Y-103220000D01*
X80265069Y-103220000D01*
X80338520Y-103397327D01*
X80495563Y-103632359D01*
X80695441Y-103832237D01*
X80930473Y-103989280D01*
X81191626Y-104097453D01*
X81468865Y-104152600D01*
X81751535Y-104152600D01*
X82028774Y-104097453D01*
X82289927Y-103989280D01*
X82524959Y-103832237D01*
X82646894Y-103710302D01*
X85797103Y-103710302D01*
X85868686Y-103954271D01*
X86124196Y-104075171D01*
X86398384Y-104143900D01*
X86680712Y-104157817D01*
X86960330Y-104116387D01*
X87226492Y-104021203D01*
X87351714Y-103954271D01*
X87423297Y-103710302D01*
X86610200Y-102897205D01*
X85797103Y-103710302D01*
X82646894Y-103710302D01*
X82724837Y-103632359D01*
X82881880Y-103397327D01*
X82990053Y-103136174D01*
X83045200Y-102858935D01*
X83045200Y-102788112D01*
X85169983Y-102788112D01*
X85211413Y-103067730D01*
X85306597Y-103333892D01*
X85373529Y-103459114D01*
X85617498Y-103530697D01*
X86430595Y-102717600D01*
X86789805Y-102717600D01*
X87602902Y-103530697D01*
X87846871Y-103459114D01*
X87967771Y-103203604D01*
X88036500Y-102929416D01*
X88050417Y-102647088D01*
X88008987Y-102367470D01*
X87913803Y-102101308D01*
X87846871Y-101976086D01*
X87602902Y-101904503D01*
X86789805Y-102717600D01*
X86430595Y-102717600D01*
X85617498Y-101904503D01*
X85373529Y-101976086D01*
X85252629Y-102231596D01*
X85183900Y-102505784D01*
X85169983Y-102788112D01*
X83045200Y-102788112D01*
X83045200Y-102576265D01*
X82990053Y-102299026D01*
X82881880Y-102037873D01*
X82724837Y-101802841D01*
X82646894Y-101724898D01*
X85797103Y-101724898D01*
X86610200Y-102537995D01*
X87423297Y-101724898D01*
X87351714Y-101480929D01*
X87096204Y-101360029D01*
X86822016Y-101291300D01*
X86539688Y-101277383D01*
X86260070Y-101318813D01*
X85993908Y-101413997D01*
X85868686Y-101480929D01*
X85797103Y-101724898D01*
X82646894Y-101724898D01*
X82524959Y-101602963D01*
X82370200Y-101499557D01*
X82370200Y-100862243D01*
X82524959Y-100758837D01*
X82646894Y-100636902D01*
X85797103Y-100636902D01*
X85868686Y-100880871D01*
X86124196Y-101001771D01*
X86398384Y-101070500D01*
X86680712Y-101084417D01*
X86960330Y-101042987D01*
X87226492Y-100947803D01*
X87351714Y-100880871D01*
X87423297Y-100636902D01*
X86610200Y-99823805D01*
X85797103Y-100636902D01*
X82646894Y-100636902D01*
X82724837Y-100558959D01*
X82881880Y-100323927D01*
X82990053Y-100062774D01*
X83045200Y-99785535D01*
X83045200Y-99714712D01*
X85169983Y-99714712D01*
X85211413Y-99994330D01*
X85306597Y-100260492D01*
X85373529Y-100385714D01*
X85617498Y-100457297D01*
X86430595Y-99644200D01*
X86789805Y-99644200D01*
X87602902Y-100457297D01*
X87846871Y-100385714D01*
X87967771Y-100130204D01*
X88036500Y-99856016D01*
X88050417Y-99573688D01*
X88008987Y-99294070D01*
X87913803Y-99027908D01*
X87846871Y-98902686D01*
X87602902Y-98831103D01*
X86789805Y-99644200D01*
X86430595Y-99644200D01*
X85617498Y-98831103D01*
X85373529Y-98902686D01*
X85252629Y-99158196D01*
X85183900Y-99432384D01*
X85169983Y-99714712D01*
X83045200Y-99714712D01*
X83045200Y-99502865D01*
X82990053Y-99225626D01*
X82881880Y-98964473D01*
X82724837Y-98729441D01*
X82646894Y-98651498D01*
X85797103Y-98651498D01*
X86610200Y-99464595D01*
X87423297Y-98651498D01*
X87351714Y-98407529D01*
X87096204Y-98286629D01*
X86822016Y-98217900D01*
X86539688Y-98203983D01*
X86260070Y-98245413D01*
X85993908Y-98340597D01*
X85868686Y-98407529D01*
X85797103Y-98651498D01*
X82646894Y-98651498D01*
X82524959Y-98529563D01*
X82289927Y-98372520D01*
X82028774Y-98264347D01*
X81751535Y-98209200D01*
X81468865Y-98209200D01*
X81191626Y-98264347D01*
X80930473Y-98372520D01*
X80695441Y-98529563D01*
X80495563Y-98729441D01*
X80338520Y-98964473D01*
X80230347Y-99225626D01*
X80175200Y-99502865D01*
X80175200Y-99785535D01*
X80230347Y-100062774D01*
X80338520Y-100323927D01*
X80495563Y-100558959D01*
X80695441Y-100758837D01*
X80850200Y-100862244D01*
X80850201Y-101499556D01*
X80695441Y-101602963D01*
X80598404Y-101700000D01*
X75419775Y-101700000D01*
X75358962Y-101608987D01*
X75319975Y-101570000D01*
X75358962Y-101531013D01*
X75505061Y-101312359D01*
X75605696Y-101069405D01*
X75657000Y-100811486D01*
X75657000Y-100548514D01*
X75605696Y-100290595D01*
X75505061Y-100047641D01*
X75358962Y-99828987D01*
X75324109Y-99794134D01*
X75359925Y-99758317D01*
X75243271Y-99641663D01*
X75477037Y-99582203D01*
X75587934Y-99343758D01*
X75650183Y-99088260D01*
X75661390Y-98825527D01*
X75621125Y-98565656D01*
X75530935Y-98318634D01*
X75477037Y-98217797D01*
X75243271Y-98158337D01*
X75359925Y-98041683D01*
X75324109Y-98005867D01*
X75358962Y-97971013D01*
X75505061Y-97752359D01*
X75605696Y-97509405D01*
X75657000Y-97251486D01*
X75657000Y-96988514D01*
X75605696Y-96730595D01*
X75505061Y-96487641D01*
X75500133Y-96480265D01*
X80179000Y-96480265D01*
X80179000Y-96762935D01*
X80234147Y-97040174D01*
X80342320Y-97301327D01*
X80499363Y-97536359D01*
X80699241Y-97736237D01*
X80934273Y-97893280D01*
X81195426Y-98001453D01*
X81472665Y-98056600D01*
X81755335Y-98056600D01*
X82032574Y-98001453D01*
X82293727Y-97893280D01*
X82528759Y-97736237D01*
X82650694Y-97614302D01*
X85800903Y-97614302D01*
X85872486Y-97858271D01*
X86127996Y-97979171D01*
X86402184Y-98047900D01*
X86684512Y-98061817D01*
X86964130Y-98020387D01*
X87230292Y-97925203D01*
X87355514Y-97858271D01*
X87427097Y-97614302D01*
X86614000Y-96801205D01*
X85800903Y-97614302D01*
X82650694Y-97614302D01*
X82728637Y-97536359D01*
X82885680Y-97301327D01*
X82993853Y-97040174D01*
X83049000Y-96762935D01*
X83049000Y-96692112D01*
X85173783Y-96692112D01*
X85215213Y-96971730D01*
X85310397Y-97237892D01*
X85377329Y-97363114D01*
X85621298Y-97434697D01*
X86434395Y-96621600D01*
X86793605Y-96621600D01*
X87606702Y-97434697D01*
X87850671Y-97363114D01*
X87971571Y-97107604D01*
X88040300Y-96833416D01*
X88054217Y-96551088D01*
X88012787Y-96271470D01*
X87917603Y-96005308D01*
X87850671Y-95880086D01*
X87606702Y-95808503D01*
X86793605Y-96621600D01*
X86434395Y-96621600D01*
X85621298Y-95808503D01*
X85377329Y-95880086D01*
X85256429Y-96135596D01*
X85187700Y-96409784D01*
X85173783Y-96692112D01*
X83049000Y-96692112D01*
X83049000Y-96480265D01*
X82993853Y-96203026D01*
X82885680Y-95941873D01*
X82728637Y-95706841D01*
X82650694Y-95628898D01*
X85800903Y-95628898D01*
X86614000Y-96441995D01*
X87427097Y-95628898D01*
X87355514Y-95384929D01*
X87100004Y-95264029D01*
X86825816Y-95195300D01*
X86543488Y-95181383D01*
X86263870Y-95222813D01*
X85997708Y-95317997D01*
X85872486Y-95384929D01*
X85800903Y-95628898D01*
X82650694Y-95628898D01*
X82528759Y-95506963D01*
X82293727Y-95349920D01*
X82032574Y-95241747D01*
X81755335Y-95186600D01*
X81472665Y-95186600D01*
X81195426Y-95241747D01*
X80934273Y-95349920D01*
X80699241Y-95506963D01*
X80499363Y-95706841D01*
X80342320Y-95941873D01*
X80234147Y-96203026D01*
X80179000Y-96480265D01*
X75500133Y-96480265D01*
X75358962Y-96268987D01*
X75319975Y-96230000D01*
X75358962Y-96191013D01*
X75505061Y-95972359D01*
X75605696Y-95729405D01*
X75657000Y-95471486D01*
X75657000Y-95208514D01*
X75635645Y-95101156D01*
X77406136Y-93330665D01*
X80179000Y-93330665D01*
X80179000Y-93613335D01*
X80234147Y-93890574D01*
X80342320Y-94151727D01*
X80499363Y-94386759D01*
X80699241Y-94586637D01*
X80934273Y-94743680D01*
X81195426Y-94851853D01*
X81472665Y-94907000D01*
X81755335Y-94907000D01*
X82032574Y-94851853D01*
X82293727Y-94743680D01*
X82528759Y-94586637D01*
X82650694Y-94464702D01*
X85800903Y-94464702D01*
X85872486Y-94708671D01*
X86127996Y-94829571D01*
X86402184Y-94898300D01*
X86684512Y-94912217D01*
X86964130Y-94870787D01*
X87230292Y-94775603D01*
X87355514Y-94708671D01*
X87427097Y-94464702D01*
X86614000Y-93651605D01*
X85800903Y-94464702D01*
X82650694Y-94464702D01*
X82728637Y-94386759D01*
X82885680Y-94151727D01*
X82993853Y-93890574D01*
X83049000Y-93613335D01*
X83049000Y-93542512D01*
X85173783Y-93542512D01*
X85215213Y-93822130D01*
X85310397Y-94088292D01*
X85377329Y-94213514D01*
X85621298Y-94285097D01*
X86434395Y-93472000D01*
X86793605Y-93472000D01*
X87606702Y-94285097D01*
X87850671Y-94213514D01*
X87971571Y-93958004D01*
X88040300Y-93683816D01*
X88054217Y-93401488D01*
X88012787Y-93121870D01*
X87917603Y-92855708D01*
X87850671Y-92730486D01*
X87606702Y-92658903D01*
X86793605Y-93472000D01*
X86434395Y-93472000D01*
X85621298Y-92658903D01*
X85377329Y-92730486D01*
X85256429Y-92985996D01*
X85187700Y-93260184D01*
X85173783Y-93542512D01*
X83049000Y-93542512D01*
X83049000Y-93330665D01*
X82993853Y-93053426D01*
X82885680Y-92792273D01*
X82728637Y-92557241D01*
X82650694Y-92479298D01*
X85800903Y-92479298D01*
X86614000Y-93292395D01*
X87427097Y-92479298D01*
X87355514Y-92235329D01*
X87100004Y-92114429D01*
X86825816Y-92045700D01*
X86543488Y-92031783D01*
X86263870Y-92073213D01*
X85997708Y-92168397D01*
X85872486Y-92235329D01*
X85800903Y-92479298D01*
X82650694Y-92479298D01*
X82528759Y-92357363D01*
X82293727Y-92200320D01*
X82032574Y-92092147D01*
X81755335Y-92037000D01*
X81472665Y-92037000D01*
X81195426Y-92092147D01*
X80934273Y-92200320D01*
X80699241Y-92357363D01*
X80499363Y-92557241D01*
X80342320Y-92792273D01*
X80234147Y-93053426D01*
X80179000Y-93330665D01*
X77406136Y-93330665D01*
X79527402Y-91209400D01*
X80366757Y-91209400D01*
X80470163Y-91364159D01*
X80670041Y-91564037D01*
X80905073Y-91721080D01*
X81166226Y-91829253D01*
X81443465Y-91884400D01*
X81726135Y-91884400D01*
X82003374Y-91829253D01*
X82264527Y-91721080D01*
X82499559Y-91564037D01*
X82621494Y-91442102D01*
X85771703Y-91442102D01*
X85843286Y-91686071D01*
X86098796Y-91806971D01*
X86372984Y-91875700D01*
X86655312Y-91889617D01*
X86934930Y-91848187D01*
X87201092Y-91753003D01*
X87326314Y-91686071D01*
X87397897Y-91442102D01*
X86584800Y-90629005D01*
X85771703Y-91442102D01*
X82621494Y-91442102D01*
X82699437Y-91364159D01*
X82856480Y-91129127D01*
X82964653Y-90867974D01*
X83019800Y-90590735D01*
X83019800Y-90519912D01*
X85144583Y-90519912D01*
X85186013Y-90799530D01*
X85281197Y-91065692D01*
X85348129Y-91190914D01*
X85592098Y-91262497D01*
X86405195Y-90449400D01*
X86764405Y-90449400D01*
X87577502Y-91262497D01*
X87821471Y-91190914D01*
X87942371Y-90935404D01*
X88011100Y-90661216D01*
X88025017Y-90378888D01*
X87983587Y-90099270D01*
X87888403Y-89833108D01*
X87821471Y-89707886D01*
X87577502Y-89636303D01*
X86764405Y-90449400D01*
X86405195Y-90449400D01*
X85592098Y-89636303D01*
X85348129Y-89707886D01*
X85227229Y-89963396D01*
X85158500Y-90237584D01*
X85144583Y-90519912D01*
X83019800Y-90519912D01*
X83019800Y-90308065D01*
X82964653Y-90030826D01*
X82856480Y-89769673D01*
X82699437Y-89534641D01*
X82621494Y-89456698D01*
X85771703Y-89456698D01*
X86584800Y-90269795D01*
X87397897Y-89456698D01*
X87326314Y-89212729D01*
X87070804Y-89091829D01*
X86796616Y-89023100D01*
X86514288Y-89009183D01*
X86234670Y-89050613D01*
X85968508Y-89145797D01*
X85843286Y-89212729D01*
X85771703Y-89456698D01*
X82621494Y-89456698D01*
X82499559Y-89334763D01*
X82344800Y-89231357D01*
X82344800Y-88543243D01*
X82499559Y-88439837D01*
X82621494Y-88317902D01*
X85771703Y-88317902D01*
X85843286Y-88561871D01*
X86098796Y-88682771D01*
X86372984Y-88751500D01*
X86655312Y-88765417D01*
X86934930Y-88723987D01*
X87201092Y-88628803D01*
X87326314Y-88561871D01*
X87397897Y-88317902D01*
X86584800Y-87504805D01*
X85771703Y-88317902D01*
X82621494Y-88317902D01*
X82699437Y-88239959D01*
X82856480Y-88004927D01*
X82964653Y-87743774D01*
X83019800Y-87466535D01*
X83019800Y-87395712D01*
X85144583Y-87395712D01*
X85186013Y-87675330D01*
X85281197Y-87941492D01*
X85348129Y-88066714D01*
X85592098Y-88138297D01*
X86405195Y-87325200D01*
X86764405Y-87325200D01*
X87577502Y-88138297D01*
X87821471Y-88066714D01*
X87942371Y-87811204D01*
X88011100Y-87537016D01*
X88025017Y-87254688D01*
X87983587Y-86975070D01*
X87888403Y-86708908D01*
X87821471Y-86583686D01*
X87577502Y-86512103D01*
X86764405Y-87325200D01*
X86405195Y-87325200D01*
X85592098Y-86512103D01*
X85348129Y-86583686D01*
X85227229Y-86839196D01*
X85158500Y-87113384D01*
X85144583Y-87395712D01*
X83019800Y-87395712D01*
X83019800Y-87183865D01*
X82964653Y-86906626D01*
X82856480Y-86645473D01*
X82699437Y-86410441D01*
X82621494Y-86332498D01*
X85771703Y-86332498D01*
X86584800Y-87145595D01*
X87397897Y-86332498D01*
X87326314Y-86088529D01*
X87070804Y-85967629D01*
X86796616Y-85898900D01*
X86514288Y-85884983D01*
X86234670Y-85926413D01*
X85968508Y-86021597D01*
X85843286Y-86088529D01*
X85771703Y-86332498D01*
X82621494Y-86332498D01*
X82499559Y-86210563D01*
X82264527Y-86053520D01*
X82003374Y-85945347D01*
X81726135Y-85890200D01*
X81443465Y-85890200D01*
X81166226Y-85945347D01*
X80905073Y-86053520D01*
X80670041Y-86210563D01*
X80470163Y-86410441D01*
X80313120Y-86645473D01*
X80204947Y-86906626D01*
X80149800Y-87183865D01*
X80149800Y-87466535D01*
X80204947Y-87743774D01*
X80313120Y-88004927D01*
X80470163Y-88239959D01*
X80670041Y-88439837D01*
X80824800Y-88543244D01*
X80824801Y-89231356D01*
X80670041Y-89334763D01*
X80470163Y-89534641D01*
X80366757Y-89689400D01*
X79249923Y-89689400D01*
X79212600Y-89685724D01*
X79175277Y-89689400D01*
X79175267Y-89689400D01*
X79063614Y-89700397D01*
X78920353Y-89743854D01*
X78788324Y-89814426D01*
X78672599Y-89909399D01*
X78648801Y-89938397D01*
X75551698Y-93035501D01*
X75530935Y-92978634D01*
X75477037Y-92877797D01*
X75243271Y-92818337D01*
X75359925Y-92701683D01*
X75324109Y-92665867D01*
X75358962Y-92631013D01*
X75505061Y-92412359D01*
X75605696Y-92169405D01*
X75657000Y-91911486D01*
X75657000Y-91648514D01*
X75605696Y-91390595D01*
X75505061Y-91147641D01*
X75358962Y-90928987D01*
X75319975Y-90890000D01*
X75358962Y-90851013D01*
X75505061Y-90632359D01*
X75605696Y-90389405D01*
X75657000Y-90131486D01*
X75657000Y-89868514D01*
X75605696Y-89610595D01*
X75505061Y-89367641D01*
X75358962Y-89148987D01*
X75173013Y-88963038D01*
X75083424Y-88903177D01*
X78285315Y-85701288D01*
X78467865Y-85737600D01*
X78750535Y-85737600D01*
X79027774Y-85682453D01*
X79288927Y-85574280D01*
X79523959Y-85417237D01*
X79723837Y-85217359D01*
X79880880Y-84982327D01*
X79989053Y-84721174D01*
X80044200Y-84443935D01*
X80044200Y-84161265D01*
X79989053Y-83884026D01*
X79880880Y-83622873D01*
X79723837Y-83387841D01*
X79523959Y-83187963D01*
X79288927Y-83030920D01*
X79027774Y-82922747D01*
X78750535Y-82867600D01*
X78467865Y-82867600D01*
X78190626Y-82922747D01*
X77929473Y-83030920D01*
X77694441Y-83187963D01*
X77494563Y-83387841D01*
X77337520Y-83622873D01*
X77229347Y-83884026D01*
X77174200Y-84161265D01*
X77174200Y-84443935D01*
X77210512Y-84626485D01*
X73811003Y-88025996D01*
X73782010Y-88049790D01*
X73782010Y-87838532D01*
X73785686Y-87801209D01*
X73782010Y-87763886D01*
X73782010Y-87763877D01*
X73771013Y-87652224D01*
X73727556Y-87508963D01*
X73656984Y-87376934D01*
X73562011Y-87261209D01*
X73533014Y-87237412D01*
X70824801Y-84529200D01*
X70857878Y-84529200D01*
X70895200Y-84532876D01*
X70932522Y-84529200D01*
X70932533Y-84529200D01*
X71044186Y-84518203D01*
X71187447Y-84474746D01*
X71319476Y-84404174D01*
X71435201Y-84309201D01*
X71459004Y-84280197D01*
X71577936Y-84161265D01*
X72174200Y-84161265D01*
X72174200Y-84443935D01*
X72229347Y-84721174D01*
X72337520Y-84982327D01*
X72494563Y-85217359D01*
X72694441Y-85417237D01*
X72929473Y-85574280D01*
X73190626Y-85682453D01*
X73467865Y-85737600D01*
X73750535Y-85737600D01*
X74027774Y-85682453D01*
X74288927Y-85574280D01*
X74523959Y-85417237D01*
X74723837Y-85217359D01*
X74880880Y-84982327D01*
X74989053Y-84721174D01*
X75044200Y-84443935D01*
X75044200Y-84161265D01*
X74989053Y-83884026D01*
X74880880Y-83622873D01*
X74723837Y-83387841D01*
X74523959Y-83187963D01*
X74288927Y-83030920D01*
X74027774Y-82922747D01*
X73750535Y-82867600D01*
X73467865Y-82867600D01*
X73190626Y-82922747D01*
X72929473Y-83030920D01*
X72694441Y-83187963D01*
X72494563Y-83387841D01*
X72337520Y-83622873D01*
X72229347Y-83884026D01*
X72174200Y-84161265D01*
X71577936Y-84161265D01*
X73289114Y-82450088D01*
X73471665Y-82486400D01*
X73754335Y-82486400D01*
X74031574Y-82431253D01*
X74292727Y-82323080D01*
X74527759Y-82166037D01*
X74649694Y-82044102D01*
X77799903Y-82044102D01*
X77871486Y-82288071D01*
X78126996Y-82408971D01*
X78401184Y-82477700D01*
X78683512Y-82491617D01*
X78963130Y-82450187D01*
X79229292Y-82355003D01*
X79354514Y-82288071D01*
X79426097Y-82044102D01*
X78613000Y-81231005D01*
X77799903Y-82044102D01*
X74649694Y-82044102D01*
X74727637Y-81966159D01*
X74884680Y-81731127D01*
X74992853Y-81469974D01*
X75048000Y-81192735D01*
X75048000Y-81121912D01*
X77172783Y-81121912D01*
X77214213Y-81401530D01*
X77309397Y-81667692D01*
X77376329Y-81792914D01*
X77620298Y-81864497D01*
X78433395Y-81051400D01*
X78792605Y-81051400D01*
X79605702Y-81864497D01*
X79849671Y-81792914D01*
X79970571Y-81537404D01*
X80039300Y-81263216D01*
X80053217Y-80980888D01*
X80011787Y-80701270D01*
X79916603Y-80435108D01*
X79849671Y-80309886D01*
X79605702Y-80238303D01*
X78792605Y-81051400D01*
X78433395Y-81051400D01*
X77620298Y-80238303D01*
X77376329Y-80309886D01*
X77255429Y-80565396D01*
X77186700Y-80839584D01*
X77172783Y-81121912D01*
X75048000Y-81121912D01*
X75048000Y-80910065D01*
X74992853Y-80632826D01*
X74884680Y-80371673D01*
X74727637Y-80136641D01*
X74649694Y-80058698D01*
X77799903Y-80058698D01*
X78613000Y-80871795D01*
X79426097Y-80058698D01*
X79354514Y-79814729D01*
X79099004Y-79693829D01*
X78824816Y-79625100D01*
X78542488Y-79611183D01*
X78262870Y-79652613D01*
X77996708Y-79747797D01*
X77871486Y-79814729D01*
X77799903Y-80058698D01*
X74649694Y-80058698D01*
X74527759Y-79936763D01*
X74292727Y-79779720D01*
X74031574Y-79671547D01*
X73754335Y-79616400D01*
X73573001Y-79616400D01*
X73573001Y-79235200D01*
X73754335Y-79235200D01*
X74031574Y-79180053D01*
X74292727Y-79071880D01*
X74527759Y-78914837D01*
X74649694Y-78792902D01*
X77799903Y-78792902D01*
X77871486Y-79036871D01*
X78126996Y-79157771D01*
X78401184Y-79226500D01*
X78683512Y-79240417D01*
X78963130Y-79198987D01*
X79229292Y-79103803D01*
X79354514Y-79036871D01*
X79426097Y-78792902D01*
X78613000Y-77979805D01*
X77799903Y-78792902D01*
X74649694Y-78792902D01*
X74727637Y-78714959D01*
X74884680Y-78479927D01*
X74992853Y-78218774D01*
X75048000Y-77941535D01*
X75048000Y-77870712D01*
X77172783Y-77870712D01*
X77214213Y-78150330D01*
X77309397Y-78416492D01*
X77376329Y-78541714D01*
X77620298Y-78613297D01*
X78433395Y-77800200D01*
X78792605Y-77800200D01*
X79605702Y-78613297D01*
X79849671Y-78541714D01*
X79970571Y-78286204D01*
X80039300Y-78012016D01*
X80053217Y-77729688D01*
X80011787Y-77450070D01*
X79916603Y-77183908D01*
X79849671Y-77058686D01*
X79605702Y-76987103D01*
X78792605Y-77800200D01*
X78433395Y-77800200D01*
X77620298Y-76987103D01*
X77376329Y-77058686D01*
X77255429Y-77314196D01*
X77186700Y-77588384D01*
X77172783Y-77870712D01*
X75048000Y-77870712D01*
X75048000Y-77658865D01*
X74992853Y-77381626D01*
X74884680Y-77120473D01*
X74727637Y-76885441D01*
X74649694Y-76807498D01*
X77799903Y-76807498D01*
X78613000Y-77620595D01*
X79426097Y-76807498D01*
X79354514Y-76563529D01*
X79099004Y-76442629D01*
X78824816Y-76373900D01*
X78542488Y-76359983D01*
X78262870Y-76401413D01*
X77996708Y-76496597D01*
X77871486Y-76563529D01*
X77799903Y-76807498D01*
X74649694Y-76807498D01*
X74527759Y-76685563D01*
X74292727Y-76528520D01*
X74031574Y-76420347D01*
X73754335Y-76365200D01*
X73471665Y-76365200D01*
X73194426Y-76420347D01*
X72933273Y-76528520D01*
X72698241Y-76685563D01*
X72498363Y-76885441D01*
X72341320Y-77120473D01*
X72233147Y-77381626D01*
X72178000Y-77658865D01*
X72178000Y-77941535D01*
X72215533Y-78130223D01*
X72178027Y-78175923D01*
X72119080Y-78286204D01*
X72107455Y-78307953D01*
X72063998Y-78451214D01*
X72053001Y-78562867D01*
X72053001Y-78562877D01*
X72049325Y-78600199D01*
X72053001Y-78637522D01*
X72053002Y-80214069D01*
X72049325Y-80251401D01*
X72063999Y-80400386D01*
X72107455Y-80543647D01*
X72178027Y-80675677D01*
X72215533Y-80721377D01*
X72178000Y-80910065D01*
X72178000Y-81192735D01*
X72214312Y-81375286D01*
X70580399Y-83009200D01*
X70377087Y-83009200D01*
X70365812Y-82894718D01*
X70329502Y-82775020D01*
X70270537Y-82664706D01*
X70191185Y-82568015D01*
X70094494Y-82488663D01*
X69984180Y-82429698D01*
X69864482Y-82393388D01*
X69740000Y-82381128D01*
X68690000Y-82381128D01*
X68565518Y-82393388D01*
X68445820Y-82429698D01*
X68381098Y-82464293D01*
X68172400Y-82400985D01*
X67945000Y-82378588D01*
X67717601Y-82400985D01*
X67498941Y-82467315D01*
X67310001Y-82568306D01*
X67121060Y-82467315D01*
X66902400Y-82400985D01*
X66675000Y-82378588D01*
X66447601Y-82400985D01*
X66228941Y-82467315D01*
X66027422Y-82575029D01*
X65850789Y-82719988D01*
X65705830Y-82896621D01*
X65598115Y-83098140D01*
X65531785Y-83316800D01*
X65515000Y-83487221D01*
X65515000Y-84051178D01*
X65531785Y-84221599D01*
X65598115Y-84440259D01*
X65705829Y-84641778D01*
X65839920Y-84805169D01*
X61983162Y-88661928D01*
X61022000Y-88661928D01*
X60897518Y-88674188D01*
X60777820Y-88710498D01*
X60667506Y-88769463D01*
X60570815Y-88848815D01*
X60491463Y-88945506D01*
X60432498Y-89055820D01*
X60396188Y-89175518D01*
X60383928Y-89300000D01*
X60383928Y-90700000D01*
X60396188Y-90824482D01*
X60432498Y-90944180D01*
X60491463Y-91054494D01*
X60551939Y-91128185D01*
X60538939Y-91147641D01*
X60438304Y-91390595D01*
X60387000Y-91648514D01*
X60387000Y-91911486D01*
X60438304Y-92169405D01*
X60538939Y-92412359D01*
X60685038Y-92631013D01*
X60724025Y-92670000D01*
X60685038Y-92708987D01*
X60538939Y-92927641D01*
X60438304Y-93170595D01*
X60387000Y-93428514D01*
X60387000Y-93691486D01*
X60438304Y-93949405D01*
X60538939Y-94192359D01*
X60685038Y-94411013D01*
X60724025Y-94450000D01*
X60685038Y-94488987D01*
X60538939Y-94707641D01*
X60438304Y-94950595D01*
X60387000Y-95208514D01*
X60387000Y-95471486D01*
X60438304Y-95729405D01*
X60538939Y-95972359D01*
X60685038Y-96191013D01*
X60724025Y-96230000D01*
X60685038Y-96268987D01*
X60538939Y-96487641D01*
X60438304Y-96730595D01*
X60387000Y-96988514D01*
X60387000Y-97251486D01*
X60408355Y-97358842D01*
X59735986Y-98031212D01*
X59706989Y-98055010D01*
X59683191Y-98084008D01*
X59683190Y-98084009D01*
X59612015Y-98170735D01*
X59541443Y-98302765D01*
X59497987Y-98446026D01*
X59483313Y-98595011D01*
X58570383Y-98595011D01*
X58729932Y-98400601D01*
X58863182Y-98151308D01*
X58945236Y-97880809D01*
X58972943Y-97599500D01*
X58945236Y-97318191D01*
X58863182Y-97047692D01*
X58729932Y-96798399D01*
X58550608Y-96579892D01*
X58332101Y-96400568D01*
X58199142Y-96329500D01*
X58332101Y-96258432D01*
X58550608Y-96079108D01*
X58729932Y-95860601D01*
X58863182Y-95611308D01*
X58945236Y-95340809D01*
X58972943Y-95059500D01*
X58945236Y-94778191D01*
X58863182Y-94507692D01*
X58729932Y-94258399D01*
X58550608Y-94039892D01*
X58332101Y-93860568D01*
X58199142Y-93789500D01*
X58332101Y-93718432D01*
X58550608Y-93539108D01*
X58729932Y-93320601D01*
X58863182Y-93071308D01*
X58945236Y-92800809D01*
X58972943Y-92519500D01*
X58945236Y-92238191D01*
X58863182Y-91967692D01*
X58729932Y-91718399D01*
X58550608Y-91499892D01*
X58332101Y-91320568D01*
X58199142Y-91249500D01*
X58332101Y-91178432D01*
X58550608Y-90999108D01*
X58729932Y-90780601D01*
X58863182Y-90531308D01*
X58945236Y-90260809D01*
X58972943Y-89979500D01*
X58945236Y-89698191D01*
X58863182Y-89427692D01*
X58729932Y-89178399D01*
X58550608Y-88959892D01*
X58332101Y-88780568D01*
X58199142Y-88709500D01*
X58332101Y-88638432D01*
X58550608Y-88459108D01*
X58729932Y-88240601D01*
X58863182Y-87991308D01*
X58945236Y-87720809D01*
X58972943Y-87439500D01*
X58945236Y-87158191D01*
X58863182Y-86887692D01*
X58729932Y-86638399D01*
X58550608Y-86419892D01*
X58332101Y-86240568D01*
X58194318Y-86166921D01*
X58386131Y-86051885D01*
X58594519Y-85862914D01*
X58762037Y-85636920D01*
X58882246Y-85382587D01*
X58922904Y-85248539D01*
X58800915Y-85026500D01*
X57658000Y-85026500D01*
X57658000Y-85046500D01*
X57404000Y-85046500D01*
X57404000Y-85026500D01*
X56261085Y-85026500D01*
X56139096Y-85248539D01*
X56179754Y-85382587D01*
X56299963Y-85636920D01*
X56467481Y-85862914D01*
X56675869Y-86051885D01*
X56867682Y-86166921D01*
X56729899Y-86240568D01*
X56511392Y-86419892D01*
X56332068Y-86638399D01*
X56198818Y-86887692D01*
X56116764Y-87158191D01*
X56089057Y-87439500D01*
X43732943Y-87439500D01*
X43705236Y-87158191D01*
X43623182Y-86887692D01*
X43489932Y-86638399D01*
X43310608Y-86419892D01*
X43092101Y-86240568D01*
X42959142Y-86169500D01*
X43092101Y-86098432D01*
X43310608Y-85919108D01*
X43489932Y-85700601D01*
X43623182Y-85451308D01*
X43705236Y-85180809D01*
X43732943Y-84899500D01*
X43705236Y-84618191D01*
X43623182Y-84347692D01*
X43489932Y-84098399D01*
X43310608Y-83879892D01*
X43197518Y-83787081D01*
X43215482Y-83785312D01*
X43335180Y-83749002D01*
X43445494Y-83690037D01*
X43542185Y-83610685D01*
X43621537Y-83513994D01*
X43680502Y-83403680D01*
X43716812Y-83283982D01*
X43729072Y-83159500D01*
X43729072Y-82359500D01*
X56089057Y-82359500D01*
X56116764Y-82640809D01*
X56198818Y-82911308D01*
X56332068Y-83160601D01*
X56511392Y-83379108D01*
X56729899Y-83558432D01*
X56867682Y-83632079D01*
X56675869Y-83747115D01*
X56467481Y-83936086D01*
X56299963Y-84162080D01*
X56179754Y-84416413D01*
X56139096Y-84550461D01*
X56261085Y-84772500D01*
X57404000Y-84772500D01*
X57404000Y-84752500D01*
X57658000Y-84752500D01*
X57658000Y-84772500D01*
X58800915Y-84772500D01*
X58922904Y-84550461D01*
X58882246Y-84416413D01*
X58762037Y-84162080D01*
X58594519Y-83936086D01*
X58386131Y-83747115D01*
X58194318Y-83632079D01*
X58332101Y-83558432D01*
X58550608Y-83379108D01*
X58729932Y-83160601D01*
X58863182Y-82911308D01*
X58945236Y-82640809D01*
X58972943Y-82359500D01*
X58945236Y-82078191D01*
X58863182Y-81807692D01*
X58729932Y-81558399D01*
X58550608Y-81339892D01*
X58332101Y-81160568D01*
X58082808Y-81027318D01*
X57812309Y-80945264D01*
X57601492Y-80924500D01*
X57460508Y-80924500D01*
X57249691Y-80945264D01*
X56979192Y-81027318D01*
X56729899Y-81160568D01*
X56511392Y-81339892D01*
X56332068Y-81558399D01*
X56198818Y-81807692D01*
X56116764Y-82078191D01*
X56089057Y-82359500D01*
X43729072Y-82359500D01*
X43729072Y-81559500D01*
X43716812Y-81435018D01*
X43680502Y-81315320D01*
X43621537Y-81205006D01*
X43542185Y-81108315D01*
X43445494Y-81028963D01*
X43335180Y-80969998D01*
X43215482Y-80933688D01*
X43091000Y-80921428D01*
X41491000Y-80921428D01*
X41366518Y-80933688D01*
X41246820Y-80969998D01*
X41136506Y-81028963D01*
X41039815Y-81108315D01*
X40960463Y-81205006D01*
X40901498Y-81315320D01*
X40865188Y-81435018D01*
X40852928Y-81559500D01*
X40852928Y-83159500D01*
X40865188Y-83283982D01*
X40901498Y-83403680D01*
X40960463Y-83513994D01*
X41039815Y-83610685D01*
X41136506Y-83690037D01*
X41246820Y-83749002D01*
X41366518Y-83785312D01*
X41384482Y-83787081D01*
X41271392Y-83879892D01*
X41092068Y-84098399D01*
X40958818Y-84347692D01*
X40876764Y-84618191D01*
X40849057Y-84899500D01*
X40660000Y-84899500D01*
X40660000Y-73653956D01*
X64723500Y-73653956D01*
X64723500Y-74301044D01*
X64849740Y-74935699D01*
X65097371Y-75533531D01*
X65456874Y-76071566D01*
X65914434Y-76529126D01*
X66452469Y-76888629D01*
X67050301Y-77136260D01*
X67684956Y-77262500D01*
X68332044Y-77262500D01*
X68966699Y-77136260D01*
X69564531Y-76888629D01*
X70102566Y-76529126D01*
X70560126Y-76071566D01*
X70919629Y-75533531D01*
X71167260Y-74935699D01*
X71293500Y-74301044D01*
X71293500Y-73653956D01*
X71167260Y-73019301D01*
X70919629Y-72421469D01*
X70560126Y-71883434D01*
X70102566Y-71425874D01*
X69564531Y-71066371D01*
X68966699Y-70818740D01*
X68332044Y-70692500D01*
X67684956Y-70692500D01*
X67050301Y-70818740D01*
X66452469Y-71066371D01*
X65914434Y-71425874D01*
X65456874Y-71883434D01*
X65097371Y-72421469D01*
X64849740Y-73019301D01*
X64723500Y-73653956D01*
X40660000Y-73653956D01*
X40660000Y-66802000D01*
X91027315Y-66802000D01*
X91055987Y-67093111D01*
X91140901Y-67373034D01*
X91278794Y-67631014D01*
X91464366Y-67857134D01*
X91690486Y-68042706D01*
X91745291Y-68072000D01*
X91690486Y-68101294D01*
X91464366Y-68286866D01*
X91278794Y-68512986D01*
X91140901Y-68770966D01*
X91055987Y-69050889D01*
X91027315Y-69342000D01*
X91055987Y-69633111D01*
X91140901Y-69913034D01*
X91278794Y-70171014D01*
X91464366Y-70397134D01*
X91690486Y-70582706D01*
X91745291Y-70612000D01*
X91690486Y-70641294D01*
X91464366Y-70826866D01*
X91278794Y-71052986D01*
X91140901Y-71310966D01*
X91055987Y-71590889D01*
X91027315Y-71882000D01*
X91055987Y-72173111D01*
X91140901Y-72453034D01*
X91278794Y-72711014D01*
X91464366Y-72937134D01*
X91690486Y-73122706D01*
X91948466Y-73260599D01*
X92228389Y-73345513D01*
X92446550Y-73367000D01*
X92592450Y-73367000D01*
X92810611Y-73345513D01*
X93090534Y-73260599D01*
X93348514Y-73122706D01*
X93574634Y-72937134D01*
X93760206Y-72711014D01*
X93898099Y-72453034D01*
X93983013Y-72173111D01*
X94011685Y-71882000D01*
X93983013Y-71590889D01*
X93898099Y-71310966D01*
X93760206Y-71052986D01*
X93574634Y-70826866D01*
X93348514Y-70641294D01*
X93293709Y-70612000D01*
X93348514Y-70582706D01*
X93574634Y-70397134D01*
X93760206Y-70171014D01*
X93898099Y-69913034D01*
X93983013Y-69633111D01*
X94011685Y-69342000D01*
X93983013Y-69050889D01*
X93898099Y-68770966D01*
X93760206Y-68512986D01*
X93574634Y-68286866D01*
X93348514Y-68101294D01*
X93293709Y-68072000D01*
X93348514Y-68042706D01*
X93574634Y-67857134D01*
X93760206Y-67631014D01*
X93898099Y-67373034D01*
X93983013Y-67093111D01*
X94011685Y-66802000D01*
X93983013Y-66510889D01*
X93898099Y-66230966D01*
X93760206Y-65972986D01*
X93574634Y-65746866D01*
X93348514Y-65561294D01*
X93283977Y-65526799D01*
X93400855Y-65457178D01*
X93617088Y-65262269D01*
X93791141Y-65028920D01*
X93916325Y-64766099D01*
X93960976Y-64618890D01*
X93839655Y-64389000D01*
X92646500Y-64389000D01*
X92646500Y-64409000D01*
X92392500Y-64409000D01*
X92392500Y-64389000D01*
X91199345Y-64389000D01*
X91078024Y-64618890D01*
X91122675Y-64766099D01*
X91247859Y-65028920D01*
X91421912Y-65262269D01*
X91638145Y-65457178D01*
X91755023Y-65526799D01*
X91690486Y-65561294D01*
X91464366Y-65746866D01*
X91278794Y-65972986D01*
X91140901Y-66230966D01*
X91055987Y-66510889D01*
X91027315Y-66802000D01*
X40660000Y-66802000D01*
X40660000Y-56642000D01*
X91027315Y-56642000D01*
X91055987Y-56933111D01*
X91140901Y-57213034D01*
X91278794Y-57471014D01*
X91464366Y-57697134D01*
X91690486Y-57882706D01*
X91745291Y-57912000D01*
X91690486Y-57941294D01*
X91464366Y-58126866D01*
X91278794Y-58352986D01*
X91140901Y-58610966D01*
X91055987Y-58890889D01*
X91027315Y-59182000D01*
X91055987Y-59473111D01*
X91140901Y-59753034D01*
X91278794Y-60011014D01*
X91464366Y-60237134D01*
X91690486Y-60422706D01*
X91745291Y-60452000D01*
X91690486Y-60481294D01*
X91464366Y-60666866D01*
X91278794Y-60892986D01*
X91140901Y-61150966D01*
X91055987Y-61430889D01*
X91027315Y-61722000D01*
X91055987Y-62013111D01*
X91140901Y-62293034D01*
X91278794Y-62551014D01*
X91464366Y-62777134D01*
X91690486Y-62962706D01*
X91755023Y-62997201D01*
X91638145Y-63066822D01*
X91421912Y-63261731D01*
X91247859Y-63495080D01*
X91122675Y-63757901D01*
X91078024Y-63905110D01*
X91199345Y-64135000D01*
X92392500Y-64135000D01*
X92392500Y-64115000D01*
X92646500Y-64115000D01*
X92646500Y-64135000D01*
X93839655Y-64135000D01*
X93960976Y-63905110D01*
X93916325Y-63757901D01*
X93791141Y-63495080D01*
X93617088Y-63261731D01*
X93400855Y-63066822D01*
X93283977Y-62997201D01*
X93348514Y-62962706D01*
X93574634Y-62777134D01*
X93760206Y-62551014D01*
X93898099Y-62293034D01*
X93983013Y-62013111D01*
X94011685Y-61722000D01*
X93983013Y-61430889D01*
X93898099Y-61150966D01*
X93760206Y-60892986D01*
X93574634Y-60666866D01*
X93348514Y-60481294D01*
X93293709Y-60452000D01*
X93348514Y-60422706D01*
X93574634Y-60237134D01*
X93760206Y-60011014D01*
X93898099Y-59753034D01*
X93983013Y-59473111D01*
X94011685Y-59182000D01*
X93983013Y-58890889D01*
X93898099Y-58610966D01*
X93760206Y-58352986D01*
X93574634Y-58126866D01*
X93348514Y-57941294D01*
X93293709Y-57912000D01*
X93348514Y-57882706D01*
X93574634Y-57697134D01*
X93760206Y-57471014D01*
X93898099Y-57213034D01*
X93983013Y-56933111D01*
X94011685Y-56642000D01*
X93983013Y-56350889D01*
X93898099Y-56070966D01*
X93760206Y-55812986D01*
X93574634Y-55586866D01*
X93544813Y-55562393D01*
X93613680Y-55541502D01*
X93723994Y-55482537D01*
X93820685Y-55403185D01*
X93900037Y-55306494D01*
X93959002Y-55196180D01*
X93995312Y-55076482D01*
X94007572Y-54952000D01*
X94007572Y-53252000D01*
X93995312Y-53127518D01*
X93959002Y-53007820D01*
X93900037Y-52897506D01*
X93820685Y-52800815D01*
X93723994Y-52721463D01*
X93613680Y-52662498D01*
X93493982Y-52626188D01*
X93369500Y-52613928D01*
X91669500Y-52613928D01*
X91545018Y-52626188D01*
X91425320Y-52662498D01*
X91315006Y-52721463D01*
X91218315Y-52800815D01*
X91138963Y-52897506D01*
X91079998Y-53007820D01*
X91043688Y-53127518D01*
X91031428Y-53252000D01*
X91031428Y-54952000D01*
X91043688Y-55076482D01*
X91079998Y-55196180D01*
X91138963Y-55306494D01*
X91218315Y-55403185D01*
X91315006Y-55482537D01*
X91425320Y-55541502D01*
X91494187Y-55562393D01*
X91464366Y-55586866D01*
X91278794Y-55812986D01*
X91140901Y-56070966D01*
X91055987Y-56350889D01*
X91027315Y-56642000D01*
X40660000Y-56642000D01*
X40660000Y-49338967D01*
X50365000Y-49338967D01*
X50365000Y-49661033D01*
X50427832Y-49976912D01*
X50551082Y-50274463D01*
X50730013Y-50542252D01*
X50957748Y-50769987D01*
X51225537Y-50948918D01*
X51523088Y-51072168D01*
X51838967Y-51135000D01*
X52161033Y-51135000D01*
X52476912Y-51072168D01*
X52774463Y-50948918D01*
X53042252Y-50769987D01*
X53269987Y-50542252D01*
X53448918Y-50274463D01*
X53572168Y-49976912D01*
X53635000Y-49661033D01*
X53635000Y-49338967D01*
X56865000Y-49338967D01*
X56865000Y-49661033D01*
X56927832Y-49976912D01*
X57051082Y-50274463D01*
X57230013Y-50542252D01*
X57457748Y-50769987D01*
X57725537Y-50948918D01*
X58023088Y-51072168D01*
X58338967Y-51135000D01*
X58661033Y-51135000D01*
X58976912Y-51072168D01*
X59274463Y-50948918D01*
X59542252Y-50769987D01*
X59769987Y-50542252D01*
X59948918Y-50274463D01*
X60072168Y-49976912D01*
X60135000Y-49661033D01*
X60135000Y-49338967D01*
X75865000Y-49338967D01*
X75865000Y-49661033D01*
X75927832Y-49976912D01*
X76051082Y-50274463D01*
X76230013Y-50542252D01*
X76457748Y-50769987D01*
X76725537Y-50948918D01*
X77023088Y-51072168D01*
X77338967Y-51135000D01*
X77661033Y-51135000D01*
X77976912Y-51072168D01*
X78274463Y-50948918D01*
X78542252Y-50769987D01*
X78769987Y-50542252D01*
X78948918Y-50274463D01*
X79072168Y-49976912D01*
X79135000Y-49661033D01*
X79135000Y-49338967D01*
X82365000Y-49338967D01*
X82365000Y-49661033D01*
X82427832Y-49976912D01*
X82551082Y-50274463D01*
X82730013Y-50542252D01*
X82957748Y-50769987D01*
X83225537Y-50948918D01*
X83523088Y-51072168D01*
X83838967Y-51135000D01*
X84161033Y-51135000D01*
X84476912Y-51072168D01*
X84774463Y-50948918D01*
X85042252Y-50769987D01*
X85269987Y-50542252D01*
X85448918Y-50274463D01*
X85572168Y-49976912D01*
X85635000Y-49661033D01*
X85635000Y-49338967D01*
X85572168Y-49023088D01*
X85448918Y-48725537D01*
X85269987Y-48457748D01*
X85042252Y-48230013D01*
X84774463Y-48051082D01*
X84476912Y-47927832D01*
X84161033Y-47865000D01*
X83838967Y-47865000D01*
X83523088Y-47927832D01*
X83225537Y-48051082D01*
X82957748Y-48230013D01*
X82730013Y-48457748D01*
X82551082Y-48725537D01*
X82427832Y-49023088D01*
X82365000Y-49338967D01*
X79135000Y-49338967D01*
X79072168Y-49023088D01*
X78948918Y-48725537D01*
X78769987Y-48457748D01*
X78542252Y-48230013D01*
X78274463Y-48051082D01*
X77976912Y-47927832D01*
X77661033Y-47865000D01*
X77338967Y-47865000D01*
X77023088Y-47927832D01*
X76725537Y-48051082D01*
X76457748Y-48230013D01*
X76230013Y-48457748D01*
X76051082Y-48725537D01*
X75927832Y-49023088D01*
X75865000Y-49338967D01*
X60135000Y-49338967D01*
X60072168Y-49023088D01*
X59948918Y-48725537D01*
X59769987Y-48457748D01*
X59542252Y-48230013D01*
X59348652Y-48100653D01*
X66687952Y-48100653D01*
X66843962Y-48416214D01*
X67218745Y-48607020D01*
X67623551Y-48721044D01*
X68042824Y-48753902D01*
X68460451Y-48704334D01*
X68860383Y-48574243D01*
X69156038Y-48416214D01*
X69312048Y-48100653D01*
X68000000Y-46788605D01*
X66687952Y-48100653D01*
X59348652Y-48100653D01*
X59274463Y-48051082D01*
X58976912Y-47927832D01*
X58661033Y-47865000D01*
X58338967Y-47865000D01*
X58023088Y-47927832D01*
X57725537Y-48051082D01*
X57457748Y-48230013D01*
X57230013Y-48457748D01*
X57051082Y-48725537D01*
X56927832Y-49023088D01*
X56865000Y-49338967D01*
X53635000Y-49338967D01*
X53572168Y-49023088D01*
X53448918Y-48725537D01*
X53269987Y-48457748D01*
X53042252Y-48230013D01*
X52774463Y-48051082D01*
X52476912Y-47927832D01*
X52161033Y-47865000D01*
X51838967Y-47865000D01*
X51523088Y-47927832D01*
X51225537Y-48051082D01*
X50957748Y-48230013D01*
X50730013Y-48457748D01*
X50551082Y-48725537D01*
X50427832Y-49023088D01*
X50365000Y-49338967D01*
X40660000Y-49338967D01*
X40660000Y-46651824D01*
X65855098Y-46651824D01*
X65904666Y-47069451D01*
X66034757Y-47469383D01*
X66192786Y-47765038D01*
X66508347Y-47921048D01*
X67820395Y-46609000D01*
X68179605Y-46609000D01*
X69491653Y-47921048D01*
X69807214Y-47765038D01*
X69998020Y-47390255D01*
X70112044Y-46985449D01*
X70144902Y-46566176D01*
X70095334Y-46148549D01*
X70091062Y-46135413D01*
X76544192Y-46135413D01*
X76639956Y-46399814D01*
X76929571Y-46540704D01*
X77241108Y-46622384D01*
X77562595Y-46641718D01*
X77881675Y-46597961D01*
X78186088Y-46492795D01*
X78360044Y-46399814D01*
X78455808Y-46135413D01*
X83044192Y-46135413D01*
X83139956Y-46399814D01*
X83429571Y-46540704D01*
X83741108Y-46622384D01*
X84062595Y-46641718D01*
X84381675Y-46597961D01*
X84686088Y-46492795D01*
X84860044Y-46399814D01*
X84955808Y-46135413D01*
X84000000Y-45179605D01*
X83044192Y-46135413D01*
X78455808Y-46135413D01*
X77500000Y-45179605D01*
X76544192Y-46135413D01*
X70091062Y-46135413D01*
X69965243Y-45748617D01*
X69807214Y-45452962D01*
X69491653Y-45296952D01*
X68179605Y-46609000D01*
X67820395Y-46609000D01*
X66508347Y-45296952D01*
X66192786Y-45452962D01*
X66001980Y-45827745D01*
X65887956Y-46232551D01*
X65855098Y-46651824D01*
X40660000Y-46651824D01*
X40660000Y-46135413D01*
X51044192Y-46135413D01*
X51139956Y-46399814D01*
X51429571Y-46540704D01*
X51741108Y-46622384D01*
X52062595Y-46641718D01*
X52381675Y-46597961D01*
X52686088Y-46492795D01*
X52860044Y-46399814D01*
X52955808Y-46135413D01*
X57544192Y-46135413D01*
X57639956Y-46399814D01*
X57929571Y-46540704D01*
X58241108Y-46622384D01*
X58562595Y-46641718D01*
X58881675Y-46597961D01*
X59186088Y-46492795D01*
X59360044Y-46399814D01*
X59455808Y-46135413D01*
X58500000Y-45179605D01*
X57544192Y-46135413D01*
X52955808Y-46135413D01*
X52000000Y-45179605D01*
X51044192Y-46135413D01*
X40660000Y-46135413D01*
X40660000Y-45062595D01*
X50358282Y-45062595D01*
X50402039Y-45381675D01*
X50507205Y-45686088D01*
X50600186Y-45860044D01*
X50864587Y-45955808D01*
X51820395Y-45000000D01*
X52179605Y-45000000D01*
X53135413Y-45955808D01*
X53399814Y-45860044D01*
X53540704Y-45570429D01*
X53622384Y-45258892D01*
X53634189Y-45062595D01*
X56858282Y-45062595D01*
X56902039Y-45381675D01*
X57007205Y-45686088D01*
X57100186Y-45860044D01*
X57364587Y-45955808D01*
X58320395Y-45000000D01*
X58679605Y-45000000D01*
X59635413Y-45955808D01*
X59899814Y-45860044D01*
X60040704Y-45570429D01*
X60122384Y-45258892D01*
X60130896Y-45117347D01*
X66687952Y-45117347D01*
X68000000Y-46429395D01*
X69312048Y-45117347D01*
X69284980Y-45062595D01*
X75858282Y-45062595D01*
X75902039Y-45381675D01*
X76007205Y-45686088D01*
X76100186Y-45860044D01*
X76364587Y-45955808D01*
X77320395Y-45000000D01*
X77679605Y-45000000D01*
X78635413Y-45955808D01*
X78899814Y-45860044D01*
X79040704Y-45570429D01*
X79122384Y-45258892D01*
X79134189Y-45062595D01*
X82358282Y-45062595D01*
X82402039Y-45381675D01*
X82507205Y-45686088D01*
X82600186Y-45860044D01*
X82864587Y-45955808D01*
X83820395Y-45000000D01*
X84179605Y-45000000D01*
X85135413Y-45955808D01*
X85399814Y-45860044D01*
X85540704Y-45570429D01*
X85622384Y-45258892D01*
X85641718Y-44937405D01*
X85597961Y-44618325D01*
X85492795Y-44313912D01*
X85399814Y-44139956D01*
X85135413Y-44044192D01*
X84179605Y-45000000D01*
X83820395Y-45000000D01*
X82864587Y-44044192D01*
X82600186Y-44139956D01*
X82459296Y-44429571D01*
X82377616Y-44741108D01*
X82358282Y-45062595D01*
X79134189Y-45062595D01*
X79141718Y-44937405D01*
X79097961Y-44618325D01*
X78992795Y-44313912D01*
X78899814Y-44139956D01*
X78635413Y-44044192D01*
X77679605Y-45000000D01*
X77320395Y-45000000D01*
X76364587Y-44044192D01*
X76100186Y-44139956D01*
X75959296Y-44429571D01*
X75877616Y-44741108D01*
X75858282Y-45062595D01*
X69284980Y-45062595D01*
X69156038Y-44801786D01*
X68781255Y-44610980D01*
X68376449Y-44496956D01*
X67957176Y-44464098D01*
X67539549Y-44513666D01*
X67139617Y-44643757D01*
X66843962Y-44801786D01*
X66687952Y-45117347D01*
X60130896Y-45117347D01*
X60141718Y-44937405D01*
X60097961Y-44618325D01*
X59992795Y-44313912D01*
X59899814Y-44139956D01*
X59635413Y-44044192D01*
X58679605Y-45000000D01*
X58320395Y-45000000D01*
X57364587Y-44044192D01*
X57100186Y-44139956D01*
X56959296Y-44429571D01*
X56877616Y-44741108D01*
X56858282Y-45062595D01*
X53634189Y-45062595D01*
X53641718Y-44937405D01*
X53597961Y-44618325D01*
X53492795Y-44313912D01*
X53399814Y-44139956D01*
X53135413Y-44044192D01*
X52179605Y-45000000D01*
X51820395Y-45000000D01*
X50864587Y-44044192D01*
X50600186Y-44139956D01*
X50459296Y-44429571D01*
X50377616Y-44741108D01*
X50358282Y-45062595D01*
X40660000Y-45062595D01*
X40660000Y-43864587D01*
X51044192Y-43864587D01*
X52000000Y-44820395D01*
X52955808Y-43864587D01*
X57544192Y-43864587D01*
X58500000Y-44820395D01*
X59455808Y-43864587D01*
X76544192Y-43864587D01*
X77500000Y-44820395D01*
X78455808Y-43864587D01*
X83044192Y-43864587D01*
X84000000Y-44820395D01*
X84955808Y-43864587D01*
X84860044Y-43600186D01*
X84570429Y-43459296D01*
X84258892Y-43377616D01*
X83937405Y-43358282D01*
X83618325Y-43402039D01*
X83313912Y-43507205D01*
X83139956Y-43600186D01*
X83044192Y-43864587D01*
X78455808Y-43864587D01*
X78360044Y-43600186D01*
X78070429Y-43459296D01*
X77758892Y-43377616D01*
X77437405Y-43358282D01*
X77118325Y-43402039D01*
X76813912Y-43507205D01*
X76639956Y-43600186D01*
X76544192Y-43864587D01*
X59455808Y-43864587D01*
X59360044Y-43600186D01*
X59070429Y-43459296D01*
X58758892Y-43377616D01*
X58437405Y-43358282D01*
X58118325Y-43402039D01*
X57813912Y-43507205D01*
X57639956Y-43600186D01*
X57544192Y-43864587D01*
X52955808Y-43864587D01*
X52860044Y-43600186D01*
X52570429Y-43459296D01*
X52258892Y-43377616D01*
X51937405Y-43358282D01*
X51618325Y-43402039D01*
X51313912Y-43507205D01*
X51139956Y-43600186D01*
X51044192Y-43864587D01*
X40660000Y-43864587D01*
X40660000Y-42773380D01*
X42773381Y-40660000D01*
X93226620Y-40660000D01*
X95340000Y-42773381D01*
X95340000Y-42773381D01*
G37*
X95340000Y-42773381D02*
X95340001Y-121226618D01*
X93226620Y-123340000D01*
X42773381Y-123340000D01*
X40660000Y-121226620D01*
X40660000Y-92519500D01*
X40849057Y-92519500D01*
X40876764Y-92800809D01*
X40958818Y-93071308D01*
X41092068Y-93320601D01*
X41271392Y-93539108D01*
X41489899Y-93718432D01*
X41622858Y-93789500D01*
X41489899Y-93860568D01*
X41271392Y-94039892D01*
X41092068Y-94258399D01*
X40958818Y-94507692D01*
X40876764Y-94778191D01*
X40849057Y-95059500D01*
X40876764Y-95340809D01*
X40958818Y-95611308D01*
X41092068Y-95860601D01*
X41271392Y-96079108D01*
X41489899Y-96258432D01*
X41622858Y-96329500D01*
X41489899Y-96400568D01*
X41271392Y-96579892D01*
X41092068Y-96798399D01*
X40958818Y-97047692D01*
X40876764Y-97318191D01*
X40849057Y-97599500D01*
X40876764Y-97880809D01*
X40958818Y-98151308D01*
X41092068Y-98400601D01*
X41271392Y-98619108D01*
X41489899Y-98798432D01*
X41622858Y-98869500D01*
X41489899Y-98940568D01*
X41271392Y-99119892D01*
X41092068Y-99338399D01*
X40958818Y-99587692D01*
X40876764Y-99858191D01*
X40849057Y-100139500D01*
X40876764Y-100420809D01*
X40958818Y-100691308D01*
X41092068Y-100940601D01*
X41271392Y-101159108D01*
X41489899Y-101338432D01*
X41622858Y-101409500D01*
X41489899Y-101480568D01*
X41271392Y-101659892D01*
X41092068Y-101878399D01*
X40958818Y-102127692D01*
X40876764Y-102398191D01*
X40849057Y-102679500D01*
X40876764Y-102960809D01*
X40958818Y-103231308D01*
X41092068Y-103480601D01*
X41271392Y-103699108D01*
X41489899Y-103878432D01*
X41622858Y-103949500D01*
X41489899Y-104020568D01*
X41271392Y-104199892D01*
X41092068Y-104418399D01*
X40958818Y-104667692D01*
X40876764Y-104938191D01*
X40849057Y-105219500D01*
X40876764Y-105500809D01*
X40958818Y-105771308D01*
X41092068Y-106020601D01*
X41271392Y-106239108D01*
X41489899Y-106418432D01*
X41622858Y-106489500D01*
X41489899Y-106560568D01*
X41271392Y-106739892D01*
X41092068Y-106958399D01*
X40958818Y-107207692D01*
X40876764Y-107478191D01*
X40849057Y-107759500D01*
X40876764Y-108040809D01*
X40958818Y-108311308D01*
X41092068Y-108560601D01*
X41271392Y-108779108D01*
X41489899Y-108958432D01*
X41622858Y-109029500D01*
X41489899Y-109100568D01*
X41271392Y-109279892D01*
X41092068Y-109498399D01*
X40958818Y-109747692D01*
X40876764Y-110018191D01*
X40849057Y-110299500D01*
X40876764Y-110580809D01*
X40958818Y-110851308D01*
X41092068Y-111100601D01*
X41271392Y-111319108D01*
X41489899Y-111498432D01*
X41622858Y-111569500D01*
X41489899Y-111640568D01*
X41271392Y-111819892D01*
X41092068Y-112038399D01*
X40958818Y-112287692D01*
X40876764Y-112558191D01*
X40849057Y-112839500D01*
X40876764Y-113120809D01*
X40958818Y-113391308D01*
X41092068Y-113640601D01*
X41271392Y-113859108D01*
X41489899Y-114038432D01*
X41622858Y-114109500D01*
X41489899Y-114180568D01*
X41271392Y-114359892D01*
X41092068Y-114578399D01*
X40958818Y-114827692D01*
X40876764Y-115098191D01*
X40849057Y-115379500D01*
X40876764Y-115660809D01*
X40958818Y-115931308D01*
X41092068Y-116180601D01*
X41271392Y-116399108D01*
X41489899Y-116578432D01*
X41622858Y-116649500D01*
X41489899Y-116720568D01*
X41271392Y-116899892D01*
X41092068Y-117118399D01*
X40958818Y-117367692D01*
X40876764Y-117638191D01*
X40849057Y-117919500D01*
X40876764Y-118200809D01*
X40958818Y-118471308D01*
X41092068Y-118720601D01*
X41271392Y-118939108D01*
X41489899Y-119118432D01*
X41739192Y-119251682D01*
X42009691Y-119333736D01*
X42220508Y-119354500D01*
X42361492Y-119354500D01*
X42572309Y-119333736D01*
X42842808Y-119251682D01*
X43092101Y-119118432D01*
X43310608Y-118939108D01*
X43489932Y-118720601D01*
X43623182Y-118471308D01*
X43705236Y-118200809D01*
X43732943Y-117919500D01*
X43730402Y-117893704D01*
X47280071Y-121443373D01*
X47303869Y-121472371D01*
X47332867Y-121496169D01*
X47419593Y-121567344D01*
X47535657Y-121629382D01*
X47551623Y-121637916D01*
X47694884Y-121681373D01*
X47806537Y-121692370D01*
X47806546Y-121692370D01*
X47843869Y-121696046D01*
X47881192Y-121692370D01*
X74153108Y-121692370D01*
X74190430Y-121696046D01*
X74227752Y-121692370D01*
X74227763Y-121692370D01*
X74339416Y-121681373D01*
X74482677Y-121637916D01*
X74614706Y-121567344D01*
X74730431Y-121472371D01*
X74754234Y-121443368D01*
X76686895Y-119510708D01*
X76731491Y-119524236D01*
X76942308Y-119545000D01*
X77083292Y-119545000D01*
X77294109Y-119524236D01*
X77564608Y-119442182D01*
X77813901Y-119308932D01*
X78032408Y-119129608D01*
X78211732Y-118911101D01*
X78344982Y-118661808D01*
X78427036Y-118391309D01*
X78454743Y-118110000D01*
X78644257Y-118110000D01*
X78671964Y-118391309D01*
X78754018Y-118661808D01*
X78887268Y-118911101D01*
X79066592Y-119129608D01*
X79285099Y-119308932D01*
X79534392Y-119442182D01*
X79804891Y-119524236D01*
X80015708Y-119545000D01*
X80156692Y-119545000D01*
X80367509Y-119524236D01*
X80638008Y-119442182D01*
X80887301Y-119308932D01*
X81105808Y-119129608D01*
X81117466Y-119115402D01*
X82397303Y-119115402D01*
X82468886Y-119359371D01*
X82724396Y-119480271D01*
X82998584Y-119549000D01*
X83280912Y-119562917D01*
X83560530Y-119521487D01*
X83826692Y-119426303D01*
X83951914Y-119359371D01*
X84023497Y-119115402D01*
X85597703Y-119115402D01*
X85669286Y-119359371D01*
X85924796Y-119480271D01*
X86198984Y-119549000D01*
X86481312Y-119562917D01*
X86760930Y-119521487D01*
X87027092Y-119426303D01*
X87152314Y-119359371D01*
X87223897Y-119115402D01*
X88696503Y-119115402D01*
X88768086Y-119359371D01*
X89023596Y-119480271D01*
X89297784Y-119549000D01*
X89580112Y-119562917D01*
X89859730Y-119521487D01*
X90125892Y-119426303D01*
X90251114Y-119359371D01*
X90322697Y-119115402D01*
X89509600Y-118302305D01*
X88696503Y-119115402D01*
X87223897Y-119115402D01*
X86410800Y-118302305D01*
X85597703Y-119115402D01*
X84023497Y-119115402D01*
X83210400Y-118302305D01*
X82397303Y-119115402D01*
X81117466Y-119115402D01*
X81285132Y-118911101D01*
X81418382Y-118661808D01*
X81500436Y-118391309D01*
X81519947Y-118193212D01*
X81770183Y-118193212D01*
X81811613Y-118472830D01*
X81906797Y-118738992D01*
X81973729Y-118864214D01*
X82217698Y-118935797D01*
X83030795Y-118122700D01*
X83390005Y-118122700D01*
X84203102Y-118935797D01*
X84447071Y-118864214D01*
X84567971Y-118608704D01*
X84636700Y-118334516D01*
X84643665Y-118193212D01*
X84970583Y-118193212D01*
X85012013Y-118472830D01*
X85107197Y-118738992D01*
X85174129Y-118864214D01*
X85418098Y-118935797D01*
X86231195Y-118122700D01*
X86590405Y-118122700D01*
X87403502Y-118935797D01*
X87647471Y-118864214D01*
X87768371Y-118608704D01*
X87837100Y-118334516D01*
X87844065Y-118193212D01*
X88069383Y-118193212D01*
X88110813Y-118472830D01*
X88205997Y-118738992D01*
X88272929Y-118864214D01*
X88516898Y-118935797D01*
X89329995Y-118122700D01*
X89689205Y-118122700D01*
X90502302Y-118935797D01*
X90746271Y-118864214D01*
X90867171Y-118608704D01*
X90935900Y-118334516D01*
X90949817Y-118052188D01*
X90908387Y-117772570D01*
X90813203Y-117506408D01*
X90746271Y-117381186D01*
X90502302Y-117309603D01*
X89689205Y-118122700D01*
X89329995Y-118122700D01*
X88516898Y-117309603D01*
X88272929Y-117381186D01*
X88152029Y-117636696D01*
X88083300Y-117910884D01*
X88069383Y-118193212D01*
X87844065Y-118193212D01*
X87851017Y-118052188D01*
X87809587Y-117772570D01*
X87714403Y-117506408D01*
X87647471Y-117381186D01*
X87403502Y-117309603D01*
X86590405Y-118122700D01*
X86231195Y-118122700D01*
X85418098Y-117309603D01*
X85174129Y-117381186D01*
X85053229Y-117636696D01*
X84984500Y-117910884D01*
X84970583Y-118193212D01*
X84643665Y-118193212D01*
X84650617Y-118052188D01*
X84609187Y-117772570D01*
X84514003Y-117506408D01*
X84447071Y-117381186D01*
X84203102Y-117309603D01*
X83390005Y-118122700D01*
X83030795Y-118122700D01*
X82217698Y-117309603D01*
X81973729Y-117381186D01*
X81852829Y-117636696D01*
X81784100Y-117910884D01*
X81770183Y-118193212D01*
X81519947Y-118193212D01*
X81528143Y-118110000D01*
X81500436Y-117828691D01*
X81418382Y-117558192D01*
X81285132Y-117308899D01*
X81138312Y-117129998D01*
X82397303Y-117129998D01*
X83210400Y-117943095D01*
X84023497Y-117129998D01*
X85597703Y-117129998D01*
X86410800Y-117943095D01*
X87223897Y-117129998D01*
X88696503Y-117129998D01*
X89509600Y-117943095D01*
X90322697Y-117129998D01*
X90251114Y-116886029D01*
X89995604Y-116765129D01*
X89721416Y-116696400D01*
X89439088Y-116682483D01*
X89159470Y-116723913D01*
X88893308Y-116819097D01*
X88768086Y-116886029D01*
X88696503Y-117129998D01*
X87223897Y-117129998D01*
X87152314Y-116886029D01*
X86896804Y-116765129D01*
X86622616Y-116696400D01*
X86340288Y-116682483D01*
X86060670Y-116723913D01*
X85794508Y-116819097D01*
X85669286Y-116886029D01*
X85597703Y-117129998D01*
X84023497Y-117129998D01*
X83951914Y-116886029D01*
X83696404Y-116765129D01*
X83422216Y-116696400D01*
X83139888Y-116682483D01*
X82860270Y-116723913D01*
X82594108Y-116819097D01*
X82468886Y-116886029D01*
X82397303Y-117129998D01*
X81138312Y-117129998D01*
X81105808Y-117090392D01*
X80887301Y-116911068D01*
X80638008Y-116777818D01*
X80367509Y-116695764D01*
X80156692Y-116675000D01*
X80015708Y-116675000D01*
X79804891Y-116695764D01*
X79534392Y-116777818D01*
X79285099Y-116911068D01*
X79066592Y-117090392D01*
X78887268Y-117308899D01*
X78754018Y-117558192D01*
X78671964Y-117828691D01*
X78644257Y-118110000D01*
X78454743Y-118110000D01*
X78427036Y-117828691D01*
X78344982Y-117558192D01*
X78211732Y-117308899D01*
X78032408Y-117090392D01*
X77813901Y-116911068D01*
X77564608Y-116777818D01*
X77294109Y-116695764D01*
X77083292Y-116675000D01*
X76942308Y-116675000D01*
X76731491Y-116695764D01*
X76460992Y-116777818D01*
X76211699Y-116911068D01*
X75993192Y-117090392D01*
X75813868Y-117308899D01*
X75680618Y-117558192D01*
X75598564Y-117828691D01*
X75570857Y-118110000D01*
X75598564Y-118391309D01*
X75612092Y-118435905D01*
X75139980Y-118908017D01*
X75271582Y-118661808D01*
X75353636Y-118391309D01*
X75381343Y-118110000D01*
X75353636Y-117828691D01*
X75271582Y-117558192D01*
X75138332Y-117308899D01*
X74959008Y-117090392D01*
X74740501Y-116911068D01*
X74491208Y-116777818D01*
X74220709Y-116695764D01*
X74009892Y-116675000D01*
X73868908Y-116675000D01*
X73658091Y-116695764D01*
X73387592Y-116777818D01*
X73138299Y-116911068D01*
X72919792Y-117090392D01*
X72740468Y-117308899D01*
X72607218Y-117558192D01*
X72525164Y-117828691D01*
X72497457Y-118110000D01*
X72525164Y-118391309D01*
X72538692Y-118435906D01*
X71252239Y-119722360D01*
X69664247Y-119722360D01*
X69666818Y-119721295D01*
X70262177Y-119323489D01*
X70768489Y-118817177D01*
X71166295Y-118221818D01*
X71440309Y-117560290D01*
X71580000Y-116858016D01*
X71580000Y-116141984D01*
X71440309Y-115439710D01*
X71166295Y-114778182D01*
X70768489Y-114182823D01*
X70262177Y-113676511D01*
X69666818Y-113278705D01*
X69005290Y-113004691D01*
X68303016Y-112865000D01*
X67586984Y-112865000D01*
X66884710Y-113004691D01*
X66223182Y-113278705D01*
X65627823Y-113676511D01*
X65121511Y-114182823D01*
X64723705Y-114778182D01*
X64449691Y-115439710D01*
X64310000Y-116141984D01*
X64310000Y-116858016D01*
X64449691Y-117560290D01*
X64723705Y-118221818D01*
X65121511Y-118817177D01*
X65627823Y-119323489D01*
X66223182Y-119721295D01*
X66225753Y-119722360D01*
X48508763Y-119722360D01*
X44176001Y-115389600D01*
X44176001Y-114001823D01*
X44179677Y-113964500D01*
X44176001Y-113927177D01*
X44176001Y-113927168D01*
X44165004Y-113815515D01*
X44121547Y-113672254D01*
X44050975Y-113540225D01*
X43956002Y-113424500D01*
X43926998Y-113400697D01*
X43691708Y-113165407D01*
X43705236Y-113120809D01*
X43732943Y-112839500D01*
X43705236Y-112558191D01*
X43623182Y-112287692D01*
X43489932Y-112038399D01*
X43310608Y-111819892D01*
X43092101Y-111640568D01*
X42959142Y-111569500D01*
X43092101Y-111498432D01*
X43310608Y-111319108D01*
X43489932Y-111100601D01*
X43623182Y-110851308D01*
X43705236Y-110580809D01*
X43732943Y-110299500D01*
X43705236Y-110018191D01*
X43623182Y-109747692D01*
X43489932Y-109498399D01*
X43310608Y-109279892D01*
X43092101Y-109100568D01*
X42959142Y-109029500D01*
X43092101Y-108958432D01*
X43310608Y-108779108D01*
X43489932Y-108560601D01*
X43623182Y-108311308D01*
X43705236Y-108040809D01*
X43732943Y-107759500D01*
X43705236Y-107478191D01*
X43623182Y-107207692D01*
X43489932Y-106958399D01*
X43310608Y-106739892D01*
X43092101Y-106560568D01*
X42959142Y-106489500D01*
X43092101Y-106418432D01*
X43310608Y-106239108D01*
X43489932Y-106020601D01*
X43623182Y-105771308D01*
X43705236Y-105500809D01*
X43732943Y-105219500D01*
X43705236Y-104938191D01*
X43623182Y-104667692D01*
X43489932Y-104418399D01*
X43310608Y-104199892D01*
X43092101Y-104020568D01*
X42959142Y-103949500D01*
X43092101Y-103878432D01*
X43310608Y-103699108D01*
X43489932Y-103480601D01*
X43623182Y-103231308D01*
X43705236Y-102960809D01*
X43732943Y-102679500D01*
X43705236Y-102398191D01*
X43623182Y-102127692D01*
X43489932Y-101878399D01*
X43310608Y-101659892D01*
X43092101Y-101480568D01*
X42959142Y-101409500D01*
X43092101Y-101338432D01*
X43310608Y-101159108D01*
X43489932Y-100940601D01*
X43623182Y-100691308D01*
X43705236Y-100420809D01*
X43732943Y-100139500D01*
X43705236Y-99858191D01*
X43623182Y-99587692D01*
X43489932Y-99338399D01*
X43310608Y-99119892D01*
X43092101Y-98940568D01*
X42959142Y-98869500D01*
X43092101Y-98798432D01*
X43310608Y-98619108D01*
X43489932Y-98400601D01*
X43623182Y-98151308D01*
X43705236Y-97880809D01*
X43732943Y-97599500D01*
X43705236Y-97318191D01*
X43623182Y-97047692D01*
X43489932Y-96798399D01*
X43310608Y-96579892D01*
X43092101Y-96400568D01*
X42959142Y-96329500D01*
X43092101Y-96258432D01*
X43310608Y-96079108D01*
X43489932Y-95860601D01*
X43623182Y-95611308D01*
X43705236Y-95340809D01*
X43732943Y-95059500D01*
X43730402Y-95033704D01*
X48274596Y-99577899D01*
X48274607Y-99577908D01*
X50762200Y-102065502D01*
X50785998Y-102094500D01*
X50901723Y-102189473D01*
X51033752Y-102260045D01*
X51177013Y-102303502D01*
X51288666Y-102314499D01*
X51288674Y-102314499D01*
X51325999Y-102318175D01*
X51363324Y-102314499D01*
X53392990Y-102314499D01*
X53436927Y-102358436D01*
X53606445Y-102471704D01*
X53794803Y-102549725D01*
X53994762Y-102589499D01*
X54198640Y-102589499D01*
X54398599Y-102549725D01*
X54586957Y-102471704D01*
X54756475Y-102358436D01*
X54900638Y-102214273D01*
X55013906Y-102044755D01*
X55091927Y-101856397D01*
X55131701Y-101656438D01*
X55131701Y-101452560D01*
X55091927Y-101252601D01*
X55013906Y-101064243D01*
X54900638Y-100894725D01*
X54756475Y-100750562D01*
X54586957Y-100637294D01*
X54398599Y-100559273D01*
X54198640Y-100519499D01*
X53994762Y-100519499D01*
X53794803Y-100559273D01*
X53606445Y-100637294D01*
X53436927Y-100750562D01*
X53392990Y-100794499D01*
X51640801Y-100794499D01*
X49349408Y-98503107D01*
X49349399Y-98503096D01*
X43691708Y-92845406D01*
X43705236Y-92800809D01*
X43732943Y-92519500D01*
X43705236Y-92238191D01*
X43623182Y-91967692D01*
X43489932Y-91718399D01*
X43310608Y-91499892D01*
X43092101Y-91320568D01*
X42954318Y-91246921D01*
X43146131Y-91131885D01*
X43354519Y-90942914D01*
X43522037Y-90716920D01*
X43642246Y-90462587D01*
X43682904Y-90328539D01*
X43560915Y-90106500D01*
X42418000Y-90106500D01*
X42418000Y-90126500D01*
X42164000Y-90126500D01*
X42164000Y-90106500D01*
X41021085Y-90106500D01*
X40899096Y-90328539D01*
X40939754Y-90462587D01*
X41059963Y-90716920D01*
X41227481Y-90942914D01*
X41435869Y-91131885D01*
X41627682Y-91246921D01*
X41489899Y-91320568D01*
X41271392Y-91499892D01*
X41092068Y-91718399D01*
X40958818Y-91967692D01*
X40876764Y-92238191D01*
X40849057Y-92519500D01*
X40660000Y-92519500D01*
X40660000Y-84899500D01*
X40849057Y-84899500D01*
X40876764Y-85180809D01*
X40958818Y-85451308D01*
X41092068Y-85700601D01*
X41271392Y-85919108D01*
X41489899Y-86098432D01*
X41622858Y-86169500D01*
X41489899Y-86240568D01*
X41271392Y-86419892D01*
X41092068Y-86638399D01*
X40958818Y-86887692D01*
X40876764Y-87158191D01*
X40849057Y-87439500D01*
X40876764Y-87720809D01*
X40958818Y-87991308D01*
X41092068Y-88240601D01*
X41271392Y-88459108D01*
X41489899Y-88638432D01*
X41627682Y-88712079D01*
X41435869Y-88827115D01*
X41227481Y-89016086D01*
X41059963Y-89242080D01*
X40939754Y-89496413D01*
X40899096Y-89630461D01*
X41021085Y-89852500D01*
X42164000Y-89852500D01*
X42164000Y-89832500D01*
X42418000Y-89832500D01*
X42418000Y-89852500D01*
X43560915Y-89852500D01*
X43682904Y-89630461D01*
X43642246Y-89496413D01*
X43522037Y-89242080D01*
X43354519Y-89016086D01*
X43146131Y-88827115D01*
X42954318Y-88712079D01*
X43092101Y-88638432D01*
X43310608Y-88459108D01*
X43489932Y-88240601D01*
X43623182Y-87991308D01*
X43705236Y-87720809D01*
X43732943Y-87439500D01*
X56089057Y-87439500D01*
X56116764Y-87720809D01*
X56198818Y-87991308D01*
X56332068Y-88240601D01*
X56511392Y-88459108D01*
X56729899Y-88638432D01*
X56862858Y-88709500D01*
X56729899Y-88780568D01*
X56511392Y-88959892D01*
X56332068Y-89178399D01*
X56198818Y-89427692D01*
X56116764Y-89698191D01*
X56089057Y-89979500D01*
X56116764Y-90260809D01*
X56198818Y-90531308D01*
X56332068Y-90780601D01*
X56511392Y-90999108D01*
X56729899Y-91178432D01*
X56862858Y-91249500D01*
X56729899Y-91320568D01*
X56511392Y-91499892D01*
X56332068Y-91718399D01*
X56198818Y-91967692D01*
X56116764Y-92238191D01*
X56089057Y-92519500D01*
X56116764Y-92800809D01*
X56198818Y-93071308D01*
X56332068Y-93320601D01*
X56511392Y-93539108D01*
X56729899Y-93718432D01*
X56862858Y-93789500D01*
X56729899Y-93860568D01*
X56511392Y-94039892D01*
X56332068Y-94258399D01*
X56198818Y-94507692D01*
X56116764Y-94778191D01*
X56089057Y-95059500D01*
X56116764Y-95340809D01*
X56198818Y-95611308D01*
X56332068Y-95860601D01*
X56511392Y-96079108D01*
X56729899Y-96258432D01*
X56862858Y-96329500D01*
X56729899Y-96400568D01*
X56511392Y-96579892D01*
X56332068Y-96798399D01*
X56198818Y-97047692D01*
X56116764Y-97318191D01*
X56089057Y-97599500D01*
X56116764Y-97880809D01*
X56198818Y-98151308D01*
X56332068Y-98400601D01*
X56511392Y-98619108D01*
X56729899Y-98798432D01*
X56862858Y-98869500D01*
X56729899Y-98940568D01*
X56511392Y-99119892D01*
X56332068Y-99338399D01*
X56198818Y-99587692D01*
X56116764Y-99858191D01*
X56089057Y-100139500D01*
X56116764Y-100420809D01*
X56198818Y-100691308D01*
X56332068Y-100940601D01*
X56511392Y-101159108D01*
X56729899Y-101338432D01*
X56862858Y-101409500D01*
X56729899Y-101480568D01*
X56511392Y-101659892D01*
X56332068Y-101878399D01*
X56198818Y-102127692D01*
X56116764Y-102398191D01*
X56089057Y-102679500D01*
X56116764Y-102960809D01*
X56198818Y-103231308D01*
X56332068Y-103480601D01*
X56511392Y-103699108D01*
X56729899Y-103878432D01*
X56862858Y-103949500D01*
X56729899Y-104020568D01*
X56511392Y-104199892D01*
X56332068Y-104418399D01*
X56198818Y-104667692D01*
X56116764Y-104938191D01*
X56089057Y-105219500D01*
X56116764Y-105500809D01*
X56198818Y-105771308D01*
X56332068Y-106020601D01*
X56511392Y-106239108D01*
X56729899Y-106418432D01*
X56862858Y-106489500D01*
X56729899Y-106560568D01*
X56511392Y-106739892D01*
X56332068Y-106958399D01*
X56198818Y-107207692D01*
X56116764Y-107478191D01*
X56089057Y-107759500D01*
X56116764Y-108040809D01*
X56198818Y-108311308D01*
X56332068Y-108560601D01*
X56511392Y-108779108D01*
X56729899Y-108958432D01*
X56862858Y-109029500D01*
X56729899Y-109100568D01*
X56511392Y-109279892D01*
X56332068Y-109498399D01*
X56198818Y-109747692D01*
X56116764Y-110018191D01*
X56089057Y-110299500D01*
X56116764Y-110580809D01*
X56198818Y-110851308D01*
X56332068Y-111100601D01*
X56511392Y-111319108D01*
X56729899Y-111498432D01*
X56862858Y-111569500D01*
X56729899Y-111640568D01*
X56511392Y-111819892D01*
X56332068Y-112038399D01*
X56198818Y-112287692D01*
X56116764Y-112558191D01*
X56089057Y-112839500D01*
X56116764Y-113120809D01*
X56198818Y-113391308D01*
X56332068Y-113640601D01*
X56511392Y-113859108D01*
X56729899Y-114038432D01*
X56862858Y-114109500D01*
X56729899Y-114180568D01*
X56511392Y-114359892D01*
X56332068Y-114578399D01*
X56198818Y-114827692D01*
X56116764Y-115098191D01*
X56089057Y-115379500D01*
X56116764Y-115660809D01*
X56198818Y-115931308D01*
X56332068Y-116180601D01*
X56511392Y-116399108D01*
X56729899Y-116578432D01*
X56862858Y-116649500D01*
X56729899Y-116720568D01*
X56511392Y-116899892D01*
X56332068Y-117118399D01*
X56198818Y-117367692D01*
X56116764Y-117638191D01*
X56089057Y-117919500D01*
X56116764Y-118200809D01*
X56198818Y-118471308D01*
X56332068Y-118720601D01*
X56511392Y-118939108D01*
X56729899Y-119118432D01*
X56979192Y-119251682D01*
X57249691Y-119333736D01*
X57460508Y-119354500D01*
X57601492Y-119354500D01*
X57812309Y-119333736D01*
X58082808Y-119251682D01*
X58332101Y-119118432D01*
X58550608Y-118939108D01*
X58729932Y-118720601D01*
X58863182Y-118471308D01*
X58945236Y-118200809D01*
X58972943Y-117919500D01*
X58945236Y-117638191D01*
X58863182Y-117367692D01*
X58729932Y-117118399D01*
X58550608Y-116899892D01*
X58332101Y-116720568D01*
X58199142Y-116649500D01*
X58332101Y-116578432D01*
X58550608Y-116399108D01*
X58729932Y-116180601D01*
X58863182Y-115931308D01*
X58945236Y-115660809D01*
X58972943Y-115379500D01*
X58945236Y-115098191D01*
X58863182Y-114827692D01*
X58729932Y-114578399D01*
X58550608Y-114359892D01*
X58332101Y-114180568D01*
X58199142Y-114109500D01*
X58332101Y-114038432D01*
X58550608Y-113859108D01*
X58729932Y-113640601D01*
X58863182Y-113391308D01*
X58945236Y-113120809D01*
X58972943Y-112839500D01*
X58945236Y-112558191D01*
X58863182Y-112287692D01*
X58729932Y-112038399D01*
X58550608Y-111819892D01*
X58332101Y-111640568D01*
X58199142Y-111569500D01*
X58332101Y-111498432D01*
X58550608Y-111319108D01*
X58729932Y-111100601D01*
X58863182Y-110851308D01*
X58945236Y-110580809D01*
X58972943Y-110299500D01*
X58945236Y-110018191D01*
X58863182Y-109747692D01*
X58729932Y-109498399D01*
X58550608Y-109279892D01*
X58332101Y-109100568D01*
X58199142Y-109029500D01*
X58332101Y-108958432D01*
X58550608Y-108779108D01*
X58729932Y-108560601D01*
X58863182Y-108311308D01*
X58945236Y-108040809D01*
X58972943Y-107759500D01*
X58945236Y-107478191D01*
X58863182Y-107207692D01*
X58729932Y-106958399D01*
X58550608Y-106739892D01*
X58332101Y-106560568D01*
X58199142Y-106489500D01*
X58332101Y-106418432D01*
X58550608Y-106239108D01*
X58729932Y-106020601D01*
X58863182Y-105771308D01*
X58945236Y-105500809D01*
X58972943Y-105219500D01*
X58945236Y-104938191D01*
X58863182Y-104667692D01*
X58729932Y-104418399D01*
X58550608Y-104199892D01*
X58332101Y-104020568D01*
X58199142Y-103949500D01*
X58332101Y-103878432D01*
X58550608Y-103699108D01*
X58729932Y-103480601D01*
X58863182Y-103231308D01*
X58945236Y-102960809D01*
X58972943Y-102679500D01*
X58945236Y-102398191D01*
X58863182Y-102127692D01*
X58729932Y-101878399D01*
X58550608Y-101659892D01*
X58332101Y-101480568D01*
X58199142Y-101409500D01*
X58332101Y-101338432D01*
X58550608Y-101159108D01*
X58729932Y-100940601D01*
X58863182Y-100691308D01*
X58945236Y-100420809D01*
X58972943Y-100139500D01*
X58945236Y-99858191D01*
X58863182Y-99587692D01*
X58729932Y-99338399D01*
X58550608Y-99119892D01*
X58332101Y-98940568D01*
X58199142Y-98869500D01*
X58332101Y-98798432D01*
X58550608Y-98619108D01*
X58570383Y-98595011D01*
X59483313Y-98595011D01*
X59486990Y-98632343D01*
X59486989Y-103101078D01*
X59483313Y-103138401D01*
X59486989Y-103175723D01*
X59486989Y-103175733D01*
X59497986Y-103287386D01*
X59531336Y-103397327D01*
X59541443Y-103430647D01*
X59612015Y-103562677D01*
X59631956Y-103586975D01*
X59706988Y-103678402D01*
X59735992Y-103702205D01*
X67129202Y-111095417D01*
X67152996Y-111124410D01*
X67181989Y-111148204D01*
X67181993Y-111148208D01*
X67252682Y-111206220D01*
X67268721Y-111219383D01*
X67400750Y-111289955D01*
X67544011Y-111333412D01*
X67655664Y-111344409D01*
X67655673Y-111344409D01*
X67692996Y-111348085D01*
X67730319Y-111344409D01*
X77414469Y-111344409D01*
X77451791Y-111348085D01*
X77489113Y-111344409D01*
X77489124Y-111344409D01*
X77600777Y-111333412D01*
X77744038Y-111289955D01*
X77876067Y-111219383D01*
X77991792Y-111124410D01*
X78015595Y-111095406D01*
X79762314Y-109348688D01*
X79944865Y-109385000D01*
X80227535Y-109385000D01*
X80504774Y-109329853D01*
X80765927Y-109221680D01*
X81000959Y-109064637D01*
X81200837Y-108864759D01*
X81304243Y-108710000D01*
X81982711Y-108710000D01*
X82011468Y-108763801D01*
X82190792Y-108982308D01*
X82409299Y-109161632D01*
X82658592Y-109294882D01*
X82929091Y-109376936D01*
X83139908Y-109397700D01*
X83280892Y-109397700D01*
X83491709Y-109376936D01*
X83762208Y-109294882D01*
X84011501Y-109161632D01*
X84230008Y-108982308D01*
X84409332Y-108763801D01*
X84542582Y-108514508D01*
X84624636Y-108244009D01*
X84652343Y-107962700D01*
X84624636Y-107681391D01*
X84595396Y-107584999D01*
X84958298Y-107584999D01*
X85010092Y-107636793D01*
X84996564Y-107681391D01*
X84968857Y-107962700D01*
X84996564Y-108244009D01*
X85078618Y-108514508D01*
X85211868Y-108763801D01*
X85391192Y-108982308D01*
X85609699Y-109161632D01*
X85858992Y-109294882D01*
X86129491Y-109376936D01*
X86340308Y-109397700D01*
X86481292Y-109397700D01*
X86692109Y-109376936D01*
X86962608Y-109294882D01*
X87211901Y-109161632D01*
X87430408Y-108982308D01*
X87609732Y-108763801D01*
X87742982Y-108514508D01*
X87825036Y-108244009D01*
X87852743Y-107962700D01*
X87825036Y-107681391D01*
X87742982Y-107410892D01*
X87609732Y-107161599D01*
X87587894Y-107134989D01*
X87607088Y-107134989D01*
X88108892Y-107636794D01*
X88095364Y-107681391D01*
X88067657Y-107962700D01*
X88095364Y-108244009D01*
X88177418Y-108514508D01*
X88310668Y-108763801D01*
X88489992Y-108982308D01*
X88708499Y-109161632D01*
X88957792Y-109294882D01*
X89228291Y-109376936D01*
X89439108Y-109397700D01*
X89580092Y-109397700D01*
X89790909Y-109376936D01*
X90061408Y-109294882D01*
X90310701Y-109161632D01*
X90529208Y-108982308D01*
X90708532Y-108763801D01*
X90841782Y-108514508D01*
X90923836Y-108244009D01*
X90951543Y-107962700D01*
X90923836Y-107681391D01*
X90841782Y-107410892D01*
X90708532Y-107161599D01*
X90529208Y-106943092D01*
X90310701Y-106763768D01*
X90061408Y-106630518D01*
X89790909Y-106548464D01*
X89580092Y-106527700D01*
X89439108Y-106527700D01*
X89228291Y-106548464D01*
X89183694Y-106561992D01*
X88485692Y-105863991D01*
X88461890Y-105834988D01*
X88346165Y-105740015D01*
X88214136Y-105669443D01*
X88070875Y-105625986D01*
X87959222Y-105614989D01*
X87959211Y-105614989D01*
X87921889Y-105611313D01*
X87884567Y-105614989D01*
X75551734Y-105614989D01*
X75514411Y-105611313D01*
X75477088Y-105614989D01*
X75477078Y-105614989D01*
X75365425Y-105625986D01*
X75222164Y-105669443D01*
X75090134Y-105740015D01*
X75052004Y-105771308D01*
X74974410Y-105834988D01*
X74950612Y-105863986D01*
X74263286Y-106551312D01*
X74080735Y-106515000D01*
X73798065Y-106515000D01*
X73520826Y-106570147D01*
X73259673Y-106678320D01*
X73024641Y-106835363D01*
X72824763Y-107035241D01*
X72667720Y-107270273D01*
X72559547Y-107531426D01*
X72504400Y-107808665D01*
X72504400Y-108091335D01*
X72540712Y-108273886D01*
X71890209Y-108924390D01*
X68380600Y-108924390D01*
X63507001Y-104050792D01*
X63507001Y-103670000D01*
X72587123Y-103670000D01*
X72622000Y-103673435D01*
X72656877Y-103670000D01*
X72761184Y-103659727D01*
X72895020Y-103619128D01*
X73018363Y-103553200D01*
X73126475Y-103464475D01*
X73215200Y-103356363D01*
X73259705Y-103273099D01*
X73285038Y-103311013D01*
X73470987Y-103496962D01*
X73689641Y-103643061D01*
X73932595Y-103743696D01*
X74190514Y-103795000D01*
X74453486Y-103795000D01*
X74711405Y-103743696D01*
X74954359Y-103643061D01*
X75173013Y-103496962D01*
X75358962Y-103311013D01*
X75419775Y-103220000D01*
X80265069Y-103220000D01*
X80338520Y-103397327D01*
X80495563Y-103632359D01*
X80695441Y-103832237D01*
X80930473Y-103989280D01*
X81191626Y-104097453D01*
X81468865Y-104152600D01*
X81751535Y-104152600D01*
X82028774Y-104097453D01*
X82289927Y-103989280D01*
X82524959Y-103832237D01*
X82646894Y-103710302D01*
X85797103Y-103710302D01*
X85868686Y-103954271D01*
X86124196Y-104075171D01*
X86398384Y-104143900D01*
X86680712Y-104157817D01*
X86960330Y-104116387D01*
X87226492Y-104021203D01*
X87351714Y-103954271D01*
X87423297Y-103710302D01*
X86610200Y-102897205D01*
X85797103Y-103710302D01*
X82646894Y-103710302D01*
X82724837Y-103632359D01*
X82881880Y-103397327D01*
X82990053Y-103136174D01*
X83045200Y-102858935D01*
X83045200Y-102788112D01*
X85169983Y-102788112D01*
X85211413Y-103067730D01*
X85306597Y-103333892D01*
X85373529Y-103459114D01*
X85617498Y-103530697D01*
X86430595Y-102717600D01*
X86789805Y-102717600D01*
X87602902Y-103530697D01*
X87846871Y-103459114D01*
X87967771Y-103203604D01*
X88036500Y-102929416D01*
X88050417Y-102647088D01*
X88008987Y-102367470D01*
X87913803Y-102101308D01*
X87846871Y-101976086D01*
X87602902Y-101904503D01*
X86789805Y-102717600D01*
X86430595Y-102717600D01*
X85617498Y-101904503D01*
X85373529Y-101976086D01*
X85252629Y-102231596D01*
X85183900Y-102505784D01*
X85169983Y-102788112D01*
X83045200Y-102788112D01*
X83045200Y-102576265D01*
X82990053Y-102299026D01*
X82881880Y-102037873D01*
X82724837Y-101802841D01*
X82646894Y-101724898D01*
X85797103Y-101724898D01*
X86610200Y-102537995D01*
X87423297Y-101724898D01*
X87351714Y-101480929D01*
X87096204Y-101360029D01*
X86822016Y-101291300D01*
X86539688Y-101277383D01*
X86260070Y-101318813D01*
X85993908Y-101413997D01*
X85868686Y-101480929D01*
X85797103Y-101724898D01*
X82646894Y-101724898D01*
X82524959Y-101602963D01*
X82370200Y-101499557D01*
X82370200Y-100862243D01*
X82524959Y-100758837D01*
X82646894Y-100636902D01*
X85797103Y-100636902D01*
X85868686Y-100880871D01*
X86124196Y-101001771D01*
X86398384Y-101070500D01*
X86680712Y-101084417D01*
X86960330Y-101042987D01*
X87226492Y-100947803D01*
X87351714Y-100880871D01*
X87423297Y-100636902D01*
X86610200Y-99823805D01*
X85797103Y-100636902D01*
X82646894Y-100636902D01*
X82724837Y-100558959D01*
X82881880Y-100323927D01*
X82990053Y-100062774D01*
X83045200Y-99785535D01*
X83045200Y-99714712D01*
X85169983Y-99714712D01*
X85211413Y-99994330D01*
X85306597Y-100260492D01*
X85373529Y-100385714D01*
X85617498Y-100457297D01*
X86430595Y-99644200D01*
X86789805Y-99644200D01*
X87602902Y-100457297D01*
X87846871Y-100385714D01*
X87967771Y-100130204D01*
X88036500Y-99856016D01*
X88050417Y-99573688D01*
X88008987Y-99294070D01*
X87913803Y-99027908D01*
X87846871Y-98902686D01*
X87602902Y-98831103D01*
X86789805Y-99644200D01*
X86430595Y-99644200D01*
X85617498Y-98831103D01*
X85373529Y-98902686D01*
X85252629Y-99158196D01*
X85183900Y-99432384D01*
X85169983Y-99714712D01*
X83045200Y-99714712D01*
X83045200Y-99502865D01*
X82990053Y-99225626D01*
X82881880Y-98964473D01*
X82724837Y-98729441D01*
X82646894Y-98651498D01*
X85797103Y-98651498D01*
X86610200Y-99464595D01*
X87423297Y-98651498D01*
X87351714Y-98407529D01*
X87096204Y-98286629D01*
X86822016Y-98217900D01*
X86539688Y-98203983D01*
X86260070Y-98245413D01*
X85993908Y-98340597D01*
X85868686Y-98407529D01*
X85797103Y-98651498D01*
X82646894Y-98651498D01*
X82524959Y-98529563D01*
X82289927Y-98372520D01*
X82028774Y-98264347D01*
X81751535Y-98209200D01*
X81468865Y-98209200D01*
X81191626Y-98264347D01*
X80930473Y-98372520D01*
X80695441Y-98529563D01*
X80495563Y-98729441D01*
X80338520Y-98964473D01*
X80230347Y-99225626D01*
X80175200Y-99502865D01*
X80175200Y-99785535D01*
X80230347Y-100062774D01*
X80338520Y-100323927D01*
X80495563Y-100558959D01*
X80695441Y-100758837D01*
X80850200Y-100862244D01*
X80850201Y-101499556D01*
X80695441Y-101602963D01*
X80598404Y-101700000D01*
X75419775Y-101700000D01*
X75358962Y-101608987D01*
X75319975Y-101570000D01*
X75358962Y-101531013D01*
X75505061Y-101312359D01*
X75605696Y-101069405D01*
X75657000Y-100811486D01*
X75657000Y-100548514D01*
X75605696Y-100290595D01*
X75505061Y-100047641D01*
X75358962Y-99828987D01*
X75324109Y-99794134D01*
X75359925Y-99758317D01*
X75243271Y-99641663D01*
X75477037Y-99582203D01*
X75587934Y-99343758D01*
X75650183Y-99088260D01*
X75661390Y-98825527D01*
X75621125Y-98565656D01*
X75530935Y-98318634D01*
X75477037Y-98217797D01*
X75243271Y-98158337D01*
X75359925Y-98041683D01*
X75324109Y-98005867D01*
X75358962Y-97971013D01*
X75505061Y-97752359D01*
X75605696Y-97509405D01*
X75657000Y-97251486D01*
X75657000Y-96988514D01*
X75605696Y-96730595D01*
X75505061Y-96487641D01*
X75500133Y-96480265D01*
X80179000Y-96480265D01*
X80179000Y-96762935D01*
X80234147Y-97040174D01*
X80342320Y-97301327D01*
X80499363Y-97536359D01*
X80699241Y-97736237D01*
X80934273Y-97893280D01*
X81195426Y-98001453D01*
X81472665Y-98056600D01*
X81755335Y-98056600D01*
X82032574Y-98001453D01*
X82293727Y-97893280D01*
X82528759Y-97736237D01*
X82650694Y-97614302D01*
X85800903Y-97614302D01*
X85872486Y-97858271D01*
X86127996Y-97979171D01*
X86402184Y-98047900D01*
X86684512Y-98061817D01*
X86964130Y-98020387D01*
X87230292Y-97925203D01*
X87355514Y-97858271D01*
X87427097Y-97614302D01*
X86614000Y-96801205D01*
X85800903Y-97614302D01*
X82650694Y-97614302D01*
X82728637Y-97536359D01*
X82885680Y-97301327D01*
X82993853Y-97040174D01*
X83049000Y-96762935D01*
X83049000Y-96692112D01*
X85173783Y-96692112D01*
X85215213Y-96971730D01*
X85310397Y-97237892D01*
X85377329Y-97363114D01*
X85621298Y-97434697D01*
X86434395Y-96621600D01*
X86793605Y-96621600D01*
X87606702Y-97434697D01*
X87850671Y-97363114D01*
X87971571Y-97107604D01*
X88040300Y-96833416D01*
X88054217Y-96551088D01*
X88012787Y-96271470D01*
X87917603Y-96005308D01*
X87850671Y-95880086D01*
X87606702Y-95808503D01*
X86793605Y-96621600D01*
X86434395Y-96621600D01*
X85621298Y-95808503D01*
X85377329Y-95880086D01*
X85256429Y-96135596D01*
X85187700Y-96409784D01*
X85173783Y-96692112D01*
X83049000Y-96692112D01*
X83049000Y-96480265D01*
X82993853Y-96203026D01*
X82885680Y-95941873D01*
X82728637Y-95706841D01*
X82650694Y-95628898D01*
X85800903Y-95628898D01*
X86614000Y-96441995D01*
X87427097Y-95628898D01*
X87355514Y-95384929D01*
X87100004Y-95264029D01*
X86825816Y-95195300D01*
X86543488Y-95181383D01*
X86263870Y-95222813D01*
X85997708Y-95317997D01*
X85872486Y-95384929D01*
X85800903Y-95628898D01*
X82650694Y-95628898D01*
X82528759Y-95506963D01*
X82293727Y-95349920D01*
X82032574Y-95241747D01*
X81755335Y-95186600D01*
X81472665Y-95186600D01*
X81195426Y-95241747D01*
X80934273Y-95349920D01*
X80699241Y-95506963D01*
X80499363Y-95706841D01*
X80342320Y-95941873D01*
X80234147Y-96203026D01*
X80179000Y-96480265D01*
X75500133Y-96480265D01*
X75358962Y-96268987D01*
X75319975Y-96230000D01*
X75358962Y-96191013D01*
X75505061Y-95972359D01*
X75605696Y-95729405D01*
X75657000Y-95471486D01*
X75657000Y-95208514D01*
X75635645Y-95101156D01*
X77406136Y-93330665D01*
X80179000Y-93330665D01*
X80179000Y-93613335D01*
X80234147Y-93890574D01*
X80342320Y-94151727D01*
X80499363Y-94386759D01*
X80699241Y-94586637D01*
X80934273Y-94743680D01*
X81195426Y-94851853D01*
X81472665Y-94907000D01*
X81755335Y-94907000D01*
X82032574Y-94851853D01*
X82293727Y-94743680D01*
X82528759Y-94586637D01*
X82650694Y-94464702D01*
X85800903Y-94464702D01*
X85872486Y-94708671D01*
X86127996Y-94829571D01*
X86402184Y-94898300D01*
X86684512Y-94912217D01*
X86964130Y-94870787D01*
X87230292Y-94775603D01*
X87355514Y-94708671D01*
X87427097Y-94464702D01*
X86614000Y-93651605D01*
X85800903Y-94464702D01*
X82650694Y-94464702D01*
X82728637Y-94386759D01*
X82885680Y-94151727D01*
X82993853Y-93890574D01*
X83049000Y-93613335D01*
X83049000Y-93542512D01*
X85173783Y-93542512D01*
X85215213Y-93822130D01*
X85310397Y-94088292D01*
X85377329Y-94213514D01*
X85621298Y-94285097D01*
X86434395Y-93472000D01*
X86793605Y-93472000D01*
X87606702Y-94285097D01*
X87850671Y-94213514D01*
X87971571Y-93958004D01*
X88040300Y-93683816D01*
X88054217Y-93401488D01*
X88012787Y-93121870D01*
X87917603Y-92855708D01*
X87850671Y-92730486D01*
X87606702Y-92658903D01*
X86793605Y-93472000D01*
X86434395Y-93472000D01*
X85621298Y-92658903D01*
X85377329Y-92730486D01*
X85256429Y-92985996D01*
X85187700Y-93260184D01*
X85173783Y-93542512D01*
X83049000Y-93542512D01*
X83049000Y-93330665D01*
X82993853Y-93053426D01*
X82885680Y-92792273D01*
X82728637Y-92557241D01*
X82650694Y-92479298D01*
X85800903Y-92479298D01*
X86614000Y-93292395D01*
X87427097Y-92479298D01*
X87355514Y-92235329D01*
X87100004Y-92114429D01*
X86825816Y-92045700D01*
X86543488Y-92031783D01*
X86263870Y-92073213D01*
X85997708Y-92168397D01*
X85872486Y-92235329D01*
X85800903Y-92479298D01*
X82650694Y-92479298D01*
X82528759Y-92357363D01*
X82293727Y-92200320D01*
X82032574Y-92092147D01*
X81755335Y-92037000D01*
X81472665Y-92037000D01*
X81195426Y-92092147D01*
X80934273Y-92200320D01*
X80699241Y-92357363D01*
X80499363Y-92557241D01*
X80342320Y-92792273D01*
X80234147Y-93053426D01*
X80179000Y-93330665D01*
X77406136Y-93330665D01*
X79527402Y-91209400D01*
X80366757Y-91209400D01*
X80470163Y-91364159D01*
X80670041Y-91564037D01*
X80905073Y-91721080D01*
X81166226Y-91829253D01*
X81443465Y-91884400D01*
X81726135Y-91884400D01*
X82003374Y-91829253D01*
X82264527Y-91721080D01*
X82499559Y-91564037D01*
X82621494Y-91442102D01*
X85771703Y-91442102D01*
X85843286Y-91686071D01*
X86098796Y-91806971D01*
X86372984Y-91875700D01*
X86655312Y-91889617D01*
X86934930Y-91848187D01*
X87201092Y-91753003D01*
X87326314Y-91686071D01*
X87397897Y-91442102D01*
X86584800Y-90629005D01*
X85771703Y-91442102D01*
X82621494Y-91442102D01*
X82699437Y-91364159D01*
X82856480Y-91129127D01*
X82964653Y-90867974D01*
X83019800Y-90590735D01*
X83019800Y-90519912D01*
X85144583Y-90519912D01*
X85186013Y-90799530D01*
X85281197Y-91065692D01*
X85348129Y-91190914D01*
X85592098Y-91262497D01*
X86405195Y-90449400D01*
X86764405Y-90449400D01*
X87577502Y-91262497D01*
X87821471Y-91190914D01*
X87942371Y-90935404D01*
X88011100Y-90661216D01*
X88025017Y-90378888D01*
X87983587Y-90099270D01*
X87888403Y-89833108D01*
X87821471Y-89707886D01*
X87577502Y-89636303D01*
X86764405Y-90449400D01*
X86405195Y-90449400D01*
X85592098Y-89636303D01*
X85348129Y-89707886D01*
X85227229Y-89963396D01*
X85158500Y-90237584D01*
X85144583Y-90519912D01*
X83019800Y-90519912D01*
X83019800Y-90308065D01*
X82964653Y-90030826D01*
X82856480Y-89769673D01*
X82699437Y-89534641D01*
X82621494Y-89456698D01*
X85771703Y-89456698D01*
X86584800Y-90269795D01*
X87397897Y-89456698D01*
X87326314Y-89212729D01*
X87070804Y-89091829D01*
X86796616Y-89023100D01*
X86514288Y-89009183D01*
X86234670Y-89050613D01*
X85968508Y-89145797D01*
X85843286Y-89212729D01*
X85771703Y-89456698D01*
X82621494Y-89456698D01*
X82499559Y-89334763D01*
X82344800Y-89231357D01*
X82344800Y-88543243D01*
X82499559Y-88439837D01*
X82621494Y-88317902D01*
X85771703Y-88317902D01*
X85843286Y-88561871D01*
X86098796Y-88682771D01*
X86372984Y-88751500D01*
X86655312Y-88765417D01*
X86934930Y-88723987D01*
X87201092Y-88628803D01*
X87326314Y-88561871D01*
X87397897Y-88317902D01*
X86584800Y-87504805D01*
X85771703Y-88317902D01*
X82621494Y-88317902D01*
X82699437Y-88239959D01*
X82856480Y-88004927D01*
X82964653Y-87743774D01*
X83019800Y-87466535D01*
X83019800Y-87395712D01*
X85144583Y-87395712D01*
X85186013Y-87675330D01*
X85281197Y-87941492D01*
X85348129Y-88066714D01*
X85592098Y-88138297D01*
X86405195Y-87325200D01*
X86764405Y-87325200D01*
X87577502Y-88138297D01*
X87821471Y-88066714D01*
X87942371Y-87811204D01*
X88011100Y-87537016D01*
X88025017Y-87254688D01*
X87983587Y-86975070D01*
X87888403Y-86708908D01*
X87821471Y-86583686D01*
X87577502Y-86512103D01*
X86764405Y-87325200D01*
X86405195Y-87325200D01*
X85592098Y-86512103D01*
X85348129Y-86583686D01*
X85227229Y-86839196D01*
X85158500Y-87113384D01*
X85144583Y-87395712D01*
X83019800Y-87395712D01*
X83019800Y-87183865D01*
X82964653Y-86906626D01*
X82856480Y-86645473D01*
X82699437Y-86410441D01*
X82621494Y-86332498D01*
X85771703Y-86332498D01*
X86584800Y-87145595D01*
X87397897Y-86332498D01*
X87326314Y-86088529D01*
X87070804Y-85967629D01*
X86796616Y-85898900D01*
X86514288Y-85884983D01*
X86234670Y-85926413D01*
X85968508Y-86021597D01*
X85843286Y-86088529D01*
X85771703Y-86332498D01*
X82621494Y-86332498D01*
X82499559Y-86210563D01*
X82264527Y-86053520D01*
X82003374Y-85945347D01*
X81726135Y-85890200D01*
X81443465Y-85890200D01*
X81166226Y-85945347D01*
X80905073Y-86053520D01*
X80670041Y-86210563D01*
X80470163Y-86410441D01*
X80313120Y-86645473D01*
X80204947Y-86906626D01*
X80149800Y-87183865D01*
X80149800Y-87466535D01*
X80204947Y-87743774D01*
X80313120Y-88004927D01*
X80470163Y-88239959D01*
X80670041Y-88439837D01*
X80824800Y-88543244D01*
X80824801Y-89231356D01*
X80670041Y-89334763D01*
X80470163Y-89534641D01*
X80366757Y-89689400D01*
X79249923Y-89689400D01*
X79212600Y-89685724D01*
X79175277Y-89689400D01*
X79175267Y-89689400D01*
X79063614Y-89700397D01*
X78920353Y-89743854D01*
X78788324Y-89814426D01*
X78672599Y-89909399D01*
X78648801Y-89938397D01*
X75551698Y-93035501D01*
X75530935Y-92978634D01*
X75477037Y-92877797D01*
X75243271Y-92818337D01*
X75359925Y-92701683D01*
X75324109Y-92665867D01*
X75358962Y-92631013D01*
X75505061Y-92412359D01*
X75605696Y-92169405D01*
X75657000Y-91911486D01*
X75657000Y-91648514D01*
X75605696Y-91390595D01*
X75505061Y-91147641D01*
X75358962Y-90928987D01*
X75319975Y-90890000D01*
X75358962Y-90851013D01*
X75505061Y-90632359D01*
X75605696Y-90389405D01*
X75657000Y-90131486D01*
X75657000Y-89868514D01*
X75605696Y-89610595D01*
X75505061Y-89367641D01*
X75358962Y-89148987D01*
X75173013Y-88963038D01*
X75083424Y-88903177D01*
X78285315Y-85701288D01*
X78467865Y-85737600D01*
X78750535Y-85737600D01*
X79027774Y-85682453D01*
X79288927Y-85574280D01*
X79523959Y-85417237D01*
X79723837Y-85217359D01*
X79880880Y-84982327D01*
X79989053Y-84721174D01*
X80044200Y-84443935D01*
X80044200Y-84161265D01*
X79989053Y-83884026D01*
X79880880Y-83622873D01*
X79723837Y-83387841D01*
X79523959Y-83187963D01*
X79288927Y-83030920D01*
X79027774Y-82922747D01*
X78750535Y-82867600D01*
X78467865Y-82867600D01*
X78190626Y-82922747D01*
X77929473Y-83030920D01*
X77694441Y-83187963D01*
X77494563Y-83387841D01*
X77337520Y-83622873D01*
X77229347Y-83884026D01*
X77174200Y-84161265D01*
X77174200Y-84443935D01*
X77210512Y-84626485D01*
X73811003Y-88025996D01*
X73782010Y-88049790D01*
X73782010Y-87838532D01*
X73785686Y-87801209D01*
X73782010Y-87763886D01*
X73782010Y-87763877D01*
X73771013Y-87652224D01*
X73727556Y-87508963D01*
X73656984Y-87376934D01*
X73562011Y-87261209D01*
X73533014Y-87237412D01*
X70824801Y-84529200D01*
X70857878Y-84529200D01*
X70895200Y-84532876D01*
X70932522Y-84529200D01*
X70932533Y-84529200D01*
X71044186Y-84518203D01*
X71187447Y-84474746D01*
X71319476Y-84404174D01*
X71435201Y-84309201D01*
X71459004Y-84280197D01*
X71577936Y-84161265D01*
X72174200Y-84161265D01*
X72174200Y-84443935D01*
X72229347Y-84721174D01*
X72337520Y-84982327D01*
X72494563Y-85217359D01*
X72694441Y-85417237D01*
X72929473Y-85574280D01*
X73190626Y-85682453D01*
X73467865Y-85737600D01*
X73750535Y-85737600D01*
X74027774Y-85682453D01*
X74288927Y-85574280D01*
X74523959Y-85417237D01*
X74723837Y-85217359D01*
X74880880Y-84982327D01*
X74989053Y-84721174D01*
X75044200Y-84443935D01*
X75044200Y-84161265D01*
X74989053Y-83884026D01*
X74880880Y-83622873D01*
X74723837Y-83387841D01*
X74523959Y-83187963D01*
X74288927Y-83030920D01*
X74027774Y-82922747D01*
X73750535Y-82867600D01*
X73467865Y-82867600D01*
X73190626Y-82922747D01*
X72929473Y-83030920D01*
X72694441Y-83187963D01*
X72494563Y-83387841D01*
X72337520Y-83622873D01*
X72229347Y-83884026D01*
X72174200Y-84161265D01*
X71577936Y-84161265D01*
X73289114Y-82450088D01*
X73471665Y-82486400D01*
X73754335Y-82486400D01*
X74031574Y-82431253D01*
X74292727Y-82323080D01*
X74527759Y-82166037D01*
X74649694Y-82044102D01*
X77799903Y-82044102D01*
X77871486Y-82288071D01*
X78126996Y-82408971D01*
X78401184Y-82477700D01*
X78683512Y-82491617D01*
X78963130Y-82450187D01*
X79229292Y-82355003D01*
X79354514Y-82288071D01*
X79426097Y-82044102D01*
X78613000Y-81231005D01*
X77799903Y-82044102D01*
X74649694Y-82044102D01*
X74727637Y-81966159D01*
X74884680Y-81731127D01*
X74992853Y-81469974D01*
X75048000Y-81192735D01*
X75048000Y-81121912D01*
X77172783Y-81121912D01*
X77214213Y-81401530D01*
X77309397Y-81667692D01*
X77376329Y-81792914D01*
X77620298Y-81864497D01*
X78433395Y-81051400D01*
X78792605Y-81051400D01*
X79605702Y-81864497D01*
X79849671Y-81792914D01*
X79970571Y-81537404D01*
X80039300Y-81263216D01*
X80053217Y-80980888D01*
X80011787Y-80701270D01*
X79916603Y-80435108D01*
X79849671Y-80309886D01*
X79605702Y-80238303D01*
X78792605Y-81051400D01*
X78433395Y-81051400D01*
X77620298Y-80238303D01*
X77376329Y-80309886D01*
X77255429Y-80565396D01*
X77186700Y-80839584D01*
X77172783Y-81121912D01*
X75048000Y-81121912D01*
X75048000Y-80910065D01*
X74992853Y-80632826D01*
X74884680Y-80371673D01*
X74727637Y-80136641D01*
X74649694Y-80058698D01*
X77799903Y-80058698D01*
X78613000Y-80871795D01*
X79426097Y-80058698D01*
X79354514Y-79814729D01*
X79099004Y-79693829D01*
X78824816Y-79625100D01*
X78542488Y-79611183D01*
X78262870Y-79652613D01*
X77996708Y-79747797D01*
X77871486Y-79814729D01*
X77799903Y-80058698D01*
X74649694Y-80058698D01*
X74527759Y-79936763D01*
X74292727Y-79779720D01*
X74031574Y-79671547D01*
X73754335Y-79616400D01*
X73573001Y-79616400D01*
X73573001Y-79235200D01*
X73754335Y-79235200D01*
X74031574Y-79180053D01*
X74292727Y-79071880D01*
X74527759Y-78914837D01*
X74649694Y-78792902D01*
X77799903Y-78792902D01*
X77871486Y-79036871D01*
X78126996Y-79157771D01*
X78401184Y-79226500D01*
X78683512Y-79240417D01*
X78963130Y-79198987D01*
X79229292Y-79103803D01*
X79354514Y-79036871D01*
X79426097Y-78792902D01*
X78613000Y-77979805D01*
X77799903Y-78792902D01*
X74649694Y-78792902D01*
X74727637Y-78714959D01*
X74884680Y-78479927D01*
X74992853Y-78218774D01*
X75048000Y-77941535D01*
X75048000Y-77870712D01*
X77172783Y-77870712D01*
X77214213Y-78150330D01*
X77309397Y-78416492D01*
X77376329Y-78541714D01*
X77620298Y-78613297D01*
X78433395Y-77800200D01*
X78792605Y-77800200D01*
X79605702Y-78613297D01*
X79849671Y-78541714D01*
X79970571Y-78286204D01*
X80039300Y-78012016D01*
X80053217Y-77729688D01*
X80011787Y-77450070D01*
X79916603Y-77183908D01*
X79849671Y-77058686D01*
X79605702Y-76987103D01*
X78792605Y-77800200D01*
X78433395Y-77800200D01*
X77620298Y-76987103D01*
X77376329Y-77058686D01*
X77255429Y-77314196D01*
X77186700Y-77588384D01*
X77172783Y-77870712D01*
X75048000Y-77870712D01*
X75048000Y-77658865D01*
X74992853Y-77381626D01*
X74884680Y-77120473D01*
X74727637Y-76885441D01*
X74649694Y-76807498D01*
X77799903Y-76807498D01*
X78613000Y-77620595D01*
X79426097Y-76807498D01*
X79354514Y-76563529D01*
X79099004Y-76442629D01*
X78824816Y-76373900D01*
X78542488Y-76359983D01*
X78262870Y-76401413D01*
X77996708Y-76496597D01*
X77871486Y-76563529D01*
X77799903Y-76807498D01*
X74649694Y-76807498D01*
X74527759Y-76685563D01*
X74292727Y-76528520D01*
X74031574Y-76420347D01*
X73754335Y-76365200D01*
X73471665Y-76365200D01*
X73194426Y-76420347D01*
X72933273Y-76528520D01*
X72698241Y-76685563D01*
X72498363Y-76885441D01*
X72341320Y-77120473D01*
X72233147Y-77381626D01*
X72178000Y-77658865D01*
X72178000Y-77941535D01*
X72215533Y-78130223D01*
X72178027Y-78175923D01*
X72119080Y-78286204D01*
X72107455Y-78307953D01*
X72063998Y-78451214D01*
X72053001Y-78562867D01*
X72053001Y-78562877D01*
X72049325Y-78600199D01*
X72053001Y-78637522D01*
X72053002Y-80214069D01*
X72049325Y-80251401D01*
X72063999Y-80400386D01*
X72107455Y-80543647D01*
X72178027Y-80675677D01*
X72215533Y-80721377D01*
X72178000Y-80910065D01*
X72178000Y-81192735D01*
X72214312Y-81375286D01*
X70580399Y-83009200D01*
X70377087Y-83009200D01*
X70365812Y-82894718D01*
X70329502Y-82775020D01*
X70270537Y-82664706D01*
X70191185Y-82568015D01*
X70094494Y-82488663D01*
X69984180Y-82429698D01*
X69864482Y-82393388D01*
X69740000Y-82381128D01*
X68690000Y-82381128D01*
X68565518Y-82393388D01*
X68445820Y-82429698D01*
X68381098Y-82464293D01*
X68172400Y-82400985D01*
X67945000Y-82378588D01*
X67717601Y-82400985D01*
X67498941Y-82467315D01*
X67310001Y-82568306D01*
X67121060Y-82467315D01*
X66902400Y-82400985D01*
X66675000Y-82378588D01*
X66447601Y-82400985D01*
X66228941Y-82467315D01*
X66027422Y-82575029D01*
X65850789Y-82719988D01*
X65705830Y-82896621D01*
X65598115Y-83098140D01*
X65531785Y-83316800D01*
X65515000Y-83487221D01*
X65515000Y-84051178D01*
X65531785Y-84221599D01*
X65598115Y-84440259D01*
X65705829Y-84641778D01*
X65839920Y-84805169D01*
X61983162Y-88661928D01*
X61022000Y-88661928D01*
X60897518Y-88674188D01*
X60777820Y-88710498D01*
X60667506Y-88769463D01*
X60570815Y-88848815D01*
X60491463Y-88945506D01*
X60432498Y-89055820D01*
X60396188Y-89175518D01*
X60383928Y-89300000D01*
X60383928Y-90700000D01*
X60396188Y-90824482D01*
X60432498Y-90944180D01*
X60491463Y-91054494D01*
X60551939Y-91128185D01*
X60538939Y-91147641D01*
X60438304Y-91390595D01*
X60387000Y-91648514D01*
X60387000Y-91911486D01*
X60438304Y-92169405D01*
X60538939Y-92412359D01*
X60685038Y-92631013D01*
X60724025Y-92670000D01*
X60685038Y-92708987D01*
X60538939Y-92927641D01*
X60438304Y-93170595D01*
X60387000Y-93428514D01*
X60387000Y-93691486D01*
X60438304Y-93949405D01*
X60538939Y-94192359D01*
X60685038Y-94411013D01*
X60724025Y-94450000D01*
X60685038Y-94488987D01*
X60538939Y-94707641D01*
X60438304Y-94950595D01*
X60387000Y-95208514D01*
X60387000Y-95471486D01*
X60438304Y-95729405D01*
X60538939Y-95972359D01*
X60685038Y-96191013D01*
X60724025Y-96230000D01*
X60685038Y-96268987D01*
X60538939Y-96487641D01*
X60438304Y-96730595D01*
X60387000Y-96988514D01*
X60387000Y-97251486D01*
X60408355Y-97358842D01*
X59735986Y-98031212D01*
X59706989Y-98055010D01*
X59683191Y-98084008D01*
X59683190Y-98084009D01*
X59612015Y-98170735D01*
X59541443Y-98302765D01*
X59497987Y-98446026D01*
X59483313Y-98595011D01*
X58570383Y-98595011D01*
X58729932Y-98400601D01*
X58863182Y-98151308D01*
X58945236Y-97880809D01*
X58972943Y-97599500D01*
X58945236Y-97318191D01*
X58863182Y-97047692D01*
X58729932Y-96798399D01*
X58550608Y-96579892D01*
X58332101Y-96400568D01*
X58199142Y-96329500D01*
X58332101Y-96258432D01*
X58550608Y-96079108D01*
X58729932Y-95860601D01*
X58863182Y-95611308D01*
X58945236Y-95340809D01*
X58972943Y-95059500D01*
X58945236Y-94778191D01*
X58863182Y-94507692D01*
X58729932Y-94258399D01*
X58550608Y-94039892D01*
X58332101Y-93860568D01*
X58199142Y-93789500D01*
X58332101Y-93718432D01*
X58550608Y-93539108D01*
X58729932Y-93320601D01*
X58863182Y-93071308D01*
X58945236Y-92800809D01*
X58972943Y-92519500D01*
X58945236Y-92238191D01*
X58863182Y-91967692D01*
X58729932Y-91718399D01*
X58550608Y-91499892D01*
X58332101Y-91320568D01*
X58199142Y-91249500D01*
X58332101Y-91178432D01*
X58550608Y-90999108D01*
X58729932Y-90780601D01*
X58863182Y-90531308D01*
X58945236Y-90260809D01*
X58972943Y-89979500D01*
X58945236Y-89698191D01*
X58863182Y-89427692D01*
X58729932Y-89178399D01*
X58550608Y-88959892D01*
X58332101Y-88780568D01*
X58199142Y-88709500D01*
X58332101Y-88638432D01*
X58550608Y-88459108D01*
X58729932Y-88240601D01*
X58863182Y-87991308D01*
X58945236Y-87720809D01*
X58972943Y-87439500D01*
X58945236Y-87158191D01*
X58863182Y-86887692D01*
X58729932Y-86638399D01*
X58550608Y-86419892D01*
X58332101Y-86240568D01*
X58194318Y-86166921D01*
X58386131Y-86051885D01*
X58594519Y-85862914D01*
X58762037Y-85636920D01*
X58882246Y-85382587D01*
X58922904Y-85248539D01*
X58800915Y-85026500D01*
X57658000Y-85026500D01*
X57658000Y-85046500D01*
X57404000Y-85046500D01*
X57404000Y-85026500D01*
X56261085Y-85026500D01*
X56139096Y-85248539D01*
X56179754Y-85382587D01*
X56299963Y-85636920D01*
X56467481Y-85862914D01*
X56675869Y-86051885D01*
X56867682Y-86166921D01*
X56729899Y-86240568D01*
X56511392Y-86419892D01*
X56332068Y-86638399D01*
X56198818Y-86887692D01*
X56116764Y-87158191D01*
X56089057Y-87439500D01*
X43732943Y-87439500D01*
X43705236Y-87158191D01*
X43623182Y-86887692D01*
X43489932Y-86638399D01*
X43310608Y-86419892D01*
X43092101Y-86240568D01*
X42959142Y-86169500D01*
X43092101Y-86098432D01*
X43310608Y-85919108D01*
X43489932Y-85700601D01*
X43623182Y-85451308D01*
X43705236Y-85180809D01*
X43732943Y-84899500D01*
X43705236Y-84618191D01*
X43623182Y-84347692D01*
X43489932Y-84098399D01*
X43310608Y-83879892D01*
X43197518Y-83787081D01*
X43215482Y-83785312D01*
X43335180Y-83749002D01*
X43445494Y-83690037D01*
X43542185Y-83610685D01*
X43621537Y-83513994D01*
X43680502Y-83403680D01*
X43716812Y-83283982D01*
X43729072Y-83159500D01*
X43729072Y-82359500D01*
X56089057Y-82359500D01*
X56116764Y-82640809D01*
X56198818Y-82911308D01*
X56332068Y-83160601D01*
X56511392Y-83379108D01*
X56729899Y-83558432D01*
X56867682Y-83632079D01*
X56675869Y-83747115D01*
X56467481Y-83936086D01*
X56299963Y-84162080D01*
X56179754Y-84416413D01*
X56139096Y-84550461D01*
X56261085Y-84772500D01*
X57404000Y-84772500D01*
X57404000Y-84752500D01*
X57658000Y-84752500D01*
X57658000Y-84772500D01*
X58800915Y-84772500D01*
X58922904Y-84550461D01*
X58882246Y-84416413D01*
X58762037Y-84162080D01*
X58594519Y-83936086D01*
X58386131Y-83747115D01*
X58194318Y-83632079D01*
X58332101Y-83558432D01*
X58550608Y-83379108D01*
X58729932Y-83160601D01*
X58863182Y-82911308D01*
X58945236Y-82640809D01*
X58972943Y-82359500D01*
X58945236Y-82078191D01*
X58863182Y-81807692D01*
X58729932Y-81558399D01*
X58550608Y-81339892D01*
X58332101Y-81160568D01*
X58082808Y-81027318D01*
X57812309Y-80945264D01*
X57601492Y-80924500D01*
X57460508Y-80924500D01*
X57249691Y-80945264D01*
X56979192Y-81027318D01*
X56729899Y-81160568D01*
X56511392Y-81339892D01*
X56332068Y-81558399D01*
X56198818Y-81807692D01*
X56116764Y-82078191D01*
X56089057Y-82359500D01*
X43729072Y-82359500D01*
X43729072Y-81559500D01*
X43716812Y-81435018D01*
X43680502Y-81315320D01*
X43621537Y-81205006D01*
X43542185Y-81108315D01*
X43445494Y-81028963D01*
X43335180Y-80969998D01*
X43215482Y-80933688D01*
X43091000Y-80921428D01*
X41491000Y-80921428D01*
X41366518Y-80933688D01*
X41246820Y-80969998D01*
X41136506Y-81028963D01*
X41039815Y-81108315D01*
X40960463Y-81205006D01*
X40901498Y-81315320D01*
X40865188Y-81435018D01*
X40852928Y-81559500D01*
X40852928Y-83159500D01*
X40865188Y-83283982D01*
X40901498Y-83403680D01*
X40960463Y-83513994D01*
X41039815Y-83610685D01*
X41136506Y-83690037D01*
X41246820Y-83749002D01*
X41366518Y-83785312D01*
X41384482Y-83787081D01*
X41271392Y-83879892D01*
X41092068Y-84098399D01*
X40958818Y-84347692D01*
X40876764Y-84618191D01*
X40849057Y-84899500D01*
X40660000Y-84899500D01*
X40660000Y-73653956D01*
X64723500Y-73653956D01*
X64723500Y-74301044D01*
X64849740Y-74935699D01*
X65097371Y-75533531D01*
X65456874Y-76071566D01*
X65914434Y-76529126D01*
X66452469Y-76888629D01*
X67050301Y-77136260D01*
X67684956Y-77262500D01*
X68332044Y-77262500D01*
X68966699Y-77136260D01*
X69564531Y-76888629D01*
X70102566Y-76529126D01*
X70560126Y-76071566D01*
X70919629Y-75533531D01*
X71167260Y-74935699D01*
X71293500Y-74301044D01*
X71293500Y-73653956D01*
X71167260Y-73019301D01*
X70919629Y-72421469D01*
X70560126Y-71883434D01*
X70102566Y-71425874D01*
X69564531Y-71066371D01*
X68966699Y-70818740D01*
X68332044Y-70692500D01*
X67684956Y-70692500D01*
X67050301Y-70818740D01*
X66452469Y-71066371D01*
X65914434Y-71425874D01*
X65456874Y-71883434D01*
X65097371Y-72421469D01*
X64849740Y-73019301D01*
X64723500Y-73653956D01*
X40660000Y-73653956D01*
X40660000Y-66802000D01*
X91027315Y-66802000D01*
X91055987Y-67093111D01*
X91140901Y-67373034D01*
X91278794Y-67631014D01*
X91464366Y-67857134D01*
X91690486Y-68042706D01*
X91745291Y-68072000D01*
X91690486Y-68101294D01*
X91464366Y-68286866D01*
X91278794Y-68512986D01*
X91140901Y-68770966D01*
X91055987Y-69050889D01*
X91027315Y-69342000D01*
X91055987Y-69633111D01*
X91140901Y-69913034D01*
X91278794Y-70171014D01*
X91464366Y-70397134D01*
X91690486Y-70582706D01*
X91745291Y-70612000D01*
X91690486Y-70641294D01*
X91464366Y-70826866D01*
X91278794Y-71052986D01*
X91140901Y-71310966D01*
X91055987Y-71590889D01*
X91027315Y-71882000D01*
X91055987Y-72173111D01*
X91140901Y-72453034D01*
X91278794Y-72711014D01*
X91464366Y-72937134D01*
X91690486Y-73122706D01*
X91948466Y-73260599D01*
X92228389Y-73345513D01*
X92446550Y-73367000D01*
X92592450Y-73367000D01*
X92810611Y-73345513D01*
X93090534Y-73260599D01*
X93348514Y-73122706D01*
X93574634Y-72937134D01*
X93760206Y-72711014D01*
X93898099Y-72453034D01*
X93983013Y-72173111D01*
X94011685Y-71882000D01*
X93983013Y-71590889D01*
X93898099Y-71310966D01*
X93760206Y-71052986D01*
X93574634Y-70826866D01*
X93348514Y-70641294D01*
X93293709Y-70612000D01*
X93348514Y-70582706D01*
X93574634Y-70397134D01*
X93760206Y-70171014D01*
X93898099Y-69913034D01*
X93983013Y-69633111D01*
X94011685Y-69342000D01*
X93983013Y-69050889D01*
X93898099Y-68770966D01*
X93760206Y-68512986D01*
X93574634Y-68286866D01*
X93348514Y-68101294D01*
X93293709Y-68072000D01*
X93348514Y-68042706D01*
X93574634Y-67857134D01*
X93760206Y-67631014D01*
X93898099Y-67373034D01*
X93983013Y-67093111D01*
X94011685Y-66802000D01*
X93983013Y-66510889D01*
X93898099Y-66230966D01*
X93760206Y-65972986D01*
X93574634Y-65746866D01*
X93348514Y-65561294D01*
X93283977Y-65526799D01*
X93400855Y-65457178D01*
X93617088Y-65262269D01*
X93791141Y-65028920D01*
X93916325Y-64766099D01*
X93960976Y-64618890D01*
X93839655Y-64389000D01*
X92646500Y-64389000D01*
X92646500Y-64409000D01*
X92392500Y-64409000D01*
X92392500Y-64389000D01*
X91199345Y-64389000D01*
X91078024Y-64618890D01*
X91122675Y-64766099D01*
X91247859Y-65028920D01*
X91421912Y-65262269D01*
X91638145Y-65457178D01*
X91755023Y-65526799D01*
X91690486Y-65561294D01*
X91464366Y-65746866D01*
X91278794Y-65972986D01*
X91140901Y-66230966D01*
X91055987Y-66510889D01*
X91027315Y-66802000D01*
X40660000Y-66802000D01*
X40660000Y-56642000D01*
X91027315Y-56642000D01*
X91055987Y-56933111D01*
X91140901Y-57213034D01*
X91278794Y-57471014D01*
X91464366Y-57697134D01*
X91690486Y-57882706D01*
X91745291Y-57912000D01*
X91690486Y-57941294D01*
X91464366Y-58126866D01*
X91278794Y-58352986D01*
X91140901Y-58610966D01*
X91055987Y-58890889D01*
X91027315Y-59182000D01*
X91055987Y-59473111D01*
X91140901Y-59753034D01*
X91278794Y-60011014D01*
X91464366Y-60237134D01*
X91690486Y-60422706D01*
X91745291Y-60452000D01*
X91690486Y-60481294D01*
X91464366Y-60666866D01*
X91278794Y-60892986D01*
X91140901Y-61150966D01*
X91055987Y-61430889D01*
X91027315Y-61722000D01*
X91055987Y-62013111D01*
X91140901Y-62293034D01*
X91278794Y-62551014D01*
X91464366Y-62777134D01*
X91690486Y-62962706D01*
X91755023Y-62997201D01*
X91638145Y-63066822D01*
X91421912Y-63261731D01*
X91247859Y-63495080D01*
X91122675Y-63757901D01*
X91078024Y-63905110D01*
X91199345Y-64135000D01*
X92392500Y-64135000D01*
X92392500Y-64115000D01*
X92646500Y-64115000D01*
X92646500Y-64135000D01*
X93839655Y-64135000D01*
X93960976Y-63905110D01*
X93916325Y-63757901D01*
X93791141Y-63495080D01*
X93617088Y-63261731D01*
X93400855Y-63066822D01*
X93283977Y-62997201D01*
X93348514Y-62962706D01*
X93574634Y-62777134D01*
X93760206Y-62551014D01*
X93898099Y-62293034D01*
X93983013Y-62013111D01*
X94011685Y-61722000D01*
X93983013Y-61430889D01*
X93898099Y-61150966D01*
X93760206Y-60892986D01*
X93574634Y-60666866D01*
X93348514Y-60481294D01*
X93293709Y-60452000D01*
X93348514Y-60422706D01*
X93574634Y-60237134D01*
X93760206Y-60011014D01*
X93898099Y-59753034D01*
X93983013Y-59473111D01*
X94011685Y-59182000D01*
X93983013Y-58890889D01*
X93898099Y-58610966D01*
X93760206Y-58352986D01*
X93574634Y-58126866D01*
X93348514Y-57941294D01*
X93293709Y-57912000D01*
X93348514Y-57882706D01*
X93574634Y-57697134D01*
X93760206Y-57471014D01*
X93898099Y-57213034D01*
X93983013Y-56933111D01*
X94011685Y-56642000D01*
X93983013Y-56350889D01*
X93898099Y-56070966D01*
X93760206Y-55812986D01*
X93574634Y-55586866D01*
X93544813Y-55562393D01*
X93613680Y-55541502D01*
X93723994Y-55482537D01*
X93820685Y-55403185D01*
X93900037Y-55306494D01*
X93959002Y-55196180D01*
X93995312Y-55076482D01*
X94007572Y-54952000D01*
X94007572Y-53252000D01*
X93995312Y-53127518D01*
X93959002Y-53007820D01*
X93900037Y-52897506D01*
X93820685Y-52800815D01*
X93723994Y-52721463D01*
X93613680Y-52662498D01*
X93493982Y-52626188D01*
X93369500Y-52613928D01*
X91669500Y-52613928D01*
X91545018Y-52626188D01*
X91425320Y-52662498D01*
X91315006Y-52721463D01*
X91218315Y-52800815D01*
X91138963Y-52897506D01*
X91079998Y-53007820D01*
X91043688Y-53127518D01*
X91031428Y-53252000D01*
X91031428Y-54952000D01*
X91043688Y-55076482D01*
X91079998Y-55196180D01*
X91138963Y-55306494D01*
X91218315Y-55403185D01*
X91315006Y-55482537D01*
X91425320Y-55541502D01*
X91494187Y-55562393D01*
X91464366Y-55586866D01*
X91278794Y-55812986D01*
X91140901Y-56070966D01*
X91055987Y-56350889D01*
X91027315Y-56642000D01*
X40660000Y-56642000D01*
X40660000Y-49338967D01*
X50365000Y-49338967D01*
X50365000Y-49661033D01*
X50427832Y-49976912D01*
X50551082Y-50274463D01*
X50730013Y-50542252D01*
X50957748Y-50769987D01*
X51225537Y-50948918D01*
X51523088Y-51072168D01*
X51838967Y-51135000D01*
X52161033Y-51135000D01*
X52476912Y-51072168D01*
X52774463Y-50948918D01*
X53042252Y-50769987D01*
X53269987Y-50542252D01*
X53448918Y-50274463D01*
X53572168Y-49976912D01*
X53635000Y-49661033D01*
X53635000Y-49338967D01*
X56865000Y-49338967D01*
X56865000Y-49661033D01*
X56927832Y-49976912D01*
X57051082Y-50274463D01*
X57230013Y-50542252D01*
X57457748Y-50769987D01*
X57725537Y-50948918D01*
X58023088Y-51072168D01*
X58338967Y-51135000D01*
X58661033Y-51135000D01*
X58976912Y-51072168D01*
X59274463Y-50948918D01*
X59542252Y-50769987D01*
X59769987Y-50542252D01*
X59948918Y-50274463D01*
X60072168Y-49976912D01*
X60135000Y-49661033D01*
X60135000Y-49338967D01*
X75865000Y-49338967D01*
X75865000Y-49661033D01*
X75927832Y-49976912D01*
X76051082Y-50274463D01*
X76230013Y-50542252D01*
X76457748Y-50769987D01*
X76725537Y-50948918D01*
X77023088Y-51072168D01*
X77338967Y-51135000D01*
X77661033Y-51135000D01*
X77976912Y-51072168D01*
X78274463Y-50948918D01*
X78542252Y-50769987D01*
X78769987Y-50542252D01*
X78948918Y-50274463D01*
X79072168Y-49976912D01*
X79135000Y-49661033D01*
X79135000Y-49338967D01*
X82365000Y-49338967D01*
X82365000Y-49661033D01*
X82427832Y-49976912D01*
X82551082Y-50274463D01*
X82730013Y-50542252D01*
X82957748Y-50769987D01*
X83225537Y-50948918D01*
X83523088Y-51072168D01*
X83838967Y-51135000D01*
X84161033Y-51135000D01*
X84476912Y-51072168D01*
X84774463Y-50948918D01*
X85042252Y-50769987D01*
X85269987Y-50542252D01*
X85448918Y-50274463D01*
X85572168Y-49976912D01*
X85635000Y-49661033D01*
X85635000Y-49338967D01*
X85572168Y-49023088D01*
X85448918Y-48725537D01*
X85269987Y-48457748D01*
X85042252Y-48230013D01*
X84774463Y-48051082D01*
X84476912Y-47927832D01*
X84161033Y-47865000D01*
X83838967Y-47865000D01*
X83523088Y-47927832D01*
X83225537Y-48051082D01*
X82957748Y-48230013D01*
X82730013Y-48457748D01*
X82551082Y-48725537D01*
X82427832Y-49023088D01*
X82365000Y-49338967D01*
X79135000Y-49338967D01*
X79072168Y-49023088D01*
X78948918Y-48725537D01*
X78769987Y-48457748D01*
X78542252Y-48230013D01*
X78274463Y-48051082D01*
X77976912Y-47927832D01*
X77661033Y-47865000D01*
X77338967Y-47865000D01*
X77023088Y-47927832D01*
X76725537Y-48051082D01*
X76457748Y-48230013D01*
X76230013Y-48457748D01*
X76051082Y-48725537D01*
X75927832Y-49023088D01*
X75865000Y-49338967D01*
X60135000Y-49338967D01*
X60072168Y-49023088D01*
X59948918Y-48725537D01*
X59769987Y-48457748D01*
X59542252Y-48230013D01*
X59348652Y-48100653D01*
X66687952Y-48100653D01*
X66843962Y-48416214D01*
X67218745Y-48607020D01*
X67623551Y-48721044D01*
X68042824Y-48753902D01*
X68460451Y-48704334D01*
X68860383Y-48574243D01*
X69156038Y-48416214D01*
X69312048Y-48100653D01*
X68000000Y-46788605D01*
X66687952Y-48100653D01*
X59348652Y-48100653D01*
X59274463Y-48051082D01*
X58976912Y-47927832D01*
X58661033Y-47865000D01*
X58338967Y-47865000D01*
X58023088Y-47927832D01*
X57725537Y-48051082D01*
X57457748Y-48230013D01*
X57230013Y-48457748D01*
X57051082Y-48725537D01*
X56927832Y-49023088D01*
X56865000Y-49338967D01*
X53635000Y-49338967D01*
X53572168Y-49023088D01*
X53448918Y-48725537D01*
X53269987Y-48457748D01*
X53042252Y-48230013D01*
X52774463Y-48051082D01*
X52476912Y-47927832D01*
X52161033Y-47865000D01*
X51838967Y-47865000D01*
X51523088Y-47927832D01*
X51225537Y-48051082D01*
X50957748Y-48230013D01*
X50730013Y-48457748D01*
X50551082Y-48725537D01*
X50427832Y-49023088D01*
X50365000Y-49338967D01*
X40660000Y-49338967D01*
X40660000Y-46651824D01*
X65855098Y-46651824D01*
X65904666Y-47069451D01*
X66034757Y-47469383D01*
X66192786Y-47765038D01*
X66508347Y-47921048D01*
X67820395Y-46609000D01*
X68179605Y-46609000D01*
X69491653Y-47921048D01*
X69807214Y-47765038D01*
X69998020Y-47390255D01*
X70112044Y-46985449D01*
X70144902Y-46566176D01*
X70095334Y-46148549D01*
X70091062Y-46135413D01*
X76544192Y-46135413D01*
X76639956Y-46399814D01*
X76929571Y-46540704D01*
X77241108Y-46622384D01*
X77562595Y-46641718D01*
X77881675Y-46597961D01*
X78186088Y-46492795D01*
X78360044Y-46399814D01*
X78455808Y-46135413D01*
X83044192Y-46135413D01*
X83139956Y-46399814D01*
X83429571Y-46540704D01*
X83741108Y-46622384D01*
X84062595Y-46641718D01*
X84381675Y-46597961D01*
X84686088Y-46492795D01*
X84860044Y-46399814D01*
X84955808Y-46135413D01*
X84000000Y-45179605D01*
X83044192Y-46135413D01*
X78455808Y-46135413D01*
X77500000Y-45179605D01*
X76544192Y-46135413D01*
X70091062Y-46135413D01*
X69965243Y-45748617D01*
X69807214Y-45452962D01*
X69491653Y-45296952D01*
X68179605Y-46609000D01*
X67820395Y-46609000D01*
X66508347Y-45296952D01*
X66192786Y-45452962D01*
X66001980Y-45827745D01*
X65887956Y-46232551D01*
X65855098Y-46651824D01*
X40660000Y-46651824D01*
X40660000Y-46135413D01*
X51044192Y-46135413D01*
X51139956Y-46399814D01*
X51429571Y-46540704D01*
X51741108Y-46622384D01*
X52062595Y-46641718D01*
X52381675Y-46597961D01*
X52686088Y-46492795D01*
X52860044Y-46399814D01*
X52955808Y-46135413D01*
X57544192Y-46135413D01*
X57639956Y-46399814D01*
X57929571Y-46540704D01*
X58241108Y-46622384D01*
X58562595Y-46641718D01*
X58881675Y-46597961D01*
X59186088Y-46492795D01*
X59360044Y-46399814D01*
X59455808Y-46135413D01*
X58500000Y-45179605D01*
X57544192Y-46135413D01*
X52955808Y-46135413D01*
X52000000Y-45179605D01*
X51044192Y-46135413D01*
X40660000Y-46135413D01*
X40660000Y-45062595D01*
X50358282Y-45062595D01*
X50402039Y-45381675D01*
X50507205Y-45686088D01*
X50600186Y-45860044D01*
X50864587Y-45955808D01*
X51820395Y-45000000D01*
X52179605Y-45000000D01*
X53135413Y-45955808D01*
X53399814Y-45860044D01*
X53540704Y-45570429D01*
X53622384Y-45258892D01*
X53634189Y-45062595D01*
X56858282Y-45062595D01*
X56902039Y-45381675D01*
X57007205Y-45686088D01*
X57100186Y-45860044D01*
X57364587Y-45955808D01*
X58320395Y-45000000D01*
X58679605Y-45000000D01*
X59635413Y-45955808D01*
X59899814Y-45860044D01*
X60040704Y-45570429D01*
X60122384Y-45258892D01*
X60130896Y-45117347D01*
X66687952Y-45117347D01*
X68000000Y-46429395D01*
X69312048Y-45117347D01*
X69284980Y-45062595D01*
X75858282Y-45062595D01*
X75902039Y-45381675D01*
X76007205Y-45686088D01*
X76100186Y-45860044D01*
X76364587Y-45955808D01*
X77320395Y-45000000D01*
X77679605Y-45000000D01*
X78635413Y-45955808D01*
X78899814Y-45860044D01*
X79040704Y-45570429D01*
X79122384Y-45258892D01*
X79134189Y-45062595D01*
X82358282Y-45062595D01*
X82402039Y-45381675D01*
X82507205Y-45686088D01*
X82600186Y-45860044D01*
X82864587Y-45955808D01*
X83820395Y-45000000D01*
X84179605Y-45000000D01*
X85135413Y-45955808D01*
X85399814Y-45860044D01*
X85540704Y-45570429D01*
X85622384Y-45258892D01*
X85641718Y-44937405D01*
X85597961Y-44618325D01*
X85492795Y-44313912D01*
X85399814Y-44139956D01*
X85135413Y-44044192D01*
X84179605Y-45000000D01*
X83820395Y-45000000D01*
X82864587Y-44044192D01*
X82600186Y-44139956D01*
X82459296Y-44429571D01*
X82377616Y-44741108D01*
X82358282Y-45062595D01*
X79134189Y-45062595D01*
X79141718Y-44937405D01*
X79097961Y-44618325D01*
X78992795Y-44313912D01*
X78899814Y-44139956D01*
X78635413Y-44044192D01*
X77679605Y-45000000D01*
X77320395Y-45000000D01*
X76364587Y-44044192D01*
X76100186Y-44139956D01*
X75959296Y-44429571D01*
X75877616Y-44741108D01*
X75858282Y-45062595D01*
X69284980Y-45062595D01*
X69156038Y-44801786D01*
X68781255Y-44610980D01*
X68376449Y-44496956D01*
X67957176Y-44464098D01*
X67539549Y-44513666D01*
X67139617Y-44643757D01*
X66843962Y-44801786D01*
X66687952Y-45117347D01*
X60130896Y-45117347D01*
X60141718Y-44937405D01*
X60097961Y-44618325D01*
X59992795Y-44313912D01*
X59899814Y-44139956D01*
X59635413Y-44044192D01*
X58679605Y-45000000D01*
X58320395Y-45000000D01*
X57364587Y-44044192D01*
X57100186Y-44139956D01*
X56959296Y-44429571D01*
X56877616Y-44741108D01*
X56858282Y-45062595D01*
X53634189Y-45062595D01*
X53641718Y-44937405D01*
X53597961Y-44618325D01*
X53492795Y-44313912D01*
X53399814Y-44139956D01*
X53135413Y-44044192D01*
X52179605Y-45000000D01*
X51820395Y-45000000D01*
X50864587Y-44044192D01*
X50600186Y-44139956D01*
X50459296Y-44429571D01*
X50377616Y-44741108D01*
X50358282Y-45062595D01*
X40660000Y-45062595D01*
X40660000Y-43864587D01*
X51044192Y-43864587D01*
X52000000Y-44820395D01*
X52955808Y-43864587D01*
X57544192Y-43864587D01*
X58500000Y-44820395D01*
X59455808Y-43864587D01*
X76544192Y-43864587D01*
X77500000Y-44820395D01*
X78455808Y-43864587D01*
X83044192Y-43864587D01*
X84000000Y-44820395D01*
X84955808Y-43864587D01*
X84860044Y-43600186D01*
X84570429Y-43459296D01*
X84258892Y-43377616D01*
X83937405Y-43358282D01*
X83618325Y-43402039D01*
X83313912Y-43507205D01*
X83139956Y-43600186D01*
X83044192Y-43864587D01*
X78455808Y-43864587D01*
X78360044Y-43600186D01*
X78070429Y-43459296D01*
X77758892Y-43377616D01*
X77437405Y-43358282D01*
X77118325Y-43402039D01*
X76813912Y-43507205D01*
X76639956Y-43600186D01*
X76544192Y-43864587D01*
X59455808Y-43864587D01*
X59360044Y-43600186D01*
X59070429Y-43459296D01*
X58758892Y-43377616D01*
X58437405Y-43358282D01*
X58118325Y-43402039D01*
X57813912Y-43507205D01*
X57639956Y-43600186D01*
X57544192Y-43864587D01*
X52955808Y-43864587D01*
X52860044Y-43600186D01*
X52570429Y-43459296D01*
X52258892Y-43377616D01*
X51937405Y-43358282D01*
X51618325Y-43402039D01*
X51313912Y-43507205D01*
X51139956Y-43600186D01*
X51044192Y-43864587D01*
X40660000Y-43864587D01*
X40660000Y-42773380D01*
X42773381Y-40660000D01*
X93226620Y-40660000D01*
X95340000Y-42773381D01*
G36*
X74515748Y-98885858D02*
G01*
X74501605Y-98900000D01*
X74515748Y-98914143D01*
X74336143Y-99093748D01*
X74322000Y-99079605D01*
X74307858Y-99093748D01*
X74128253Y-98914143D01*
X74142395Y-98900000D01*
X74128253Y-98885858D01*
X74307858Y-98706253D01*
X74322000Y-98720395D01*
X74336143Y-98706253D01*
X74515748Y-98885858D01*
X74515748Y-98885858D01*
G37*
X74515748Y-98885858D02*
X74501605Y-98900000D01*
X74515748Y-98914143D01*
X74336143Y-99093748D01*
X74322000Y-99079605D01*
X74307858Y-99093748D01*
X74128253Y-98914143D01*
X74142395Y-98900000D01*
X74128253Y-98885858D01*
X74307858Y-98706253D01*
X74322000Y-98720395D01*
X74336143Y-98706253D01*
X74515748Y-98885858D01*
G36*
X74515748Y-93545858D02*
G01*
X74501605Y-93560000D01*
X74515748Y-93574143D01*
X74336143Y-93753748D01*
X74322000Y-93739605D01*
X74307858Y-93753748D01*
X74128253Y-93574143D01*
X74142395Y-93560000D01*
X74128253Y-93545858D01*
X74307858Y-93366253D01*
X74322000Y-93380395D01*
X74336143Y-93366253D01*
X74515748Y-93545858D01*
X74515748Y-93545858D01*
G37*
X74515748Y-93545858D02*
X74501605Y-93560000D01*
X74515748Y-93574143D01*
X74336143Y-93753748D01*
X74322000Y-93739605D01*
X74307858Y-93753748D01*
X74128253Y-93574143D01*
X74142395Y-93560000D01*
X74128253Y-93545858D01*
X74307858Y-93366253D01*
X74322000Y-93380395D01*
X74336143Y-93366253D01*
X74515748Y-93545858D01*
M02*
