M48
; DRILL file {KiCad (5.1.0-0)} date Thursday, 15 October 2020 at 12:15:42
; FORMAT={-:-/ absolute / inch / decimal}
; #@! TF.CreationDate,2020-10-15T12:15:42+01:00
; #@! TF.GenerationSoftware,Kicad,Pcbnew,(5.1.0-0)
; #@! TF.FileFunction,Plated,1,2,PTH
FMAT,2
INCH
T1C0.0157
T2C0.0295
T3C0.0315
T4C0.0394
T5C0.0433
T6C0.0591
%
G90
G05
T1
X1.961Y-3.553
X1.974Y-4.465
X2.1298Y-3.9982
X2.412Y-4.332
X2.574Y-4.125
X2.708Y-3.391
X3.061Y-2.573
X3.088Y-3.764
T2
X2.625Y-3.298
X2.675Y-3.298
X2.725Y-3.298
T3
X1.665Y-3.2425
X1.665Y-3.3425
X1.665Y-3.4425
X1.665Y-3.5425
X1.665Y-3.6425
X1.665Y-3.7425
X1.665Y-3.8425
X1.665Y-3.9425
X1.665Y-4.0425
X1.665Y-4.1425
X1.665Y-4.2425
X1.665Y-4.3425
X1.665Y-4.4425
X1.665Y-4.5425
X1.665Y-4.6425
X2.265Y-3.2425
X2.265Y-3.3425
X2.265Y-3.4425
X2.265Y-3.5425
X2.265Y-3.6425
X2.265Y-3.7425
X2.265Y-3.8425
X2.265Y-3.9425
X2.265Y-4.0425
X2.265Y-4.1425
X2.265Y-4.2425
X2.265Y-4.3425
X2.265Y-4.4425
X2.265Y-4.5425
X2.265Y-4.6425
X3.2131Y-3.804
X3.41Y-3.804
X3.212Y-3.561
X3.4089Y-3.561
X3.524Y-4.2505
X3.524Y-4.6505
X3.153Y-4.25
X3.153Y-4.65
X3.032Y-4.25
X3.032Y-4.65
X2.911Y-4.65
X3.213Y-3.923
X3.4099Y-3.923
X2.898Y-3.319
X3.0949Y-3.319
X3.213Y-4.044
X3.4099Y-4.044
X3.276Y-4.2505
X3.276Y-4.6505
X2.43Y-3.5433
X2.43Y-3.6134
X2.43Y-3.6835
X2.43Y-3.7535
X2.43Y-3.8236
X2.43Y-3.8937
X2.43Y-3.9638
X2.43Y-4.0339
X2.9261Y-3.5433
X2.9261Y-3.6134
X2.9261Y-3.6835
X2.9261Y-3.7535
X2.9261Y-3.8236
X2.9261Y-3.8937
X2.9261Y-3.9638
X2.9261Y-4.0339
X2.911Y-4.25
X2.8981Y-3.191
X3.2131Y-3.68
X3.41Y-3.68
X3.212Y-3.438
X3.4089Y-3.438
X3.402Y-4.2505
X3.402Y-4.6505
X3.095Y-3.191
X2.8981Y-3.063
X3.095Y-3.063
T4
X3.6425Y-2.13
X3.6425Y-2.23
X3.6425Y-2.33
X3.6425Y-2.43
X3.6425Y-2.53
X3.6425Y-2.63
X3.6425Y-2.73
X3.6425Y-2.83
T5
X2.0472Y-1.7717
X2.0472Y-1.9488
X2.3031Y-1.7717
X2.3031Y-1.9488
X3.0512Y-1.7717
X3.0512Y-1.9488
X3.3071Y-1.7717
X3.3071Y-1.9488
T6
X2.6772Y-1.835
T0
M30
