G04 #@! TF.GenerationSoftware,KiCad,Pcbnew,(5.1.0-0)*
G04 #@! TF.CreationDate,2020-11-05T15:54:36+00:00*
G04 #@! TF.ProjectId,OpenLaserMouseTHT,4f70656e-4c61-4736-9572-4d6f75736554,rev?*
G04 #@! TF.SameCoordinates,Original*
G04 #@! TF.FileFunction,Legend,Top*
G04 #@! TF.FilePolarity,Positive*
%FSLAX46Y46*%
G04 Gerber Fmt 4.6, Leading zero omitted, Abs format (unit mm)*
G04 Created by KiCad (PCBNEW (5.1.0-0)) date 2020-11-05 15:54:36*
%MOMM*%
%LPD*%
G04 APERTURE LIST*
%ADD10C,0.150000*%
%ADD11C,0.120000*%
G04 APERTURE END LIST*
D10*
X65603738Y-43584761D02*
X65746595Y-43632380D01*
X65984690Y-43632380D01*
X66079928Y-43584761D01*
X66127547Y-43537142D01*
X66175166Y-43441904D01*
X66175166Y-43346666D01*
X66127547Y-43251428D01*
X66079928Y-43203809D01*
X65984690Y-43156190D01*
X65794214Y-43108571D01*
X65698976Y-43060952D01*
X65651357Y-43013333D01*
X65603738Y-42918095D01*
X65603738Y-42822857D01*
X65651357Y-42727619D01*
X65698976Y-42680000D01*
X65794214Y-42632380D01*
X66032309Y-42632380D01*
X66175166Y-42680000D01*
X66603738Y-43632380D02*
X66603738Y-42632380D01*
X66603738Y-43108571D02*
X67175166Y-43108571D01*
X67175166Y-43632380D02*
X67175166Y-42632380D01*
X67651357Y-43632380D02*
X67651357Y-42632380D01*
X68127547Y-43108571D02*
X68460880Y-43108571D01*
X68603738Y-43632380D02*
X68127547Y-43632380D01*
X68127547Y-42632380D01*
X68603738Y-42632380D01*
X69508500Y-43632380D02*
X69032309Y-43632380D01*
X69032309Y-42632380D01*
X69841833Y-43632380D02*
X69841833Y-42632380D01*
X70079928Y-42632380D01*
X70222785Y-42680000D01*
X70318023Y-42775238D01*
X70365642Y-42870476D01*
X70413261Y-43060952D01*
X70413261Y-43203809D01*
X70365642Y-43394285D01*
X70318023Y-43489523D01*
X70222785Y-43584761D01*
X70079928Y-43632380D01*
X69841833Y-43632380D01*
X86632095Y-72143928D02*
X87394000Y-72143928D01*
X87013047Y-72524880D02*
X87013047Y-71762976D01*
X88346380Y-71524880D02*
X87870190Y-71524880D01*
X87822571Y-72001071D01*
X87870190Y-71953452D01*
X87965428Y-71905833D01*
X88203523Y-71905833D01*
X88298761Y-71953452D01*
X88346380Y-72001071D01*
X88394000Y-72096309D01*
X88394000Y-72334404D01*
X88346380Y-72429642D01*
X88298761Y-72477261D01*
X88203523Y-72524880D01*
X87965428Y-72524880D01*
X87870190Y-72477261D01*
X87822571Y-72429642D01*
X88727333Y-71858214D02*
X88965428Y-72524880D01*
X89203523Y-71858214D01*
X86473357Y-68730880D02*
X87140023Y-69730880D01*
X87140023Y-68730880D02*
X86473357Y-69730880D01*
X87473357Y-69445166D02*
X87949547Y-69445166D01*
X87378119Y-69730880D02*
X87711452Y-68730880D01*
X88044785Y-69730880D01*
X86473357Y-66254380D02*
X87140023Y-67254380D01*
X87140023Y-66254380D02*
X86473357Y-67254380D01*
X87854309Y-66730571D02*
X87997166Y-66778190D01*
X88044785Y-66825809D01*
X88092404Y-66921047D01*
X88092404Y-67063904D01*
X88044785Y-67159142D01*
X87997166Y-67206761D01*
X87901928Y-67254380D01*
X87520976Y-67254380D01*
X87520976Y-66254380D01*
X87854309Y-66254380D01*
X87949547Y-66302000D01*
X87997166Y-66349619D01*
X88044785Y-66444857D01*
X88044785Y-66540095D01*
X87997166Y-66635333D01*
X87949547Y-66682952D01*
X87854309Y-66730571D01*
X87520976Y-66730571D01*
X86965404Y-63952500D02*
X86870166Y-63904880D01*
X86727309Y-63904880D01*
X86584452Y-63952500D01*
X86489214Y-64047738D01*
X86441595Y-64142976D01*
X86393976Y-64333452D01*
X86393976Y-64476309D01*
X86441595Y-64666785D01*
X86489214Y-64762023D01*
X86584452Y-64857261D01*
X86727309Y-64904880D01*
X86822547Y-64904880D01*
X86965404Y-64857261D01*
X87013023Y-64809642D01*
X87013023Y-64476309D01*
X86822547Y-64476309D01*
X87441595Y-64904880D02*
X87441595Y-63904880D01*
X88013023Y-64904880D01*
X88013023Y-63904880D01*
X88489214Y-64904880D02*
X88489214Y-63904880D01*
X88727309Y-63904880D01*
X88870166Y-63952500D01*
X88965404Y-64047738D01*
X89013023Y-64142976D01*
X89060642Y-64333452D01*
X89060642Y-64476309D01*
X89013023Y-64666785D01*
X88965404Y-64762023D01*
X88870166Y-64857261D01*
X88727309Y-64904880D01*
X88489214Y-64904880D01*
X86632071Y-61698190D02*
X86632071Y-62174380D01*
X86298738Y-61174380D02*
X86632071Y-61698190D01*
X86965404Y-61174380D01*
X87632071Y-61650571D02*
X87774928Y-61698190D01*
X87822547Y-61745809D01*
X87870166Y-61841047D01*
X87870166Y-61983904D01*
X87822547Y-62079142D01*
X87774928Y-62126761D01*
X87679690Y-62174380D01*
X87298738Y-62174380D01*
X87298738Y-61174380D01*
X87632071Y-61174380D01*
X87727309Y-61222000D01*
X87774928Y-61269619D01*
X87822547Y-61364857D01*
X87822547Y-61460095D01*
X87774928Y-61555333D01*
X87727309Y-61602952D01*
X87632071Y-61650571D01*
X87298738Y-61650571D01*
X86632071Y-59094690D02*
X86632071Y-59570880D01*
X86298738Y-58570880D02*
X86632071Y-59094690D01*
X86965404Y-58570880D01*
X87251119Y-59285166D02*
X87727309Y-59285166D01*
X87155880Y-59570880D02*
X87489214Y-58570880D01*
X87822547Y-59570880D01*
X86917785Y-57030880D02*
X86441595Y-57030880D01*
X86441595Y-56030880D01*
X87251119Y-56507071D02*
X87584452Y-56507071D01*
X87727309Y-57030880D02*
X87251119Y-57030880D01*
X87251119Y-56030880D01*
X87727309Y-56030880D01*
X88489214Y-56507071D02*
X88155880Y-56507071D01*
X88155880Y-57030880D02*
X88155880Y-56030880D01*
X88632071Y-56030880D01*
X88870166Y-56030880D02*
X89441595Y-56030880D01*
X89155880Y-57030880D02*
X89155880Y-56030880D01*
X87013023Y-54617880D02*
X86679690Y-54141690D01*
X86441595Y-54617880D02*
X86441595Y-53617880D01*
X86822547Y-53617880D01*
X86917785Y-53665500D01*
X86965404Y-53713119D01*
X87013023Y-53808357D01*
X87013023Y-53951214D01*
X86965404Y-54046452D01*
X86917785Y-54094071D01*
X86822547Y-54141690D01*
X86441595Y-54141690D01*
X87441595Y-54617880D02*
X87441595Y-53617880D01*
X88441595Y-53665500D02*
X88346357Y-53617880D01*
X88203500Y-53617880D01*
X88060642Y-53665500D01*
X87965404Y-53760738D01*
X87917785Y-53855976D01*
X87870166Y-54046452D01*
X87870166Y-54189309D01*
X87917785Y-54379785D01*
X87965404Y-54475023D01*
X88060642Y-54570261D01*
X88203500Y-54617880D01*
X88298738Y-54617880D01*
X88441595Y-54570261D01*
X88489214Y-54522642D01*
X88489214Y-54189309D01*
X88298738Y-54189309D01*
X88917785Y-54617880D02*
X88917785Y-53617880D01*
X88917785Y-54094071D02*
X89489214Y-54094071D01*
X89489214Y-54617880D02*
X89489214Y-53617880D01*
X89822547Y-53617880D02*
X90393976Y-53617880D01*
X90108261Y-54617880D02*
X90108261Y-53617880D01*
X62477952Y-121626380D02*
X62668428Y-121626380D01*
X62763666Y-121674000D01*
X62858904Y-121769238D01*
X62906523Y-121959714D01*
X62906523Y-122293047D01*
X62858904Y-122483523D01*
X62763666Y-122578761D01*
X62668428Y-122626380D01*
X62477952Y-122626380D01*
X62382714Y-122578761D01*
X62287476Y-122483523D01*
X62239857Y-122293047D01*
X62239857Y-121959714D01*
X62287476Y-121769238D01*
X62382714Y-121674000D01*
X62477952Y-121626380D01*
X63335095Y-121959714D02*
X63335095Y-122959714D01*
X63335095Y-122007333D02*
X63430333Y-121959714D01*
X63620809Y-121959714D01*
X63716047Y-122007333D01*
X63763666Y-122054952D01*
X63811285Y-122150190D01*
X63811285Y-122435904D01*
X63763666Y-122531142D01*
X63716047Y-122578761D01*
X63620809Y-122626380D01*
X63430333Y-122626380D01*
X63335095Y-122578761D01*
X64620809Y-122578761D02*
X64525571Y-122626380D01*
X64335095Y-122626380D01*
X64239857Y-122578761D01*
X64192238Y-122483523D01*
X64192238Y-122102571D01*
X64239857Y-122007333D01*
X64335095Y-121959714D01*
X64525571Y-121959714D01*
X64620809Y-122007333D01*
X64668428Y-122102571D01*
X64668428Y-122197809D01*
X64192238Y-122293047D01*
X65096999Y-121959714D02*
X65096999Y-122626380D01*
X65096999Y-122054952D02*
X65144619Y-122007333D01*
X65239857Y-121959714D01*
X65382714Y-121959714D01*
X65477952Y-122007333D01*
X65525571Y-122102571D01*
X65525571Y-122626380D01*
X67239857Y-122626380D02*
X66763666Y-122626380D01*
X66763666Y-121626380D01*
X68001761Y-122626380D02*
X68001761Y-122102571D01*
X67954142Y-122007333D01*
X67858904Y-121959714D01*
X67668428Y-121959714D01*
X67573190Y-122007333D01*
X68001761Y-122578761D02*
X67906523Y-122626380D01*
X67668428Y-122626380D01*
X67573190Y-122578761D01*
X67525571Y-122483523D01*
X67525571Y-122388285D01*
X67573190Y-122293047D01*
X67668428Y-122245428D01*
X67906523Y-122245428D01*
X68001761Y-122197809D01*
X68430333Y-122578761D02*
X68525571Y-122626380D01*
X68716047Y-122626380D01*
X68811285Y-122578761D01*
X68858904Y-122483523D01*
X68858904Y-122435904D01*
X68811285Y-122340666D01*
X68716047Y-122293047D01*
X68573190Y-122293047D01*
X68477952Y-122245428D01*
X68430333Y-122150190D01*
X68430333Y-122102571D01*
X68477952Y-122007333D01*
X68573190Y-121959714D01*
X68716047Y-121959714D01*
X68811285Y-122007333D01*
X69668428Y-122578761D02*
X69573190Y-122626380D01*
X69382714Y-122626380D01*
X69287476Y-122578761D01*
X69239857Y-122483523D01*
X69239857Y-122102571D01*
X69287476Y-122007333D01*
X69382714Y-121959714D01*
X69573190Y-121959714D01*
X69668428Y-122007333D01*
X69716047Y-122102571D01*
X69716047Y-122197809D01*
X69239857Y-122293047D01*
X70144619Y-122626380D02*
X70144619Y-121959714D01*
X70144619Y-122150190D02*
X70192238Y-122054952D01*
X70239857Y-122007333D01*
X70335095Y-121959714D01*
X70430333Y-121959714D01*
X71525571Y-122626380D02*
X71525571Y-121626380D01*
X71858904Y-122340666D01*
X72192238Y-121626380D01*
X72192238Y-122626380D01*
X72811285Y-122626380D02*
X72716047Y-122578761D01*
X72668428Y-122531142D01*
X72620809Y-122435904D01*
X72620809Y-122150190D01*
X72668428Y-122054952D01*
X72716047Y-122007333D01*
X72811285Y-121959714D01*
X72954142Y-121959714D01*
X73049380Y-122007333D01*
X73097000Y-122054952D01*
X73144619Y-122150190D01*
X73144619Y-122435904D01*
X73097000Y-122531142D01*
X73049380Y-122578761D01*
X72954142Y-122626380D01*
X72811285Y-122626380D01*
X74001761Y-121959714D02*
X74001761Y-122626380D01*
X73573190Y-121959714D02*
X73573190Y-122483523D01*
X73620809Y-122578761D01*
X73716047Y-122626380D01*
X73858904Y-122626380D01*
X73954142Y-122578761D01*
X74001761Y-122531142D01*
X74430333Y-122578761D02*
X74525571Y-122626380D01*
X74716047Y-122626380D01*
X74811285Y-122578761D01*
X74858904Y-122483523D01*
X74858904Y-122435904D01*
X74811285Y-122340666D01*
X74716047Y-122293047D01*
X74573190Y-122293047D01*
X74477952Y-122245428D01*
X74430333Y-122150190D01*
X74430333Y-122102571D01*
X74477952Y-122007333D01*
X74573190Y-121959714D01*
X74716047Y-121959714D01*
X74811285Y-122007333D01*
X75668428Y-122578761D02*
X75573190Y-122626380D01*
X75382714Y-122626380D01*
X75287476Y-122578761D01*
X75239857Y-122483523D01*
X75239857Y-122102571D01*
X75287476Y-122007333D01*
X75382714Y-121959714D01*
X75573190Y-121959714D01*
X75668428Y-122007333D01*
X75716047Y-122102571D01*
X75716047Y-122197809D01*
X75239857Y-122293047D01*
X76763666Y-121626380D02*
X77097000Y-122626380D01*
X77430333Y-121626380D01*
X78287476Y-122626380D02*
X77716047Y-122626380D01*
X78001761Y-122626380D02*
X78001761Y-121626380D01*
X77906523Y-121769238D01*
X77811285Y-121864476D01*
X77716047Y-121912095D01*
X78716047Y-122531142D02*
X78763666Y-122578761D01*
X78716047Y-122626380D01*
X78668428Y-122578761D01*
X78716047Y-122531142D01*
X78716047Y-122626380D01*
X79097000Y-121626380D02*
X79716047Y-121626380D01*
X79382714Y-122007333D01*
X79525571Y-122007333D01*
X79620809Y-122054952D01*
X79668428Y-122102571D01*
X79716047Y-122197809D01*
X79716047Y-122435904D01*
X79668428Y-122531142D01*
X79620809Y-122578761D01*
X79525571Y-122626380D01*
X79239857Y-122626380D01*
X79144619Y-122578761D01*
X79097000Y-122531142D01*
X80858904Y-121721619D02*
X80906523Y-121674000D01*
X81001761Y-121626380D01*
X81239857Y-121626380D01*
X81335095Y-121674000D01*
X81382714Y-121721619D01*
X81430333Y-121816857D01*
X81430333Y-121912095D01*
X81382714Y-122054952D01*
X80811285Y-122626380D01*
X81430333Y-122626380D01*
X82049380Y-121626380D02*
X82144619Y-121626380D01*
X82239857Y-121674000D01*
X82287476Y-121721619D01*
X82335095Y-121816857D01*
X82382714Y-122007333D01*
X82382714Y-122245428D01*
X82335095Y-122435904D01*
X82287476Y-122531142D01*
X82239857Y-122578761D01*
X82144619Y-122626380D01*
X82049380Y-122626380D01*
X81954142Y-122578761D01*
X81906523Y-122531142D01*
X81858904Y-122435904D01*
X81811285Y-122245428D01*
X81811285Y-122007333D01*
X81858904Y-121816857D01*
X81906523Y-121721619D01*
X81954142Y-121674000D01*
X82049380Y-121626380D01*
X82763666Y-121721619D02*
X82811285Y-121674000D01*
X82906523Y-121626380D01*
X83144619Y-121626380D01*
X83239857Y-121674000D01*
X83287476Y-121721619D01*
X83335095Y-121816857D01*
X83335095Y-121912095D01*
X83287476Y-122054952D01*
X82716047Y-122626380D01*
X83335095Y-122626380D01*
X83954142Y-121626380D02*
X84049380Y-121626380D01*
X84144619Y-121674000D01*
X84192238Y-121721619D01*
X84239857Y-121816857D01*
X84287476Y-122007333D01*
X84287476Y-122245428D01*
X84239857Y-122435904D01*
X84192238Y-122531142D01*
X84144619Y-122578761D01*
X84049380Y-122626380D01*
X83954142Y-122626380D01*
X83858904Y-122578761D01*
X83811285Y-122531142D01*
X83763666Y-122435904D01*
X83716047Y-122245428D01*
X83716047Y-122007333D01*
X83763666Y-121816857D01*
X83811285Y-121721619D01*
X83858904Y-121674000D01*
X83954142Y-121626380D01*
X85811285Y-122102571D02*
X85954142Y-122150190D01*
X86001761Y-122197809D01*
X86049380Y-122293047D01*
X86049380Y-122435904D01*
X86001761Y-122531142D01*
X85954142Y-122578761D01*
X85858904Y-122626380D01*
X85477952Y-122626380D01*
X85477952Y-121626380D01*
X85811285Y-121626380D01*
X85906523Y-121674000D01*
X85954142Y-121721619D01*
X86001761Y-121816857D01*
X86001761Y-121912095D01*
X85954142Y-122007333D01*
X85906523Y-122054952D01*
X85811285Y-122102571D01*
X85477952Y-122102571D01*
X86382714Y-121959714D02*
X86620809Y-122626380D01*
X86858904Y-121959714D02*
X86620809Y-122626380D01*
X86525571Y-122864476D01*
X86477952Y-122912095D01*
X86382714Y-122959714D01*
X88573190Y-122531142D02*
X88525571Y-122578761D01*
X88382714Y-122626380D01*
X88287476Y-122626380D01*
X88144619Y-122578761D01*
X88049380Y-122483523D01*
X88001761Y-122388285D01*
X87954142Y-122197809D01*
X87954142Y-122054952D01*
X88001761Y-121864476D01*
X88049380Y-121769238D01*
X88144619Y-121674000D01*
X88287476Y-121626380D01*
X88382714Y-121626380D01*
X88525571Y-121674000D01*
X88573190Y-121721619D01*
X89001761Y-122626380D02*
X89001761Y-121626380D01*
X89430333Y-122626380D02*
X89430333Y-122102571D01*
X89382714Y-122007333D01*
X89287476Y-121959714D01*
X89144619Y-121959714D01*
X89049380Y-122007333D01*
X89001761Y-122054952D01*
X89906523Y-122626380D02*
X89906523Y-121959714D01*
X89906523Y-122150190D02*
X89954142Y-122054952D01*
X90001761Y-122007333D01*
X90096999Y-121959714D01*
X90192238Y-121959714D01*
X90525571Y-122626380D02*
X90525571Y-121959714D01*
X90525571Y-121626380D02*
X90477952Y-121674000D01*
X90525571Y-121721619D01*
X90573190Y-121674000D01*
X90525571Y-121626380D01*
X90525571Y-121721619D01*
X90954142Y-122578761D02*
X91049380Y-122626380D01*
X91239857Y-122626380D01*
X91335095Y-122578761D01*
X91382714Y-122483523D01*
X91382714Y-122435904D01*
X91335095Y-122340666D01*
X91239857Y-122293047D01*
X91096999Y-122293047D01*
X91001761Y-122245428D01*
X90954142Y-122150190D01*
X90954142Y-122102571D01*
X91001761Y-122007333D01*
X91096999Y-121959714D01*
X91239857Y-121959714D01*
X91335095Y-122007333D01*
X91763666Y-122578761D02*
X91858904Y-122626380D01*
X92049380Y-122626380D01*
X92144619Y-122578761D01*
X92192238Y-122483523D01*
X92192238Y-122435904D01*
X92144619Y-122340666D01*
X92049380Y-122293047D01*
X91906523Y-122293047D01*
X91811285Y-122245428D01*
X91763666Y-122150190D01*
X91763666Y-122102571D01*
X91811285Y-122007333D01*
X91906523Y-121959714D01*
X92049380Y-121959714D01*
X92144619Y-122007333D01*
X92525571Y-121959714D02*
X92763666Y-122626380D01*
X93001761Y-121959714D02*
X92763666Y-122626380D01*
X92668428Y-122864476D01*
X92620809Y-122912095D01*
X92525571Y-122959714D01*
D11*
X86730200Y-100699200D02*
X86730200Y-101014200D01*
X86730200Y-98274200D02*
X86730200Y-98589200D01*
X81490200Y-100699200D02*
X81490200Y-101014200D01*
X81490200Y-98274200D02*
X81490200Y-98589200D01*
X81490200Y-101014200D02*
X86730200Y-101014200D01*
X81490200Y-98274200D02*
X86730200Y-98274200D01*
X78733000Y-79170200D02*
X73493000Y-79170200D01*
X78733000Y-76430200D02*
X73493000Y-76430200D01*
X78733000Y-79170200D02*
X78733000Y-78855200D01*
X78733000Y-76745200D02*
X78733000Y-76430200D01*
X73493000Y-79170200D02*
X73493000Y-78855200D01*
X73493000Y-76745200D02*
X73493000Y-76430200D01*
X58931000Y-78419500D02*
X40891000Y-78419500D01*
X58931000Y-121859500D02*
X58931000Y-78419500D01*
X40891000Y-121859500D02*
X58931000Y-121859500D01*
X43561000Y-119189500D02*
X40891000Y-119189500D01*
X43561000Y-83629500D02*
X43561000Y-119189500D01*
X43561000Y-83629500D02*
X40891000Y-83629500D01*
X56261000Y-119189500D02*
X58931000Y-119189500D01*
X56261000Y-81089500D02*
X56261000Y-119189500D01*
X56261000Y-81089500D02*
X58931000Y-81089500D01*
X40891000Y-78419500D02*
X40891000Y-81089500D01*
X40891000Y-83629500D02*
X40891000Y-121859500D01*
X43561000Y-81089500D02*
X40891000Y-81089500D01*
X43561000Y-83629500D02*
X43561000Y-81089500D01*
X66106522Y-81930722D02*
G75*
G03X67945000Y-86369200I1838478J-1838478D01*
G01*
X69783478Y-81930722D02*
G75*
G02X67945000Y-86369200I-1838478J-1838478D01*
G01*
X69745000Y-81919200D02*
X66145000Y-81919200D01*
X83210400Y-109002700D02*
X83210400Y-109772700D01*
X83210400Y-117082700D02*
X83210400Y-116312700D01*
X81840400Y-109772700D02*
X81840400Y-116312700D01*
X84580400Y-109772700D02*
X81840400Y-109772700D01*
X84580400Y-116312700D02*
X84580400Y-109772700D01*
X81840400Y-116312700D02*
X84580400Y-116312700D01*
X80086200Y-117070000D02*
X80086200Y-116300000D01*
X80086200Y-108990000D02*
X80086200Y-109760000D01*
X81456200Y-116300000D02*
X81456200Y-109760000D01*
X78716200Y-116300000D02*
X81456200Y-116300000D01*
X78716200Y-109760000D02*
X78716200Y-116300000D01*
X81456200Y-109760000D02*
X78716200Y-109760000D01*
X86410800Y-109002700D02*
X86410800Y-109772700D01*
X86410800Y-117082700D02*
X86410800Y-116312700D01*
X85040800Y-109772700D02*
X85040800Y-116312700D01*
X87780800Y-109772700D02*
X85040800Y-109772700D01*
X87780800Y-116312700D02*
X87780800Y-109772700D01*
X85040800Y-116312700D02*
X87780800Y-116312700D01*
X77012800Y-117070000D02*
X77012800Y-116300000D01*
X77012800Y-108990000D02*
X77012800Y-109760000D01*
X78382800Y-116300000D02*
X78382800Y-109760000D01*
X75642800Y-116300000D02*
X78382800Y-116300000D01*
X75642800Y-109760000D02*
X75642800Y-116300000D01*
X78382800Y-109760000D02*
X75642800Y-109760000D01*
X89509600Y-109002700D02*
X89509600Y-109772700D01*
X89509600Y-117082700D02*
X89509600Y-116312700D01*
X88139600Y-109772700D02*
X88139600Y-116312700D01*
X90879600Y-109772700D02*
X88139600Y-109772700D01*
X90879600Y-116312700D02*
X90879600Y-109772700D01*
X88139600Y-116312700D02*
X90879600Y-116312700D01*
X73939400Y-117070000D02*
X73939400Y-116300000D01*
X73939400Y-108990000D02*
X73939400Y-109760000D01*
X75309400Y-116300000D02*
X75309400Y-109760000D01*
X72569400Y-116300000D02*
X75309400Y-116300000D01*
X72569400Y-109760000D02*
X72569400Y-116300000D01*
X75309400Y-109760000D02*
X72569400Y-109760000D01*
X73493000Y-79996400D02*
X73493000Y-79681400D01*
X73493000Y-82421400D02*
X73493000Y-82106400D01*
X78733000Y-79996400D02*
X78733000Y-79681400D01*
X78733000Y-82421400D02*
X78733000Y-82106400D01*
X78733000Y-79681400D02*
X73493000Y-79681400D01*
X78733000Y-82421400D02*
X73493000Y-82421400D01*
X78729200Y-85357600D02*
X78729200Y-85672600D01*
X78729200Y-82932600D02*
X78729200Y-83247600D01*
X73489200Y-85357600D02*
X73489200Y-85672600D01*
X73489200Y-82932600D02*
X73489200Y-83247600D01*
X73489200Y-85672600D02*
X78729200Y-85672600D01*
X73489200Y-82932600D02*
X78729200Y-82932600D01*
X86730200Y-103772600D02*
X86730200Y-104087600D01*
X86730200Y-101347600D02*
X86730200Y-101662600D01*
X81490200Y-103772600D02*
X81490200Y-104087600D01*
X81490200Y-101347600D02*
X81490200Y-101662600D01*
X81490200Y-104087600D02*
X86730200Y-104087600D01*
X81490200Y-101347600D02*
X86730200Y-101347600D01*
X81494000Y-95566600D02*
X81494000Y-95251600D01*
X81494000Y-97991600D02*
X81494000Y-97676600D01*
X86734000Y-95566600D02*
X86734000Y-95251600D01*
X86734000Y-97991600D02*
X86734000Y-97676600D01*
X86734000Y-95251600D02*
X81494000Y-95251600D01*
X86734000Y-97991600D02*
X81494000Y-97991600D01*
X81494000Y-92417000D02*
X81494000Y-92102000D01*
X81494000Y-94842000D02*
X81494000Y-94527000D01*
X86734000Y-92417000D02*
X86734000Y-92102000D01*
X86734000Y-94842000D02*
X86734000Y-94527000D01*
X86734000Y-92102000D02*
X81494000Y-92102000D01*
X86734000Y-94842000D02*
X81494000Y-94842000D01*
X86704800Y-91504400D02*
X86704800Y-91819400D01*
X86704800Y-89079400D02*
X86704800Y-89394400D01*
X81464800Y-91504400D02*
X81464800Y-91819400D01*
X81464800Y-89079400D02*
X81464800Y-89394400D01*
X81464800Y-91819400D02*
X86704800Y-91819400D01*
X81464800Y-89079400D02*
X86704800Y-89079400D01*
X86704800Y-88380200D02*
X86704800Y-88695200D01*
X86704800Y-85955200D02*
X86704800Y-86270200D01*
X81464800Y-88380200D02*
X81464800Y-88695200D01*
X81464800Y-85955200D02*
X81464800Y-86270200D01*
X81464800Y-88695200D02*
X86704800Y-88695200D01*
X81464800Y-85955200D02*
X86704800Y-85955200D01*
X69800694Y-46609000D02*
G75*
G03X69800694Y-46609000I-1800694J0D01*
G01*
X84250000Y-48000000D02*
X84250000Y-46500000D01*
X83000000Y-44000000D02*
X78500000Y-44000000D01*
X77250000Y-46500000D02*
X77250000Y-48000000D01*
X78500000Y-50500000D02*
X83000000Y-50500000D01*
X58750000Y-48000000D02*
X58750000Y-46500000D01*
X57500000Y-44000000D02*
X53000000Y-44000000D01*
X51750000Y-46500000D02*
X51750000Y-48000000D01*
X53000000Y-50500000D02*
X57500000Y-50500000D01*
X91189500Y-52772000D02*
X92519500Y-52772000D01*
X91189500Y-54102000D02*
X91189500Y-52772000D01*
X91189500Y-55372000D02*
X93849500Y-55372000D01*
X93849500Y-55372000D02*
X93849500Y-73212000D01*
X91189500Y-55372000D02*
X91189500Y-73212000D01*
X91189500Y-73212000D02*
X93849500Y-73212000D01*
X62272000Y-88300000D02*
X75372000Y-88300000D01*
X75372000Y-88300000D02*
X75372000Y-104150000D01*
X75372000Y-104150000D02*
X60672000Y-104150000D01*
X60672000Y-104150000D02*
X60672000Y-90000000D01*
D10*
X88860333Y-100052142D02*
X88812714Y-100099761D01*
X88669857Y-100147380D01*
X88574619Y-100147380D01*
X88431761Y-100099761D01*
X88336523Y-100004523D01*
X88288904Y-99909285D01*
X88241285Y-99718809D01*
X88241285Y-99575952D01*
X88288904Y-99385476D01*
X88336523Y-99290238D01*
X88431761Y-99195000D01*
X88574619Y-99147380D01*
X88669857Y-99147380D01*
X88812714Y-99195000D01*
X88860333Y-99242619D01*
X89765095Y-99147380D02*
X89288904Y-99147380D01*
X89241285Y-99623571D01*
X89288904Y-99575952D01*
X89384142Y-99528333D01*
X89622238Y-99528333D01*
X89717476Y-99575952D01*
X89765095Y-99623571D01*
X89812714Y-99718809D01*
X89812714Y-99956904D01*
X89765095Y-100052142D01*
X89717476Y-100099761D01*
X89622238Y-100147380D01*
X89384142Y-100147380D01*
X89288904Y-100099761D01*
X89241285Y-100052142D01*
X81214933Y-78131942D02*
X81167314Y-78179561D01*
X81024457Y-78227180D01*
X80929219Y-78227180D01*
X80786361Y-78179561D01*
X80691123Y-78084323D01*
X80643504Y-77989085D01*
X80595885Y-77798609D01*
X80595885Y-77655752D01*
X80643504Y-77465276D01*
X80691123Y-77370038D01*
X80786361Y-77274800D01*
X80929219Y-77227180D01*
X81024457Y-77227180D01*
X81167314Y-77274800D01*
X81214933Y-77322419D01*
X81691123Y-78227180D02*
X81881600Y-78227180D01*
X81976838Y-78179561D01*
X82024457Y-78131942D01*
X82119695Y-77989085D01*
X82167314Y-77798609D01*
X82167314Y-77417657D01*
X82119695Y-77322419D01*
X82072076Y-77274800D01*
X81976838Y-77227180D01*
X81786361Y-77227180D01*
X81691123Y-77274800D01*
X81643504Y-77322419D01*
X81595885Y-77417657D01*
X81595885Y-77655752D01*
X81643504Y-77750990D01*
X81691123Y-77798609D01*
X81786361Y-77846228D01*
X81976838Y-77846228D01*
X82072076Y-77798609D01*
X82119695Y-77750990D01*
X82167314Y-77655752D01*
X49196714Y-77446166D02*
X49672904Y-77446166D01*
X49101476Y-77731880D02*
X49434809Y-76731880D01*
X49768142Y-77731880D01*
X50625285Y-77731880D02*
X50053857Y-77731880D01*
X50339571Y-77731880D02*
X50339571Y-76731880D01*
X50244333Y-76874738D01*
X50149095Y-76969976D01*
X50053857Y-77017595D01*
X67773561Y-81649819D02*
X67678323Y-81602200D01*
X67583085Y-81506961D01*
X67440228Y-81364104D01*
X67344990Y-81316485D01*
X67249752Y-81316485D01*
X67297371Y-81554580D02*
X67202133Y-81506961D01*
X67106895Y-81411723D01*
X67059276Y-81221247D01*
X67059276Y-80887914D01*
X67106895Y-80697438D01*
X67202133Y-80602200D01*
X67297371Y-80554580D01*
X67487847Y-80554580D01*
X67583085Y-80602200D01*
X67678323Y-80697438D01*
X67725942Y-80887914D01*
X67725942Y-81221247D01*
X67678323Y-81411723D01*
X67583085Y-81506961D01*
X67487847Y-81554580D01*
X67297371Y-81554580D01*
X68678323Y-81554580D02*
X68106895Y-81554580D01*
X68392609Y-81554580D02*
X68392609Y-80554580D01*
X68297371Y-80697438D01*
X68202133Y-80792676D01*
X68106895Y-80840295D01*
X83611980Y-120334066D02*
X83135790Y-120667400D01*
X83611980Y-120905495D02*
X82611980Y-120905495D01*
X82611980Y-120524542D01*
X82659600Y-120429304D01*
X82707219Y-120381685D01*
X82802457Y-120334066D01*
X82945314Y-120334066D01*
X83040552Y-120381685D01*
X83088171Y-120429304D01*
X83135790Y-120524542D01*
X83135790Y-120905495D01*
X82611980Y-119476923D02*
X82611980Y-119667400D01*
X82659600Y-119762638D01*
X82707219Y-119810257D01*
X82850076Y-119905495D01*
X83040552Y-119953114D01*
X83421504Y-119953114D01*
X83516742Y-119905495D01*
X83564361Y-119857876D01*
X83611980Y-119762638D01*
X83611980Y-119572161D01*
X83564361Y-119476923D01*
X83516742Y-119429304D01*
X83421504Y-119381685D01*
X83183409Y-119381685D01*
X83088171Y-119429304D01*
X83040552Y-119476923D01*
X82992933Y-119572161D01*
X82992933Y-119762638D01*
X83040552Y-119857876D01*
X83088171Y-119905495D01*
X83183409Y-119953114D01*
X80614780Y-120308666D02*
X80138590Y-120642000D01*
X80614780Y-120880095D02*
X79614780Y-120880095D01*
X79614780Y-120499142D01*
X79662400Y-120403904D01*
X79710019Y-120356285D01*
X79805257Y-120308666D01*
X79948114Y-120308666D01*
X80043352Y-120356285D01*
X80090971Y-120403904D01*
X80138590Y-120499142D01*
X80138590Y-120880095D01*
X79614780Y-119403904D02*
X79614780Y-119880095D01*
X80090971Y-119927714D01*
X80043352Y-119880095D01*
X79995733Y-119784857D01*
X79995733Y-119546761D01*
X80043352Y-119451523D01*
X80090971Y-119403904D01*
X80186209Y-119356285D01*
X80424304Y-119356285D01*
X80519542Y-119403904D01*
X80567161Y-119451523D01*
X80614780Y-119546761D01*
X80614780Y-119784857D01*
X80567161Y-119880095D01*
X80519542Y-119927714D01*
X86926180Y-120334066D02*
X86449990Y-120667400D01*
X86926180Y-120905495D02*
X85926180Y-120905495D01*
X85926180Y-120524542D01*
X85973800Y-120429304D01*
X86021419Y-120381685D01*
X86116657Y-120334066D01*
X86259514Y-120334066D01*
X86354752Y-120381685D01*
X86402371Y-120429304D01*
X86449990Y-120524542D01*
X86449990Y-120905495D01*
X86259514Y-119476923D02*
X86926180Y-119476923D01*
X85878561Y-119715019D02*
X86592847Y-119953114D01*
X86592847Y-119334066D01*
X77452980Y-120308666D02*
X76976790Y-120642000D01*
X77452980Y-120880095D02*
X76452980Y-120880095D01*
X76452980Y-120499142D01*
X76500600Y-120403904D01*
X76548219Y-120356285D01*
X76643457Y-120308666D01*
X76786314Y-120308666D01*
X76881552Y-120356285D01*
X76929171Y-120403904D01*
X76976790Y-120499142D01*
X76976790Y-120880095D01*
X76452980Y-119975333D02*
X76452980Y-119356285D01*
X76833933Y-119689619D01*
X76833933Y-119546761D01*
X76881552Y-119451523D01*
X76929171Y-119403904D01*
X77024409Y-119356285D01*
X77262504Y-119356285D01*
X77357742Y-119403904D01*
X77405361Y-119451523D01*
X77452980Y-119546761D01*
X77452980Y-119832476D01*
X77405361Y-119927714D01*
X77357742Y-119975333D01*
X89999580Y-120334066D02*
X89523390Y-120667400D01*
X89999580Y-120905495D02*
X88999580Y-120905495D01*
X88999580Y-120524542D01*
X89047200Y-120429304D01*
X89094819Y-120381685D01*
X89190057Y-120334066D01*
X89332914Y-120334066D01*
X89428152Y-120381685D01*
X89475771Y-120429304D01*
X89523390Y-120524542D01*
X89523390Y-120905495D01*
X89094819Y-119953114D02*
X89047200Y-119905495D01*
X88999580Y-119810257D01*
X88999580Y-119572161D01*
X89047200Y-119476923D01*
X89094819Y-119429304D01*
X89190057Y-119381685D01*
X89285295Y-119381685D01*
X89428152Y-119429304D01*
X89999580Y-120000733D01*
X89999580Y-119381685D01*
X74481180Y-120308666D02*
X74004990Y-120642000D01*
X74481180Y-120880095D02*
X73481180Y-120880095D01*
X73481180Y-120499142D01*
X73528800Y-120403904D01*
X73576419Y-120356285D01*
X73671657Y-120308666D01*
X73814514Y-120308666D01*
X73909752Y-120356285D01*
X73957371Y-120403904D01*
X74004990Y-120499142D01*
X74004990Y-120880095D01*
X74481180Y-119356285D02*
X74481180Y-119927714D01*
X74481180Y-119642000D02*
X73481180Y-119642000D01*
X73624038Y-119737238D01*
X73719276Y-119832476D01*
X73766895Y-119927714D01*
X81164133Y-81408542D02*
X81116514Y-81456161D01*
X80973657Y-81503780D01*
X80878419Y-81503780D01*
X80735561Y-81456161D01*
X80640323Y-81360923D01*
X80592704Y-81265685D01*
X80545085Y-81075209D01*
X80545085Y-80932352D01*
X80592704Y-80741876D01*
X80640323Y-80646638D01*
X80735561Y-80551400D01*
X80878419Y-80503780D01*
X80973657Y-80503780D01*
X81116514Y-80551400D01*
X81164133Y-80599019D01*
X81735561Y-80932352D02*
X81640323Y-80884733D01*
X81592704Y-80837114D01*
X81545085Y-80741876D01*
X81545085Y-80694257D01*
X81592704Y-80599019D01*
X81640323Y-80551400D01*
X81735561Y-80503780D01*
X81926038Y-80503780D01*
X82021276Y-80551400D01*
X82068895Y-80599019D01*
X82116514Y-80694257D01*
X82116514Y-80741876D01*
X82068895Y-80837114D01*
X82021276Y-80884733D01*
X81926038Y-80932352D01*
X81735561Y-80932352D01*
X81640323Y-80979971D01*
X81592704Y-81027590D01*
X81545085Y-81122828D01*
X81545085Y-81313304D01*
X81592704Y-81408542D01*
X81640323Y-81456161D01*
X81735561Y-81503780D01*
X81926038Y-81503780D01*
X82021276Y-81456161D01*
X82068895Y-81408542D01*
X82116514Y-81313304D01*
X82116514Y-81122828D01*
X82068895Y-81027590D01*
X82021276Y-80979971D01*
X81926038Y-80932352D01*
X81214933Y-84481942D02*
X81167314Y-84529561D01*
X81024457Y-84577180D01*
X80929219Y-84577180D01*
X80786361Y-84529561D01*
X80691123Y-84434323D01*
X80643504Y-84339085D01*
X80595885Y-84148609D01*
X80595885Y-84005752D01*
X80643504Y-83815276D01*
X80691123Y-83720038D01*
X80786361Y-83624800D01*
X80929219Y-83577180D01*
X81024457Y-83577180D01*
X81167314Y-83624800D01*
X81214933Y-83672419D01*
X81548266Y-83577180D02*
X82214933Y-83577180D01*
X81786361Y-84577180D01*
X88860333Y-103074742D02*
X88812714Y-103122361D01*
X88669857Y-103169980D01*
X88574619Y-103169980D01*
X88431761Y-103122361D01*
X88336523Y-103027123D01*
X88288904Y-102931885D01*
X88241285Y-102741409D01*
X88241285Y-102598552D01*
X88288904Y-102408076D01*
X88336523Y-102312838D01*
X88431761Y-102217600D01*
X88574619Y-102169980D01*
X88669857Y-102169980D01*
X88812714Y-102217600D01*
X88860333Y-102265219D01*
X89717476Y-102169980D02*
X89527000Y-102169980D01*
X89431761Y-102217600D01*
X89384142Y-102265219D01*
X89288904Y-102408076D01*
X89241285Y-102598552D01*
X89241285Y-102979504D01*
X89288904Y-103074742D01*
X89336523Y-103122361D01*
X89431761Y-103169980D01*
X89622238Y-103169980D01*
X89717476Y-103122361D01*
X89765095Y-103074742D01*
X89812714Y-102979504D01*
X89812714Y-102741409D01*
X89765095Y-102646171D01*
X89717476Y-102598552D01*
X89622238Y-102550933D01*
X89431761Y-102550933D01*
X89336523Y-102598552D01*
X89288904Y-102646171D01*
X89241285Y-102741409D01*
X88733333Y-96953342D02*
X88685714Y-97000961D01*
X88542857Y-97048580D01*
X88447619Y-97048580D01*
X88304761Y-97000961D01*
X88209523Y-96905723D01*
X88161904Y-96810485D01*
X88114285Y-96620009D01*
X88114285Y-96477152D01*
X88161904Y-96286676D01*
X88209523Y-96191438D01*
X88304761Y-96096200D01*
X88447619Y-96048580D01*
X88542857Y-96048580D01*
X88685714Y-96096200D01*
X88733333Y-96143819D01*
X89590476Y-96381914D02*
X89590476Y-97048580D01*
X89352380Y-96000961D02*
X89114285Y-96715247D01*
X89733333Y-96715247D01*
X88657133Y-93829142D02*
X88609514Y-93876761D01*
X88466657Y-93924380D01*
X88371419Y-93924380D01*
X88228561Y-93876761D01*
X88133323Y-93781523D01*
X88085704Y-93686285D01*
X88038085Y-93495809D01*
X88038085Y-93352952D01*
X88085704Y-93162476D01*
X88133323Y-93067238D01*
X88228561Y-92972000D01*
X88371419Y-92924380D01*
X88466657Y-92924380D01*
X88609514Y-92972000D01*
X88657133Y-93019619D01*
X88990466Y-92924380D02*
X89609514Y-92924380D01*
X89276180Y-93305333D01*
X89419038Y-93305333D01*
X89514276Y-93352952D01*
X89561895Y-93400571D01*
X89609514Y-93495809D01*
X89609514Y-93733904D01*
X89561895Y-93829142D01*
X89514276Y-93876761D01*
X89419038Y-93924380D01*
X89133323Y-93924380D01*
X89038085Y-93876761D01*
X88990466Y-93829142D01*
X88657133Y-90831942D02*
X88609514Y-90879561D01*
X88466657Y-90927180D01*
X88371419Y-90927180D01*
X88228561Y-90879561D01*
X88133323Y-90784323D01*
X88085704Y-90689085D01*
X88038085Y-90498609D01*
X88038085Y-90355752D01*
X88085704Y-90165276D01*
X88133323Y-90070038D01*
X88228561Y-89974800D01*
X88371419Y-89927180D01*
X88466657Y-89927180D01*
X88609514Y-89974800D01*
X88657133Y-90022419D01*
X89038085Y-90022419D02*
X89085704Y-89974800D01*
X89180942Y-89927180D01*
X89419038Y-89927180D01*
X89514276Y-89974800D01*
X89561895Y-90022419D01*
X89609514Y-90117657D01*
X89609514Y-90212895D01*
X89561895Y-90355752D01*
X88990466Y-90927180D01*
X89609514Y-90927180D01*
X88657133Y-87682342D02*
X88609514Y-87729961D01*
X88466657Y-87777580D01*
X88371419Y-87777580D01*
X88228561Y-87729961D01*
X88133323Y-87634723D01*
X88085704Y-87539485D01*
X88038085Y-87349009D01*
X88038085Y-87206152D01*
X88085704Y-87015676D01*
X88133323Y-86920438D01*
X88228561Y-86825200D01*
X88371419Y-86777580D01*
X88466657Y-86777580D01*
X88609514Y-86825200D01*
X88657133Y-86872819D01*
X89609514Y-87777580D02*
X89038085Y-87777580D01*
X89323800Y-87777580D02*
X89323800Y-86777580D01*
X89228561Y-86920438D01*
X89133323Y-87015676D01*
X89038085Y-87063295D01*
X79416666Y-43404761D02*
X79559523Y-43452380D01*
X79797619Y-43452380D01*
X79892857Y-43404761D01*
X79940476Y-43357142D01*
X79988095Y-43261904D01*
X79988095Y-43166666D01*
X79940476Y-43071428D01*
X79892857Y-43023809D01*
X79797619Y-42976190D01*
X79607142Y-42928571D01*
X79511904Y-42880952D01*
X79464285Y-42833333D01*
X79416666Y-42738095D01*
X79416666Y-42642857D01*
X79464285Y-42547619D01*
X79511904Y-42500000D01*
X79607142Y-42452380D01*
X79845238Y-42452380D01*
X79988095Y-42500000D01*
X80321428Y-42452380D02*
X80559523Y-43452380D01*
X80750000Y-42738095D01*
X80940476Y-43452380D01*
X81178571Y-42452380D01*
X81464285Y-42452380D02*
X82083333Y-42452380D01*
X81750000Y-42833333D01*
X81892857Y-42833333D01*
X81988095Y-42880952D01*
X82035714Y-42928571D01*
X82083333Y-43023809D01*
X82083333Y-43261904D01*
X82035714Y-43357142D01*
X81988095Y-43404761D01*
X81892857Y-43452380D01*
X81607142Y-43452380D01*
X81511904Y-43404761D01*
X81464285Y-43357142D01*
X53916666Y-43404761D02*
X54059523Y-43452380D01*
X54297619Y-43452380D01*
X54392857Y-43404761D01*
X54440476Y-43357142D01*
X54488095Y-43261904D01*
X54488095Y-43166666D01*
X54440476Y-43071428D01*
X54392857Y-43023809D01*
X54297619Y-42976190D01*
X54107142Y-42928571D01*
X54011904Y-42880952D01*
X53964285Y-42833333D01*
X53916666Y-42738095D01*
X53916666Y-42642857D01*
X53964285Y-42547619D01*
X54011904Y-42500000D01*
X54107142Y-42452380D01*
X54345238Y-42452380D01*
X54488095Y-42500000D01*
X54821428Y-42452380D02*
X55059523Y-43452380D01*
X55250000Y-42738095D01*
X55440476Y-43452380D01*
X55678571Y-42452380D01*
X56011904Y-42547619D02*
X56059523Y-42500000D01*
X56154761Y-42452380D01*
X56392857Y-42452380D01*
X56488095Y-42500000D01*
X56535714Y-42547619D01*
X56583333Y-42642857D01*
X56583333Y-42738095D01*
X56535714Y-42880952D01*
X55964285Y-43452380D01*
X56583333Y-43452380D01*
X92186166Y-51224380D02*
X92186166Y-51938666D01*
X92138547Y-52081523D01*
X92043309Y-52176761D01*
X91900452Y-52224380D01*
X91805214Y-52224380D01*
X93186166Y-52224380D02*
X92614738Y-52224380D01*
X92900452Y-52224380D02*
X92900452Y-51224380D01*
X92805214Y-51367238D01*
X92709976Y-51462476D01*
X92614738Y-51510095D01*
X67008476Y-105557580D02*
X67008476Y-104557580D01*
X67341809Y-105271866D01*
X67675142Y-104557580D01*
X67675142Y-105557580D01*
X68675142Y-105557580D02*
X68103714Y-105557580D01*
X68389428Y-105557580D02*
X68389428Y-104557580D01*
X68294190Y-104700438D01*
X68198952Y-104795676D01*
X68103714Y-104843295D01*
M02*
