G04 #@! TF.GenerationSoftware,KiCad,Pcbnew,(5.1.0-0)*
G04 #@! TF.CreationDate,2020-10-15T12:15:35+01:00*
G04 #@! TF.ProjectId,OpenLaserMouseTHT,4f70656e-4c61-4736-9572-4d6f75736554,rev?*
G04 #@! TF.SameCoordinates,Original*
G04 #@! TF.FileFunction,Copper,L2,Bot*
G04 #@! TF.FilePolarity,Positive*
%FSLAX46Y46*%
G04 Gerber Fmt 4.6, Leading zero omitted, Abs format (unit mm)*
G04 Created by KiCad (PCBNEW (5.1.0-0)) date 2020-10-15 12:15:35*
%MOMM*%
%LPD*%
G04 APERTURE LIST*
%ADD10O,1.600000X1.600000*%
%ADD11R,1.600000X1.600000*%
%ADD12R,1.050000X1.500000*%
%ADD13O,1.050000X1.500000*%
%ADD14C,1.600000*%
%ADD15C,3.000000*%
%ADD16C,2.000000*%
%ADD17O,1.700000X1.700000*%
%ADD18R,1.700000X1.700000*%
%ADD19C,1.400000*%
%ADD20R,1.400000X1.400000*%
%ADD21C,0.800000*%
%ADD22C,0.250000*%
%ADD23C,0.254000*%
G04 APERTURE END LIST*
D10*
X57531000Y-117919500D03*
X42291000Y-117919500D03*
X57531000Y-82359500D03*
X42291000Y-115379500D03*
X57531000Y-84899500D03*
X42291000Y-112839500D03*
X57531000Y-87439500D03*
X42291000Y-110299500D03*
X57531000Y-89979500D03*
X42291000Y-107759500D03*
X57531000Y-92519500D03*
X42291000Y-105219500D03*
X57531000Y-95059500D03*
X42291000Y-102679500D03*
X57531000Y-97599500D03*
X42291000Y-100139500D03*
X57531000Y-100139500D03*
X42291000Y-97599500D03*
X57531000Y-102679500D03*
X42291000Y-95059500D03*
X57531000Y-105219500D03*
X42291000Y-92519500D03*
X57531000Y-107759500D03*
X42291000Y-89979500D03*
X57531000Y-110299500D03*
X42291000Y-87439500D03*
X57531000Y-112839500D03*
X42291000Y-84899500D03*
X57531000Y-115379500D03*
D11*
X42291000Y-82359500D03*
D12*
X69215000Y-83769200D03*
D13*
X66675000Y-83769200D03*
X67945000Y-83769200D03*
D10*
X83210400Y-107962700D03*
D14*
X83210400Y-118122700D03*
D10*
X80086200Y-118110000D03*
D14*
X80086200Y-107950000D03*
D10*
X86410800Y-107962700D03*
D14*
X86410800Y-118122700D03*
D10*
X77012800Y-118110000D03*
D14*
X77012800Y-107950000D03*
D10*
X89509600Y-107962700D03*
D14*
X89509600Y-118122700D03*
D10*
X73939400Y-118110000D03*
D14*
X73939400Y-107950000D03*
X73613000Y-77800200D03*
X78613000Y-77800200D03*
X73613000Y-81051400D03*
X78613000Y-81051400D03*
X78609200Y-84302600D03*
X73609200Y-84302600D03*
X86610200Y-102717600D03*
X81610200Y-102717600D03*
X86610200Y-99644200D03*
X81610200Y-99644200D03*
X81614000Y-96621600D03*
X86614000Y-96621600D03*
X81614000Y-93472000D03*
X86614000Y-93472000D03*
X86584800Y-90449400D03*
X81584800Y-90449400D03*
X86584800Y-87325200D03*
X81584800Y-87325200D03*
D15*
X68000000Y-46609000D03*
D16*
X84000000Y-45000000D03*
X84000000Y-49500000D03*
X77500000Y-45000000D03*
X77500000Y-49500000D03*
X58500000Y-45000000D03*
X58500000Y-49500000D03*
X52000000Y-45000000D03*
X52000000Y-49500000D03*
D17*
X92519500Y-71882000D03*
X92519500Y-69342000D03*
X92519500Y-66802000D03*
X92519500Y-64262000D03*
X92519500Y-61722000D03*
X92519500Y-59182000D03*
X92519500Y-56642000D03*
D18*
X92519500Y-54102000D03*
D19*
X74322000Y-90000000D03*
X74322000Y-91780000D03*
X74322000Y-93560000D03*
X74322000Y-95340000D03*
X74322000Y-97120000D03*
X74322000Y-98900000D03*
X74322000Y-100680000D03*
X74322000Y-102460000D03*
X61722000Y-102460000D03*
X61722000Y-100680000D03*
X61722000Y-98900000D03*
X61722000Y-97120000D03*
X61722000Y-95340000D03*
X61722000Y-93560000D03*
X61722000Y-91780000D03*
D20*
X61722000Y-90000000D03*
D21*
X54096701Y-101554499D03*
X68783200Y-86131400D03*
X50139600Y-113411000D03*
X49809400Y-90246200D03*
X61264800Y-110032800D03*
X65379600Y-104775000D03*
X78435200Y-95605600D03*
X77749400Y-65354200D03*
D22*
X60732051Y-100680000D02*
X59857552Y-101554499D01*
X59857552Y-101554499D02*
X54096701Y-101554499D01*
X61722000Y-100680000D02*
X60732051Y-100680000D01*
X54096701Y-101554499D02*
X54096701Y-101554499D01*
X61722000Y-95340000D02*
X58130500Y-98931500D01*
X58130500Y-98931500D02*
X54784300Y-98931500D01*
X43416001Y-116794499D02*
X42291000Y-117919500D01*
X43416001Y-110299799D02*
X43416001Y-116794499D01*
X54784300Y-98931500D02*
X43416001Y-110299799D01*
X91853001Y-70517001D02*
X91128010Y-69792010D01*
X93083501Y-70517001D02*
X91853001Y-70517001D01*
X93694501Y-69906001D02*
X93083501Y-70517001D01*
X93694501Y-67977001D02*
X93694501Y-69906001D01*
X92519500Y-66802000D02*
X93694501Y-67977001D01*
X91128010Y-69792010D02*
X61020810Y-69792010D01*
X61020810Y-69852690D02*
X44766031Y-86107469D01*
X61020810Y-69792010D02*
X61020810Y-69852690D01*
X44766031Y-100204469D02*
X42291000Y-102679500D01*
X44766031Y-86107469D02*
X44766031Y-100204469D01*
X42291500Y-100140000D02*
X42291000Y-100139500D01*
X42291500Y-100140000D02*
X42291000Y-100140000D01*
X92519500Y-61722000D02*
X67818000Y-61722000D01*
X41165999Y-97059499D02*
X41165999Y-99014499D01*
X41750999Y-96474499D02*
X41165999Y-97059499D01*
X41165999Y-99014499D02*
X42291000Y-100139500D01*
X42541003Y-96474499D02*
X41750999Y-96474499D01*
X43866011Y-95149491D02*
X42541003Y-96474499D01*
X43866011Y-85673989D02*
X43866011Y-95149491D01*
X67818000Y-61722000D02*
X43866011Y-85673989D01*
X92519500Y-69342000D02*
X60834410Y-69342000D01*
X44316021Y-95574479D02*
X42291000Y-97599500D01*
X44316021Y-85860389D02*
X44316021Y-95574479D01*
X60834410Y-69342000D02*
X44316021Y-85860389D01*
X43416001Y-93934499D02*
X42291000Y-95059500D01*
X43416001Y-85439501D02*
X43416001Y-93934499D01*
X92519500Y-59182000D02*
X90429510Y-61271990D01*
X90429510Y-61271990D02*
X67647390Y-61271990D01*
X67631600Y-61271990D02*
X67647390Y-61271990D01*
X43464089Y-85439501D02*
X67631600Y-61271990D01*
X43416001Y-85439501D02*
X43464089Y-85439501D01*
X92519500Y-56642000D02*
X65642000Y-56642000D01*
X65642000Y-56642000D02*
X58500000Y-49500000D01*
X58500000Y-49500000D02*
X52000000Y-49500000D01*
X92519500Y-54102000D02*
X91344200Y-54102000D01*
X91344200Y-54102000D02*
X86742200Y-49500000D01*
X86742200Y-49500000D02*
X84000000Y-49500000D01*
X77500000Y-49500000D02*
X84000000Y-49500000D01*
X92519500Y-71882000D02*
X75692000Y-71882000D01*
X58330999Y-81559501D02*
X57531000Y-82359500D01*
X60134711Y-79755789D02*
X58330999Y-81559501D01*
X67818211Y-79755789D02*
X60134711Y-79755789D01*
X75692000Y-71882000D02*
X67818211Y-79755789D01*
X74322000Y-98900000D02*
X75361800Y-97860200D01*
X75361800Y-97860200D02*
X75361800Y-94599800D01*
X75361800Y-94599800D02*
X74322000Y-93560000D01*
X58500000Y-45000000D02*
X52000000Y-45000000D01*
X84000000Y-45000000D02*
X77500000Y-45000000D01*
X77500000Y-45000000D02*
X58500000Y-45000000D01*
X85814001Y-97421599D02*
X86614000Y-96621600D01*
X85035599Y-98200001D02*
X85814001Y-97421599D01*
X75021999Y-98200001D02*
X85035599Y-98200001D01*
X74322000Y-98900000D02*
X75021999Y-98200001D01*
X87535801Y-116997699D02*
X87210799Y-117322701D01*
X87535801Y-103643201D02*
X87535801Y-116997699D01*
X87210799Y-117322701D02*
X86410800Y-118122700D01*
X86610200Y-102717600D02*
X87535801Y-103643201D01*
X77813001Y-78600199D02*
X78613000Y-77800200D01*
X72793599Y-80205799D02*
X74074197Y-78925201D01*
X74074197Y-78925201D02*
X77487999Y-78925201D01*
X62224701Y-80205799D02*
X72793599Y-80205799D01*
X77487999Y-78925201D02*
X77813001Y-78600199D01*
X57531000Y-84899500D02*
X62224701Y-80205799D01*
X80086200Y-119241370D02*
X78824890Y-120502680D01*
X80086200Y-118110000D02*
X80086200Y-119241370D01*
X60114180Y-120502680D02*
X57531000Y-117919500D01*
X78824890Y-120502680D02*
X60114180Y-120502680D01*
X74322000Y-102460000D02*
X61402500Y-115379500D01*
X61402500Y-115379500D02*
X57531000Y-115379500D01*
X81614000Y-94603370D02*
X81614000Y-96621600D01*
X81614000Y-93472000D02*
X81614000Y-94603370D01*
X79922000Y-91780000D02*
X81614000Y-93472000D01*
X74322000Y-91780000D02*
X79922000Y-91780000D01*
X61722000Y-102460000D02*
X62580000Y-103318000D01*
X62580000Y-103318000D02*
X72747900Y-103318000D01*
X72747900Y-103318000D02*
X72962700Y-103103000D01*
X72962700Y-103103000D02*
X72962700Y-91359300D01*
X72962700Y-91359300D02*
X74322000Y-90000000D01*
X66675000Y-83994200D02*
X66675000Y-83769200D01*
X67525010Y-84844210D02*
X66675000Y-83994200D01*
X72477830Y-84302600D02*
X71936220Y-84844210D01*
X71936220Y-84844210D02*
X67525010Y-84844210D01*
X73609200Y-84302600D02*
X72477830Y-84302600D01*
D23*
G36*
X95340000Y-42773381D02*
G01*
X95340001Y-121226618D01*
X93226620Y-123340000D01*
X42773381Y-123340000D01*
X40660000Y-121226620D01*
X40660000Y-99583301D01*
X40890292Y-99813594D01*
X40876764Y-99858191D01*
X40849057Y-100139500D01*
X40876764Y-100420809D01*
X40958818Y-100691308D01*
X41092068Y-100940601D01*
X41271392Y-101159108D01*
X41489899Y-101338432D01*
X41622858Y-101409500D01*
X41489899Y-101480568D01*
X41271392Y-101659892D01*
X41092068Y-101878399D01*
X40958818Y-102127692D01*
X40876764Y-102398191D01*
X40849057Y-102679500D01*
X40876764Y-102960809D01*
X40958818Y-103231308D01*
X41092068Y-103480601D01*
X41271392Y-103699108D01*
X41489899Y-103878432D01*
X41622858Y-103949500D01*
X41489899Y-104020568D01*
X41271392Y-104199892D01*
X41092068Y-104418399D01*
X40958818Y-104667692D01*
X40876764Y-104938191D01*
X40849057Y-105219500D01*
X40876764Y-105500809D01*
X40958818Y-105771308D01*
X41092068Y-106020601D01*
X41271392Y-106239108D01*
X41489899Y-106418432D01*
X41622858Y-106489500D01*
X41489899Y-106560568D01*
X41271392Y-106739892D01*
X41092068Y-106958399D01*
X40958818Y-107207692D01*
X40876764Y-107478191D01*
X40849057Y-107759500D01*
X40876764Y-108040809D01*
X40958818Y-108311308D01*
X41092068Y-108560601D01*
X41271392Y-108779108D01*
X41489899Y-108958432D01*
X41622858Y-109029500D01*
X41489899Y-109100568D01*
X41271392Y-109279892D01*
X41092068Y-109498399D01*
X40958818Y-109747692D01*
X40876764Y-110018191D01*
X40849057Y-110299500D01*
X40876764Y-110580809D01*
X40958818Y-110851308D01*
X41092068Y-111100601D01*
X41271392Y-111319108D01*
X41489899Y-111498432D01*
X41622858Y-111569500D01*
X41489899Y-111640568D01*
X41271392Y-111819892D01*
X41092068Y-112038399D01*
X40958818Y-112287692D01*
X40876764Y-112558191D01*
X40849057Y-112839500D01*
X40876764Y-113120809D01*
X40958818Y-113391308D01*
X41092068Y-113640601D01*
X41271392Y-113859108D01*
X41489899Y-114038432D01*
X41622858Y-114109500D01*
X41489899Y-114180568D01*
X41271392Y-114359892D01*
X41092068Y-114578399D01*
X40958818Y-114827692D01*
X40876764Y-115098191D01*
X40849057Y-115379500D01*
X40876764Y-115660809D01*
X40958818Y-115931308D01*
X41092068Y-116180601D01*
X41271392Y-116399108D01*
X41489899Y-116578432D01*
X41622858Y-116649500D01*
X41489899Y-116720568D01*
X41271392Y-116899892D01*
X41092068Y-117118399D01*
X40958818Y-117367692D01*
X40876764Y-117638191D01*
X40849057Y-117919500D01*
X40876764Y-118200809D01*
X40958818Y-118471308D01*
X41092068Y-118720601D01*
X41271392Y-118939108D01*
X41489899Y-119118432D01*
X41739192Y-119251682D01*
X42009691Y-119333736D01*
X42220508Y-119354500D01*
X42361492Y-119354500D01*
X42572309Y-119333736D01*
X42842808Y-119251682D01*
X43092101Y-119118432D01*
X43310608Y-118939108D01*
X43489932Y-118720601D01*
X43623182Y-118471308D01*
X43705236Y-118200809D01*
X43732943Y-117919500D01*
X43705236Y-117638191D01*
X43691708Y-117593594D01*
X43927004Y-117358298D01*
X43956002Y-117334500D01*
X44050975Y-117218775D01*
X44121547Y-117086746D01*
X44165004Y-116943485D01*
X44176001Y-116831832D01*
X44176001Y-116831824D01*
X44179677Y-116794499D01*
X44176001Y-116757174D01*
X44176001Y-110614600D01*
X53073723Y-101716879D01*
X53101475Y-101856397D01*
X53179496Y-102044755D01*
X53292764Y-102214273D01*
X53436927Y-102358436D01*
X53606445Y-102471704D01*
X53794803Y-102549725D01*
X53994762Y-102589499D01*
X54198640Y-102589499D01*
X54398599Y-102549725D01*
X54586957Y-102471704D01*
X54756475Y-102358436D01*
X54800412Y-102314499D01*
X56142151Y-102314499D01*
X56116764Y-102398191D01*
X56089057Y-102679500D01*
X56116764Y-102960809D01*
X56198818Y-103231308D01*
X56332068Y-103480601D01*
X56511392Y-103699108D01*
X56729899Y-103878432D01*
X56862858Y-103949500D01*
X56729899Y-104020568D01*
X56511392Y-104199892D01*
X56332068Y-104418399D01*
X56198818Y-104667692D01*
X56116764Y-104938191D01*
X56089057Y-105219500D01*
X56116764Y-105500809D01*
X56198818Y-105771308D01*
X56332068Y-106020601D01*
X56511392Y-106239108D01*
X56729899Y-106418432D01*
X56862858Y-106489500D01*
X56729899Y-106560568D01*
X56511392Y-106739892D01*
X56332068Y-106958399D01*
X56198818Y-107207692D01*
X56116764Y-107478191D01*
X56089057Y-107759500D01*
X56116764Y-108040809D01*
X56198818Y-108311308D01*
X56332068Y-108560601D01*
X56511392Y-108779108D01*
X56729899Y-108958432D01*
X56862858Y-109029500D01*
X56729899Y-109100568D01*
X56511392Y-109279892D01*
X56332068Y-109498399D01*
X56198818Y-109747692D01*
X56116764Y-110018191D01*
X56089057Y-110299500D01*
X56116764Y-110580809D01*
X56198818Y-110851308D01*
X56332068Y-111100601D01*
X56511392Y-111319108D01*
X56729899Y-111498432D01*
X56862858Y-111569500D01*
X56729899Y-111640568D01*
X56511392Y-111819892D01*
X56332068Y-112038399D01*
X56198818Y-112287692D01*
X56116764Y-112558191D01*
X56089057Y-112839500D01*
X56116764Y-113120809D01*
X56198818Y-113391308D01*
X56332068Y-113640601D01*
X56511392Y-113859108D01*
X56729899Y-114038432D01*
X56862858Y-114109500D01*
X56729899Y-114180568D01*
X56511392Y-114359892D01*
X56332068Y-114578399D01*
X56198818Y-114827692D01*
X56116764Y-115098191D01*
X56089057Y-115379500D01*
X56116764Y-115660809D01*
X56198818Y-115931308D01*
X56332068Y-116180601D01*
X56511392Y-116399108D01*
X56729899Y-116578432D01*
X56862858Y-116649500D01*
X56729899Y-116720568D01*
X56511392Y-116899892D01*
X56332068Y-117118399D01*
X56198818Y-117367692D01*
X56116764Y-117638191D01*
X56089057Y-117919500D01*
X56116764Y-118200809D01*
X56198818Y-118471308D01*
X56332068Y-118720601D01*
X56511392Y-118939108D01*
X56729899Y-119118432D01*
X56979192Y-119251682D01*
X57249691Y-119333736D01*
X57460508Y-119354500D01*
X57601492Y-119354500D01*
X57812309Y-119333736D01*
X57856906Y-119320208D01*
X59550381Y-121013683D01*
X59574179Y-121042681D01*
X59689904Y-121137654D01*
X59821933Y-121208226D01*
X59965194Y-121251683D01*
X60076847Y-121262680D01*
X60076856Y-121262680D01*
X60114179Y-121266356D01*
X60151502Y-121262680D01*
X78787568Y-121262680D01*
X78824890Y-121266356D01*
X78862212Y-121262680D01*
X78862223Y-121262680D01*
X78973876Y-121251683D01*
X79117137Y-121208226D01*
X79249166Y-121137654D01*
X79364891Y-121042681D01*
X79388694Y-121013677D01*
X80597203Y-119805169D01*
X80626201Y-119781371D01*
X80721174Y-119665646D01*
X80791746Y-119533617D01*
X80835203Y-119390356D01*
X80840773Y-119333802D01*
X80887301Y-119308932D01*
X81105808Y-119129608D01*
X81285132Y-118911101D01*
X81418382Y-118661808D01*
X81500436Y-118391309D01*
X81528143Y-118110000D01*
X81515474Y-117981365D01*
X81775400Y-117981365D01*
X81775400Y-118264035D01*
X81830547Y-118541274D01*
X81938720Y-118802427D01*
X82095763Y-119037459D01*
X82295641Y-119237337D01*
X82530673Y-119394380D01*
X82791826Y-119502553D01*
X83069065Y-119557700D01*
X83351735Y-119557700D01*
X83628974Y-119502553D01*
X83890127Y-119394380D01*
X84125159Y-119237337D01*
X84325037Y-119037459D01*
X84482080Y-118802427D01*
X84590253Y-118541274D01*
X84645400Y-118264035D01*
X84645400Y-117981365D01*
X84590253Y-117704126D01*
X84482080Y-117442973D01*
X84325037Y-117207941D01*
X84125159Y-117008063D01*
X83890127Y-116851020D01*
X83628974Y-116742847D01*
X83351735Y-116687700D01*
X83069065Y-116687700D01*
X82791826Y-116742847D01*
X82530673Y-116851020D01*
X82295641Y-117008063D01*
X82095763Y-117207941D01*
X81938720Y-117442973D01*
X81830547Y-117704126D01*
X81775400Y-117981365D01*
X81515474Y-117981365D01*
X81500436Y-117828691D01*
X81418382Y-117558192D01*
X81285132Y-117308899D01*
X81105808Y-117090392D01*
X80887301Y-116911068D01*
X80638008Y-116777818D01*
X80367509Y-116695764D01*
X80156692Y-116675000D01*
X80015708Y-116675000D01*
X79804891Y-116695764D01*
X79534392Y-116777818D01*
X79285099Y-116911068D01*
X79066592Y-117090392D01*
X78887268Y-117308899D01*
X78754018Y-117558192D01*
X78671964Y-117828691D01*
X78644257Y-118110000D01*
X78671964Y-118391309D01*
X78754018Y-118661808D01*
X78887268Y-118911101D01*
X79066592Y-119129608D01*
X79097662Y-119155106D01*
X78510089Y-119742680D01*
X69615190Y-119742680D01*
X69666818Y-119721295D01*
X70262177Y-119323489D01*
X70768489Y-118817177D01*
X71166295Y-118221818D01*
X71212611Y-118110000D01*
X72497457Y-118110000D01*
X72525164Y-118391309D01*
X72607218Y-118661808D01*
X72740468Y-118911101D01*
X72919792Y-119129608D01*
X73138299Y-119308932D01*
X73387592Y-119442182D01*
X73658091Y-119524236D01*
X73868908Y-119545000D01*
X74009892Y-119545000D01*
X74220709Y-119524236D01*
X74491208Y-119442182D01*
X74740501Y-119308932D01*
X74959008Y-119129608D01*
X75138332Y-118911101D01*
X75271582Y-118661808D01*
X75353636Y-118391309D01*
X75381343Y-118110000D01*
X75570857Y-118110000D01*
X75598564Y-118391309D01*
X75680618Y-118661808D01*
X75813868Y-118911101D01*
X75993192Y-119129608D01*
X76211699Y-119308932D01*
X76460992Y-119442182D01*
X76731491Y-119524236D01*
X76942308Y-119545000D01*
X77083292Y-119545000D01*
X77294109Y-119524236D01*
X77564608Y-119442182D01*
X77813901Y-119308932D01*
X78032408Y-119129608D01*
X78211732Y-118911101D01*
X78344982Y-118661808D01*
X78427036Y-118391309D01*
X78454743Y-118110000D01*
X78427036Y-117828691D01*
X78344982Y-117558192D01*
X78211732Y-117308899D01*
X78032408Y-117090392D01*
X77813901Y-116911068D01*
X77564608Y-116777818D01*
X77294109Y-116695764D01*
X77083292Y-116675000D01*
X76942308Y-116675000D01*
X76731491Y-116695764D01*
X76460992Y-116777818D01*
X76211699Y-116911068D01*
X75993192Y-117090392D01*
X75813868Y-117308899D01*
X75680618Y-117558192D01*
X75598564Y-117828691D01*
X75570857Y-118110000D01*
X75381343Y-118110000D01*
X75353636Y-117828691D01*
X75271582Y-117558192D01*
X75138332Y-117308899D01*
X74959008Y-117090392D01*
X74740501Y-116911068D01*
X74491208Y-116777818D01*
X74220709Y-116695764D01*
X74009892Y-116675000D01*
X73868908Y-116675000D01*
X73658091Y-116695764D01*
X73387592Y-116777818D01*
X73138299Y-116911068D01*
X72919792Y-117090392D01*
X72740468Y-117308899D01*
X72607218Y-117558192D01*
X72525164Y-117828691D01*
X72497457Y-118110000D01*
X71212611Y-118110000D01*
X71440309Y-117560290D01*
X71580000Y-116858016D01*
X71580000Y-116141984D01*
X71440309Y-115439710D01*
X71166295Y-114778182D01*
X70768489Y-114182823D01*
X70262177Y-113676511D01*
X69666818Y-113278705D01*
X69005290Y-113004691D01*
X68303016Y-112865000D01*
X67586984Y-112865000D01*
X66884710Y-113004691D01*
X66223182Y-113278705D01*
X65627823Y-113676511D01*
X65121511Y-114182823D01*
X64723705Y-114778182D01*
X64449691Y-115439710D01*
X64310000Y-116141984D01*
X64310000Y-116858016D01*
X64449691Y-117560290D01*
X64723705Y-118221818D01*
X65121511Y-118817177D01*
X65627823Y-119323489D01*
X66223182Y-119721295D01*
X66274810Y-119742680D01*
X60428982Y-119742680D01*
X58931708Y-118245406D01*
X58945236Y-118200809D01*
X58972943Y-117919500D01*
X58945236Y-117638191D01*
X58863182Y-117367692D01*
X58729932Y-117118399D01*
X58550608Y-116899892D01*
X58332101Y-116720568D01*
X58199142Y-116649500D01*
X58332101Y-116578432D01*
X58550608Y-116399108D01*
X58729932Y-116180601D01*
X58751901Y-116139500D01*
X61365178Y-116139500D01*
X61402500Y-116143176D01*
X61439822Y-116139500D01*
X61439833Y-116139500D01*
X61551486Y-116128503D01*
X61694747Y-116085046D01*
X61826776Y-116014474D01*
X61942501Y-115919501D01*
X61966304Y-115890497D01*
X70048136Y-107808665D01*
X72504400Y-107808665D01*
X72504400Y-108091335D01*
X72559547Y-108368574D01*
X72667720Y-108629727D01*
X72824763Y-108864759D01*
X73024641Y-109064637D01*
X73259673Y-109221680D01*
X73520826Y-109329853D01*
X73798065Y-109385000D01*
X74080735Y-109385000D01*
X74357974Y-109329853D01*
X74619127Y-109221680D01*
X74854159Y-109064637D01*
X75054037Y-108864759D01*
X75211080Y-108629727D01*
X75319253Y-108368574D01*
X75374400Y-108091335D01*
X75374400Y-107808665D01*
X75577800Y-107808665D01*
X75577800Y-108091335D01*
X75632947Y-108368574D01*
X75741120Y-108629727D01*
X75898163Y-108864759D01*
X76098041Y-109064637D01*
X76333073Y-109221680D01*
X76594226Y-109329853D01*
X76871465Y-109385000D01*
X77154135Y-109385000D01*
X77431374Y-109329853D01*
X77692527Y-109221680D01*
X77927559Y-109064637D01*
X78127437Y-108864759D01*
X78284480Y-108629727D01*
X78392653Y-108368574D01*
X78447800Y-108091335D01*
X78447800Y-107808665D01*
X78651200Y-107808665D01*
X78651200Y-108091335D01*
X78706347Y-108368574D01*
X78814520Y-108629727D01*
X78971563Y-108864759D01*
X79171441Y-109064637D01*
X79406473Y-109221680D01*
X79667626Y-109329853D01*
X79944865Y-109385000D01*
X80227535Y-109385000D01*
X80504774Y-109329853D01*
X80765927Y-109221680D01*
X81000959Y-109064637D01*
X81200837Y-108864759D01*
X81357880Y-108629727D01*
X81466053Y-108368574D01*
X81521200Y-108091335D01*
X81521200Y-107962700D01*
X81768457Y-107962700D01*
X81796164Y-108244009D01*
X81878218Y-108514508D01*
X82011468Y-108763801D01*
X82190792Y-108982308D01*
X82409299Y-109161632D01*
X82658592Y-109294882D01*
X82929091Y-109376936D01*
X83139908Y-109397700D01*
X83280892Y-109397700D01*
X83491709Y-109376936D01*
X83762208Y-109294882D01*
X84011501Y-109161632D01*
X84230008Y-108982308D01*
X84409332Y-108763801D01*
X84542582Y-108514508D01*
X84624636Y-108244009D01*
X84652343Y-107962700D01*
X84968857Y-107962700D01*
X84996564Y-108244009D01*
X85078618Y-108514508D01*
X85211868Y-108763801D01*
X85391192Y-108982308D01*
X85609699Y-109161632D01*
X85858992Y-109294882D01*
X86129491Y-109376936D01*
X86340308Y-109397700D01*
X86481292Y-109397700D01*
X86692109Y-109376936D01*
X86775801Y-109351548D01*
X86775802Y-116682897D01*
X86734687Y-116724012D01*
X86552135Y-116687700D01*
X86269465Y-116687700D01*
X85992226Y-116742847D01*
X85731073Y-116851020D01*
X85496041Y-117008063D01*
X85296163Y-117207941D01*
X85139120Y-117442973D01*
X85030947Y-117704126D01*
X84975800Y-117981365D01*
X84975800Y-118264035D01*
X85030947Y-118541274D01*
X85139120Y-118802427D01*
X85296163Y-119037459D01*
X85496041Y-119237337D01*
X85731073Y-119394380D01*
X85992226Y-119502553D01*
X86269465Y-119557700D01*
X86552135Y-119557700D01*
X86829374Y-119502553D01*
X87090527Y-119394380D01*
X87325559Y-119237337D01*
X87525437Y-119037459D01*
X87682480Y-118802427D01*
X87790653Y-118541274D01*
X87845800Y-118264035D01*
X87845800Y-117981365D01*
X88074600Y-117981365D01*
X88074600Y-118264035D01*
X88129747Y-118541274D01*
X88237920Y-118802427D01*
X88394963Y-119037459D01*
X88594841Y-119237337D01*
X88829873Y-119394380D01*
X89091026Y-119502553D01*
X89368265Y-119557700D01*
X89650935Y-119557700D01*
X89928174Y-119502553D01*
X90189327Y-119394380D01*
X90424359Y-119237337D01*
X90624237Y-119037459D01*
X90781280Y-118802427D01*
X90889453Y-118541274D01*
X90944600Y-118264035D01*
X90944600Y-117981365D01*
X90889453Y-117704126D01*
X90781280Y-117442973D01*
X90624237Y-117207941D01*
X90424359Y-117008063D01*
X90189327Y-116851020D01*
X89928174Y-116742847D01*
X89650935Y-116687700D01*
X89368265Y-116687700D01*
X89091026Y-116742847D01*
X88829873Y-116851020D01*
X88594841Y-117008063D01*
X88394963Y-117207941D01*
X88237920Y-117442973D01*
X88129747Y-117704126D01*
X88074600Y-117981365D01*
X87845800Y-117981365D01*
X87809488Y-117798813D01*
X88046798Y-117561503D01*
X88075802Y-117537700D01*
X88170775Y-117421975D01*
X88241347Y-117289946D01*
X88284804Y-117146685D01*
X88295801Y-117035032D01*
X88295801Y-117035023D01*
X88299477Y-116997700D01*
X88295801Y-116960377D01*
X88295801Y-108735987D01*
X88310668Y-108763801D01*
X88489992Y-108982308D01*
X88708499Y-109161632D01*
X88957792Y-109294882D01*
X89228291Y-109376936D01*
X89439108Y-109397700D01*
X89580092Y-109397700D01*
X89790909Y-109376936D01*
X90061408Y-109294882D01*
X90310701Y-109161632D01*
X90529208Y-108982308D01*
X90708532Y-108763801D01*
X90841782Y-108514508D01*
X90923836Y-108244009D01*
X90951543Y-107962700D01*
X90923836Y-107681391D01*
X90841782Y-107410892D01*
X90708532Y-107161599D01*
X90529208Y-106943092D01*
X90310701Y-106763768D01*
X90061408Y-106630518D01*
X89790909Y-106548464D01*
X89580092Y-106527700D01*
X89439108Y-106527700D01*
X89228291Y-106548464D01*
X88957792Y-106630518D01*
X88708499Y-106763768D01*
X88489992Y-106943092D01*
X88310668Y-107161599D01*
X88295801Y-107189413D01*
X88295801Y-103680523D01*
X88299477Y-103643200D01*
X88295801Y-103605877D01*
X88295801Y-103605868D01*
X88284804Y-103494215D01*
X88241347Y-103350954D01*
X88170775Y-103218925D01*
X88130101Y-103169363D01*
X88099600Y-103132197D01*
X88099596Y-103132193D01*
X88075802Y-103103200D01*
X88046810Y-103079407D01*
X88008888Y-103041485D01*
X88045200Y-102858935D01*
X88045200Y-102576265D01*
X87990053Y-102299026D01*
X87881880Y-102037873D01*
X87724837Y-101802841D01*
X87524959Y-101602963D01*
X87289927Y-101445920D01*
X87028774Y-101337747D01*
X86751535Y-101282600D01*
X86468865Y-101282600D01*
X86191626Y-101337747D01*
X85930473Y-101445920D01*
X85695441Y-101602963D01*
X85495563Y-101802841D01*
X85338520Y-102037873D01*
X85230347Y-102299026D01*
X85175200Y-102576265D01*
X85175200Y-102858935D01*
X85230347Y-103136174D01*
X85338520Y-103397327D01*
X85495563Y-103632359D01*
X85695441Y-103832237D01*
X85930473Y-103989280D01*
X86191626Y-104097453D01*
X86468865Y-104152600D01*
X86751535Y-104152600D01*
X86775801Y-104147773D01*
X86775801Y-106573851D01*
X86692109Y-106548464D01*
X86481292Y-106527700D01*
X86340308Y-106527700D01*
X86129491Y-106548464D01*
X85858992Y-106630518D01*
X85609699Y-106763768D01*
X85391192Y-106943092D01*
X85211868Y-107161599D01*
X85078618Y-107410892D01*
X84996564Y-107681391D01*
X84968857Y-107962700D01*
X84652343Y-107962700D01*
X84624636Y-107681391D01*
X84542582Y-107410892D01*
X84409332Y-107161599D01*
X84230008Y-106943092D01*
X84011501Y-106763768D01*
X83762208Y-106630518D01*
X83491709Y-106548464D01*
X83280892Y-106527700D01*
X83139908Y-106527700D01*
X82929091Y-106548464D01*
X82658592Y-106630518D01*
X82409299Y-106763768D01*
X82190792Y-106943092D01*
X82011468Y-107161599D01*
X81878218Y-107410892D01*
X81796164Y-107681391D01*
X81768457Y-107962700D01*
X81521200Y-107962700D01*
X81521200Y-107808665D01*
X81466053Y-107531426D01*
X81357880Y-107270273D01*
X81200837Y-107035241D01*
X81000959Y-106835363D01*
X80765927Y-106678320D01*
X80504774Y-106570147D01*
X80227535Y-106515000D01*
X79944865Y-106515000D01*
X79667626Y-106570147D01*
X79406473Y-106678320D01*
X79171441Y-106835363D01*
X78971563Y-107035241D01*
X78814520Y-107270273D01*
X78706347Y-107531426D01*
X78651200Y-107808665D01*
X78447800Y-107808665D01*
X78392653Y-107531426D01*
X78284480Y-107270273D01*
X78127437Y-107035241D01*
X77927559Y-106835363D01*
X77692527Y-106678320D01*
X77431374Y-106570147D01*
X77154135Y-106515000D01*
X76871465Y-106515000D01*
X76594226Y-106570147D01*
X76333073Y-106678320D01*
X76098041Y-106835363D01*
X75898163Y-107035241D01*
X75741120Y-107270273D01*
X75632947Y-107531426D01*
X75577800Y-107808665D01*
X75374400Y-107808665D01*
X75319253Y-107531426D01*
X75211080Y-107270273D01*
X75054037Y-107035241D01*
X74854159Y-106835363D01*
X74619127Y-106678320D01*
X74357974Y-106570147D01*
X74080735Y-106515000D01*
X73798065Y-106515000D01*
X73520826Y-106570147D01*
X73259673Y-106678320D01*
X73024641Y-106835363D01*
X72824763Y-107035241D01*
X72667720Y-107270273D01*
X72559547Y-107531426D01*
X72504400Y-107808665D01*
X70048136Y-107808665D01*
X74083157Y-103773645D01*
X74190514Y-103795000D01*
X74453486Y-103795000D01*
X74711405Y-103743696D01*
X74954359Y-103643061D01*
X75173013Y-103496962D01*
X75358962Y-103311013D01*
X75505061Y-103092359D01*
X75605696Y-102849405D01*
X75657000Y-102591486D01*
X75657000Y-102576265D01*
X80175200Y-102576265D01*
X80175200Y-102858935D01*
X80230347Y-103136174D01*
X80338520Y-103397327D01*
X80495563Y-103632359D01*
X80695441Y-103832237D01*
X80930473Y-103989280D01*
X81191626Y-104097453D01*
X81468865Y-104152600D01*
X81751535Y-104152600D01*
X82028774Y-104097453D01*
X82289927Y-103989280D01*
X82524959Y-103832237D01*
X82724837Y-103632359D01*
X82881880Y-103397327D01*
X82990053Y-103136174D01*
X83045200Y-102858935D01*
X83045200Y-102576265D01*
X82990053Y-102299026D01*
X82881880Y-102037873D01*
X82724837Y-101802841D01*
X82524959Y-101602963D01*
X82289927Y-101445920D01*
X82028774Y-101337747D01*
X81751535Y-101282600D01*
X81468865Y-101282600D01*
X81191626Y-101337747D01*
X80930473Y-101445920D01*
X80695441Y-101602963D01*
X80495563Y-101802841D01*
X80338520Y-102037873D01*
X80230347Y-102299026D01*
X80175200Y-102576265D01*
X75657000Y-102576265D01*
X75657000Y-102328514D01*
X75605696Y-102070595D01*
X75505061Y-101827641D01*
X75358962Y-101608987D01*
X75319975Y-101570000D01*
X75358962Y-101531013D01*
X75505061Y-101312359D01*
X75605696Y-101069405D01*
X75657000Y-100811486D01*
X75657000Y-100548514D01*
X75605696Y-100290595D01*
X75505061Y-100047641D01*
X75358962Y-99828987D01*
X75319975Y-99790000D01*
X75358962Y-99751013D01*
X75505061Y-99532359D01*
X75605696Y-99289405D01*
X75657000Y-99031486D01*
X75657000Y-98960001D01*
X80341508Y-98960001D01*
X80338520Y-98964473D01*
X80230347Y-99225626D01*
X80175200Y-99502865D01*
X80175200Y-99785535D01*
X80230347Y-100062774D01*
X80338520Y-100323927D01*
X80495563Y-100558959D01*
X80695441Y-100758837D01*
X80930473Y-100915880D01*
X81191626Y-101024053D01*
X81468865Y-101079200D01*
X81751535Y-101079200D01*
X82028774Y-101024053D01*
X82289927Y-100915880D01*
X82524959Y-100758837D01*
X82724837Y-100558959D01*
X82881880Y-100323927D01*
X82990053Y-100062774D01*
X83045200Y-99785535D01*
X83045200Y-99502865D01*
X82990053Y-99225626D01*
X82881880Y-98964473D01*
X82878892Y-98960001D01*
X84998277Y-98960001D01*
X85035599Y-98963677D01*
X85072921Y-98960001D01*
X85072932Y-98960001D01*
X85184585Y-98949004D01*
X85327846Y-98905547D01*
X85405698Y-98863934D01*
X85338520Y-98964473D01*
X85230347Y-99225626D01*
X85175200Y-99502865D01*
X85175200Y-99785535D01*
X85230347Y-100062774D01*
X85338520Y-100323927D01*
X85495563Y-100558959D01*
X85695441Y-100758837D01*
X85930473Y-100915880D01*
X86191626Y-101024053D01*
X86468865Y-101079200D01*
X86751535Y-101079200D01*
X87028774Y-101024053D01*
X87289927Y-100915880D01*
X87524959Y-100758837D01*
X87724837Y-100558959D01*
X87881880Y-100323927D01*
X87990053Y-100062774D01*
X88045200Y-99785535D01*
X88045200Y-99502865D01*
X87990053Y-99225626D01*
X87881880Y-98964473D01*
X87724837Y-98729441D01*
X87524959Y-98529563D01*
X87289927Y-98372520D01*
X87028774Y-98264347D01*
X86751535Y-98209200D01*
X86468865Y-98209200D01*
X86191626Y-98264347D01*
X85943120Y-98367281D01*
X86290114Y-98020288D01*
X86472665Y-98056600D01*
X86755335Y-98056600D01*
X87032574Y-98001453D01*
X87293727Y-97893280D01*
X87528759Y-97736237D01*
X87728637Y-97536359D01*
X87885680Y-97301327D01*
X87993853Y-97040174D01*
X88049000Y-96762935D01*
X88049000Y-96480265D01*
X87993853Y-96203026D01*
X87885680Y-95941873D01*
X87728637Y-95706841D01*
X87528759Y-95506963D01*
X87293727Y-95349920D01*
X87032574Y-95241747D01*
X86755335Y-95186600D01*
X86472665Y-95186600D01*
X86195426Y-95241747D01*
X85934273Y-95349920D01*
X85699241Y-95506963D01*
X85499363Y-95706841D01*
X85342320Y-95941873D01*
X85234147Y-96203026D01*
X85179000Y-96480265D01*
X85179000Y-96762935D01*
X85215312Y-96945486D01*
X84720798Y-97440001D01*
X82793021Y-97440001D01*
X82885680Y-97301327D01*
X82993853Y-97040174D01*
X83049000Y-96762935D01*
X83049000Y-96480265D01*
X82993853Y-96203026D01*
X82885680Y-95941873D01*
X82728637Y-95706841D01*
X82528759Y-95506963D01*
X82374000Y-95403557D01*
X82374000Y-94690043D01*
X82528759Y-94586637D01*
X82728637Y-94386759D01*
X82885680Y-94151727D01*
X82993853Y-93890574D01*
X83049000Y-93613335D01*
X83049000Y-93330665D01*
X85179000Y-93330665D01*
X85179000Y-93613335D01*
X85234147Y-93890574D01*
X85342320Y-94151727D01*
X85499363Y-94386759D01*
X85699241Y-94586637D01*
X85934273Y-94743680D01*
X86195426Y-94851853D01*
X86472665Y-94907000D01*
X86755335Y-94907000D01*
X87032574Y-94851853D01*
X87293727Y-94743680D01*
X87528759Y-94586637D01*
X87728637Y-94386759D01*
X87885680Y-94151727D01*
X87993853Y-93890574D01*
X88049000Y-93613335D01*
X88049000Y-93330665D01*
X87993853Y-93053426D01*
X87885680Y-92792273D01*
X87728637Y-92557241D01*
X87528759Y-92357363D01*
X87293727Y-92200320D01*
X87032574Y-92092147D01*
X86755335Y-92037000D01*
X86472665Y-92037000D01*
X86195426Y-92092147D01*
X85934273Y-92200320D01*
X85699241Y-92357363D01*
X85499363Y-92557241D01*
X85342320Y-92792273D01*
X85234147Y-93053426D01*
X85179000Y-93330665D01*
X83049000Y-93330665D01*
X82993853Y-93053426D01*
X82885680Y-92792273D01*
X82728637Y-92557241D01*
X82528759Y-92357363D01*
X82293727Y-92200320D01*
X82032574Y-92092147D01*
X81755335Y-92037000D01*
X81472665Y-92037000D01*
X81290114Y-92073312D01*
X80961080Y-91744279D01*
X81166226Y-91829253D01*
X81443465Y-91884400D01*
X81726135Y-91884400D01*
X82003374Y-91829253D01*
X82264527Y-91721080D01*
X82499559Y-91564037D01*
X82699437Y-91364159D01*
X82856480Y-91129127D01*
X82964653Y-90867974D01*
X83019800Y-90590735D01*
X83019800Y-90308065D01*
X85149800Y-90308065D01*
X85149800Y-90590735D01*
X85204947Y-90867974D01*
X85313120Y-91129127D01*
X85470163Y-91364159D01*
X85670041Y-91564037D01*
X85905073Y-91721080D01*
X86166226Y-91829253D01*
X86443465Y-91884400D01*
X86726135Y-91884400D01*
X87003374Y-91829253D01*
X87264527Y-91721080D01*
X87499559Y-91564037D01*
X87699437Y-91364159D01*
X87856480Y-91129127D01*
X87964653Y-90867974D01*
X88019800Y-90590735D01*
X88019800Y-90308065D01*
X87964653Y-90030826D01*
X87856480Y-89769673D01*
X87699437Y-89534641D01*
X87499559Y-89334763D01*
X87264527Y-89177720D01*
X87003374Y-89069547D01*
X86726135Y-89014400D01*
X86443465Y-89014400D01*
X86166226Y-89069547D01*
X85905073Y-89177720D01*
X85670041Y-89334763D01*
X85470163Y-89534641D01*
X85313120Y-89769673D01*
X85204947Y-90030826D01*
X85149800Y-90308065D01*
X83019800Y-90308065D01*
X82964653Y-90030826D01*
X82856480Y-89769673D01*
X82699437Y-89534641D01*
X82499559Y-89334763D01*
X82264527Y-89177720D01*
X82003374Y-89069547D01*
X81726135Y-89014400D01*
X81443465Y-89014400D01*
X81166226Y-89069547D01*
X80905073Y-89177720D01*
X80670041Y-89334763D01*
X80470163Y-89534641D01*
X80313120Y-89769673D01*
X80204947Y-90030826D01*
X80149800Y-90308065D01*
X80149800Y-90590735D01*
X80204947Y-90867974D01*
X80312150Y-91126785D01*
X80214247Y-91074454D01*
X80070986Y-91030997D01*
X79959333Y-91020000D01*
X79959322Y-91020000D01*
X79922000Y-91016324D01*
X79884678Y-91020000D01*
X75419775Y-91020000D01*
X75358962Y-90928987D01*
X75319975Y-90890000D01*
X75358962Y-90851013D01*
X75505061Y-90632359D01*
X75605696Y-90389405D01*
X75657000Y-90131486D01*
X75657000Y-89868514D01*
X75605696Y-89610595D01*
X75505061Y-89367641D01*
X75358962Y-89148987D01*
X75173013Y-88963038D01*
X74954359Y-88816939D01*
X74711405Y-88716304D01*
X74453486Y-88665000D01*
X74190514Y-88665000D01*
X73932595Y-88716304D01*
X73689641Y-88816939D01*
X73470987Y-88963038D01*
X73285038Y-89148987D01*
X73259705Y-89186901D01*
X73215200Y-89103637D01*
X73126475Y-88995525D01*
X73018363Y-88906800D01*
X72895020Y-88840872D01*
X72761184Y-88800273D01*
X72656877Y-88790000D01*
X72622000Y-88786565D01*
X72587123Y-88790000D01*
X63456877Y-88790000D01*
X63422000Y-88786565D01*
X63387123Y-88790000D01*
X63282816Y-88800273D01*
X63148980Y-88840872D01*
X63025637Y-88906800D01*
X62960445Y-88960301D01*
X62952537Y-88945506D01*
X62873185Y-88848815D01*
X62776494Y-88769463D01*
X62666180Y-88710498D01*
X62546482Y-88674188D01*
X62422000Y-88661928D01*
X61022000Y-88661928D01*
X60897518Y-88674188D01*
X60777820Y-88710498D01*
X60667506Y-88769463D01*
X60570815Y-88848815D01*
X60491463Y-88945506D01*
X60432498Y-89055820D01*
X60396188Y-89175518D01*
X60383928Y-89300000D01*
X60383928Y-90700000D01*
X60396188Y-90824482D01*
X60432498Y-90944180D01*
X60491463Y-91054494D01*
X60551939Y-91128185D01*
X60538939Y-91147641D01*
X60438304Y-91390595D01*
X60387000Y-91648514D01*
X60387000Y-91911486D01*
X60438304Y-92169405D01*
X60538939Y-92412359D01*
X60685038Y-92631013D01*
X60724025Y-92670000D01*
X60685038Y-92708987D01*
X60538939Y-92927641D01*
X60438304Y-93170595D01*
X60387000Y-93428514D01*
X60387000Y-93691486D01*
X60438304Y-93949405D01*
X60538939Y-94192359D01*
X60685038Y-94411013D01*
X60724025Y-94450000D01*
X60685038Y-94488987D01*
X60538939Y-94707641D01*
X60438304Y-94950595D01*
X60387000Y-95208514D01*
X60387000Y-95471486D01*
X60408355Y-95578843D01*
X58880946Y-97106253D01*
X58863182Y-97047692D01*
X58729932Y-96798399D01*
X58550608Y-96579892D01*
X58332101Y-96400568D01*
X58199142Y-96329500D01*
X58332101Y-96258432D01*
X58550608Y-96079108D01*
X58729932Y-95860601D01*
X58863182Y-95611308D01*
X58945236Y-95340809D01*
X58972943Y-95059500D01*
X58945236Y-94778191D01*
X58863182Y-94507692D01*
X58729932Y-94258399D01*
X58550608Y-94039892D01*
X58332101Y-93860568D01*
X58199142Y-93789500D01*
X58332101Y-93718432D01*
X58550608Y-93539108D01*
X58729932Y-93320601D01*
X58863182Y-93071308D01*
X58945236Y-92800809D01*
X58972943Y-92519500D01*
X58945236Y-92238191D01*
X58863182Y-91967692D01*
X58729932Y-91718399D01*
X58550608Y-91499892D01*
X58332101Y-91320568D01*
X58199142Y-91249500D01*
X58332101Y-91178432D01*
X58550608Y-90999108D01*
X58729932Y-90780601D01*
X58863182Y-90531308D01*
X58945236Y-90260809D01*
X58972943Y-89979500D01*
X58945236Y-89698191D01*
X58863182Y-89427692D01*
X58729932Y-89178399D01*
X58550608Y-88959892D01*
X58332101Y-88780568D01*
X58199142Y-88709500D01*
X58332101Y-88638432D01*
X58550608Y-88459108D01*
X58729932Y-88240601D01*
X58863182Y-87991308D01*
X58945236Y-87720809D01*
X58972943Y-87439500D01*
X58947765Y-87183865D01*
X80149800Y-87183865D01*
X80149800Y-87466535D01*
X80204947Y-87743774D01*
X80313120Y-88004927D01*
X80470163Y-88239959D01*
X80670041Y-88439837D01*
X80905073Y-88596880D01*
X81166226Y-88705053D01*
X81443465Y-88760200D01*
X81726135Y-88760200D01*
X82003374Y-88705053D01*
X82264527Y-88596880D01*
X82499559Y-88439837D01*
X82699437Y-88239959D01*
X82856480Y-88004927D01*
X82964653Y-87743774D01*
X83019800Y-87466535D01*
X83019800Y-87183865D01*
X85149800Y-87183865D01*
X85149800Y-87466535D01*
X85204947Y-87743774D01*
X85313120Y-88004927D01*
X85470163Y-88239959D01*
X85670041Y-88439837D01*
X85905073Y-88596880D01*
X86166226Y-88705053D01*
X86443465Y-88760200D01*
X86726135Y-88760200D01*
X87003374Y-88705053D01*
X87264527Y-88596880D01*
X87499559Y-88439837D01*
X87699437Y-88239959D01*
X87856480Y-88004927D01*
X87964653Y-87743774D01*
X88019800Y-87466535D01*
X88019800Y-87183865D01*
X87964653Y-86906626D01*
X87856480Y-86645473D01*
X87699437Y-86410441D01*
X87499559Y-86210563D01*
X87264527Y-86053520D01*
X87003374Y-85945347D01*
X86726135Y-85890200D01*
X86443465Y-85890200D01*
X86166226Y-85945347D01*
X85905073Y-86053520D01*
X85670041Y-86210563D01*
X85470163Y-86410441D01*
X85313120Y-86645473D01*
X85204947Y-86906626D01*
X85149800Y-87183865D01*
X83019800Y-87183865D01*
X82964653Y-86906626D01*
X82856480Y-86645473D01*
X82699437Y-86410441D01*
X82499559Y-86210563D01*
X82264527Y-86053520D01*
X82003374Y-85945347D01*
X81726135Y-85890200D01*
X81443465Y-85890200D01*
X81166226Y-85945347D01*
X80905073Y-86053520D01*
X80670041Y-86210563D01*
X80470163Y-86410441D01*
X80313120Y-86645473D01*
X80204947Y-86906626D01*
X80149800Y-87183865D01*
X58947765Y-87183865D01*
X58945236Y-87158191D01*
X58863182Y-86887692D01*
X58729932Y-86638399D01*
X58550608Y-86419892D01*
X58332101Y-86240568D01*
X58199142Y-86169500D01*
X58332101Y-86098432D01*
X58550608Y-85919108D01*
X58729932Y-85700601D01*
X58863182Y-85451308D01*
X58945236Y-85180809D01*
X58972943Y-84899500D01*
X58945236Y-84618191D01*
X58931708Y-84573594D01*
X60018081Y-83487221D01*
X65515000Y-83487221D01*
X65515000Y-84051178D01*
X65531785Y-84221599D01*
X65598115Y-84440259D01*
X65705829Y-84641778D01*
X65850788Y-84818412D01*
X66027421Y-84963371D01*
X66228940Y-85071085D01*
X66447600Y-85137415D01*
X66675000Y-85159812D01*
X66757668Y-85151670D01*
X66961211Y-85355213D01*
X66985009Y-85384211D01*
X67100734Y-85479184D01*
X67232763Y-85549756D01*
X67376024Y-85593213D01*
X67487677Y-85604210D01*
X67487685Y-85604210D01*
X67525010Y-85607886D01*
X67562335Y-85604210D01*
X71898898Y-85604210D01*
X71936220Y-85607886D01*
X71973542Y-85604210D01*
X71973553Y-85604210D01*
X72085206Y-85593213D01*
X72228467Y-85549756D01*
X72360496Y-85479184D01*
X72476221Y-85384211D01*
X72500023Y-85355208D01*
X72566218Y-85289014D01*
X72694441Y-85417237D01*
X72929473Y-85574280D01*
X73190626Y-85682453D01*
X73467865Y-85737600D01*
X73750535Y-85737600D01*
X74027774Y-85682453D01*
X74288927Y-85574280D01*
X74523959Y-85417237D01*
X74723837Y-85217359D01*
X74880880Y-84982327D01*
X74989053Y-84721174D01*
X75044200Y-84443935D01*
X75044200Y-84161265D01*
X77174200Y-84161265D01*
X77174200Y-84443935D01*
X77229347Y-84721174D01*
X77337520Y-84982327D01*
X77494563Y-85217359D01*
X77694441Y-85417237D01*
X77929473Y-85574280D01*
X78190626Y-85682453D01*
X78467865Y-85737600D01*
X78750535Y-85737600D01*
X79027774Y-85682453D01*
X79288927Y-85574280D01*
X79523959Y-85417237D01*
X79723837Y-85217359D01*
X79880880Y-84982327D01*
X79989053Y-84721174D01*
X80044200Y-84443935D01*
X80044200Y-84161265D01*
X79989053Y-83884026D01*
X79880880Y-83622873D01*
X79723837Y-83387841D01*
X79523959Y-83187963D01*
X79288927Y-83030920D01*
X79027774Y-82922747D01*
X78750535Y-82867600D01*
X78467865Y-82867600D01*
X78190626Y-82922747D01*
X77929473Y-83030920D01*
X77694441Y-83187963D01*
X77494563Y-83387841D01*
X77337520Y-83622873D01*
X77229347Y-83884026D01*
X77174200Y-84161265D01*
X75044200Y-84161265D01*
X74989053Y-83884026D01*
X74880880Y-83622873D01*
X74723837Y-83387841D01*
X74523959Y-83187963D01*
X74288927Y-83030920D01*
X74027774Y-82922747D01*
X73750535Y-82867600D01*
X73467865Y-82867600D01*
X73190626Y-82922747D01*
X72929473Y-83030920D01*
X72694441Y-83187963D01*
X72494563Y-83387841D01*
X72387681Y-83547802D01*
X72328844Y-83553597D01*
X72185583Y-83597054D01*
X72053554Y-83667626D01*
X71937829Y-83762599D01*
X71914030Y-83791598D01*
X71621419Y-84084210D01*
X70378072Y-84084210D01*
X70378072Y-83019200D01*
X70365812Y-82894718D01*
X70329502Y-82775020D01*
X70270537Y-82664706D01*
X70191185Y-82568015D01*
X70094494Y-82488663D01*
X69984180Y-82429698D01*
X69864482Y-82393388D01*
X69740000Y-82381128D01*
X68690000Y-82381128D01*
X68565518Y-82393388D01*
X68445820Y-82429698D01*
X68381098Y-82464293D01*
X68172400Y-82400985D01*
X67945000Y-82378588D01*
X67717601Y-82400985D01*
X67498941Y-82467315D01*
X67310001Y-82568306D01*
X67121060Y-82467315D01*
X66902400Y-82400985D01*
X66675000Y-82378588D01*
X66447601Y-82400985D01*
X66228941Y-82467315D01*
X66027422Y-82575029D01*
X65850789Y-82719988D01*
X65705830Y-82896621D01*
X65598115Y-83098140D01*
X65531785Y-83316800D01*
X65515000Y-83487221D01*
X60018081Y-83487221D01*
X62539503Y-80965799D01*
X72178000Y-80965799D01*
X72178000Y-81192735D01*
X72233147Y-81469974D01*
X72341320Y-81731127D01*
X72498363Y-81966159D01*
X72698241Y-82166037D01*
X72933273Y-82323080D01*
X73194426Y-82431253D01*
X73471665Y-82486400D01*
X73754335Y-82486400D01*
X74031574Y-82431253D01*
X74292727Y-82323080D01*
X74527759Y-82166037D01*
X74727637Y-81966159D01*
X74884680Y-81731127D01*
X74992853Y-81469974D01*
X75048000Y-81192735D01*
X75048000Y-80910065D01*
X77178000Y-80910065D01*
X77178000Y-81192735D01*
X77233147Y-81469974D01*
X77341320Y-81731127D01*
X77498363Y-81966159D01*
X77698241Y-82166037D01*
X77933273Y-82323080D01*
X78194426Y-82431253D01*
X78471665Y-82486400D01*
X78754335Y-82486400D01*
X79031574Y-82431253D01*
X79292727Y-82323080D01*
X79527759Y-82166037D01*
X79727637Y-81966159D01*
X79884680Y-81731127D01*
X79992853Y-81469974D01*
X80048000Y-81192735D01*
X80048000Y-80910065D01*
X79992853Y-80632826D01*
X79884680Y-80371673D01*
X79727637Y-80136641D01*
X79527759Y-79936763D01*
X79292727Y-79779720D01*
X79031574Y-79671547D01*
X78754335Y-79616400D01*
X78471665Y-79616400D01*
X78194426Y-79671547D01*
X77933273Y-79779720D01*
X77698241Y-79936763D01*
X77498363Y-80136641D01*
X77341320Y-80371673D01*
X77233147Y-80632826D01*
X77178000Y-80910065D01*
X75048000Y-80910065D01*
X74992853Y-80632826D01*
X74884680Y-80371673D01*
X74727637Y-80136641D01*
X74527759Y-79936763D01*
X74293778Y-79780422D01*
X74388999Y-79685201D01*
X77450677Y-79685201D01*
X77487999Y-79688877D01*
X77525321Y-79685201D01*
X77525332Y-79685201D01*
X77636985Y-79674204D01*
X77780246Y-79630747D01*
X77912275Y-79560175D01*
X78028000Y-79465202D01*
X78051803Y-79436198D01*
X78289113Y-79198888D01*
X78471665Y-79235200D01*
X78754335Y-79235200D01*
X79031574Y-79180053D01*
X79292727Y-79071880D01*
X79527759Y-78914837D01*
X79727637Y-78714959D01*
X79884680Y-78479927D01*
X79992853Y-78218774D01*
X80048000Y-77941535D01*
X80048000Y-77658865D01*
X79992853Y-77381626D01*
X79884680Y-77120473D01*
X79727637Y-76885441D01*
X79527759Y-76685563D01*
X79292727Y-76528520D01*
X79031574Y-76420347D01*
X78754335Y-76365200D01*
X78471665Y-76365200D01*
X78194426Y-76420347D01*
X77933273Y-76528520D01*
X77698241Y-76685563D01*
X77498363Y-76885441D01*
X77341320Y-77120473D01*
X77233147Y-77381626D01*
X77178000Y-77658865D01*
X77178000Y-77941535D01*
X77214312Y-78124087D01*
X77173198Y-78165201D01*
X75003509Y-78165201D01*
X75048000Y-77941535D01*
X75048000Y-77658865D01*
X74992853Y-77381626D01*
X74884680Y-77120473D01*
X74727637Y-76885441D01*
X74527759Y-76685563D01*
X74292727Y-76528520D01*
X74031574Y-76420347D01*
X73754335Y-76365200D01*
X73471665Y-76365200D01*
X73194426Y-76420347D01*
X72933273Y-76528520D01*
X72698241Y-76685563D01*
X72498363Y-76885441D01*
X72341320Y-77120473D01*
X72233147Y-77381626D01*
X72178000Y-77658865D01*
X72178000Y-77941535D01*
X72233147Y-78218774D01*
X72341320Y-78479927D01*
X72498363Y-78714959D01*
X72698241Y-78914837D01*
X72884983Y-79039614D01*
X72478798Y-79445799D01*
X69203002Y-79445799D01*
X76006802Y-72642000D01*
X91241905Y-72642000D01*
X91278794Y-72711014D01*
X91464366Y-72937134D01*
X91690486Y-73122706D01*
X91948466Y-73260599D01*
X92228389Y-73345513D01*
X92446550Y-73367000D01*
X92592450Y-73367000D01*
X92810611Y-73345513D01*
X93090534Y-73260599D01*
X93348514Y-73122706D01*
X93574634Y-72937134D01*
X93760206Y-72711014D01*
X93898099Y-72453034D01*
X93983013Y-72173111D01*
X94011685Y-71882000D01*
X93983013Y-71590889D01*
X93898099Y-71310966D01*
X93760206Y-71052986D01*
X93698052Y-70977251D01*
X94205509Y-70469796D01*
X94234502Y-70446002D01*
X94258296Y-70417009D01*
X94258300Y-70417005D01*
X94329474Y-70330278D01*
X94329475Y-70330277D01*
X94400047Y-70198248D01*
X94443504Y-70054987D01*
X94454501Y-69943334D01*
X94454501Y-69943325D01*
X94458177Y-69906002D01*
X94454501Y-69868679D01*
X94454501Y-68014323D01*
X94458177Y-67977000D01*
X94454501Y-67939677D01*
X94454501Y-67939668D01*
X94443504Y-67828015D01*
X94400047Y-67684754D01*
X94329475Y-67552725D01*
X94234502Y-67437000D01*
X94205505Y-67413203D01*
X93960297Y-67167995D01*
X93983013Y-67093111D01*
X94011685Y-66802000D01*
X93983013Y-66510889D01*
X93898099Y-66230966D01*
X93760206Y-65972986D01*
X93574634Y-65746866D01*
X93348514Y-65561294D01*
X93293709Y-65532000D01*
X93348514Y-65502706D01*
X93574634Y-65317134D01*
X93760206Y-65091014D01*
X93898099Y-64833034D01*
X93983013Y-64553111D01*
X94011685Y-64262000D01*
X93983013Y-63970889D01*
X93898099Y-63690966D01*
X93760206Y-63432986D01*
X93574634Y-63206866D01*
X93348514Y-63021294D01*
X93293709Y-62992000D01*
X93348514Y-62962706D01*
X93574634Y-62777134D01*
X93760206Y-62551014D01*
X93898099Y-62293034D01*
X93983013Y-62013111D01*
X94011685Y-61722000D01*
X93983013Y-61430889D01*
X93898099Y-61150966D01*
X93760206Y-60892986D01*
X93574634Y-60666866D01*
X93348514Y-60481294D01*
X93293709Y-60452000D01*
X93348514Y-60422706D01*
X93574634Y-60237134D01*
X93760206Y-60011014D01*
X93898099Y-59753034D01*
X93983013Y-59473111D01*
X94011685Y-59182000D01*
X93983013Y-58890889D01*
X93898099Y-58610966D01*
X93760206Y-58352986D01*
X93574634Y-58126866D01*
X93348514Y-57941294D01*
X93293709Y-57912000D01*
X93348514Y-57882706D01*
X93574634Y-57697134D01*
X93760206Y-57471014D01*
X93898099Y-57213034D01*
X93983013Y-56933111D01*
X94011685Y-56642000D01*
X93983013Y-56350889D01*
X93898099Y-56070966D01*
X93760206Y-55812986D01*
X93574634Y-55586866D01*
X93544813Y-55562393D01*
X93613680Y-55541502D01*
X93723994Y-55482537D01*
X93820685Y-55403185D01*
X93900037Y-55306494D01*
X93959002Y-55196180D01*
X93995312Y-55076482D01*
X94007572Y-54952000D01*
X94007572Y-53252000D01*
X93995312Y-53127518D01*
X93959002Y-53007820D01*
X93900037Y-52897506D01*
X93820685Y-52800815D01*
X93723994Y-52721463D01*
X93613680Y-52662498D01*
X93493982Y-52626188D01*
X93369500Y-52613928D01*
X91669500Y-52613928D01*
X91545018Y-52626188D01*
X91425320Y-52662498D01*
X91315006Y-52721463D01*
X91218315Y-52800815D01*
X91173015Y-52856013D01*
X87306004Y-48989003D01*
X87282201Y-48959999D01*
X87166476Y-48865026D01*
X87034447Y-48794454D01*
X86891186Y-48750997D01*
X86779533Y-48740000D01*
X86779522Y-48740000D01*
X86742200Y-48736324D01*
X86704878Y-48740000D01*
X85454909Y-48740000D01*
X85448918Y-48725537D01*
X85269987Y-48457748D01*
X85042252Y-48230013D01*
X84774463Y-48051082D01*
X84476912Y-47927832D01*
X84161033Y-47865000D01*
X83838967Y-47865000D01*
X83523088Y-47927832D01*
X83225537Y-48051082D01*
X82957748Y-48230013D01*
X82730013Y-48457748D01*
X82551082Y-48725537D01*
X82545091Y-48740000D01*
X78954909Y-48740000D01*
X78948918Y-48725537D01*
X78769987Y-48457748D01*
X78542252Y-48230013D01*
X78274463Y-48051082D01*
X77976912Y-47927832D01*
X77661033Y-47865000D01*
X77338967Y-47865000D01*
X77023088Y-47927832D01*
X76725537Y-48051082D01*
X76457748Y-48230013D01*
X76230013Y-48457748D01*
X76051082Y-48725537D01*
X75927832Y-49023088D01*
X75865000Y-49338967D01*
X75865000Y-49661033D01*
X75927832Y-49976912D01*
X76051082Y-50274463D01*
X76230013Y-50542252D01*
X76457748Y-50769987D01*
X76725537Y-50948918D01*
X77023088Y-51072168D01*
X77338967Y-51135000D01*
X77661033Y-51135000D01*
X77976912Y-51072168D01*
X78274463Y-50948918D01*
X78542252Y-50769987D01*
X78769987Y-50542252D01*
X78948918Y-50274463D01*
X78954909Y-50260000D01*
X82545091Y-50260000D01*
X82551082Y-50274463D01*
X82730013Y-50542252D01*
X82957748Y-50769987D01*
X83225537Y-50948918D01*
X83523088Y-51072168D01*
X83838967Y-51135000D01*
X84161033Y-51135000D01*
X84476912Y-51072168D01*
X84774463Y-50948918D01*
X85042252Y-50769987D01*
X85269987Y-50542252D01*
X85448918Y-50274463D01*
X85454909Y-50260000D01*
X86427399Y-50260000D01*
X90780401Y-54613003D01*
X90804199Y-54642001D01*
X90919924Y-54736974D01*
X91031428Y-54796575D01*
X91031428Y-54952000D01*
X91043688Y-55076482D01*
X91079998Y-55196180D01*
X91138963Y-55306494D01*
X91218315Y-55403185D01*
X91315006Y-55482537D01*
X91425320Y-55541502D01*
X91494187Y-55562393D01*
X91464366Y-55586866D01*
X91278794Y-55812986D01*
X91241905Y-55882000D01*
X65956802Y-55882000D01*
X60066177Y-49991376D01*
X60072168Y-49976912D01*
X60135000Y-49661033D01*
X60135000Y-49338967D01*
X60072168Y-49023088D01*
X59948918Y-48725537D01*
X59769987Y-48457748D01*
X59542252Y-48230013D01*
X59274463Y-48051082D01*
X58976912Y-47927832D01*
X58661033Y-47865000D01*
X58338967Y-47865000D01*
X58023088Y-47927832D01*
X57725537Y-48051082D01*
X57457748Y-48230013D01*
X57230013Y-48457748D01*
X57051082Y-48725537D01*
X57045091Y-48740000D01*
X53454909Y-48740000D01*
X53448918Y-48725537D01*
X53269987Y-48457748D01*
X53042252Y-48230013D01*
X52774463Y-48051082D01*
X52476912Y-47927832D01*
X52161033Y-47865000D01*
X51838967Y-47865000D01*
X51523088Y-47927832D01*
X51225537Y-48051082D01*
X50957748Y-48230013D01*
X50730013Y-48457748D01*
X50551082Y-48725537D01*
X50427832Y-49023088D01*
X50365000Y-49338967D01*
X50365000Y-49661033D01*
X50427832Y-49976912D01*
X50551082Y-50274463D01*
X50730013Y-50542252D01*
X50957748Y-50769987D01*
X51225537Y-50948918D01*
X51523088Y-51072168D01*
X51838967Y-51135000D01*
X52161033Y-51135000D01*
X52476912Y-51072168D01*
X52774463Y-50948918D01*
X53042252Y-50769987D01*
X53269987Y-50542252D01*
X53448918Y-50274463D01*
X53454909Y-50260000D01*
X57045091Y-50260000D01*
X57051082Y-50274463D01*
X57230013Y-50542252D01*
X57457748Y-50769987D01*
X57725537Y-50948918D01*
X58023088Y-51072168D01*
X58338967Y-51135000D01*
X58661033Y-51135000D01*
X58976912Y-51072168D01*
X58991376Y-51066177D01*
X65078201Y-57153003D01*
X65101999Y-57182001D01*
X65217724Y-57276974D01*
X65349753Y-57347546D01*
X65493014Y-57391003D01*
X65604667Y-57402000D01*
X65604676Y-57402000D01*
X65641999Y-57405676D01*
X65679322Y-57402000D01*
X91241905Y-57402000D01*
X91278794Y-57471014D01*
X91464366Y-57697134D01*
X91690486Y-57882706D01*
X91745291Y-57912000D01*
X91690486Y-57941294D01*
X91464366Y-58126866D01*
X91278794Y-58352986D01*
X91140901Y-58610966D01*
X91055987Y-58890889D01*
X91027315Y-59182000D01*
X91055987Y-59473111D01*
X91078703Y-59547995D01*
X90114709Y-60511990D01*
X67668923Y-60511990D01*
X67631600Y-60508314D01*
X67594277Y-60511990D01*
X67594267Y-60511990D01*
X67482614Y-60522987D01*
X67339353Y-60566444D01*
X67207324Y-60637016D01*
X67091599Y-60731989D01*
X67067801Y-60760987D01*
X43573690Y-84255099D01*
X43489932Y-84098399D01*
X43310608Y-83879892D01*
X43197518Y-83787081D01*
X43215482Y-83785312D01*
X43335180Y-83749002D01*
X43445494Y-83690037D01*
X43542185Y-83610685D01*
X43621537Y-83513994D01*
X43680502Y-83403680D01*
X43716812Y-83283982D01*
X43729072Y-83159500D01*
X43726000Y-82645250D01*
X43567250Y-82486500D01*
X42418000Y-82486500D01*
X42418000Y-82506500D01*
X42164000Y-82506500D01*
X42164000Y-82486500D01*
X41014750Y-82486500D01*
X40856000Y-82645250D01*
X40852928Y-83159500D01*
X40865188Y-83283982D01*
X40901498Y-83403680D01*
X40960463Y-83513994D01*
X41039815Y-83610685D01*
X41136506Y-83690037D01*
X41246820Y-83749002D01*
X41366518Y-83785312D01*
X41384482Y-83787081D01*
X41271392Y-83879892D01*
X41092068Y-84098399D01*
X40958818Y-84347692D01*
X40876764Y-84618191D01*
X40849057Y-84899500D01*
X40876764Y-85180809D01*
X40958818Y-85451308D01*
X41092068Y-85700601D01*
X41271392Y-85919108D01*
X41489899Y-86098432D01*
X41622858Y-86169500D01*
X41489899Y-86240568D01*
X41271392Y-86419892D01*
X41092068Y-86638399D01*
X40958818Y-86887692D01*
X40876764Y-87158191D01*
X40849057Y-87439500D01*
X40876764Y-87720809D01*
X40958818Y-87991308D01*
X41092068Y-88240601D01*
X41271392Y-88459108D01*
X41489899Y-88638432D01*
X41622858Y-88709500D01*
X41489899Y-88780568D01*
X41271392Y-88959892D01*
X41092068Y-89178399D01*
X40958818Y-89427692D01*
X40876764Y-89698191D01*
X40849057Y-89979500D01*
X40876764Y-90260809D01*
X40958818Y-90531308D01*
X41092068Y-90780601D01*
X41271392Y-90999108D01*
X41489899Y-91178432D01*
X41622858Y-91249500D01*
X41489899Y-91320568D01*
X41271392Y-91499892D01*
X41092068Y-91718399D01*
X40958818Y-91967692D01*
X40876764Y-92238191D01*
X40849057Y-92519500D01*
X40876764Y-92800809D01*
X40958818Y-93071308D01*
X41092068Y-93320601D01*
X41271392Y-93539108D01*
X41489899Y-93718432D01*
X41622858Y-93789500D01*
X41489899Y-93860568D01*
X41271392Y-94039892D01*
X41092068Y-94258399D01*
X40958818Y-94507692D01*
X40876764Y-94778191D01*
X40849057Y-95059500D01*
X40876764Y-95340809D01*
X40958818Y-95611308D01*
X41092068Y-95860601D01*
X41181330Y-95969367D01*
X40660000Y-96490697D01*
X40660000Y-81559500D01*
X40852928Y-81559500D01*
X40856000Y-82073750D01*
X41014750Y-82232500D01*
X42164000Y-82232500D01*
X42164000Y-81083250D01*
X42418000Y-81083250D01*
X42418000Y-82232500D01*
X43567250Y-82232500D01*
X43726000Y-82073750D01*
X43729072Y-81559500D01*
X43716812Y-81435018D01*
X43680502Y-81315320D01*
X43621537Y-81205006D01*
X43542185Y-81108315D01*
X43445494Y-81028963D01*
X43335180Y-80969998D01*
X43215482Y-80933688D01*
X43091000Y-80921428D01*
X42576750Y-80924500D01*
X42418000Y-81083250D01*
X42164000Y-81083250D01*
X42005250Y-80924500D01*
X41491000Y-80921428D01*
X41366518Y-80933688D01*
X41246820Y-80969998D01*
X41136506Y-81028963D01*
X41039815Y-81108315D01*
X40960463Y-81205006D01*
X40901498Y-81315320D01*
X40865188Y-81435018D01*
X40852928Y-81559500D01*
X40660000Y-81559500D01*
X40660000Y-44838967D01*
X50365000Y-44838967D01*
X50365000Y-45161033D01*
X50427832Y-45476912D01*
X50551082Y-45774463D01*
X50730013Y-46042252D01*
X50957748Y-46269987D01*
X51225537Y-46448918D01*
X51523088Y-46572168D01*
X51838967Y-46635000D01*
X52161033Y-46635000D01*
X52476912Y-46572168D01*
X52774463Y-46448918D01*
X53042252Y-46269987D01*
X53269987Y-46042252D01*
X53448918Y-45774463D01*
X53454909Y-45760000D01*
X57045091Y-45760000D01*
X57051082Y-45774463D01*
X57230013Y-46042252D01*
X57457748Y-46269987D01*
X57725537Y-46448918D01*
X58023088Y-46572168D01*
X58338967Y-46635000D01*
X58661033Y-46635000D01*
X58976912Y-46572168D01*
X59274463Y-46448918D01*
X59542252Y-46269987D01*
X59769987Y-46042252D01*
X59948918Y-45774463D01*
X59954909Y-45760000D01*
X66040760Y-45760000D01*
X65947047Y-45986244D01*
X65865000Y-46398721D01*
X65865000Y-46819279D01*
X65947047Y-47231756D01*
X66107988Y-47620302D01*
X66341637Y-47969983D01*
X66639017Y-48267363D01*
X66988698Y-48501012D01*
X67377244Y-48661953D01*
X67789721Y-48744000D01*
X68210279Y-48744000D01*
X68622756Y-48661953D01*
X69011302Y-48501012D01*
X69360983Y-48267363D01*
X69658363Y-47969983D01*
X69892012Y-47620302D01*
X70052953Y-47231756D01*
X70135000Y-46819279D01*
X70135000Y-46398721D01*
X70052953Y-45986244D01*
X69959240Y-45760000D01*
X76045091Y-45760000D01*
X76051082Y-45774463D01*
X76230013Y-46042252D01*
X76457748Y-46269987D01*
X76725537Y-46448918D01*
X77023088Y-46572168D01*
X77338967Y-46635000D01*
X77661033Y-46635000D01*
X77976912Y-46572168D01*
X78274463Y-46448918D01*
X78542252Y-46269987D01*
X78769987Y-46042252D01*
X78948918Y-45774463D01*
X78954909Y-45760000D01*
X82545091Y-45760000D01*
X82551082Y-45774463D01*
X82730013Y-46042252D01*
X82957748Y-46269987D01*
X83225537Y-46448918D01*
X83523088Y-46572168D01*
X83838967Y-46635000D01*
X84161033Y-46635000D01*
X84476912Y-46572168D01*
X84774463Y-46448918D01*
X85042252Y-46269987D01*
X85269987Y-46042252D01*
X85448918Y-45774463D01*
X85572168Y-45476912D01*
X85635000Y-45161033D01*
X85635000Y-44838967D01*
X85572168Y-44523088D01*
X85448918Y-44225537D01*
X85269987Y-43957748D01*
X85042252Y-43730013D01*
X84774463Y-43551082D01*
X84476912Y-43427832D01*
X84161033Y-43365000D01*
X83838967Y-43365000D01*
X83523088Y-43427832D01*
X83225537Y-43551082D01*
X82957748Y-43730013D01*
X82730013Y-43957748D01*
X82551082Y-44225537D01*
X82545091Y-44240000D01*
X78954909Y-44240000D01*
X78948918Y-44225537D01*
X78769987Y-43957748D01*
X78542252Y-43730013D01*
X78274463Y-43551082D01*
X77976912Y-43427832D01*
X77661033Y-43365000D01*
X77338967Y-43365000D01*
X77023088Y-43427832D01*
X76725537Y-43551082D01*
X76457748Y-43730013D01*
X76230013Y-43957748D01*
X76051082Y-44225537D01*
X76045091Y-44240000D01*
X59954909Y-44240000D01*
X59948918Y-44225537D01*
X59769987Y-43957748D01*
X59542252Y-43730013D01*
X59274463Y-43551082D01*
X58976912Y-43427832D01*
X58661033Y-43365000D01*
X58338967Y-43365000D01*
X58023088Y-43427832D01*
X57725537Y-43551082D01*
X57457748Y-43730013D01*
X57230013Y-43957748D01*
X57051082Y-44225537D01*
X57045091Y-44240000D01*
X53454909Y-44240000D01*
X53448918Y-44225537D01*
X53269987Y-43957748D01*
X53042252Y-43730013D01*
X52774463Y-43551082D01*
X52476912Y-43427832D01*
X52161033Y-43365000D01*
X51838967Y-43365000D01*
X51523088Y-43427832D01*
X51225537Y-43551082D01*
X50957748Y-43730013D01*
X50730013Y-43957748D01*
X50551082Y-44225537D01*
X50427832Y-44523088D01*
X50365000Y-44838967D01*
X40660000Y-44838967D01*
X40660000Y-42773380D01*
X42773381Y-40660000D01*
X93226620Y-40660000D01*
X95340000Y-42773381D01*
X95340000Y-42773381D01*
G37*
X95340000Y-42773381D02*
X95340001Y-121226618D01*
X93226620Y-123340000D01*
X42773381Y-123340000D01*
X40660000Y-121226620D01*
X40660000Y-99583301D01*
X40890292Y-99813594D01*
X40876764Y-99858191D01*
X40849057Y-100139500D01*
X40876764Y-100420809D01*
X40958818Y-100691308D01*
X41092068Y-100940601D01*
X41271392Y-101159108D01*
X41489899Y-101338432D01*
X41622858Y-101409500D01*
X41489899Y-101480568D01*
X41271392Y-101659892D01*
X41092068Y-101878399D01*
X40958818Y-102127692D01*
X40876764Y-102398191D01*
X40849057Y-102679500D01*
X40876764Y-102960809D01*
X40958818Y-103231308D01*
X41092068Y-103480601D01*
X41271392Y-103699108D01*
X41489899Y-103878432D01*
X41622858Y-103949500D01*
X41489899Y-104020568D01*
X41271392Y-104199892D01*
X41092068Y-104418399D01*
X40958818Y-104667692D01*
X40876764Y-104938191D01*
X40849057Y-105219500D01*
X40876764Y-105500809D01*
X40958818Y-105771308D01*
X41092068Y-106020601D01*
X41271392Y-106239108D01*
X41489899Y-106418432D01*
X41622858Y-106489500D01*
X41489899Y-106560568D01*
X41271392Y-106739892D01*
X41092068Y-106958399D01*
X40958818Y-107207692D01*
X40876764Y-107478191D01*
X40849057Y-107759500D01*
X40876764Y-108040809D01*
X40958818Y-108311308D01*
X41092068Y-108560601D01*
X41271392Y-108779108D01*
X41489899Y-108958432D01*
X41622858Y-109029500D01*
X41489899Y-109100568D01*
X41271392Y-109279892D01*
X41092068Y-109498399D01*
X40958818Y-109747692D01*
X40876764Y-110018191D01*
X40849057Y-110299500D01*
X40876764Y-110580809D01*
X40958818Y-110851308D01*
X41092068Y-111100601D01*
X41271392Y-111319108D01*
X41489899Y-111498432D01*
X41622858Y-111569500D01*
X41489899Y-111640568D01*
X41271392Y-111819892D01*
X41092068Y-112038399D01*
X40958818Y-112287692D01*
X40876764Y-112558191D01*
X40849057Y-112839500D01*
X40876764Y-113120809D01*
X40958818Y-113391308D01*
X41092068Y-113640601D01*
X41271392Y-113859108D01*
X41489899Y-114038432D01*
X41622858Y-114109500D01*
X41489899Y-114180568D01*
X41271392Y-114359892D01*
X41092068Y-114578399D01*
X40958818Y-114827692D01*
X40876764Y-115098191D01*
X40849057Y-115379500D01*
X40876764Y-115660809D01*
X40958818Y-115931308D01*
X41092068Y-116180601D01*
X41271392Y-116399108D01*
X41489899Y-116578432D01*
X41622858Y-116649500D01*
X41489899Y-116720568D01*
X41271392Y-116899892D01*
X41092068Y-117118399D01*
X40958818Y-117367692D01*
X40876764Y-117638191D01*
X40849057Y-117919500D01*
X40876764Y-118200809D01*
X40958818Y-118471308D01*
X41092068Y-118720601D01*
X41271392Y-118939108D01*
X41489899Y-119118432D01*
X41739192Y-119251682D01*
X42009691Y-119333736D01*
X42220508Y-119354500D01*
X42361492Y-119354500D01*
X42572309Y-119333736D01*
X42842808Y-119251682D01*
X43092101Y-119118432D01*
X43310608Y-118939108D01*
X43489932Y-118720601D01*
X43623182Y-118471308D01*
X43705236Y-118200809D01*
X43732943Y-117919500D01*
X43705236Y-117638191D01*
X43691708Y-117593594D01*
X43927004Y-117358298D01*
X43956002Y-117334500D01*
X44050975Y-117218775D01*
X44121547Y-117086746D01*
X44165004Y-116943485D01*
X44176001Y-116831832D01*
X44176001Y-116831824D01*
X44179677Y-116794499D01*
X44176001Y-116757174D01*
X44176001Y-110614600D01*
X53073723Y-101716879D01*
X53101475Y-101856397D01*
X53179496Y-102044755D01*
X53292764Y-102214273D01*
X53436927Y-102358436D01*
X53606445Y-102471704D01*
X53794803Y-102549725D01*
X53994762Y-102589499D01*
X54198640Y-102589499D01*
X54398599Y-102549725D01*
X54586957Y-102471704D01*
X54756475Y-102358436D01*
X54800412Y-102314499D01*
X56142151Y-102314499D01*
X56116764Y-102398191D01*
X56089057Y-102679500D01*
X56116764Y-102960809D01*
X56198818Y-103231308D01*
X56332068Y-103480601D01*
X56511392Y-103699108D01*
X56729899Y-103878432D01*
X56862858Y-103949500D01*
X56729899Y-104020568D01*
X56511392Y-104199892D01*
X56332068Y-104418399D01*
X56198818Y-104667692D01*
X56116764Y-104938191D01*
X56089057Y-105219500D01*
X56116764Y-105500809D01*
X56198818Y-105771308D01*
X56332068Y-106020601D01*
X56511392Y-106239108D01*
X56729899Y-106418432D01*
X56862858Y-106489500D01*
X56729899Y-106560568D01*
X56511392Y-106739892D01*
X56332068Y-106958399D01*
X56198818Y-107207692D01*
X56116764Y-107478191D01*
X56089057Y-107759500D01*
X56116764Y-108040809D01*
X56198818Y-108311308D01*
X56332068Y-108560601D01*
X56511392Y-108779108D01*
X56729899Y-108958432D01*
X56862858Y-109029500D01*
X56729899Y-109100568D01*
X56511392Y-109279892D01*
X56332068Y-109498399D01*
X56198818Y-109747692D01*
X56116764Y-110018191D01*
X56089057Y-110299500D01*
X56116764Y-110580809D01*
X56198818Y-110851308D01*
X56332068Y-111100601D01*
X56511392Y-111319108D01*
X56729899Y-111498432D01*
X56862858Y-111569500D01*
X56729899Y-111640568D01*
X56511392Y-111819892D01*
X56332068Y-112038399D01*
X56198818Y-112287692D01*
X56116764Y-112558191D01*
X56089057Y-112839500D01*
X56116764Y-113120809D01*
X56198818Y-113391308D01*
X56332068Y-113640601D01*
X56511392Y-113859108D01*
X56729899Y-114038432D01*
X56862858Y-114109500D01*
X56729899Y-114180568D01*
X56511392Y-114359892D01*
X56332068Y-114578399D01*
X56198818Y-114827692D01*
X56116764Y-115098191D01*
X56089057Y-115379500D01*
X56116764Y-115660809D01*
X56198818Y-115931308D01*
X56332068Y-116180601D01*
X56511392Y-116399108D01*
X56729899Y-116578432D01*
X56862858Y-116649500D01*
X56729899Y-116720568D01*
X56511392Y-116899892D01*
X56332068Y-117118399D01*
X56198818Y-117367692D01*
X56116764Y-117638191D01*
X56089057Y-117919500D01*
X56116764Y-118200809D01*
X56198818Y-118471308D01*
X56332068Y-118720601D01*
X56511392Y-118939108D01*
X56729899Y-119118432D01*
X56979192Y-119251682D01*
X57249691Y-119333736D01*
X57460508Y-119354500D01*
X57601492Y-119354500D01*
X57812309Y-119333736D01*
X57856906Y-119320208D01*
X59550381Y-121013683D01*
X59574179Y-121042681D01*
X59689904Y-121137654D01*
X59821933Y-121208226D01*
X59965194Y-121251683D01*
X60076847Y-121262680D01*
X60076856Y-121262680D01*
X60114179Y-121266356D01*
X60151502Y-121262680D01*
X78787568Y-121262680D01*
X78824890Y-121266356D01*
X78862212Y-121262680D01*
X78862223Y-121262680D01*
X78973876Y-121251683D01*
X79117137Y-121208226D01*
X79249166Y-121137654D01*
X79364891Y-121042681D01*
X79388694Y-121013677D01*
X80597203Y-119805169D01*
X80626201Y-119781371D01*
X80721174Y-119665646D01*
X80791746Y-119533617D01*
X80835203Y-119390356D01*
X80840773Y-119333802D01*
X80887301Y-119308932D01*
X81105808Y-119129608D01*
X81285132Y-118911101D01*
X81418382Y-118661808D01*
X81500436Y-118391309D01*
X81528143Y-118110000D01*
X81515474Y-117981365D01*
X81775400Y-117981365D01*
X81775400Y-118264035D01*
X81830547Y-118541274D01*
X81938720Y-118802427D01*
X82095763Y-119037459D01*
X82295641Y-119237337D01*
X82530673Y-119394380D01*
X82791826Y-119502553D01*
X83069065Y-119557700D01*
X83351735Y-119557700D01*
X83628974Y-119502553D01*
X83890127Y-119394380D01*
X84125159Y-119237337D01*
X84325037Y-119037459D01*
X84482080Y-118802427D01*
X84590253Y-118541274D01*
X84645400Y-118264035D01*
X84645400Y-117981365D01*
X84590253Y-117704126D01*
X84482080Y-117442973D01*
X84325037Y-117207941D01*
X84125159Y-117008063D01*
X83890127Y-116851020D01*
X83628974Y-116742847D01*
X83351735Y-116687700D01*
X83069065Y-116687700D01*
X82791826Y-116742847D01*
X82530673Y-116851020D01*
X82295641Y-117008063D01*
X82095763Y-117207941D01*
X81938720Y-117442973D01*
X81830547Y-117704126D01*
X81775400Y-117981365D01*
X81515474Y-117981365D01*
X81500436Y-117828691D01*
X81418382Y-117558192D01*
X81285132Y-117308899D01*
X81105808Y-117090392D01*
X80887301Y-116911068D01*
X80638008Y-116777818D01*
X80367509Y-116695764D01*
X80156692Y-116675000D01*
X80015708Y-116675000D01*
X79804891Y-116695764D01*
X79534392Y-116777818D01*
X79285099Y-116911068D01*
X79066592Y-117090392D01*
X78887268Y-117308899D01*
X78754018Y-117558192D01*
X78671964Y-117828691D01*
X78644257Y-118110000D01*
X78671964Y-118391309D01*
X78754018Y-118661808D01*
X78887268Y-118911101D01*
X79066592Y-119129608D01*
X79097662Y-119155106D01*
X78510089Y-119742680D01*
X69615190Y-119742680D01*
X69666818Y-119721295D01*
X70262177Y-119323489D01*
X70768489Y-118817177D01*
X71166295Y-118221818D01*
X71212611Y-118110000D01*
X72497457Y-118110000D01*
X72525164Y-118391309D01*
X72607218Y-118661808D01*
X72740468Y-118911101D01*
X72919792Y-119129608D01*
X73138299Y-119308932D01*
X73387592Y-119442182D01*
X73658091Y-119524236D01*
X73868908Y-119545000D01*
X74009892Y-119545000D01*
X74220709Y-119524236D01*
X74491208Y-119442182D01*
X74740501Y-119308932D01*
X74959008Y-119129608D01*
X75138332Y-118911101D01*
X75271582Y-118661808D01*
X75353636Y-118391309D01*
X75381343Y-118110000D01*
X75570857Y-118110000D01*
X75598564Y-118391309D01*
X75680618Y-118661808D01*
X75813868Y-118911101D01*
X75993192Y-119129608D01*
X76211699Y-119308932D01*
X76460992Y-119442182D01*
X76731491Y-119524236D01*
X76942308Y-119545000D01*
X77083292Y-119545000D01*
X77294109Y-119524236D01*
X77564608Y-119442182D01*
X77813901Y-119308932D01*
X78032408Y-119129608D01*
X78211732Y-118911101D01*
X78344982Y-118661808D01*
X78427036Y-118391309D01*
X78454743Y-118110000D01*
X78427036Y-117828691D01*
X78344982Y-117558192D01*
X78211732Y-117308899D01*
X78032408Y-117090392D01*
X77813901Y-116911068D01*
X77564608Y-116777818D01*
X77294109Y-116695764D01*
X77083292Y-116675000D01*
X76942308Y-116675000D01*
X76731491Y-116695764D01*
X76460992Y-116777818D01*
X76211699Y-116911068D01*
X75993192Y-117090392D01*
X75813868Y-117308899D01*
X75680618Y-117558192D01*
X75598564Y-117828691D01*
X75570857Y-118110000D01*
X75381343Y-118110000D01*
X75353636Y-117828691D01*
X75271582Y-117558192D01*
X75138332Y-117308899D01*
X74959008Y-117090392D01*
X74740501Y-116911068D01*
X74491208Y-116777818D01*
X74220709Y-116695764D01*
X74009892Y-116675000D01*
X73868908Y-116675000D01*
X73658091Y-116695764D01*
X73387592Y-116777818D01*
X73138299Y-116911068D01*
X72919792Y-117090392D01*
X72740468Y-117308899D01*
X72607218Y-117558192D01*
X72525164Y-117828691D01*
X72497457Y-118110000D01*
X71212611Y-118110000D01*
X71440309Y-117560290D01*
X71580000Y-116858016D01*
X71580000Y-116141984D01*
X71440309Y-115439710D01*
X71166295Y-114778182D01*
X70768489Y-114182823D01*
X70262177Y-113676511D01*
X69666818Y-113278705D01*
X69005290Y-113004691D01*
X68303016Y-112865000D01*
X67586984Y-112865000D01*
X66884710Y-113004691D01*
X66223182Y-113278705D01*
X65627823Y-113676511D01*
X65121511Y-114182823D01*
X64723705Y-114778182D01*
X64449691Y-115439710D01*
X64310000Y-116141984D01*
X64310000Y-116858016D01*
X64449691Y-117560290D01*
X64723705Y-118221818D01*
X65121511Y-118817177D01*
X65627823Y-119323489D01*
X66223182Y-119721295D01*
X66274810Y-119742680D01*
X60428982Y-119742680D01*
X58931708Y-118245406D01*
X58945236Y-118200809D01*
X58972943Y-117919500D01*
X58945236Y-117638191D01*
X58863182Y-117367692D01*
X58729932Y-117118399D01*
X58550608Y-116899892D01*
X58332101Y-116720568D01*
X58199142Y-116649500D01*
X58332101Y-116578432D01*
X58550608Y-116399108D01*
X58729932Y-116180601D01*
X58751901Y-116139500D01*
X61365178Y-116139500D01*
X61402500Y-116143176D01*
X61439822Y-116139500D01*
X61439833Y-116139500D01*
X61551486Y-116128503D01*
X61694747Y-116085046D01*
X61826776Y-116014474D01*
X61942501Y-115919501D01*
X61966304Y-115890497D01*
X70048136Y-107808665D01*
X72504400Y-107808665D01*
X72504400Y-108091335D01*
X72559547Y-108368574D01*
X72667720Y-108629727D01*
X72824763Y-108864759D01*
X73024641Y-109064637D01*
X73259673Y-109221680D01*
X73520826Y-109329853D01*
X73798065Y-109385000D01*
X74080735Y-109385000D01*
X74357974Y-109329853D01*
X74619127Y-109221680D01*
X74854159Y-109064637D01*
X75054037Y-108864759D01*
X75211080Y-108629727D01*
X75319253Y-108368574D01*
X75374400Y-108091335D01*
X75374400Y-107808665D01*
X75577800Y-107808665D01*
X75577800Y-108091335D01*
X75632947Y-108368574D01*
X75741120Y-108629727D01*
X75898163Y-108864759D01*
X76098041Y-109064637D01*
X76333073Y-109221680D01*
X76594226Y-109329853D01*
X76871465Y-109385000D01*
X77154135Y-109385000D01*
X77431374Y-109329853D01*
X77692527Y-109221680D01*
X77927559Y-109064637D01*
X78127437Y-108864759D01*
X78284480Y-108629727D01*
X78392653Y-108368574D01*
X78447800Y-108091335D01*
X78447800Y-107808665D01*
X78651200Y-107808665D01*
X78651200Y-108091335D01*
X78706347Y-108368574D01*
X78814520Y-108629727D01*
X78971563Y-108864759D01*
X79171441Y-109064637D01*
X79406473Y-109221680D01*
X79667626Y-109329853D01*
X79944865Y-109385000D01*
X80227535Y-109385000D01*
X80504774Y-109329853D01*
X80765927Y-109221680D01*
X81000959Y-109064637D01*
X81200837Y-108864759D01*
X81357880Y-108629727D01*
X81466053Y-108368574D01*
X81521200Y-108091335D01*
X81521200Y-107962700D01*
X81768457Y-107962700D01*
X81796164Y-108244009D01*
X81878218Y-108514508D01*
X82011468Y-108763801D01*
X82190792Y-108982308D01*
X82409299Y-109161632D01*
X82658592Y-109294882D01*
X82929091Y-109376936D01*
X83139908Y-109397700D01*
X83280892Y-109397700D01*
X83491709Y-109376936D01*
X83762208Y-109294882D01*
X84011501Y-109161632D01*
X84230008Y-108982308D01*
X84409332Y-108763801D01*
X84542582Y-108514508D01*
X84624636Y-108244009D01*
X84652343Y-107962700D01*
X84968857Y-107962700D01*
X84996564Y-108244009D01*
X85078618Y-108514508D01*
X85211868Y-108763801D01*
X85391192Y-108982308D01*
X85609699Y-109161632D01*
X85858992Y-109294882D01*
X86129491Y-109376936D01*
X86340308Y-109397700D01*
X86481292Y-109397700D01*
X86692109Y-109376936D01*
X86775801Y-109351548D01*
X86775802Y-116682897D01*
X86734687Y-116724012D01*
X86552135Y-116687700D01*
X86269465Y-116687700D01*
X85992226Y-116742847D01*
X85731073Y-116851020D01*
X85496041Y-117008063D01*
X85296163Y-117207941D01*
X85139120Y-117442973D01*
X85030947Y-117704126D01*
X84975800Y-117981365D01*
X84975800Y-118264035D01*
X85030947Y-118541274D01*
X85139120Y-118802427D01*
X85296163Y-119037459D01*
X85496041Y-119237337D01*
X85731073Y-119394380D01*
X85992226Y-119502553D01*
X86269465Y-119557700D01*
X86552135Y-119557700D01*
X86829374Y-119502553D01*
X87090527Y-119394380D01*
X87325559Y-119237337D01*
X87525437Y-119037459D01*
X87682480Y-118802427D01*
X87790653Y-118541274D01*
X87845800Y-118264035D01*
X87845800Y-117981365D01*
X88074600Y-117981365D01*
X88074600Y-118264035D01*
X88129747Y-118541274D01*
X88237920Y-118802427D01*
X88394963Y-119037459D01*
X88594841Y-119237337D01*
X88829873Y-119394380D01*
X89091026Y-119502553D01*
X89368265Y-119557700D01*
X89650935Y-119557700D01*
X89928174Y-119502553D01*
X90189327Y-119394380D01*
X90424359Y-119237337D01*
X90624237Y-119037459D01*
X90781280Y-118802427D01*
X90889453Y-118541274D01*
X90944600Y-118264035D01*
X90944600Y-117981365D01*
X90889453Y-117704126D01*
X90781280Y-117442973D01*
X90624237Y-117207941D01*
X90424359Y-117008063D01*
X90189327Y-116851020D01*
X89928174Y-116742847D01*
X89650935Y-116687700D01*
X89368265Y-116687700D01*
X89091026Y-116742847D01*
X88829873Y-116851020D01*
X88594841Y-117008063D01*
X88394963Y-117207941D01*
X88237920Y-117442973D01*
X88129747Y-117704126D01*
X88074600Y-117981365D01*
X87845800Y-117981365D01*
X87809488Y-117798813D01*
X88046798Y-117561503D01*
X88075802Y-117537700D01*
X88170775Y-117421975D01*
X88241347Y-117289946D01*
X88284804Y-117146685D01*
X88295801Y-117035032D01*
X88295801Y-117035023D01*
X88299477Y-116997700D01*
X88295801Y-116960377D01*
X88295801Y-108735987D01*
X88310668Y-108763801D01*
X88489992Y-108982308D01*
X88708499Y-109161632D01*
X88957792Y-109294882D01*
X89228291Y-109376936D01*
X89439108Y-109397700D01*
X89580092Y-109397700D01*
X89790909Y-109376936D01*
X90061408Y-109294882D01*
X90310701Y-109161632D01*
X90529208Y-108982308D01*
X90708532Y-108763801D01*
X90841782Y-108514508D01*
X90923836Y-108244009D01*
X90951543Y-107962700D01*
X90923836Y-107681391D01*
X90841782Y-107410892D01*
X90708532Y-107161599D01*
X90529208Y-106943092D01*
X90310701Y-106763768D01*
X90061408Y-106630518D01*
X89790909Y-106548464D01*
X89580092Y-106527700D01*
X89439108Y-106527700D01*
X89228291Y-106548464D01*
X88957792Y-106630518D01*
X88708499Y-106763768D01*
X88489992Y-106943092D01*
X88310668Y-107161599D01*
X88295801Y-107189413D01*
X88295801Y-103680523D01*
X88299477Y-103643200D01*
X88295801Y-103605877D01*
X88295801Y-103605868D01*
X88284804Y-103494215D01*
X88241347Y-103350954D01*
X88170775Y-103218925D01*
X88130101Y-103169363D01*
X88099600Y-103132197D01*
X88099596Y-103132193D01*
X88075802Y-103103200D01*
X88046810Y-103079407D01*
X88008888Y-103041485D01*
X88045200Y-102858935D01*
X88045200Y-102576265D01*
X87990053Y-102299026D01*
X87881880Y-102037873D01*
X87724837Y-101802841D01*
X87524959Y-101602963D01*
X87289927Y-101445920D01*
X87028774Y-101337747D01*
X86751535Y-101282600D01*
X86468865Y-101282600D01*
X86191626Y-101337747D01*
X85930473Y-101445920D01*
X85695441Y-101602963D01*
X85495563Y-101802841D01*
X85338520Y-102037873D01*
X85230347Y-102299026D01*
X85175200Y-102576265D01*
X85175200Y-102858935D01*
X85230347Y-103136174D01*
X85338520Y-103397327D01*
X85495563Y-103632359D01*
X85695441Y-103832237D01*
X85930473Y-103989280D01*
X86191626Y-104097453D01*
X86468865Y-104152600D01*
X86751535Y-104152600D01*
X86775801Y-104147773D01*
X86775801Y-106573851D01*
X86692109Y-106548464D01*
X86481292Y-106527700D01*
X86340308Y-106527700D01*
X86129491Y-106548464D01*
X85858992Y-106630518D01*
X85609699Y-106763768D01*
X85391192Y-106943092D01*
X85211868Y-107161599D01*
X85078618Y-107410892D01*
X84996564Y-107681391D01*
X84968857Y-107962700D01*
X84652343Y-107962700D01*
X84624636Y-107681391D01*
X84542582Y-107410892D01*
X84409332Y-107161599D01*
X84230008Y-106943092D01*
X84011501Y-106763768D01*
X83762208Y-106630518D01*
X83491709Y-106548464D01*
X83280892Y-106527700D01*
X83139908Y-106527700D01*
X82929091Y-106548464D01*
X82658592Y-106630518D01*
X82409299Y-106763768D01*
X82190792Y-106943092D01*
X82011468Y-107161599D01*
X81878218Y-107410892D01*
X81796164Y-107681391D01*
X81768457Y-107962700D01*
X81521200Y-107962700D01*
X81521200Y-107808665D01*
X81466053Y-107531426D01*
X81357880Y-107270273D01*
X81200837Y-107035241D01*
X81000959Y-106835363D01*
X80765927Y-106678320D01*
X80504774Y-106570147D01*
X80227535Y-106515000D01*
X79944865Y-106515000D01*
X79667626Y-106570147D01*
X79406473Y-106678320D01*
X79171441Y-106835363D01*
X78971563Y-107035241D01*
X78814520Y-107270273D01*
X78706347Y-107531426D01*
X78651200Y-107808665D01*
X78447800Y-107808665D01*
X78392653Y-107531426D01*
X78284480Y-107270273D01*
X78127437Y-107035241D01*
X77927559Y-106835363D01*
X77692527Y-106678320D01*
X77431374Y-106570147D01*
X77154135Y-106515000D01*
X76871465Y-106515000D01*
X76594226Y-106570147D01*
X76333073Y-106678320D01*
X76098041Y-106835363D01*
X75898163Y-107035241D01*
X75741120Y-107270273D01*
X75632947Y-107531426D01*
X75577800Y-107808665D01*
X75374400Y-107808665D01*
X75319253Y-107531426D01*
X75211080Y-107270273D01*
X75054037Y-107035241D01*
X74854159Y-106835363D01*
X74619127Y-106678320D01*
X74357974Y-106570147D01*
X74080735Y-106515000D01*
X73798065Y-106515000D01*
X73520826Y-106570147D01*
X73259673Y-106678320D01*
X73024641Y-106835363D01*
X72824763Y-107035241D01*
X72667720Y-107270273D01*
X72559547Y-107531426D01*
X72504400Y-107808665D01*
X70048136Y-107808665D01*
X74083157Y-103773645D01*
X74190514Y-103795000D01*
X74453486Y-103795000D01*
X74711405Y-103743696D01*
X74954359Y-103643061D01*
X75173013Y-103496962D01*
X75358962Y-103311013D01*
X75505061Y-103092359D01*
X75605696Y-102849405D01*
X75657000Y-102591486D01*
X75657000Y-102576265D01*
X80175200Y-102576265D01*
X80175200Y-102858935D01*
X80230347Y-103136174D01*
X80338520Y-103397327D01*
X80495563Y-103632359D01*
X80695441Y-103832237D01*
X80930473Y-103989280D01*
X81191626Y-104097453D01*
X81468865Y-104152600D01*
X81751535Y-104152600D01*
X82028774Y-104097453D01*
X82289927Y-103989280D01*
X82524959Y-103832237D01*
X82724837Y-103632359D01*
X82881880Y-103397327D01*
X82990053Y-103136174D01*
X83045200Y-102858935D01*
X83045200Y-102576265D01*
X82990053Y-102299026D01*
X82881880Y-102037873D01*
X82724837Y-101802841D01*
X82524959Y-101602963D01*
X82289927Y-101445920D01*
X82028774Y-101337747D01*
X81751535Y-101282600D01*
X81468865Y-101282600D01*
X81191626Y-101337747D01*
X80930473Y-101445920D01*
X80695441Y-101602963D01*
X80495563Y-101802841D01*
X80338520Y-102037873D01*
X80230347Y-102299026D01*
X80175200Y-102576265D01*
X75657000Y-102576265D01*
X75657000Y-102328514D01*
X75605696Y-102070595D01*
X75505061Y-101827641D01*
X75358962Y-101608987D01*
X75319975Y-101570000D01*
X75358962Y-101531013D01*
X75505061Y-101312359D01*
X75605696Y-101069405D01*
X75657000Y-100811486D01*
X75657000Y-100548514D01*
X75605696Y-100290595D01*
X75505061Y-100047641D01*
X75358962Y-99828987D01*
X75319975Y-99790000D01*
X75358962Y-99751013D01*
X75505061Y-99532359D01*
X75605696Y-99289405D01*
X75657000Y-99031486D01*
X75657000Y-98960001D01*
X80341508Y-98960001D01*
X80338520Y-98964473D01*
X80230347Y-99225626D01*
X80175200Y-99502865D01*
X80175200Y-99785535D01*
X80230347Y-100062774D01*
X80338520Y-100323927D01*
X80495563Y-100558959D01*
X80695441Y-100758837D01*
X80930473Y-100915880D01*
X81191626Y-101024053D01*
X81468865Y-101079200D01*
X81751535Y-101079200D01*
X82028774Y-101024053D01*
X82289927Y-100915880D01*
X82524959Y-100758837D01*
X82724837Y-100558959D01*
X82881880Y-100323927D01*
X82990053Y-100062774D01*
X83045200Y-99785535D01*
X83045200Y-99502865D01*
X82990053Y-99225626D01*
X82881880Y-98964473D01*
X82878892Y-98960001D01*
X84998277Y-98960001D01*
X85035599Y-98963677D01*
X85072921Y-98960001D01*
X85072932Y-98960001D01*
X85184585Y-98949004D01*
X85327846Y-98905547D01*
X85405698Y-98863934D01*
X85338520Y-98964473D01*
X85230347Y-99225626D01*
X85175200Y-99502865D01*
X85175200Y-99785535D01*
X85230347Y-100062774D01*
X85338520Y-100323927D01*
X85495563Y-100558959D01*
X85695441Y-100758837D01*
X85930473Y-100915880D01*
X86191626Y-101024053D01*
X86468865Y-101079200D01*
X86751535Y-101079200D01*
X87028774Y-101024053D01*
X87289927Y-100915880D01*
X87524959Y-100758837D01*
X87724837Y-100558959D01*
X87881880Y-100323927D01*
X87990053Y-100062774D01*
X88045200Y-99785535D01*
X88045200Y-99502865D01*
X87990053Y-99225626D01*
X87881880Y-98964473D01*
X87724837Y-98729441D01*
X87524959Y-98529563D01*
X87289927Y-98372520D01*
X87028774Y-98264347D01*
X86751535Y-98209200D01*
X86468865Y-98209200D01*
X86191626Y-98264347D01*
X85943120Y-98367281D01*
X86290114Y-98020288D01*
X86472665Y-98056600D01*
X86755335Y-98056600D01*
X87032574Y-98001453D01*
X87293727Y-97893280D01*
X87528759Y-97736237D01*
X87728637Y-97536359D01*
X87885680Y-97301327D01*
X87993853Y-97040174D01*
X88049000Y-96762935D01*
X88049000Y-96480265D01*
X87993853Y-96203026D01*
X87885680Y-95941873D01*
X87728637Y-95706841D01*
X87528759Y-95506963D01*
X87293727Y-95349920D01*
X87032574Y-95241747D01*
X86755335Y-95186600D01*
X86472665Y-95186600D01*
X86195426Y-95241747D01*
X85934273Y-95349920D01*
X85699241Y-95506963D01*
X85499363Y-95706841D01*
X85342320Y-95941873D01*
X85234147Y-96203026D01*
X85179000Y-96480265D01*
X85179000Y-96762935D01*
X85215312Y-96945486D01*
X84720798Y-97440001D01*
X82793021Y-97440001D01*
X82885680Y-97301327D01*
X82993853Y-97040174D01*
X83049000Y-96762935D01*
X83049000Y-96480265D01*
X82993853Y-96203026D01*
X82885680Y-95941873D01*
X82728637Y-95706841D01*
X82528759Y-95506963D01*
X82374000Y-95403557D01*
X82374000Y-94690043D01*
X82528759Y-94586637D01*
X82728637Y-94386759D01*
X82885680Y-94151727D01*
X82993853Y-93890574D01*
X83049000Y-93613335D01*
X83049000Y-93330665D01*
X85179000Y-93330665D01*
X85179000Y-93613335D01*
X85234147Y-93890574D01*
X85342320Y-94151727D01*
X85499363Y-94386759D01*
X85699241Y-94586637D01*
X85934273Y-94743680D01*
X86195426Y-94851853D01*
X86472665Y-94907000D01*
X86755335Y-94907000D01*
X87032574Y-94851853D01*
X87293727Y-94743680D01*
X87528759Y-94586637D01*
X87728637Y-94386759D01*
X87885680Y-94151727D01*
X87993853Y-93890574D01*
X88049000Y-93613335D01*
X88049000Y-93330665D01*
X87993853Y-93053426D01*
X87885680Y-92792273D01*
X87728637Y-92557241D01*
X87528759Y-92357363D01*
X87293727Y-92200320D01*
X87032574Y-92092147D01*
X86755335Y-92037000D01*
X86472665Y-92037000D01*
X86195426Y-92092147D01*
X85934273Y-92200320D01*
X85699241Y-92357363D01*
X85499363Y-92557241D01*
X85342320Y-92792273D01*
X85234147Y-93053426D01*
X85179000Y-93330665D01*
X83049000Y-93330665D01*
X82993853Y-93053426D01*
X82885680Y-92792273D01*
X82728637Y-92557241D01*
X82528759Y-92357363D01*
X82293727Y-92200320D01*
X82032574Y-92092147D01*
X81755335Y-92037000D01*
X81472665Y-92037000D01*
X81290114Y-92073312D01*
X80961080Y-91744279D01*
X81166226Y-91829253D01*
X81443465Y-91884400D01*
X81726135Y-91884400D01*
X82003374Y-91829253D01*
X82264527Y-91721080D01*
X82499559Y-91564037D01*
X82699437Y-91364159D01*
X82856480Y-91129127D01*
X82964653Y-90867974D01*
X83019800Y-90590735D01*
X83019800Y-90308065D01*
X85149800Y-90308065D01*
X85149800Y-90590735D01*
X85204947Y-90867974D01*
X85313120Y-91129127D01*
X85470163Y-91364159D01*
X85670041Y-91564037D01*
X85905073Y-91721080D01*
X86166226Y-91829253D01*
X86443465Y-91884400D01*
X86726135Y-91884400D01*
X87003374Y-91829253D01*
X87264527Y-91721080D01*
X87499559Y-91564037D01*
X87699437Y-91364159D01*
X87856480Y-91129127D01*
X87964653Y-90867974D01*
X88019800Y-90590735D01*
X88019800Y-90308065D01*
X87964653Y-90030826D01*
X87856480Y-89769673D01*
X87699437Y-89534641D01*
X87499559Y-89334763D01*
X87264527Y-89177720D01*
X87003374Y-89069547D01*
X86726135Y-89014400D01*
X86443465Y-89014400D01*
X86166226Y-89069547D01*
X85905073Y-89177720D01*
X85670041Y-89334763D01*
X85470163Y-89534641D01*
X85313120Y-89769673D01*
X85204947Y-90030826D01*
X85149800Y-90308065D01*
X83019800Y-90308065D01*
X82964653Y-90030826D01*
X82856480Y-89769673D01*
X82699437Y-89534641D01*
X82499559Y-89334763D01*
X82264527Y-89177720D01*
X82003374Y-89069547D01*
X81726135Y-89014400D01*
X81443465Y-89014400D01*
X81166226Y-89069547D01*
X80905073Y-89177720D01*
X80670041Y-89334763D01*
X80470163Y-89534641D01*
X80313120Y-89769673D01*
X80204947Y-90030826D01*
X80149800Y-90308065D01*
X80149800Y-90590735D01*
X80204947Y-90867974D01*
X80312150Y-91126785D01*
X80214247Y-91074454D01*
X80070986Y-91030997D01*
X79959333Y-91020000D01*
X79959322Y-91020000D01*
X79922000Y-91016324D01*
X79884678Y-91020000D01*
X75419775Y-91020000D01*
X75358962Y-90928987D01*
X75319975Y-90890000D01*
X75358962Y-90851013D01*
X75505061Y-90632359D01*
X75605696Y-90389405D01*
X75657000Y-90131486D01*
X75657000Y-89868514D01*
X75605696Y-89610595D01*
X75505061Y-89367641D01*
X75358962Y-89148987D01*
X75173013Y-88963038D01*
X74954359Y-88816939D01*
X74711405Y-88716304D01*
X74453486Y-88665000D01*
X74190514Y-88665000D01*
X73932595Y-88716304D01*
X73689641Y-88816939D01*
X73470987Y-88963038D01*
X73285038Y-89148987D01*
X73259705Y-89186901D01*
X73215200Y-89103637D01*
X73126475Y-88995525D01*
X73018363Y-88906800D01*
X72895020Y-88840872D01*
X72761184Y-88800273D01*
X72656877Y-88790000D01*
X72622000Y-88786565D01*
X72587123Y-88790000D01*
X63456877Y-88790000D01*
X63422000Y-88786565D01*
X63387123Y-88790000D01*
X63282816Y-88800273D01*
X63148980Y-88840872D01*
X63025637Y-88906800D01*
X62960445Y-88960301D01*
X62952537Y-88945506D01*
X62873185Y-88848815D01*
X62776494Y-88769463D01*
X62666180Y-88710498D01*
X62546482Y-88674188D01*
X62422000Y-88661928D01*
X61022000Y-88661928D01*
X60897518Y-88674188D01*
X60777820Y-88710498D01*
X60667506Y-88769463D01*
X60570815Y-88848815D01*
X60491463Y-88945506D01*
X60432498Y-89055820D01*
X60396188Y-89175518D01*
X60383928Y-89300000D01*
X60383928Y-90700000D01*
X60396188Y-90824482D01*
X60432498Y-90944180D01*
X60491463Y-91054494D01*
X60551939Y-91128185D01*
X60538939Y-91147641D01*
X60438304Y-91390595D01*
X60387000Y-91648514D01*
X60387000Y-91911486D01*
X60438304Y-92169405D01*
X60538939Y-92412359D01*
X60685038Y-92631013D01*
X60724025Y-92670000D01*
X60685038Y-92708987D01*
X60538939Y-92927641D01*
X60438304Y-93170595D01*
X60387000Y-93428514D01*
X60387000Y-93691486D01*
X60438304Y-93949405D01*
X60538939Y-94192359D01*
X60685038Y-94411013D01*
X60724025Y-94450000D01*
X60685038Y-94488987D01*
X60538939Y-94707641D01*
X60438304Y-94950595D01*
X60387000Y-95208514D01*
X60387000Y-95471486D01*
X60408355Y-95578843D01*
X58880946Y-97106253D01*
X58863182Y-97047692D01*
X58729932Y-96798399D01*
X58550608Y-96579892D01*
X58332101Y-96400568D01*
X58199142Y-96329500D01*
X58332101Y-96258432D01*
X58550608Y-96079108D01*
X58729932Y-95860601D01*
X58863182Y-95611308D01*
X58945236Y-95340809D01*
X58972943Y-95059500D01*
X58945236Y-94778191D01*
X58863182Y-94507692D01*
X58729932Y-94258399D01*
X58550608Y-94039892D01*
X58332101Y-93860568D01*
X58199142Y-93789500D01*
X58332101Y-93718432D01*
X58550608Y-93539108D01*
X58729932Y-93320601D01*
X58863182Y-93071308D01*
X58945236Y-92800809D01*
X58972943Y-92519500D01*
X58945236Y-92238191D01*
X58863182Y-91967692D01*
X58729932Y-91718399D01*
X58550608Y-91499892D01*
X58332101Y-91320568D01*
X58199142Y-91249500D01*
X58332101Y-91178432D01*
X58550608Y-90999108D01*
X58729932Y-90780601D01*
X58863182Y-90531308D01*
X58945236Y-90260809D01*
X58972943Y-89979500D01*
X58945236Y-89698191D01*
X58863182Y-89427692D01*
X58729932Y-89178399D01*
X58550608Y-88959892D01*
X58332101Y-88780568D01*
X58199142Y-88709500D01*
X58332101Y-88638432D01*
X58550608Y-88459108D01*
X58729932Y-88240601D01*
X58863182Y-87991308D01*
X58945236Y-87720809D01*
X58972943Y-87439500D01*
X58947765Y-87183865D01*
X80149800Y-87183865D01*
X80149800Y-87466535D01*
X80204947Y-87743774D01*
X80313120Y-88004927D01*
X80470163Y-88239959D01*
X80670041Y-88439837D01*
X80905073Y-88596880D01*
X81166226Y-88705053D01*
X81443465Y-88760200D01*
X81726135Y-88760200D01*
X82003374Y-88705053D01*
X82264527Y-88596880D01*
X82499559Y-88439837D01*
X82699437Y-88239959D01*
X82856480Y-88004927D01*
X82964653Y-87743774D01*
X83019800Y-87466535D01*
X83019800Y-87183865D01*
X85149800Y-87183865D01*
X85149800Y-87466535D01*
X85204947Y-87743774D01*
X85313120Y-88004927D01*
X85470163Y-88239959D01*
X85670041Y-88439837D01*
X85905073Y-88596880D01*
X86166226Y-88705053D01*
X86443465Y-88760200D01*
X86726135Y-88760200D01*
X87003374Y-88705053D01*
X87264527Y-88596880D01*
X87499559Y-88439837D01*
X87699437Y-88239959D01*
X87856480Y-88004927D01*
X87964653Y-87743774D01*
X88019800Y-87466535D01*
X88019800Y-87183865D01*
X87964653Y-86906626D01*
X87856480Y-86645473D01*
X87699437Y-86410441D01*
X87499559Y-86210563D01*
X87264527Y-86053520D01*
X87003374Y-85945347D01*
X86726135Y-85890200D01*
X86443465Y-85890200D01*
X86166226Y-85945347D01*
X85905073Y-86053520D01*
X85670041Y-86210563D01*
X85470163Y-86410441D01*
X85313120Y-86645473D01*
X85204947Y-86906626D01*
X85149800Y-87183865D01*
X83019800Y-87183865D01*
X82964653Y-86906626D01*
X82856480Y-86645473D01*
X82699437Y-86410441D01*
X82499559Y-86210563D01*
X82264527Y-86053520D01*
X82003374Y-85945347D01*
X81726135Y-85890200D01*
X81443465Y-85890200D01*
X81166226Y-85945347D01*
X80905073Y-86053520D01*
X80670041Y-86210563D01*
X80470163Y-86410441D01*
X80313120Y-86645473D01*
X80204947Y-86906626D01*
X80149800Y-87183865D01*
X58947765Y-87183865D01*
X58945236Y-87158191D01*
X58863182Y-86887692D01*
X58729932Y-86638399D01*
X58550608Y-86419892D01*
X58332101Y-86240568D01*
X58199142Y-86169500D01*
X58332101Y-86098432D01*
X58550608Y-85919108D01*
X58729932Y-85700601D01*
X58863182Y-85451308D01*
X58945236Y-85180809D01*
X58972943Y-84899500D01*
X58945236Y-84618191D01*
X58931708Y-84573594D01*
X60018081Y-83487221D01*
X65515000Y-83487221D01*
X65515000Y-84051178D01*
X65531785Y-84221599D01*
X65598115Y-84440259D01*
X65705829Y-84641778D01*
X65850788Y-84818412D01*
X66027421Y-84963371D01*
X66228940Y-85071085D01*
X66447600Y-85137415D01*
X66675000Y-85159812D01*
X66757668Y-85151670D01*
X66961211Y-85355213D01*
X66985009Y-85384211D01*
X67100734Y-85479184D01*
X67232763Y-85549756D01*
X67376024Y-85593213D01*
X67487677Y-85604210D01*
X67487685Y-85604210D01*
X67525010Y-85607886D01*
X67562335Y-85604210D01*
X71898898Y-85604210D01*
X71936220Y-85607886D01*
X71973542Y-85604210D01*
X71973553Y-85604210D01*
X72085206Y-85593213D01*
X72228467Y-85549756D01*
X72360496Y-85479184D01*
X72476221Y-85384211D01*
X72500023Y-85355208D01*
X72566218Y-85289014D01*
X72694441Y-85417237D01*
X72929473Y-85574280D01*
X73190626Y-85682453D01*
X73467865Y-85737600D01*
X73750535Y-85737600D01*
X74027774Y-85682453D01*
X74288927Y-85574280D01*
X74523959Y-85417237D01*
X74723837Y-85217359D01*
X74880880Y-84982327D01*
X74989053Y-84721174D01*
X75044200Y-84443935D01*
X75044200Y-84161265D01*
X77174200Y-84161265D01*
X77174200Y-84443935D01*
X77229347Y-84721174D01*
X77337520Y-84982327D01*
X77494563Y-85217359D01*
X77694441Y-85417237D01*
X77929473Y-85574280D01*
X78190626Y-85682453D01*
X78467865Y-85737600D01*
X78750535Y-85737600D01*
X79027774Y-85682453D01*
X79288927Y-85574280D01*
X79523959Y-85417237D01*
X79723837Y-85217359D01*
X79880880Y-84982327D01*
X79989053Y-84721174D01*
X80044200Y-84443935D01*
X80044200Y-84161265D01*
X79989053Y-83884026D01*
X79880880Y-83622873D01*
X79723837Y-83387841D01*
X79523959Y-83187963D01*
X79288927Y-83030920D01*
X79027774Y-82922747D01*
X78750535Y-82867600D01*
X78467865Y-82867600D01*
X78190626Y-82922747D01*
X77929473Y-83030920D01*
X77694441Y-83187963D01*
X77494563Y-83387841D01*
X77337520Y-83622873D01*
X77229347Y-83884026D01*
X77174200Y-84161265D01*
X75044200Y-84161265D01*
X74989053Y-83884026D01*
X74880880Y-83622873D01*
X74723837Y-83387841D01*
X74523959Y-83187963D01*
X74288927Y-83030920D01*
X74027774Y-82922747D01*
X73750535Y-82867600D01*
X73467865Y-82867600D01*
X73190626Y-82922747D01*
X72929473Y-83030920D01*
X72694441Y-83187963D01*
X72494563Y-83387841D01*
X72387681Y-83547802D01*
X72328844Y-83553597D01*
X72185583Y-83597054D01*
X72053554Y-83667626D01*
X71937829Y-83762599D01*
X71914030Y-83791598D01*
X71621419Y-84084210D01*
X70378072Y-84084210D01*
X70378072Y-83019200D01*
X70365812Y-82894718D01*
X70329502Y-82775020D01*
X70270537Y-82664706D01*
X70191185Y-82568015D01*
X70094494Y-82488663D01*
X69984180Y-82429698D01*
X69864482Y-82393388D01*
X69740000Y-82381128D01*
X68690000Y-82381128D01*
X68565518Y-82393388D01*
X68445820Y-82429698D01*
X68381098Y-82464293D01*
X68172400Y-82400985D01*
X67945000Y-82378588D01*
X67717601Y-82400985D01*
X67498941Y-82467315D01*
X67310001Y-82568306D01*
X67121060Y-82467315D01*
X66902400Y-82400985D01*
X66675000Y-82378588D01*
X66447601Y-82400985D01*
X66228941Y-82467315D01*
X66027422Y-82575029D01*
X65850789Y-82719988D01*
X65705830Y-82896621D01*
X65598115Y-83098140D01*
X65531785Y-83316800D01*
X65515000Y-83487221D01*
X60018081Y-83487221D01*
X62539503Y-80965799D01*
X72178000Y-80965799D01*
X72178000Y-81192735D01*
X72233147Y-81469974D01*
X72341320Y-81731127D01*
X72498363Y-81966159D01*
X72698241Y-82166037D01*
X72933273Y-82323080D01*
X73194426Y-82431253D01*
X73471665Y-82486400D01*
X73754335Y-82486400D01*
X74031574Y-82431253D01*
X74292727Y-82323080D01*
X74527759Y-82166037D01*
X74727637Y-81966159D01*
X74884680Y-81731127D01*
X74992853Y-81469974D01*
X75048000Y-81192735D01*
X75048000Y-80910065D01*
X77178000Y-80910065D01*
X77178000Y-81192735D01*
X77233147Y-81469974D01*
X77341320Y-81731127D01*
X77498363Y-81966159D01*
X77698241Y-82166037D01*
X77933273Y-82323080D01*
X78194426Y-82431253D01*
X78471665Y-82486400D01*
X78754335Y-82486400D01*
X79031574Y-82431253D01*
X79292727Y-82323080D01*
X79527759Y-82166037D01*
X79727637Y-81966159D01*
X79884680Y-81731127D01*
X79992853Y-81469974D01*
X80048000Y-81192735D01*
X80048000Y-80910065D01*
X79992853Y-80632826D01*
X79884680Y-80371673D01*
X79727637Y-80136641D01*
X79527759Y-79936763D01*
X79292727Y-79779720D01*
X79031574Y-79671547D01*
X78754335Y-79616400D01*
X78471665Y-79616400D01*
X78194426Y-79671547D01*
X77933273Y-79779720D01*
X77698241Y-79936763D01*
X77498363Y-80136641D01*
X77341320Y-80371673D01*
X77233147Y-80632826D01*
X77178000Y-80910065D01*
X75048000Y-80910065D01*
X74992853Y-80632826D01*
X74884680Y-80371673D01*
X74727637Y-80136641D01*
X74527759Y-79936763D01*
X74293778Y-79780422D01*
X74388999Y-79685201D01*
X77450677Y-79685201D01*
X77487999Y-79688877D01*
X77525321Y-79685201D01*
X77525332Y-79685201D01*
X77636985Y-79674204D01*
X77780246Y-79630747D01*
X77912275Y-79560175D01*
X78028000Y-79465202D01*
X78051803Y-79436198D01*
X78289113Y-79198888D01*
X78471665Y-79235200D01*
X78754335Y-79235200D01*
X79031574Y-79180053D01*
X79292727Y-79071880D01*
X79527759Y-78914837D01*
X79727637Y-78714959D01*
X79884680Y-78479927D01*
X79992853Y-78218774D01*
X80048000Y-77941535D01*
X80048000Y-77658865D01*
X79992853Y-77381626D01*
X79884680Y-77120473D01*
X79727637Y-76885441D01*
X79527759Y-76685563D01*
X79292727Y-76528520D01*
X79031574Y-76420347D01*
X78754335Y-76365200D01*
X78471665Y-76365200D01*
X78194426Y-76420347D01*
X77933273Y-76528520D01*
X77698241Y-76685563D01*
X77498363Y-76885441D01*
X77341320Y-77120473D01*
X77233147Y-77381626D01*
X77178000Y-77658865D01*
X77178000Y-77941535D01*
X77214312Y-78124087D01*
X77173198Y-78165201D01*
X75003509Y-78165201D01*
X75048000Y-77941535D01*
X75048000Y-77658865D01*
X74992853Y-77381626D01*
X74884680Y-77120473D01*
X74727637Y-76885441D01*
X74527759Y-76685563D01*
X74292727Y-76528520D01*
X74031574Y-76420347D01*
X73754335Y-76365200D01*
X73471665Y-76365200D01*
X73194426Y-76420347D01*
X72933273Y-76528520D01*
X72698241Y-76685563D01*
X72498363Y-76885441D01*
X72341320Y-77120473D01*
X72233147Y-77381626D01*
X72178000Y-77658865D01*
X72178000Y-77941535D01*
X72233147Y-78218774D01*
X72341320Y-78479927D01*
X72498363Y-78714959D01*
X72698241Y-78914837D01*
X72884983Y-79039614D01*
X72478798Y-79445799D01*
X69203002Y-79445799D01*
X76006802Y-72642000D01*
X91241905Y-72642000D01*
X91278794Y-72711014D01*
X91464366Y-72937134D01*
X91690486Y-73122706D01*
X91948466Y-73260599D01*
X92228389Y-73345513D01*
X92446550Y-73367000D01*
X92592450Y-73367000D01*
X92810611Y-73345513D01*
X93090534Y-73260599D01*
X93348514Y-73122706D01*
X93574634Y-72937134D01*
X93760206Y-72711014D01*
X93898099Y-72453034D01*
X93983013Y-72173111D01*
X94011685Y-71882000D01*
X93983013Y-71590889D01*
X93898099Y-71310966D01*
X93760206Y-71052986D01*
X93698052Y-70977251D01*
X94205509Y-70469796D01*
X94234502Y-70446002D01*
X94258296Y-70417009D01*
X94258300Y-70417005D01*
X94329474Y-70330278D01*
X94329475Y-70330277D01*
X94400047Y-70198248D01*
X94443504Y-70054987D01*
X94454501Y-69943334D01*
X94454501Y-69943325D01*
X94458177Y-69906002D01*
X94454501Y-69868679D01*
X94454501Y-68014323D01*
X94458177Y-67977000D01*
X94454501Y-67939677D01*
X94454501Y-67939668D01*
X94443504Y-67828015D01*
X94400047Y-67684754D01*
X94329475Y-67552725D01*
X94234502Y-67437000D01*
X94205505Y-67413203D01*
X93960297Y-67167995D01*
X93983013Y-67093111D01*
X94011685Y-66802000D01*
X93983013Y-66510889D01*
X93898099Y-66230966D01*
X93760206Y-65972986D01*
X93574634Y-65746866D01*
X93348514Y-65561294D01*
X93293709Y-65532000D01*
X93348514Y-65502706D01*
X93574634Y-65317134D01*
X93760206Y-65091014D01*
X93898099Y-64833034D01*
X93983013Y-64553111D01*
X94011685Y-64262000D01*
X93983013Y-63970889D01*
X93898099Y-63690966D01*
X93760206Y-63432986D01*
X93574634Y-63206866D01*
X93348514Y-63021294D01*
X93293709Y-62992000D01*
X93348514Y-62962706D01*
X93574634Y-62777134D01*
X93760206Y-62551014D01*
X93898099Y-62293034D01*
X93983013Y-62013111D01*
X94011685Y-61722000D01*
X93983013Y-61430889D01*
X93898099Y-61150966D01*
X93760206Y-60892986D01*
X93574634Y-60666866D01*
X93348514Y-60481294D01*
X93293709Y-60452000D01*
X93348514Y-60422706D01*
X93574634Y-60237134D01*
X93760206Y-60011014D01*
X93898099Y-59753034D01*
X93983013Y-59473111D01*
X94011685Y-59182000D01*
X93983013Y-58890889D01*
X93898099Y-58610966D01*
X93760206Y-58352986D01*
X93574634Y-58126866D01*
X93348514Y-57941294D01*
X93293709Y-57912000D01*
X93348514Y-57882706D01*
X93574634Y-57697134D01*
X93760206Y-57471014D01*
X93898099Y-57213034D01*
X93983013Y-56933111D01*
X94011685Y-56642000D01*
X93983013Y-56350889D01*
X93898099Y-56070966D01*
X93760206Y-55812986D01*
X93574634Y-55586866D01*
X93544813Y-55562393D01*
X93613680Y-55541502D01*
X93723994Y-55482537D01*
X93820685Y-55403185D01*
X93900037Y-55306494D01*
X93959002Y-55196180D01*
X93995312Y-55076482D01*
X94007572Y-54952000D01*
X94007572Y-53252000D01*
X93995312Y-53127518D01*
X93959002Y-53007820D01*
X93900037Y-52897506D01*
X93820685Y-52800815D01*
X93723994Y-52721463D01*
X93613680Y-52662498D01*
X93493982Y-52626188D01*
X93369500Y-52613928D01*
X91669500Y-52613928D01*
X91545018Y-52626188D01*
X91425320Y-52662498D01*
X91315006Y-52721463D01*
X91218315Y-52800815D01*
X91173015Y-52856013D01*
X87306004Y-48989003D01*
X87282201Y-48959999D01*
X87166476Y-48865026D01*
X87034447Y-48794454D01*
X86891186Y-48750997D01*
X86779533Y-48740000D01*
X86779522Y-48740000D01*
X86742200Y-48736324D01*
X86704878Y-48740000D01*
X85454909Y-48740000D01*
X85448918Y-48725537D01*
X85269987Y-48457748D01*
X85042252Y-48230013D01*
X84774463Y-48051082D01*
X84476912Y-47927832D01*
X84161033Y-47865000D01*
X83838967Y-47865000D01*
X83523088Y-47927832D01*
X83225537Y-48051082D01*
X82957748Y-48230013D01*
X82730013Y-48457748D01*
X82551082Y-48725537D01*
X82545091Y-48740000D01*
X78954909Y-48740000D01*
X78948918Y-48725537D01*
X78769987Y-48457748D01*
X78542252Y-48230013D01*
X78274463Y-48051082D01*
X77976912Y-47927832D01*
X77661033Y-47865000D01*
X77338967Y-47865000D01*
X77023088Y-47927832D01*
X76725537Y-48051082D01*
X76457748Y-48230013D01*
X76230013Y-48457748D01*
X76051082Y-48725537D01*
X75927832Y-49023088D01*
X75865000Y-49338967D01*
X75865000Y-49661033D01*
X75927832Y-49976912D01*
X76051082Y-50274463D01*
X76230013Y-50542252D01*
X76457748Y-50769987D01*
X76725537Y-50948918D01*
X77023088Y-51072168D01*
X77338967Y-51135000D01*
X77661033Y-51135000D01*
X77976912Y-51072168D01*
X78274463Y-50948918D01*
X78542252Y-50769987D01*
X78769987Y-50542252D01*
X78948918Y-50274463D01*
X78954909Y-50260000D01*
X82545091Y-50260000D01*
X82551082Y-50274463D01*
X82730013Y-50542252D01*
X82957748Y-50769987D01*
X83225537Y-50948918D01*
X83523088Y-51072168D01*
X83838967Y-51135000D01*
X84161033Y-51135000D01*
X84476912Y-51072168D01*
X84774463Y-50948918D01*
X85042252Y-50769987D01*
X85269987Y-50542252D01*
X85448918Y-50274463D01*
X85454909Y-50260000D01*
X86427399Y-50260000D01*
X90780401Y-54613003D01*
X90804199Y-54642001D01*
X90919924Y-54736974D01*
X91031428Y-54796575D01*
X91031428Y-54952000D01*
X91043688Y-55076482D01*
X91079998Y-55196180D01*
X91138963Y-55306494D01*
X91218315Y-55403185D01*
X91315006Y-55482537D01*
X91425320Y-55541502D01*
X91494187Y-55562393D01*
X91464366Y-55586866D01*
X91278794Y-55812986D01*
X91241905Y-55882000D01*
X65956802Y-55882000D01*
X60066177Y-49991376D01*
X60072168Y-49976912D01*
X60135000Y-49661033D01*
X60135000Y-49338967D01*
X60072168Y-49023088D01*
X59948918Y-48725537D01*
X59769987Y-48457748D01*
X59542252Y-48230013D01*
X59274463Y-48051082D01*
X58976912Y-47927832D01*
X58661033Y-47865000D01*
X58338967Y-47865000D01*
X58023088Y-47927832D01*
X57725537Y-48051082D01*
X57457748Y-48230013D01*
X57230013Y-48457748D01*
X57051082Y-48725537D01*
X57045091Y-48740000D01*
X53454909Y-48740000D01*
X53448918Y-48725537D01*
X53269987Y-48457748D01*
X53042252Y-48230013D01*
X52774463Y-48051082D01*
X52476912Y-47927832D01*
X52161033Y-47865000D01*
X51838967Y-47865000D01*
X51523088Y-47927832D01*
X51225537Y-48051082D01*
X50957748Y-48230013D01*
X50730013Y-48457748D01*
X50551082Y-48725537D01*
X50427832Y-49023088D01*
X50365000Y-49338967D01*
X50365000Y-49661033D01*
X50427832Y-49976912D01*
X50551082Y-50274463D01*
X50730013Y-50542252D01*
X50957748Y-50769987D01*
X51225537Y-50948918D01*
X51523088Y-51072168D01*
X51838967Y-51135000D01*
X52161033Y-51135000D01*
X52476912Y-51072168D01*
X52774463Y-50948918D01*
X53042252Y-50769987D01*
X53269987Y-50542252D01*
X53448918Y-50274463D01*
X53454909Y-50260000D01*
X57045091Y-50260000D01*
X57051082Y-50274463D01*
X57230013Y-50542252D01*
X57457748Y-50769987D01*
X57725537Y-50948918D01*
X58023088Y-51072168D01*
X58338967Y-51135000D01*
X58661033Y-51135000D01*
X58976912Y-51072168D01*
X58991376Y-51066177D01*
X65078201Y-57153003D01*
X65101999Y-57182001D01*
X65217724Y-57276974D01*
X65349753Y-57347546D01*
X65493014Y-57391003D01*
X65604667Y-57402000D01*
X65604676Y-57402000D01*
X65641999Y-57405676D01*
X65679322Y-57402000D01*
X91241905Y-57402000D01*
X91278794Y-57471014D01*
X91464366Y-57697134D01*
X91690486Y-57882706D01*
X91745291Y-57912000D01*
X91690486Y-57941294D01*
X91464366Y-58126866D01*
X91278794Y-58352986D01*
X91140901Y-58610966D01*
X91055987Y-58890889D01*
X91027315Y-59182000D01*
X91055987Y-59473111D01*
X91078703Y-59547995D01*
X90114709Y-60511990D01*
X67668923Y-60511990D01*
X67631600Y-60508314D01*
X67594277Y-60511990D01*
X67594267Y-60511990D01*
X67482614Y-60522987D01*
X67339353Y-60566444D01*
X67207324Y-60637016D01*
X67091599Y-60731989D01*
X67067801Y-60760987D01*
X43573690Y-84255099D01*
X43489932Y-84098399D01*
X43310608Y-83879892D01*
X43197518Y-83787081D01*
X43215482Y-83785312D01*
X43335180Y-83749002D01*
X43445494Y-83690037D01*
X43542185Y-83610685D01*
X43621537Y-83513994D01*
X43680502Y-83403680D01*
X43716812Y-83283982D01*
X43729072Y-83159500D01*
X43726000Y-82645250D01*
X43567250Y-82486500D01*
X42418000Y-82486500D01*
X42418000Y-82506500D01*
X42164000Y-82506500D01*
X42164000Y-82486500D01*
X41014750Y-82486500D01*
X40856000Y-82645250D01*
X40852928Y-83159500D01*
X40865188Y-83283982D01*
X40901498Y-83403680D01*
X40960463Y-83513994D01*
X41039815Y-83610685D01*
X41136506Y-83690037D01*
X41246820Y-83749002D01*
X41366518Y-83785312D01*
X41384482Y-83787081D01*
X41271392Y-83879892D01*
X41092068Y-84098399D01*
X40958818Y-84347692D01*
X40876764Y-84618191D01*
X40849057Y-84899500D01*
X40876764Y-85180809D01*
X40958818Y-85451308D01*
X41092068Y-85700601D01*
X41271392Y-85919108D01*
X41489899Y-86098432D01*
X41622858Y-86169500D01*
X41489899Y-86240568D01*
X41271392Y-86419892D01*
X41092068Y-86638399D01*
X40958818Y-86887692D01*
X40876764Y-87158191D01*
X40849057Y-87439500D01*
X40876764Y-87720809D01*
X40958818Y-87991308D01*
X41092068Y-88240601D01*
X41271392Y-88459108D01*
X41489899Y-88638432D01*
X41622858Y-88709500D01*
X41489899Y-88780568D01*
X41271392Y-88959892D01*
X41092068Y-89178399D01*
X40958818Y-89427692D01*
X40876764Y-89698191D01*
X40849057Y-89979500D01*
X40876764Y-90260809D01*
X40958818Y-90531308D01*
X41092068Y-90780601D01*
X41271392Y-90999108D01*
X41489899Y-91178432D01*
X41622858Y-91249500D01*
X41489899Y-91320568D01*
X41271392Y-91499892D01*
X41092068Y-91718399D01*
X40958818Y-91967692D01*
X40876764Y-92238191D01*
X40849057Y-92519500D01*
X40876764Y-92800809D01*
X40958818Y-93071308D01*
X41092068Y-93320601D01*
X41271392Y-93539108D01*
X41489899Y-93718432D01*
X41622858Y-93789500D01*
X41489899Y-93860568D01*
X41271392Y-94039892D01*
X41092068Y-94258399D01*
X40958818Y-94507692D01*
X40876764Y-94778191D01*
X40849057Y-95059500D01*
X40876764Y-95340809D01*
X40958818Y-95611308D01*
X41092068Y-95860601D01*
X41181330Y-95969367D01*
X40660000Y-96490697D01*
X40660000Y-81559500D01*
X40852928Y-81559500D01*
X40856000Y-82073750D01*
X41014750Y-82232500D01*
X42164000Y-82232500D01*
X42164000Y-81083250D01*
X42418000Y-81083250D01*
X42418000Y-82232500D01*
X43567250Y-82232500D01*
X43726000Y-82073750D01*
X43729072Y-81559500D01*
X43716812Y-81435018D01*
X43680502Y-81315320D01*
X43621537Y-81205006D01*
X43542185Y-81108315D01*
X43445494Y-81028963D01*
X43335180Y-80969998D01*
X43215482Y-80933688D01*
X43091000Y-80921428D01*
X42576750Y-80924500D01*
X42418000Y-81083250D01*
X42164000Y-81083250D01*
X42005250Y-80924500D01*
X41491000Y-80921428D01*
X41366518Y-80933688D01*
X41246820Y-80969998D01*
X41136506Y-81028963D01*
X41039815Y-81108315D01*
X40960463Y-81205006D01*
X40901498Y-81315320D01*
X40865188Y-81435018D01*
X40852928Y-81559500D01*
X40660000Y-81559500D01*
X40660000Y-44838967D01*
X50365000Y-44838967D01*
X50365000Y-45161033D01*
X50427832Y-45476912D01*
X50551082Y-45774463D01*
X50730013Y-46042252D01*
X50957748Y-46269987D01*
X51225537Y-46448918D01*
X51523088Y-46572168D01*
X51838967Y-46635000D01*
X52161033Y-46635000D01*
X52476912Y-46572168D01*
X52774463Y-46448918D01*
X53042252Y-46269987D01*
X53269987Y-46042252D01*
X53448918Y-45774463D01*
X53454909Y-45760000D01*
X57045091Y-45760000D01*
X57051082Y-45774463D01*
X57230013Y-46042252D01*
X57457748Y-46269987D01*
X57725537Y-46448918D01*
X58023088Y-46572168D01*
X58338967Y-46635000D01*
X58661033Y-46635000D01*
X58976912Y-46572168D01*
X59274463Y-46448918D01*
X59542252Y-46269987D01*
X59769987Y-46042252D01*
X59948918Y-45774463D01*
X59954909Y-45760000D01*
X66040760Y-45760000D01*
X65947047Y-45986244D01*
X65865000Y-46398721D01*
X65865000Y-46819279D01*
X65947047Y-47231756D01*
X66107988Y-47620302D01*
X66341637Y-47969983D01*
X66639017Y-48267363D01*
X66988698Y-48501012D01*
X67377244Y-48661953D01*
X67789721Y-48744000D01*
X68210279Y-48744000D01*
X68622756Y-48661953D01*
X69011302Y-48501012D01*
X69360983Y-48267363D01*
X69658363Y-47969983D01*
X69892012Y-47620302D01*
X70052953Y-47231756D01*
X70135000Y-46819279D01*
X70135000Y-46398721D01*
X70052953Y-45986244D01*
X69959240Y-45760000D01*
X76045091Y-45760000D01*
X76051082Y-45774463D01*
X76230013Y-46042252D01*
X76457748Y-46269987D01*
X76725537Y-46448918D01*
X77023088Y-46572168D01*
X77338967Y-46635000D01*
X77661033Y-46635000D01*
X77976912Y-46572168D01*
X78274463Y-46448918D01*
X78542252Y-46269987D01*
X78769987Y-46042252D01*
X78948918Y-45774463D01*
X78954909Y-45760000D01*
X82545091Y-45760000D01*
X82551082Y-45774463D01*
X82730013Y-46042252D01*
X82957748Y-46269987D01*
X83225537Y-46448918D01*
X83523088Y-46572168D01*
X83838967Y-46635000D01*
X84161033Y-46635000D01*
X84476912Y-46572168D01*
X84774463Y-46448918D01*
X85042252Y-46269987D01*
X85269987Y-46042252D01*
X85448918Y-45774463D01*
X85572168Y-45476912D01*
X85635000Y-45161033D01*
X85635000Y-44838967D01*
X85572168Y-44523088D01*
X85448918Y-44225537D01*
X85269987Y-43957748D01*
X85042252Y-43730013D01*
X84774463Y-43551082D01*
X84476912Y-43427832D01*
X84161033Y-43365000D01*
X83838967Y-43365000D01*
X83523088Y-43427832D01*
X83225537Y-43551082D01*
X82957748Y-43730013D01*
X82730013Y-43957748D01*
X82551082Y-44225537D01*
X82545091Y-44240000D01*
X78954909Y-44240000D01*
X78948918Y-44225537D01*
X78769987Y-43957748D01*
X78542252Y-43730013D01*
X78274463Y-43551082D01*
X77976912Y-43427832D01*
X77661033Y-43365000D01*
X77338967Y-43365000D01*
X77023088Y-43427832D01*
X76725537Y-43551082D01*
X76457748Y-43730013D01*
X76230013Y-43957748D01*
X76051082Y-44225537D01*
X76045091Y-44240000D01*
X59954909Y-44240000D01*
X59948918Y-44225537D01*
X59769987Y-43957748D01*
X59542252Y-43730013D01*
X59274463Y-43551082D01*
X58976912Y-43427832D01*
X58661033Y-43365000D01*
X58338967Y-43365000D01*
X58023088Y-43427832D01*
X57725537Y-43551082D01*
X57457748Y-43730013D01*
X57230013Y-43957748D01*
X57051082Y-44225537D01*
X57045091Y-44240000D01*
X53454909Y-44240000D01*
X53448918Y-44225537D01*
X53269987Y-43957748D01*
X53042252Y-43730013D01*
X52774463Y-43551082D01*
X52476912Y-43427832D01*
X52161033Y-43365000D01*
X51838967Y-43365000D01*
X51523088Y-43427832D01*
X51225537Y-43551082D01*
X50957748Y-43730013D01*
X50730013Y-43957748D01*
X50551082Y-44225537D01*
X50427832Y-44523088D01*
X50365000Y-44838967D01*
X40660000Y-44838967D01*
X40660000Y-42773380D01*
X42773381Y-40660000D01*
X93226620Y-40660000D01*
X95340000Y-42773381D01*
G36*
X60438304Y-102070595D02*
G01*
X60387000Y-102328514D01*
X60387000Y-102591486D01*
X60438304Y-102849405D01*
X60538939Y-103092359D01*
X60685038Y-103311013D01*
X60870987Y-103496962D01*
X61089641Y-103643061D01*
X61332595Y-103743696D01*
X61590514Y-103795000D01*
X61853486Y-103795000D01*
X61960843Y-103773645D01*
X62016201Y-103829003D01*
X62039999Y-103858001D01*
X62155724Y-103952974D01*
X62287753Y-104023546D01*
X62431014Y-104067003D01*
X62542667Y-104078000D01*
X62542676Y-104078000D01*
X62579999Y-104081676D01*
X62617322Y-104078000D01*
X71629198Y-104078000D01*
X61087699Y-114619500D01*
X58751901Y-114619500D01*
X58729932Y-114578399D01*
X58550608Y-114359892D01*
X58332101Y-114180568D01*
X58199142Y-114109500D01*
X58332101Y-114038432D01*
X58550608Y-113859108D01*
X58729932Y-113640601D01*
X58863182Y-113391308D01*
X58945236Y-113120809D01*
X58972943Y-112839500D01*
X58945236Y-112558191D01*
X58863182Y-112287692D01*
X58729932Y-112038399D01*
X58550608Y-111819892D01*
X58332101Y-111640568D01*
X58199142Y-111569500D01*
X58332101Y-111498432D01*
X58550608Y-111319108D01*
X58729932Y-111100601D01*
X58863182Y-110851308D01*
X58945236Y-110580809D01*
X58972943Y-110299500D01*
X58945236Y-110018191D01*
X58863182Y-109747692D01*
X58729932Y-109498399D01*
X58550608Y-109279892D01*
X58332101Y-109100568D01*
X58199142Y-109029500D01*
X58332101Y-108958432D01*
X58550608Y-108779108D01*
X58729932Y-108560601D01*
X58863182Y-108311308D01*
X58945236Y-108040809D01*
X58972943Y-107759500D01*
X58945236Y-107478191D01*
X58863182Y-107207692D01*
X58729932Y-106958399D01*
X58550608Y-106739892D01*
X58332101Y-106560568D01*
X58199142Y-106489500D01*
X58332101Y-106418432D01*
X58550608Y-106239108D01*
X58729932Y-106020601D01*
X58863182Y-105771308D01*
X58945236Y-105500809D01*
X58972943Y-105219500D01*
X58945236Y-104938191D01*
X58863182Y-104667692D01*
X58729932Y-104418399D01*
X58550608Y-104199892D01*
X58332101Y-104020568D01*
X58199142Y-103949500D01*
X58332101Y-103878432D01*
X58550608Y-103699108D01*
X58729932Y-103480601D01*
X58863182Y-103231308D01*
X58945236Y-102960809D01*
X58972943Y-102679500D01*
X58945236Y-102398191D01*
X58919849Y-102314499D01*
X59820230Y-102314499D01*
X59857552Y-102318175D01*
X59894874Y-102314499D01*
X59894885Y-102314499D01*
X60006538Y-102303502D01*
X60149799Y-102260045D01*
X60281828Y-102189473D01*
X60397553Y-102094500D01*
X60421355Y-102065497D01*
X60453894Y-102032959D01*
X60438304Y-102070595D01*
X60438304Y-102070595D01*
G37*
X60438304Y-102070595D02*
X60387000Y-102328514D01*
X60387000Y-102591486D01*
X60438304Y-102849405D01*
X60538939Y-103092359D01*
X60685038Y-103311013D01*
X60870987Y-103496962D01*
X61089641Y-103643061D01*
X61332595Y-103743696D01*
X61590514Y-103795000D01*
X61853486Y-103795000D01*
X61960843Y-103773645D01*
X62016201Y-103829003D01*
X62039999Y-103858001D01*
X62155724Y-103952974D01*
X62287753Y-104023546D01*
X62431014Y-104067003D01*
X62542667Y-104078000D01*
X62542676Y-104078000D01*
X62579999Y-104081676D01*
X62617322Y-104078000D01*
X71629198Y-104078000D01*
X61087699Y-114619500D01*
X58751901Y-114619500D01*
X58729932Y-114578399D01*
X58550608Y-114359892D01*
X58332101Y-114180568D01*
X58199142Y-114109500D01*
X58332101Y-114038432D01*
X58550608Y-113859108D01*
X58729932Y-113640601D01*
X58863182Y-113391308D01*
X58945236Y-113120809D01*
X58972943Y-112839500D01*
X58945236Y-112558191D01*
X58863182Y-112287692D01*
X58729932Y-112038399D01*
X58550608Y-111819892D01*
X58332101Y-111640568D01*
X58199142Y-111569500D01*
X58332101Y-111498432D01*
X58550608Y-111319108D01*
X58729932Y-111100601D01*
X58863182Y-110851308D01*
X58945236Y-110580809D01*
X58972943Y-110299500D01*
X58945236Y-110018191D01*
X58863182Y-109747692D01*
X58729932Y-109498399D01*
X58550608Y-109279892D01*
X58332101Y-109100568D01*
X58199142Y-109029500D01*
X58332101Y-108958432D01*
X58550608Y-108779108D01*
X58729932Y-108560601D01*
X58863182Y-108311308D01*
X58945236Y-108040809D01*
X58972943Y-107759500D01*
X58945236Y-107478191D01*
X58863182Y-107207692D01*
X58729932Y-106958399D01*
X58550608Y-106739892D01*
X58332101Y-106560568D01*
X58199142Y-106489500D01*
X58332101Y-106418432D01*
X58550608Y-106239108D01*
X58729932Y-106020601D01*
X58863182Y-105771308D01*
X58945236Y-105500809D01*
X58972943Y-105219500D01*
X58945236Y-104938191D01*
X58863182Y-104667692D01*
X58729932Y-104418399D01*
X58550608Y-104199892D01*
X58332101Y-104020568D01*
X58199142Y-103949500D01*
X58332101Y-103878432D01*
X58550608Y-103699108D01*
X58729932Y-103480601D01*
X58863182Y-103231308D01*
X58945236Y-102960809D01*
X58972943Y-102679500D01*
X58945236Y-102398191D01*
X58919849Y-102314499D01*
X59820230Y-102314499D01*
X59857552Y-102318175D01*
X59894874Y-102314499D01*
X59894885Y-102314499D01*
X60006538Y-102303502D01*
X60149799Y-102260045D01*
X60281828Y-102189473D01*
X60397553Y-102094500D01*
X60421355Y-102065497D01*
X60453894Y-102032959D01*
X60438304Y-102070595D01*
G36*
X91289202Y-71028003D02*
G01*
X91294249Y-71034154D01*
X91278794Y-71052986D01*
X91241905Y-71122000D01*
X75729322Y-71122000D01*
X75691999Y-71118324D01*
X75654676Y-71122000D01*
X75654667Y-71122000D01*
X75543014Y-71132997D01*
X75399753Y-71176454D01*
X75267724Y-71247026D01*
X75151999Y-71341999D01*
X75128201Y-71370997D01*
X70826923Y-75672276D01*
X70919629Y-75533531D01*
X71167260Y-74935699D01*
X71293500Y-74301044D01*
X71293500Y-73653956D01*
X71167260Y-73019301D01*
X70919629Y-72421469D01*
X70560126Y-71883434D01*
X70102566Y-71425874D01*
X69564531Y-71066371D01*
X68966699Y-70818740D01*
X68332044Y-70692500D01*
X67684956Y-70692500D01*
X67050301Y-70818740D01*
X66452469Y-71066371D01*
X65914434Y-71425874D01*
X65456874Y-71883434D01*
X65097371Y-72421469D01*
X64849740Y-73019301D01*
X64723500Y-73653956D01*
X64723500Y-74301044D01*
X64849740Y-74935699D01*
X65097371Y-75533531D01*
X65456874Y-76071566D01*
X65914434Y-76529126D01*
X66452469Y-76888629D01*
X67050301Y-77136260D01*
X67684956Y-77262500D01*
X68332044Y-77262500D01*
X68966699Y-77136260D01*
X69564531Y-76888629D01*
X69703276Y-76795923D01*
X67503410Y-78995789D01*
X60172034Y-78995789D01*
X60134711Y-78992113D01*
X60097388Y-78995789D01*
X60097378Y-78995789D01*
X59985725Y-79006786D01*
X59842464Y-79050243D01*
X59710434Y-79120815D01*
X59686814Y-79140200D01*
X59594710Y-79215788D01*
X59570912Y-79244786D01*
X57856907Y-80958792D01*
X57812309Y-80945264D01*
X57601492Y-80924500D01*
X57460508Y-80924500D01*
X57249691Y-80945264D01*
X56979192Y-81027318D01*
X56729899Y-81160568D01*
X56511392Y-81339892D01*
X56332068Y-81558399D01*
X56198818Y-81807692D01*
X56116764Y-82078191D01*
X56089057Y-82359500D01*
X56116764Y-82640809D01*
X56198818Y-82911308D01*
X56332068Y-83160601D01*
X56511392Y-83379108D01*
X56729899Y-83558432D01*
X56862858Y-83629500D01*
X56729899Y-83700568D01*
X56511392Y-83879892D01*
X56332068Y-84098399D01*
X56198818Y-84347692D01*
X56116764Y-84618191D01*
X56089057Y-84899500D01*
X56116764Y-85180809D01*
X56198818Y-85451308D01*
X56332068Y-85700601D01*
X56511392Y-85919108D01*
X56729899Y-86098432D01*
X56862858Y-86169500D01*
X56729899Y-86240568D01*
X56511392Y-86419892D01*
X56332068Y-86638399D01*
X56198818Y-86887692D01*
X56116764Y-87158191D01*
X56089057Y-87439500D01*
X56116764Y-87720809D01*
X56198818Y-87991308D01*
X56332068Y-88240601D01*
X56511392Y-88459108D01*
X56729899Y-88638432D01*
X56862858Y-88709500D01*
X56729899Y-88780568D01*
X56511392Y-88959892D01*
X56332068Y-89178399D01*
X56198818Y-89427692D01*
X56116764Y-89698191D01*
X56089057Y-89979500D01*
X56116764Y-90260809D01*
X56198818Y-90531308D01*
X56332068Y-90780601D01*
X56511392Y-90999108D01*
X56729899Y-91178432D01*
X56862858Y-91249500D01*
X56729899Y-91320568D01*
X56511392Y-91499892D01*
X56332068Y-91718399D01*
X56198818Y-91967692D01*
X56116764Y-92238191D01*
X56089057Y-92519500D01*
X56116764Y-92800809D01*
X56198818Y-93071308D01*
X56332068Y-93320601D01*
X56511392Y-93539108D01*
X56729899Y-93718432D01*
X56862858Y-93789500D01*
X56729899Y-93860568D01*
X56511392Y-94039892D01*
X56332068Y-94258399D01*
X56198818Y-94507692D01*
X56116764Y-94778191D01*
X56089057Y-95059500D01*
X56116764Y-95340809D01*
X56198818Y-95611308D01*
X56332068Y-95860601D01*
X56511392Y-96079108D01*
X56729899Y-96258432D01*
X56862858Y-96329500D01*
X56729899Y-96400568D01*
X56511392Y-96579892D01*
X56332068Y-96798399D01*
X56198818Y-97047692D01*
X56116764Y-97318191D01*
X56089057Y-97599500D01*
X56116764Y-97880809D01*
X56198818Y-98151308D01*
X56209611Y-98171500D01*
X54821633Y-98171500D01*
X54784300Y-98167823D01*
X54746967Y-98171500D01*
X54635314Y-98182497D01*
X54492053Y-98225954D01*
X54360024Y-98296526D01*
X54244299Y-98391499D01*
X54220501Y-98420497D01*
X43333371Y-109307628D01*
X43310608Y-109279892D01*
X43092101Y-109100568D01*
X42959142Y-109029500D01*
X43092101Y-108958432D01*
X43310608Y-108779108D01*
X43489932Y-108560601D01*
X43623182Y-108311308D01*
X43705236Y-108040809D01*
X43732943Y-107759500D01*
X43705236Y-107478191D01*
X43623182Y-107207692D01*
X43489932Y-106958399D01*
X43310608Y-106739892D01*
X43092101Y-106560568D01*
X42959142Y-106489500D01*
X43092101Y-106418432D01*
X43310608Y-106239108D01*
X43489932Y-106020601D01*
X43623182Y-105771308D01*
X43705236Y-105500809D01*
X43732943Y-105219500D01*
X43705236Y-104938191D01*
X43623182Y-104667692D01*
X43489932Y-104418399D01*
X43310608Y-104199892D01*
X43092101Y-104020568D01*
X42959142Y-103949500D01*
X43092101Y-103878432D01*
X43310608Y-103699108D01*
X43489932Y-103480601D01*
X43623182Y-103231308D01*
X43705236Y-102960809D01*
X43732943Y-102679500D01*
X43705236Y-102398191D01*
X43691708Y-102353594D01*
X45277039Y-100768264D01*
X45306032Y-100744470D01*
X45329826Y-100715477D01*
X45329830Y-100715473D01*
X45401004Y-100628746D01*
X45401005Y-100628745D01*
X45471577Y-100496716D01*
X45515034Y-100353455D01*
X45526031Y-100241802D01*
X45526031Y-100241793D01*
X45529707Y-100204470D01*
X45526031Y-100167147D01*
X45526031Y-86422270D01*
X61396292Y-70552010D01*
X90813209Y-70552010D01*
X91289202Y-71028003D01*
X91289202Y-71028003D01*
G37*
X91289202Y-71028003D02*
X91294249Y-71034154D01*
X91278794Y-71052986D01*
X91241905Y-71122000D01*
X75729322Y-71122000D01*
X75691999Y-71118324D01*
X75654676Y-71122000D01*
X75654667Y-71122000D01*
X75543014Y-71132997D01*
X75399753Y-71176454D01*
X75267724Y-71247026D01*
X75151999Y-71341999D01*
X75128201Y-71370997D01*
X70826923Y-75672276D01*
X70919629Y-75533531D01*
X71167260Y-74935699D01*
X71293500Y-74301044D01*
X71293500Y-73653956D01*
X71167260Y-73019301D01*
X70919629Y-72421469D01*
X70560126Y-71883434D01*
X70102566Y-71425874D01*
X69564531Y-71066371D01*
X68966699Y-70818740D01*
X68332044Y-70692500D01*
X67684956Y-70692500D01*
X67050301Y-70818740D01*
X66452469Y-71066371D01*
X65914434Y-71425874D01*
X65456874Y-71883434D01*
X65097371Y-72421469D01*
X64849740Y-73019301D01*
X64723500Y-73653956D01*
X64723500Y-74301044D01*
X64849740Y-74935699D01*
X65097371Y-75533531D01*
X65456874Y-76071566D01*
X65914434Y-76529126D01*
X66452469Y-76888629D01*
X67050301Y-77136260D01*
X67684956Y-77262500D01*
X68332044Y-77262500D01*
X68966699Y-77136260D01*
X69564531Y-76888629D01*
X69703276Y-76795923D01*
X67503410Y-78995789D01*
X60172034Y-78995789D01*
X60134711Y-78992113D01*
X60097388Y-78995789D01*
X60097378Y-78995789D01*
X59985725Y-79006786D01*
X59842464Y-79050243D01*
X59710434Y-79120815D01*
X59686814Y-79140200D01*
X59594710Y-79215788D01*
X59570912Y-79244786D01*
X57856907Y-80958792D01*
X57812309Y-80945264D01*
X57601492Y-80924500D01*
X57460508Y-80924500D01*
X57249691Y-80945264D01*
X56979192Y-81027318D01*
X56729899Y-81160568D01*
X56511392Y-81339892D01*
X56332068Y-81558399D01*
X56198818Y-81807692D01*
X56116764Y-82078191D01*
X56089057Y-82359500D01*
X56116764Y-82640809D01*
X56198818Y-82911308D01*
X56332068Y-83160601D01*
X56511392Y-83379108D01*
X56729899Y-83558432D01*
X56862858Y-83629500D01*
X56729899Y-83700568D01*
X56511392Y-83879892D01*
X56332068Y-84098399D01*
X56198818Y-84347692D01*
X56116764Y-84618191D01*
X56089057Y-84899500D01*
X56116764Y-85180809D01*
X56198818Y-85451308D01*
X56332068Y-85700601D01*
X56511392Y-85919108D01*
X56729899Y-86098432D01*
X56862858Y-86169500D01*
X56729899Y-86240568D01*
X56511392Y-86419892D01*
X56332068Y-86638399D01*
X56198818Y-86887692D01*
X56116764Y-87158191D01*
X56089057Y-87439500D01*
X56116764Y-87720809D01*
X56198818Y-87991308D01*
X56332068Y-88240601D01*
X56511392Y-88459108D01*
X56729899Y-88638432D01*
X56862858Y-88709500D01*
X56729899Y-88780568D01*
X56511392Y-88959892D01*
X56332068Y-89178399D01*
X56198818Y-89427692D01*
X56116764Y-89698191D01*
X56089057Y-89979500D01*
X56116764Y-90260809D01*
X56198818Y-90531308D01*
X56332068Y-90780601D01*
X56511392Y-90999108D01*
X56729899Y-91178432D01*
X56862858Y-91249500D01*
X56729899Y-91320568D01*
X56511392Y-91499892D01*
X56332068Y-91718399D01*
X56198818Y-91967692D01*
X56116764Y-92238191D01*
X56089057Y-92519500D01*
X56116764Y-92800809D01*
X56198818Y-93071308D01*
X56332068Y-93320601D01*
X56511392Y-93539108D01*
X56729899Y-93718432D01*
X56862858Y-93789500D01*
X56729899Y-93860568D01*
X56511392Y-94039892D01*
X56332068Y-94258399D01*
X56198818Y-94507692D01*
X56116764Y-94778191D01*
X56089057Y-95059500D01*
X56116764Y-95340809D01*
X56198818Y-95611308D01*
X56332068Y-95860601D01*
X56511392Y-96079108D01*
X56729899Y-96258432D01*
X56862858Y-96329500D01*
X56729899Y-96400568D01*
X56511392Y-96579892D01*
X56332068Y-96798399D01*
X56198818Y-97047692D01*
X56116764Y-97318191D01*
X56089057Y-97599500D01*
X56116764Y-97880809D01*
X56198818Y-98151308D01*
X56209611Y-98171500D01*
X54821633Y-98171500D01*
X54784300Y-98167823D01*
X54746967Y-98171500D01*
X54635314Y-98182497D01*
X54492053Y-98225954D01*
X54360024Y-98296526D01*
X54244299Y-98391499D01*
X54220501Y-98420497D01*
X43333371Y-109307628D01*
X43310608Y-109279892D01*
X43092101Y-109100568D01*
X42959142Y-109029500D01*
X43092101Y-108958432D01*
X43310608Y-108779108D01*
X43489932Y-108560601D01*
X43623182Y-108311308D01*
X43705236Y-108040809D01*
X43732943Y-107759500D01*
X43705236Y-107478191D01*
X43623182Y-107207692D01*
X43489932Y-106958399D01*
X43310608Y-106739892D01*
X43092101Y-106560568D01*
X42959142Y-106489500D01*
X43092101Y-106418432D01*
X43310608Y-106239108D01*
X43489932Y-106020601D01*
X43623182Y-105771308D01*
X43705236Y-105500809D01*
X43732943Y-105219500D01*
X43705236Y-104938191D01*
X43623182Y-104667692D01*
X43489932Y-104418399D01*
X43310608Y-104199892D01*
X43092101Y-104020568D01*
X42959142Y-103949500D01*
X43092101Y-103878432D01*
X43310608Y-103699108D01*
X43489932Y-103480601D01*
X43623182Y-103231308D01*
X43705236Y-102960809D01*
X43732943Y-102679500D01*
X43705236Y-102398191D01*
X43691708Y-102353594D01*
X45277039Y-100768264D01*
X45306032Y-100744470D01*
X45329826Y-100715477D01*
X45329830Y-100715473D01*
X45401004Y-100628746D01*
X45401005Y-100628745D01*
X45471577Y-100496716D01*
X45515034Y-100353455D01*
X45526031Y-100241802D01*
X45526031Y-100241793D01*
X45529707Y-100204470D01*
X45526031Y-100167147D01*
X45526031Y-86422270D01*
X61396292Y-70552010D01*
X90813209Y-70552010D01*
X91289202Y-71028003D01*
G36*
X80215312Y-93148114D02*
G01*
X80179000Y-93330665D01*
X80179000Y-93613335D01*
X80234147Y-93890574D01*
X80342320Y-94151727D01*
X80499363Y-94386759D01*
X80699241Y-94586637D01*
X80854000Y-94690043D01*
X80854000Y-95403556D01*
X80699241Y-95506963D01*
X80499363Y-95706841D01*
X80342320Y-95941873D01*
X80234147Y-96203026D01*
X80179000Y-96480265D01*
X80179000Y-96762935D01*
X80234147Y-97040174D01*
X80342320Y-97301327D01*
X80434979Y-97440001D01*
X76121800Y-97440001D01*
X76121800Y-94637122D01*
X76125476Y-94599799D01*
X76121800Y-94562476D01*
X76121800Y-94562467D01*
X76110803Y-94450814D01*
X76067346Y-94307553D01*
X75996774Y-94175524D01*
X75901801Y-94059799D01*
X75872803Y-94036001D01*
X75635645Y-93798843D01*
X75657000Y-93691486D01*
X75657000Y-93428514D01*
X75605696Y-93170595D01*
X75505061Y-92927641D01*
X75358962Y-92708987D01*
X75319975Y-92670000D01*
X75358962Y-92631013D01*
X75419775Y-92540000D01*
X79607199Y-92540000D01*
X80215312Y-93148114D01*
X80215312Y-93148114D01*
G37*
X80215312Y-93148114D02*
X80179000Y-93330665D01*
X80179000Y-93613335D01*
X80234147Y-93890574D01*
X80342320Y-94151727D01*
X80499363Y-94386759D01*
X80699241Y-94586637D01*
X80854000Y-94690043D01*
X80854000Y-95403556D01*
X80699241Y-95506963D01*
X80499363Y-95706841D01*
X80342320Y-95941873D01*
X80234147Y-96203026D01*
X80179000Y-96480265D01*
X80179000Y-96762935D01*
X80234147Y-97040174D01*
X80342320Y-97301327D01*
X80434979Y-97440001D01*
X76121800Y-97440001D01*
X76121800Y-94637122D01*
X76125476Y-94599799D01*
X76121800Y-94562476D01*
X76121800Y-94562467D01*
X76110803Y-94450814D01*
X76067346Y-94307553D01*
X75996774Y-94175524D01*
X75901801Y-94059799D01*
X75872803Y-94036001D01*
X75635645Y-93798843D01*
X75657000Y-93691486D01*
X75657000Y-93428514D01*
X75605696Y-93170595D01*
X75505061Y-92927641D01*
X75358962Y-92708987D01*
X75319975Y-92670000D01*
X75358962Y-92631013D01*
X75419775Y-92540000D01*
X79607199Y-92540000D01*
X80215312Y-93148114D01*
G36*
X91278794Y-62551014D02*
G01*
X91464366Y-62777134D01*
X91690486Y-62962706D01*
X91745291Y-62992000D01*
X91690486Y-63021294D01*
X91464366Y-63206866D01*
X91278794Y-63432986D01*
X91140901Y-63690966D01*
X91055987Y-63970889D01*
X91027315Y-64262000D01*
X91055987Y-64553111D01*
X91140901Y-64833034D01*
X91278794Y-65091014D01*
X91464366Y-65317134D01*
X91690486Y-65502706D01*
X91745291Y-65532000D01*
X91690486Y-65561294D01*
X91464366Y-65746866D01*
X91278794Y-65972986D01*
X91140901Y-66230966D01*
X91055987Y-66510889D01*
X91027315Y-66802000D01*
X91055987Y-67093111D01*
X91140901Y-67373034D01*
X91278794Y-67631014D01*
X91464366Y-67857134D01*
X91690486Y-68042706D01*
X91745291Y-68072000D01*
X91690486Y-68101294D01*
X91464366Y-68286866D01*
X91278794Y-68512986D01*
X91241905Y-68582000D01*
X62032802Y-68582000D01*
X68132802Y-62482000D01*
X91241905Y-62482000D01*
X91278794Y-62551014D01*
X91278794Y-62551014D01*
G37*
X91278794Y-62551014D02*
X91464366Y-62777134D01*
X91690486Y-62962706D01*
X91745291Y-62992000D01*
X91690486Y-63021294D01*
X91464366Y-63206866D01*
X91278794Y-63432986D01*
X91140901Y-63690966D01*
X91055987Y-63970889D01*
X91027315Y-64262000D01*
X91055987Y-64553111D01*
X91140901Y-64833034D01*
X91278794Y-65091014D01*
X91464366Y-65317134D01*
X91690486Y-65502706D01*
X91745291Y-65532000D01*
X91690486Y-65561294D01*
X91464366Y-65746866D01*
X91278794Y-65972986D01*
X91140901Y-66230966D01*
X91055987Y-66510889D01*
X91027315Y-66802000D01*
X91055987Y-67093111D01*
X91140901Y-67373034D01*
X91278794Y-67631014D01*
X91464366Y-67857134D01*
X91690486Y-68042706D01*
X91745291Y-68072000D01*
X91690486Y-68101294D01*
X91464366Y-68286866D01*
X91278794Y-68512986D01*
X91241905Y-68582000D01*
X62032802Y-68582000D01*
X68132802Y-62482000D01*
X91241905Y-62482000D01*
X91278794Y-62551014D01*
M02*
